<svg class="main-svg" xmlns="http://www.w3.org/2000/svg" xmlns:xlink="http://www.w3.org/1999/xlink" width="700" height="500" style="" viewBox="0 0 700 500"><rect x="0" y="0" width="700" height="500" style="fill: rgb(255, 255, 255); fill-opacity: 1;"/><defs id="defs-6d6cc3"><g class="clips"><clipPath id="clip6d6cc3xyplot" class="plotclip"><rect width="580" height="320"/></clipPath><clipPath class="axesclip" id="clip6d6cc3x"><rect x="80" y="0" width="580" height="500"/></clipPath><clipPath class="axesclip" id="clip6d6cc3y"><rect x="0" y="100" width="700" height="320"/></clipPath><clipPath class="axesclip" id="clip6d6cc3xy"><rect x="80" y="100" width="580" height="320"/></clipPath></g><g class="gradients"/><g class="patterns"/></defs><g class="bglayer"/><g class="layer-below"><g class="imagelayer"/><g class="shapelayer"/></g><g class="cartesianlayer"><g class="subplot xy"><g class="layer-subplot"><g class="shapelayer"/><g class="imagelayer"/></g><g class="minor-gridlayer"><g class="x"/><g class="y"/></g><g class="gridlayer"><g class="x"><path class="xgrid crisp" transform="translate(152.5,0)" d="M0,100v320" style="stroke: rgb(211, 211, 211); stroke-opacity: 1; stroke-width: 1px;"/><path class="xgrid crisp" transform="translate(225,0)" d="M0,100v320" style="stroke: rgb(211, 211, 211); stroke-opacity: 1; stroke-width: 1px;"/><path class="xgrid crisp" transform="translate(297.5,0)" d="M0,100v320" style="stroke: rgb(211, 211, 211); stroke-opacity: 1; stroke-width: 1px;"/><path class="xgrid crisp" transform="translate(442.5,0)" d="M0,100v320" style="stroke: rgb(211, 211, 211); stroke-opacity: 1; stroke-width: 1px;"/><path class="xgrid crisp" transform="translate(515,0)" d="M0,100v320" style="stroke: rgb(211, 211, 211); stroke-opacity: 1; stroke-width: 1px;"/><path class="xgrid crisp" transform="translate(587.5,0)" d="M0,100v320" style="stroke: rgb(211, 211, 211); stroke-opacity: 1; stroke-width: 1px;"/></g><g class="y"><path class="ygrid crisp" transform="translate(0,354.25)" d="M80,0h580" style="stroke: rgb(211, 211, 211); stroke-opacity: 1; stroke-width: 1px;"/><path class="ygrid crisp" transform="translate(0,300.88)" d="M80,0h580" style="stroke: rgb(211, 211, 211); stroke-opacity: 1; stroke-width: 1px;"/><path class="ygrid crisp" transform="translate(0,247.5)" d="M80,0h580" style="stroke: rgb(211, 211, 211); stroke-opacity: 1; stroke-width: 1px;"/><path class="ygrid crisp" transform="translate(0,194.13)" d="M80,0h580" style="stroke: rgb(211, 211, 211); stroke-opacity: 1; stroke-width: 1px;"/><path class="ygrid crisp" transform="translate(0,140.76)" d="M80,0h580" style="stroke: rgb(211, 211, 211); stroke-opacity: 1; stroke-width: 1px;"/></g></g><g class="zerolinelayer"><path class="xzl zl crisp" transform="translate(370,0)" d="M0,100v320" style="stroke: rgb(235, 240, 248); stroke-opacity: 1; stroke-width: 2px;"/><path class="yzl zl crisp" transform="translate(0,407.62)" d="M80,0h580" style="stroke: rgb(235, 240, 248); stroke-opacity: 1; stroke-width: 2px;"/></g><g class="layer-between"><g class="shapelayer"/><g class="imagelayer"/></g><path class="xlines-below"/><path class="ylines-below"/><g class="overlines-below"/><g class="xaxislayer-below"/><g class="yaxislayer-below"/><g class="overaxes-below"/><g class="overplot"><g class="xy" transform="translate(80,100)" clip-path="url(#clip6d6cc3xyplot)"><g class="scatterlayer mlayer"><g class="trace scatter trace6695b2" style="stroke-miterlimit: 2;"><g class="fills"><g><path class="js-fill" d="M0,142.01L2.03,141.13L2.18,141.01L4.93,137.48L5.08,137.24L12.33,123.35L12.47,123.07L22.34,106.15L22.48,105.94L32.63,92.97L32.78,92.79L46.27,74.27L46.41,74.08L53.66,66.07L53.81,65.94L59.32,61.81L59.46,61.72L65.7,59.17L65.85,59.14L72.23,58.36L72.37,58.36L86.73,56.97L86.88,56.92L93.4,54.13L93.55,54.06L100.8,51.26L100.95,51.23L113.13,49.05L113.27,49.03L124.73,48.25L124.88,48.26L134.59,47.58L134.74,47.54L148.52,44.64L148.66,44.64L157.36,45.39L157.51,45.41L183.76,47.86L183.91,47.85L196.81,47.65L196.96,47.67L210.3,49.47L210.45,49.46L217.84,48.2L217.99,48.17L235.1,45.36L235.25,45.37L241.2,46.12L241.34,46.15L254.97,49.64L255.12,49.68L266.87,52.87L267.01,52.91L276.15,54.59L276.29,54.6L282.1,54.62L282.24,54.6L286.3,53.6L286.45,53.55L292.25,50.28L292.39,50.18L298.19,45.42L298.34,45.29L309.65,36.42L309.8,36.34L315.74,33.8L315.89,33.75L324.45,31.87L324.59,31.85L329.81,32.25L329.96,32.29L335.03,34.63L335.18,34.72L350.41,43.88L350.55,43.93L358.09,45.67L358.24,45.69L366.36,46.08L366.51,46.07L381.88,44.75L382.03,44.77L388.55,46.39L388.7,46.45L398.41,50.59L398.56,50.66L410.31,55.7L410.45,55.76L427.28,61.7L427.42,61.73L433.37,62.55L433.51,62.55L438.88,61.49L439.02,61.44L445.7,57.98L445.84,57.88L462.96,47.7L463.1,47.65L470.06,45.66L470.21,45.64L475.43,45.64L475.57,45.67L480.8,47.45L480.94,47.52L487.18,51.24L487.32,51.33L503.71,63.14L503.86,63.26L517.49,73.06L517.63,73.15L524.89,78.36L525.03,78.48L531.85,85.36L531.99,85.53L537.94,93.36L538.08,93.57L547.08,108.05L547.22,108.31L554.76,122.31L554.91,122.6L576.81,164.81L576.95,164.98L579.56,166.85L579.71,166.87L580,166.9L580,158.02L578.55,157.52L578.4,157.42L574.92,152.86L574.78,152.6L561.44,124.86L561.29,124.55L548.53,98.39L548.38,98.12L538.52,81.24L538.37,81.02L532.86,73.25L532.72,73.06L527.35,67.03L527.21,66.88L515.17,57.76L515.02,57.67L506.76,51.55L506.61,51.43L485.15,35.23L485,35.13L478.62,31.62L478.47,31.56L474.12,30.52L473.98,30.51L468.76,31.01L468.61,31.04L461.07,33.76L460.93,33.83L445.7,43.99L445.55,44.09L439.46,47.49L439.31,47.55L434.24,48.81L434.09,48.82L427.57,47.97L427.42,47.93L410.89,41.62L410.74,41.56L396.96,35.06L396.82,34.99L388.41,31.3L388.26,31.24L381.59,29.63L381.45,29.62L368.68,30.85L368.54,30.88L361.29,31.12L361.14,31.1L352.87,29.66L352.73,29.62L346.93,27.14L346.78,27.06L337.5,20.72L337.35,20.62L331.55,17.1L331.41,17.04L326.91,16.02L326.77,16.01L320.68,16.75L320.53,16.78L313.57,18.98L313.42,19.04L307.77,22.18L307.62,22.29L298.63,30.24L298.48,30.38L292.39,35.77L292.25,35.88L287.17,39.06L287.03,39.12L282.53,40.46L282.39,40.48L277.16,40.51L277.02,40.5L242.94,31.11L242.79,31.07L236.12,29.87L235.97,29.86L222.92,31.87L222.78,31.9L210.01,34.31L209.87,34.32L197.97,32.53L197.83,32.5L180.72,32.76L180.57,32.76L166.94,31.17L166.79,31.15L155.91,29.68L155.77,29.66L148.08,28.91L147.94,28.91L140.25,30.26L140.11,30.31L133.72,32.35L133.58,32.39L122.85,33.12L122.7,33.13L110.23,34.53L110.08,34.55L100.37,36.47L100.22,36.51L91.37,40.42L91.23,40.49L85.86,42.67L85.72,42.72L71.07,43.75L70.92,43.76L63.96,44.87L63.82,44.92L58.01,47.92L57.87,48.03L52.94,52.24L52.79,52.38L44.09,63.38L43.95,63.6L26.98,87.39L26.83,87.58L20.6,96.82L20.45,97.06L8.99,119.13L8.85,119.43L4.64,127.57L4.5,127.81L2.03,130.94L1.89,131.06L0,131.87Z" style="fill: rgb(75, 0, 130); fill-opacity: 0.15; stroke-width: 0;"/></g></g><g class="errorbars"/><g class="lines"><path class="js-line" d="M0,131.87L1.89,131.06L2.03,130.94L4.5,127.81L4.64,127.57L8.85,119.43L8.99,119.13L20.45,97.06L20.6,96.82L26.83,87.58L26.98,87.39L43.95,63.6L44.09,63.38L52.79,52.38L52.94,52.24L57.87,48.03L58.01,47.92L63.82,44.92L63.96,44.87L70.92,43.76L71.07,43.75L85.72,42.72L85.86,42.67L91.23,40.49L91.37,40.42L100.22,36.51L100.37,36.47L110.08,34.55L110.23,34.53L122.7,33.13L122.85,33.12L133.58,32.39L133.72,32.35L140.11,30.31L140.25,30.26L147.94,28.91L148.08,28.91L155.77,29.66L155.91,29.68L166.79,31.15L166.94,31.17L180.57,32.76L180.72,32.76L197.83,32.5L197.97,32.53L209.87,34.32L210.01,34.31L222.78,31.9L222.92,31.87L235.97,29.86L236.12,29.87L242.79,31.07L242.94,31.11L277.02,40.5L277.16,40.51L282.39,40.48L282.53,40.46L287.03,39.12L287.17,39.06L292.25,35.88L292.39,35.77L298.48,30.38L298.63,30.24L307.62,22.29L307.77,22.18L313.42,19.04L313.57,18.98L320.53,16.78L320.68,16.75L326.77,16.01L326.91,16.02L331.41,17.04L331.55,17.1L337.35,20.62L337.5,20.72L346.78,27.06L346.93,27.14L352.73,29.62L352.87,29.66L361.14,31.1L361.29,31.12L368.54,30.88L368.68,30.85L381.45,29.62L381.59,29.63L388.26,31.24L388.41,31.3L396.82,34.99L396.96,35.06L410.74,41.56L410.89,41.62L427.42,47.93L427.57,47.97L434.09,48.82L434.24,48.81L439.31,47.55L439.46,47.49L445.55,44.09L445.7,43.99L460.93,33.83L461.07,33.76L468.61,31.04L468.76,31.01L473.98,30.51L474.12,30.52L478.47,31.56L478.62,31.62L485,35.13L485.15,35.23L506.61,51.43L506.76,51.55L515.02,57.67L515.17,57.76L527.21,66.88L527.35,67.03L532.72,73.06L532.86,73.25L538.37,81.02L538.52,81.24L548.38,98.12L548.53,98.39L561.29,124.55L561.44,124.86L574.78,152.6L574.92,152.86L578.4,157.42L578.55,157.52L580,158.02" style="vector-effect: none; fill: none; stroke: rgb(99, 110, 250); stroke-opacity: 1; stroke-width: 0px; opacity: 1;"/></g><g class="points"/><g class="text"/></g><g class="trace scatter trace3797b4" style="stroke-miterlimit: 2;"><g class="fills"/><g class="errorbars"/><g class="lines"><path class="js-line" d="M0,142.01L2.03,141.13L2.18,141.01L4.93,137.48L5.08,137.24L12.33,123.35L12.47,123.07L22.34,106.15L22.48,105.94L32.63,92.97L32.78,92.79L46.27,74.27L46.41,74.08L53.66,66.07L53.81,65.94L59.32,61.81L59.46,61.72L65.7,59.17L65.85,59.14L72.23,58.36L72.37,58.36L86.73,56.97L86.88,56.92L93.4,54.13L93.55,54.06L100.8,51.26L100.95,51.23L113.13,49.05L113.27,49.03L124.73,48.25L124.88,48.26L134.59,47.58L134.74,47.54L148.52,44.64L148.66,44.64L157.36,45.39L157.51,45.41L183.76,47.86L183.91,47.85L196.81,47.65L196.96,47.67L210.3,49.47L210.45,49.46L217.84,48.2L217.99,48.17L235.1,45.36L235.25,45.37L241.2,46.12L241.34,46.15L254.97,49.64L255.12,49.68L266.87,52.87L267.01,52.91L276.15,54.59L276.29,54.6L282.1,54.62L282.24,54.6L286.3,53.6L286.45,53.55L292.25,50.28L292.39,50.18L298.19,45.42L298.34,45.29L309.65,36.42L309.8,36.34L315.74,33.8L315.89,33.75L324.45,31.87L324.59,31.85L329.81,32.25L329.96,32.29L335.03,34.63L335.18,34.72L350.41,43.88L350.55,43.93L358.09,45.67L358.24,45.69L366.36,46.08L366.51,46.07L381.88,44.75L382.03,44.77L388.55,46.39L388.7,46.45L398.41,50.59L398.56,50.66L410.31,55.7L410.45,55.76L427.28,61.7L427.42,61.73L433.37,62.55L433.51,62.55L438.88,61.49L439.02,61.44L445.7,57.98L445.84,57.88L462.96,47.7L463.1,47.65L470.06,45.66L470.21,45.64L475.43,45.64L475.57,45.67L480.8,47.45L480.94,47.52L487.18,51.24L487.32,51.33L503.71,63.14L503.86,63.26L517.49,73.06L517.63,73.15L524.89,78.36L525.03,78.48L531.85,85.36L531.99,85.53L537.94,93.36L538.08,93.57L547.08,108.05L547.22,108.31L554.76,122.31L554.91,122.6L576.81,164.81L576.95,164.98L579.56,166.85L579.71,166.87L580,166.9" style="vector-effect: none; fill: none; stroke: rgb(239, 85, 59); stroke-opacity: 1; stroke-width: 0px; opacity: 1;"/></g><g class="points"/><g class="text"/></g><g class="trace scatter trace280e6a" style="stroke-miterlimit: 2; opacity: 1;"><g class="fills"/><g class="errorbars"/><g class="lines"><path class="js-line" d="M0,136.94L1.89,136.15L2.03,136.04L4.5,132.99L4.64,132.76L9.28,123.94L9.43,123.65L17.69,107.68L17.84,107.42L24.8,96.52L24.95,96.32L52.79,59.63L52.94,59.49L58.59,54.89L58.74,54.8L64.11,52.22L64.25,52.17L71.07,51.09L71.21,51.08L86.59,49.73L86.73,49.68L91.81,47.55L91.95,47.48L101.96,43.53L102.11,43.5L117.91,40.98L118.06,40.97L127.92,40.7L128.07,40.7L134.16,39.96L134.3,39.92L141.85,37.65L141.99,37.61L149.53,36.8L149.68,36.81L159.68,37.9L159.83,37.92L183.76,40.23L183.91,40.22L196.81,39.99L196.96,40.01L210.45,41.87L210.59,41.85L217.41,40.65L217.55,40.62L235.97,37.63L236.12,37.63L243.08,38.85L243.23,38.89L263.97,44.66L264.11,44.71L273.97,47.24L274.12,47.26L281.81,47.6L281.95,47.58L286.16,46.57L286.3,46.52L291.38,43.71L291.52,43.61L299.35,36.96L299.5,36.83L308.78,29.21L308.93,29.12L314.44,26.44L314.58,26.39L321.4,24.45L321.55,24.42L328.07,24.02L328.22,24.04L332.42,25.36L332.57,25.43L338.51,29.21L338.66,29.31L346.35,34.4L346.49,34.49L353.16,37.24L353.31,37.28L362.01,38.64L362.16,38.65L368.54,38.34L368.68,38.32L378.98,37.02L379.12,37.02L385.8,37.99L385.94,38.03L393.05,40.69L393.19,40.75L419.01,52.09L419.15,52.14L428.58,55.11L428.73,55.15L434.67,55.62L434.82,55.61L440.04,54.14L440.19,54.07L445.99,50.79L446.13,50.69L453.67,45.3L453.82,45.2L460.35,41.44L460.49,41.37L468.18,38.6L468.32,38.57L473.4,37.96L473.54,37.96L478.47,39.01L478.62,39.07L485.44,42.76L485.58,42.85L501.1,54.09L501.25,54.2L517.92,66.41L518.07,66.51L525.76,72.31L525.9,72.44L531.56,78.33L531.7,78.5L537.36,86L537.5,86.21L544.03,96.61L544.18,96.86L557.08,121.27L557.23,121.57L574.05,155.89L574.2,156.16L577.82,161.41L577.97,161.54L580,162.46" style="vector-effect: none; fill: none; stroke: rgb(75, 0, 130); stroke-opacity: 1; stroke-width: 3px; opacity: 1;"/></g><g class="points"/><g class="text"/></g><g class="trace scatter trace6050cc" style="stroke-miterlimit: 2;"><g class="fills"><g><path class="js-fill" d="M0,227.59L2.32,226.7L2.47,226.59L5.51,223.26L5.66,223.06L13.49,210.59L13.63,210.35L25.82,188.6L25.96,188.33L36.11,170.78L36.26,170.59L40.76,165.7L40.9,165.57L46.85,161.75L46.99,161.69L54.53,158.98L54.68,158.94L62.22,157.35L62.37,157.35L66.43,158.05L66.57,158.11L70.63,160.5L70.78,160.61L78.61,168.28L78.75,168.43L86.01,174.66L86.15,174.75L91.95,177.36L92.1,177.41L98.48,180.88L98.62,181L103.41,185.42L103.56,185.57L112.11,193.08L112.26,193.18L116.75,195.47L116.9,195.52L122.27,196.6L122.41,196.61L133.29,197.32L133.43,197.29L136.62,195.92L136.77,195.83L140.83,192.07L140.98,191.9L147.5,182.82L147.65,182.6L165.49,152.18L165.63,151.9L182.17,120.87L182.31,120.66L190.58,109.82L190.72,109.65L197.97,102.92L198.12,102.83L201.6,101.19L201.75,101.16L205.08,101.07L205.23,101.1L209,102.74L209.14,102.84L213.35,106.22L213.49,106.35L232.49,124.63L232.64,124.81L246.42,143.71L246.56,143.92L264.11,167.65L264.26,167.8L269.77,172.62L269.91,172.72L274.7,175.03L274.84,175.07L279.05,175.19L279.19,175.16L282.68,173.51L282.82,173.41L286.3,169.99L286.45,169.81L291.09,162.71L291.23,162.45L296.6,151.68L296.74,151.37L309.22,126.88L309.36,126.65L336.19,86.34L336.34,86.17L342.29,80.47L342.43,80.36L347.36,77.66L347.51,77.62L351.28,77.45L351.42,77.48L354.61,78.84L354.76,78.93L358.53,82.22L358.67,82.38L364.04,89.17L364.19,89.37L382.32,115.94L382.46,116.18L399.72,146.4L399.86,146.66L415.96,173.54L416.11,173.72L420.9,178.67L421.04,178.79L425.54,181.48L425.68,181.53L429.31,181.96L429.45,181.94L432.64,180.6L432.79,180.5L436.27,177.1L436.41,176.92L440.33,171.1L440.48,170.86L450.05,152.31L450.19,152.02L463.68,127.39L463.83,127.15L475.43,109.51L475.57,109.31L485.44,97.37L485.58,97.21L495.44,87.74L495.59,87.64L499.5,85.95L499.65,85.93L502.84,86.21L502.99,86.26L506.32,88.32L506.47,88.44L510.82,93.49L510.96,93.69L517.2,103.23L517.34,103.45L532.72,128.36L532.86,128.64L539.1,141.4L539.24,141.72L547.08,160.18L547.22,160.54L555.63,182.67L555.78,183.07L568.69,217.72L568.83,218.08L575.5,232.26L575.65,232.49L578.55,235.71L578.69,235.8L580,236.18L580,230.49L578.55,229.99L578.4,229.89L575.21,225.82L575.07,225.56L570.14,214.6L569.99,214.24L559.26,184.41L559.11,183.98L548.67,154.02L548.53,153.63L540.26,132.43L540.12,132.08L531.27,112.75L531.12,112.46L511.98,79.61L511.83,79.38L507.77,73.69L507.63,73.52L504.44,70.64L504.29,70.54L501.25,69.42L501.1,69.41L497.91,69.97L497.76,70.03L492.54,73.91L492.4,74.06L484.28,83.3L484.13,83.47L473.83,97.36L473.69,97.58L465.57,111.09L465.42,111.34L446.71,149.03L446.57,149.35L440.04,162.64L439.89,162.9L435.83,169.25L435.69,169.43L432.21,172.83L432.06,172.92L429.16,174.04L429.02,174.06L425.54,173.52L425.39,173.46L420.75,170.4L420.61,170.27L415.09,163.81L414.95,163.6L399.86,136L399.72,135.72L385.07,107.83L384.93,107.55L374.92,89.71L374.77,89.47L361.72,69.92L361.58,69.71L356.79,63.89L356.64,63.75L353.31,61.3L353.16,61.23L349.83,60.4L349.68,60.4L345.91,61.36L345.77,61.43L340.69,65.2L340.55,65.34L334.6,72.18L334.45,72.38L310.96,111.21L310.81,111.45L291.96,151.64L291.81,151.94L287.46,159.65L287.32,159.86L283.98,163.95L283.84,164.09L280.79,166.27L280.65,166.34L276.87,167.08L276.73,167.07L273.25,166.16L273.1,166.1L268.9,163.42L268.75,163.3L262.81,157.21L262.66,157.03L239.02,121.27L238.87,121.05L231.91,111.05L231.77,110.85L213.35,91.65L213.2,91.5L208.85,87.71L208.71,87.61L205.37,85.97L205.23,85.93L201.75,85.9L201.6,85.94L197.1,88.37L196.96,88.49L191.45,94.04L191.3,94.21L182.6,106.26L182.46,106.49L174.33,121.63L174.19,121.94L163.6,144.78L163.46,145.07L153.01,164.68L152.87,164.94L145.47,177.62L145.33,177.86L140.54,184.76L140.4,184.93L137.2,188.14L137.06,188.25L133.87,189.89L133.72,189.93L125.31,189.5L125.17,189.48L117.91,188.3L117.77,188.26L113.13,186.16L112.98,186.07L102.25,176.19L102.11,176.04L96.74,171.3L96.59,171.21L90.79,168.52L90.65,168.46L84.7,165.34L84.56,165.23L75.13,155.58L74.98,155.42L69.62,150.27L69.47,150.16L65.99,148.21L65.85,148.16L62.08,147.58L61.93,147.58L53.95,149.48L53.81,149.53L47.43,151.9L47.28,151.96L42.79,154.59L42.64,154.69L37.27,159.99L37.13,160.18L11.75,206.3L11.6,206.55L5.08,217.16L4.93,217.35L2.32,220.17L2.18,220.28L0,221.11Z" style="fill: rgb(0, 0, 255); fill-opacity: 0.15; stroke-width: 0;"/></g></g><g class="errorbars"/><g class="lines"><path class="js-line" d="M0,221.11L2.18,220.28L2.32,220.17L4.93,217.35L5.08,217.16L11.6,206.55L11.75,206.3L37.13,160.18L37.27,159.99L42.64,154.69L42.79,154.59L47.28,151.96L47.43,151.9L53.81,149.53L53.95,149.48L61.93,147.58L62.08,147.58L65.85,148.16L65.99,148.21L69.47,150.16L69.62,150.27L74.98,155.42L75.13,155.58L84.56,165.23L84.7,165.34L90.65,168.46L90.79,168.52L96.59,171.21L96.74,171.3L102.11,176.04L102.25,176.19L112.98,186.07L113.13,186.16L117.77,188.26L117.91,188.3L125.17,189.48L125.31,189.5L133.72,189.93L133.87,189.89L137.06,188.25L137.2,188.14L140.4,184.93L140.54,184.76L145.33,177.86L145.47,177.62L152.87,164.94L153.01,164.68L163.46,145.07L163.6,144.78L174.19,121.94L174.33,121.63L182.46,106.49L182.6,106.26L191.3,94.21L191.45,94.04L196.96,88.49L197.1,88.37L201.6,85.94L201.75,85.9L205.23,85.93L205.37,85.97L208.71,87.61L208.85,87.71L213.2,91.5L213.35,91.65L231.77,110.85L231.91,111.05L238.87,121.05L239.02,121.27L262.66,157.03L262.81,157.21L268.75,163.3L268.9,163.42L273.1,166.1L273.25,166.16L276.73,167.07L276.87,167.08L280.65,166.34L280.79,166.27L283.84,164.09L283.98,163.95L287.32,159.86L287.46,159.65L291.81,151.94L291.96,151.64L310.81,111.45L310.96,111.21L334.45,72.38L334.6,72.18L340.55,65.34L340.69,65.2L345.77,61.43L345.91,61.36L349.68,60.4L349.83,60.4L353.16,61.23L353.31,61.3L356.64,63.75L356.79,63.89L361.58,69.71L361.72,69.92L374.77,89.47L374.92,89.71L384.93,107.55L385.07,107.83L399.72,135.72L399.86,136L414.95,163.6L415.09,163.81L420.61,170.27L420.75,170.4L425.39,173.46L425.54,173.52L429.02,174.06L429.16,174.04L432.06,172.92L432.21,172.83L435.69,169.43L435.83,169.25L439.89,162.9L440.04,162.64L446.57,149.35L446.71,149.03L465.42,111.34L465.57,111.09L473.69,97.58L473.83,97.36L484.13,83.47L484.28,83.3L492.4,74.06L492.54,73.91L497.76,70.03L497.91,69.97L501.1,69.41L501.25,69.42L504.29,70.54L504.44,70.64L507.63,73.52L507.77,73.69L511.83,79.38L511.98,79.61L531.12,112.46L531.27,112.75L540.12,132.08L540.26,132.43L548.53,153.63L548.67,154.02L559.11,183.98L559.26,184.41L569.99,214.24L570.14,214.6L575.07,225.56L575.21,225.82L578.4,229.89L578.55,229.99L580,230.49" style="vector-effect: none; fill: none; stroke: rgb(171, 99, 250); stroke-opacity: 1; stroke-width: 0px; opacity: 1;"/></g><g class="points"/><g class="text"/></g><g class="trace scatter traceddeb0f" style="stroke-miterlimit: 2;"><g class="fills"/><g class="errorbars"/><g class="lines"><path class="js-line" d="M0,227.59L2.32,226.7L2.47,226.59L5.51,223.26L5.66,223.06L13.49,210.59L13.63,210.35L25.82,188.6L25.96,188.33L36.11,170.78L36.26,170.59L40.76,165.7L40.9,165.57L46.85,161.75L46.99,161.69L54.53,158.98L54.68,158.94L62.22,157.35L62.37,157.35L66.43,158.05L66.57,158.11L70.63,160.5L70.78,160.61L78.61,168.28L78.75,168.43L86.01,174.66L86.15,174.75L91.95,177.36L92.1,177.41L98.48,180.88L98.62,181L103.41,185.42L103.56,185.57L112.11,193.08L112.26,193.18L116.75,195.47L116.9,195.52L122.27,196.6L122.41,196.61L133.29,197.32L133.43,197.29L136.62,195.92L136.77,195.83L140.83,192.07L140.98,191.9L147.5,182.82L147.65,182.6L165.49,152.18L165.63,151.9L182.17,120.87L182.31,120.66L190.58,109.82L190.72,109.65L197.97,102.92L198.12,102.83L201.6,101.19L201.75,101.16L205.08,101.07L205.23,101.1L209,102.74L209.14,102.84L213.35,106.22L213.49,106.35L232.49,124.63L232.64,124.81L246.42,143.71L246.56,143.92L264.11,167.65L264.26,167.8L269.77,172.62L269.91,172.72L274.7,175.03L274.84,175.07L279.05,175.19L279.19,175.16L282.68,173.51L282.82,173.41L286.3,169.99L286.45,169.81L291.09,162.71L291.23,162.45L296.6,151.68L296.74,151.37L309.22,126.88L309.36,126.65L336.19,86.34L336.34,86.17L342.29,80.47L342.43,80.36L347.36,77.66L347.51,77.62L351.28,77.45L351.42,77.48L354.61,78.84L354.76,78.93L358.53,82.22L358.67,82.38L364.04,89.17L364.19,89.37L382.32,115.94L382.46,116.18L399.72,146.4L399.86,146.66L415.96,173.54L416.11,173.72L420.9,178.67L421.04,178.79L425.54,181.48L425.68,181.53L429.31,181.96L429.45,181.94L432.64,180.6L432.79,180.5L436.27,177.1L436.41,176.92L440.33,171.1L440.48,170.86L450.05,152.31L450.19,152.02L463.68,127.39L463.83,127.15L475.43,109.51L475.57,109.31L485.44,97.37L485.58,97.21L495.44,87.74L495.59,87.64L499.5,85.95L499.65,85.93L502.84,86.21L502.99,86.26L506.32,88.32L506.47,88.44L510.82,93.49L510.96,93.69L517.2,103.23L517.34,103.45L532.72,128.36L532.86,128.64L539.1,141.4L539.24,141.72L547.08,160.18L547.22,160.54L555.63,182.67L555.78,183.07L568.69,217.72L568.83,218.08L575.5,232.26L575.65,232.49L578.55,235.71L578.69,235.8L580,236.18" style="vector-effect: none; fill: none; stroke: rgb(255, 161, 90); stroke-opacity: 1; stroke-width: 0px; opacity: 1;"/></g><g class="points"/><g class="text"/></g><g class="trace scatter tracebe5081" style="stroke-miterlimit: 2; opacity: 1;"><g class="fills"/><g class="errorbars"/><g class="lines"><path class="js-line" d="M0,224.35L2.18,223.54L2.32,223.44L5.08,220.5L5.22,220.3L10.44,212.11L10.59,211.86L26.25,183.58L26.4,183.29L33.94,169.38L34.08,169.15L39.45,162.2L39.59,162.06L45.25,157.78L45.4,157.7L51.2,155.22L51.34,155.17L61.64,152.49L61.79,152.48L65.99,153.05L66.14,153.11L70.05,155.34L70.2,155.45L75.71,160.73L75.85,160.89L85.28,169.98L85.43,170.07L89.92,172.38L90.07,172.44L98.33,176.63L98.48,176.74L106.89,184.91L107.04,185.05L112.69,189.67L112.84,189.77L117.62,191.99L117.77,192.03L124.44,193.11L124.59,193.13L134.01,193.5L134.16,193.45L137.64,191.49L137.78,191.37L141.41,187.51L141.56,187.33L149.39,175.47L149.53,175.23L160.12,156.88L160.27,156.61L170.71,135.65L170.85,135.34L182.31,113.69L182.46,113.47L188.4,105.12L188.55,104.94L194.2,98.51L194.35,98.37L199.13,94.59L199.28,94.51L202.76,93.35L202.91,93.34L206.24,93.82L206.39,93.88L210.01,96.01L210.16,96.12L223.94,108.88L224.08,109.01L231.48,116.93L231.62,117.12L238.44,126.44L238.58,126.65L252.22,147.02L252.36,147.24L263.82,162.88L263.97,163.04L270.2,168.66L270.35,168.76L274.41,170.78L274.55,170.82L278.47,171.15L278.61,171.12L281.66,169.98L281.81,169.89L285.43,166.69L285.58,166.52L289.93,160.14L290.07,159.89L295.44,149.1L295.58,148.78L309.65,119.8L309.8,119.57L319.51,104.41L319.66,104.17L334.16,80.77L334.31,80.58L339.96,74.17L340.11,74.03L346.2,69.65L346.35,69.59L349.97,68.85L350.12,68.86L353.6,69.85L353.74,69.93L357.22,72.61L357.37,72.76L362.16,78.59L362.3,78.79L374.63,96.46L374.77,96.68L381.59,108L381.74,108.26L413.79,166.23L413.93,166.44L419.44,173.27L419.59,173.41L423.94,176.75L424.09,176.83L427.57,178.01L427.71,178.03L430.9,177.54L431.05,177.48L433.95,175.48L434.09,175.35L437.57,171.08L437.72,170.87L443.96,159.72L444.1,159.42L466.87,115.54L467.02,115.3L475.86,101.62L476.01,101.41L483.84,91.49L483.99,91.32L492.98,81.58L493.12,81.45L498.05,78.13L498.2,78.07L501.54,77.68L501.68,77.71L504.44,78.79L504.58,78.88L508.06,82.03L508.21,82.2L513.43,89.66L513.57,89.89L532.43,121.44L532.57,121.72L538.95,135.2L539.1,135.53L551.28,166.06L551.43,166.46L572.46,223.33L572.6,223.65L577.1,231.55L577.24,231.71L579.71,233.31L579.85,233.32L580,233.33" style="vector-effect: none; fill: none; stroke: rgb(0, 0, 255); stroke-opacity: 1; stroke-width: 3px; opacity: 1;"/></g><g class="points"/><g class="text"/></g><g class="trace scatter trace6cc6a1" style="stroke-miterlimit: 2;"><g class="fills"><g><path class="js-fill" d="M0,273.46L2.61,272.63L2.76,272.54L6.24,269.46L6.38,269.31L21.32,253.95L21.47,253.84L26.25,251.01L26.4,250.95L31.76,249.1L31.91,249.06L50.47,243.17L50.62,243.12L66.28,237.25L66.43,237.24L71.07,237.83L71.21,237.87L77.88,240.41L78.03,240.48L85.86,244.61L86.01,244.72L91.23,249.37L91.37,249.52L102.69,259.97L102.83,260.07L108.92,263.28L109.07,263.33L115.16,265.14L115.3,265.18L127.49,266.93L127.63,266.93L134.01,265.8L134.16,265.74L138.22,263.44L138.36,263.33L142.28,259.55L142.43,259.38L147.65,251.9L147.79,251.66L153.74,240.3L153.88,240L165.78,217.52L165.92,217.3L173.17,207.96L173.32,207.8L178.25,202.94L178.39,202.83L182.75,200.26L182.89,200.21L186.81,199.68L186.95,199.68L192.03,201.09L192.17,201.16L197.68,204.53L197.83,204.64L206.82,212.63L206.97,212.78L224.52,230.5L224.66,230.63L242.36,245.22L242.5,245.31L251.49,249.84L251.64,249.9L259.76,253.14L259.9,253.19L267.59,254.97L267.74,254.99L274.7,254.98L274.84,254.96L280.36,253.86L280.5,253.82L285.29,251.79L285.43,251.71L289.78,248.58L289.93,248.45L296.31,241.57L296.45,241.39L302.98,231.94L303.13,231.71L316.76,209.82L316.9,209.62L324.16,201.58L324.3,201.45L330.1,197.4L330.25,197.34L333.73,196.38L333.87,196.37L337.93,196.81L338.08,196.86L343.01,199.14L343.16,199.23L351.28,205.29L351.42,205.42L357.51,211.67L357.66,211.83L367.23,222.28L367.38,222.42L380.14,233.25L380.29,233.38L392.18,243.41L392.32,243.51L405.38,251.33L405.52,251.4L412.34,254.22L412.48,254.26L419.59,255.4L419.73,255.4L426.99,255.15L427.13,255.13L432.64,254.04L432.79,253.99L437.57,251.73L437.72,251.64L442.8,247.51L442.94,247.36L448.16,241.48L448.31,241.3L456.14,230.02L456.28,229.8L468.76,211.85L468.9,211.68L475.86,205.26L476.01,205.16L480.65,202.74L480.8,202.69L485.44,202.15L485.58,202.17L489.93,203.19L490.08,203.24L496.31,206.38L496.46,206.47L505.16,212.95L505.31,213.08L528.66,232.72L528.8,232.82L555.49,253.21L555.63,253.36L561.29,259.66L561.44,259.84L576.08,276.68L576.23,276.78L579.13,278.14L579.27,278.16L580,278.23L580,276.24L579.85,276.23L579.71,276.22L576.37,274.82L576.23,274.71L565.93,262.7L565.79,262.5L555.49,249.7L555.34,249.55L525.47,225.37L525.32,225.25L504.73,206.69L504.58,206.56L498.92,201.89L498.78,201.78L492.11,197.63L491.96,197.56L487.03,195.84L486.89,195.81L482.83,195.75L482.68,195.77L478.91,197.1L478.76,197.17L474.27,200.36L474.12,200.49L467.16,208.14L467.02,208.33L459.04,220.57L458.89,220.81L448.89,236.32L448.74,236.51L443.52,242.76L443.38,242.91L437.43,248.01L437.28,248.1L432.5,250.36L432.35,250.41L426.55,251.53L426.41,251.55L419.44,251.82L419.3,251.82L412.48,250.77L412.34,250.73L404.07,247.14L403.93,247.06L393.05,240.2L392.9,240.1L367.81,217.66L367.67,217.52L357.37,205.48L357.22,205.3L350.84,198.33L350.7,198.19L343.3,192.38L343.16,192.29L338.51,189.97L338.37,189.92L334.31,189.35L334.16,189.36L330.25,190.5L330.1,190.57L325.61,193.78L325.46,193.91L319.37,200.53L319.22,200.71L301.97,229.4L301.82,229.64L296.74,237.27L296.6,237.47L290.51,244.56L290.36,244.7L285.14,248.69L285,248.77L279.48,250.99L279.34,251.03L271.94,252.03L271.8,252.03L264.84,251.35L264.69,251.32L253.09,247.13L252.94,247.06L241.92,241.26L241.78,241.16L229.88,231.04L229.74,230.91L205.23,204.89L205.08,204.73L198.55,198.56L198.41,198.44L193.04,194.76L192.9,194.68L188.4,193.03L188.26,193L184.49,193.05L184.34,193.08L180.57,194.76L180.43,194.85L174.04,200.98L173.9,201.15L165.92,212.07L165.78,212.31L153.3,237.49L153.16,237.8L148.08,248.1L147.94,248.37L143.73,255.16L143.59,255.37L139.38,260.23L139.23,260.37L135.03,263.3L134.88,263.37L130.82,264.66L130.68,264.69L124.88,264.8L124.73,264.79L114.58,262.75L114.43,262.71L109.07,260.86L108.92,260.8L102.25,256.77L102.11,256.65L92.68,246.97L92.53,246.8L86.73,240.81L86.59,240.69L77.16,235.3L77.01,235.24L70.34,232.71L70.2,232.68L65.85,232.39L65.7,232.4L53.95,237.35L53.81,237.42L30.46,245.3L30.31,245.34L25.82,247.08L25.67,247.15L21.18,250.05L21.03,250.16L5.66,267.08L5.51,267.24L2.61,269.8L2.47,269.89L0,270.69Z" style="fill: rgb(148, 0, 211); fill-opacity: 0.15; stroke-width: 0;"/></g></g><g class="errorbars"/><g class="lines"><path class="js-line" d="M0,270.69L2.47,269.89L2.61,269.8L5.51,267.24L5.66,267.08L21.03,250.16L21.18,250.05L25.67,247.15L25.82,247.08L30.31,245.34L30.46,245.3L53.81,237.42L53.95,237.35L65.7,232.4L65.85,232.39L70.2,232.68L70.34,232.71L77.01,235.24L77.16,235.3L86.59,240.69L86.73,240.81L92.53,246.8L92.68,246.97L102.11,256.65L102.25,256.77L108.92,260.8L109.07,260.86L114.43,262.71L114.58,262.75L124.73,264.79L124.88,264.8L130.68,264.69L130.82,264.66L134.88,263.37L135.03,263.3L139.23,260.37L139.38,260.23L143.59,255.37L143.73,255.16L147.94,248.37L148.08,248.1L153.16,237.8L153.3,237.49L165.78,212.31L165.92,212.07L173.9,201.15L174.04,200.98L180.43,194.85L180.57,194.76L184.34,193.08L184.49,193.05L188.26,193L188.4,193.03L192.9,194.68L193.04,194.76L198.41,198.44L198.55,198.56L205.08,204.73L205.23,204.89L229.74,230.91L229.88,231.04L241.78,241.16L241.92,241.26L252.94,247.06L253.09,247.13L264.69,251.32L264.84,251.35L271.8,252.03L271.94,252.03L279.34,251.03L279.48,250.99L285,248.77L285.14,248.69L290.36,244.7L290.51,244.56L296.6,237.47L296.74,237.27L301.82,229.64L301.97,229.4L319.22,200.71L319.37,200.53L325.46,193.91L325.61,193.78L330.1,190.57L330.25,190.5L334.16,189.36L334.31,189.35L338.37,189.92L338.51,189.97L343.16,192.29L343.3,192.38L350.7,198.19L350.84,198.33L357.22,205.3L357.37,205.48L367.67,217.52L367.81,217.66L392.9,240.1L393.05,240.2L403.93,247.06L404.07,247.14L412.34,250.73L412.48,250.77L419.3,251.82L419.44,251.82L426.41,251.55L426.55,251.53L432.35,250.41L432.5,250.36L437.28,248.1L437.43,248.01L443.38,242.91L443.52,242.76L448.74,236.51L448.89,236.32L458.89,220.81L459.04,220.57L467.02,208.33L467.16,208.14L474.12,200.49L474.27,200.36L478.76,197.17L478.91,197.1L482.68,195.77L482.83,195.75L486.89,195.81L487.03,195.84L491.96,197.56L492.11,197.63L498.78,201.78L498.92,201.89L504.58,206.56L504.73,206.69L525.32,225.25L525.47,225.37L555.34,249.55L555.49,249.7L565.79,262.5L565.93,262.7L576.23,274.71L576.37,274.82L579.71,276.22L579.85,276.23L580,276.24" style="vector-effect: none; fill: none; stroke: rgb(255, 102, 146); stroke-opacity: 1; stroke-width: 0px; opacity: 1;"/></g><g class="points"/><g class="text"/></g><g class="trace scatter trace61cecd" style="stroke-miterlimit: 2;"><g class="fills"/><g class="errorbars"/><g class="lines"><path class="js-line" d="M0,273.46L2.61,272.63L2.76,272.54L6.24,269.46L6.38,269.31L21.32,253.95L21.47,253.84L26.25,251.01L26.4,250.95L31.76,249.1L31.91,249.06L50.47,243.17L50.62,243.12L66.28,237.25L66.43,237.24L71.07,237.83L71.21,237.87L77.88,240.41L78.03,240.48L85.86,244.61L86.01,244.72L91.23,249.37L91.37,249.52L102.69,259.97L102.83,260.07L108.92,263.28L109.07,263.33L115.16,265.14L115.3,265.18L127.49,266.93L127.63,266.93L134.01,265.8L134.16,265.74L138.22,263.44L138.36,263.33L142.28,259.55L142.43,259.38L147.65,251.9L147.79,251.66L153.74,240.3L153.88,240L165.78,217.52L165.92,217.3L173.17,207.96L173.32,207.8L178.25,202.94L178.39,202.83L182.75,200.26L182.89,200.21L186.81,199.68L186.95,199.68L192.03,201.09L192.17,201.16L197.68,204.53L197.83,204.64L206.82,212.63L206.97,212.78L224.52,230.5L224.66,230.63L242.36,245.22L242.5,245.31L251.49,249.84L251.64,249.9L259.76,253.14L259.9,253.19L267.59,254.97L267.74,254.99L274.7,254.98L274.84,254.96L280.36,253.86L280.5,253.82L285.29,251.79L285.43,251.71L289.78,248.58L289.93,248.45L296.31,241.57L296.45,241.39L302.98,231.94L303.13,231.71L316.76,209.82L316.9,209.62L324.16,201.58L324.3,201.45L330.1,197.4L330.25,197.34L333.73,196.38L333.87,196.37L337.93,196.81L338.08,196.86L343.01,199.14L343.16,199.23L351.28,205.29L351.42,205.42L357.51,211.67L357.66,211.83L367.23,222.28L367.38,222.42L380.14,233.25L380.29,233.38L392.18,243.41L392.32,243.51L405.38,251.33L405.52,251.4L412.34,254.22L412.48,254.26L419.59,255.4L419.73,255.4L426.99,255.15L427.13,255.13L432.64,254.04L432.79,253.99L437.57,251.73L437.72,251.64L442.8,247.51L442.94,247.36L448.16,241.48L448.31,241.3L456.14,230.02L456.28,229.8L468.76,211.85L468.9,211.68L475.86,205.26L476.01,205.16L480.65,202.74L480.8,202.69L485.44,202.15L485.58,202.17L489.93,203.19L490.08,203.24L496.31,206.38L496.46,206.47L505.16,212.95L505.31,213.08L528.66,232.72L528.8,232.82L555.49,253.21L555.63,253.36L561.29,259.66L561.44,259.84L576.08,276.68L576.23,276.78L579.13,278.14L579.27,278.16L580,278.23" style="vector-effect: none; fill: none; stroke: rgb(182, 232, 128); stroke-opacity: 1; stroke-width: 0px; opacity: 1;"/></g><g class="points"/><g class="text"/></g><g class="trace scatter traceeef0cc" style="stroke-miterlimit: 2; opacity: 1;"><g class="fills"/><g class="errorbars"/><g class="lines"><path class="js-line" d="M0,272.08L2.61,271.22L2.76,271.12L6.09,268.11L6.24,267.95L20.45,252.62L20.6,252.5L26.4,248.87L26.54,248.81L32.63,246.77L32.78,246.73L49.75,241.28L49.89,241.23L56.85,238.14L57,238.06L64.83,234.97L64.98,234.94L69.62,235.02L69.76,235.05L75.27,236.9L75.42,236.96L85.43,242.04L85.57,242.15L89.78,245.83L89.92,245.98L103.7,259.24L103.85,259.34L108.92,262.04L109.07,262.1L115.74,264.17L115.88,264.2L124.73,265.8L124.88,265.81L131.4,265.55L131.55,265.52L135.9,263.89L136.04,263.81L140.54,260.25L140.69,260.1L145.62,253.73L145.76,253.5L150.26,245.57L150.4,245.29L167.52,212.3L167.66,212.09L175.35,202.56L175.49,202.41L180.57,198.03L180.72,197.94L184.34,196.45L184.49,196.43L188.11,196.4L188.26,196.43L192.46,197.88L192.61,197.95L198.12,201.53L198.26,201.64L206.1,208.86L206.24,209.01L227.27,230.76L227.42,230.9L240.91,242.43L241.05,242.53L249.17,247.05L249.32,247.12L264.26,252.82L264.4,252.85L271.94,253.6L272.09,253.59L279.19,252.62L279.34,252.59L285.29,250.2L285.43,250.12L290.51,246.24L290.65,246.11L296.02,240.09L296.16,239.9L301.1,232.85L301.24,232.63L309.22,219.03L309.36,218.78L317.92,205.38L318.06,205.19L324.88,197.69L325.03,197.56L329.81,194.13L329.96,194.06L333.87,192.88L334.02,192.87L338.08,193.34L338.22,193.39L342.29,195.24L342.43,195.32L349.39,200.34L349.54,200.47L356.21,207.15L356.35,207.31L370.71,222.84L370.86,222.96L390.87,240.54L391.02,240.65L402.77,248.15L402.91,248.23L412.34,252.48L412.48,252.52L419.44,253.61L419.59,253.61L428.15,253.17L428.29,253.15L434.09,251.65L434.24,251.59L439.17,248.7L439.31,248.59L444.1,244.16L444.25,244.01L452.08,233.98L452.22,233.77L470.64,206.86L470.79,206.71L476.44,201.75L476.59,201.65L480.94,199.43L481.09,199.39L485.15,198.87L485.29,198.88L489.93,199.93L490.08,199.99L496.02,203.04L496.17,203.13L504.15,209.13L504.29,209.25L529.38,230.84L529.53,230.95L556.21,252.21L556.36,252.37L564.34,262L564.48,262.19L575.79,275.41L575.94,275.53L579.13,277.14L579.27,277.17L580,277.23" style="vector-effect: none; fill: none; stroke: rgb(148, 0, 211); stroke-opacity: 1; stroke-width: 3px; opacity: 1;"/></g><g class="points"/><g class="text"/></g><g class="trace scatter traceaecf48" style="stroke-miterlimit: 2;"><g class="fills"><g><path class="js-fill" d="M0,304L6.82,303.25L6.96,303.23L17.84,302.51L17.98,302.51L57.72,301.76L57.87,301.75L77.01,301.18L77.16,301.18L131.55,302.69L131.69,302.69L142.43,301.94L142.57,301.92L151.56,299.97L151.71,299.93L160.99,296.27L161.14,296.2L170.27,292.44L170.42,292.4L176.51,291.47L176.65,291.47L182.89,292.21L183.04,292.24L200.44,295.8L200.59,295.82L225.39,299.65L225.53,299.68L235.39,301.55L235.54,301.56L247.72,302.08L247.87,302.08L271.65,302.15L271.8,302.15L293.12,301.55L293.26,301.52L303.42,299.41L303.56,299.37L311.83,296.4L311.97,296.34L322.27,293.01L322.42,292.99L328.22,292.74L328.36,292.75L334.74,293.91L334.89,293.95L348.96,296.63L349.1,296.65L381.45,301.06L381.59,301.08L393.48,301.93L393.63,301.93L421.77,302.15L421.91,302.15L443.52,301.54L443.67,301.52L452.8,299.52L452.95,299.47L463.25,295.5L463.39,295.44L471.66,292.91L471.8,292.88L478.04,292.78L478.18,292.8L486.31,294.63L486.45,294.67L496.6,296.62L496.75,296.64L524.74,299.74L524.89,299.77L537.21,301.56L537.36,301.57L575.07,303.27L575.21,303.3L580,303.76L580,303.65L572.46,302.74L572.31,302.71L556.94,301.97L556.79,301.97L533.73,301.13L533.59,301.11L523.87,299.28L523.73,299.25L497.04,296.24L496.89,296.22L483.12,293.14L482.97,293.1L476.73,291.94L476.59,291.93L471.51,292.21L471.37,292.23L455.27,298.33L455.12,298.38L443.52,301.38L443.38,301.4L405.67,301.99L405.52,301.99L388.7,301.58L388.55,301.58L378.25,300.27L378.11,300.24L347.36,295.98L347.22,295.96L337.5,294.05L337.35,294.01L330.68,292.38L330.54,292.35L324.74,292.02L324.59,292.03L317.48,293.62L317.34,293.67L305.01,298.57L304.87,298.62L293.12,301.38L292.97,301.4L256.28,302.05L256.13,302.05L237.42,301.55L237.28,301.55L223.65,298.96L223.5,298.92L205.66,295.95L205.52,295.94L181.3,291.17L181.15,291.15L176.07,290.74L175.93,290.74L170.13,291.78L169.98,291.83L160.99,295.78L160.85,295.85L150.98,299.9L150.84,299.94L142.28,301.82L142.14,301.85L109.21,302.31L109.07,302.31L77.88,300.98L77.74,300.98L59.46,301.47L59.32,301.48L27.99,302.23L27.85,302.23L0,303.89Z" style="fill: rgb(207, 184, 124); fill-opacity: 0.15; stroke-width: 0;"/></g></g><g class="errorbars"/><g class="lines"><path class="js-line" d="M0,303.89L27.85,302.23L27.99,302.23L59.32,301.48L59.46,301.47L77.74,300.98L77.88,300.98L109.07,302.31L109.21,302.31L142.14,301.85L142.28,301.82L150.84,299.94L150.98,299.9L160.85,295.85L160.99,295.78L169.98,291.83L170.13,291.78L175.93,290.74L176.07,290.74L181.15,291.15L181.3,291.17L205.52,295.94L205.66,295.95L223.5,298.92L223.65,298.96L237.28,301.55L237.42,301.55L256.13,302.05L256.28,302.05L292.97,301.4L293.12,301.38L304.87,298.62L305.01,298.57L317.34,293.67L317.48,293.62L324.59,292.03L324.74,292.02L330.54,292.35L330.68,292.38L337.35,294.01L337.5,294.05L347.22,295.96L347.36,295.98L378.11,300.24L378.25,300.27L388.55,301.58L388.7,301.58L405.52,301.99L405.67,301.99L443.38,301.4L443.52,301.38L455.12,298.38L455.27,298.33L471.37,292.23L471.51,292.21L476.59,291.93L476.73,291.94L482.97,293.1L483.12,293.14L496.89,296.22L497.04,296.24L523.73,299.25L523.87,299.28L533.59,301.11L533.73,301.13L556.79,301.97L556.94,301.97L572.31,302.71L572.46,302.74L580,303.65" style="vector-effect: none; fill: none; stroke: rgb(254, 203, 82); stroke-opacity: 1; stroke-width: 0px; opacity: 1;"/></g><g class="points"/><g class="text"/></g><g class="trace scatter trace49d10b" style="stroke-miterlimit: 2;"><g class="fills"/><g class="errorbars"/><g class="lines"><path class="js-line" d="M0,304L6.82,303.25L6.96,303.23L17.84,302.51L17.98,302.51L57.72,301.76L57.87,301.75L77.01,301.18L77.16,301.18L131.55,302.69L131.69,302.69L142.43,301.94L142.57,301.92L151.56,299.97L151.71,299.93L160.99,296.27L161.14,296.2L170.27,292.44L170.42,292.4L176.51,291.47L176.65,291.47L182.89,292.21L183.04,292.24L200.44,295.8L200.59,295.82L225.39,299.65L225.53,299.68L235.39,301.55L235.54,301.56L247.72,302.08L247.87,302.08L271.65,302.15L271.8,302.15L293.12,301.55L293.26,301.52L303.42,299.41L303.56,299.37L311.83,296.4L311.97,296.34L322.27,293.01L322.42,292.99L328.22,292.74L328.36,292.75L334.74,293.91L334.89,293.95L348.96,296.63L349.1,296.65L381.45,301.06L381.59,301.08L393.48,301.93L393.63,301.93L421.77,302.15L421.91,302.15L443.52,301.54L443.67,301.52L452.8,299.52L452.95,299.47L463.25,295.5L463.39,295.44L471.66,292.91L471.8,292.88L478.04,292.78L478.18,292.8L486.31,294.63L486.45,294.67L496.6,296.62L496.75,296.64L524.74,299.74L524.89,299.77L537.21,301.56L537.36,301.57L575.07,303.27L575.21,303.3L580,303.76" style="vector-effect: none; fill: none; stroke: rgb(99, 110, 250); stroke-opacity: 1; stroke-width: 0px; opacity: 1;"/></g><g class="points"/><g class="text"/></g><g class="trace scatter trace0e54db" style="stroke-miterlimit: 2; opacity: 1;"><g class="fills"/><g class="errorbars"/><g class="lines"><path class="js-line" d="M0,303.94L6.82,303.19L6.96,303.17L17.84,302.44L17.98,302.44L31.47,302.29L31.62,302.29L59.61,301.54L59.75,301.53L77.59,301.08L77.74,301.09L131.55,302.63L131.69,302.63L142.28,301.89L142.43,301.87L151.42,299.89L151.56,299.84L158.23,297.3L158.38,297.23L173.17,291.41L173.32,291.38L179.41,291.25L179.55,291.27L184.92,292.37L185.07,292.41L197.97,295.21L198.12,295.23L224.66,299.34L224.81,299.38L237.13,301.61L237.28,301.62L255.26,302.11L255.41,302.11L292.97,301.48L293.12,301.46L303.13,299.34L303.27,299.29L311.25,296.39L311.39,296.33L322.56,292.62L322.71,292.59L328.94,292.46L329.09,292.48L337.93,294.44L338.08,294.48L349.39,296.46L349.54,296.47L380.87,300.87L381.01,300.9L393.63,301.86L393.77,301.87L443.52,301.46L443.67,301.44L454.25,298.88L454.4,298.83L472.53,292.42L472.67,292.4L478.04,292.43L478.18,292.44L485.87,294.22L486.02,294.26L496.6,296.41L496.75,296.42L507.63,297.18L507.77,297.18L520.68,298.77L520.83,298.8L539.68,301.6L539.82,301.6L557.66,302.04L557.81,302.04L572.46,302.79L572.6,302.82L580,303.7" style="vector-effect: none; fill: none; stroke: rgb(207, 184, 124); stroke-opacity: 1; stroke-width: 3px; opacity: 1;"/></g><g class="points"/><g class="text"/></g></g></g></g><g class="zerolinelayer-above"/><path class="xlines-above crisp" d="M79,420.5H661M79,99.5H661" style="fill: none; stroke-width: 1px; stroke: rgb(0, 0, 0); stroke-opacity: 1;"/><path class="ylines-above crisp" d="M79.5,100V420M660.5,100V420" style="fill: none; stroke-width: 1px; stroke: rgb(0, 0, 0); stroke-opacity: 1;"/><g class="overlines-above"/><g class="xaxislayer-above"><path class="xtick ticks crisp" d="M0,421v5" transform="translate(80,0)" style="stroke: rgb(68, 68, 68); stroke-opacity: 1; stroke-width: 1px;"/><path class="xtick ticks crisp" d="M0,421v5" transform="translate(152.5,0)" style="stroke: rgb(68, 68, 68); stroke-opacity: 1; stroke-width: 1px;"/><path class="xtick ticks crisp" d="M0,421v5" transform="translate(225,0)" style="stroke: rgb(68, 68, 68); stroke-opacity: 1; stroke-width: 1px;"/><path class="xtick ticks crisp" d="M0,421v5" transform="translate(297.5,0)" style="stroke: rgb(68, 68, 68); stroke-opacity: 1; stroke-width: 1px;"/><path class="xtick ticks crisp" d="M0,421v5" transform="translate(370,0)" style="stroke: rgb(68, 68, 68); stroke-opacity: 1; stroke-width: 1px;"/><path class="xtick ticks crisp" d="M0,421v5" transform="translate(442.5,0)" style="stroke: rgb(68, 68, 68); stroke-opacity: 1; stroke-width: 1px;"/><path class="xtick ticks crisp" d="M0,421v5" transform="translate(515,0)" style="stroke: rgb(68, 68, 68); stroke-opacity: 1; stroke-width: 1px;"/><path class="xtick ticks crisp" d="M0,421v5" transform="translate(587.5,0)" style="stroke: rgb(68, 68, 68); stroke-opacity: 1; stroke-width: 1px;"/><path class="xtick ticks crisp" d="M0,421v5" transform="translate(660,0)" style="stroke: rgb(68, 68, 68); stroke-opacity: 1; stroke-width: 1px;"/><g class="xtick"><text text-anchor="middle" x="0" y="440.4" transform="translate(80,0)" style="font-family: 'Open Sans', verdana, arial, sans-serif; font-size: 12px; fill: rgb(42, 63, 95); fill-opacity: 1; white-space: pre;">−2000</text></g><g class="xtick"><text text-anchor="middle" x="0" y="440.4" style="font-family: 'Open Sans', verdana, arial, sans-serif; font-size: 12px; fill: rgb(42, 63, 95); fill-opacity: 1; white-space: pre;" transform="translate(152.5,0)">−1500</text></g><g class="xtick"><text text-anchor="middle" x="0" y="440.4" style="font-family: 'Open Sans', verdana, arial, sans-serif; font-size: 12px; fill: rgb(42, 63, 95); fill-opacity: 1; white-space: pre;" transform="translate(225,0)">−1000</text></g><g class="xtick"><text text-anchor="middle" x="0" y="440.4" style="font-family: 'Open Sans', verdana, arial, sans-serif; font-size: 12px; fill: rgb(42, 63, 95); fill-opacity: 1; white-space: pre;" transform="translate(297.5,0)">−500</text></g><g class="xtick"><text text-anchor="middle" x="0" y="440.4" style="font-family: 'Open Sans', verdana, arial, sans-serif; font-size: 12px; fill: rgb(42, 63, 95); fill-opacity: 1; white-space: pre;" transform="translate(370,0)">0</text></g><g class="xtick"><text text-anchor="middle" x="0" y="440.4" style="font-family: 'Open Sans', verdana, arial, sans-serif; font-size: 12px; fill: rgb(42, 63, 95); fill-opacity: 1; white-space: pre;" transform="translate(442.5,0)">500</text></g><g class="xtick"><text text-anchor="middle" x="0" y="440.4" style="font-family: 'Open Sans', verdana, arial, sans-serif; font-size: 12px; fill: rgb(42, 63, 95); fill-opacity: 1; white-space: pre;" transform="translate(515,0)">1000</text></g><g class="xtick"><text text-anchor="middle" x="0" y="440.4" style="font-family: 'Open Sans', verdana, arial, sans-serif; font-size: 12px; fill: rgb(42, 63, 95); fill-opacity: 1; white-space: pre;" transform="translate(587.5,0)">1500</text></g><g class="xtick"><text text-anchor="middle" x="0" y="440.4" style="font-family: 'Open Sans', verdana, arial, sans-serif; font-size: 12px; fill: rgb(42, 63, 95); fill-opacity: 1; white-space: pre;" transform="translate(660,0)">2000</text></g></g><g class="yaxislayer-above"><path class="ytick ticks crisp" d="M79,0h-5" transform="translate(0,407.62)" style="stroke: rgb(68, 68, 68); stroke-opacity: 1; stroke-width: 1px;"/><path class="ytick ticks crisp" d="M79,0h-5" transform="translate(0,354.25)" style="stroke: rgb(68, 68, 68); stroke-opacity: 1; stroke-width: 1px;"/><path class="ytick ticks crisp" d="M79,0h-5" transform="translate(0,300.88)" style="stroke: rgb(68, 68, 68); stroke-opacity: 1; stroke-width: 1px;"/><path class="ytick ticks crisp" d="M79,0h-5" transform="translate(0,247.5)" style="stroke: rgb(68, 68, 68); stroke-opacity: 1; stroke-width: 1px;"/><path class="ytick ticks crisp" d="M79,0h-5" transform="translate(0,194.13)" style="stroke: rgb(68, 68, 68); stroke-opacity: 1; stroke-width: 1px;"/><path class="ytick ticks crisp" d="M79,0h-5" transform="translate(0,140.76)" style="stroke: rgb(68, 68, 68); stroke-opacity: 1; stroke-width: 1px;"/><g class="ytick"><text text-anchor="end" x="71.6" y="4.199999999999999" transform="translate(0,407.62)" style="font-family: 'Open Sans', verdana, arial, sans-serif; font-size: 12px; fill: rgb(42, 63, 95); fill-opacity: 1; white-space: pre;">0</text></g><g class="ytick"><text text-anchor="end" x="71.6" y="4.199999999999999" style="font-family: 'Open Sans', verdana, arial, sans-serif; font-size: 12px; fill: rgb(42, 63, 95); fill-opacity: 1; white-space: pre;" transform="translate(0,354.25)">20k</text></g><g class="ytick"><text text-anchor="end" x="71.6" y="4.199999999999999" style="font-family: 'Open Sans', verdana, arial, sans-serif; font-size: 12px; fill: rgb(42, 63, 95); fill-opacity: 1; white-space: pre;" transform="translate(0,300.88)">40k</text></g><g class="ytick"><text text-anchor="end" x="71.6" y="4.199999999999999" style="font-family: 'Open Sans', verdana, arial, sans-serif; font-size: 12px; fill: rgb(42, 63, 95); fill-opacity: 1; white-space: pre;" transform="translate(0,247.5)">60k</text></g><g class="ytick"><text text-anchor="end" x="71.6" y="4.199999999999999" style="font-family: 'Open Sans', verdana, arial, sans-serif; font-size: 12px; fill: rgb(42, 63, 95); fill-opacity: 1; white-space: pre;" transform="translate(0,194.13)">80k</text></g><g class="ytick"><text text-anchor="end" x="71.6" y="4.199999999999999" style="font-family: 'Open Sans', verdana, arial, sans-serif; font-size: 12px; fill: rgb(42, 63, 95); fill-opacity: 1; white-space: pre;" transform="translate(0,140.76)">100k</text></g></g><g class="overaxes-above"/></g></g><g class="polarlayer"/><g class="smithlayer"/><g class="ternarylayer"/><g class="geolayer"/><g class="funnelarealayer"/><g class="pielayer"/><g class="iciclelayer"/><g class="treemaplayer"/><g class="sunburstlayer"/><g class="glimages"/><defs id="topdefs-6d6cc3"><g class="clips"/><clipPath id="legend6d6cc3"><rect width="515" height="67" x="1" y="1"/></clipPath></defs><g class="layer-above"><g class="imagelayer"/><g class="shapelayer"><g class="shape-group" data-index="0" clip-path="url(#clip6d6cc3x)"><path data-index="0" fill-rule="evenodd" d="M220.51,420L220.51,100" style="opacity: 1; stroke: rgb(128, 128, 128); stroke-opacity: 1; fill: rgb(0, 0, 0); fill-opacity: 0; stroke-dasharray: 9px, 9px; stroke-width: 2px;"/></g><g class="shape-group" data-index="1" clip-path="url(#clip6d6cc3x)"><path data-index="1" fill-rule="evenodd" d="M297.5,420L297.5,100" style="opacity: 1; stroke: rgb(128, 128, 128); stroke-opacity: 1; fill: rgb(0, 0, 0); fill-opacity: 0; stroke-dasharray: 3px, 3px; stroke-width: 2px;"/></g><g class="shape-group" data-index="2" clip-path="url(#clip6d6cc3x)"><path data-index="2" fill-rule="evenodd" d="M370,420L370,100" style="opacity: 1; stroke: rgb(128, 128, 128); stroke-opacity: 1; fill: rgb(0, 0, 0); fill-opacity: 0; stroke-dasharray: 9px, 9px; stroke-width: 2px;"/></g><g class="shape-group" data-index="3" clip-path="url(#clip6d6cc3x)"><path data-index="3" fill-rule="evenodd" d="M447,420L447,100" style="opacity: 1; stroke: rgb(128, 128, 128); stroke-opacity: 1; fill: rgb(0, 0, 0); fill-opacity: 0; stroke-dasharray: 3px, 3px; stroke-width: 2px;"/></g><g class="shape-group" data-index="4" clip-path="url(#clip6d6cc3x)"><path data-index="4" fill-rule="evenodd" d="M519.5,420L519.5,100" style="opacity: 1; stroke: rgb(128, 128, 128); stroke-opacity: 1; fill: rgb(0, 0, 0); fill-opacity: 0; stroke-dasharray: 9px, 9px; stroke-width: 2px;"/></g><g class="shape-group" data-index="5" clip-path="url(#clip6d6cc3x)"><path data-index="5" fill-rule="evenodd" d="M596.49,420L596.49,100" style="opacity: 1; stroke: rgb(128, 128, 128); stroke-opacity: 1; fill: rgb(0, 0, 0); fill-opacity: 0; stroke-dasharray: 3px, 3px; stroke-width: 2px;"/></g><g class="shape-group" data-index="6" clip-path="url(#clip6d6cc3x)"><path data-index="6" fill-rule="evenodd" d="M370,420L370,100" style="opacity: 1; stroke: rgb(255, 0, 0); stroke-opacity: 1; fill: rgb(0, 0, 0); fill-opacity: 0; stroke-dasharray: 9px, 9px; stroke-width: 2px;"/></g></g></g><g class="infolayer"><g class="legend" pointer-events="all" transform="translate(143,24.599999999999994)"><rect class="bg" shape-rendering="crispEdges" style="stroke: rgb(0, 0, 0); stroke-opacity: 1; fill: rgb(255, 255, 255); fill-opacity: 0.8; stroke-width: 1px;" width="516" height="68" x="0.5" y="0.5"/><g class="scrollbox" transform="" clip-path="url(#legend6d6cc3)"><g class="groups"><g class="traces" transform="translate(1,15.5)" style="opacity: 1;"><text class="legendtext" text-anchor="start" x="40" y="4.680000000000001" style="font-family: 'Open Sans', verdana, arial, sans-serif; font-size: 12px; fill: rgb(42, 63, 95); fill-opacity: 1; white-space: pre;">Gamma</text><g class="layers" style="opacity: 1;"><g class="legendfill"/><g class="legendlines"><path class="js-line" d="M5,0h30" style="fill: none; stroke: rgb(207, 184, 124); stroke-opacity: 1; stroke-width: 3px;"/></g><g class="legendsymbols"><g class="legendpoints"/></g></g><rect class="legendtoggle" x="0" y="-9.5" width="89.5625" height="19" style="fill: rgb(0, 0, 0); fill-opacity: 0;"/></g><g class="traces" transform="translate(132.8671875,15.5)" style="opacity: 1;"><text class="legendtext" text-anchor="start" x="40" y="4.680000000000001" style="font-family: 'Open Sans', verdana, arial, sans-serif; font-size: 12px; fill: rgb(42, 63, 95); fill-opacity: 1; white-space: pre;">Gamma_down</text><g class="layers"><g class="legendfill"><path class="js-fill" d="M5,-2h30v6h-30z" style="stroke-width: 0; fill: rgb(207, 184, 124); fill-opacity: 0.15;"/></g><g class="legendlines"><path class="js-line" d="M5,-2h30" style="fill: none; stroke: rgb(99, 110, 250); stroke-opacity: 1; stroke-width: 0px;"/></g><g class="legendsymbols"><g class="legendpoints"/></g></g><rect class="legendtoggle" x="0" y="-9.5" width="129.3671875" height="19" style="fill: rgb(0, 0, 0); fill-opacity: 0;"/></g><g class="traces" transform="translate(264.734375,15.5)" style="opacity: 1;"><text class="legendtext" text-anchor="start" x="40" y="4.680000000000001" style="font-family: 'Open Sans', verdana, arial, sans-serif; font-size: 12px; fill: rgb(42, 63, 95); fill-opacity: 1; white-space: pre;">Gamma_up</text><g class="layers"><g class="legendfill"/><g class="legendlines"><path class="js-line" d="M5,0h30" style="fill: none; stroke: rgb(254, 203, 82); stroke-opacity: 1; stroke-width: 0px;"/></g><g class="legendsymbols"><g class="legendpoints"/></g></g><rect class="legendtoggle" x="0" y="-9.5" width="112.265625" height="19" style="fill: rgb(0, 0, 0); fill-opacity: 0;"/></g><g class="traces" transform="translate(396.6015625,15.5)" style="opacity: 1;"><text class="legendtext" text-anchor="start" x="40" y="4.680000000000001" style="font-family: 'Open Sans', verdana, arial, sans-serif; font-size: 12px; fill: rgb(42, 63, 95); fill-opacity: 1; white-space: pre;">Beta</text><g class="layers" style="opacity: 1;"><g class="legendfill"/><g class="legendlines"><path class="js-line" d="M5,0h30" style="fill: none; stroke: rgb(148, 0, 211); stroke-opacity: 1; stroke-width: 3px;"/></g><g class="legendsymbols"><g class="legendpoints"/></g></g><rect class="legendtoggle" x="0" y="-9.5" width="69.8125" height="19" style="fill: rgb(0, 0, 0); fill-opacity: 0;"/></g><g class="traces" transform="translate(1,34.5)" style="opacity: 1;"><text class="legendtext" text-anchor="start" x="40" y="4.680000000000001" style="font-family: 'Open Sans', verdana, arial, sans-serif; font-size: 12px; fill: rgb(42, 63, 95); fill-opacity: 1; white-space: pre;">Beta_down</text><g class="layers"><g class="legendfill"><path class="js-fill" d="M5,-2h30v6h-30z" style="stroke-width: 0; fill: rgb(148, 0, 211); fill-opacity: 0.15;"/></g><g class="legendlines"><path class="js-line" d="M5,-2h30" style="fill: none; stroke: rgb(182, 232, 128); stroke-opacity: 1; stroke-width: 0px;"/></g><g class="legendsymbols"><g class="legendpoints"/></g></g><rect class="legendtoggle" x="0" y="-9.5" width="109.6171875" height="19" style="fill: rgb(0, 0, 0); fill-opacity: 0;"/></g><g class="traces" transform="translate(132.8671875,34.5)" style="opacity: 1;"><text class="legendtext" text-anchor="start" x="40" y="4.680000000000001" style="font-family: 'Open Sans', verdana, arial, sans-serif; font-size: 12px; fill: rgb(42, 63, 95); fill-opacity: 1; white-space: pre;">Beta_up</text><g class="layers"><g class="legendfill"/><g class="legendlines"><path class="js-line" d="M5,0h30" style="fill: none; stroke: rgb(255, 102, 146); stroke-opacity: 1; stroke-width: 0px;"/></g><g class="legendsymbols"><g class="legendpoints"/></g></g><rect class="legendtoggle" x="0" y="-9.5" width="92.515625" height="19" style="fill: rgb(0, 0, 0); fill-opacity: 0;"/></g><g class="traces" transform="translate(264.734375,34.5)" style="opacity: 1;"><text class="legendtext" text-anchor="start" x="40" y="4.680000000000001" style="font-family: 'Open Sans', verdana, arial, sans-serif; font-size: 12px; fill: rgb(42, 63, 95); fill-opacity: 1; white-space: pre;">Alpha</text><g class="layers" style="opacity: 1;"><g class="legendfill"/><g class="legendlines"><path class="js-line" d="M5,0h30" style="fill: none; stroke: rgb(0, 0, 255); stroke-opacity: 1; stroke-width: 3px;"/></g><g class="legendsymbols"><g class="legendpoints"/></g></g><rect class="legendtoggle" x="0" y="-9.5" width="76.2734375" height="19" style="fill: rgb(0, 0, 0); fill-opacity: 0;"/></g><g class="traces" transform="translate(396.6015625,34.5)" style="opacity: 1;"><text class="legendtext" text-anchor="start" x="40" y="4.680000000000001" style="font-family: 'Open Sans', verdana, arial, sans-serif; font-size: 12px; fill: rgb(42, 63, 95); fill-opacity: 1; white-space: pre;">Alpha_down</text><g class="layers"><g class="legendfill"><path class="js-fill" d="M5,-2h30v6h-30z" style="stroke-width: 0; fill: rgb(0, 0, 255); fill-opacity: 0.15;"/></g><g class="legendlines"><path class="js-line" d="M5,-2h30" style="fill: none; stroke: rgb(255, 161, 90); stroke-opacity: 1; stroke-width: 0px;"/></g><g class="legendsymbols"><g class="legendpoints"/></g></g><rect class="legendtoggle" x="0" y="-9.5" width="116.078125" height="19" style="fill: rgb(0, 0, 0); fill-opacity: 0;"/></g><g class="traces" transform="translate(1,53.5)" style="opacity: 1;"><text class="legendtext" text-anchor="start" x="40" y="4.680000000000001" style="font-family: 'Open Sans', verdana, arial, sans-serif; font-size: 12px; fill: rgb(42, 63, 95); fill-opacity: 1; white-space: pre;">Alpha_up</text><g class="layers"><g class="legendfill"/><g class="legendlines"><path class="js-line" d="M5,0h30" style="fill: none; stroke: rgb(171, 99, 250); stroke-opacity: 1; stroke-width: 0px;"/></g><g class="legendsymbols"><g class="legendpoints"/></g></g><rect class="legendtoggle" x="0" y="-9.5" width="98.9765625" height="19" style="fill: rgb(0, 0, 0); fill-opacity: 0;"/></g><g class="traces" transform="translate(132.8671875,53.5)" style="opacity: 1;"><text class="legendtext" text-anchor="start" x="40" y="4.680000000000001" style="font-family: 'Open Sans', verdana, arial, sans-serif; font-size: 12px; fill: rgb(42, 63, 95); fill-opacity: 1; white-space: pre;">Theta</text><g class="layers" style="opacity: 1;"><g class="legendfill"/><g class="legendlines"><path class="js-line" d="M5,0h30" style="fill: none; stroke: rgb(75, 0, 130); stroke-opacity: 1; stroke-width: 3px;"/></g><g class="legendsymbols"><g class="legendpoints"/></g></g><rect class="legendtoggle" x="0" y="-9.5" width="77.078125" height="19" style="fill: rgb(0, 0, 0); fill-opacity: 0;"/></g><g class="traces" transform="translate(264.734375,53.5)" style="opacity: 1;"><text class="legendtext" text-anchor="start" x="40" y="4.680000000000001" style="font-family: 'Open Sans', verdana, arial, sans-serif; font-size: 12px; fill: rgb(42, 63, 95); fill-opacity: 1; white-space: pre;">Theta_down</text><g class="layers"><g class="legendfill"><path class="js-fill" d="M5,-2h30v6h-30z" style="stroke-width: 0; fill: rgb(75, 0, 130); fill-opacity: 0.15;"/></g><g class="legendlines"><path class="js-line" d="M5,-2h30" style="fill: none; stroke: rgb(239, 85, 59); stroke-opacity: 1; stroke-width: 0px;"/></g><g class="legendsymbols"><g class="legendpoints"/></g></g><rect class="legendtoggle" x="0" y="-9.5" width="116.875" height="19" style="fill: rgb(0, 0, 0); fill-opacity: 0;"/></g><g class="traces" transform="translate(396.6015625,53.5)" style="opacity: 1;"><text class="legendtext" text-anchor="start" x="40" y="4.680000000000001" style="font-family: 'Open Sans', verdana, arial, sans-serif; font-size: 12px; fill: rgb(42, 63, 95); fill-opacity: 1; white-space: pre;">Theta_up</text><g class="layers"><g class="legendfill"/><g class="legendlines"><path class="js-line" d="M5,0h30" style="fill: none; stroke: rgb(99, 110, 250); stroke-opacity: 1; stroke-width: 0px;"/></g><g class="legendsymbols"><g class="legendpoints"/></g></g><rect class="legendtoggle" x="0" y="-9.5" width="99.7734375" height="19" style="fill: rgb(0, 0, 0); fill-opacity: 0;"/></g></g></g><rect class="scrollbar" rx="20" ry="3" width="0" height="0" style="fill: rgb(128, 139, 164); fill-opacity: 1;" x="0" y="0"/></g><g class="g-gtitle"><text class="gtitle" x="350" y="50" text-anchor="middle" dy="0em" style="opacity: 1; font-family: Arial; font-size: 18px; fill: rgb(0, 0, 0); fill-opacity: 1; white-space: pre;"><tspan class="line" dy="0em" x="350" y="50"><tspan style="font-weight:bold">Figure f006: V4 Band-Specific Omission Dynamics (AAAB)</tspan></tspan><tspan class="line" dy="1.3em" x="350" y="50">​<tspan style="font-size:70%" dy="-0.6em">Relative Power (dB) with ±SEM | 0ms = Omission Onset | 30ms Smoothed</tspan><tspan dy="0.42em">​</tspan></tspan></text></g><g class="g-xtitle"><text class="xtitle" x="370" y="467.200390625" text-anchor="middle" style="opacity: 1; font-family: 'Open Sans', verdana, arial, sans-serif; font-size: 14px; fill: rgb(42, 63, 95); fill-opacity: 1; white-space: pre;">Time from Omission (ms)</text></g><g class="g-ytitle"><text class="ytitle" transform="rotate(-90,22.207421875,260)" x="22.207421875" y="260" text-anchor="middle" style="opacity: 1; font-family: 'Open Sans', verdana, arial, sans-serif; font-size: 14px; fill: rgb(42, 63, 95); fill-opacity: 1; white-space: pre;">Relative Power (dB)</text></g><g class="annotation" data-index="0" style="opacity: 1;"><g class="annotation-text-g" transform="rotate(0,230.01,109.5)"><g class="cursor-pointer" transform="translate(221,100)"><rect class="bg" x="0.5" y="0.5" width="18" height="18" style="stroke-width: 1px; stroke: rgb(0, 0, 0); stroke-opacity: 0; fill: rgb(0, 0, 0); fill-opacity: 0;"/><text class="annotation-text" text-anchor="middle" x="9.43359375" y="14" style="font-family: 'Open Sans', verdana, arial, sans-serif; font-size: 12px; fill: rgb(42, 63, 95); fill-opacity: 1; white-space: pre;">P1</text></g></g></g><g class="annotation" data-index="1" style="opacity: 1;"><g class="annotation-text-g" transform="rotate(0,308,109.5)"><g class="cursor-pointer" transform="translate(298,100)"><rect class="bg" x="0.5" y="0.5" width="20" height="18" style="stroke-width: 1px; stroke: rgb(0, 0, 0); stroke-opacity: 0; fill: rgb(0, 0, 0); fill-opacity: 0;"/><text class="annotation-text" text-anchor="middle" x="10.4375" y="14" style="font-family: 'Open Sans', verdana, arial, sans-serif; font-size: 12px; fill: rgb(42, 63, 95); fill-opacity: 1; white-space: pre;">D1</text></g></g></g><g class="annotation" data-index="2" style="opacity: 1;"><g class="annotation-text-g" transform="rotate(0,379.5,109.5)"><g class="cursor-pointer" transform="translate(370,100)"><rect class="bg" x="0.5" y="0.5" width="18" height="18" style="stroke-width: 1px; stroke: rgb(0, 0, 0); stroke-opacity: 0; fill: rgb(0, 0, 0); fill-opacity: 0;"/><text class="annotation-text" text-anchor="middle" x="9.43359375" y="14" style="font-family: 'Open Sans', verdana, arial, sans-serif; font-size: 12px; fill: rgb(42, 63, 95); fill-opacity: 1; white-space: pre;">P2</text></g></g></g><g class="annotation" data-index="3" style="opacity: 1;"><g class="annotation-text-g" transform="rotate(0,457.5,109.5)"><g class="cursor-pointer" transform="translate(447,100)"><rect class="bg" x="0.5" y="0.5" width="20" height="18" style="stroke-width: 1px; stroke: rgb(0, 0, 0); stroke-opacity: 0; fill: rgb(0, 0, 0); fill-opacity: 0;"/><text class="annotation-text" text-anchor="middle" x="10.4375" y="14" style="font-family: 'Open Sans', verdana, arial, sans-serif; font-size: 12px; fill: rgb(42, 63, 95); fill-opacity: 1; white-space: pre;">D2</text></g></g></g><g class="annotation" data-index="4" style="opacity: 1;"><g class="annotation-text-g" transform="rotate(0,529,109.5)"><g class="cursor-pointer" transform="translate(520,100)"><rect class="bg" x="0.5" y="0.5" width="18" height="18" style="stroke-width: 1px; stroke: rgb(0, 0, 0); stroke-opacity: 0; fill: rgb(0, 0, 0); fill-opacity: 0;"/><text class="annotation-text" text-anchor="middle" x="9.43359375" y="14" style="font-family: 'Open Sans', verdana, arial, sans-serif; font-size: 12px; fill: rgb(42, 63, 95); fill-opacity: 1; white-space: pre;">P3</text></g></g></g><g class="annotation" data-index="5" style="opacity: 1;"><g class="annotation-text-g" transform="rotate(0,606.99,109.5)"><g class="cursor-pointer" transform="translate(596,100)"><rect class="bg" x="0.5" y="0.5" width="20" height="18" style="stroke-width: 1px; stroke: rgb(0, 0, 0); stroke-opacity: 0; fill: rgb(0, 0, 0); fill-opacity: 0;"/><text class="annotation-text" text-anchor="middle" x="10.4375" y="14" style="font-family: 'Open Sans', verdana, arial, sans-serif; font-size: 12px; fill: rgb(42, 63, 95); fill-opacity: 1; white-space: pre;">D3</text></g></g></g><g class="annotation" data-index="6" style="opacity: 1;"><g class="annotation-text-g" transform="rotate(0,419,109.5)"><g class="cursor-pointer" transform="translate(370,100)"><rect class="bg" x="0.5" y="0.5" width="97" height="18" style="stroke-width: 1px; stroke: rgb(0, 0, 0); stroke-opacity: 0; fill: rgb(0, 0, 0); fill-opacity: 0;"/><text class="annotation-text" text-anchor="middle" x="49.171875" y="14" style="font-family: 'Open Sans', verdana, arial, sans-serif; font-size: 12px; fill: rgb(42, 63, 95); fill-opacity: 1; white-space: pre;">OMISSION (P2)</text></g></g></g></g></svg>