<svg class="main-svg" xmlns="http://www.w3.org/2000/svg" xmlns:xlink="http://www.w3.org/1999/xlink" width="700" height="500" style="" viewBox="0 0 700 500"><rect x="0" y="0" width="700" height="500" style="fill: rgb(255, 255, 255); fill-opacity: 1;"/><defs id="defs-4ef0bb"><g class="clips"><clipPath id="clip4ef0bbxyplot" class="plotclip"><rect width="580" height="320"/></clipPath><clipPath class="axesclip" id="clip4ef0bbx"><rect x="80" y="0" width="580" height="500"/></clipPath><clipPath class="axesclip" id="clip4ef0bby"><rect x="0" y="100" width="700" height="320"/></clipPath><clipPath class="axesclip" id="clip4ef0bbxy"><rect x="80" y="100" width="580" height="320"/></clipPath></g><g class="gradients"/><g class="patterns"/></defs><g class="bglayer"/><g class="layer-below"><g class="imagelayer"/><g class="shapelayer"/></g><g class="cartesianlayer"><g class="subplot xy"><g class="layer-subplot"><g class="shapelayer"/><g class="imagelayer"/></g><g class="minor-gridlayer"><g class="x"/><g class="y"/></g><g class="gridlayer"><g class="x"><path class="xgrid crisp" transform="translate(152.5,0)" d="M0,100v320" style="stroke: rgb(211, 211, 211); stroke-opacity: 1; stroke-width: 1px;"/><path class="xgrid crisp" transform="translate(225,0)" d="M0,100v320" style="stroke: rgb(211, 211, 211); stroke-opacity: 1; stroke-width: 1px;"/><path class="xgrid crisp" transform="translate(297.5,0)" d="M0,100v320" style="stroke: rgb(211, 211, 211); stroke-opacity: 1; stroke-width: 1px;"/><path class="xgrid crisp" transform="translate(442.5,0)" d="M0,100v320" style="stroke: rgb(211, 211, 211); stroke-opacity: 1; stroke-width: 1px;"/><path class="xgrid crisp" transform="translate(515,0)" d="M0,100v320" style="stroke: rgb(211, 211, 211); stroke-opacity: 1; stroke-width: 1px;"/><path class="xgrid crisp" transform="translate(587.5,0)" d="M0,100v320" style="stroke: rgb(211, 211, 211); stroke-opacity: 1; stroke-width: 1px;"/></g><g class="y"><path class="ygrid crisp" transform="translate(0,368.35)" d="M80,0h580" style="stroke: rgb(211, 211, 211); stroke-opacity: 1; stroke-width: 1px;"/><path class="ygrid crisp" transform="translate(0,331.9)" d="M80,0h580" style="stroke: rgb(211, 211, 211); stroke-opacity: 1; stroke-width: 1px;"/><path class="ygrid crisp" transform="translate(0,295.45)" d="M80,0h580" style="stroke: rgb(211, 211, 211); stroke-opacity: 1; stroke-width: 1px;"/><path class="ygrid crisp" transform="translate(0,259.01)" d="M80,0h580" style="stroke: rgb(211, 211, 211); stroke-opacity: 1; stroke-width: 1px;"/><path class="ygrid crisp" transform="translate(0,222.56)" d="M80,0h580" style="stroke: rgb(211, 211, 211); stroke-opacity: 1; stroke-width: 1px;"/><path class="ygrid crisp" transform="translate(0,186.11)" d="M80,0h580" style="stroke: rgb(211, 211, 211); stroke-opacity: 1; stroke-width: 1px;"/><path class="ygrid crisp" transform="translate(0,149.67000000000002)" d="M80,0h580" style="stroke: rgb(211, 211, 211); stroke-opacity: 1; stroke-width: 1px;"/><path class="ygrid crisp" transform="translate(0,113.22)" d="M80,0h580" style="stroke: rgb(211, 211, 211); stroke-opacity: 1; stroke-width: 1px;"/></g></g><g class="zerolinelayer"><path class="xzl zl crisp" transform="translate(370,0)" d="M0,100v320" style="stroke: rgb(235, 240, 248); stroke-opacity: 1; stroke-width: 2px;"/><path class="yzl zl crisp" transform="translate(0,404.79)" d="M80,0h580" style="stroke: rgb(235, 240, 248); stroke-opacity: 1; stroke-width: 2px;"/></g><g class="layer-between"><g class="shapelayer"/><g class="imagelayer"/></g><path class="xlines-below"/><path class="ylines-below"/><g class="overlines-below"/><g class="xaxislayer-below"/><g class="yaxislayer-below"/><g class="overaxes-below"/><g class="overplot"><g class="xy" transform="translate(80,100)" clip-path="url(#clip4ef0bbxyplot)"><g class="scatterlayer mlayer"><g class="trace scatter trace7f4503" style="stroke-miterlimit: 2;"><g class="fills"><g><path class="js-fill" d="M0,193.57L2.61,192.65L2.76,192.55L6.24,189.15L6.38,188.98L13.63,179.64L13.78,179.45L26.98,160.39L27.12,160.15L38.29,140.88L38.43,140.63L62.51,99.23L62.66,99.01L73.97,82.59L74.11,82.44L78.9,78.67L79.04,78.58L87.02,73.5L87.17,73.39L93.11,69.27L93.26,69.2L96.88,68.46L97.03,68.47L101.24,69.33L101.38,69.38L108.05,72.38L108.2,72.45L126.33,79.49L126.47,79.53L142.14,85.28L142.28,85.36L148.08,89.29L148.23,89.41L156.93,97.82L157.07,97.97L163.6,103.1L163.75,103.18L167.81,104.91L167.95,104.96L176.8,106.55L176.94,106.58L187.39,108.76L187.53,108.74L191.01,107.79L191.16,107.73L197.1,103.94L197.25,103.83L210.45,94.17L210.59,94.01L221.04,82.16L221.18,82.09L224.08,81.51L224.23,81.52L229.16,82.59L229.3,82.63L235.68,83.15L235.83,83.16L239.6,84.12L239.74,84.19L243.52,87.01L243.66,87.14L261.5,103.67L261.65,103.74L264.98,104.58L265.13,104.59L269.48,103.86L269.62,103.81L282.82,98.72L282.97,98.62L288.62,93.67L288.77,93.53L295.15,88.21L295.29,88.12L302.11,84.89L302.26,84.84L311.39,82.46L311.54,82.44L319.22,81.59L319.37,81.59L324.45,82.13L324.59,82.17L329.96,84.36L330.1,84.42L334.6,85.42L334.74,85.42L338.37,84.45L338.51,84.37L342,81.95L342.14,81.82L346.78,76.83L346.93,76.65L357.08,62.43L357.22,62.19L363.03,51.52L363.17,51.23L368.97,41.8L369.12,41.65L371.73,40.01L371.87,39.98L374.34,40.35L374.48,40.41L378.25,43.26L378.4,43.38L384.2,47.75L384.35,47.85L388.7,51.83L388.84,52.01L392.61,57.95L392.76,58.22L402.62,75L402.77,75.2L408.71,82.44L408.86,82.58L413.35,85.77L413.5,85.84L420.32,87.97L420.46,88.01L433.08,91.17L433.22,91.16L438.44,89.72L438.59,89.67L444.97,87.75L445.12,87.72L464.41,85.79L464.55,85.8L470.64,86.92L470.79,86.97L476.44,89.48L476.59,89.57L496.02,101.24L496.17,101.36L516.62,121.3L516.76,121.49L520.54,127.43L520.68,127.7L525.47,138.16L525.61,138.5L535.33,159.32L535.47,159.61L552.15,191.55L552.3,191.77L560.28,202.41L560.42,202.59L573.04,218.88L573.18,219.08L578.11,224.44L578.26,224.52L580,225.03L580,218.44L578.55,218.05L578.4,217.97L561.44,195.26L561.29,195.07L552.15,181.82L552.01,181.59L546.21,170.91L546.06,170.62L521.99,114.75L521.84,114.43L517.49,106.26L517.34,106.04L502.84,90.48L502.7,90.32L495.73,83.31L495.59,83.18L477.89,71.94L477.75,71.84L472.09,68.77L471.95,68.72L466.58,67.27L466.44,67.24L446.57,68.78L446.42,68.79L437.43,71.46L437.28,71.52L433.08,72.56L432.93,72.58L418.14,68.16L417.99,68.11L413.21,66.22L413.06,66.14L409.15,63L409,62.85L403.93,56.24L403.78,56.03L392.32,34.94L392.18,34.66L388.84,28.98L388.7,28.78L381.01,21.98L380.87,21.87L375.21,16.92L375.06,16.82L372.6,16L372.45,16.01L369.84,17.29L369.7,17.43L356.79,41.86L356.64,42.12L346.35,58.02L346.2,58.21L341.56,63.52L341.42,63.65L338.22,65.94L338.08,66.02L334.74,66.94L334.6,66.95L324.88,63.49L324.74,63.45L319.95,62.7L319.8,62.7L312.55,63.4L312.41,63.42L302.84,65.94L302.69,65.99L296.16,69.05L296.02,69.14L286.88,77.34L286.74,77.49L282.53,81.19L282.39,81.29L273.39,85.06L273.25,85.11L267.16,87.13L267.01,87.16L263.39,87.02L263.24,86.98L259.76,85.15L259.61,85.04L249.61,74.75L249.46,74.59L242.79,67.35L242.65,67.21L239.02,64.62L238.87,64.56L234.09,63.83L233.94,63.83L226.98,62.69L226.84,62.65L223.36,62.17L223.21,62.18L220.17,63.43L220.02,63.54L215.23,69.26L215.09,69.48L209.58,77.33L209.43,77.5L205.08,81.57L204.94,81.68L196.96,87.54L196.81,87.66L190.87,91.88L190.72,91.94L187.24,92.92L187.1,92.94L168.53,88.74L168.39,88.7L164.04,86.76L163.89,86.67L149.1,72.3L148.95,72.16L143.01,67.49L142.86,67.4L118.49,57.32L118.35,57.26L110.08,53.69L109.94,53.62L101.67,49.51L101.53,49.46L97.75,48.48L97.61,48.46L93.98,48.93L93.84,48.99L88.91,52.28L88.76,52.41L79.77,58.97L79.62,59.06L75.42,62.22L75.27,62.36L60.77,84.54L60.63,84.78L34.52,133.94L34.37,134.21L25.38,150.64L25.24,150.89L17.11,163.56L16.97,163.77L5.95,179.13L5.8,179.31L2.61,182.53L2.47,182.63L0,183.52Z" style="fill: rgb(75, 0, 130); fill-opacity: 0.15; stroke-width: 0;"/></g></g><g class="errorbars"/><g class="lines"><path class="js-line" d="M0,183.52L2.47,182.63L2.61,182.53L5.8,179.31L5.95,179.13L16.97,163.77L17.11,163.56L25.24,150.89L25.38,150.64L34.37,134.21L34.52,133.94L60.63,84.78L60.77,84.54L75.27,62.36L75.42,62.22L79.62,59.06L79.77,58.97L88.76,52.41L88.91,52.28L93.84,48.99L93.98,48.93L97.61,48.46L97.75,48.48L101.53,49.46L101.67,49.51L109.94,53.62L110.08,53.69L118.35,57.26L118.49,57.32L142.86,67.4L143.01,67.49L148.95,72.16L149.1,72.3L163.89,86.67L164.04,86.76L168.39,88.7L168.53,88.74L187.1,92.94L187.24,92.92L190.72,91.94L190.87,91.88L196.81,87.66L196.96,87.54L204.94,81.68L205.08,81.57L209.43,77.5L209.58,77.33L215.09,69.48L215.23,69.26L220.02,63.54L220.17,63.43L223.21,62.18L223.36,62.17L226.84,62.65L226.98,62.69L233.94,63.83L234.09,63.83L238.87,64.56L239.02,64.62L242.65,67.21L242.79,67.35L249.46,74.59L249.61,74.75L259.61,85.04L259.76,85.15L263.24,86.98L263.39,87.02L267.01,87.16L267.16,87.13L273.25,85.11L273.39,85.06L282.39,81.29L282.53,81.19L286.74,77.49L286.88,77.34L296.02,69.14L296.16,69.05L302.69,65.99L302.84,65.94L312.41,63.42L312.55,63.4L319.8,62.7L319.95,62.7L324.74,63.45L324.88,63.49L334.6,66.95L334.74,66.94L338.08,66.02L338.22,65.94L341.42,63.65L341.56,63.52L346.2,58.21L346.35,58.02L356.64,42.12L356.79,41.86L369.7,17.43L369.84,17.29L372.45,16.01L372.6,16L375.06,16.82L375.21,16.92L380.87,21.87L381.01,21.98L388.7,28.78L388.84,28.98L392.18,34.66L392.32,34.94L403.78,56.03L403.93,56.24L409,62.85L409.15,63L413.06,66.14L413.21,66.22L417.99,68.11L418.14,68.16L432.93,72.58L433.08,72.56L437.28,71.52L437.43,71.46L446.42,68.79L446.57,68.78L466.44,67.24L466.58,67.27L471.95,68.72L472.09,68.77L477.75,71.84L477.89,71.94L495.59,83.18L495.73,83.31L502.7,90.32L502.84,90.48L517.34,106.04L517.49,106.26L521.84,114.43L521.99,114.75L546.06,170.62L546.21,170.91L552.01,181.59L552.15,181.82L561.29,195.07L561.44,195.26L578.4,217.97L578.55,218.05L580,218.44" style="vector-effect: none; fill: none; stroke: rgb(99, 110, 250); stroke-opacity: 1; stroke-width: 0px; opacity: 1;"/></g><g class="points"/><g class="text"/></g><g class="trace scatter trace73d5c7" style="stroke-miterlimit: 2;"><g class="fills"/><g class="errorbars"/><g class="lines"><path class="js-line" d="M0,193.57L2.61,192.65L2.76,192.55L6.24,189.15L6.38,188.98L13.63,179.64L13.78,179.45L26.98,160.39L27.12,160.15L38.29,140.88L38.43,140.63L62.51,99.23L62.66,99.01L73.97,82.59L74.11,82.44L78.9,78.67L79.04,78.58L87.02,73.5L87.17,73.39L93.11,69.27L93.26,69.2L96.88,68.46L97.03,68.47L101.24,69.33L101.38,69.38L108.05,72.38L108.2,72.45L126.33,79.49L126.47,79.53L142.14,85.28L142.28,85.36L148.08,89.29L148.23,89.41L156.93,97.82L157.07,97.97L163.6,103.1L163.75,103.18L167.81,104.91L167.95,104.96L176.8,106.55L176.94,106.58L187.39,108.76L187.53,108.74L191.01,107.79L191.16,107.73L197.1,103.94L197.25,103.83L210.45,94.17L210.59,94.01L221.04,82.16L221.18,82.09L224.08,81.51L224.23,81.52L229.16,82.59L229.3,82.63L235.68,83.15L235.83,83.16L239.6,84.12L239.74,84.19L243.52,87.01L243.66,87.14L261.5,103.67L261.65,103.74L264.98,104.58L265.13,104.59L269.48,103.86L269.62,103.81L282.82,98.72L282.97,98.62L288.62,93.67L288.77,93.53L295.15,88.21L295.29,88.12L302.11,84.89L302.26,84.84L311.39,82.46L311.54,82.44L319.22,81.59L319.37,81.59L324.45,82.13L324.59,82.17L329.96,84.36L330.1,84.42L334.6,85.42L334.74,85.42L338.37,84.45L338.51,84.37L342,81.95L342.14,81.82L346.78,76.83L346.93,76.65L357.08,62.43L357.22,62.19L363.03,51.52L363.17,51.23L368.97,41.8L369.12,41.65L371.73,40.01L371.87,39.98L374.34,40.35L374.48,40.41L378.25,43.26L378.4,43.38L384.2,47.75L384.35,47.85L388.7,51.83L388.84,52.01L392.61,57.95L392.76,58.22L402.62,75L402.77,75.2L408.71,82.44L408.86,82.58L413.35,85.77L413.5,85.84L420.32,87.97L420.46,88.01L433.08,91.17L433.22,91.16L438.44,89.72L438.59,89.67L444.97,87.75L445.12,87.72L464.41,85.79L464.55,85.8L470.64,86.92L470.79,86.97L476.44,89.48L476.59,89.57L496.02,101.24L496.17,101.36L516.62,121.3L516.76,121.49L520.54,127.43L520.68,127.7L525.47,138.16L525.61,138.5L535.33,159.32L535.47,159.61L552.15,191.55L552.3,191.77L560.28,202.41L560.42,202.59L573.04,218.88L573.18,219.08L578.11,224.44L578.26,224.52L580,225.03" style="vector-effect: none; fill: none; stroke: rgb(239, 85, 59); stroke-opacity: 1; stroke-width: 0px; opacity: 1;"/></g><g class="points"/><g class="text"/></g><g class="trace scatter trace497b33" style="stroke-miterlimit: 2; opacity: 1;"><g class="fills"/><g class="errorbars"/><g class="lines"><path class="js-line" d="M0,188.54L2.47,187.68L2.61,187.59L6.09,184.14L6.24,183.96L20.45,164.5L20.6,164.28L29.88,149.05L30.02,148.79L44.38,122.4L44.53,122.12L55.98,100.89L56.13,100.65L64.11,87.92L64.25,87.69L74.4,72.7L74.55,72.55L78.61,69.27L78.75,69.18L88.33,62.62L88.47,62.5L94.13,58.88L94.27,58.83L98.04,58.53L98.19,58.55L102.69,59.9L102.83,59.97L135.46,72.97L135.61,73.02L142.86,76.54L143.01,76.63L149.82,81.89L149.97,82.03L163.31,94.62L163.46,94.71L167.95,96.76L168.1,96.8L174.48,98L174.62,98.03L188.11,100.73L188.26,100.71L192.32,99.11L192.46,99.02L199.28,94.06L199.42,93.96L210.01,85.74L210.16,85.57L220.6,72.76L220.75,72.67L223.65,71.83L223.79,71.83L227.71,72.56L227.85,72.6L233.94,73.47L234.09,73.47L238.87,74.18L239.02,74.24L242.36,76.46L242.5,76.59L248.45,82.72L248.59,82.87L260.2,94.21L260.34,94.3L263.82,95.78L263.97,95.81L267.59,95.7L267.74,95.67L276.44,92.81L276.58,92.76L281.52,90.7L281.66,90.61L286.16,87.04L286.3,86.9L296.6,78.06L296.74,77.98L304,74.92L304.14,74.87L316.32,72.34L316.47,72.33L323,72.39L323.14,72.42L327.93,74.14L328.07,74.21L334.02,76.18L334.16,76.18L337.21,75.67L337.35,75.61L340.55,73.76L340.69,73.64L344.46,69.97L344.61,69.8L350.84,61.56L350.99,61.35L358.53,49.28L358.67,49.01L369.7,29.27L369.84,29.14L372.45,27.96L372.6,27.96L375.06,28.78L375.21,28.87L379.41,32.44L379.56,32.56L385.07,36.68L385.22,36.79L388.99,40.69L389.13,40.89L393.19,47.85L393.34,48.13L400.74,61.74L400.88,61.97L408.42,72.18L408.57,72.33L412.19,75.38L412.34,75.47L417.56,77.61L417.7,77.65L427.71,81.09L427.86,81.14L432.64,81.89L432.79,81.89L437.28,80.84L437.43,80.78L446.28,78.19L446.42,78.17L464.84,76.44L464.99,76.45L470.64,77.59L470.79,77.63L476.88,80.51L477.02,80.6L496.17,92.53L496.31,92.66L504,100.3L504.15,100.45L518.65,116.15L518.79,116.39L522.57,123.81L522.71,124.14L548.67,180.88L548.82,181.14L555.78,192.06L555.92,192.26L576.37,219.63L576.52,219.78L579.42,221.67L579.56,221.7L580,221.74" style="vector-effect: none; fill: none; stroke: rgb(75, 0, 130); stroke-opacity: 1; stroke-width: 3px; opacity: 1;"/></g><g class="points"/><g class="text"/></g><g class="trace scatter trace16b5f9" style="stroke-miterlimit: 2;"><g class="fills"><g><path class="js-fill" d="M0,274.49L4.21,273.64L4.35,273.59L15.52,268.34L15.66,268.26L26.98,262.15L27.12,262.07L38.72,257.33L38.87,257.3L48.44,255.42L48.59,255.4L64.25,253.46L64.4,253.45L82.53,252.85L82.67,252.81L86.59,251.02L86.73,250.93L92.97,246.33L93.11,246.22L102.25,238.67L102.4,238.52L109.65,229.15L109.79,228.94L123.86,209L124.01,208.88L127.34,207.18L127.49,207.15L130.82,207.18L130.97,207.2L150.84,212.05L150.98,212.12L157.22,215.85L157.36,215.94L162.59,218.25L162.73,218.28L166.36,218.25L166.5,218.22L175.49,216.63L175.64,216.67L178.68,218.37L178.83,218.5L182.17,222.56L182.31,222.79L186.08,230.21L186.23,230.54L196.67,254.06L196.81,254.31L203.2,263.23L203.34,263.39L208.27,267.61L208.42,267.7L212.62,269.29L212.77,269.32L219,269.65L219.15,269.65L231.04,269.03L231.19,268.99L236.55,266.76L236.7,266.68L247.29,259.8L247.43,259.69L255.41,252.92L255.55,252.79L276.15,235.65L276.29,235.58L292.54,227.68L292.68,227.6L299.35,224.87L299.5,224.84L304.72,224.51L304.87,224.52L311.1,223.8L311.25,223.76L317.63,221.24L317.77,221.17L324.88,218.6L325.03,218.59L328.51,219.32L328.65,219.39L332.13,221.8L332.28,221.93L351.86,239.28L352,239.39L366.94,248.55L367.09,248.64L381.88,256.6L382.03,256.63L386.67,257.01L386.81,257L392.9,256.04L393.05,256L398.56,253.92L398.7,253.84L407.55,248.28L407.7,248.19L426.55,235.36L426.7,235.31L439.46,230.51L439.6,230.43L449.03,226.21L449.18,226.17L454.83,225.74L454.98,225.74L460.78,224.99L460.93,224.95L468.18,221.92L468.32,221.85L474.41,219.82L474.56,219.81L477.89,220.27L478.04,220.33L481.38,222.36L481.52,222.48L486.6,227.47L486.74,227.62L496.75,237.21L496.89,237.34L505.45,244.32L505.6,244.42L514.01,248.94L514.15,249L526.05,255.26L526.19,255.36L546.64,266.86L546.79,266.93L559.98,274.34L560.13,274.44L577.24,284.12L577.39,284.16L580,284.53L580,282.86L577.1,282.39L576.95,282.34L566.95,276.76L566.8,276.66L531.12,254.7L530.98,254.61L520.39,247.39L520.25,247.31L506.9,240.14L506.76,240.04L493.99,228.71L493.85,228.56L486.02,220.22L485.87,220.05L480.8,214.74L480.65,214.62L477.46,212.75L477.31,212.7L473.98,212.45L473.83,212.47L467.45,215.05L467.31,215.12L461.65,217.78L461.51,217.84L456.43,218.9L456.28,218.91L450.34,219.18L450.19,219.2L436.41,226.09L436.27,226.17L431.05,228.35L430.9,228.4L425.54,230.25L425.39,230.32L419.59,234.36L419.44,234.48L402.77,247.22L402.62,247.31L397.25,250.64L397.11,250.71L390.29,252.8L390.15,252.82L384.78,253.21L384.64,253.2L380.58,252.27L380.43,252.22L356.35,237.06L356.21,236.96L331.7,214.3L331.55,214.16L328.36,211.9L328.22,211.83L325.03,211.19L324.88,211.2L316.47,214.69L316.32,214.76L311.1,216.91L310.96,216.96L303.85,217.68L303.71,217.68L299.35,218.1L299.21,218.14L293.84,220.49L293.7,220.57L275.42,230.5L275.28,230.59L265.71,239.11L265.56,239.25L252.65,251.43L252.51,251.57L245.98,257.27L245.84,257.39L236.55,263.83L236.41,263.91L230.9,266.37L230.75,266.41L218.42,267.05L218.28,267.05L213.2,266.78L213.06,266.76L209.58,265.62L209.43,265.55L205.52,262.66L205.37,262.52L200.59,256.64L200.44,256.42L195.51,247.85L195.36,247.55L190.29,235.25L190.14,234.86L184.92,221.2L184.78,220.87L181.73,214.87L181.59,214.63L178.25,210.59L178.1,210.47L175.2,208.97L175.06,208.94L167.37,210.54L167.23,210.58L163.46,210.94L163.31,210.93L152.29,204.8L152.14,204.71L133.14,199.33L133,199.28L129.37,198.56L129.23,198.55L126.18,199.19L126.04,199.26L122.85,201.83L122.7,201.99L112.55,217.96L112.4,218.2L104.72,229.86L104.57,230.05L99.93,235.38L99.78,235.53L87.02,245.78L86.88,245.88L82.38,248.15L82.24,248.19L65.56,248.77L65.41,248.77L50.04,250.7L49.89,250.73L37.42,253.41L37.27,253.46L24.51,259.58L24.37,259.67L12.91,266.22L12.76,266.3L4.64,270.35L4.5,270.41L0,271.45Z" style="fill: rgb(0, 0, 255); fill-opacity: 0.15; stroke-width: 0;"/></g></g><g class="errorbars"/><g class="lines"><path class="js-line" d="M0,271.45L4.5,270.41L4.64,270.35L12.76,266.3L12.91,266.22L24.37,259.67L24.51,259.58L37.27,253.46L37.42,253.41L49.89,250.73L50.04,250.7L65.41,248.77L65.56,248.77L82.24,248.19L82.38,248.15L86.88,245.88L87.02,245.78L99.78,235.53L99.93,235.38L104.57,230.05L104.72,229.86L112.4,218.2L112.55,217.96L122.7,201.99L122.85,201.83L126.04,199.26L126.18,199.19L129.23,198.55L129.37,198.56L133,199.28L133.14,199.33L152.14,204.71L152.29,204.8L163.31,210.93L163.46,210.94L167.23,210.58L167.37,210.54L175.06,208.94L175.2,208.97L178.1,210.47L178.25,210.59L181.59,214.63L181.73,214.87L184.78,220.87L184.92,221.2L190.14,234.86L190.29,235.25L195.36,247.55L195.51,247.85L200.44,256.42L200.59,256.64L205.37,262.52L205.52,262.66L209.43,265.55L209.58,265.62L213.06,266.76L213.2,266.78L218.28,267.05L218.42,267.05L230.75,266.41L230.9,266.37L236.41,263.91L236.55,263.83L245.84,257.39L245.98,257.27L252.51,251.57L252.65,251.43L265.56,239.25L265.71,239.11L275.28,230.59L275.42,230.5L293.7,220.57L293.84,220.49L299.21,218.14L299.35,218.1L303.71,217.68L303.85,217.68L310.96,216.96L311.1,216.91L316.32,214.76L316.47,214.69L324.88,211.2L325.03,211.19L328.22,211.83L328.36,211.9L331.55,214.16L331.7,214.3L356.21,236.96L356.35,237.06L380.43,252.22L380.58,252.27L384.64,253.2L384.78,253.21L390.15,252.82L390.29,252.8L397.11,250.71L397.25,250.64L402.62,247.31L402.77,247.22L419.44,234.48L419.59,234.36L425.39,230.32L425.54,230.25L430.9,228.4L431.05,228.35L436.27,226.17L436.41,226.09L450.19,219.2L450.34,219.18L456.28,218.91L456.43,218.9L461.51,217.84L461.65,217.78L467.31,215.12L467.45,215.05L473.83,212.47L473.98,212.45L477.31,212.7L477.46,212.75L480.65,214.62L480.8,214.74L485.87,220.05L486.02,220.22L493.85,228.56L493.99,228.71L506.76,240.04L506.9,240.14L520.25,247.31L520.39,247.39L530.98,254.61L531.12,254.7L566.8,276.66L566.95,276.76L576.95,282.34L577.1,282.39L580,282.86" style="vector-effect: none; fill: none; stroke: rgb(171, 99, 250); stroke-opacity: 1; stroke-width: 0px; opacity: 1;"/></g><g class="points"/><g class="text"/></g><g class="trace scatter trace42d3c0" style="stroke-miterlimit: 2;"><g class="fills"/><g class="errorbars"/><g class="lines"><path class="js-line" d="M0,274.49L4.21,273.64L4.35,273.59L15.52,268.34L15.66,268.26L26.98,262.15L27.12,262.07L38.72,257.33L38.87,257.3L48.44,255.42L48.59,255.4L64.25,253.46L64.4,253.45L82.53,252.85L82.67,252.81L86.59,251.02L86.73,250.93L92.97,246.33L93.11,246.22L102.25,238.67L102.4,238.52L109.65,229.15L109.79,228.94L123.86,209L124.01,208.88L127.34,207.18L127.49,207.15L130.82,207.18L130.97,207.2L150.84,212.05L150.98,212.12L157.22,215.85L157.36,215.94L162.59,218.25L162.73,218.28L166.36,218.25L166.5,218.22L175.49,216.63L175.64,216.67L178.68,218.37L178.83,218.5L182.17,222.56L182.31,222.79L186.08,230.21L186.23,230.54L196.67,254.06L196.81,254.31L203.2,263.23L203.34,263.39L208.27,267.61L208.42,267.7L212.62,269.29L212.77,269.32L219,269.65L219.15,269.65L231.04,269.03L231.19,268.99L236.55,266.76L236.7,266.68L247.29,259.8L247.43,259.69L255.41,252.92L255.55,252.79L276.15,235.65L276.29,235.58L292.54,227.68L292.68,227.6L299.35,224.87L299.5,224.84L304.72,224.51L304.87,224.52L311.1,223.8L311.25,223.76L317.63,221.24L317.77,221.17L324.88,218.6L325.03,218.59L328.51,219.32L328.65,219.39L332.13,221.8L332.28,221.93L351.86,239.28L352,239.39L366.94,248.55L367.09,248.64L381.88,256.6L382.03,256.63L386.67,257.01L386.81,257L392.9,256.04L393.05,256L398.56,253.92L398.7,253.84L407.55,248.28L407.7,248.19L426.55,235.36L426.7,235.31L439.46,230.51L439.6,230.43L449.03,226.21L449.18,226.17L454.83,225.74L454.98,225.74L460.78,224.99L460.93,224.95L468.18,221.92L468.32,221.85L474.41,219.82L474.56,219.81L477.89,220.27L478.04,220.33L481.38,222.36L481.52,222.48L486.6,227.47L486.74,227.62L496.75,237.21L496.89,237.34L505.45,244.32L505.6,244.42L514.01,248.94L514.15,249L526.05,255.26L526.19,255.36L546.64,266.86L546.79,266.93L559.98,274.34L560.13,274.44L577.24,284.12L577.39,284.16L580,284.53" style="vector-effect: none; fill: none; stroke: rgb(255, 161, 90); stroke-opacity: 1; stroke-width: 0px; opacity: 1;"/></g><g class="points"/><g class="text"/></g><g class="trace scatter trace4fa6cd" style="stroke-miterlimit: 2; opacity: 1;"><g class="fills"/><g class="errorbars"/><g class="lines"><path class="js-line" d="M0,272.97L4.21,272.08L4.35,272.03L13.92,267.41L14.07,267.34L34.37,256.58L34.52,256.52L43.95,254.03L44.09,254L67.73,251.1L67.88,251.1L82.38,250.52L82.53,250.48L86.88,248.36L87.02,248.26L96.74,240.89L96.88,240.78L101.82,236.27L101.96,236.11L107.47,229.14L107.62,228.93L116.46,215.01L116.61,214.77L122.99,205.73L123.14,205.58L126.47,203.25L126.62,203.19L129.95,202.83L130.1,202.84L135.9,204.38L136.04,204.42L152.43,208.87L152.58,208.95L162.44,214.49L162.59,214.52L166.21,214.55L166.36,214.52L175.49,212.84L175.64,212.88L178.68,214.68L178.83,214.81L181.88,218.61L182.02,218.84L185.5,225.74L185.65,226.08L197.39,253.37L197.54,253.62L202.91,261.34L203.05,261.51L208.13,266.15L208.27,266.25L213.2,268.09L213.35,268.11L220.75,268.38L220.89,268.38L228.72,268.18L228.87,268.15L233.65,266.76L233.8,266.7L241.78,261.94L241.92,261.84L250.91,254.95L251.06,254.82L275.28,233.35L275.42,233.26L283.69,229.69L283.84,229.62L299.06,221.56L299.21,221.52L304.14,221.09L304.29,221.1L311.1,220.36L311.25,220.32L318.21,217.38L318.35,217.31L324.3,214.96L324.45,214.94L327.78,215.33L327.93,215.39L331.55,217.74L331.7,217.87L338.95,225.07L339.09,225.21L353.89,238.04L354.03,238.14L376.51,252.26L376.66,252.35L381.3,254.49L381.45,254.53L386.38,255.13L386.52,255.13L393.77,253.91L393.92,253.86L398.85,251.77L398.99,251.68L406.25,246.98L406.39,246.88L417.56,238.56L417.7,238.44L426.7,232.52L426.84,232.47L438.15,228.14L438.3,228.06L448.74,222.92L448.89,222.88L453.67,222.33L453.82,222.33L460.64,221.59L460.78,221.54L465.86,219.42L466,219.35L474.56,216.09L474.7,216.08L478.33,216.78L478.47,216.84L481.81,219.18L481.96,219.32L490.37,228.15L490.51,228.29L504,240.75L504.15,240.85L509.95,244.46L510.09,244.54L527.5,254.24L527.64,254.33L541.86,262.92L542,263L554.04,269.43L554.18,269.52L562.16,274.62L562.31,274.72L572.89,281.38L573.04,281.46L577.97,283.46L578.11,283.49L580,283.69" style="vector-effect: none; fill: none; stroke: rgb(0, 0, 255); stroke-opacity: 1; stroke-width: 3px; opacity: 1;"/></g><g class="points"/><g class="text"/></g><g class="trace scatter trace3dbd22" style="stroke-miterlimit: 2;"><g class="fills"><g><path class="js-fill" d="M0,298.51L6.67,297.76L6.82,297.73L21.03,295.55L21.18,295.54L35.1,295.33L35.24,295.33L55.98,296.08L56.13,296.09L71.79,295.89L71.94,295.88L113.42,293.88L113.56,293.83L117.77,291.68L117.91,291.57L121.69,287.92L121.83,287.74L125.75,281.87L125.89,281.62L134.74,267.73L134.88,267.6L138.8,265.13L138.94,265.07L149.24,261.75L149.39,261.74L154.61,262.13L154.75,262.15L161.28,264.2L161.43,264.28L165.49,267.74L165.63,267.91L170.13,273.78L170.27,273.99L178.1,283.35L178.25,283.47L182.31,285.99L182.46,286.04L186.08,286.8L186.23,286.81L191.3,286.26L191.45,286.23L203.34,284.85L203.49,284.85L211.9,285.87L212.04,285.9L222.78,289.53L222.92,289.59L243.08,295.97L243.23,295.99L252.36,296.52L252.51,296.51L260.49,295.76L260.63,295.73L266.29,293.5L266.43,293.41L270.49,290.11L270.64,289.96L274.84,284.4L274.99,284.17L286.3,266.03L286.45,265.89L290.51,263.12L290.65,263.04L300.08,258.86L300.23,258.82L310.23,257.13L310.38,257.16L313.57,258.54L313.71,258.64L317.19,261.86L317.34,262.02L326.33,271.23L326.48,271.33L330.1,272.84L330.25,272.86L334.45,272.86L334.6,272.83L348.38,271.14L348.52,271.15L355.05,272.76L355.19,272.82L361.43,276.12L361.58,276.21L389.71,293.93L389.86,293.99L395.08,295.79L395.22,295.83L402.77,297.09L402.91,297.1L410.02,296.86L410.16,296.83L414.95,295.11L415.09,295.03L419.44,291.6L419.59,291.45L424.09,285.23L424.23,284.98L428.58,276.32L428.73,276.01L434.96,264L435.11,263.79L438.73,259.88L438.88,259.77L443.81,256.49L443.96,256.41L449.03,254.04L449.18,254L455.99,252.89L456.14,252.88L460.35,253.46L460.49,253.52L463.39,255.48L463.54,255.61L467.89,261L468.03,261.21L476.3,271.7L476.44,271.82L480.36,273.79L480.51,273.83L484.57,273.77L484.71,273.75L498.92,271.12L499.07,271.13L504.44,272.05L504.58,272.1L509.22,274.08L509.37,274.16L518.94,280.46L519.08,280.57L539.53,293.8L539.68,293.86L545.77,296.08L545.92,296.12L554.76,297.81L554.91,297.82L575.94,299.97L576.08,299.98L580,300.15L580,299.71L558.1,297.65L557.95,297.64L548.24,296.06L548.09,296.02L539.53,292.82L539.39,292.74L515.31,275.38L515.17,275.27L508.93,271.1L508.79,271.02L503.71,268.89L503.57,268.85L498.2,268.11L498.05,268.11L484.86,270.99L484.71,271.02L480.65,271.18L480.51,271.15L477.02,269.48L476.88,269.37L466,254.57L465.86,254.37L462.38,250.47L462.23,250.36L459.33,248.84L459.18,248.8L454.83,248.68L454.69,248.7L448.45,250.01L448.31,250.06L440.77,254.55L440.62,254.66L436.41,258.59L436.27,258.77L426.84,278.04L426.7,278.36L422.49,286.46L422.35,286.68L418.57,291.49L418.43,291.63L414.8,294.41L414.66,294.5L410.02,296.22L409.87,296.25L401.75,296.42L401.61,296.4L394.21,294.88L394.06,294.83L387.54,291.96L387.39,291.87L369.84,279.89L369.7,279.78L359.11,272.09L358.96,272L353.02,269.16L352.87,269.12L346.78,267.99L346.64,267.98L335.03,269.77L334.89,269.79L330.97,270.02L330.83,270L327.06,268.66L326.91,268.57L320.82,262.64L320.68,262.46L315.45,256.17L315.31,256.02L311.83,253.46L311.68,253.4L308.49,252.88L308.35,252.89L299.35,255.12L299.21,255.17L290.07,259.79L289.93,259.88L286.45,262.56L286.3,262.7L274.7,282.99L274.55,283.24L270.78,288.57L270.64,288.74L267.01,292.03L266.87,292.13L262.37,294.38L262.23,294.43L256.42,295.54L256.28,295.56L247,295.67L246.85,295.66L239.89,294.58L239.74,294.55L223.94,288.58L223.79,288.51L212.77,284.32L212.62,284.28L205.66,283.07L205.52,283.06L188.98,285.06L188.84,285.08L184.49,285.09L184.34,285.06L180.72,283.62L180.57,283.54L176.8,280.37L176.65,280.22L170.71,272.22L170.56,271.99L165.63,264.92L165.49,264.75L161.72,261.14L161.57,261.04L156.78,259.04L156.64,259.01L151.13,258.09L150.98,258.08L146.78,258.65L146.63,258.69L138.22,262.07L138.07,262.14L134.3,265.1L134.16,265.27L127.63,276.36L127.49,276.65L122.85,284.89L122.7,285.11L118.64,289.84L118.49,289.96L114,292.68L113.85,292.74L108.34,293.83L108.2,293.84L89.63,294.59L89.49,294.6L66.57,295.35L66.43,295.36L51.63,295.12L51.49,295.11L35.24,294.36L35.1,294.36L22.92,294.45L22.77,294.46L6.38,297.08L6.24,297.11L0,297.86Z" style="fill: rgb(148, 0, 211); fill-opacity: 0.15; stroke-width: 0;"/></g></g><g class="errorbars"/><g class="lines"><path class="js-line" d="M0,297.86L6.24,297.11L6.38,297.08L22.77,294.46L22.92,294.45L35.1,294.36L35.24,294.36L51.49,295.11L51.63,295.12L66.43,295.36L66.57,295.35L89.49,294.6L89.63,294.59L108.2,293.84L108.34,293.83L113.85,292.74L114,292.68L118.49,289.96L118.64,289.84L122.7,285.11L122.85,284.89L127.49,276.65L127.63,276.36L134.16,265.27L134.3,265.1L138.07,262.14L138.22,262.07L146.63,258.69L146.78,258.65L150.98,258.08L151.13,258.09L156.64,259.01L156.78,259.04L161.57,261.04L161.72,261.14L165.49,264.75L165.63,264.92L170.56,271.99L170.71,272.22L176.65,280.22L176.8,280.37L180.57,283.54L180.72,283.62L184.34,285.06L184.49,285.09L188.84,285.08L188.98,285.06L205.52,283.06L205.66,283.07L212.62,284.28L212.77,284.32L223.79,288.51L223.94,288.58L239.74,294.55L239.89,294.58L246.85,295.66L247,295.67L256.28,295.56L256.42,295.54L262.23,294.43L262.37,294.38L266.87,292.13L267.01,292.03L270.64,288.74L270.78,288.57L274.55,283.24L274.7,282.99L286.3,262.7L286.45,262.56L289.93,259.88L290.07,259.79L299.21,255.17L299.35,255.12L308.35,252.89L308.49,252.88L311.68,253.4L311.83,253.46L315.31,256.02L315.45,256.17L320.68,262.46L320.82,262.64L326.91,268.57L327.06,268.66L330.83,270L330.97,270.02L334.89,269.79L335.03,269.77L346.64,267.98L346.78,267.99L352.87,269.12L353.02,269.16L358.96,272L359.11,272.09L369.7,279.78L369.84,279.89L387.39,291.87L387.54,291.96L394.06,294.83L394.21,294.88L401.61,296.4L401.75,296.42L409.87,296.25L410.02,296.22L414.66,294.5L414.8,294.41L418.43,291.63L418.57,291.49L422.35,286.68L422.49,286.46L426.7,278.36L426.84,278.04L436.27,258.77L436.41,258.59L440.62,254.66L440.77,254.55L448.31,250.06L448.45,250.01L454.69,248.7L454.83,248.68L459.18,248.8L459.33,248.84L462.23,250.36L462.38,250.47L465.86,254.37L466,254.57L476.88,269.37L477.02,269.48L480.51,271.15L480.65,271.18L484.71,271.02L484.86,270.99L498.05,268.11L498.2,268.11L503.57,268.85L503.71,268.89L508.79,271.02L508.93,271.1L515.17,275.27L515.31,275.38L539.39,292.74L539.53,292.82L548.09,296.02L548.24,296.06L557.95,297.64L558.1,297.65L580,299.71" style="vector-effect: none; fill: none; stroke: rgb(255, 102, 146); stroke-opacity: 1; stroke-width: 0px; opacity: 1;"/></g><g class="points"/><g class="text"/></g><g class="trace scatter trace0e798c" style="stroke-miterlimit: 2;"><g class="fills"/><g class="errorbars"/><g class="lines"><path class="js-line" d="M0,298.51L6.67,297.76L6.82,297.73L21.03,295.55L21.18,295.54L35.1,295.33L35.24,295.33L55.98,296.08L56.13,296.09L71.79,295.89L71.94,295.88L113.42,293.88L113.56,293.83L117.77,291.68L117.91,291.57L121.69,287.92L121.83,287.74L125.75,281.87L125.89,281.62L134.74,267.73L134.88,267.6L138.8,265.13L138.94,265.07L149.24,261.75L149.39,261.74L154.61,262.13L154.75,262.15L161.28,264.2L161.43,264.28L165.49,267.74L165.63,267.91L170.13,273.78L170.27,273.99L178.1,283.35L178.25,283.47L182.31,285.99L182.46,286.04L186.08,286.8L186.23,286.81L191.3,286.26L191.45,286.23L203.34,284.85L203.49,284.85L211.9,285.87L212.04,285.9L222.78,289.53L222.92,289.59L243.08,295.97L243.23,295.99L252.36,296.52L252.51,296.51L260.49,295.76L260.63,295.73L266.29,293.5L266.43,293.41L270.49,290.11L270.64,289.96L274.84,284.4L274.99,284.17L286.3,266.03L286.45,265.89L290.51,263.12L290.65,263.04L300.08,258.86L300.23,258.82L310.23,257.13L310.38,257.16L313.57,258.54L313.71,258.64L317.19,261.86L317.34,262.02L326.33,271.23L326.48,271.33L330.1,272.84L330.25,272.86L334.45,272.86L334.6,272.83L348.38,271.14L348.52,271.15L355.05,272.76L355.19,272.82L361.43,276.12L361.58,276.21L389.71,293.93L389.86,293.99L395.08,295.79L395.22,295.83L402.77,297.09L402.91,297.1L410.02,296.86L410.16,296.83L414.95,295.11L415.09,295.03L419.44,291.6L419.59,291.45L424.09,285.23L424.23,284.98L428.58,276.32L428.73,276.01L434.96,264L435.11,263.79L438.73,259.88L438.88,259.77L443.81,256.49L443.96,256.41L449.03,254.04L449.18,254L455.99,252.89L456.14,252.88L460.35,253.46L460.49,253.52L463.39,255.48L463.54,255.61L467.89,261L468.03,261.21L476.3,271.7L476.44,271.82L480.36,273.79L480.51,273.83L484.57,273.77L484.71,273.75L498.92,271.12L499.07,271.13L504.44,272.05L504.58,272.1L509.22,274.08L509.37,274.16L518.94,280.46L519.08,280.57L539.53,293.8L539.68,293.86L545.77,296.08L545.92,296.12L554.76,297.81L554.91,297.82L575.94,299.97L576.08,299.98L580,300.15" style="vector-effect: none; fill: none; stroke: rgb(182, 232, 128); stroke-opacity: 1; stroke-width: 0px; opacity: 1;"/></g><g class="points"/><g class="text"/></g><g class="trace scatter trace2aad1f" style="stroke-miterlimit: 2; opacity: 1;"><g class="fills"/><g class="errorbars"/><g class="lines"><path class="js-line" d="M0,298.18L6.38,297.44L6.53,297.41L24.51,294.87L24.66,294.86L41.77,295.02L41.92,295.02L71.65,295.51L71.79,295.51L92.39,294.88L92.53,294.88L114,293.18L114.14,293.12L117.62,291.22L117.77,291.11L121.25,287.76L121.4,287.58L126.04,280.41L126.18,280.14L134.74,266.18L134.88,266.04L138.65,263.53L138.8,263.46L148.66,260.01L148.81,259.99L153.74,260.19L153.88,260.22L159.68,261.71L159.83,261.78L163.46,264.15L163.6,264.28L167.08,268.24L167.23,268.43L177.67,282.11L177.81,282.24L182.31,285.21L182.46,285.27L186.08,286.03L186.23,286.04L191.88,285.31L192.03,285.28L202.04,283.94L202.18,283.94L210.59,284.67L210.74,284.7L218.13,286.99L218.28,287.05L241.63,295.35L241.78,295.38L250.62,296.16L250.77,296.16L260.05,295.43L260.2,295.4L265.27,293.59L265.42,293.51L269.91,290.11L270.06,289.96L274.41,284.28L274.55,284.05L280.21,273.6L280.36,273.32L285.14,265.64L285.29,265.46L289.2,262.09L289.35,262L296.89,258.02L297.03,257.96L304.87,255.62L305.01,255.58L310.67,255.14L310.81,255.18L313.86,256.73L314,256.84L318.06,261L318.21,261.17L325.03,268.73L325.17,268.85L329.67,271.26L329.81,271.29L333.44,271.5L333.58,271.48L338.8,270.39L338.95,270.35L346.64,269.5L346.78,269.51L351.71,270.24L351.86,270.28L357.08,272.29L357.22,272.36L364.91,277.3L365.06,277.4L377.09,285.91L377.24,286L387.39,292.36L387.54,292.43L393.48,294.99L393.63,295.04L401.32,296.66L401.46,296.68L410.02,296.54L410.16,296.51L414.66,294.88L414.8,294.8L418.57,291.97L418.72,291.83L422.64,286.89L422.78,286.67L426.7,279.33L426.84,279.02L436.27,260.53L436.41,260.35L440.77,256.48L440.91,256.38L448.74,252.02L448.89,251.97L455.12,250.81L455.27,250.79L459.91,251.16L460.06,251.21L463.39,253.44L463.54,253.58L467.45,258.54L467.6,258.76L475.86,269.91L476.01,270.04L479.34,272.15L479.49,272.2L482.97,272.64L483.12,272.63L488.34,271.35L488.48,271.3L497.33,269.6L497.47,269.6L503.57,270.33L503.71,270.37L508.93,272.51L509.08,272.59L517.63,278.33L517.78,278.44L533.73,290.03L533.88,290.13L541.71,294.29L541.86,294.35L548.67,296.48L548.82,296.51L557.52,297.86L557.66,297.87L578.55,299.9L578.69,299.91L580,299.93" style="vector-effect: none; fill: none; stroke: rgb(148, 0, 211); stroke-opacity: 1; stroke-width: 3px; opacity: 1;"/></g><g class="points"/><g class="text"/></g><g class="trace scatter trace46c721" style="stroke-miterlimit: 2;"><g class="fills"><g><path class="js-fill" d="M0,303.61L131.98,302.88L132.13,302.84L136.04,300.99L136.19,300.89L142.57,294.95L142.72,294.81L147.21,291.61L147.36,291.54L150.98,290.75L151.13,290.75L154.61,291.73L154.75,291.81L158.23,294.51L158.38,294.64L164.18,299.42L164.33,299.5L168.82,300.92L168.97,300.94L177.81,301.41L177.96,301.41L192.32,301.16L192.46,301.15L220.02,301.75L220.17,301.77L240.62,303.84L240.76,303.85L280.79,303.11L280.94,303.08L285.14,301.61L285.29,301.53L292.54,296.54L292.68,296.44L297.76,294.23L297.9,294.2L302.26,294.07L302.4,294.1L306.46,295.65L306.61,295.73L315.45,300.07L315.6,300.09L321.4,300.36L321.55,300.36L352.73,299.99L352.87,299.99L373.18,301.89L373.32,301.91L385.36,303.57L385.51,303.58L399.57,303.8L399.72,303.8L432.5,302.58L432.64,302.53L437.14,299.98L437.28,299.87L446.71,293.55L446.86,293.5L451.06,292.96L451.21,292.98L454.98,294.1L455.12,294.18L459.47,297.01L459.62,297.12L464.55,299.72L464.7,299.77L469.92,300.47L470.06,300.47L479.63,300.36L479.78,300.36L509.95,299.92L510.09,299.93L520.25,301.34L520.39,301.37L535.04,303.55L535.18,303.56L549.98,303.81L550.12,303.81L571.59,303.81L571.73,303.82L580,304L580,303.96L571.88,303.77L571.73,303.77L550.27,303.76L550.12,303.76L536.34,303.59L536.2,303.58L518.94,300.77L518.79,300.74L510.09,299.42L509.95,299.41L482.54,299.85L482.39,299.86L469.34,300.16L469.19,300.15L464.55,299.36L464.41,299.31L459.62,296.48L459.47,296.37L454.54,292.91L454.4,292.84L450.48,291.84L450.34,291.84L446.13,292.74L445.99,292.8L439.31,297.67L439.17,297.8L434.67,301.34L434.53,301.43L430.18,303.04L430.03,303.07L392.76,303.81L392.61,303.81L368.1,300.79L367.96,300.76L353.02,299.51L352.87,299.51L321.55,300L321.4,300.01L315.89,299.81L315.74,299.78L305.45,294.27L305.3,294.19L301.24,292.95L301.1,292.94L297.18,293.41L297.03,293.45L286.45,300.53L286.3,300.63L282.1,302.69L281.95,302.73L263.82,303.48L263.68,303.48L249.17,303.7L249.03,303.7L238.58,303.75L238.44,303.75L226.84,302.49L226.69,302.47L213.49,300.85L213.35,300.84L180.72,301.22L180.57,301.22L170.13,300.88L169.98,300.86L165.78,299.87L165.63,299.81L157.07,292.48L156.93,292.35L153.88,290.16L153.74,290.09L150.55,289.45L150.4,289.46L146.92,290.52L146.78,290.6L138.65,298.28L138.51,298.43L135.17,301.27L135.03,301.36L131.69,302.74L131.55,302.77L0,303.51Z" style="fill: rgb(207, 184, 124); fill-opacity: 0.15; stroke-width: 0;"/></g></g><g class="errorbars"/><g class="lines"><path class="js-line" d="M0,303.51L131.55,302.77L131.69,302.74L135.03,301.36L135.17,301.27L138.51,298.43L138.65,298.28L146.78,290.6L146.92,290.52L150.4,289.46L150.55,289.45L153.74,290.09L153.88,290.16L156.93,292.35L157.07,292.48L165.63,299.81L165.78,299.87L169.98,300.86L170.13,300.88L180.57,301.22L180.72,301.22L213.35,300.84L213.49,300.85L226.69,302.47L226.84,302.49L238.44,303.75L238.58,303.75L249.03,303.7L249.17,303.7L263.68,303.48L263.82,303.48L281.95,302.73L282.1,302.69L286.3,300.63L286.45,300.53L297.03,293.45L297.18,293.41L301.1,292.94L301.24,292.95L305.3,294.19L305.45,294.27L315.74,299.78L315.89,299.81L321.4,300.01L321.55,300L352.87,299.51L353.02,299.51L367.96,300.76L368.1,300.79L392.61,303.81L392.76,303.81L430.03,303.07L430.18,303.04L434.53,301.43L434.67,301.34L439.17,297.8L439.31,297.67L445.99,292.8L446.13,292.74L450.34,291.84L450.48,291.84L454.4,292.84L454.54,292.91L459.47,296.37L459.62,296.48L464.41,299.31L464.55,299.36L469.19,300.15L469.34,300.16L482.39,299.86L482.54,299.85L509.95,299.41L510.09,299.42L518.79,300.74L518.94,300.77L536.2,303.58L536.34,303.59L550.12,303.76L550.27,303.76L571.73,303.77L571.88,303.77L580,303.96" style="vector-effect: none; fill: none; stroke: rgb(254, 203, 82); stroke-opacity: 1; stroke-width: 0px; opacity: 1;"/></g><g class="points"/><g class="text"/></g><g class="trace scatter traceb2c832" style="stroke-miterlimit: 2;"><g class="fills"/><g class="errorbars"/><g class="lines"><path class="js-line" d="M0,303.61L131.98,302.88L132.13,302.84L136.04,300.99L136.19,300.89L142.57,294.95L142.72,294.81L147.21,291.61L147.36,291.54L150.98,290.75L151.13,290.75L154.61,291.73L154.75,291.81L158.23,294.51L158.38,294.64L164.18,299.42L164.33,299.5L168.82,300.92L168.97,300.94L177.81,301.41L177.96,301.41L192.32,301.16L192.46,301.15L220.02,301.75L220.17,301.77L240.62,303.84L240.76,303.85L280.79,303.11L280.94,303.08L285.14,301.61L285.29,301.53L292.54,296.54L292.68,296.44L297.76,294.23L297.9,294.2L302.26,294.07L302.4,294.1L306.46,295.65L306.61,295.73L315.45,300.07L315.6,300.09L321.4,300.36L321.55,300.36L352.73,299.99L352.87,299.99L373.18,301.89L373.32,301.91L385.36,303.57L385.51,303.58L399.57,303.8L399.72,303.8L432.5,302.58L432.64,302.53L437.14,299.98L437.28,299.87L446.71,293.55L446.86,293.5L451.06,292.96L451.21,292.98L454.98,294.1L455.12,294.18L459.47,297.01L459.62,297.12L464.55,299.72L464.7,299.77L469.92,300.47L470.06,300.47L479.63,300.36L479.78,300.36L509.95,299.92L510.09,299.93L520.25,301.34L520.39,301.37L535.04,303.55L535.18,303.56L549.98,303.81L550.12,303.81L571.59,303.81L571.73,303.82L580,304" style="vector-effect: none; fill: none; stroke: rgb(99, 110, 250); stroke-opacity: 1; stroke-width: 0px; opacity: 1;"/></g><g class="points"/><g class="text"/></g><g class="trace scatter trace81ea09" style="stroke-miterlimit: 2; opacity: 1;"><g class="fills"/><g class="errorbars"/><g class="lines"><path class="js-line" d="M0,303.56L131.84,302.81L131.98,302.78L135.75,301.03L135.9,300.93L140.11,297.05L140.25,296.89L146.92,291.13L147.07,291.06L150.55,290.1L150.69,290.1L153.59,290.64L153.74,290.71L156.93,292.85L157.07,292.98L165.78,300.01L165.92,300.07L171.29,301.08L171.43,301.09L184.92,301.24L185.07,301.23L219.73,301.58L219.87,301.6L229.88,303.01L230.03,303.03L241.2,303.83L241.34,303.83L280.65,303.09L280.79,303.06L285.29,301.4L285.43,301.32L289.93,298.08L290.07,297.97L296.6,294.07L296.74,294.03L300.81,293.42L300.95,293.43L304.87,294.42L305.01,294.48L310.67,297.93L310.81,298.02L315.31,299.87L315.45,299.9L322.56,300.14L322.71,300.13L352.87,299.75L353.02,299.75L368.68,301.03L368.83,301.05L391.89,303.82L392.03,303.82L430.32,303.08L430.47,303.05L434.82,301.39L434.96,301.3L439.75,297.59L439.89,297.46L446.42,293.14L446.57,293.08L450.77,292.4L450.92,292.41L454.54,293.4L454.69,293.47L466.29,299.99L466.44,300.01L472.67,300.34L472.82,300.34L492.11,299.59L492.25,299.58L510.09,299.67L510.24,299.69L519.81,301.1L519.95,301.13L536.05,303.6L536.2,303.61L549.69,303.79L549.83,303.79L571.59,303.79L571.73,303.79L580,303.98" style="vector-effect: none; fill: none; stroke: rgb(207, 184, 124); stroke-opacity: 1; stroke-width: 3px; opacity: 1;"/></g><g class="points"/><g class="text"/></g></g></g></g><g class="zerolinelayer-above"/><path class="xlines-above crisp" d="M79,420.5H661M79,99.5H661" style="fill: none; stroke-width: 1px; stroke: rgb(0, 0, 0); stroke-opacity: 1;"/><path class="ylines-above crisp" d="M79.5,100V420M660.5,100V420" style="fill: none; stroke-width: 1px; stroke: rgb(0, 0, 0); stroke-opacity: 1;"/><g class="overlines-above"/><g class="xaxislayer-above"><path class="xtick ticks crisp" d="M0,421v5" transform="translate(80,0)" style="stroke: rgb(68, 68, 68); stroke-opacity: 1; stroke-width: 1px;"/><path class="xtick ticks crisp" d="M0,421v5" transform="translate(152.5,0)" style="stroke: rgb(68, 68, 68); stroke-opacity: 1; stroke-width: 1px;"/><path class="xtick ticks crisp" d="M0,421v5" transform="translate(225,0)" style="stroke: rgb(68, 68, 68); stroke-opacity: 1; stroke-width: 1px;"/><path class="xtick ticks crisp" d="M0,421v5" transform="translate(297.5,0)" style="stroke: rgb(68, 68, 68); stroke-opacity: 1; stroke-width: 1px;"/><path class="xtick ticks crisp" d="M0,421v5" transform="translate(370,0)" style="stroke: rgb(68, 68, 68); stroke-opacity: 1; stroke-width: 1px;"/><path class="xtick ticks crisp" d="M0,421v5" transform="translate(442.5,0)" style="stroke: rgb(68, 68, 68); stroke-opacity: 1; stroke-width: 1px;"/><path class="xtick ticks crisp" d="M0,421v5" transform="translate(515,0)" style="stroke: rgb(68, 68, 68); stroke-opacity: 1; stroke-width: 1px;"/><path class="xtick ticks crisp" d="M0,421v5" transform="translate(587.5,0)" style="stroke: rgb(68, 68, 68); stroke-opacity: 1; stroke-width: 1px;"/><path class="xtick ticks crisp" d="M0,421v5" transform="translate(660,0)" style="stroke: rgb(68, 68, 68); stroke-opacity: 1; stroke-width: 1px;"/><g class="xtick"><text text-anchor="middle" x="0" y="440.4" transform="translate(80,0)" style="font-family: 'Open Sans', verdana, arial, sans-serif; font-size: 12px; fill: rgb(42, 63, 95); fill-opacity: 1; white-space: pre;">−2000</text></g><g class="xtick"><text text-anchor="middle" x="0" y="440.4" style="font-family: 'Open Sans', verdana, arial, sans-serif; font-size: 12px; fill: rgb(42, 63, 95); fill-opacity: 1; white-space: pre;" transform="translate(152.5,0)">−1500</text></g><g class="xtick"><text text-anchor="middle" x="0" y="440.4" style="font-family: 'Open Sans', verdana, arial, sans-serif; font-size: 12px; fill: rgb(42, 63, 95); fill-opacity: 1; white-space: pre;" transform="translate(225,0)">−1000</text></g><g class="xtick"><text text-anchor="middle" x="0" y="440.4" style="font-family: 'Open Sans', verdana, arial, sans-serif; font-size: 12px; fill: rgb(42, 63, 95); fill-opacity: 1; white-space: pre;" transform="translate(297.5,0)">−500</text></g><g class="xtick"><text text-anchor="middle" x="0" y="440.4" style="font-family: 'Open Sans', verdana, arial, sans-serif; font-size: 12px; fill: rgb(42, 63, 95); fill-opacity: 1; white-space: pre;" transform="translate(370,0)">0</text></g><g class="xtick"><text text-anchor="middle" x="0" y="440.4" style="font-family: 'Open Sans', verdana, arial, sans-serif; font-size: 12px; fill: rgb(42, 63, 95); fill-opacity: 1; white-space: pre;" transform="translate(442.5,0)">500</text></g><g class="xtick"><text text-anchor="middle" x="0" y="440.4" style="font-family: 'Open Sans', verdana, arial, sans-serif; font-size: 12px; fill: rgb(42, 63, 95); fill-opacity: 1; white-space: pre;" transform="translate(515,0)">1000</text></g><g class="xtick"><text text-anchor="middle" x="0" y="440.4" style="font-family: 'Open Sans', verdana, arial, sans-serif; font-size: 12px; fill: rgb(42, 63, 95); fill-opacity: 1; white-space: pre;" transform="translate(587.5,0)">1500</text></g><g class="xtick"><text text-anchor="middle" x="0" y="440.4" style="font-family: 'Open Sans', verdana, arial, sans-serif; font-size: 12px; fill: rgb(42, 63, 95); fill-opacity: 1; white-space: pre;" transform="translate(660,0)">2000</text></g></g><g class="yaxislayer-above"><path class="ytick ticks crisp" d="M79,0h-5" transform="translate(0,404.79)" style="stroke: rgb(68, 68, 68); stroke-opacity: 1; stroke-width: 1px;"/><path class="ytick ticks crisp" d="M79,0h-5" transform="translate(0,368.35)" style="stroke: rgb(68, 68, 68); stroke-opacity: 1; stroke-width: 1px;"/><path class="ytick ticks crisp" d="M79,0h-5" transform="translate(0,331.9)" style="stroke: rgb(68, 68, 68); stroke-opacity: 1; stroke-width: 1px;"/><path class="ytick ticks crisp" d="M79,0h-5" transform="translate(0,295.45)" style="stroke: rgb(68, 68, 68); stroke-opacity: 1; stroke-width: 1px;"/><path class="ytick ticks crisp" d="M79,0h-5" transform="translate(0,259.01)" style="stroke: rgb(68, 68, 68); stroke-opacity: 1; stroke-width: 1px;"/><path class="ytick ticks crisp" d="M79,0h-5" transform="translate(0,222.56)" style="stroke: rgb(68, 68, 68); stroke-opacity: 1; stroke-width: 1px;"/><path class="ytick ticks crisp" d="M79,0h-5" transform="translate(0,186.11)" style="stroke: rgb(68, 68, 68); stroke-opacity: 1; stroke-width: 1px;"/><path class="ytick ticks crisp" d="M79,0h-5" transform="translate(0,149.67000000000002)" style="stroke: rgb(68, 68, 68); stroke-opacity: 1; stroke-width: 1px;"/><path class="ytick ticks crisp" d="M79,0h-5" transform="translate(0,113.22)" style="stroke: rgb(68, 68, 68); stroke-opacity: 1; stroke-width: 1px;"/><g class="ytick"><text text-anchor="end" x="71.6" y="4.199999999999999" transform="translate(0,404.79)" style="font-family: 'Open Sans', verdana, arial, sans-serif; font-size: 12px; fill: rgb(42, 63, 95); fill-opacity: 1; white-space: pre;">0</text></g><g class="ytick"><text text-anchor="end" x="71.6" y="4.199999999999999" style="font-family: 'Open Sans', verdana, arial, sans-serif; font-size: 12px; fill: rgb(42, 63, 95); fill-opacity: 1; white-space: pre;" transform="translate(0,368.35)">20k</text></g><g class="ytick"><text text-anchor="end" x="71.6" y="4.199999999999999" style="font-family: 'Open Sans', verdana, arial, sans-serif; font-size: 12px; fill: rgb(42, 63, 95); fill-opacity: 1; white-space: pre;" transform="translate(0,331.9)">40k</text></g><g class="ytick"><text text-anchor="end" x="71.6" y="4.199999999999999" style="font-family: 'Open Sans', verdana, arial, sans-serif; font-size: 12px; fill: rgb(42, 63, 95); fill-opacity: 1; white-space: pre;" transform="translate(0,295.45)">60k</text></g><g class="ytick"><text text-anchor="end" x="71.6" y="4.199999999999999" style="font-family: 'Open Sans', verdana, arial, sans-serif; font-size: 12px; fill: rgb(42, 63, 95); fill-opacity: 1; white-space: pre;" transform="translate(0,259.01)">80k</text></g><g class="ytick"><text text-anchor="end" x="71.6" y="4.199999999999999" style="font-family: 'Open Sans', verdana, arial, sans-serif; font-size: 12px; fill: rgb(42, 63, 95); fill-opacity: 1; white-space: pre;" transform="translate(0,222.56)">100k</text></g><g class="ytick"><text text-anchor="end" x="71.6" y="4.199999999999999" style="font-family: 'Open Sans', verdana, arial, sans-serif; font-size: 12px; fill: rgb(42, 63, 95); fill-opacity: 1; white-space: pre;" transform="translate(0,186.11)">120k</text></g><g class="ytick"><text text-anchor="end" x="71.6" y="4.199999999999999" style="font-family: 'Open Sans', verdana, arial, sans-serif; font-size: 12px; fill: rgb(42, 63, 95); fill-opacity: 1; white-space: pre;" transform="translate(0,149.67000000000002)">140k</text></g><g class="ytick"><text text-anchor="end" x="71.6" y="4.199999999999999" style="font-family: 'Open Sans', verdana, arial, sans-serif; font-size: 12px; fill: rgb(42, 63, 95); fill-opacity: 1; white-space: pre;" transform="translate(0,113.22)">160k</text></g></g><g class="overaxes-above"/></g></g><g class="polarlayer"/><g class="smithlayer"/><g class="ternarylayer"/><g class="geolayer"/><g class="funnelarealayer"/><g class="pielayer"/><g class="iciclelayer"/><g class="treemaplayer"/><g class="sunburstlayer"/><g class="glimages"/><defs id="topdefs-4ef0bb"><g class="clips"/><clipPath id="legend4ef0bb"><rect width="515" height="67" x="1" y="1"/></clipPath></defs><g class="layer-above"><g class="imagelayer"/><g class="shapelayer"><g class="shape-group" data-index="0" clip-path="url(#clip4ef0bbx)"><path data-index="0" fill-rule="evenodd" d="M220.51,420L220.51,100" style="opacity: 1; stroke: rgb(128, 128, 128); stroke-opacity: 1; fill: rgb(0, 0, 0); fill-opacity: 0; stroke-dasharray: 9px, 9px; stroke-width: 2px;"/></g><g class="shape-group" data-index="1" clip-path="url(#clip4ef0bbx)"><path data-index="1" fill-rule="evenodd" d="M297.5,420L297.5,100" style="opacity: 1; stroke: rgb(128, 128, 128); stroke-opacity: 1; fill: rgb(0, 0, 0); fill-opacity: 0; stroke-dasharray: 3px, 3px; stroke-width: 2px;"/></g><g class="shape-group" data-index="2" clip-path="url(#clip4ef0bbx)"><path data-index="2" fill-rule="evenodd" d="M370,420L370,100" style="opacity: 1; stroke: rgb(128, 128, 128); stroke-opacity: 1; fill: rgb(0, 0, 0); fill-opacity: 0; stroke-dasharray: 9px, 9px; stroke-width: 2px;"/></g><g class="shape-group" data-index="3" clip-path="url(#clip4ef0bbx)"><path data-index="3" fill-rule="evenodd" d="M447,420L447,100" style="opacity: 1; stroke: rgb(128, 128, 128); stroke-opacity: 1; fill: rgb(0, 0, 0); fill-opacity: 0; stroke-dasharray: 3px, 3px; stroke-width: 2px;"/></g><g class="shape-group" data-index="4" clip-path="url(#clip4ef0bbx)"><path data-index="4" fill-rule="evenodd" d="M519.5,420L519.5,100" style="opacity: 1; stroke: rgb(128, 128, 128); stroke-opacity: 1; fill: rgb(0, 0, 0); fill-opacity: 0; stroke-dasharray: 9px, 9px; stroke-width: 2px;"/></g><g class="shape-group" data-index="5" clip-path="url(#clip4ef0bbx)"><path data-index="5" fill-rule="evenodd" d="M596.49,420L596.49,100" style="opacity: 1; stroke: rgb(128, 128, 128); stroke-opacity: 1; fill: rgb(0, 0, 0); fill-opacity: 0; stroke-dasharray: 3px, 3px; stroke-width: 2px;"/></g><g class="shape-group" data-index="6" clip-path="url(#clip4ef0bbx)"><path data-index="6" fill-rule="evenodd" d="M370,420L370,100" style="opacity: 1; stroke: rgb(255, 0, 0); stroke-opacity: 1; fill: rgb(0, 0, 0); fill-opacity: 0; stroke-dasharray: 9px, 9px; stroke-width: 2px;"/></g></g></g><g class="infolayer"><g class="legend" pointer-events="all" transform="translate(143,24.599999999999994)"><rect class="bg" shape-rendering="crispEdges" style="stroke: rgb(0, 0, 0); stroke-opacity: 1; fill: rgb(255, 255, 255); fill-opacity: 0.8; stroke-width: 1px;" width="516" height="68" x="0.5" y="0.5"/><g class="scrollbox" transform="" clip-path="url(#legend4ef0bb)"><g class="groups"><g class="traces" transform="translate(1,15.5)" style="opacity: 1;"><text class="legendtext" text-anchor="start" x="40" y="4.680000000000001" style="font-family: 'Open Sans', verdana, arial, sans-serif; font-size: 12px; fill: rgb(42, 63, 95); fill-opacity: 1; white-space: pre;">Gamma</text><g class="layers" style="opacity: 1;"><g class="legendfill"/><g class="legendlines"><path class="js-line" d="M5,0h30" style="fill: none; stroke: rgb(207, 184, 124); stroke-opacity: 1; stroke-width: 3px;"/></g><g class="legendsymbols"><g class="legendpoints"/></g></g><rect class="legendtoggle" x="0" y="-9.5" width="89.5625" height="19" style="fill: rgb(0, 0, 0); fill-opacity: 0;"/></g><g class="traces" transform="translate(132.8671875,15.5)" style="opacity: 1;"><text class="legendtext" text-anchor="start" x="40" y="4.680000000000001" style="font-family: 'Open Sans', verdana, arial, sans-serif; font-size: 12px; fill: rgb(42, 63, 95); fill-opacity: 1; white-space: pre;">Gamma_down</text><g class="layers"><g class="legendfill"><path class="js-fill" d="M5,-2h30v6h-30z" style="stroke-width: 0; fill: rgb(207, 184, 124); fill-opacity: 0.15;"/></g><g class="legendlines"><path class="js-line" d="M5,-2h30" style="fill: none; stroke: rgb(99, 110, 250); stroke-opacity: 1; stroke-width: 0px;"/></g><g class="legendsymbols"><g class="legendpoints"/></g></g><rect class="legendtoggle" x="0" y="-9.5" width="129.3671875" height="19" style="fill: rgb(0, 0, 0); fill-opacity: 0;"/></g><g class="traces" transform="translate(264.734375,15.5)" style="opacity: 1;"><text class="legendtext" text-anchor="start" x="40" y="4.680000000000001" style="font-family: 'Open Sans', verdana, arial, sans-serif; font-size: 12px; fill: rgb(42, 63, 95); fill-opacity: 1; white-space: pre;">Gamma_up</text><g class="layers"><g class="legendfill"/><g class="legendlines"><path class="js-line" d="M5,0h30" style="fill: none; stroke: rgb(254, 203, 82); stroke-opacity: 1; stroke-width: 0px;"/></g><g class="legendsymbols"><g class="legendpoints"/></g></g><rect class="legendtoggle" x="0" y="-9.5" width="112.265625" height="19" style="fill: rgb(0, 0, 0); fill-opacity: 0;"/></g><g class="traces" transform="translate(396.6015625,15.5)" style="opacity: 1;"><text class="legendtext" text-anchor="start" x="40" y="4.680000000000001" style="font-family: 'Open Sans', verdana, arial, sans-serif; font-size: 12px; fill: rgb(42, 63, 95); fill-opacity: 1; white-space: pre;">Beta</text><g class="layers" style="opacity: 1;"><g class="legendfill"/><g class="legendlines"><path class="js-line" d="M5,0h30" style="fill: none; stroke: rgb(148, 0, 211); stroke-opacity: 1; stroke-width: 3px;"/></g><g class="legendsymbols"><g class="legendpoints"/></g></g><rect class="legendtoggle" x="0" y="-9.5" width="69.8125" height="19" style="fill: rgb(0, 0, 0); fill-opacity: 0;"/></g><g class="traces" transform="translate(1,34.5)" style="opacity: 1;"><text class="legendtext" text-anchor="start" x="40" y="4.680000000000001" style="font-family: 'Open Sans', verdana, arial, sans-serif; font-size: 12px; fill: rgb(42, 63, 95); fill-opacity: 1; white-space: pre;">Beta_down</text><g class="layers"><g class="legendfill"><path class="js-fill" d="M5,-2h30v6h-30z" style="stroke-width: 0; fill: rgb(148, 0, 211); fill-opacity: 0.15;"/></g><g class="legendlines"><path class="js-line" d="M5,-2h30" style="fill: none; stroke: rgb(182, 232, 128); stroke-opacity: 1; stroke-width: 0px;"/></g><g class="legendsymbols"><g class="legendpoints"/></g></g><rect class="legendtoggle" x="0" y="-9.5" width="109.6171875" height="19" style="fill: rgb(0, 0, 0); fill-opacity: 0;"/></g><g class="traces" transform="translate(132.8671875,34.5)" style="opacity: 1;"><text class="legendtext" text-anchor="start" x="40" y="4.680000000000001" style="font-family: 'Open Sans', verdana, arial, sans-serif; font-size: 12px; fill: rgb(42, 63, 95); fill-opacity: 1; white-space: pre;">Beta_up</text><g class="layers"><g class="legendfill"/><g class="legendlines"><path class="js-line" d="M5,0h30" style="fill: none; stroke: rgb(255, 102, 146); stroke-opacity: 1; stroke-width: 0px;"/></g><g class="legendsymbols"><g class="legendpoints"/></g></g><rect class="legendtoggle" x="0" y="-9.5" width="92.515625" height="19" style="fill: rgb(0, 0, 0); fill-opacity: 0;"/></g><g class="traces" transform="translate(264.734375,34.5)" style="opacity: 1;"><text class="legendtext" text-anchor="start" x="40" y="4.680000000000001" style="font-family: 'Open Sans', verdana, arial, sans-serif; font-size: 12px; fill: rgb(42, 63, 95); fill-opacity: 1; white-space: pre;">Alpha</text><g class="layers" style="opacity: 1;"><g class="legendfill"/><g class="legendlines"><path class="js-line" d="M5,0h30" style="fill: none; stroke: rgb(0, 0, 255); stroke-opacity: 1; stroke-width: 3px;"/></g><g class="legendsymbols"><g class="legendpoints"/></g></g><rect class="legendtoggle" x="0" y="-9.5" width="76.2734375" height="19" style="fill: rgb(0, 0, 0); fill-opacity: 0;"/></g><g class="traces" transform="translate(396.6015625,34.5)" style="opacity: 1;"><text class="legendtext" text-anchor="start" x="40" y="4.680000000000001" style="font-family: 'Open Sans', verdana, arial, sans-serif; font-size: 12px; fill: rgb(42, 63, 95); fill-opacity: 1; white-space: pre;">Alpha_down</text><g class="layers"><g class="legendfill"><path class="js-fill" d="M5,-2h30v6h-30z" style="stroke-width: 0; fill: rgb(0, 0, 255); fill-opacity: 0.15;"/></g><g class="legendlines"><path class="js-line" d="M5,-2h30" style="fill: none; stroke: rgb(255, 161, 90); stroke-opacity: 1; stroke-width: 0px;"/></g><g class="legendsymbols"><g class="legendpoints"/></g></g><rect class="legendtoggle" x="0" y="-9.5" width="116.078125" height="19" style="fill: rgb(0, 0, 0); fill-opacity: 0;"/></g><g class="traces" transform="translate(1,53.5)" style="opacity: 1;"><text class="legendtext" text-anchor="start" x="40" y="4.680000000000001" style="font-family: 'Open Sans', verdana, arial, sans-serif; font-size: 12px; fill: rgb(42, 63, 95); fill-opacity: 1; white-space: pre;">Alpha_up</text><g class="layers"><g class="legendfill"/><g class="legendlines"><path class="js-line" d="M5,0h30" style="fill: none; stroke: rgb(171, 99, 250); stroke-opacity: 1; stroke-width: 0px;"/></g><g class="legendsymbols"><g class="legendpoints"/></g></g><rect class="legendtoggle" x="0" y="-9.5" width="98.9765625" height="19" style="fill: rgb(0, 0, 0); fill-opacity: 0;"/></g><g class="traces" transform="translate(132.8671875,53.5)" style="opacity: 1;"><text class="legendtext" text-anchor="start" x="40" y="4.680000000000001" style="font-family: 'Open Sans', verdana, arial, sans-serif; font-size: 12px; fill: rgb(42, 63, 95); fill-opacity: 1; white-space: pre;">Theta</text><g class="layers" style="opacity: 1;"><g class="legendfill"/><g class="legendlines"><path class="js-line" d="M5,0h30" style="fill: none; stroke: rgb(75, 0, 130); stroke-opacity: 1; stroke-width: 3px;"/></g><g class="legendsymbols"><g class="legendpoints"/></g></g><rect class="legendtoggle" x="0" y="-9.5" width="77.078125" height="19" style="fill: rgb(0, 0, 0); fill-opacity: 0;"/></g><g class="traces" transform="translate(264.734375,53.5)" style="opacity: 1;"><text class="legendtext" text-anchor="start" x="40" y="4.680000000000001" style="font-family: 'Open Sans', verdana, arial, sans-serif; font-size: 12px; fill: rgb(42, 63, 95); fill-opacity: 1; white-space: pre;">Theta_down</text><g class="layers"><g class="legendfill"><path class="js-fill" d="M5,-2h30v6h-30z" style="stroke-width: 0; fill: rgb(75, 0, 130); fill-opacity: 0.15;"/></g><g class="legendlines"><path class="js-line" d="M5,-2h30" style="fill: none; stroke: rgb(239, 85, 59); stroke-opacity: 1; stroke-width: 0px;"/></g><g class="legendsymbols"><g class="legendpoints"/></g></g><rect class="legendtoggle" x="0" y="-9.5" width="116.875" height="19" style="fill: rgb(0, 0, 0); fill-opacity: 0;"/></g><g class="traces" transform="translate(396.6015625,53.5)" style="opacity: 1;"><text class="legendtext" text-anchor="start" x="40" y="4.680000000000001" style="font-family: 'Open Sans', verdana, arial, sans-serif; font-size: 12px; fill: rgb(42, 63, 95); fill-opacity: 1; white-space: pre;">Theta_up</text><g class="layers"><g class="legendfill"/><g class="legendlines"><path class="js-line" d="M5,0h30" style="fill: none; stroke: rgb(99, 110, 250); stroke-opacity: 1; stroke-width: 0px;"/></g><g class="legendsymbols"><g class="legendpoints"/></g></g><rect class="legendtoggle" x="0" y="-9.5" width="99.7734375" height="19" style="fill: rgb(0, 0, 0); fill-opacity: 0;"/></g></g></g><rect class="scrollbar" rx="20" ry="3" width="0" height="0" style="fill: rgb(128, 139, 164); fill-opacity: 1;" x="0" y="0"/></g><g class="g-gtitle"><text class="gtitle" x="350" y="50" text-anchor="middle" dy="0em" style="opacity: 1; font-family: Arial; font-size: 18px; fill: rgb(0, 0, 0); fill-opacity: 1; white-space: pre;"><tspan class="line" dy="0em" x="350" y="50"><tspan style="font-weight:bold">Figure f006: V2 Band-Specific Omission Dynamics (AAAB)</tspan></tspan><tspan class="line" dy="1.3em" x="350" y="50">​<tspan style="font-size:70%" dy="-0.6em">Relative Power (dB) with ±SEM | 0ms = Omission Onset | 30ms Smoothed</tspan><tspan dy="0.42em">​</tspan></tspan></text></g><g class="g-xtitle"><text class="xtitle" x="370" y="467.200390625" text-anchor="middle" style="opacity: 1; font-family: 'Open Sans', verdana, arial, sans-serif; font-size: 14px; fill: rgb(42, 63, 95); fill-opacity: 1; white-space: pre;">Time from Omission (ms)</text></g><g class="g-ytitle"><text class="ytitle" transform="rotate(-90,22.207421875,260)" x="22.207421875" y="260" text-anchor="middle" style="opacity: 1; font-family: 'Open Sans', verdana, arial, sans-serif; font-size: 14px; fill: rgb(42, 63, 95); fill-opacity: 1; white-space: pre;">Relative Power (dB)</text></g><g class="annotation" data-index="0" style="opacity: 1;"><g class="annotation-text-g" transform="rotate(0,230.01,109.5)"><g class="cursor-pointer" transform="translate(221,100)"><rect class="bg" x="0.5" y="0.5" width="18" height="18" style="stroke-width: 1px; stroke: rgb(0, 0, 0); stroke-opacity: 0; fill: rgb(0, 0, 0); fill-opacity: 0;"/><text class="annotation-text" text-anchor="middle" x="9.43359375" y="14" style="font-family: 'Open Sans', verdana, arial, sans-serif; font-size: 12px; fill: rgb(42, 63, 95); fill-opacity: 1; white-space: pre;">P1</text></g></g></g><g class="annotation" data-index="1" style="opacity: 1;"><g class="annotation-text-g" transform="rotate(0,308,109.5)"><g class="cursor-pointer" transform="translate(298,100)"><rect class="bg" x="0.5" y="0.5" width="20" height="18" style="stroke-width: 1px; stroke: rgb(0, 0, 0); stroke-opacity: 0; fill: rgb(0, 0, 0); fill-opacity: 0;"/><text class="annotation-text" text-anchor="middle" x="10.4375" y="14" style="font-family: 'Open Sans', verdana, arial, sans-serif; font-size: 12px; fill: rgb(42, 63, 95); fill-opacity: 1; white-space: pre;">D1</text></g></g></g><g class="annotation" data-index="2" style="opacity: 1;"><g class="annotation-text-g" transform="rotate(0,379.5,109.5)"><g class="cursor-pointer" transform="translate(370,100)"><rect class="bg" x="0.5" y="0.5" width="18" height="18" style="stroke-width: 1px; stroke: rgb(0, 0, 0); stroke-opacity: 0; fill: rgb(0, 0, 0); fill-opacity: 0;"/><text class="annotation-text" text-anchor="middle" x="9.43359375" y="14" style="font-family: 'Open Sans', verdana, arial, sans-serif; font-size: 12px; fill: rgb(42, 63, 95); fill-opacity: 1; white-space: pre;">P2</text></g></g></g><g class="annotation" data-index="3" style="opacity: 1;"><g class="annotation-text-g" transform="rotate(0,457.5,109.5)"><g class="cursor-pointer" transform="translate(447,100)"><rect class="bg" x="0.5" y="0.5" width="20" height="18" style="stroke-width: 1px; stroke: rgb(0, 0, 0); stroke-opacity: 0; fill: rgb(0, 0, 0); fill-opacity: 0;"/><text class="annotation-text" text-anchor="middle" x="10.4375" y="14" style="font-family: 'Open Sans', verdana, arial, sans-serif; font-size: 12px; fill: rgb(42, 63, 95); fill-opacity: 1; white-space: pre;">D2</text></g></g></g><g class="annotation" data-index="4" style="opacity: 1;"><g class="annotation-text-g" transform="rotate(0,529,109.5)"><g class="cursor-pointer" transform="translate(520,100)"><rect class="bg" x="0.5" y="0.5" width="18" height="18" style="stroke-width: 1px; stroke: rgb(0, 0, 0); stroke-opacity: 0; fill: rgb(0, 0, 0); fill-opacity: 0;"/><text class="annotation-text" text-anchor="middle" x="9.43359375" y="14" style="font-family: 'Open Sans', verdana, arial, sans-serif; font-size: 12px; fill: rgb(42, 63, 95); fill-opacity: 1; white-space: pre;">P3</text></g></g></g><g class="annotation" data-index="5" style="opacity: 1;"><g class="annotation-text-g" transform="rotate(0,606.99,109.5)"><g class="cursor-pointer" transform="translate(596,100)"><rect class="bg" x="0.5" y="0.5" width="20" height="18" style="stroke-width: 1px; stroke: rgb(0, 0, 0); stroke-opacity: 0; fill: rgb(0, 0, 0); fill-opacity: 0;"/><text class="annotation-text" text-anchor="middle" x="10.4375" y="14" style="font-family: 'Open Sans', verdana, arial, sans-serif; font-size: 12px; fill: rgb(42, 63, 95); fill-opacity: 1; white-space: pre;">D3</text></g></g></g><g class="annotation" data-index="6" style="opacity: 1;"><g class="annotation-text-g" transform="rotate(0,419,109.5)"><g class="cursor-pointer" transform="translate(370,100)"><rect class="bg" x="0.5" y="0.5" width="97" height="18" style="stroke-width: 1px; stroke: rgb(0, 0, 0); stroke-opacity: 0; fill: rgb(0, 0, 0); fill-opacity: 0;"/><text class="annotation-text" text-anchor="middle" x="49.171875" y="14" style="font-family: 'Open Sans', verdana, arial, sans-serif; font-size: 12px; fill: rgb(42, 63, 95); fill-opacity: 1; white-space: pre;">OMISSION (P2)</text></g></g></g></g></svg>