<svg class="main-svg" xmlns="http://www.w3.org/2000/svg" xmlns:xlink="http://www.w3.org/1999/xlink" width="700" height="500" style="" viewBox="0 0 700 500"><rect x="0" y="0" width="700" height="500" style="fill: rgb(255, 255, 255); fill-opacity: 1;"/><defs id="defs-8b881d"><g class="clips"><clipPath id="clip8b881dxyplot" class="plotclip"><rect width="580" height="320"/></clipPath><clipPath class="axesclip" id="clip8b881dx"><rect x="80" y="0" width="580" height="500"/></clipPath><clipPath class="axesclip" id="clip8b881dy"><rect x="0" y="100" width="700" height="320"/></clipPath><clipPath class="axesclip" id="clip8b881dxy"><rect x="80" y="100" width="580" height="320"/></clipPath></g><g class="gradients"/><g class="patterns"/></defs><g class="bglayer"/><g class="layer-below"><g class="imagelayer"/><g class="shapelayer"/></g><g class="cartesianlayer"><g class="subplot xy"><g class="layer-subplot"><g class="shapelayer"/><g class="imagelayer"/></g><g class="minor-gridlayer"><g class="x"/><g class="y"/></g><g class="gridlayer"><g class="x"><path class="xgrid crisp" transform="translate(152.5,0)" d="M0,100v320" style="stroke: rgb(211, 211, 211); stroke-opacity: 1; stroke-width: 1px;"/><path class="xgrid crisp" transform="translate(225,0)" d="M0,100v320" style="stroke: rgb(211, 211, 211); stroke-opacity: 1; stroke-width: 1px;"/><path class="xgrid crisp" transform="translate(297.5,0)" d="M0,100v320" style="stroke: rgb(211, 211, 211); stroke-opacity: 1; stroke-width: 1px;"/><path class="xgrid crisp" transform="translate(442.5,0)" d="M0,100v320" style="stroke: rgb(211, 211, 211); stroke-opacity: 1; stroke-width: 1px;"/><path class="xgrid crisp" transform="translate(515,0)" d="M0,100v320" style="stroke: rgb(211, 211, 211); stroke-opacity: 1; stroke-width: 1px;"/><path class="xgrid crisp" transform="translate(587.5,0)" d="M0,100v320" style="stroke: rgb(211, 211, 211); stroke-opacity: 1; stroke-width: 1px;"/></g><g class="y"><path class="ygrid crisp" transform="translate(0,375.81)" d="M80,0h580" style="stroke: rgb(211, 211, 211); stroke-opacity: 1; stroke-width: 1px;"/><path class="ygrid crisp" transform="translate(0,325.5)" d="M80,0h580" style="stroke: rgb(211, 211, 211); stroke-opacity: 1; stroke-width: 1px;"/><path class="ygrid crisp" transform="translate(0,275.18)" d="M80,0h580" style="stroke: rgb(211, 211, 211); stroke-opacity: 1; stroke-width: 1px;"/><path class="ygrid crisp" transform="translate(0,224.87)" d="M80,0h580" style="stroke: rgb(211, 211, 211); stroke-opacity: 1; stroke-width: 1px;"/><path class="ygrid crisp" transform="translate(0,174.56)" d="M80,0h580" style="stroke: rgb(211, 211, 211); stroke-opacity: 1; stroke-width: 1px;"/><path class="ygrid crisp" transform="translate(0,124.25)" d="M80,0h580" style="stroke: rgb(211, 211, 211); stroke-opacity: 1; stroke-width: 1px;"/></g></g><g class="zerolinelayer"><path class="xzl zl crisp" transform="translate(370,0)" d="M0,100v320" style="stroke: rgb(235, 240, 248); stroke-opacity: 1; stroke-width: 2px;"/></g><g class="layer-between"><g class="shapelayer"/><g class="imagelayer"/></g><path class="xlines-below"/><path class="ylines-below"/><g class="overlines-below"/><g class="xaxislayer-below"/><g class="yaxislayer-below"/><g class="overaxes-below"/><g class="overplot"><g class="xy" transform="translate(80,100)" clip-path="url(#clip8b881dxyplot)"><g class="scatterlayer mlayer"><g class="trace scatter tracee70db5" style="stroke-miterlimit: 2;"><g class="fills"><g><path class="js-fill" d="M0,170.62L2.03,169.75L2.18,169.63L4.79,166.43L4.93,166.21L10.73,155.97L10.88,155.71L20.74,138.98L20.89,138.74L32.34,121.34L32.49,121.14L45.98,103.15L46.12,102.98L54.53,94.04L54.68,93.9L63.96,86.28L64.11,86.17L76.14,78.48L76.29,78.39L94.85,67.33L95,67.26L101.53,64.38L101.67,64.33L113.42,61.17L113.56,61.14L133.87,59.14L134.01,59.15L145.33,60.65L145.47,60.67L170.85,63.08L171,63.11L181.59,66.04L181.73,66.1L191.45,70.13L191.59,70.18L200.59,72.99L200.73,73.03L210.88,74.35L211.03,74.35L223.21,73.6L223.36,73.58L231.91,71.35L232.06,71.3L254.54,63.91L254.68,63.84L268.03,59.16L268.17,59.13L280.36,57.43L280.5,57.42L304.14,56.3L304.29,56.28L318.35,55.53L318.5,55.54L326.33,57.1L326.48,57.14L348.09,62.93L348.23,62.93L357.51,62.82L357.66,62.8L366.65,61.43L366.8,61.4L375.79,58.78L375.93,58.72L386.23,53.8L386.38,53.73L400.74,46.79L400.88,46.7L411.03,42.09L411.18,42.05L417.56,40.64L417.7,40.63L423.65,40.57L423.8,40.58L431.48,42.1L431.63,42.15L446.71,46.7L446.86,46.7L452.22,45.77L452.37,45.73L470.35,41.37L470.5,41.36L478.33,41.28L478.47,41.29L488.63,42.71L488.77,42.74L506.03,46.86L506.18,46.91L518.94,52.07L519.08,52.15L525.32,56.3L525.47,56.42L531.99,62.97L532.14,63.14L539.82,73.62L539.97,73.84L547.51,86.75L547.66,87.01L558.24,105.79L558.39,106.03L568.25,120.8L568.4,121.03L578.26,136.12L578.4,136.22L580,136.78L580,127.1L578.26,126.41L578.11,126.3L572.89,118.59L572.75,118.32L566.8,108.3L566.66,108.08L558.68,95.87L558.53,95.63L550.56,81.31L550.41,81.04L542,65.57L541.86,65.32L535.76,55.94L535.62,55.73L530.25,48.92L530.11,48.76L524.02,43.04L523.87,42.93L517.49,38.93L517.34,38.85L503.28,33.22L503.13,33.17L487.03,29.2L486.89,29.17L478.91,27.88L478.76,27.86L470.21,27.72L470.06,27.73L460.49,29.51L460.35,29.55L450.77,32.22L450.63,32.26L445.84,32.69L445.7,32.68L437.28,30L437.14,29.93L429.89,27.17L429.74,27.13L423.94,26.02L423.8,26L417.41,26.11L417.27,26.13L410.31,27.99L410.16,28.05L383.19,42.61L383.04,42.69L374.34,47.23L374.19,47.29L365.35,49.86L365.2,49.89L354.03,51.33L353.89,51.33L345.91,51.01L345.77,50.99L337.79,48.76L337.64,48.7L324.45,44.3L324.3,44.26L316.76,43L316.61,43L300.81,44.44L300.66,44.47L288.19,45.17L288.04,45.16L276.15,45.68L276,45.7L266.87,47.45L266.72,47.48L253.52,52.9L253.38,52.97L228.72,61.86L228.58,61.91L221.18,63.65L221.04,63.67L210.59,64.41L210.45,64.41L202.62,63.55L202.47,63.52L181.3,55.73L181.15,55.67L172.01,53.08L171.87,53.05L152.72,51.22L152.58,51.22L137.49,49.96L137.35,49.94L129.95,49.69L129.81,49.7L112.26,52.58L112.11,52.62L101.96,55.89L101.82,55.94L79.91,68.63L79.77,68.72L64.98,78.37L64.83,78.48L51.92,89.64L51.78,89.79L35.53,110.51L35.39,110.71L19.72,134.59L19.58,134.83L10.88,149.98L10.73,150.24L4.5,161.4L4.35,161.62L2.03,164.36L1.89,164.48L0,165.25Z" style="fill: rgb(75, 0, 130); fill-opacity: 0.15; stroke-width: 0;"/></g></g><g class="errorbars"/><g class="lines"><path class="js-line" d="M0,165.25L1.89,164.48L2.03,164.36L4.35,161.62L4.5,161.4L10.73,150.24L10.88,149.98L19.58,134.83L19.72,134.59L35.39,110.71L35.53,110.51L51.78,89.79L51.92,89.64L64.83,78.48L64.98,78.37L79.77,68.72L79.91,68.63L101.82,55.94L101.96,55.89L112.11,52.62L112.26,52.58L129.81,49.7L129.95,49.69L137.35,49.94L137.49,49.96L152.58,51.22L152.72,51.22L171.87,53.05L172.01,53.08L181.15,55.67L181.3,55.73L202.47,63.52L202.62,63.55L210.45,64.41L210.59,64.41L221.04,63.67L221.18,63.65L228.58,61.91L228.72,61.86L253.38,52.97L253.52,52.9L266.72,47.48L266.87,47.45L276,45.7L276.15,45.68L288.04,45.16L288.19,45.17L300.66,44.47L300.81,44.44L316.61,43L316.76,43L324.3,44.26L324.45,44.3L337.64,48.7L337.79,48.76L345.77,50.99L345.91,51.01L353.89,51.33L354.03,51.33L365.2,49.89L365.35,49.86L374.19,47.29L374.34,47.23L383.04,42.69L383.19,42.61L410.16,28.05L410.31,27.99L417.27,26.13L417.41,26.11L423.8,26L423.94,26.02L429.74,27.13L429.89,27.17L437.14,29.93L437.28,30L445.7,32.68L445.84,32.69L450.63,32.26L450.77,32.22L460.35,29.55L460.49,29.51L470.06,27.73L470.21,27.72L478.76,27.86L478.91,27.88L486.89,29.17L487.03,29.2L503.13,33.17L503.28,33.22L517.34,38.85L517.49,38.93L523.87,42.93L524.02,43.04L530.11,48.76L530.25,48.92L535.62,55.73L535.76,55.94L541.86,65.32L542,65.57L550.41,81.04L550.56,81.31L558.53,95.63L558.68,95.87L566.66,108.08L566.8,108.3L572.75,118.32L572.89,118.59L578.11,126.3L578.26,126.41L580,127.1" style="vector-effect: none; fill: none; stroke: rgb(99, 110, 250); stroke-opacity: 1; stroke-width: 0px; opacity: 1;"/></g><g class="points"/><g class="text"/></g><g class="trace scatter traced98f27" style="stroke-miterlimit: 2;"><g class="fills"/><g class="errorbars"/><g class="lines"><path class="js-line" d="M0,170.62L2.03,169.75L2.18,169.63L4.79,166.43L4.93,166.21L10.73,155.97L10.88,155.71L20.74,138.98L20.89,138.74L32.34,121.34L32.49,121.14L45.98,103.15L46.12,102.98L54.53,94.04L54.68,93.9L63.96,86.28L64.11,86.17L76.14,78.48L76.29,78.39L94.85,67.33L95,67.26L101.53,64.38L101.67,64.33L113.42,61.17L113.56,61.14L133.87,59.14L134.01,59.15L145.33,60.65L145.47,60.67L170.85,63.08L171,63.11L181.59,66.04L181.73,66.1L191.45,70.13L191.59,70.18L200.59,72.99L200.73,73.03L210.88,74.35L211.03,74.35L223.21,73.6L223.36,73.58L231.91,71.35L232.06,71.3L254.54,63.91L254.68,63.84L268.03,59.16L268.17,59.13L280.36,57.43L280.5,57.42L304.14,56.3L304.29,56.28L318.35,55.53L318.5,55.54L326.33,57.1L326.48,57.14L348.09,62.93L348.23,62.93L357.51,62.82L357.66,62.8L366.65,61.43L366.8,61.4L375.79,58.78L375.93,58.72L386.23,53.8L386.38,53.73L400.74,46.79L400.88,46.7L411.03,42.09L411.18,42.05L417.56,40.64L417.7,40.63L423.65,40.57L423.8,40.58L431.48,42.1L431.63,42.15L446.71,46.7L446.86,46.7L452.22,45.77L452.37,45.73L470.35,41.37L470.5,41.36L478.33,41.28L478.47,41.29L488.63,42.71L488.77,42.74L506.03,46.86L506.18,46.91L518.94,52.07L519.08,52.15L525.32,56.3L525.47,56.42L531.99,62.97L532.14,63.14L539.82,73.62L539.97,73.84L547.51,86.75L547.66,87.01L558.24,105.79L558.39,106.03L568.25,120.8L568.4,121.03L578.26,136.12L578.4,136.22L580,136.78" style="vector-effect: none; fill: none; stroke: rgb(239, 85, 59); stroke-opacity: 1; stroke-width: 0px; opacity: 1;"/></g><g class="points"/><g class="text"/></g><g class="trace scatter trace1df8b4" style="stroke-miterlimit: 2; opacity: 1;"><g class="fills"/><g class="errorbars"/><g class="lines"><path class="js-line" d="M0,167.93L2.03,167.06L2.18,166.94L5.08,163.24L5.22,163L10.44,153.63L10.59,153.37L21.32,134.99L21.47,134.75L30.6,120.57L30.75,120.37L41.19,106.05L41.34,105.86L49.02,96.18L49.17,96.01L56.42,88.84L56.56,88.71L67.3,80.36L67.44,80.26L88.47,67.13L88.62,67.04L98.91,61.3L99.06,61.24L108.92,57.8L109.07,57.76L118.2,56L118.35,55.98L134.3,54.42L134.45,54.43L168.1,57.5L168.24,57.52L177.09,59.43L177.23,59.48L184.78,62.24L184.92,62.31L201.02,68.15L201.17,68.18L209.14,69.35L209.29,69.35L219.29,68.95L219.44,68.94L228,67.33L228.14,67.28L245.98,61.75L246.13,61.7L255.7,57.62L255.84,57.55L268.9,52.96L269.04,52.93L280.79,51.32L280.94,51.31L291.67,51.32L291.81,51.32L300.95,50.57L301.1,50.55L316.32,49.2L316.47,49.21L323.43,50.19L323.58,50.23L335.47,53.87L335.61,53.93L346.64,56.95L346.78,56.97L357.51,56.97L357.66,56.96L368.25,55.14L368.39,55.1L374.92,53.05L375.06,52.99L383.04,49.01L383.19,48.93L392.18,44.64L392.32,44.58L401.03,39.71L401.17,39.62L409.58,35.43L409.73,35.37L417.85,33.33L417.99,33.32L423.8,33.29L423.94,33.31L430.03,34.45L430.18,34.49L437.86,37.38L438.01,37.44L444.97,39.61L445.12,39.63L449.76,39.4L449.9,39.37L459.47,36.71L459.62,36.66L469.92,34.57L470.06,34.56L479.63,34.66L479.78,34.67L490.51,36.53L490.66,36.56L505.6,40.37L505.74,40.42L517.34,45.06L517.49,45.13L524.16,49.28L524.31,49.39L530.4,55.11L530.54,55.28L536.05,62.25L536.2,62.45L546.06,78.47L546.21,78.74L558.68,101.18L558.82,101.42L578.69,131.55L578.84,131.63L580,131.94" style="vector-effect: none; fill: none; stroke: rgb(75, 0, 130); stroke-opacity: 1; stroke-width: 3px; opacity: 1;"/></g><g class="points"/><g class="text"/></g><g class="trace scatter trace5edd6f" style="stroke-miterlimit: 2;"><g class="fills"><g><path class="js-fill" d="M0,231.78L1.89,230.98L2.03,230.86L4.21,228.21L4.35,227.98L7.83,221.32L7.98,221.01L18.42,195.36L18.56,194.98L29.3,170.12L29.44,169.85L35.68,160.44L35.82,160.26L41.48,154.63L41.63,154.52L46.85,151.03L46.99,150.95L52.94,148.24L53.08,148.19L59.32,146.87L59.46,146.86L72.37,144.61L72.52,144.56L81.95,142.3L82.09,142.3L87.17,143.04L87.31,143.08L93.69,145.55L93.84,145.61L118.2,155.4L118.35,155.43L124.15,156.07L124.3,156.07L133.43,155.03L133.58,155L146.34,152.49L146.49,152.45L161.43,147.04L161.57,146.98L176.36,142.75L176.51,142.72L192.46,140.16L192.61,140.15L199.28,140.43L199.42,140.45L206.1,142.5L206.24,142.57L212.04,146.09L212.19,146.2L224.23,155.71L224.37,155.83L245.4,170.41L245.55,170.5L251.78,174.04L251.93,174.11L257.87,176.26L258.02,176.29L265.71,177.64L265.85,177.65L276,177.58L276.15,177.57L285.72,175.86L285.87,175.81L292.83,172.89L292.97,172.81L298.92,168.81L299.06,168.69L305.16,163.31L305.3,163.17L325.32,146.04L325.46,145.94L338.8,138.69L338.95,138.63L347.07,135.94L347.22,135.91L353.16,135.63L353.31,135.64L358.96,137.14L359.11,137.2L365.35,140.66L365.49,140.76L373.47,146.96L373.61,147.09L382.46,155.12L382.61,155.26L397.98,168.54L398.12,168.64L407.84,174.29L407.99,174.35L414.08,176.57L414.22,176.6L420.46,177.5L420.61,177.5L434.38,177.23L434.53,177.23L442.94,176.2L443.09,176.16L448.31,173.95L448.45,173.86L453.24,170.48L453.38,170.36L467.6,158.03L467.74,157.91L480.8,149.17L480.94,149.09L490.22,144.37L490.37,144.31L497.33,142.45L497.47,142.43L504.58,142.67L504.73,142.7L510.96,144.53L511.11,144.59L542.44,158.32L542.58,158.44L546.5,162.49L546.64,162.68L550.85,169.18L550.99,169.44L555.78,179.19L555.92,179.51L569.12,207.11L569.27,207.37L575.36,216.75L575.5,216.93L578.84,219.67L578.98,219.72L580,219.9L579.85,215.77L579.71,215.75L576.95,214.3L576.81,214.17L573.04,209.32L572.89,209.1L566.37,197.69L566.22,197.41L556.94,176.79L556.79,176.45L550.27,162.81L550.12,162.56L546.35,156.87L546.21,156.68L542.15,152.6L542,152.48L536.05,149.31L535.91,149.26L513.57,139.38L513.43,139.31L507.77,137.05L507.63,137L501.83,135.88L501.68,135.87L495.73,136.31L495.59,136.34L488.48,138.85L488.34,138.92L477.02,145.58L476.88,145.67L470.5,150.18L470.35,150.29L460.93,158.67L460.78,158.81L451.64,167.07L451.5,167.18L445.99,170.75L445.84,170.82L440.19,172.53L440.04,172.56L422.93,173.3L422.78,173.3L415.82,172.62L415.67,172.59L406.97,169.3L406.83,169.22L396.96,162.83L396.82,162.71L379.27,146.22L379.12,146.08L371.29,138.87L371.15,138.74L362.74,132.47L362.59,132.38L356.64,129.65L356.5,129.61L351.71,128.86L351.57,128.85L345.62,129.67L345.48,129.71L338.66,132.29L338.51,132.35L331.41,136.05L331.26,136.13L322.71,141.91L322.56,142.02L308.78,154.76L308.64,154.91L298.05,164.93L297.9,165.05L292.1,168.97L291.96,169.04L284.13,172.22L283.98,172.26L276.29,173.51L276.15,173.52L266.29,173.59L266.14,173.58L258.6,172.27L258.45,172.23L252.51,170.08L252.36,170.01L233.22,157.16L233.07,157.06L221.91,148.47L221.76,148.34L211.46,139.87L211.32,139.76L205.37,136.18L205.23,136.12L199.57,134.41L199.42,134.38L193.33,134.05L193.19,134.05L176.51,136.8L176.36,136.83L158.81,142.1L158.67,142.16L146.78,146.63L146.63,146.68L138.8,148.49L138.65,148.52L125.6,150.12L125.46,150.12L119.65,149.7L119.51,149.67L94.56,140.29L94.42,140.23L87.02,137.49L86.88,137.45L82.09,136.89L81.95,136.9L71.94,139.64L71.79,139.69L58.74,142.06L58.59,142.08L52.65,143.55L52.5,143.61L45.98,146.91L45.83,147L40.18,151.23L40.03,151.36L34.37,157.66L34.23,157.85L29.3,165.75L29.15,166.02L19.14,189.57L19,189.95L9.14,215.05L8.99,215.39L4.5,224.55L4.35,224.79L2.03,227.72L1.89,227.84L0,228.65Z" style="fill: rgb(0, 0, 255); fill-opacity: 0.15; stroke-width: 0;"/></g></g><g class="errorbars"/><g class="lines"><path class="js-line" d="M0,228.65L1.89,227.84L2.03,227.72L4.35,224.79L4.5,224.55L8.99,215.39L9.14,215.05L19,189.95L19.14,189.57L29.15,166.02L29.3,165.75L34.23,157.85L34.37,157.66L40.03,151.36L40.18,151.23L45.83,147L45.98,146.91L52.5,143.61L52.65,143.55L58.59,142.08L58.74,142.06L71.79,139.69L71.94,139.64L81.95,136.9L82.09,136.89L86.88,137.45L87.02,137.49L94.42,140.23L94.56,140.29L119.51,149.67L119.65,149.7L125.46,150.12L125.6,150.12L138.65,148.52L138.8,148.49L146.63,146.68L146.78,146.63L158.67,142.16L158.81,142.1L176.36,136.83L176.51,136.8L193.19,134.05L193.33,134.05L199.42,134.38L199.57,134.41L205.23,136.12L205.37,136.18L211.32,139.76L211.46,139.87L221.76,148.34L221.91,148.47L233.07,157.06L233.22,157.16L252.36,170.01L252.51,170.08L258.45,172.23L258.6,172.27L266.14,173.58L266.29,173.59L276.15,173.52L276.29,173.51L283.98,172.26L284.13,172.22L291.96,169.04L292.1,168.97L297.9,165.05L298.05,164.93L308.64,154.91L308.78,154.76L322.56,142.02L322.71,141.91L331.26,136.13L331.41,136.05L338.51,132.35L338.66,132.29L345.48,129.71L345.62,129.67L351.57,128.85L351.71,128.86L356.5,129.61L356.64,129.65L362.59,132.38L362.74,132.47L371.15,138.74L371.29,138.87L379.12,146.08L379.27,146.22L396.82,162.71L396.96,162.83L406.83,169.22L406.97,169.3L415.67,172.59L415.82,172.62L422.78,173.3L422.93,173.3L440.04,172.56L440.19,172.53L445.84,170.82L445.99,170.75L451.5,167.18L451.64,167.07L460.78,158.81L460.93,158.67L470.35,150.29L470.5,150.18L476.88,145.67L477.02,145.58L488.34,138.92L488.48,138.85L495.59,136.34L495.73,136.31L501.68,135.87L501.83,135.88L507.63,137L507.77,137.05L513.43,139.31L513.57,139.38L535.91,149.26L536.05,149.31L542,152.48L542.15,152.6L546.21,156.68L546.35,156.87L550.12,162.56L550.27,162.81L556.79,176.45L556.94,176.79L566.22,197.41L566.37,197.69L572.89,209.1L573.04,209.32L576.81,214.17L576.95,214.3L579.71,215.75L579.85,215.77" style="vector-effect: none; fill: none; stroke: rgb(171, 99, 250); stroke-opacity: 1; stroke-width: 0px; opacity: 1;"/></g><g class="points"/><g class="text"/></g><g class="trace scatter tracefc35c1" style="stroke-miterlimit: 2;"><g class="fills"/><g class="errorbars"/><g class="lines"><path class="js-line" d="M0,231.78L1.89,230.98L2.03,230.86L4.21,228.21L4.35,227.98L7.83,221.32L7.98,221.01L18.42,195.36L18.56,194.98L29.3,170.12L29.44,169.85L35.68,160.44L35.82,160.26L41.48,154.63L41.63,154.52L46.85,151.03L46.99,150.95L52.94,148.24L53.08,148.19L59.32,146.87L59.46,146.86L72.37,144.61L72.52,144.56L81.95,142.3L82.09,142.3L87.17,143.04L87.31,143.08L93.69,145.55L93.84,145.61L118.2,155.4L118.35,155.43L124.15,156.07L124.3,156.07L133.43,155.03L133.58,155L146.34,152.49L146.49,152.45L161.43,147.04L161.57,146.98L176.36,142.75L176.51,142.72L192.46,140.16L192.61,140.15L199.28,140.43L199.42,140.45L206.1,142.5L206.24,142.57L212.04,146.09L212.19,146.2L224.23,155.71L224.37,155.83L245.4,170.41L245.55,170.5L251.78,174.04L251.93,174.11L257.87,176.26L258.02,176.29L265.71,177.64L265.85,177.65L276,177.58L276.15,177.57L285.72,175.86L285.87,175.81L292.83,172.89L292.97,172.81L298.92,168.81L299.06,168.69L305.16,163.31L305.3,163.17L325.32,146.04L325.46,145.94L338.8,138.69L338.95,138.63L347.07,135.94L347.22,135.91L353.16,135.63L353.31,135.64L358.96,137.14L359.11,137.2L365.35,140.66L365.49,140.76L373.47,146.96L373.61,147.09L382.46,155.12L382.61,155.26L397.98,168.54L398.12,168.64L407.84,174.29L407.99,174.35L414.08,176.57L414.22,176.6L420.46,177.5L420.61,177.5L434.38,177.23L434.53,177.23L442.94,176.2L443.09,176.16L448.31,173.95L448.45,173.86L453.24,170.48L453.38,170.36L467.6,158.03L467.74,157.91L480.8,149.17L480.94,149.09L490.22,144.37L490.37,144.31L497.33,142.45L497.47,142.43L504.58,142.67L504.73,142.7L510.96,144.53L511.11,144.59L542.44,158.32L542.58,158.44L546.5,162.49L546.64,162.68L550.85,169.18L550.99,169.44L555.78,179.19L555.92,179.51L569.12,207.11L569.27,207.37L575.36,216.75L575.5,216.93L578.84,219.67L578.98,219.72L580,219.9" style="vector-effect: none; fill: none; stroke: rgb(255, 161, 90); stroke-opacity: 1; stroke-width: 0px; opacity: 1;"/></g><g class="points"/><g class="text"/></g><g class="trace scatter trace4b278f" style="stroke-miterlimit: 2; opacity: 1;"><g class="fills"/><g class="errorbars"/><g class="lines"><path class="js-line" d="M0,230.21L1.89,229.41L2.03,229.29L4.35,226.38L4.5,226.15L9.14,216.74L9.28,216.41L17.11,196.84L17.26,196.46L26.4,173.77L26.54,173.46L32.92,161.92L33.07,161.71L38.14,155.43L38.29,155.28L43.22,151.04L43.37,150.94L50.18,146.96L50.33,146.9L55.69,145.04L55.84,145L65.27,143.81L65.41,143.79L72.08,142.15L72.23,142.1L81.66,139.61L81.8,139.6L87.31,140.32L87.46,140.36L96.45,143.93L96.59,143.99L112.55,150.62L112.69,150.67L119.8,152.73L119.94,152.75L125.31,153.08L125.46,153.07L134.3,152.02L134.45,152L148.37,148.96L148.52,148.91L163.02,143.5L163.17,143.45L175.49,139.97L175.64,139.94L192.9,137.1L193.04,137.09L201.31,137.8L201.46,137.84L206.82,139.87L206.97,139.95L214.51,145.08L214.65,145.19L236.41,161.86L236.55,161.96L253.38,172.61L253.52,172.67L261.21,174.96L261.36,174.98L268.75,175.76L268.9,175.76L278.32,175.34L278.47,175.32L285.58,173.84L285.72,173.79L291.23,171.56L291.38,171.49L297.61,167.55L297.76,167.44L306.03,160L306.17,159.86L323.87,144.03L324.01,143.93L336.19,136.64L336.34,136.58L344.75,133.21L344.9,133.17L351.13,132.19L351.28,132.19L356.5,132.94L356.64,132.98L362.88,135.83L363.03,135.92L371.73,142.37L371.87,142.49L387.25,156.8L387.39,156.94L399.14,166.92L399.28,167.02L408.57,172.34L408.71,172.41L417.12,175.03L417.27,175.05L423.65,175.4L423.8,175.4L440.19,174.65L440.33,174.62L445.41,173.2L445.55,173.13L450.19,170.47L450.34,170.36L457.73,164.17L457.88,164.04L472.24,151.72L472.38,151.61L487.18,142.6L487.32,142.53L495.3,139.6L495.44,139.57L501.54,139.08L501.68,139.09L507.77,140.24L507.92,140.29L515.6,143.45L515.75,143.52L530.69,150.16L530.83,150.22L540.55,154.23L540.7,154.33L544.9,157.89L545.05,158.05L549.54,164.25L549.69,164.49L555.2,175.35L555.34,175.68L570.43,207.21L570.57,207.45L576.95,216.38L577.1,216.51L579.71,217.82L579.85,217.83L580,217.84" style="vector-effect: none; fill: none; stroke: rgb(0, 0, 255); stroke-opacity: 1; stroke-width: 3px; opacity: 1;"/></g><g class="points"/><g class="text"/></g><g class="trace scatter traceec554e" style="stroke-miterlimit: 2;"><g class="fills"><g><path class="js-fill" d="M0,217.09L1.31,216.29L1.45,216.11L3.19,212.75L3.34,212.38L6.53,201.69L6.67,201.12L17.84,160.03L17.98,159.67L21.76,152.73L21.9,152.55L24.95,150.01L25.09,149.94L28.43,149.17L28.57,149.16L33.36,149.88L33.5,149.92L44.96,152.51L45.11,152.5L50.18,151.42L50.33,151.37L55.98,148.46L56.13,148.36L61.06,143.6L61.21,143.41L65.56,136.62L65.7,136.35L70.63,125.97L70.78,125.64L89.78,80.07L89.92,79.65L101.96,47.28L102.11,46.99L106.31,39.67L106.46,39.46L110.52,34.7L110.66,34.57L115.01,31.72L115.16,31.66L119.22,30.9L119.36,30.91L122.85,31.85L122.99,31.93L126.33,34.28L126.47,34.41L130.68,39L130.82,39.18L136.91,48.07L137.06,48.31L143.59,61.43L143.73,61.77L154.75,85.72L154.9,85.92L158.09,89.45L158.23,89.56L161.72,91.45L161.86,91.5L167.66,92.67L167.81,92.68L172.01,92.37L172.16,92.32L175.35,90.46L175.49,90.34L178.97,86.35L179.12,86.15L193.19,66.37L193.33,66.24L197.25,63.82L197.39,63.77L201.31,63.47L201.46,63.49L205.52,64.91L205.66,64.99L209.43,67.81L209.58,67.95L214.07,73.49L214.22,73.7L227.42,93.3L227.56,93.45L232.49,97.62L232.64,97.71L236.99,99.92L237.13,99.98L243.81,101.86L243.95,101.89L250.04,101.97L250.19,101.95L256.28,100.16L256.42,100.1L265.71,97.53L265.85,97.53L271.07,98.59L271.22,98.64L276.73,101.49L276.87,101.59L281.52,105.57L281.66,105.72L286.74,111.83L286.88,112.03L301.39,131.33L301.53,131.44L305.45,133.43L305.59,133.47L309.36,133.48L309.51,133.45L313.86,131.66L314,131.57L318.06,128.29L318.21,128.14L323.14,121.78L323.29,121.55L330.39,108.52L330.54,108.23L341.27,87.72L341.42,87.51L345.48,82.7L345.62,82.57L350.26,79.77L350.41,79.72L354.47,79.23L354.61,79.24L358.24,80.46L358.38,80.55L361.58,83.05L361.72,83.19L366.22,88.71L366.36,88.92L382.03,110.9L382.17,111.03L387.39,114.59L387.54,114.66L392.9,116.19L393.05,116.21L401.17,116.33L401.32,116.32L414.51,115.46L414.66,115.49L419.15,117.32L419.3,117.41L424.52,121.61L424.67,121.75L434.67,132.78L434.82,132.96L449.32,149.45L449.47,149.56L453.24,151.81L453.38,151.86L457.15,152.33L457.3,152.31L460.93,151.23L461.07,151.16L465.13,148.47L465.28,148.35L470.06,142.94L470.21,142.73L475.43,133.59L475.57,133.29L481.67,119.46L481.81,119.12L490.66,100.79L490.8,100.55L496.17,93.31L496.31,93.15L501.39,89.08L501.54,89.01L504.87,87.94L505.02,87.93L508.35,88.42L508.5,88.48L511.83,90.69L511.98,90.83L515.89,95.43L516.04,95.64L525.18,110L525.32,110.22L532.57,119.54L532.72,119.69L537.65,123.89L537.79,123.98L543.02,126.28L543.16,126.32L547.95,126.54L548.09,126.53L556.21,125.92L556.36,125.98L558.82,128L558.97,128.18L561.73,133.29L561.87,133.64L564.92,143.02L565.06,143.54L569.56,162.42L569.7,163.08L577.1,192.92L577.24,193.27L579.42,196.62L579.56,196.7L580,196.81L580,189.7L579.56,189.58L579.42,189.5L577.24,186.01L577.1,185.64L567.24,143.23L567.09,142.6L563.61,129.08L563.47,128.6L560.71,121.26L560.57,120.97L558.24,117.45L558.1,117.31L555.78,115.87L555.63,115.83L551.14,116.17L550.99,116.21L546.06,116.96L545.92,116.95L541.28,115.99L541.13,115.93L536.63,113.25L536.49,113.14L531.56,108.29L531.41,108.12L518.5,88.33L518.36,88.09L514.15,81.88L514.01,81.7L510.67,78.34L510.53,78.24L507.34,76.7L507.19,76.67L503.71,76.85L503.57,76.89L499.79,78.98L499.65,79.09L494.72,84.28L494.57,84.48L489.21,93.21L489.06,93.5L482.25,108.96L482.1,109.32L474.56,127.2L474.41,127.5L470.06,135.19L469.92,135.4L466.29,139.79L466.15,139.93L461.94,143.02L461.8,143.09L458.31,144.27L458.17,144.3L454.54,144.06L454.4,144.01L450.19,141.6L450.05,141.48L443.81,134.77L443.67,134.59L429.45,116.37L429.31,116.2L422.78,109.09L422.64,108.95L417.56,105.22L417.41,105.15L413.35,103.89L413.21,103.87L406.54,104.26L406.39,104.29L396.67,105.36L396.53,105.36L390.58,104.91L390.44,104.87L386.09,103.21L385.94,103.13L380.72,98.96L380.58,98.81L366.51,77.68L366.36,77.46L362.01,71.74L361.87,71.58L358.67,68.86L358.53,68.76L355.05,67.41L354.9,67.39L350.99,67.72L350.84,67.77L346.93,69.91L346.78,70.03L342.43,74.87L342.29,75.08L335.03,88.87L334.89,89.18L325.03,109.73L324.88,109.99L320.1,117.34L319.95,117.52L315.6,121.86L315.45,121.97L311.25,124.2L311.1,124.25L307.91,124.73L307.77,124.73L304.29,123.81L304.14,123.73L300.52,120.88L300.37,120.73L291.23,107.34L291.09,107.1L285.43,98.34L285.29,98.13L280.07,91.88L279.92,91.73L275.71,88.35L275.57,88.25L270.49,85.79L270.35,85.75L265.27,85.03L265.13,85.04L260.2,86.36L260.05,86.43L251.49,90.04L251.35,90.08L246.13,90.81L245.98,90.81L239.16,89.74L239.02,89.69L234.09,87.71L233.94,87.63L228.14,83.19L228,83.03L213.64,60.88L213.49,60.66L209.72,55.86L209.58,55.71L205.81,52.76L205.66,52.67L201.46,51.23L201.31,51.22L197.83,51.54L197.68,51.58L193.91,53.89L193.77,54.02L179.26,75.31L179.12,75.52L175.64,79.76L175.49,79.9L172.59,81.79L172.45,81.85L168.68,82.32L168.53,82.31L162.59,81.02L162.44,80.97L158.52,78.76L158.38,78.64L155.19,74.93L155.04,74.72L141.56,43.7L141.41,43.37L136.91,34.45L136.77,34.19L130.82,25.04L130.68,24.84L126.47,19.9L126.33,19.75L122.7,17.02L122.56,16.95L119.07,16.01L118.93,16L115.3,16.66L115.16,16.71L111.39,18.97L111.24,19.09L106.6,24.36L106.46,24.58L102.11,32.4L101.96,32.71L89.05,69.36L88.91,69.79L82.96,86.01L82.82,86.37L69.18,119.12L69.04,119.46L63.82,130.23L63.67,130.48L59.9,135.87L59.75,136.04L54.97,140.3L54.82,140.4L50.18,142.71L50.04,142.76L45.54,143.78L45.4,143.79L40.03,143.1L39.88,143.05L31.47,140.04L31.33,140.01L27.27,139.68L27.12,139.7L24.22,140.78L24.08,140.87L21.18,143.93L21.03,144.15L17.84,150.74L17.69,151.12L6.96,192.56L6.82,193.16L3.34,205.56L3.19,205.95L1.45,209.46L1.31,209.65L0,210.49Z" style="fill: rgb(148, 0, 211); fill-opacity: 0.15; stroke-width: 0;"/></g></g><g class="errorbars"/><g class="lines"><path class="js-line" d="M0,210.49L1.31,209.65L1.45,209.46L3.19,205.95L3.34,205.56L6.82,193.16L6.96,192.56L17.69,151.12L17.84,150.74L21.03,144.15L21.18,143.93L24.08,140.87L24.22,140.78L27.12,139.7L27.27,139.68L31.33,140.01L31.47,140.04L39.88,143.05L40.03,143.1L45.4,143.79L45.54,143.78L50.04,142.76L50.18,142.71L54.82,140.4L54.97,140.3L59.75,136.04L59.9,135.87L63.67,130.48L63.82,130.23L69.04,119.46L69.18,119.12L82.82,86.37L82.96,86.01L88.91,69.79L89.05,69.36L101.96,32.71L102.11,32.4L106.46,24.58L106.6,24.36L111.24,19.09L111.39,18.97L115.16,16.71L115.3,16.66L118.93,16L119.07,16.01L122.56,16.95L122.7,17.02L126.33,19.75L126.47,19.9L130.68,24.84L130.82,25.04L136.77,34.19L136.91,34.45L141.41,43.37L141.56,43.7L155.04,74.72L155.19,74.93L158.38,78.64L158.52,78.76L162.44,80.97L162.59,81.02L168.53,82.31L168.68,82.32L172.45,81.85L172.59,81.79L175.49,79.9L175.64,79.76L179.12,75.52L179.26,75.31L193.77,54.02L193.91,53.89L197.68,51.58L197.83,51.54L201.31,51.22L201.46,51.23L205.66,52.67L205.81,52.76L209.58,55.71L209.72,55.86L213.49,60.66L213.64,60.88L228,83.03L228.14,83.19L233.94,87.63L234.09,87.71L239.02,89.69L239.16,89.74L245.98,90.81L246.13,90.81L251.35,90.08L251.49,90.04L260.05,86.43L260.2,86.36L265.13,85.04L265.27,85.03L270.35,85.75L270.49,85.79L275.57,88.25L275.71,88.35L279.92,91.73L280.07,91.88L285.29,98.13L285.43,98.34L291.09,107.1L291.23,107.34L300.37,120.73L300.52,120.88L304.14,123.73L304.29,123.81L307.77,124.73L307.91,124.73L311.1,124.25L311.25,124.2L315.45,121.97L315.6,121.86L319.95,117.52L320.1,117.34L324.88,109.99L325.03,109.73L334.89,89.18L335.03,88.87L342.29,75.08L342.43,74.87L346.78,70.03L346.93,69.91L350.84,67.77L350.99,67.72L354.9,67.39L355.05,67.41L358.53,68.76L358.67,68.86L361.87,71.58L362.01,71.74L366.36,77.46L366.51,77.68L380.58,98.81L380.72,98.96L385.94,103.13L386.09,103.21L390.44,104.87L390.58,104.91L396.53,105.36L396.67,105.36L406.39,104.29L406.54,104.26L413.21,103.87L413.35,103.89L417.41,105.15L417.56,105.22L422.64,108.95L422.78,109.09L429.31,116.2L429.45,116.37L443.67,134.59L443.81,134.77L450.05,141.48L450.19,141.6L454.4,144.01L454.54,144.06L458.17,144.3L458.31,144.27L461.8,143.09L461.94,143.02L466.15,139.93L466.29,139.79L469.92,135.4L470.06,135.19L474.41,127.5L474.56,127.2L482.1,109.32L482.25,108.96L489.06,93.5L489.21,93.21L494.57,84.48L494.72,84.28L499.65,79.09L499.79,78.98L503.57,76.89L503.71,76.85L507.19,76.67L507.34,76.7L510.53,78.24L510.67,78.34L514.01,81.7L514.15,81.88L518.36,88.09L518.5,88.33L531.41,108.12L531.56,108.29L536.49,113.14L536.63,113.25L541.13,115.93L541.28,115.99L545.92,116.95L546.06,116.96L550.99,116.21L551.14,116.17L555.63,115.83L555.78,115.87L558.1,117.31L558.24,117.45L560.57,120.97L560.71,121.26L563.47,128.6L563.61,129.08L567.09,142.6L567.24,143.23L577.1,185.64L577.24,186.01L579.42,189.5L579.56,189.58L580,189.7" style="vector-effect: none; fill: none; stroke: rgb(255, 102, 146); stroke-opacity: 1; stroke-width: 0px; opacity: 1;"/></g><g class="points"/><g class="text"/></g><g class="trace scatter tracedf2707" style="stroke-miterlimit: 2;"><g class="fills"/><g class="errorbars"/><g class="lines"><path class="js-line" d="M0,217.09L1.31,216.29L1.45,216.11L3.19,212.75L3.34,212.38L6.53,201.69L6.67,201.12L17.84,160.03L17.98,159.67L21.76,152.73L21.9,152.55L24.95,150.01L25.09,149.94L28.43,149.17L28.57,149.16L33.36,149.88L33.5,149.92L44.96,152.51L45.11,152.5L50.18,151.42L50.33,151.37L55.98,148.46L56.13,148.36L61.06,143.6L61.21,143.41L65.56,136.62L65.7,136.35L70.63,125.97L70.78,125.64L89.78,80.07L89.92,79.65L101.96,47.28L102.11,46.99L106.31,39.67L106.46,39.46L110.52,34.7L110.66,34.57L115.01,31.72L115.16,31.66L119.22,30.9L119.36,30.91L122.85,31.85L122.99,31.93L126.33,34.28L126.47,34.41L130.68,39L130.82,39.18L136.91,48.07L137.06,48.31L143.59,61.43L143.73,61.77L154.75,85.72L154.9,85.92L158.09,89.45L158.23,89.56L161.72,91.45L161.86,91.5L167.66,92.67L167.81,92.68L172.01,92.37L172.16,92.32L175.35,90.46L175.49,90.34L178.97,86.35L179.12,86.15L193.19,66.37L193.33,66.24L197.25,63.82L197.39,63.77L201.31,63.47L201.46,63.49L205.52,64.91L205.66,64.99L209.43,67.81L209.58,67.95L214.07,73.49L214.22,73.7L227.42,93.3L227.56,93.45L232.49,97.62L232.64,97.71L236.99,99.92L237.13,99.98L243.81,101.86L243.95,101.89L250.04,101.97L250.19,101.95L256.28,100.16L256.42,100.1L265.71,97.53L265.85,97.53L271.07,98.59L271.22,98.64L276.73,101.49L276.87,101.59L281.52,105.57L281.66,105.72L286.74,111.83L286.88,112.03L301.39,131.33L301.53,131.44L305.45,133.43L305.59,133.47L309.36,133.48L309.51,133.45L313.86,131.66L314,131.57L318.06,128.29L318.21,128.14L323.14,121.78L323.29,121.55L330.39,108.52L330.54,108.23L341.27,87.72L341.42,87.51L345.48,82.7L345.62,82.57L350.26,79.77L350.41,79.72L354.47,79.23L354.61,79.24L358.24,80.46L358.38,80.55L361.58,83.05L361.72,83.19L366.22,88.71L366.36,88.92L382.03,110.9L382.17,111.03L387.39,114.59L387.54,114.66L392.9,116.19L393.05,116.21L401.17,116.33L401.32,116.32L414.51,115.46L414.66,115.49L419.15,117.32L419.3,117.41L424.52,121.61L424.67,121.75L434.67,132.78L434.82,132.96L449.32,149.45L449.47,149.56L453.24,151.81L453.38,151.86L457.15,152.33L457.3,152.31L460.93,151.23L461.07,151.16L465.13,148.47L465.28,148.35L470.06,142.94L470.21,142.73L475.43,133.59L475.57,133.29L481.67,119.46L481.81,119.12L490.66,100.79L490.8,100.55L496.17,93.31L496.31,93.15L501.39,89.08L501.54,89.01L504.87,87.94L505.02,87.93L508.35,88.42L508.5,88.48L511.83,90.69L511.98,90.83L515.89,95.43L516.04,95.64L525.18,110L525.32,110.22L532.57,119.54L532.72,119.69L537.65,123.89L537.79,123.98L543.02,126.28L543.16,126.32L547.95,126.54L548.09,126.53L556.21,125.92L556.36,125.98L558.82,128L558.97,128.18L561.73,133.29L561.87,133.64L564.92,143.02L565.06,143.54L569.56,162.42L569.7,163.08L577.1,192.92L577.24,193.27L579.42,196.62L579.56,196.7L580,196.81" style="vector-effect: none; fill: none; stroke: rgb(182, 232, 128); stroke-opacity: 1; stroke-width: 0px; opacity: 1;"/></g><g class="points"/><g class="text"/></g><g class="trace scatter trace269e0f" style="stroke-miterlimit: 2; opacity: 1;"><g class="fills"/><g class="errorbars"/><g class="lines"><path class="js-line" d="M0,213.79L1.31,212.97L1.45,212.79L3.19,209.35L3.34,208.97L6.82,196.86L6.96,196.27L17.69,155.76L17.84,155.39L21.03,148.93L21.18,148.72L24.08,145.7L24.22,145.6L27.56,144.44L27.7,144.43L32.05,144.88L32.2,144.92L45.54,148.13L45.69,148.11L50.76,146.85L50.91,146.79L55.84,144.13L55.98,144.02L59.61,140.74L59.75,140.58L63.38,135.65L63.53,135.42L68.89,124.82L69.04,124.49L88.91,76.17L89.05,75.75L102.4,39.1L102.54,38.8L107.76,30.23L107.91,30.05L111.97,26.01L112.11,25.9L116.75,23.68L116.9,23.65L120.53,23.63L120.67,23.66L124.3,25.36L124.44,25.46L128.65,29.44L128.79,29.6L134.01,36.6L134.16,36.82L140.69,48.42L140.83,48.73L145.62,59.95L145.76,60.31L154.46,79.55L154.61,79.77L158.09,83.91L158.23,84.04L162.15,86.23L162.3,86.28L168.82,87.54L168.97,87.54L172.74,86.92L172.88,86.86L176.07,84.57L176.22,84.42L180.43,78.9L180.57,78.67L193.33,60.33L193.48,60.2L197.1,57.84L197.25,57.78L200.88,57.3L201.02,57.31L204.5,58.26L204.65,58.32L209,61.28L209.14,61.41L213.06,66.03L213.2,66.24L219,75.63L219.15,75.88L226.11,86.34L226.26,86.52L231.04,91.19L231.19,91.3L235.68,93.92L235.83,93.98L240.91,95.71L241.05,95.74L246.71,96.48L246.85,96.48L253.23,95.36L253.38,95.31L265.85,91.27L266,91.27L270.64,92.14L270.78,92.19L275.71,94.59L275.86,94.68L281.81,99.8L281.95,99.95L287.03,106.44L287.17,106.65L301.39,126.53L301.53,126.65L305.45,128.86L305.59,128.91L309.65,129.01L309.8,128.98L314,127.25L314.15,127.16L318.5,123.52L318.64,123.37L322.85,117.82L323,117.59L329.67,105.26L329.81,104.96L342.72,80.08L342.87,79.89L346.78,75.83L346.93,75.72L350.55,73.77L350.7,73.72L354.61,73.29L354.76,73.31L358.53,74.7L358.67,74.79L362.01,77.61L362.16,77.77L366.8,83.83L366.94,84.05L381.45,105.02L381.59,105.16L386.52,108.8L386.67,108.87L390.73,110.35L390.87,110.39L397.25,110.91L397.4,110.9L405.23,110.17L405.38,110.14L413.93,109.67L414.08,109.69L418.43,111.3L418.57,111.39L422.49,114.29L422.64,114.42L430.18,122.41L430.32,122.57L440.77,135.53L440.91,135.72L450.19,145.86L450.34,145.97L454.11,148L454.25,148.04L457.44,148.33L457.59,148.32L461.65,147.01L461.8,146.94L466.44,143.46L466.58,143.32L470.64,138.2L470.79,137.98L475.72,128.86L475.86,128.55L483.7,110.06L483.84,109.71L491.24,94.69L491.38,94.45L497.18,86.82L497.33,86.67L501.68,83.33L501.83,83.25L505.45,82.22L505.6,82.21L508.79,82.9L508.93,82.97L512.12,85.28L512.27,85.42L517.2,91.77L517.34,92L532.86,114.8L533.01,114.95L537.94,119.14L538.08,119.23L543.16,121.46L543.31,121.49L547.95,121.69L548.09,121.67L556.21,120.97L556.36,121.03L558.82,123.06L558.97,123.25L561.44,127.74L561.58,128.08L564.63,137.3L564.77,137.82L569.27,156.81L569.41,157.48L577.24,189.64L577.39,189.99L579.42,193.06L579.56,193.14L580,193.26" style="vector-effect: none; fill: none; stroke: rgb(148, 0, 211); stroke-opacity: 1; stroke-width: 3px; opacity: 1;"/></g><g class="points"/><g class="text"/></g><g class="trace scatter trace2924a2" style="stroke-miterlimit: 2;"><g class="fills"><g><path class="js-fill" d="M0,304L2.32,303.18L2.47,303.08L6.09,299.59L6.24,299.43L11.46,294.9L11.6,294.82L15.66,293.49L15.81,293.47L22.48,293.29L22.63,293.29L39.88,293.18L40.03,293.16L121.83,287.88L121.98,287.89L133.87,289.45L134.01,289.48L150.98,292.12L151.13,292.14L170.13,294.18L170.27,294.17L179.26,292.82L179.41,292.79L191.59,291.44L191.74,291.43L202.91,291.79L203.05,291.81L220.6,292.35L220.75,292.34L230.03,293.09L230.17,293.11L242.79,294.88L242.94,294.89L253.96,294.16L254.1,294.14L274.41,293.23L274.55,293.24L302.55,295L302.69,295L319.37,294.25L319.51,294.23L337.06,292.31L337.21,292.29L356.35,291.68L356.5,291.68L375.79,292.42L375.93,292.44L399.14,293.93L399.28,293.91L415.82,293.38L415.96,293.39L446.86,294.85L447,294.85L470.93,294.11L471.08,294.1L491.82,291.92L491.96,291.9L506.32,291.56L506.47,291.57L553.02,294.06L553.17,294.05L566.08,293.84L566.22,293.88L569.85,295.62L569.99,295.72L574.34,299.82L574.49,299.97L578.26,303.17L578.4,303.24L580,303.63L580,302.79L579.27,302.7L579.13,302.66L574.92,299.49L574.78,299.33L569.85,294.54L569.7,294.44L566.37,292.8L566.22,292.75L552.73,293.01L552.59,293.02L531.99,291.94L531.85,291.92L502.12,290.15L501.97,290.15L488.77,291.18L488.63,291.2L471.22,293.11L471.08,293.12L449.03,293.86L448.89,293.86L416.25,292.21L416.11,292.2L395.22,293.15L395.08,293.16L375.06,291.22L374.92,291.2L351.57,290.45L351.42,290.45L320.39,293.16L320.24,293.18L305.74,293.92L305.59,293.93L295.29,293.99L295.15,293.99L278.9,292.51L278.76,292.48L269.04,291.75L268.9,291.75L253.67,293.1L253.52,293.12L243.37,293.86L243.23,293.85L229.88,291.92L229.74,291.9L213.93,291.26L213.78,291.26L202.76,290.54L202.62,290.52L192.61,290.13L192.46,290.14L172.74,292.82L172.59,292.84L167.08,293.2L166.94,293.2L153.3,291.23L153.16,291.21L136.77,288.58L136.62,288.55L123.14,286.44L122.99,286.43L82.82,288.58L82.67,288.6L67.88,289.85L67.73,289.86L43.08,291.8L42.93,291.82L20.74,292.23L20.6,292.23L15.37,292.52L15.23,292.54L11.17,294.06L11.02,294.15L6.82,297.89L6.67,298.05L2.47,302.27L2.32,302.37L0,303.22Z" style="fill: rgb(207, 184, 124); fill-opacity: 0.15; stroke-width: 0;"/></g></g><g class="errorbars"/><g class="lines"><path class="js-line" d="M0,303.22L2.32,302.37L2.47,302.27L6.67,298.05L6.82,297.89L11.02,294.15L11.17,294.06L15.23,292.54L15.37,292.52L20.6,292.23L20.74,292.23L42.93,291.82L43.08,291.8L67.73,289.86L67.88,289.85L82.67,288.6L82.82,288.58L122.99,286.43L123.14,286.44L136.62,288.55L136.77,288.58L153.16,291.21L153.3,291.23L166.94,293.2L167.08,293.2L172.59,292.84L172.74,292.82L192.46,290.14L192.61,290.13L202.62,290.52L202.76,290.54L213.78,291.26L213.93,291.26L229.74,291.9L229.88,291.92L243.23,293.85L243.37,293.86L253.52,293.12L253.67,293.1L268.9,291.75L269.04,291.75L278.76,292.48L278.9,292.51L295.15,293.99L295.29,293.99L305.59,293.93L305.74,293.92L320.24,293.18L320.39,293.16L351.42,290.45L351.57,290.45L374.92,291.2L375.06,291.22L395.08,293.16L395.22,293.15L416.11,292.2L416.25,292.21L448.89,293.86L449.03,293.86L471.08,293.12L471.22,293.11L488.63,291.2L488.77,291.18L501.97,290.15L502.12,290.15L531.85,291.92L531.99,291.94L552.59,293.02L552.73,293.01L566.22,292.75L566.37,292.8L569.7,294.44L569.85,294.54L574.78,299.33L574.92,299.49L579.13,302.66L579.27,302.7L580,302.79" style="vector-effect: none; fill: none; stroke: rgb(254, 203, 82); stroke-opacity: 1; stroke-width: 0px; opacity: 1;"/></g><g class="points"/><g class="text"/></g><g class="trace scatter tracedd4d9b" style="stroke-miterlimit: 2;"><g class="fills"/><g class="errorbars"/><g class="lines"><path class="js-line" d="M0,304L2.32,303.18L2.47,303.08L6.09,299.59L6.24,299.43L11.46,294.9L11.6,294.82L15.66,293.49L15.81,293.47L22.48,293.29L22.63,293.29L39.88,293.18L40.03,293.16L121.83,287.88L121.98,287.89L133.87,289.45L134.01,289.48L150.98,292.12L151.13,292.14L170.13,294.18L170.27,294.17L179.26,292.82L179.41,292.79L191.59,291.44L191.74,291.43L202.91,291.79L203.05,291.81L220.6,292.35L220.75,292.34L230.03,293.09L230.17,293.11L242.79,294.88L242.94,294.89L253.96,294.16L254.1,294.14L274.41,293.23L274.55,293.24L302.55,295L302.69,295L319.37,294.25L319.51,294.23L337.06,292.31L337.21,292.29L356.35,291.68L356.5,291.68L375.79,292.42L375.93,292.44L399.14,293.93L399.28,293.91L415.82,293.38L415.96,293.39L446.86,294.85L447,294.85L470.93,294.11L471.08,294.1L491.82,291.92L491.96,291.9L506.32,291.56L506.47,291.57L553.02,294.06L553.17,294.05L566.08,293.84L566.22,293.88L569.85,295.62L569.99,295.72L574.34,299.82L574.49,299.97L578.26,303.17L578.4,303.24L580,303.63" style="vector-effect: none; fill: none; stroke: rgb(99, 110, 250); stroke-opacity: 1; stroke-width: 0px; opacity: 1;"/></g><g class="points"/><g class="text"/></g><g class="trace scatter trace890d33" style="stroke-miterlimit: 2; opacity: 1;"><g class="fills"/><g class="errorbars"/><g class="lines"><path class="js-line" d="M0,303.61L2.32,302.77L2.47,302.67L5.95,299.3L6.09,299.14L11.6,294.31L11.75,294.24L15.37,293.03L15.52,293L22.48,292.78L22.63,292.79L39.74,292.67L39.88,292.65L122.85,287.19L122.99,287.2L133.43,288.64L133.58,288.66L151.13,291.53L151.27,291.55L170.42,293.63L170.56,293.61L178.83,292.31L178.97,292.29L189.56,290.92L189.71,290.91L200.3,290.93L200.44,290.94L220.75,291.75L220.89,291.75L227.13,292.06L227.27,292.08L246.13,294.33L246.27,294.32L257.58,293.18L257.73,293.16L271.8,292.44L271.94,292.44L302.84,294.48L302.98,294.48L319.66,293.73L319.8,293.71L335.32,291.93L335.47,291.91L351.13,291.03L351.28,291.03L374.92,291.77L375.06,291.79L388.99,293.47L389.13,293.48L398.85,293.42L398.99,293.4L415.96,292.79L416.11,292.8L446.86,294.34L447,294.34L457.15,294.27L457.3,294.27L481.23,292.71L481.38,292.69L503.86,290.82L504,290.83L552.88,293.53L553.02,293.52L566.22,293.32L566.37,293.36L570.14,295.29L570.28,295.41L574.2,299.19L574.34,299.34L578.69,302.94L578.84,302.99L580,303.21" style="vector-effect: none; fill: none; stroke: rgb(207, 184, 124); stroke-opacity: 1; stroke-width: 3px; opacity: 1;"/></g><g class="points"/><g class="text"/></g></g></g></g><g class="zerolinelayer-above"/><path class="xlines-above crisp" d="M79,420.5H661M79,99.5H661" style="fill: none; stroke-width: 1px; stroke: rgb(0, 0, 0); stroke-opacity: 1;"/><path class="ylines-above crisp" d="M79.5,100V420M660.5,100V420" style="fill: none; stroke-width: 1px; stroke: rgb(0, 0, 0); stroke-opacity: 1;"/><g class="overlines-above"/><g class="xaxislayer-above"><path class="xtick ticks crisp" d="M0,421v5" transform="translate(80,0)" style="stroke: rgb(68, 68, 68); stroke-opacity: 1; stroke-width: 1px;"/><path class="xtick ticks crisp" d="M0,421v5" transform="translate(152.5,0)" style="stroke: rgb(68, 68, 68); stroke-opacity: 1; stroke-width: 1px;"/><path class="xtick ticks crisp" d="M0,421v5" transform="translate(225,0)" style="stroke: rgb(68, 68, 68); stroke-opacity: 1; stroke-width: 1px;"/><path class="xtick ticks crisp" d="M0,421v5" transform="translate(297.5,0)" style="stroke: rgb(68, 68, 68); stroke-opacity: 1; stroke-width: 1px;"/><path class="xtick ticks crisp" d="M0,421v5" transform="translate(370,0)" style="stroke: rgb(68, 68, 68); stroke-opacity: 1; stroke-width: 1px;"/><path class="xtick ticks crisp" d="M0,421v5" transform="translate(442.5,0)" style="stroke: rgb(68, 68, 68); stroke-opacity: 1; stroke-width: 1px;"/><path class="xtick ticks crisp" d="M0,421v5" transform="translate(515,0)" style="stroke: rgb(68, 68, 68); stroke-opacity: 1; stroke-width: 1px;"/><path class="xtick ticks crisp" d="M0,421v5" transform="translate(587.5,0)" style="stroke: rgb(68, 68, 68); stroke-opacity: 1; stroke-width: 1px;"/><path class="xtick ticks crisp" d="M0,421v5" transform="translate(660,0)" style="stroke: rgb(68, 68, 68); stroke-opacity: 1; stroke-width: 1px;"/><g class="xtick"><text text-anchor="middle" x="0" y="440.4" transform="translate(80,0)" style="font-family: 'Open Sans', verdana, arial, sans-serif; font-size: 12px; fill: rgb(42, 63, 95); fill-opacity: 1; white-space: pre;">−2000</text></g><g class="xtick"><text text-anchor="middle" x="0" y="440.4" style="font-family: 'Open Sans', verdana, arial, sans-serif; font-size: 12px; fill: rgb(42, 63, 95); fill-opacity: 1; white-space: pre;" transform="translate(152.5,0)">−1500</text></g><g class="xtick"><text text-anchor="middle" x="0" y="440.4" style="font-family: 'Open Sans', verdana, arial, sans-serif; font-size: 12px; fill: rgb(42, 63, 95); fill-opacity: 1; white-space: pre;" transform="translate(225,0)">−1000</text></g><g class="xtick"><text text-anchor="middle" x="0" y="440.4" style="font-family: 'Open Sans', verdana, arial, sans-serif; font-size: 12px; fill: rgb(42, 63, 95); fill-opacity: 1; white-space: pre;" transform="translate(297.5,0)">−500</text></g><g class="xtick"><text text-anchor="middle" x="0" y="440.4" style="font-family: 'Open Sans', verdana, arial, sans-serif; font-size: 12px; fill: rgb(42, 63, 95); fill-opacity: 1; white-space: pre;" transform="translate(370,0)">0</text></g><g class="xtick"><text text-anchor="middle" x="0" y="440.4" style="font-family: 'Open Sans', verdana, arial, sans-serif; font-size: 12px; fill: rgb(42, 63, 95); fill-opacity: 1; white-space: pre;" transform="translate(442.5,0)">500</text></g><g class="xtick"><text text-anchor="middle" x="0" y="440.4" style="font-family: 'Open Sans', verdana, arial, sans-serif; font-size: 12px; fill: rgb(42, 63, 95); fill-opacity: 1; white-space: pre;" transform="translate(515,0)">1000</text></g><g class="xtick"><text text-anchor="middle" x="0" y="440.4" style="font-family: 'Open Sans', verdana, arial, sans-serif; font-size: 12px; fill: rgb(42, 63, 95); fill-opacity: 1; white-space: pre;" transform="translate(587.5,0)">1500</text></g><g class="xtick"><text text-anchor="middle" x="0" y="440.4" style="font-family: 'Open Sans', verdana, arial, sans-serif; font-size: 12px; fill: rgb(42, 63, 95); fill-opacity: 1; white-space: pre;" transform="translate(660,0)">2000</text></g></g><g class="yaxislayer-above"><path class="ytick ticks crisp" d="M79,0h-5" transform="translate(0,375.81)" style="stroke: rgb(68, 68, 68); stroke-opacity: 1; stroke-width: 1px;"/><path class="ytick ticks crisp" d="M79,0h-5" transform="translate(0,325.5)" style="stroke: rgb(68, 68, 68); stroke-opacity: 1; stroke-width: 1px;"/><path class="ytick ticks crisp" d="M79,0h-5" transform="translate(0,275.18)" style="stroke: rgb(68, 68, 68); stroke-opacity: 1; stroke-width: 1px;"/><path class="ytick ticks crisp" d="M79,0h-5" transform="translate(0,224.87)" style="stroke: rgb(68, 68, 68); stroke-opacity: 1; stroke-width: 1px;"/><path class="ytick ticks crisp" d="M79,0h-5" transform="translate(0,174.56)" style="stroke: rgb(68, 68, 68); stroke-opacity: 1; stroke-width: 1px;"/><path class="ytick ticks crisp" d="M79,0h-5" transform="translate(0,124.25)" style="stroke: rgb(68, 68, 68); stroke-opacity: 1; stroke-width: 1px;"/><g class="ytick"><text text-anchor="end" x="71.6" y="4.199999999999999" transform="translate(0,375.81)" style="font-family: 'Open Sans', verdana, arial, sans-serif; font-size: 12px; fill: rgb(42, 63, 95); fill-opacity: 1; white-space: pre;">5k</text></g><g class="ytick"><text text-anchor="end" x="71.6" y="4.199999999999999" style="font-family: 'Open Sans', verdana, arial, sans-serif; font-size: 12px; fill: rgb(42, 63, 95); fill-opacity: 1; white-space: pre;" transform="translate(0,325.5)">10k</text></g><g class="ytick"><text text-anchor="end" x="71.6" y="4.199999999999999" style="font-family: 'Open Sans', verdana, arial, sans-serif; font-size: 12px; fill: rgb(42, 63, 95); fill-opacity: 1; white-space: pre;" transform="translate(0,275.18)">15k</text></g><g class="ytick"><text text-anchor="end" x="71.6" y="4.199999999999999" style="font-family: 'Open Sans', verdana, arial, sans-serif; font-size: 12px; fill: rgb(42, 63, 95); fill-opacity: 1; white-space: pre;" transform="translate(0,224.87)">20k</text></g><g class="ytick"><text text-anchor="end" x="71.6" y="4.199999999999999" style="font-family: 'Open Sans', verdana, arial, sans-serif; font-size: 12px; fill: rgb(42, 63, 95); fill-opacity: 1; white-space: pre;" transform="translate(0,174.56)">25k</text></g><g class="ytick"><text text-anchor="end" x="71.6" y="4.199999999999999" style="font-family: 'Open Sans', verdana, arial, sans-serif; font-size: 12px; fill: rgb(42, 63, 95); fill-opacity: 1; white-space: pre;" transform="translate(0,124.25)">30k</text></g></g><g class="overaxes-above"/></g></g><g class="polarlayer"/><g class="smithlayer"/><g class="ternarylayer"/><g class="geolayer"/><g class="funnelarealayer"/><g class="pielayer"/><g class="iciclelayer"/><g class="treemaplayer"/><g class="sunburstlayer"/><g class="glimages"/><defs id="topdefs-8b881d"><g class="clips"/><clipPath id="legend8b881d"><rect width="515" height="67" x="1" y="1"/></clipPath></defs><g class="layer-above"><g class="imagelayer"/><g class="shapelayer"><g class="shape-group" data-index="0" clip-path="url(#clip8b881dx)"><path data-index="0" fill-rule="evenodd" d="M220.51,420L220.51,100" style="opacity: 1; stroke: rgb(128, 128, 128); stroke-opacity: 1; fill: rgb(0, 0, 0); fill-opacity: 0; stroke-dasharray: 9px, 9px; stroke-width: 2px;"/></g><g class="shape-group" data-index="1" clip-path="url(#clip8b881dx)"><path data-index="1" fill-rule="evenodd" d="M297.5,420L297.5,100" style="opacity: 1; stroke: rgb(128, 128, 128); stroke-opacity: 1; fill: rgb(0, 0, 0); fill-opacity: 0; stroke-dasharray: 3px, 3px; stroke-width: 2px;"/></g><g class="shape-group" data-index="2" clip-path="url(#clip8b881dx)"><path data-index="2" fill-rule="evenodd" d="M370,420L370,100" style="opacity: 1; stroke: rgb(128, 128, 128); stroke-opacity: 1; fill: rgb(0, 0, 0); fill-opacity: 0; stroke-dasharray: 9px, 9px; stroke-width: 2px;"/></g><g class="shape-group" data-index="3" clip-path="url(#clip8b881dx)"><path data-index="3" fill-rule="evenodd" d="M447,420L447,100" style="opacity: 1; stroke: rgb(128, 128, 128); stroke-opacity: 1; fill: rgb(0, 0, 0); fill-opacity: 0; stroke-dasharray: 3px, 3px; stroke-width: 2px;"/></g><g class="shape-group" data-index="4" clip-path="url(#clip8b881dx)"><path data-index="4" fill-rule="evenodd" d="M519.5,420L519.5,100" style="opacity: 1; stroke: rgb(128, 128, 128); stroke-opacity: 1; fill: rgb(0, 0, 0); fill-opacity: 0; stroke-dasharray: 9px, 9px; stroke-width: 2px;"/></g><g class="shape-group" data-index="5" clip-path="url(#clip8b881dx)"><path data-index="5" fill-rule="evenodd" d="M596.49,420L596.49,100" style="opacity: 1; stroke: rgb(128, 128, 128); stroke-opacity: 1; fill: rgb(0, 0, 0); fill-opacity: 0; stroke-dasharray: 3px, 3px; stroke-width: 2px;"/></g><g class="shape-group" data-index="6" clip-path="url(#clip8b881dx)"><path data-index="6" fill-rule="evenodd" d="M370,420L370,100" style="opacity: 1; stroke: rgb(255, 0, 0); stroke-opacity: 1; fill: rgb(0, 0, 0); fill-opacity: 0; stroke-dasharray: 9px, 9px; stroke-width: 2px;"/></g></g></g><g class="infolayer"><g class="legend" pointer-events="all" transform="translate(143,24.599999999999994)"><rect class="bg" shape-rendering="crispEdges" style="stroke: rgb(0, 0, 0); stroke-opacity: 1; fill: rgb(255, 255, 255); fill-opacity: 0.8; stroke-width: 1px;" width="516" height="68" x="0.5" y="0.5"/><g class="scrollbox" transform="" clip-path="url(#legend8b881d)"><g class="groups"><g class="traces" transform="translate(1,15.5)" style="opacity: 1;"><text class="legendtext" text-anchor="start" x="40" y="4.680000000000001" style="font-family: 'Open Sans', verdana, arial, sans-serif; font-size: 12px; fill: rgb(42, 63, 95); fill-opacity: 1; white-space: pre;">Gamma</text><g class="layers" style="opacity: 1;"><g class="legendfill"/><g class="legendlines"><path class="js-line" d="M5,0h30" style="fill: none; stroke: rgb(207, 184, 124); stroke-opacity: 1; stroke-width: 3px;"/></g><g class="legendsymbols"><g class="legendpoints"/></g></g><rect class="legendtoggle" x="0" y="-9.5" width="89.5625" height="19" style="fill: rgb(0, 0, 0); fill-opacity: 0;"/></g><g class="traces" transform="translate(132.8671875,15.5)" style="opacity: 1;"><text class="legendtext" text-anchor="start" x="40" y="4.680000000000001" style="font-family: 'Open Sans', verdana, arial, sans-serif; font-size: 12px; fill: rgb(42, 63, 95); fill-opacity: 1; white-space: pre;">Gamma_down</text><g class="layers"><g class="legendfill"><path class="js-fill" d="M5,-2h30v6h-30z" style="stroke-width: 0; fill: rgb(207, 184, 124); fill-opacity: 0.15;"/></g><g class="legendlines"><path class="js-line" d="M5,-2h30" style="fill: none; stroke: rgb(99, 110, 250); stroke-opacity: 1; stroke-width: 0px;"/></g><g class="legendsymbols"><g class="legendpoints"/></g></g><rect class="legendtoggle" x="0" y="-9.5" width="129.3671875" height="19" style="fill: rgb(0, 0, 0); fill-opacity: 0;"/></g><g class="traces" transform="translate(264.734375,15.5)" style="opacity: 1;"><text class="legendtext" text-anchor="start" x="40" y="4.680000000000001" style="font-family: 'Open Sans', verdana, arial, sans-serif; font-size: 12px; fill: rgb(42, 63, 95); fill-opacity: 1; white-space: pre;">Gamma_up</text><g class="layers"><g class="legendfill"/><g class="legendlines"><path class="js-line" d="M5,0h30" style="fill: none; stroke: rgb(254, 203, 82); stroke-opacity: 1; stroke-width: 0px;"/></g><g class="legendsymbols"><g class="legendpoints"/></g></g><rect class="legendtoggle" x="0" y="-9.5" width="112.265625" height="19" style="fill: rgb(0, 0, 0); fill-opacity: 0;"/></g><g class="traces" transform="translate(396.6015625,15.5)" style="opacity: 1;"><text class="legendtext" text-anchor="start" x="40" y="4.680000000000001" style="font-family: 'Open Sans', verdana, arial, sans-serif; font-size: 12px; fill: rgb(42, 63, 95); fill-opacity: 1; white-space: pre;">Beta</text><g class="layers" style="opacity: 1;"><g class="legendfill"/><g class="legendlines"><path class="js-line" d="M5,0h30" style="fill: none; stroke: rgb(148, 0, 211); stroke-opacity: 1; stroke-width: 3px;"/></g><g class="legendsymbols"><g class="legendpoints"/></g></g><rect class="legendtoggle" x="0" y="-9.5" width="69.8125" height="19" style="fill: rgb(0, 0, 0); fill-opacity: 0;"/></g><g class="traces" transform="translate(1,34.5)" style="opacity: 1;"><text class="legendtext" text-anchor="start" x="40" y="4.680000000000001" style="font-family: 'Open Sans', verdana, arial, sans-serif; font-size: 12px; fill: rgb(42, 63, 95); fill-opacity: 1; white-space: pre;">Beta_down</text><g class="layers"><g class="legendfill"><path class="js-fill" d="M5,-2h30v6h-30z" style="stroke-width: 0; fill: rgb(148, 0, 211); fill-opacity: 0.15;"/></g><g class="legendlines"><path class="js-line" d="M5,-2h30" style="fill: none; stroke: rgb(182, 232, 128); stroke-opacity: 1; stroke-width: 0px;"/></g><g class="legendsymbols"><g class="legendpoints"/></g></g><rect class="legendtoggle" x="0" y="-9.5" width="109.6171875" height="19" style="fill: rgb(0, 0, 0); fill-opacity: 0;"/></g><g class="traces" transform="translate(132.8671875,34.5)" style="opacity: 1;"><text class="legendtext" text-anchor="start" x="40" y="4.680000000000001" style="font-family: 'Open Sans', verdana, arial, sans-serif; font-size: 12px; fill: rgb(42, 63, 95); fill-opacity: 1; white-space: pre;">Beta_up</text><g class="layers"><g class="legendfill"/><g class="legendlines"><path class="js-line" d="M5,0h30" style="fill: none; stroke: rgb(255, 102, 146); stroke-opacity: 1; stroke-width: 0px;"/></g><g class="legendsymbols"><g class="legendpoints"/></g></g><rect class="legendtoggle" x="0" y="-9.5" width="92.515625" height="19" style="fill: rgb(0, 0, 0); fill-opacity: 0;"/></g><g class="traces" transform="translate(264.734375,34.5)" style="opacity: 1;"><text class="legendtext" text-anchor="start" x="40" y="4.680000000000001" style="font-family: 'Open Sans', verdana, arial, sans-serif; font-size: 12px; fill: rgb(42, 63, 95); fill-opacity: 1; white-space: pre;">Alpha</text><g class="layers" style="opacity: 1;"><g class="legendfill"/><g class="legendlines"><path class="js-line" d="M5,0h30" style="fill: none; stroke: rgb(0, 0, 255); stroke-opacity: 1; stroke-width: 3px;"/></g><g class="legendsymbols"><g class="legendpoints"/></g></g><rect class="legendtoggle" x="0" y="-9.5" width="76.2734375" height="19" style="fill: rgb(0, 0, 0); fill-opacity: 0;"/></g><g class="traces" transform="translate(396.6015625,34.5)" style="opacity: 1;"><text class="legendtext" text-anchor="start" x="40" y="4.680000000000001" style="font-family: 'Open Sans', verdana, arial, sans-serif; font-size: 12px; fill: rgb(42, 63, 95); fill-opacity: 1; white-space: pre;">Alpha_down</text><g class="layers"><g class="legendfill"><path class="js-fill" d="M5,-2h30v6h-30z" style="stroke-width: 0; fill: rgb(0, 0, 255); fill-opacity: 0.15;"/></g><g class="legendlines"><path class="js-line" d="M5,-2h30" style="fill: none; stroke: rgb(255, 161, 90); stroke-opacity: 1; stroke-width: 0px;"/></g><g class="legendsymbols"><g class="legendpoints"/></g></g><rect class="legendtoggle" x="0" y="-9.5" width="116.078125" height="19" style="fill: rgb(0, 0, 0); fill-opacity: 0;"/></g><g class="traces" transform="translate(1,53.5)" style="opacity: 1;"><text class="legendtext" text-anchor="start" x="40" y="4.680000000000001" style="font-family: 'Open Sans', verdana, arial, sans-serif; font-size: 12px; fill: rgb(42, 63, 95); fill-opacity: 1; white-space: pre;">Alpha_up</text><g class="layers"><g class="legendfill"/><g class="legendlines"><path class="js-line" d="M5,0h30" style="fill: none; stroke: rgb(171, 99, 250); stroke-opacity: 1; stroke-width: 0px;"/></g><g class="legendsymbols"><g class="legendpoints"/></g></g><rect class="legendtoggle" x="0" y="-9.5" width="98.9765625" height="19" style="fill: rgb(0, 0, 0); fill-opacity: 0;"/></g><g class="traces" transform="translate(132.8671875,53.5)" style="opacity: 1;"><text class="legendtext" text-anchor="start" x="40" y="4.680000000000001" style="font-family: 'Open Sans', verdana, arial, sans-serif; font-size: 12px; fill: rgb(42, 63, 95); fill-opacity: 1; white-space: pre;">Theta</text><g class="layers" style="opacity: 1;"><g class="legendfill"/><g class="legendlines"><path class="js-line" d="M5,0h30" style="fill: none; stroke: rgb(75, 0, 130); stroke-opacity: 1; stroke-width: 3px;"/></g><g class="legendsymbols"><g class="legendpoints"/></g></g><rect class="legendtoggle" x="0" y="-9.5" width="77.078125" height="19" style="fill: rgb(0, 0, 0); fill-opacity: 0;"/></g><g class="traces" transform="translate(264.734375,53.5)" style="opacity: 1;"><text class="legendtext" text-anchor="start" x="40" y="4.680000000000001" style="font-family: 'Open Sans', verdana, arial, sans-serif; font-size: 12px; fill: rgb(42, 63, 95); fill-opacity: 1; white-space: pre;">Theta_down</text><g class="layers"><g class="legendfill"><path class="js-fill" d="M5,-2h30v6h-30z" style="stroke-width: 0; fill: rgb(75, 0, 130); fill-opacity: 0.15;"/></g><g class="legendlines"><path class="js-line" d="M5,-2h30" style="fill: none; stroke: rgb(239, 85, 59); stroke-opacity: 1; stroke-width: 0px;"/></g><g class="legendsymbols"><g class="legendpoints"/></g></g><rect class="legendtoggle" x="0" y="-9.5" width="116.875" height="19" style="fill: rgb(0, 0, 0); fill-opacity: 0;"/></g><g class="traces" transform="translate(396.6015625,53.5)" style="opacity: 1;"><text class="legendtext" text-anchor="start" x="40" y="4.680000000000001" style="font-family: 'Open Sans', verdana, arial, sans-serif; font-size: 12px; fill: rgb(42, 63, 95); fill-opacity: 1; white-space: pre;">Theta_up</text><g class="layers"><g class="legendfill"/><g class="legendlines"><path class="js-line" d="M5,0h30" style="fill: none; stroke: rgb(99, 110, 250); stroke-opacity: 1; stroke-width: 0px;"/></g><g class="legendsymbols"><g class="legendpoints"/></g></g><rect class="legendtoggle" x="0" y="-9.5" width="99.7734375" height="19" style="fill: rgb(0, 0, 0); fill-opacity: 0;"/></g></g></g><rect class="scrollbar" rx="20" ry="3" width="0" height="0" style="fill: rgb(128, 139, 164); fill-opacity: 1;" x="0" y="0"/></g><g class="g-gtitle"><text class="gtitle" x="350" y="50" text-anchor="middle" dy="0em" style="opacity: 1; font-family: Arial; font-size: 18px; fill: rgb(0, 0, 0); fill-opacity: 1; white-space: pre;"><tspan class="line" dy="0em" x="350" y="50"><tspan style="font-weight:bold">Figure f006: PFC Band-Specific Omission Dynamics (AAAB)</tspan></tspan><tspan class="line" dy="1.3em" x="350" y="50">​<tspan style="font-size:70%" dy="-0.6em">Relative Power (dB) with ±SEM | 0ms = Omission Onset | 30ms Smoothed</tspan><tspan dy="0.42em">​</tspan></tspan></text></g><g class="g-xtitle"><text class="xtitle" x="370" y="467.200390625" text-anchor="middle" style="opacity: 1; font-family: 'Open Sans', verdana, arial, sans-serif; font-size: 14px; fill: rgb(42, 63, 95); fill-opacity: 1; white-space: pre;">Time from Omission (ms)</text></g><g class="g-ytitle"><text class="ytitle" transform="rotate(-90,29.840234375,260)" x="29.840234375" y="260" text-anchor="middle" style="opacity: 1; font-family: 'Open Sans', verdana, arial, sans-serif; font-size: 14px; fill: rgb(42, 63, 95); fill-opacity: 1; white-space: pre;">Relative Power (dB)</text></g><g class="annotation" data-index="0" style="opacity: 1;"><g class="annotation-text-g" transform="rotate(0,230.01,109.5)"><g class="cursor-pointer" transform="translate(221,100)"><rect class="bg" x="0.5" y="0.5" width="18" height="18" style="stroke-width: 1px; stroke: rgb(0, 0, 0); stroke-opacity: 0; fill: rgb(0, 0, 0); fill-opacity: 0;"/><text class="annotation-text" text-anchor="middle" x="9.43359375" y="14" style="font-family: 'Open Sans', verdana, arial, sans-serif; font-size: 12px; fill: rgb(42, 63, 95); fill-opacity: 1; white-space: pre;">P1</text></g></g></g><g class="annotation" data-index="1" style="opacity: 1;"><g class="annotation-text-g" transform="rotate(0,308,109.5)"><g class="cursor-pointer" transform="translate(298,100)"><rect class="bg" x="0.5" y="0.5" width="20" height="18" style="stroke-width: 1px; stroke: rgb(0, 0, 0); stroke-opacity: 0; fill: rgb(0, 0, 0); fill-opacity: 0;"/><text class="annotation-text" text-anchor="middle" x="10.4375" y="14" style="font-family: 'Open Sans', verdana, arial, sans-serif; font-size: 12px; fill: rgb(42, 63, 95); fill-opacity: 1; white-space: pre;">D1</text></g></g></g><g class="annotation" data-index="2" style="opacity: 1;"><g class="annotation-text-g" transform="rotate(0,379.5,109.5)"><g class="cursor-pointer" transform="translate(370,100)"><rect class="bg" x="0.5" y="0.5" width="18" height="18" style="stroke-width: 1px; stroke: rgb(0, 0, 0); stroke-opacity: 0; fill: rgb(0, 0, 0); fill-opacity: 0;"/><text class="annotation-text" text-anchor="middle" x="9.43359375" y="14" style="font-family: 'Open Sans', verdana, arial, sans-serif; font-size: 12px; fill: rgb(42, 63, 95); fill-opacity: 1; white-space: pre;">P2</text></g></g></g><g class="annotation" data-index="3" style="opacity: 1;"><g class="annotation-text-g" transform="rotate(0,457.5,109.5)"><g class="cursor-pointer" transform="translate(447,100)"><rect class="bg" x="0.5" y="0.5" width="20" height="18" style="stroke-width: 1px; stroke: rgb(0, 0, 0); stroke-opacity: 0; fill: rgb(0, 0, 0); fill-opacity: 0;"/><text class="annotation-text" text-anchor="middle" x="10.4375" y="14" style="font-family: 'Open Sans', verdana, arial, sans-serif; font-size: 12px; fill: rgb(42, 63, 95); fill-opacity: 1; white-space: pre;">D2</text></g></g></g><g class="annotation" data-index="4" style="opacity: 1;"><g class="annotation-text-g" transform="rotate(0,529,109.5)"><g class="cursor-pointer" transform="translate(520,100)"><rect class="bg" x="0.5" y="0.5" width="18" height="18" style="stroke-width: 1px; stroke: rgb(0, 0, 0); stroke-opacity: 0; fill: rgb(0, 0, 0); fill-opacity: 0;"/><text class="annotation-text" text-anchor="middle" x="9.43359375" y="14" style="font-family: 'Open Sans', verdana, arial, sans-serif; font-size: 12px; fill: rgb(42, 63, 95); fill-opacity: 1; white-space: pre;">P3</text></g></g></g><g class="annotation" data-index="5" style="opacity: 1;"><g class="annotation-text-g" transform="rotate(0,606.99,109.5)"><g class="cursor-pointer" transform="translate(596,100)"><rect class="bg" x="0.5" y="0.5" width="20" height="18" style="stroke-width: 1px; stroke: rgb(0, 0, 0); stroke-opacity: 0; fill: rgb(0, 0, 0); fill-opacity: 0;"/><text class="annotation-text" text-anchor="middle" x="10.4375" y="14" style="font-family: 'Open Sans', verdana, arial, sans-serif; font-size: 12px; fill: rgb(42, 63, 95); fill-opacity: 1; white-space: pre;">D3</text></g></g></g><g class="annotation" data-index="6" style="opacity: 1;"><g class="annotation-text-g" transform="rotate(0,419,109.5)"><g class="cursor-pointer" transform="translate(370,100)"><rect class="bg" x="0.5" y="0.5" width="97" height="18" style="stroke-width: 1px; stroke: rgb(0, 0, 0); stroke-opacity: 0; fill: rgb(0, 0, 0); fill-opacity: 0;"/><text class="annotation-text" text-anchor="middle" x="49.171875" y="14" style="font-family: 'Open Sans', verdana, arial, sans-serif; font-size: 12px; fill: rgb(42, 63, 95); fill-opacity: 1; white-space: pre;">OMISSION (P2)</text></g></g></g></g></svg>