<svg class="main-svg" xmlns="http://www.w3.org/2000/svg" xmlns:xlink="http://www.w3.org/1999/xlink" width="700" height="500" style="" viewBox="0 0 700 500"><rect x="0" y="0" width="700" height="500" style="fill: rgb(255, 255, 255); fill-opacity: 1;"/><defs id="defs-c32aa4"><g class="clips"><clipPath id="clipc32aa4xyplot" class="plotclip"><rect width="580" height="320"/></clipPath><clipPath class="axesclip" id="clipc32aa4x"><rect x="80" y="0" width="580" height="500"/></clipPath><clipPath class="axesclip" id="clipc32aa4y"><rect x="0" y="100" width="700" height="320"/></clipPath><clipPath class="axesclip" id="clipc32aa4xy"><rect x="80" y="100" width="580" height="320"/></clipPath></g><g class="gradients"/><g class="patterns"/></defs><g class="bglayer"/><g class="layer-below"><g class="imagelayer"/><g class="shapelayer"/></g><g class="cartesianlayer"><g class="subplot xy"><g class="layer-subplot"><g class="shapelayer"/><g class="imagelayer"/></g><g class="minor-gridlayer"><g class="x"/><g class="y"/></g><g class="gridlayer"><g class="x"><path class="xgrid crisp" transform="translate(152.5,0)" d="M0,100v320" style="stroke: rgb(211, 211, 211); stroke-opacity: 1; stroke-width: 1px;"/><path class="xgrid crisp" transform="translate(225,0)" d="M0,100v320" style="stroke: rgb(211, 211, 211); stroke-opacity: 1; stroke-width: 1px;"/><path class="xgrid crisp" transform="translate(297.5,0)" d="M0,100v320" style="stroke: rgb(211, 211, 211); stroke-opacity: 1; stroke-width: 1px;"/><path class="xgrid crisp" transform="translate(442.5,0)" d="M0,100v320" style="stroke: rgb(211, 211, 211); stroke-opacity: 1; stroke-width: 1px;"/><path class="xgrid crisp" transform="translate(515,0)" d="M0,100v320" style="stroke: rgb(211, 211, 211); stroke-opacity: 1; stroke-width: 1px;"/><path class="xgrid crisp" transform="translate(587.5,0)" d="M0,100v320" style="stroke: rgb(211, 211, 211); stroke-opacity: 1; stroke-width: 1px;"/></g><g class="y"><path class="ygrid crisp" transform="translate(0,339.66999999999996)" d="M80,0h580" style="stroke: rgb(211, 211, 211); stroke-opacity: 1; stroke-width: 1px;"/><path class="ygrid crisp" transform="translate(0,270.05)" d="M80,0h580" style="stroke: rgb(211, 211, 211); stroke-opacity: 1; stroke-width: 1px;"/><path class="ygrid crisp" transform="translate(0,200.43)" d="M80,0h580" style="stroke: rgb(211, 211, 211); stroke-opacity: 1; stroke-width: 1px;"/><path class="ygrid crisp" transform="translate(0,130.81)" d="M80,0h580" style="stroke: rgb(211, 211, 211); stroke-opacity: 1; stroke-width: 1px;"/></g></g><g class="zerolinelayer"><path class="xzl zl crisp" transform="translate(370,0)" d="M0,100v320" style="stroke: rgb(235, 240, 248); stroke-opacity: 1; stroke-width: 2px;"/><path class="yzl zl crisp" transform="translate(0,409.29)" d="M80,0h580" style="stroke: rgb(235, 240, 248); stroke-opacity: 1; stroke-width: 2px;"/></g><g class="layer-between"><g class="shapelayer"/><g class="imagelayer"/></g><path class="xlines-below"/><path class="ylines-below"/><g class="overlines-below"/><g class="xaxislayer-below"/><g class="yaxislayer-below"/><g class="overaxes-below"/><g class="overplot"><g class="xy" transform="translate(80,100)" clip-path="url(#clipc32aa4xyplot)"><g class="scatterlayer mlayer"><g class="trace scatter trace3d9a01" style="stroke-miterlimit: 2;"><g class="fills"><g><path class="js-fill" d="M0,167.63L2.32,166.73L2.47,166.62L5.37,163.46L5.51,163.26L11.46,154.09L11.6,153.85L30.17,124.02L30.31,123.78L46.12,99.77L46.27,99.57L56.13,86.78L56.27,86.6L69.18,72.23L69.33,72.09L79.19,63.29L79.33,63.18L89.92,55.65L90.07,55.56L100.08,49.32L100.22,49.24L112.26,43.56L112.4,43.52L117.62,42.56L117.77,42.55L124.59,42.58L124.73,42.59L138.36,43.67L138.51,43.67L148.08,42.93L148.23,42.91L158.38,42.25L158.52,42.25L168.1,43.32L168.24,43.34L179.99,44.18L180.14,44.18L202.62,43.96L202.76,43.97L218.28,45.29L218.42,45.29L227.56,43.96L227.71,43.92L236.12,41.43L236.26,41.38L252.8,35.26L252.94,35.19L264.11,30.72L264.26,30.68L273.68,29.15L273.83,29.14L315.02,26.9L315.16,26.92L334.6,27.69L334.74,27.68L345.48,28.06L345.62,28.08L354.03,29.38L354.18,29.41L362.59,31.61L362.74,31.66L373.47,34.95L373.61,34.97L382.9,35.47L383.04,35.47L397.69,35.72L397.83,35.7L405.52,33.92L405.67,33.88L414.37,32.23L414.51,32.22L420.32,32.56L420.46,32.58L430.47,35.32L430.61,35.36L440.33,37.84L440.48,37.86L447.58,37.87L447.73,37.85L465.13,36.12L465.28,36.14L472.38,37.86L472.53,37.91L500.96,46.84L501.1,46.93L507.34,51.08L507.48,51.19L514.59,57.31L514.73,57.45L525.32,68.34L525.47,68.51L534.46,81.16L534.6,81.39L542.87,95.44L543.02,95.7L555.34,117.04L555.49,117.27L563.9,129.11L564.05,129.31L578.26,148.18L578.4,148.26L580,148.72L580,142.14L579.71,142.11L579.56,142.09L576.81,140.4L576.66,140.25L558.97,115.06L558.82,114.85L545.48,92.15L545.34,91.88L532.14,68.88L531.99,68.66L524.6,58.53L524.45,58.36L516.47,49.89L516.33,49.75L508.06,42.2L507.92,42.08L500.67,37.09L500.52,37.01L470.79,27.29L470.64,27.24L464.12,25.83L463.97,25.81L448.89,27.52L448.74,27.54L442.8,27.86L442.65,27.86L424.38,23.17L424.23,23.13L416.69,21.89L416.54,21.89L399.43,25.2L399.28,25.23L383.19,25.22L383.04,25.22L375.35,24.94L375.21,24.93L359.54,20.32L359.4,20.28L345.19,17.61L345.04,17.6L331.7,17.31L331.55,17.31L314.73,16.27L314.58,16.26L272.96,18.64L272.81,18.66L264.4,20.13L264.26,20.17L252.07,25.21L251.93,25.28L244.82,28.42L244.68,28.47L233.07,32.33L232.93,32.38L222.49,34.91L222.34,34.93L202.47,33.82L202.33,33.8L180.72,33.93L180.57,33.94L171.43,33.46L171.29,33.44L160.56,31.95L160.41,31.94L148.23,32.51L148.08,32.53L139.67,33.28L139.52,33.28L126.18,32.25L126.04,32.24L120.09,31.89L119.94,31.89L113.71,32.63L113.56,32.66L106.46,35.4L106.31,35.47L88.47,46.54L88.33,46.64L80.5,52.38L80.35,52.49L71.07,60.74L70.92,60.89L58.88,74.19L58.74,74.36L49.17,86.75L49.02,86.95L34.66,108.55L34.52,108.79L12.76,145.02L12.62,145.26L5.08,157.29L4.93,157.48L2.32,160.28L2.18,160.39L0,161.21Z" style="fill: rgb(75, 0, 130); fill-opacity: 0.15; stroke-width: 0;"/></g></g><g class="errorbars"/><g class="lines"><path class="js-line" d="M0,161.21L2.18,160.39L2.32,160.28L4.93,157.48L5.08,157.29L12.62,145.26L12.76,145.02L34.52,108.79L34.66,108.55L49.02,86.95L49.17,86.75L58.74,74.36L58.88,74.19L70.92,60.89L71.07,60.74L80.35,52.49L80.5,52.38L88.33,46.64L88.47,46.54L106.31,35.47L106.46,35.4L113.56,32.66L113.71,32.63L119.94,31.89L120.09,31.89L126.04,32.24L126.18,32.25L139.52,33.28L139.67,33.28L148.08,32.53L148.23,32.51L160.41,31.94L160.56,31.95L171.29,33.44L171.43,33.46L180.57,33.94L180.72,33.93L202.33,33.8L202.47,33.82L222.34,34.93L222.49,34.91L232.93,32.38L233.07,32.33L244.68,28.47L244.82,28.42L251.93,25.28L252.07,25.21L264.26,20.17L264.4,20.13L272.81,18.66L272.96,18.64L314.58,16.26L314.73,16.27L331.55,17.31L331.7,17.31L345.04,17.6L345.19,17.61L359.4,20.28L359.54,20.32L375.21,24.93L375.35,24.94L383.04,25.22L383.19,25.22L399.28,25.23L399.43,25.2L416.54,21.89L416.69,21.89L424.23,23.13L424.38,23.17L442.65,27.86L442.8,27.86L448.74,27.54L448.89,27.52L463.97,25.81L464.12,25.83L470.64,27.24L470.79,27.29L500.52,37.01L500.67,37.09L507.92,42.08L508.06,42.2L516.33,49.75L516.47,49.89L524.45,58.36L524.6,58.53L531.99,68.66L532.14,68.88L545.34,91.88L545.48,92.15L558.82,114.85L558.97,115.06L576.66,140.25L576.81,140.4L579.56,142.09L579.71,142.11L580,142.14" style="vector-effect: none; fill: none; stroke: rgb(99, 110, 250); stroke-opacity: 1; stroke-width: 0px; opacity: 1;"/></g><g class="points"/><g class="text"/></g><g class="trace scatter tracedde915" style="stroke-miterlimit: 2;"><g class="fills"/><g class="errorbars"/><g class="lines"><path class="js-line" d="M0,167.63L2.32,166.73L2.47,166.62L5.37,163.46L5.51,163.26L11.46,154.09L11.6,153.85L30.17,124.02L30.31,123.78L46.12,99.77L46.27,99.57L56.13,86.78L56.27,86.6L69.18,72.23L69.33,72.09L79.19,63.29L79.33,63.18L89.92,55.65L90.07,55.56L100.08,49.32L100.22,49.24L112.26,43.56L112.4,43.52L117.62,42.56L117.77,42.55L124.59,42.58L124.73,42.59L138.36,43.67L138.51,43.67L148.08,42.93L148.23,42.91L158.38,42.25L158.52,42.25L168.1,43.32L168.24,43.34L179.99,44.18L180.14,44.18L202.62,43.96L202.76,43.97L218.28,45.29L218.42,45.29L227.56,43.96L227.71,43.92L236.12,41.43L236.26,41.38L252.8,35.26L252.94,35.19L264.11,30.72L264.26,30.68L273.68,29.15L273.83,29.14L315.02,26.9L315.16,26.92L334.6,27.69L334.74,27.68L345.48,28.06L345.62,28.08L354.03,29.38L354.18,29.41L362.59,31.61L362.74,31.66L373.47,34.95L373.61,34.97L382.9,35.47L383.04,35.47L397.69,35.72L397.83,35.7L405.52,33.92L405.67,33.88L414.37,32.23L414.51,32.22L420.32,32.56L420.46,32.58L430.47,35.32L430.61,35.36L440.33,37.84L440.48,37.86L447.58,37.87L447.73,37.85L465.13,36.12L465.28,36.14L472.38,37.86L472.53,37.91L500.96,46.84L501.1,46.93L507.34,51.08L507.48,51.19L514.59,57.31L514.73,57.45L525.32,68.34L525.47,68.51L534.46,81.16L534.6,81.39L542.87,95.44L543.02,95.7L555.34,117.04L555.49,117.27L563.9,129.11L564.05,129.31L578.26,148.18L578.4,148.26L580,148.72" style="vector-effect: none; fill: none; stroke: rgb(239, 85, 59); stroke-opacity: 1; stroke-width: 0px; opacity: 1;"/></g><g class="points"/><g class="text"/></g><g class="trace scatter trace6525fe" style="stroke-miterlimit: 2; opacity: 1;"><g class="fills"/><g class="errorbars"/><g class="lines"><path class="js-line" d="M0,164.42L2.18,163.61L2.32,163.51L5.08,160.56L5.22,160.37L10.88,151.58L11.02,151.34L47.57,93.37L47.72,93.17L57.43,80.58L57.58,80.41L66.28,70.44L66.43,70.29L73.82,62.97L73.97,62.84L83.11,55.36L83.25,55.25L97.46,45.74L97.61,45.65L107.76,40L107.91,39.93L115.16,37.61L115.3,37.58L123.28,37.24L123.43,37.25L143.88,38.22L144.02,38.2L162.44,37.32L162.59,37.34L182.02,39L182.17,38.99L202.47,38.88L202.62,38.9L220.89,40.12L221.04,40.1L229.3,38.5L229.45,38.46L245.98,33.13L246.13,33.08L265.56,25.11L265.71,25.08L273.97,23.84L274.12,23.83L314.73,21.58L314.87,21.59L334.89,22.45L335.03,22.45L343.3,22.65L343.45,22.66L353.6,24.11L353.74,24.14L363.9,26.93L364.04,26.98L372.89,29.73L373.03,29.76L382.9,30.34L383.04,30.34L397.83,30.58L397.98,30.56L405.52,28.79L405.67,28.74L414.51,27.06L414.66,27.06L421.19,27.56L421.33,27.59L430.32,30.15L430.47,30.2L441.49,32.87L441.64,32.88L447.73,32.76L447.87,32.74L454.69,31.54L454.83,31.52L462.23,30.8L462.38,30.8L468.76,31.77L468.9,31.81L496.46,39.92L496.6,39.98L501.54,42.38L501.68,42.47L507.19,46.23L507.34,46.35L516.33,54.35L516.47,54.49L524.89,63.35L525.03,63.52L532.14,73.22L532.28,73.44L541.57,89.02L541.71,89.28L559.98,120.17L560.13,120.38L573.33,139.2L573.47,139.42L578.26,144.88L578.4,144.96L580,145.43" style="vector-effect: none; fill: none; stroke: rgb(75, 0, 130); stroke-opacity: 1; stroke-width: 3px; opacity: 1;"/></g><g class="points"/><g class="text"/></g><g class="trace scatter tracecd3958" style="stroke-miterlimit: 2;"><g class="fills"><g><path class="js-fill" d="M0,204.1L2.03,203.29L2.18,203.18L5.08,199.75L5.22,199.53L10.88,189.51L11.02,189.24L22.92,165.44L23.06,165.13L34.08,144.45L34.23,144.24L39.16,138.15L39.3,138.01L45.25,133.44L45.4,133.36L51.63,130.65L51.78,130.6L68.17,124.8L68.31,124.72L74.4,121.06L74.55,120.96L85.43,112.3L85.57,112.17L98.19,100.26L98.33,100.11L107.18,89.6L107.33,89.4L120.24,72.99L120.38,72.86L124.44,70.31L124.59,70.26L127.92,69.96L128.07,69.98L131.98,71.37L132.13,71.45L145.18,79.75L145.33,79.84L154.75,86.75L154.9,86.88L164.47,97.44L164.62,97.62L176.51,111.69L176.65,111.85L189.71,126.86L189.85,127.05L204.79,144.5L204.94,144.61L209,147.11L209.14,147.17L213.35,148.34L213.49,148.36L218.86,148.32L219,148.3L225.97,146.63L226.11,146.58L236.84,142.24L236.99,142.16L244.1,137.8L244.24,137.69L250.91,132.37L251.06,132.24L260.49,122.55L260.63,122.38L272.67,108.88L272.81,108.77L277.6,106.45L277.74,106.41L283.98,105.9L284.13,105.9L293.7,105.15L293.84,105.13L302.55,104.67L302.69,104.69L308.64,106.23L308.78,106.29L315.74,109.87L315.89,109.96L338.66,123.59L338.8,123.7L346.2,130.05L346.35,130.18L356.93,139.02L357.08,139.12L362.74,142.25L362.88,142.31L369.99,144.39L370.13,144.41L376.08,144.45L376.22,144.43L382.32,143.3L382.46,143.26L390.29,140.41L390.44,140.34L399.43,134.41L399.57,134.29L406.25,127.99L406.39,127.83L421.91,111.47L422.06,111.38L426.26,109.79L426.41,109.76L431.63,109.62L431.77,109.63L443.23,109.68L443.38,109.67L453.82,108.97L453.96,108.99L459.47,110.45L459.62,110.51L467.89,114.85L468.03,114.93L483.41,124.92L483.55,125.04L503.28,140.82L503.42,140.9L510.67,143.49L510.82,143.52L516.76,144.02L516.91,144.01L521.84,142.92L521.99,142.86L527.93,139.82L528.08,139.73L537.5,134.54L537.65,134.5L541.42,134.1L541.57,134.12L544.76,135.48L544.9,135.59L547.95,138.48L548.09,138.65L552.44,145.03L552.59,145.27L570.14,175.31L570.28,175.54L577.68,185.72L577.82,185.83L580,186.67L580,180.44L579.85,180.44L577.24,179.07L577.1,178.93L572.75,172.93L572.6,172.7L555.63,143.27L555.49,142.99L549.4,132.58L549.25,132.38L545.77,128.39L545.63,128.26L542.58,126.47L542.44,126.42L539.1,126.27L538.95,126.3L526.19,133.4L526.05,133.48L520.68,136.04L520.54,136.08L515.75,136.83L515.6,136.83L508.93,135.78L508.79,135.74L502.7,133.12L502.55,133.03L480.51,114.31L480.36,114.2L466.87,105.24L466.73,105.16L459.33,101.19L459.18,101.13L453.96,99.7L453.82,99.68L441.49,100.6L441.35,100.61L433.66,100.56L433.51,100.55L427.28,100.45L427.13,100.46L423.51,101.48L423.36,101.54L419.01,104.61L418.86,104.75L408.86,116.39L408.71,116.56L402.62,123.25L402.48,123.39L394.21,130.18L394.06,130.28L387.25,133.99L387.1,134.05L379.56,136.37L379.41,136.41L372.89,137.15L372.74,137.15L366.51,136.2L366.36,136.15L360.13,133.42L359.98,133.34L340.26,116.62L340.11,116.49L316.76,101.22L316.61,101.12L309.36,96.92L309.22,96.86L303.56,94.99L303.42,94.96L297.32,94.64L297.18,94.65L282.1,95.81L281.95,95.81L277.02,96.56L276.87,96.61L273.25,98.53L273.1,98.63L262.08,111.11L261.94,111.3L254.68,119.6L254.54,119.74L244.68,128.43L244.53,128.54L239.16,132.24L239.02,132.33L231.91,135.97L231.77,136.04L224.08,138.85L223.94,138.9L217.7,140.29L217.55,140.31L212.19,140.12L212.04,140.09L207.84,138.54L207.69,138.46L203.78,135.55L203.63,135.42L168.24,91.75L168.1,91.56L160.7,82.06L160.56,81.88L154.17,74.93L154.03,74.79L148.66,70.31L148.52,70.2L133,59.34L132.85,59.25L128.94,57.4L128.79,57.36L125.46,57.21L125.31,57.24L121.25,59.34L121.11,59.46L106.02,79.11L105.88,79.31L99.49,87.22L99.35,87.39L86.73,100.19L86.59,100.32L75.13,110.25L74.98,110.36L68.31,114.74L68.17,114.82L51.92,120.76L51.78,120.81L45.69,123.43L45.54,123.51L40.47,127.25L40.32,127.39L35.97,132.37L35.82,132.56L28.28,145.58L28.14,145.87L10.01,183.74L9.86,184.02L4.93,192.93L4.79,193.15L2.18,196.29L2.03,196.41L0,197.24Z" style="fill: rgb(0, 0, 255); fill-opacity: 0.15; stroke-width: 0;"/></g></g><g class="errorbars"/><g class="lines"><path class="js-line" d="M0,197.24L2.03,196.41L2.18,196.29L4.79,193.15L4.93,192.93L9.86,184.02L10.01,183.74L28.14,145.87L28.28,145.58L35.82,132.56L35.97,132.37L40.32,127.39L40.47,127.25L45.54,123.51L45.69,123.43L51.78,120.81L51.92,120.76L68.17,114.82L68.31,114.74L74.98,110.36L75.13,110.25L86.59,100.32L86.73,100.19L99.35,87.39L99.49,87.22L105.88,79.31L106.02,79.11L121.11,59.46L121.25,59.34L125.31,57.24L125.46,57.21L128.79,57.36L128.94,57.4L132.85,59.25L133,59.34L148.52,70.2L148.66,70.31L154.03,74.79L154.17,74.93L160.56,81.88L160.7,82.06L168.1,91.56L168.24,91.75L203.63,135.42L203.78,135.55L207.69,138.46L207.84,138.54L212.04,140.09L212.19,140.12L217.55,140.31L217.7,140.29L223.94,138.9L224.08,138.85L231.77,136.04L231.91,135.97L239.02,132.33L239.16,132.24L244.53,128.54L244.68,128.43L254.54,119.74L254.68,119.6L261.94,111.3L262.08,111.11L273.1,98.63L273.25,98.53L276.87,96.61L277.02,96.56L281.95,95.81L282.1,95.81L297.18,94.65L297.32,94.64L303.42,94.96L303.56,94.99L309.22,96.86L309.36,96.92L316.61,101.12L316.76,101.22L340.11,116.49L340.26,116.62L359.98,133.34L360.13,133.42L366.36,136.15L366.51,136.2L372.74,137.15L372.89,137.15L379.41,136.41L379.56,136.37L387.1,134.05L387.25,133.99L394.06,130.28L394.21,130.18L402.48,123.39L402.62,123.25L408.71,116.56L408.86,116.39L418.86,104.75L419.01,104.61L423.36,101.54L423.51,101.48L427.13,100.46L427.28,100.45L433.51,100.55L433.66,100.56L441.35,100.61L441.49,100.6L453.82,99.68L453.96,99.7L459.18,101.13L459.33,101.19L466.73,105.16L466.87,105.24L480.36,114.2L480.51,114.31L502.55,133.03L502.7,133.12L508.79,135.74L508.93,135.78L515.6,136.83L515.75,136.83L520.54,136.08L520.68,136.04L526.05,133.48L526.19,133.4L538.95,126.3L539.1,126.27L542.44,126.42L542.58,126.47L545.63,128.26L545.77,128.39L549.25,132.38L549.4,132.58L555.49,142.99L555.63,143.27L572.6,172.7L572.75,172.93L577.1,178.93L577.24,179.07L579.85,180.44L580,180.44" style="vector-effect: none; fill: none; stroke: rgb(171, 99, 250); stroke-opacity: 1; stroke-width: 0px; opacity: 1;"/></g><g class="points"/><g class="text"/></g><g class="trace scatter trace6f41de" style="stroke-miterlimit: 2;"><g class="fills"/><g class="errorbars"/><g class="lines"><path class="js-line" d="M0,204.1L2.03,203.29L2.18,203.18L5.08,199.75L5.22,199.53L10.88,189.51L11.02,189.24L22.92,165.44L23.06,165.13L34.08,144.45L34.23,144.24L39.16,138.15L39.3,138.01L45.25,133.44L45.4,133.36L51.63,130.65L51.78,130.6L68.17,124.8L68.31,124.72L74.4,121.06L74.55,120.96L85.43,112.3L85.57,112.17L98.19,100.26L98.33,100.11L107.18,89.6L107.33,89.4L120.24,72.99L120.38,72.86L124.44,70.31L124.59,70.26L127.92,69.96L128.07,69.98L131.98,71.37L132.13,71.45L145.18,79.75L145.33,79.84L154.75,86.75L154.9,86.88L164.47,97.44L164.62,97.62L176.51,111.69L176.65,111.85L189.71,126.86L189.85,127.05L204.79,144.5L204.94,144.61L209,147.11L209.14,147.17L213.35,148.34L213.49,148.36L218.86,148.32L219,148.3L225.97,146.63L226.11,146.58L236.84,142.24L236.99,142.16L244.1,137.8L244.24,137.69L250.91,132.37L251.06,132.24L260.49,122.55L260.63,122.38L272.67,108.88L272.81,108.77L277.6,106.45L277.74,106.41L283.98,105.9L284.13,105.9L293.7,105.15L293.84,105.13L302.55,104.67L302.69,104.69L308.64,106.23L308.78,106.29L315.74,109.87L315.89,109.96L338.66,123.59L338.8,123.7L346.2,130.05L346.35,130.18L356.93,139.02L357.08,139.12L362.74,142.25L362.88,142.31L369.99,144.39L370.13,144.41L376.08,144.45L376.22,144.43L382.32,143.3L382.46,143.26L390.29,140.41L390.44,140.34L399.43,134.41L399.57,134.29L406.25,127.99L406.39,127.83L421.91,111.47L422.06,111.38L426.26,109.79L426.41,109.76L431.63,109.62L431.77,109.63L443.23,109.68L443.38,109.67L453.82,108.97L453.96,108.99L459.47,110.45L459.62,110.51L467.89,114.85L468.03,114.93L483.41,124.92L483.55,125.04L503.28,140.82L503.42,140.9L510.67,143.49L510.82,143.52L516.76,144.02L516.91,144.01L521.84,142.92L521.99,142.86L527.93,139.82L528.08,139.73L537.5,134.54L537.65,134.5L541.42,134.1L541.57,134.12L544.76,135.48L544.9,135.59L547.95,138.48L548.09,138.65L552.44,145.03L552.59,145.27L570.14,175.31L570.28,175.54L577.68,185.72L577.82,185.83L580,186.67" style="vector-effect: none; fill: none; stroke: rgb(255, 161, 90); stroke-opacity: 1; stroke-width: 0px; opacity: 1;"/></g><g class="points"/><g class="text"/></g><g class="trace scatter trace7c4dbf" style="stroke-miterlimit: 2; opacity: 1;"><g class="fills"/><g class="errorbars"/><g class="lines"><path class="js-line" d="M0,200.67L2.03,199.85L2.18,199.74L4.93,196.45L5.08,196.22L10.88,185.77L11.02,185.49L21.03,165.22L21.18,164.91L32.63,142.07L32.78,141.84L37.56,135.1L37.71,134.93L42.93,130.07L43.08,129.96L48.73,126.84L48.88,126.78L56.85,124.17L57,124.13L67.73,120.03L67.88,119.96L77.16,113.87L77.3,113.76L85.28,106.98L85.43,106.85L100.66,91.74L100.8,91.57L106.75,84.15L106.89,83.95L120.82,66.09L120.96,65.97L124.88,63.76L125.02,63.72L128.65,63.7L128.79,63.74L133,65.63L133.14,65.72L145.62,74.08L145.76,74.18L152.43,79.05L152.58,79.17L159.39,85.97L159.54,86.14L171,100.37L171.14,100.54L205.23,140.82L205.37,140.93L210.16,143.57L210.3,143.62L215.09,144.46L215.23,144.46L221.47,143.72L221.62,143.69L230.61,140.77L230.75,140.71L239.45,136.44L239.6,136.35L248.88,129.53L249.03,129.41L257.87,120.86L258.02,120.7L273.54,103.3L273.68,103.2L277.74,101.38L277.89,101.34L283.98,100.84L284.13,100.84L293.84,100.1L293.99,100.08L301.1,99.59L301.24,99.6L306.61,100.68L306.75,100.73L313.13,103.64L313.28,103.72L328.22,112.44L328.36,112.52L336.05,117.46L336.19,117.56L345.04,124.97L345.19,125.1L354.76,133.61L354.9,133.72L362.45,138.37L362.59,138.44L370.13,140.69L370.28,140.71L376.66,140.64L376.8,140.62L384.49,138.85L384.64,138.8L391.16,136.02L391.31,135.94L398.7,130.88L398.85,130.76L405.23,124.81L405.38,124.66L421.19,107.38L421.33,107.28L425.54,105.35L425.68,105.32L429.89,104.94L430.03,104.95L445.99,104.64L446.13,104.62L453.82,104.33L453.96,104.34L459.33,105.79L459.47,105.85L466.15,109.32L466.29,109.41L476.73,115.82L476.88,115.91L486.74,123.81L486.89,123.95L499.94,135.1L500.09,135.2L505.6,138.24L505.74,138.3L512.41,140.18L512.56,140.2L517.63,140.33L517.78,140.32L522.71,138.91L522.86,138.85L532.28,133.34L532.43,133.25L538.23,130.4L538.37,130.36L541.71,130.2L541.86,130.22L545.05,131.75L545.19,131.85L548.82,135.67L548.96,135.86L553.6,143.26L553.75,143.52L568.4,169.18L568.54,169.41L577.82,182.69L577.97,182.8L580,183.56" style="vector-effect: none; fill: none; stroke: rgb(0, 0, 255); stroke-opacity: 1; stroke-width: 3px; opacity: 1;"/></g><g class="points"/><g class="text"/></g><g class="trace scatter tracee6e37e" style="stroke-miterlimit: 2;"><g class="fills"><g><path class="js-fill" d="M0,255.72L2.03,254.88L2.18,254.77L5.08,251.15L5.22,250.91L9.57,242.87L9.72,242.59L17.26,228.65L17.4,228.42L23.06,221.01L23.21,220.86L27.41,217.66L27.56,217.58L32.34,215.98L32.49,215.96L46.85,214.23L46.99,214.22L63.96,211.34L64.11,211.3L74.84,209.46L74.98,209.45L86.3,207.97L86.44,207.92L92.97,205.42L93.11,205.36L132.71,190.26L132.85,190.24L137.78,190.66L137.93,190.7L147.36,193.74L147.5,193.8L152.43,196.23L152.58,196.32L164.62,204.91L164.76,205.04L172.74,212.38L172.88,212.5L183.18,219.82L183.33,219.92L192.46,224.93L192.61,224.99L201.31,227.92L201.46,227.96L213.78,230.59L213.93,230.62L229.01,233.1L229.16,233.1L238.15,232.36L238.29,232.34L249.17,230.14L249.32,230.1L258.31,226.85L258.45,226.78L265.85,223.02L266,222.93L275.13,216.86L275.28,216.75L284.85,210.18L285,210.11L290.94,207.97L291.09,207.93L304.14,204.14L304.29,204.13L312.55,203.74L312.7,203.75L319.08,205.16L319.22,205.21L330.97,209.1L331.12,209.17L345.77,215.87L345.91,215.92L373.9,223.3L374.05,223.32L381.59,223.36L381.74,223.34L389.86,221.19L390,221.14L403.64,215.82L403.78,215.75L410.45,212.3L410.6,212.21L418.28,206.41L418.43,206.29L435.54,190.78L435.69,190.7L441.78,188.08L441.93,188.02L450.19,185.65L450.34,185.64L456.86,185.93L457.01,185.95L463.39,187.57L463.54,187.64L469.63,191.04L469.77,191.13L480.94,198.7L481.09,198.82L491.82,207.79L491.96,207.88L502.84,213.57L502.99,213.64L511.54,217.08L511.69,217.13L520.1,218.98L520.25,218.99L528.08,219.06L528.22,219.05L535.47,217.36L535.62,217.31L542,213.78L542.15,213.68L552.44,207.14L552.59,207.1L556.07,206.78L556.21,206.81L558.97,207.91L559.11,208.01L562.02,210.62L562.16,210.79L565.93,216.13L566.08,216.37L577.97,236.96L578.11,237.08L580,237.86L580,233.85L579.85,233.84L577.53,232.5L577.39,232.35L570.57,220.17L570.43,219.87L565.35,210.38L565.21,210.14L560.86,204.41L560.71,204.27L557.81,202.25L557.66,202.19L555.05,201.68L554.91,201.68L551.14,202.74L550.99,202.81L544.76,207.18L544.61,207.3L537.94,211.96L537.79,212.03L531.85,214.22L531.7,214.25L524.74,214.99L524.6,214.99L517.49,214.26L517.34,214.23L509.22,211.76L509.08,211.7L498.78,206.67L498.63,206.59L491.53,202.44L491.38,202.34L483.41,195.42L483.26,195.29L468.76,184.52L468.61,184.43L462.38,180.97L462.23,180.92L455.85,179.52L455.7,179.5L450.05,179.34L449.9,179.35L439.89,182.58L439.75,182.64L434.09,185.53L433.95,185.63L427.86,191.1L427.71,191.26L416.98,202.22L416.83,202.35L409.73,207.79L409.58,207.88L393.92,215.36L393.77,215.42L385.65,218.35L385.51,218.39L378.54,219.56L378.4,219.56L369.41,218.46L369.26,218.43L348.96,212.22L348.81,212.17L330.68,203.84L330.54,203.77L319.8,200.13L319.66,200.08L312.7,198.39L312.55,198.38L304.72,198.68L304.58,198.7L296.74,200.55L296.6,200.6L285.58,204.52L285.43,204.59L278.03,209.59L277.89,209.71L269.33,216.29L269.19,216.39L256.86,223.35L256.71,223.42L248.16,226.55L248.01,226.59L237.86,228.74L237.71,228.76L229.59,229.51L229.45,229.51L203.92,224.68L203.78,224.64L192.75,221L192.61,220.94L179.55,212.94L179.41,212.83L163.6,198.62L163.46,198.49L155.04,191.99L154.9,191.89L149.24,188.43L149.1,188.36L142.57,185.86L142.43,185.81L135.9,183.95L135.75,183.93L131.4,184.07L131.26,184.1L112.11,192.24L111.97,192.3L102.54,196.23L102.4,196.29L88.33,201.93L88.18,201.99L73.53,204.12L73.39,204.13L63.96,205.89L63.82,205.92L35.24,210.4L35.1,210.41L29.59,211.54L29.44,211.59L25.38,213.92L25.24,214.03L20.45,219.23L20.31,219.43L13.05,231.89L12.91,232.18L5.08,247.63L4.93,247.87L2.18,251.41L2.03,251.53L0,252.4Z" style="fill: rgb(148, 0, 211); fill-opacity: 0.15; stroke-width: 0;"/></g></g><g class="errorbars"/><g class="lines"><path class="js-line" d="M0,252.4L2.03,251.53L2.18,251.41L4.93,247.87L5.08,247.63L12.91,232.18L13.05,231.89L20.31,219.43L20.45,219.23L25.24,214.03L25.38,213.92L29.44,211.59L29.59,211.54L35.1,210.41L35.24,210.4L63.82,205.92L63.96,205.89L73.39,204.13L73.53,204.12L88.18,201.99L88.33,201.93L102.4,196.29L102.54,196.23L111.97,192.3L112.11,192.24L131.26,184.1L131.4,184.07L135.75,183.93L135.9,183.95L142.43,185.81L142.57,185.86L149.1,188.36L149.24,188.43L154.9,191.89L155.04,191.99L163.46,198.49L163.6,198.62L179.41,212.83L179.55,212.94L192.61,220.94L192.75,221L203.78,224.64L203.92,224.68L229.45,229.51L229.59,229.51L237.71,228.76L237.86,228.74L248.01,226.59L248.16,226.55L256.71,223.42L256.86,223.35L269.19,216.39L269.33,216.29L277.89,209.71L278.03,209.59L285.43,204.59L285.58,204.52L296.6,200.6L296.74,200.55L304.58,198.7L304.72,198.68L312.55,198.38L312.7,198.39L319.66,200.08L319.8,200.13L330.54,203.77L330.68,203.84L348.81,212.17L348.96,212.22L369.26,218.43L369.41,218.46L378.4,219.56L378.54,219.56L385.51,218.39L385.65,218.35L393.77,215.42L393.92,215.36L409.58,207.88L409.73,207.79L416.83,202.35L416.98,202.22L427.71,191.26L427.86,191.1L433.95,185.63L434.09,185.53L439.75,182.64L439.89,182.58L449.9,179.35L450.05,179.34L455.7,179.5L455.85,179.52L462.23,180.92L462.38,180.97L468.61,184.43L468.76,184.52L483.26,195.29L483.41,195.42L491.38,202.34L491.53,202.44L498.63,206.59L498.78,206.67L509.08,211.7L509.22,211.76L517.34,214.23L517.49,214.26L524.6,214.99L524.74,214.99L531.7,214.25L531.85,214.22L537.79,212.03L537.94,211.96L544.61,207.3L544.76,207.18L550.99,202.81L551.14,202.74L554.91,201.68L555.05,201.68L557.66,202.19L557.81,202.25L560.71,204.27L560.86,204.41L565.21,210.14L565.35,210.38L570.43,219.87L570.57,220.17L577.39,232.35L577.53,232.5L579.85,233.84L580,233.85" style="vector-effect: none; fill: none; stroke: rgb(255, 102, 146); stroke-opacity: 1; stroke-width: 0px; opacity: 1;"/></g><g class="points"/><g class="text"/></g><g class="trace scatter trace53e4fb" style="stroke-miterlimit: 2;"><g class="fills"/><g class="errorbars"/><g class="lines"><path class="js-line" d="M0,255.72L2.03,254.88L2.18,254.77L5.08,251.15L5.22,250.91L9.57,242.87L9.72,242.59L17.26,228.65L17.4,228.42L23.06,221.01L23.21,220.86L27.41,217.66L27.56,217.58L32.34,215.98L32.49,215.96L46.85,214.23L46.99,214.22L63.96,211.34L64.11,211.3L74.84,209.46L74.98,209.45L86.3,207.97L86.44,207.92L92.97,205.42L93.11,205.36L132.71,190.26L132.85,190.24L137.78,190.66L137.93,190.7L147.36,193.74L147.5,193.8L152.43,196.23L152.58,196.32L164.62,204.91L164.76,205.04L172.74,212.38L172.88,212.5L183.18,219.82L183.33,219.92L192.46,224.93L192.61,224.99L201.31,227.92L201.46,227.96L213.78,230.59L213.93,230.62L229.01,233.1L229.16,233.1L238.15,232.36L238.29,232.34L249.17,230.14L249.32,230.1L258.31,226.85L258.45,226.78L265.85,223.02L266,222.93L275.13,216.86L275.28,216.75L284.85,210.18L285,210.11L290.94,207.97L291.09,207.93L304.14,204.14L304.29,204.13L312.55,203.74L312.7,203.75L319.08,205.16L319.22,205.21L330.97,209.1L331.12,209.17L345.77,215.87L345.91,215.92L373.9,223.3L374.05,223.32L381.59,223.36L381.74,223.34L389.86,221.19L390,221.14L403.64,215.82L403.78,215.75L410.45,212.3L410.6,212.21L418.28,206.41L418.43,206.29L435.54,190.78L435.69,190.7L441.78,188.08L441.93,188.02L450.19,185.65L450.34,185.64L456.86,185.93L457.01,185.95L463.39,187.57L463.54,187.64L469.63,191.04L469.77,191.13L480.94,198.7L481.09,198.82L491.82,207.79L491.96,207.88L502.84,213.57L502.99,213.64L511.54,217.08L511.69,217.13L520.1,218.98L520.25,218.99L528.08,219.06L528.22,219.05L535.47,217.36L535.62,217.31L542,213.78L542.15,213.68L552.44,207.14L552.59,207.1L556.07,206.78L556.21,206.81L558.97,207.91L559.11,208.01L562.02,210.62L562.16,210.79L565.93,216.13L566.08,216.37L577.97,236.96L578.11,237.08L580,237.86" style="vector-effect: none; fill: none; stroke: rgb(182, 232, 128); stroke-opacity: 1; stroke-width: 0px; opacity: 1;"/></g><g class="points"/><g class="text"/></g><g class="trace scatter traceb11bd8" style="stroke-miterlimit: 2; opacity: 1;"><g class="fills"/><g class="errorbars"/><g class="lines"><path class="js-line" d="M0,254.06L2.03,253.21L2.18,253.09L5.08,249.39L5.22,249.15L9.86,240.35L10.01,240.05L17.98,225.21L18.13,224.98L22.63,219L22.77,218.84L27.7,214.94L27.85,214.87L32.49,213.37L32.63,213.34L63.82,208.65L63.96,208.61L77.16,206.6L77.3,206.6L86.3,205.29L86.44,205.25L99.2,200.22L99.35,200.16L114.72,194.07L114.87,194.01L132.56,187.08L132.71,187.06L137.64,187.46L137.78,187.5L148.37,191.09L148.52,191.15L154.32,194.44L154.46,194.54L164.47,202.1L164.62,202.23L176.22,212.79L176.36,212.9L188.98,221.24L189.13,221.32L195.36,224.05L195.51,224.1L202.47,226.27L202.62,226.3L216.1,229.25L216.25,229.28L227.71,231.28L227.85,231.29L237.86,230.57L238,230.55L248.3,228.43L248.45,228.4L257.44,225.16L257.58,225.09L268.32,219.27L268.46,219.18L279.92,210.66L280.07,210.55L285.43,207.25L285.58,207.18L296.16,203.45L296.31,203.4L301.97,201.79L302.11,201.77L309.94,200.96L310.09,200.96L316.18,201.71L316.32,201.75L324.74,204.19L324.88,204.23L331.26,206.69L331.41,206.76L346.35,213.7L346.49,213.75L359.69,218.04L359.83,218.09L374.63,221.36L374.77,221.38L382.46,221.18L382.61,221.15L389.42,219.22L389.57,219.17L406.97,211.82L407.12,211.74L415.53,206.11L415.67,205.99L422.78,199.36L422.93,199.21L433.37,189.1L433.51,188.99L439.6,185.81L439.75,185.75L450.34,182.47L450.48,182.46L456.72,182.77L456.86,182.79L463.1,184.36L463.25,184.42L469.05,187.69L469.19,187.79L480.22,195.27L480.36,195.4L495.44,207.37L495.59,207.45L507.05,213.14L507.19,213.2L514.15,215.65L514.3,215.69L521.84,217L521.99,217.01L529.38,216.79L529.53,216.77L536.34,214.87L536.49,214.81L541.71,211.76L541.86,211.66L552.73,204.57L552.88,204.52L556.36,204.31L556.5,204.34L559.69,205.91L559.84,206.02L563.61,210.17L563.76,210.38L568.69,218.71L568.83,218.99L577.82,234.81L577.97,234.94L580,235.86" style="vector-effect: none; fill: none; stroke: rgb(148, 0, 211); stroke-opacity: 1; stroke-width: 3px; opacity: 1;"/></g><g class="points"/><g class="text"/></g><g class="trace scatter trace21ccf1" style="stroke-miterlimit: 2;"><g class="fills"><g><path class="js-fill" d="M0,303.81L6.96,302.64L7.11,302.6L16.39,301.43L16.53,301.43L28.57,301.37L28.72,301.37L139.09,301.13L139.23,301.11L151.85,300.17L152,300.17L194.78,301.61L194.93,301.61L287.46,301.44L287.61,301.42L300.66,300.36L300.81,300.36L310.38,301.11L310.52,301.13L326.04,301.5L326.19,301.5L440.33,301.34L440.48,301.32L454.25,300.63L454.4,300.63L493.12,301.53L493.27,301.53L518.21,301.64L518.36,301.64L553.75,302.11L553.89,302.11L569.27,302.32L569.41,302.34L580,304L580,303.83L571.73,302.51L571.59,302.48L539.53,301.84L539.39,301.83L465.86,301.08L465.71,301.07L451.35,300.33L451.21,300.34L440.19,301.11L440.04,301.12L319.37,301.33L319.22,301.33L310.09,300.82L309.94,300.8L301.1,300.06L300.95,300.06L287.32,301.22L287.17,301.24L170.85,301.24L170.71,301.24L160.85,300.63L160.7,300.61L152,299.87L151.85,299.86L139.09,300.87L138.94,300.89L28.28,301.12L28.14,301.12L15.08,301.24L14.94,301.25L5.95,302.66L5.8,302.7L0,303.62Z" style="fill: rgb(207, 184, 124); fill-opacity: 0.15; stroke-width: 0;"/></g></g><g class="errorbars"/><g class="lines"><path class="js-line" d="M0,303.62L5.8,302.7L5.95,302.66L14.94,301.25L15.08,301.24L28.14,301.12L28.28,301.12L138.94,300.89L139.09,300.87L151.85,299.86L152,299.87L160.7,300.61L160.85,300.63L170.71,301.24L170.85,301.24L287.17,301.24L287.32,301.22L300.95,300.06L301.1,300.06L309.94,300.8L310.09,300.82L319.22,301.33L319.37,301.33L440.04,301.12L440.19,301.11L451.21,300.34L451.35,300.33L465.71,301.07L465.86,301.08L539.39,301.83L539.53,301.84L571.59,302.48L571.73,302.51L580,303.83" style="vector-effect: none; fill: none; stroke: rgb(254, 203, 82); stroke-opacity: 1; stroke-width: 0px; opacity: 1;"/></g><g class="points"/><g class="text"/></g><g class="trace scatter trace3856ef" style="stroke-miterlimit: 2;"><g class="fills"/><g class="errorbars"/><g class="lines"><path class="js-line" d="M0,303.81L6.96,302.64L7.11,302.6L16.39,301.43L16.53,301.43L28.57,301.37L28.72,301.37L139.09,301.13L139.23,301.11L151.85,300.17L152,300.17L194.78,301.61L194.93,301.61L287.46,301.44L287.61,301.42L300.66,300.36L300.81,300.36L310.38,301.11L310.52,301.13L326.04,301.5L326.19,301.5L440.33,301.34L440.48,301.32L454.25,300.63L454.4,300.63L493.12,301.53L493.27,301.53L518.21,301.64L518.36,301.64L553.75,302.11L553.89,302.11L569.27,302.32L569.41,302.34L580,304" style="vector-effect: none; fill: none; stroke: rgb(99, 110, 250); stroke-opacity: 1; stroke-width: 0px; opacity: 1;"/></g><g class="points"/><g class="text"/></g><g class="trace scatter tracec33f33" style="stroke-miterlimit: 2; opacity: 1;"><g class="fills"/><g class="errorbars"/><g class="lines"><path class="js-line" d="M0,303.71L5.08,302.98L5.22,302.94L16.68,301.3L16.82,301.29L139.09,301L139.23,300.98L152,300.02L152.14,300.02L160.85,300.76L160.99,300.78L171,301.36L171.14,301.36L287.32,301.34L287.46,301.32L301.24,300.21L301.39,300.22L310.23,300.97L310.38,300.98L319.22,301.45L319.37,301.45L440.19,301.23L440.33,301.21L457.59,300.66L457.73,300.67L477.17,301.28L477.31,301.28L545.19,302.03L545.34,302.04L571.59,302.59L571.73,302.61L580,303.91" style="vector-effect: none; fill: none; stroke: rgb(207, 184, 124); stroke-opacity: 1; stroke-width: 3px; opacity: 1;"/></g><g class="points"/><g class="text"/></g></g></g></g><g class="zerolinelayer-above"/><path class="xlines-above crisp" d="M79,420.5H661M79,99.5H661" style="fill: none; stroke-width: 1px; stroke: rgb(0, 0, 0); stroke-opacity: 1;"/><path class="ylines-above crisp" d="M79.5,100V420M660.5,100V420" style="fill: none; stroke-width: 1px; stroke: rgb(0, 0, 0); stroke-opacity: 1;"/><g class="overlines-above"/><g class="xaxislayer-above"><path class="xtick ticks crisp" d="M0,421v5" transform="translate(80,0)" style="stroke: rgb(68, 68, 68); stroke-opacity: 1; stroke-width: 1px;"/><path class="xtick ticks crisp" d="M0,421v5" transform="translate(152.5,0)" style="stroke: rgb(68, 68, 68); stroke-opacity: 1; stroke-width: 1px;"/><path class="xtick ticks crisp" d="M0,421v5" transform="translate(225,0)" style="stroke: rgb(68, 68, 68); stroke-opacity: 1; stroke-width: 1px;"/><path class="xtick ticks crisp" d="M0,421v5" transform="translate(297.5,0)" style="stroke: rgb(68, 68, 68); stroke-opacity: 1; stroke-width: 1px;"/><path class="xtick ticks crisp" d="M0,421v5" transform="translate(370,0)" style="stroke: rgb(68, 68, 68); stroke-opacity: 1; stroke-width: 1px;"/><path class="xtick ticks crisp" d="M0,421v5" transform="translate(442.5,0)" style="stroke: rgb(68, 68, 68); stroke-opacity: 1; stroke-width: 1px;"/><path class="xtick ticks crisp" d="M0,421v5" transform="translate(515,0)" style="stroke: rgb(68, 68, 68); stroke-opacity: 1; stroke-width: 1px;"/><path class="xtick ticks crisp" d="M0,421v5" transform="translate(587.5,0)" style="stroke: rgb(68, 68, 68); stroke-opacity: 1; stroke-width: 1px;"/><path class="xtick ticks crisp" d="M0,421v5" transform="translate(660,0)" style="stroke: rgb(68, 68, 68); stroke-opacity: 1; stroke-width: 1px;"/><g class="xtick"><text text-anchor="middle" x="0" y="440.4" transform="translate(80,0)" style="font-family: 'Open Sans', verdana, arial, sans-serif; font-size: 12px; fill: rgb(42, 63, 95); fill-opacity: 1; white-space: pre;">−2000</text></g><g class="xtick"><text text-anchor="middle" x="0" y="440.4" style="font-family: 'Open Sans', verdana, arial, sans-serif; font-size: 12px; fill: rgb(42, 63, 95); fill-opacity: 1; white-space: pre;" transform="translate(152.5,0)">−1500</text></g><g class="xtick"><text text-anchor="middle" x="0" y="440.4" style="font-family: 'Open Sans', verdana, arial, sans-serif; font-size: 12px; fill: rgb(42, 63, 95); fill-opacity: 1; white-space: pre;" transform="translate(225,0)">−1000</text></g><g class="xtick"><text text-anchor="middle" x="0" y="440.4" style="font-family: 'Open Sans', verdana, arial, sans-serif; font-size: 12px; fill: rgb(42, 63, 95); fill-opacity: 1; white-space: pre;" transform="translate(297.5,0)">−500</text></g><g class="xtick"><text text-anchor="middle" x="0" y="440.4" style="font-family: 'Open Sans', verdana, arial, sans-serif; font-size: 12px; fill: rgb(42, 63, 95); fill-opacity: 1; white-space: pre;" transform="translate(370,0)">0</text></g><g class="xtick"><text text-anchor="middle" x="0" y="440.4" style="font-family: 'Open Sans', verdana, arial, sans-serif; font-size: 12px; fill: rgb(42, 63, 95); fill-opacity: 1; white-space: pre;" transform="translate(442.5,0)">500</text></g><g class="xtick"><text text-anchor="middle" x="0" y="440.4" style="font-family: 'Open Sans', verdana, arial, sans-serif; font-size: 12px; fill: rgb(42, 63, 95); fill-opacity: 1; white-space: pre;" transform="translate(515,0)">1000</text></g><g class="xtick"><text text-anchor="middle" x="0" y="440.4" style="font-family: 'Open Sans', verdana, arial, sans-serif; font-size: 12px; fill: rgb(42, 63, 95); fill-opacity: 1; white-space: pre;" transform="translate(587.5,0)">1500</text></g><g class="xtick"><text text-anchor="middle" x="0" y="440.4" style="font-family: 'Open Sans', verdana, arial, sans-serif; font-size: 12px; fill: rgb(42, 63, 95); fill-opacity: 1; white-space: pre;" transform="translate(660,0)">2000</text></g></g><g class="yaxislayer-above"><path class="ytick ticks crisp" d="M79,0h-5" transform="translate(0,409.29)" style="stroke: rgb(68, 68, 68); stroke-opacity: 1; stroke-width: 1px;"/><path class="ytick ticks crisp" d="M79,0h-5" transform="translate(0,339.66999999999996)" style="stroke: rgb(68, 68, 68); stroke-opacity: 1; stroke-width: 1px;"/><path class="ytick ticks crisp" d="M79,0h-5" transform="translate(0,270.05)" style="stroke: rgb(68, 68, 68); stroke-opacity: 1; stroke-width: 1px;"/><path class="ytick ticks crisp" d="M79,0h-5" transform="translate(0,200.43)" style="stroke: rgb(68, 68, 68); stroke-opacity: 1; stroke-width: 1px;"/><path class="ytick ticks crisp" d="M79,0h-5" transform="translate(0,130.81)" style="stroke: rgb(68, 68, 68); stroke-opacity: 1; stroke-width: 1px;"/><g class="ytick"><text text-anchor="end" x="71.6" y="4.199999999999999" transform="translate(0,409.29)" style="font-family: 'Open Sans', verdana, arial, sans-serif; font-size: 12px; fill: rgb(42, 63, 95); fill-opacity: 1; white-space: pre;">0</text></g><g class="ytick"><text text-anchor="end" x="71.6" y="4.199999999999999" style="font-family: 'Open Sans', verdana, arial, sans-serif; font-size: 12px; fill: rgb(42, 63, 95); fill-opacity: 1; white-space: pre;" transform="translate(0,339.66999999999996)">20k</text></g><g class="ytick"><text text-anchor="end" x="71.6" y="4.199999999999999" style="font-family: 'Open Sans', verdana, arial, sans-serif; font-size: 12px; fill: rgb(42, 63, 95); fill-opacity: 1; white-space: pre;" transform="translate(0,270.05)">40k</text></g><g class="ytick"><text text-anchor="end" x="71.6" y="4.199999999999999" style="font-family: 'Open Sans', verdana, arial, sans-serif; font-size: 12px; fill: rgb(42, 63, 95); fill-opacity: 1; white-space: pre;" transform="translate(0,200.43)">60k</text></g><g class="ytick"><text text-anchor="end" x="71.6" y="4.199999999999999" style="font-family: 'Open Sans', verdana, arial, sans-serif; font-size: 12px; fill: rgb(42, 63, 95); fill-opacity: 1; white-space: pre;" transform="translate(0,130.81)">80k</text></g></g><g class="overaxes-above"/></g></g><g class="polarlayer"/><g class="smithlayer"/><g class="ternarylayer"/><g class="geolayer"/><g class="funnelarealayer"/><g class="pielayer"/><g class="iciclelayer"/><g class="treemaplayer"/><g class="sunburstlayer"/><g class="glimages"/><defs id="topdefs-c32aa4"><g class="clips"/><clipPath id="legendc32aa4"><rect width="515" height="67" x="1" y="1"/></clipPath></defs><g class="layer-above"><g class="imagelayer"/><g class="shapelayer"><g class="shape-group" data-index="0" clip-path="url(#clipc32aa4x)"><path data-index="0" fill-rule="evenodd" d="M220.51,420L220.51,100" style="opacity: 1; stroke: rgb(128, 128, 128); stroke-opacity: 1; fill: rgb(0, 0, 0); fill-opacity: 0; stroke-dasharray: 9px, 9px; stroke-width: 2px;"/></g><g class="shape-group" data-index="1" clip-path="url(#clipc32aa4x)"><path data-index="1" fill-rule="evenodd" d="M297.5,420L297.5,100" style="opacity: 1; stroke: rgb(128, 128, 128); stroke-opacity: 1; fill: rgb(0, 0, 0); fill-opacity: 0; stroke-dasharray: 3px, 3px; stroke-width: 2px;"/></g><g class="shape-group" data-index="2" clip-path="url(#clipc32aa4x)"><path data-index="2" fill-rule="evenodd" d="M370,420L370,100" style="opacity: 1; stroke: rgb(128, 128, 128); stroke-opacity: 1; fill: rgb(0, 0, 0); fill-opacity: 0; stroke-dasharray: 9px, 9px; stroke-width: 2px;"/></g><g class="shape-group" data-index="3" clip-path="url(#clipc32aa4x)"><path data-index="3" fill-rule="evenodd" d="M447,420L447,100" style="opacity: 1; stroke: rgb(128, 128, 128); stroke-opacity: 1; fill: rgb(0, 0, 0); fill-opacity: 0; stroke-dasharray: 3px, 3px; stroke-width: 2px;"/></g><g class="shape-group" data-index="4" clip-path="url(#clipc32aa4x)"><path data-index="4" fill-rule="evenodd" d="M519.5,420L519.5,100" style="opacity: 1; stroke: rgb(128, 128, 128); stroke-opacity: 1; fill: rgb(0, 0, 0); fill-opacity: 0; stroke-dasharray: 9px, 9px; stroke-width: 2px;"/></g><g class="shape-group" data-index="5" clip-path="url(#clipc32aa4x)"><path data-index="5" fill-rule="evenodd" d="M596.49,420L596.49,100" style="opacity: 1; stroke: rgb(128, 128, 128); stroke-opacity: 1; fill: rgb(0, 0, 0); fill-opacity: 0; stroke-dasharray: 3px, 3px; stroke-width: 2px;"/></g><g class="shape-group" data-index="6" clip-path="url(#clipc32aa4x)"><path data-index="6" fill-rule="evenodd" d="M370,420L370,100" style="opacity: 1; stroke: rgb(255, 0, 0); stroke-opacity: 1; fill: rgb(0, 0, 0); fill-opacity: 0; stroke-dasharray: 9px, 9px; stroke-width: 2px;"/></g></g></g><g class="infolayer"><g class="legend" pointer-events="all" transform="translate(143,24.599999999999994)"><rect class="bg" shape-rendering="crispEdges" style="stroke: rgb(0, 0, 0); stroke-opacity: 1; fill: rgb(255, 255, 255); fill-opacity: 0.8; stroke-width: 1px;" width="516" height="68" x="0.5" y="0.5"/><g class="scrollbox" transform="" clip-path="url(#legendc32aa4)"><g class="groups"><g class="traces" transform="translate(1,15.5)" style="opacity: 1;"><text class="legendtext" text-anchor="start" x="40" y="4.680000000000001" style="font-family: 'Open Sans', verdana, arial, sans-serif; font-size: 12px; fill: rgb(42, 63, 95); fill-opacity: 1; white-space: pre;">Gamma</text><g class="layers" style="opacity: 1;"><g class="legendfill"/><g class="legendlines"><path class="js-line" d="M5,0h30" style="fill: none; stroke: rgb(207, 184, 124); stroke-opacity: 1; stroke-width: 3px;"/></g><g class="legendsymbols"><g class="legendpoints"/></g></g><rect class="legendtoggle" x="0" y="-9.5" width="89.5625" height="19" style="fill: rgb(0, 0, 0); fill-opacity: 0;"/></g><g class="traces" transform="translate(132.8671875,15.5)" style="opacity: 1;"><text class="legendtext" text-anchor="start" x="40" y="4.680000000000001" style="font-family: 'Open Sans', verdana, arial, sans-serif; font-size: 12px; fill: rgb(42, 63, 95); fill-opacity: 1; white-space: pre;">Gamma_down</text><g class="layers"><g class="legendfill"><path class="js-fill" d="M5,-2h30v6h-30z" style="stroke-width: 0; fill: rgb(207, 184, 124); fill-opacity: 0.15;"/></g><g class="legendlines"><path class="js-line" d="M5,-2h30" style="fill: none; stroke: rgb(99, 110, 250); stroke-opacity: 1; stroke-width: 0px;"/></g><g class="legendsymbols"><g class="legendpoints"/></g></g><rect class="legendtoggle" x="0" y="-9.5" width="129.3671875" height="19" style="fill: rgb(0, 0, 0); fill-opacity: 0;"/></g><g class="traces" transform="translate(264.734375,15.5)" style="opacity: 1;"><text class="legendtext" text-anchor="start" x="40" y="4.680000000000001" style="font-family: 'Open Sans', verdana, arial, sans-serif; font-size: 12px; fill: rgb(42, 63, 95); fill-opacity: 1; white-space: pre;">Gamma_up</text><g class="layers"><g class="legendfill"/><g class="legendlines"><path class="js-line" d="M5,0h30" style="fill: none; stroke: rgb(254, 203, 82); stroke-opacity: 1; stroke-width: 0px;"/></g><g class="legendsymbols"><g class="legendpoints"/></g></g><rect class="legendtoggle" x="0" y="-9.5" width="112.265625" height="19" style="fill: rgb(0, 0, 0); fill-opacity: 0;"/></g><g class="traces" transform="translate(396.6015625,15.5)" style="opacity: 1;"><text class="legendtext" text-anchor="start" x="40" y="4.680000000000001" style="font-family: 'Open Sans', verdana, arial, sans-serif; font-size: 12px; fill: rgb(42, 63, 95); fill-opacity: 1; white-space: pre;">Beta</text><g class="layers" style="opacity: 1;"><g class="legendfill"/><g class="legendlines"><path class="js-line" d="M5,0h30" style="fill: none; stroke: rgb(148, 0, 211); stroke-opacity: 1; stroke-width: 3px;"/></g><g class="legendsymbols"><g class="legendpoints"/></g></g><rect class="legendtoggle" x="0" y="-9.5" width="69.8125" height="19" style="fill: rgb(0, 0, 0); fill-opacity: 0;"/></g><g class="traces" transform="translate(1,34.5)" style="opacity: 1;"><text class="legendtext" text-anchor="start" x="40" y="4.680000000000001" style="font-family: 'Open Sans', verdana, arial, sans-serif; font-size: 12px; fill: rgb(42, 63, 95); fill-opacity: 1; white-space: pre;">Beta_down</text><g class="layers"><g class="legendfill"><path class="js-fill" d="M5,-2h30v6h-30z" style="stroke-width: 0; fill: rgb(148, 0, 211); fill-opacity: 0.15;"/></g><g class="legendlines"><path class="js-line" d="M5,-2h30" style="fill: none; stroke: rgb(182, 232, 128); stroke-opacity: 1; stroke-width: 0px;"/></g><g class="legendsymbols"><g class="legendpoints"/></g></g><rect class="legendtoggle" x="0" y="-9.5" width="109.6171875" height="19" style="fill: rgb(0, 0, 0); fill-opacity: 0;"/></g><g class="traces" transform="translate(132.8671875,34.5)" style="opacity: 1;"><text class="legendtext" text-anchor="start" x="40" y="4.680000000000001" style="font-family: 'Open Sans', verdana, arial, sans-serif; font-size: 12px; fill: rgb(42, 63, 95); fill-opacity: 1; white-space: pre;">Beta_up</text><g class="layers"><g class="legendfill"/><g class="legendlines"><path class="js-line" d="M5,0h30" style="fill: none; stroke: rgb(255, 102, 146); stroke-opacity: 1; stroke-width: 0px;"/></g><g class="legendsymbols"><g class="legendpoints"/></g></g><rect class="legendtoggle" x="0" y="-9.5" width="92.515625" height="19" style="fill: rgb(0, 0, 0); fill-opacity: 0;"/></g><g class="traces" transform="translate(264.734375,34.5)" style="opacity: 1;"><text class="legendtext" text-anchor="start" x="40" y="4.680000000000001" style="font-family: 'Open Sans', verdana, arial, sans-serif; font-size: 12px; fill: rgb(42, 63, 95); fill-opacity: 1; white-space: pre;">Alpha</text><g class="layers" style="opacity: 1;"><g class="legendfill"/><g class="legendlines"><path class="js-line" d="M5,0h30" style="fill: none; stroke: rgb(0, 0, 255); stroke-opacity: 1; stroke-width: 3px;"/></g><g class="legendsymbols"><g class="legendpoints"/></g></g><rect class="legendtoggle" x="0" y="-9.5" width="76.2734375" height="19" style="fill: rgb(0, 0, 0); fill-opacity: 0;"/></g><g class="traces" transform="translate(396.6015625,34.5)" style="opacity: 1;"><text class="legendtext" text-anchor="start" x="40" y="4.680000000000001" style="font-family: 'Open Sans', verdana, arial, sans-serif; font-size: 12px; fill: rgb(42, 63, 95); fill-opacity: 1; white-space: pre;">Alpha_down</text><g class="layers"><g class="legendfill"><path class="js-fill" d="M5,-2h30v6h-30z" style="stroke-width: 0; fill: rgb(0, 0, 255); fill-opacity: 0.15;"/></g><g class="legendlines"><path class="js-line" d="M5,-2h30" style="fill: none; stroke: rgb(255, 161, 90); stroke-opacity: 1; stroke-width: 0px;"/></g><g class="legendsymbols"><g class="legendpoints"/></g></g><rect class="legendtoggle" x="0" y="-9.5" width="116.078125" height="19" style="fill: rgb(0, 0, 0); fill-opacity: 0;"/></g><g class="traces" transform="translate(1,53.5)" style="opacity: 1;"><text class="legendtext" text-anchor="start" x="40" y="4.680000000000001" style="font-family: 'Open Sans', verdana, arial, sans-serif; font-size: 12px; fill: rgb(42, 63, 95); fill-opacity: 1; white-space: pre;">Alpha_up</text><g class="layers"><g class="legendfill"/><g class="legendlines"><path class="js-line" d="M5,0h30" style="fill: none; stroke: rgb(171, 99, 250); stroke-opacity: 1; stroke-width: 0px;"/></g><g class="legendsymbols"><g class="legendpoints"/></g></g><rect class="legendtoggle" x="0" y="-9.5" width="98.9765625" height="19" style="fill: rgb(0, 0, 0); fill-opacity: 0;"/></g><g class="traces" transform="translate(132.8671875,53.5)" style="opacity: 1;"><text class="legendtext" text-anchor="start" x="40" y="4.680000000000001" style="font-family: 'Open Sans', verdana, arial, sans-serif; font-size: 12px; fill: rgb(42, 63, 95); fill-opacity: 1; white-space: pre;">Theta</text><g class="layers" style="opacity: 1;"><g class="legendfill"/><g class="legendlines"><path class="js-line" d="M5,0h30" style="fill: none; stroke: rgb(75, 0, 130); stroke-opacity: 1; stroke-width: 3px;"/></g><g class="legendsymbols"><g class="legendpoints"/></g></g><rect class="legendtoggle" x="0" y="-9.5" width="77.078125" height="19" style="fill: rgb(0, 0, 0); fill-opacity: 0;"/></g><g class="traces" transform="translate(264.734375,53.5)" style="opacity: 1;"><text class="legendtext" text-anchor="start" x="40" y="4.680000000000001" style="font-family: 'Open Sans', verdana, arial, sans-serif; font-size: 12px; fill: rgb(42, 63, 95); fill-opacity: 1; white-space: pre;">Theta_down</text><g class="layers"><g class="legendfill"><path class="js-fill" d="M5,-2h30v6h-30z" style="stroke-width: 0; fill: rgb(75, 0, 130); fill-opacity: 0.15;"/></g><g class="legendlines"><path class="js-line" d="M5,-2h30" style="fill: none; stroke: rgb(239, 85, 59); stroke-opacity: 1; stroke-width: 0px;"/></g><g class="legendsymbols"><g class="legendpoints"/></g></g><rect class="legendtoggle" x="0" y="-9.5" width="116.875" height="19" style="fill: rgb(0, 0, 0); fill-opacity: 0;"/></g><g class="traces" transform="translate(396.6015625,53.5)" style="opacity: 1;"><text class="legendtext" text-anchor="start" x="40" y="4.680000000000001" style="font-family: 'Open Sans', verdana, arial, sans-serif; font-size: 12px; fill: rgb(42, 63, 95); fill-opacity: 1; white-space: pre;">Theta_up</text><g class="layers"><g class="legendfill"/><g class="legendlines"><path class="js-line" d="M5,0h30" style="fill: none; stroke: rgb(99, 110, 250); stroke-opacity: 1; stroke-width: 0px;"/></g><g class="legendsymbols"><g class="legendpoints"/></g></g><rect class="legendtoggle" x="0" y="-9.5" width="99.7734375" height="19" style="fill: rgb(0, 0, 0); fill-opacity: 0;"/></g></g></g><rect class="scrollbar" rx="20" ry="3" width="0" height="0" style="fill: rgb(128, 139, 164); fill-opacity: 1;" x="0" y="0"/></g><g class="g-gtitle"><text class="gtitle" x="350" y="50" text-anchor="middle" dy="0em" style="opacity: 1; font-family: Arial; font-size: 18px; fill: rgb(0, 0, 0); fill-opacity: 1; white-space: pre;"><tspan class="line" dy="0em" x="350" y="50"><tspan style="font-weight:bold">Figure f006: V3a Band-Specific Omission Dynamics (AAAB)</tspan></tspan><tspan class="line" dy="1.3em" x="350" y="50">​<tspan style="font-size:70%" dy="-0.6em">Relative Power (dB) with ±SEM | 0ms = Omission Onset | 30ms Smoothed</tspan><tspan dy="0.42em">​</tspan></tspan></text></g><g class="g-xtitle"><text class="xtitle" x="370" y="467.200390625" text-anchor="middle" style="opacity: 1; font-family: 'Open Sans', verdana, arial, sans-serif; font-size: 14px; fill: rgb(42, 63, 95); fill-opacity: 1; white-space: pre;">Time from Omission (ms)</text></g><g class="g-ytitle"><text class="ytitle" transform="rotate(-90,29.840234375,260)" x="29.840234375" y="260" text-anchor="middle" style="opacity: 1; font-family: 'Open Sans', verdana, arial, sans-serif; font-size: 14px; fill: rgb(42, 63, 95); fill-opacity: 1; white-space: pre;">Relative Power (dB)</text></g><g class="annotation" data-index="0" style="opacity: 1;"><g class="annotation-text-g" transform="rotate(0,230.01,109.5)"><g class="cursor-pointer" transform="translate(221,100)"><rect class="bg" x="0.5" y="0.5" width="18" height="18" style="stroke-width: 1px; stroke: rgb(0, 0, 0); stroke-opacity: 0; fill: rgb(0, 0, 0); fill-opacity: 0;"/><text class="annotation-text" text-anchor="middle" x="9.43359375" y="14" style="font-family: 'Open Sans', verdana, arial, sans-serif; font-size: 12px; fill: rgb(42, 63, 95); fill-opacity: 1; white-space: pre;">P1</text></g></g></g><g class="annotation" data-index="1" style="opacity: 1;"><g class="annotation-text-g" transform="rotate(0,308,109.5)"><g class="cursor-pointer" transform="translate(298,100)"><rect class="bg" x="0.5" y="0.5" width="20" height="18" style="stroke-width: 1px; stroke: rgb(0, 0, 0); stroke-opacity: 0; fill: rgb(0, 0, 0); fill-opacity: 0;"/><text class="annotation-text" text-anchor="middle" x="10.4375" y="14" style="font-family: 'Open Sans', verdana, arial, sans-serif; font-size: 12px; fill: rgb(42, 63, 95); fill-opacity: 1; white-space: pre;">D1</text></g></g></g><g class="annotation" data-index="2" style="opacity: 1;"><g class="annotation-text-g" transform="rotate(0,379.5,109.5)"><g class="cursor-pointer" transform="translate(370,100)"><rect class="bg" x="0.5" y="0.5" width="18" height="18" style="stroke-width: 1px; stroke: rgb(0, 0, 0); stroke-opacity: 0; fill: rgb(0, 0, 0); fill-opacity: 0;"/><text class="annotation-text" text-anchor="middle" x="9.43359375" y="14" style="font-family: 'Open Sans', verdana, arial, sans-serif; font-size: 12px; fill: rgb(42, 63, 95); fill-opacity: 1; white-space: pre;">P2</text></g></g></g><g class="annotation" data-index="3" style="opacity: 1;"><g class="annotation-text-g" transform="rotate(0,457.5,109.5)"><g class="cursor-pointer" transform="translate(447,100)"><rect class="bg" x="0.5" y="0.5" width="20" height="18" style="stroke-width: 1px; stroke: rgb(0, 0, 0); stroke-opacity: 0; fill: rgb(0, 0, 0); fill-opacity: 0;"/><text class="annotation-text" text-anchor="middle" x="10.4375" y="14" style="font-family: 'Open Sans', verdana, arial, sans-serif; font-size: 12px; fill: rgb(42, 63, 95); fill-opacity: 1; white-space: pre;">D2</text></g></g></g><g class="annotation" data-index="4" style="opacity: 1;"><g class="annotation-text-g" transform="rotate(0,529,109.5)"><g class="cursor-pointer" transform="translate(520,100)"><rect class="bg" x="0.5" y="0.5" width="18" height="18" style="stroke-width: 1px; stroke: rgb(0, 0, 0); stroke-opacity: 0; fill: rgb(0, 0, 0); fill-opacity: 0;"/><text class="annotation-text" text-anchor="middle" x="9.43359375" y="14" style="font-family: 'Open Sans', verdana, arial, sans-serif; font-size: 12px; fill: rgb(42, 63, 95); fill-opacity: 1; white-space: pre;">P3</text></g></g></g><g class="annotation" data-index="5" style="opacity: 1;"><g class="annotation-text-g" transform="rotate(0,606.99,109.5)"><g class="cursor-pointer" transform="translate(596,100)"><rect class="bg" x="0.5" y="0.5" width="20" height="18" style="stroke-width: 1px; stroke: rgb(0, 0, 0); stroke-opacity: 0; fill: rgb(0, 0, 0); fill-opacity: 0;"/><text class="annotation-text" text-anchor="middle" x="10.4375" y="14" style="font-family: 'Open Sans', verdana, arial, sans-serif; font-size: 12px; fill: rgb(42, 63, 95); fill-opacity: 1; white-space: pre;">D3</text></g></g></g><g class="annotation" data-index="6" style="opacity: 1;"><g class="annotation-text-g" transform="rotate(0,419,109.5)"><g class="cursor-pointer" transform="translate(370,100)"><rect class="bg" x="0.5" y="0.5" width="97" height="18" style="stroke-width: 1px; stroke: rgb(0, 0, 0); stroke-opacity: 0; fill: rgb(0, 0, 0); fill-opacity: 0;"/><text class="annotation-text" text-anchor="middle" x="49.171875" y="14" style="font-family: 'Open Sans', verdana, arial, sans-serif; font-size: 12px; fill: rgb(42, 63, 95); fill-opacity: 1; white-space: pre;">OMISSION (P2)</text></g></g></g></g></svg>