<svg class="main-svg" xmlns="http://www.w3.org/2000/svg" xmlns:xlink="http://www.w3.org/1999/xlink" width="700" height="500" style="" viewBox="0 0 700 500"><rect x="0" y="0" width="700" height="500" style="fill: rgb(255, 255, 255); fill-opacity: 1;"/><defs id="defs-f37b52"><g class="clips"><clipPath id="clipf37b52xyplot" class="plotclip"><rect width="580" height="320"/></clipPath><clipPath class="axesclip" id="clipf37b52x"><rect x="80" y="0" width="580" height="500"/></clipPath><clipPath class="axesclip" id="clipf37b52y"><rect x="0" y="100" width="700" height="320"/></clipPath><clipPath class="axesclip" id="clipf37b52xy"><rect x="80" y="100" width="580" height="320"/></clipPath></g><g class="gradients"/><g class="patterns"/></defs><g class="bglayer"/><g class="layer-below"><g class="imagelayer"/><g class="shapelayer"/></g><g class="cartesianlayer"><g class="subplot xy"><g class="layer-subplot"><g class="shapelayer"/><g class="imagelayer"/></g><g class="minor-gridlayer"><g class="x"/><g class="y"/></g><g class="gridlayer"><g class="x"><path class="xgrid crisp" transform="translate(152.5,0)" d="M0,100v320" style="stroke: rgb(211, 211, 211); stroke-opacity: 1; stroke-width: 1px;"/><path class="xgrid crisp" transform="translate(225,0)" d="M0,100v320" style="stroke: rgb(211, 211, 211); stroke-opacity: 1; stroke-width: 1px;"/><path class="xgrid crisp" transform="translate(297.5,0)" d="M0,100v320" style="stroke: rgb(211, 211, 211); stroke-opacity: 1; stroke-width: 1px;"/><path class="xgrid crisp" transform="translate(442.5,0)" d="M0,100v320" style="stroke: rgb(211, 211, 211); stroke-opacity: 1; stroke-width: 1px;"/><path class="xgrid crisp" transform="translate(515,0)" d="M0,100v320" style="stroke: rgb(211, 211, 211); stroke-opacity: 1; stroke-width: 1px;"/><path class="xgrid crisp" transform="translate(587.5,0)" d="M0,100v320" style="stroke: rgb(211, 211, 211); stroke-opacity: 1; stroke-width: 1px;"/></g><g class="y"><path class="ygrid crisp" transform="translate(0,367.78)" d="M80,0h580" style="stroke: rgb(211, 211, 211); stroke-opacity: 1; stroke-width: 1px;"/><path class="ygrid crisp" transform="translate(0,324.53)" d="M80,0h580" style="stroke: rgb(211, 211, 211); stroke-opacity: 1; stroke-width: 1px;"/><path class="ygrid crisp" transform="translate(0,281.28)" d="M80,0h580" style="stroke: rgb(211, 211, 211); stroke-opacity: 1; stroke-width: 1px;"/><path class="ygrid crisp" transform="translate(0,238.03)" d="M80,0h580" style="stroke: rgb(211, 211, 211); stroke-opacity: 1; stroke-width: 1px;"/><path class="ygrid crisp" transform="translate(0,194.78)" d="M80,0h580" style="stroke: rgb(211, 211, 211); stroke-opacity: 1; stroke-width: 1px;"/><path class="ygrid crisp" transform="translate(0,151.53)" d="M80,0h580" style="stroke: rgb(211, 211, 211); stroke-opacity: 1; stroke-width: 1px;"/><path class="ygrid crisp" transform="translate(0,108.28)" d="M80,0h580" style="stroke: rgb(211, 211, 211); stroke-opacity: 1; stroke-width: 1px;"/></g></g><g class="zerolinelayer"><path class="xzl zl crisp" transform="translate(370,0)" d="M0,100v320" style="stroke: rgb(235, 240, 248); stroke-opacity: 1; stroke-width: 2px;"/><path class="yzl zl crisp" transform="translate(0,411.03)" d="M80,0h580" style="stroke: rgb(235, 240, 248); stroke-opacity: 1; stroke-width: 2px;"/></g><g class="layer-between"><g class="shapelayer"/><g class="imagelayer"/></g><path class="xlines-below"/><path class="ylines-below"/><g class="overlines-below"/><g class="xaxislayer-below"/><g class="yaxislayer-below"/><g class="overaxes-below"/><g class="overplot"><g class="xy" transform="translate(80,100)" clip-path="url(#clipf37b52xyplot)"><g class="scatterlayer mlayer"><g class="trace scatter traceafdfda" style="stroke-miterlimit: 2;"><g class="fills"><g><path class="js-fill" d="M0,124.81L2.03,123.95L2.18,123.83L5.08,120.17L5.22,119.94L12.18,107.4L12.33,107.14L20.02,94.44L20.16,94.22L39.45,66L39.59,65.79L51.63,50.83L51.78,50.68L58.01,45.06L58.16,44.95L63.82,41.43L63.96,41.35L76.14,36.47L76.29,36.42L89.63,31.03L89.78,30.96L97.17,27.59L97.32,27.54L102.69,26.04L102.83,26.02L108.05,25.7L108.2,25.72L113.27,26.81L113.42,26.87L119.8,29.86L119.94,29.94L135.46,37.69L135.61,37.73L164.33,45.86L164.47,45.88L169.69,45.5L169.84,45.47L175.35,43.19L175.49,43.12L184.34,39.23L184.49,39.19L189.13,38.66L189.27,38.68L193.77,39.73L193.91,39.78L201.02,42.94L201.17,43L209.58,46.39L209.72,46.43L215.23,46.8L215.38,46.78L230.17,46.3L230.32,46.31L244.39,47.71L244.53,47.69L252.22,45.91L252.36,45.87L263.68,42.87L263.82,42.86L271.22,43.1L271.36,43.13L276.73,44.59L276.87,44.64L285.58,46.81L285.72,46.82L291.96,46.52L292.1,46.49L297.03,45.1L297.18,45.04L307.91,41.68L308.06,41.66L318.64,39.87L318.79,39.81L334.31,34.18L334.45,34.16L339.38,34.23L339.53,34.25L344.9,36.31L345.04,36.39L351.42,40.19L351.57,40.29L361.72,45.97L361.87,46.02L368.39,47.28L368.54,47.3L393.34,50.36L393.48,50.34L400.3,48.69L400.45,48.64L412.48,45.17L412.63,45.16L418.43,45.48L418.57,45.51L424.52,47.45L424.67,47.52L433.22,50.96L433.37,50.99L438.88,51.57L439.02,51.57L444.68,50.83L444.83,50.79L453.67,47.58L453.82,47.53L461.36,46.21L461.51,46.19L467.89,44.81L468.03,44.76L479.34,42.2L479.49,42.2L484.86,42.95L485,42.99L490.51,45.6L490.66,45.69L496.75,50.9L496.89,51.05L503.57,58.79L503.71,58.97L514.3,70.62L514.44,70.75L526.92,82.52L527.06,82.68L533.88,91.05L534.02,91.24L543.02,104.49L543.16,104.72L563.61,134.89L563.76,135.09L578.4,156.56L578.55,156.65L580,157.09L580,151.87L579.85,151.86L579.71,151.84L577.39,150.49L577.24,150.35L570.14,139.19L569.99,138.94L558.24,121.2L558.1,120.99L544.47,100.03L544.32,99.79L535.18,85.73L535.04,85.52L529.09,77.67L528.95,77.5L515.02,63.6L514.88,63.47L499.65,45.84L499.5,45.67L494.57,40.44L494.43,40.3L489.35,36.39L489.21,36.31L484.13,34.22L483.99,34.19L478.04,33.67L477.89,33.68L468.76,36.09L468.61,36.14L459.91,38.01L459.76,38.03L446.13,42.19L445.99,42.24L440.04,43.37L439.89,43.38L433.95,42.91L433.8,42.88L425.25,39.42L425.1,39.35L419.3,37.19L419.15,37.16L412.92,36.63L412.77,36.64L407.26,37.71L407.12,37.76L397.54,41.08L397.4,41.12L391.6,42.04L391.45,42.05L383.19,41.07L383.04,41.05L364.91,38.18L364.77,38.15L360.42,36.81L360.27,36.75L351.86,31.63L351.71,31.53L343.16,26.46L343.01,26.39L339.09,25.12L338.95,25.09L334.31,25.13L334.16,25.15L319.22,30.88L319.08,30.94L307.91,33.03L307.77,33.05L297.9,36.26L297.76,36.32L292.25,38.01L292.1,38.04L285.72,38.36L285.58,38.35L276.44,35.91L276.29,35.86L271.07,34.43L270.93,34.4L264.69,34.1L264.55,34.11L251.06,37.64L250.91,37.68L243.81,39.15L243.66,39.16L236.99,38.76L236.84,38.73L228.43,37.43L228.29,37.42L215.38,38.06L215.23,38.07L209.72,37.71L209.58,37.67L197.83,32.61L197.68,32.54L191.01,30.01L190.87,29.98L186.52,29.86L186.37,29.88L175.2,34.48L175.06,34.56L169.98,36.68L169.84,36.72L165.63,37.19L165.49,37.18L157.07,35.1L156.93,35.04L138.36,29.33L138.22,29.29L128.79,25.64L128.65,25.56L117.19,19L117.04,18.92L111.82,16.78L111.68,16.73L106.6,16L106.46,16L99.93,16.98L99.78,17.02L87.46,22.36L87.31,22.43L72.08,28.28L71.94,28.34L62.8,32.38L62.66,32.46L55.98,37.26L55.84,37.39L47.57,46.16L47.43,46.34L26.98,75.67L26.83,75.89L17.55,90.34L17.4,90.58L10.3,103.16L10.15,103.43L4.5,113.69L4.35,113.91L2.03,116.66L1.89,116.78L0,117.55Z" style="fill: rgb(75, 0, 130); fill-opacity: 0.15; stroke-width: 0;"/></g></g><g class="errorbars"/><g class="lines"><path class="js-line" d="M0,117.55L1.89,116.78L2.03,116.66L4.35,113.91L4.5,113.69L10.15,103.43L10.3,103.16L17.4,90.58L17.55,90.34L26.83,75.89L26.98,75.67L47.43,46.34L47.57,46.16L55.84,37.39L55.98,37.26L62.66,32.46L62.8,32.38L71.94,28.34L72.08,28.28L87.31,22.43L87.46,22.36L99.78,17.02L99.93,16.98L106.46,16L106.6,16L111.68,16.73L111.82,16.78L117.04,18.92L117.19,19L128.65,25.56L128.79,25.64L138.22,29.29L138.36,29.33L156.93,35.04L157.07,35.1L165.49,37.18L165.63,37.19L169.84,36.72L169.98,36.68L175.06,34.56L175.2,34.48L186.37,29.88L186.52,29.86L190.87,29.98L191.01,30.01L197.68,32.54L197.83,32.61L209.58,37.67L209.72,37.71L215.23,38.07L215.38,38.06L228.29,37.42L228.43,37.43L236.84,38.73L236.99,38.76L243.66,39.16L243.81,39.15L250.91,37.68L251.06,37.64L264.55,34.11L264.69,34.1L270.93,34.4L271.07,34.43L276.29,35.86L276.44,35.91L285.58,38.35L285.72,38.36L292.1,38.04L292.25,38.01L297.76,36.32L297.9,36.26L307.77,33.05L307.91,33.03L319.08,30.94L319.22,30.88L334.16,25.15L334.31,25.13L338.95,25.09L339.09,25.12L343.01,26.39L343.16,26.46L351.71,31.53L351.86,31.63L360.27,36.75L360.42,36.81L364.77,38.15L364.91,38.18L383.04,41.05L383.19,41.07L391.45,42.05L391.6,42.04L397.4,41.12L397.54,41.08L407.12,37.76L407.26,37.71L412.77,36.64L412.92,36.63L419.15,37.16L419.3,37.19L425.1,39.35L425.25,39.42L433.8,42.88L433.95,42.91L439.89,43.38L440.04,43.37L445.99,42.24L446.13,42.19L459.76,38.03L459.91,38.01L468.61,36.14L468.76,36.09L477.89,33.68L478.04,33.67L483.99,34.19L484.13,34.22L489.21,36.31L489.35,36.39L494.43,40.3L494.57,40.44L499.5,45.67L499.65,45.84L514.88,63.47L515.02,63.6L528.95,77.5L529.09,77.67L535.04,85.52L535.18,85.73L544.32,99.79L544.47,100.03L558.1,120.99L558.24,121.2L569.99,138.94L570.14,139.19L577.24,150.35L577.39,150.49L579.71,151.84L579.85,151.86L580,151.87" style="vector-effect: none; fill: none; stroke: rgb(99, 110, 250); stroke-opacity: 1; stroke-width: 0px; opacity: 1;"/></g><g class="points"/><g class="text"/></g><g class="trace scatter tracef466d1" style="stroke-miterlimit: 2;"><g class="fills"/><g class="errorbars"/><g class="lines"><path class="js-line" d="M0,124.81L2.03,123.95L2.18,123.83L5.08,120.17L5.22,119.94L12.18,107.4L12.33,107.14L20.02,94.44L20.16,94.22L39.45,66L39.59,65.79L51.63,50.83L51.78,50.68L58.01,45.06L58.16,44.95L63.82,41.43L63.96,41.35L76.14,36.47L76.29,36.42L89.63,31.03L89.78,30.96L97.17,27.59L97.32,27.54L102.69,26.04L102.83,26.02L108.05,25.7L108.2,25.72L113.27,26.81L113.42,26.87L119.8,29.86L119.94,29.94L135.46,37.69L135.61,37.73L164.33,45.86L164.47,45.88L169.69,45.5L169.84,45.47L175.35,43.19L175.49,43.12L184.34,39.23L184.49,39.19L189.13,38.66L189.27,38.68L193.77,39.73L193.91,39.78L201.02,42.94L201.17,43L209.58,46.39L209.72,46.43L215.23,46.8L215.38,46.78L230.17,46.3L230.32,46.31L244.39,47.71L244.53,47.69L252.22,45.91L252.36,45.87L263.68,42.87L263.82,42.86L271.22,43.1L271.36,43.13L276.73,44.59L276.87,44.64L285.58,46.81L285.72,46.82L291.96,46.52L292.1,46.49L297.03,45.1L297.18,45.04L307.91,41.68L308.06,41.66L318.64,39.87L318.79,39.81L334.31,34.18L334.45,34.16L339.38,34.23L339.53,34.25L344.9,36.31L345.04,36.39L351.42,40.19L351.57,40.29L361.72,45.97L361.87,46.02L368.39,47.28L368.54,47.3L393.34,50.36L393.48,50.34L400.3,48.69L400.45,48.64L412.48,45.17L412.63,45.16L418.43,45.48L418.57,45.51L424.52,47.45L424.67,47.52L433.22,50.96L433.37,50.99L438.88,51.57L439.02,51.57L444.68,50.83L444.83,50.79L453.67,47.58L453.82,47.53L461.36,46.21L461.51,46.19L467.89,44.81L468.03,44.76L479.34,42.2L479.49,42.2L484.86,42.95L485,42.99L490.51,45.6L490.66,45.69L496.75,50.9L496.89,51.05L503.57,58.79L503.71,58.97L514.3,70.62L514.44,70.75L526.92,82.52L527.06,82.68L533.88,91.05L534.02,91.24L543.02,104.49L543.16,104.72L563.61,134.89L563.76,135.09L578.4,156.56L578.55,156.65L580,157.09" style="vector-effect: none; fill: none; stroke: rgb(239, 85, 59); stroke-opacity: 1; stroke-width: 0px; opacity: 1;"/></g><g class="points"/><g class="text"/></g><g class="trace scatter tracef18bec" style="stroke-miterlimit: 2; opacity: 1;"><g class="fills"/><g class="errorbars"/><g class="lines"><path class="js-line" d="M0,121.18L2.03,120.3L2.18,120.18L4.93,116.7L5.08,116.47L13.2,101.71L13.34,101.46L24.8,83.07L24.95,82.86L38.72,62.61L38.87,62.4L47.28,51.1L47.43,50.93L53.66,44.12L53.81,43.98L59.9,38.95L60.05,38.85L65.7,35.72L65.85,35.65L82.53,29.3L82.67,29.25L103.12,21.12L103.27,21.1L109.21,21.01L109.36,21.03L115.16,22.78L115.3,22.85L121.54,26.13L121.69,26.22L134.45,32.74L134.59,32.79L149.82,37.09L149.97,37.13L165.92,41.58L166.07,41.58L170.71,40.84L170.85,40.79L176.94,37.97L177.09,37.9L183.62,35.01L183.76,34.96L188.4,34.18L188.55,34.18L193.19,35.08L193.33,35.13L200.59,38.33L200.73,38.4L210.74,42.28L210.88,42.3L215.23,42.43L215.38,42.42L230.03,41.93L230.17,41.94L244.53,43.38L244.68,43.36L251.06,41.95L251.2,41.91L265.71,38.4L265.85,38.4L271.22,38.78L271.36,38.8L278.76,41.03L278.9,41.08L285.72,42.59L285.87,42.6L291.96,42.29L292.1,42.27L298.63,40.21L298.77,40.15L307.48,37.42L307.62,37.4L320.68,34.64L320.82,34.58L331.99,30.11L332.13,30.08L338.37,29.54L338.51,29.56L343.01,30.9L343.16,30.96L352.29,36.34L352.44,36.44L362.01,41.75L362.16,41.8L368.54,43.01L368.68,43.03L393.48,46.12L393.63,46.1L400.3,44.45L400.45,44.4L412.48,40.92L412.63,40.91L418.43,41.25L418.57,41.27L424.23,43.13L424.38,43.2L433.37,46.89L433.51,46.92L439.89,47.46L440.04,47.46L445.99,46.34L446.13,46.3L459.47,42.25L459.62,42.23L468.9,40.26L469.05,40.21L477.75,37.97L477.89,37.96L483.41,38.33L483.55,38.36L488.34,40.07L488.48,40.15L492.54,42.87L492.69,42.98L499.5,49.78L499.65,49.95L514.44,66.9L514.59,67.04L529.24,81.5L529.38,81.67L537.21,92.22L537.36,92.44L578.4,153.94L578.55,154.03L580,154.48" style="vector-effect: none; fill: none; stroke: rgb(75, 0, 130); stroke-opacity: 1; stroke-width: 3px; opacity: 1;"/></g><g class="points"/><g class="text"/></g><g class="trace scatter trace2ec52a" style="stroke-miterlimit: 2;"><g class="fills"><g><path class="js-fill" d="M0,226.99L2.03,226.18L2.18,226.06L4.93,222.77L5.08,222.55L10.44,212.76L10.59,212.47L34.52,166.23L34.66,166.01L40.47,159.06L40.61,158.93L45.83,155.39L45.98,155.32L52.07,153.1L52.21,153.06L61.35,151.38L61.5,151.37L66.72,151.75L66.86,151.78L71.94,153.52L72.08,153.59L77.88,156.7L78.03,156.78L88.04,161.65L88.18,161.7L109.21,169.62L109.36,169.64L117.19,169.44L117.33,169.43L122.7,169.79L122.85,169.82L129.08,172.09L129.23,172.16L135.61,174.09L135.75,174.11L140.11,173.69L140.25,173.65L145.62,171.12L145.76,171.03L158.81,163.8L158.96,163.74L165.49,160.18L165.63,160.06L170.27,155.73L170.42,155.57L180.43,143.02L180.57,142.84L187.39,135.33L187.53,135.22L192.46,132.51L192.61,132.46L198.55,130.73L198.7,130.69L205.52,130.02L205.66,130.03L215.96,129.99L216.1,129.97L229.88,127.7L230.03,127.72L235.1,128.96L235.25,129.02L246.42,132.39L246.56,132.39L251.35,131.97L251.49,131.95L259.61,131.56L259.76,131.59L264.11,133.24L264.26,133.32L269.48,137.14L269.62,137.27L277.6,145.17L277.74,145.31L283.55,149.73L283.69,149.79L287.61,150.82L287.75,150.83L292.97,150.46L293.12,150.43L305.59,148.25L305.74,148.26L313.86,148.36L314,148.32L317.92,146.55L318.06,146.46L322.71,142.48L322.85,142.33L329.67,134.47L329.81,134.29L339.53,124.1L339.67,124L344.17,121.89L344.32,121.85L349.25,121.42L349.39,121.43L354.32,122.49L354.47,122.54L364.91,125.75L365.06,125.76L370.57,125.4L370.71,125.38L378.11,125.11L378.25,125.13L384.78,127.18L384.93,127.24L393.63,130.16L393.77,130.18L399.43,130.21L399.57,130.19L407.41,130.39L407.55,130.42L411.61,132.25L411.76,132.34L417.41,137.24L417.56,137.39L433.22,155.02L433.37,155.11L437.14,156.68L437.28,156.71L442.22,156.95L442.36,156.94L448.74,155.78L448.89,155.75L455.99,154.8L456.14,154.79L464.55,153.84L464.7,153.78L469.05,151.33L469.19,151.22L475.14,145.53L475.28,145.37L489.21,130.8L489.35,130.71L493.7,128.71L493.85,128.66L499.79,127.76L499.94,127.76L505.45,128.5L505.6,128.53L516.76,130.98L516.91,130.98L530.25,131.27L530.4,131.31L535.18,133.71L535.33,133.81L541.28,138.95L541.42,139.1L546.79,145.49L546.93,145.69L551.86,153.51L552.01,153.78L558.53,167.91L558.68,168.27L576.66,214.01L576.81,214.23L579.27,216.57L579.42,216.62L580,216.73L580,213.28L579.27,213.13L579.13,213.06L576.37,210.01L576.23,209.77L564.48,179.12L564.34,178.71L557.37,160.07L557.23,159.72L552.15,148.66L552.01,148.38L547.51,140.87L547.37,140.66L539.68,131.43L539.53,131.29L534.17,126.97L534.02,126.88L530.25,125.1L530.11,125.05L517.05,124.71L516.91,124.71L505.6,122.19L505.45,122.15L500.23,121.43L500.09,121.43L494.43,122.25L494.28,122.3L489.21,124.69L489.06,124.79L483.26,130.25L483.12,130.42L474.7,140.49L474.56,140.65L469.48,145.65L469.34,145.76L464.7,148.54L464.55,148.6L457.73,149.57L457.59,149.57L446.42,151.2L446.28,151.24L440.33,151.96L440.19,151.96L435.69,151.19L435.54,151.13L431.63,148.7L431.48,148.57L424.09,139.77L423.94,139.57L416.11,130.14L415.96,129.99L410.89,125.87L410.74,125.79L407.26,124.35L407.12,124.31L400.74,124.03L400.59,124.04L394.79,124.17L394.64,124.16L383.04,120.11L382.9,120.05L378.11,118.65L377.96,118.62L369.84,118.99L369.7,119.01L364.19,119.16L364.04,119.14L355.63,116.35L355.48,116.29L349.97,114.84L349.83,114.82L345.19,115.06L345.04,115.09L340.11,117.25L339.96,117.35L323.29,136.09L323.14,136.25L318.64,140.44L318.5,140.55L315.16,142.43L315.02,142.49L304.14,142.79L304,142.79L298.05,143.86L297.9,143.9L291.81,145.45L291.67,145.48L287.17,145.63L287.03,145.61L282.53,144.01L282.39,143.92L276,138.19L275.86,138.04L269.62,131.66L269.48,131.53L264.11,127.47L263.97,127.39L259.76,125.77L259.61,125.74L251.49,126.13L251.35,126.15L245.98,126.53L245.84,126.52L235.68,123.12L235.54,123.06L230.32,121.59L230.17,121.57L216.25,123.68L216.1,123.7L206.82,123.81L206.68,123.8L200.88,124.04L200.73,124.06L192.9,126.25L192.75,126.31L188.4,128.59L188.26,128.69L171,149.59L170.85,149.76L165.34,155.1L165.2,155.21L158.38,158.91L158.23,158.97L145.33,166.58L145.18,166.67L140.54,168.97L140.4,169.01L135.9,169.58L135.75,169.56L129.52,167.69L129.37,167.62L122.7,165.09L122.56,165.06L115.16,164.82L115.01,164.83L109.21,164.79L109.07,164.77L88.91,156.67L88.76,156.62L77.16,150.79L77.01,150.7L70.63,147.35L70.49,147.29L65.41,145.86L65.27,145.84L58.16,146.08L58.01,146.11L49.46,148.27L49.31,148.32L43.95,150.9L43.8,150.99L39.01,155.06L38.87,155.21L34.23,161.45L34.08,161.68L9.43,211.09L9.28,211.38L4.93,219.39L4.79,219.61L2.18,222.79L2.03,222.91L0,223.75Z" style="fill: rgb(0, 0, 255); fill-opacity: 0.15; stroke-width: 0;"/></g></g><g class="errorbars"/><g class="lines"><path class="js-line" d="M0,223.75L2.03,222.91L2.18,222.79L4.79,219.61L4.93,219.39L9.28,211.38L9.43,211.09L34.08,161.68L34.23,161.45L38.87,155.21L39.01,155.06L43.8,150.99L43.95,150.9L49.31,148.32L49.46,148.27L58.01,146.11L58.16,146.08L65.27,145.84L65.41,145.86L70.49,147.29L70.63,147.35L77.01,150.7L77.16,150.79L88.76,156.62L88.91,156.67L109.07,164.77L109.21,164.79L115.01,164.83L115.16,164.82L122.56,165.06L122.7,165.09L129.37,167.62L129.52,167.69L135.75,169.56L135.9,169.58L140.4,169.01L140.54,168.97L145.18,166.67L145.33,166.58L158.23,158.97L158.38,158.91L165.2,155.21L165.34,155.1L170.85,149.76L171,149.59L188.26,128.69L188.4,128.59L192.75,126.31L192.9,126.25L200.73,124.06L200.88,124.04L206.68,123.8L206.82,123.81L216.1,123.7L216.25,123.68L230.17,121.57L230.32,121.59L235.54,123.06L235.68,123.12L245.84,126.52L245.98,126.53L251.35,126.15L251.49,126.13L259.61,125.74L259.76,125.77L263.97,127.39L264.11,127.47L269.48,131.53L269.62,131.66L275.86,138.04L276,138.19L282.39,143.92L282.53,144.01L287.03,145.61L287.17,145.63L291.67,145.48L291.81,145.45L297.9,143.9L298.05,143.86L304,142.79L304.14,142.79L315.02,142.49L315.16,142.43L318.5,140.55L318.64,140.44L323.14,136.25L323.29,136.09L339.96,117.35L340.11,117.25L345.04,115.09L345.19,115.06L349.83,114.82L349.97,114.84L355.48,116.29L355.63,116.35L364.04,119.14L364.19,119.16L369.7,119.01L369.84,118.99L377.96,118.62L378.11,118.65L382.9,120.05L383.04,120.11L394.64,124.16L394.79,124.17L400.59,124.04L400.74,124.03L407.12,124.31L407.26,124.35L410.74,125.79L410.89,125.87L415.96,129.99L416.11,130.14L423.94,139.57L424.09,139.77L431.48,148.57L431.63,148.7L435.54,151.13L435.69,151.19L440.19,151.96L440.33,151.96L446.28,151.24L446.42,151.2L457.59,149.57L457.73,149.57L464.55,148.6L464.7,148.54L469.34,145.76L469.48,145.65L474.56,140.65L474.7,140.49L483.12,130.42L483.26,130.25L489.06,124.79L489.21,124.69L494.28,122.3L494.43,122.25L500.09,121.43L500.23,121.43L505.45,122.15L505.6,122.19L516.91,124.71L517.05,124.71L530.11,125.05L530.25,125.1L534.02,126.88L534.17,126.97L539.53,131.29L539.68,131.43L547.37,140.66L547.51,140.87L552.01,148.38L552.15,148.66L557.23,159.72L557.37,160.07L564.34,178.71L564.48,179.12L576.23,209.77L576.37,210.01L579.13,213.06L579.27,213.13L580,213.28" style="vector-effect: none; fill: none; stroke: rgb(171, 99, 250); stroke-opacity: 1; stroke-width: 0px; opacity: 1;"/></g><g class="points"/><g class="text"/></g><g class="trace scatter tracea8a987" style="stroke-miterlimit: 2;"><g class="fills"/><g class="errorbars"/><g class="lines"><path class="js-line" d="M0,226.99L2.03,226.18L2.18,226.06L4.93,222.77L5.08,222.55L10.44,212.76L10.59,212.47L34.52,166.23L34.66,166.01L40.47,159.06L40.61,158.93L45.83,155.39L45.98,155.32L52.07,153.1L52.21,153.06L61.35,151.38L61.5,151.37L66.72,151.75L66.86,151.78L71.94,153.52L72.08,153.59L77.88,156.7L78.03,156.78L88.04,161.65L88.18,161.7L109.21,169.62L109.36,169.64L117.19,169.44L117.33,169.43L122.7,169.79L122.85,169.82L129.08,172.09L129.23,172.16L135.61,174.09L135.75,174.11L140.11,173.69L140.25,173.65L145.62,171.12L145.76,171.03L158.81,163.8L158.96,163.74L165.49,160.18L165.63,160.06L170.27,155.73L170.42,155.57L180.43,143.02L180.57,142.84L187.39,135.33L187.53,135.22L192.46,132.51L192.61,132.46L198.55,130.73L198.7,130.69L205.52,130.02L205.66,130.03L215.96,129.99L216.1,129.97L229.88,127.7L230.03,127.72L235.1,128.96L235.25,129.02L246.42,132.39L246.56,132.39L251.35,131.97L251.49,131.95L259.61,131.56L259.76,131.59L264.11,133.24L264.26,133.32L269.48,137.14L269.62,137.27L277.6,145.17L277.74,145.31L283.55,149.73L283.69,149.79L287.61,150.82L287.75,150.83L292.97,150.46L293.12,150.43L305.59,148.25L305.74,148.26L313.86,148.36L314,148.32L317.92,146.55L318.06,146.46L322.71,142.48L322.85,142.33L329.67,134.47L329.81,134.29L339.53,124.1L339.67,124L344.17,121.89L344.32,121.85L349.25,121.42L349.39,121.43L354.32,122.49L354.47,122.54L364.91,125.75L365.06,125.76L370.57,125.4L370.71,125.38L378.11,125.11L378.25,125.13L384.78,127.18L384.93,127.24L393.63,130.16L393.77,130.18L399.43,130.21L399.57,130.19L407.41,130.39L407.55,130.42L411.61,132.25L411.76,132.34L417.41,137.24L417.56,137.39L433.22,155.02L433.37,155.11L437.14,156.68L437.28,156.71L442.22,156.95L442.36,156.94L448.74,155.78L448.89,155.75L455.99,154.8L456.14,154.79L464.55,153.84L464.7,153.78L469.05,151.33L469.19,151.22L475.14,145.53L475.28,145.37L489.21,130.8L489.35,130.71L493.7,128.71L493.85,128.66L499.79,127.76L499.94,127.76L505.45,128.5L505.6,128.53L516.76,130.98L516.91,130.98L530.25,131.27L530.4,131.31L535.18,133.71L535.33,133.81L541.28,138.95L541.42,139.1L546.79,145.49L546.93,145.69L551.86,153.51L552.01,153.78L558.53,167.91L558.68,168.27L576.66,214.01L576.81,214.23L579.27,216.57L579.42,216.62L580,216.73" style="vector-effect: none; fill: none; stroke: rgb(255, 161, 90); stroke-opacity: 1; stroke-width: 0px; opacity: 1;"/></g><g class="points"/><g class="text"/></g><g class="trace scatter trace46b848" style="stroke-miterlimit: 2; opacity: 1;"><g class="fills"/><g class="errorbars"/><g class="lines"><path class="js-line" d="M0,225.37L2.03,224.54L2.18,224.43L5.22,220.63L5.37,220.39L11.17,209.45L11.31,209.16L27.56,176.13L27.7,175.84L36.55,160.71L36.69,160.52L41.77,155.21L41.92,155.1L46.12,152.46L46.27,152.39L52.21,150.24L52.36,150.2L61.06,148.56L61.21,148.55L66.72,148.92L66.86,148.95L71.94,150.72L72.08,150.79L81.51,156.01L81.66,156.09L92.1,160.51L92.24,160.57L109.36,167.22L109.5,167.24L117.62,167.05L117.77,167.04L123.28,167.58L123.43,167.62L130.1,170.23L130.24,170.29L136.04,171.86L136.19,171.87L140.4,171.31L140.54,171.26L144.46,169.46L144.6,169.38L159.25,161.08L159.39,161.01L164.91,158.01L165.05,157.91L169.98,153.39L170.13,153.23L179.41,141.52L179.55,141.33L186.81,132.83L186.95,132.71L191.88,129.7L192.03,129.64L198.7,127.59L198.84,127.56L204.21,126.87L204.36,126.87L217.99,126.46L218.13,126.43L229.88,124.62L230.03,124.63L235.68,126.15L235.83,126.21L244.97,129.35L245.11,129.37L251.35,129.06L251.49,129.04L259.61,128.65L259.76,128.68L263.97,130.27L264.11,130.35L269.77,134.59L269.91,134.73L276.73,141.63L276.87,141.78L282.97,146.84L283.11,146.92L287.03,148.19L287.17,148.21L292.83,147.88L292.97,147.85L305.88,145.56L306.03,145.57L313.71,145.64L313.86,145.6L317.63,143.95L317.77,143.85L321.55,140.76L321.69,140.62L327.2,134.48L327.35,134.3L338.8,121.42L338.95,121.31L343.16,118.93L343.3,118.88L348.09,118.06L348.23,118.06L353.16,118.81L353.31,118.85L366.07,122.53L366.22,122.53L373.61,121.78L373.76,121.77L378.69,121.98L378.83,122.01L383.04,123.29L383.19,123.35L393.77,127.11L393.92,127.13L399.57,127.16L399.72,127.15L406.54,127.19L406.68,127.22L410.74,128.76L410.89,128.84L416.11,133.03L416.25,133.17L422.64,140.6L422.78,140.78L432.35,151.85L432.5,151.96L436.12,153.87L436.27,153.92L441.06,154.48L441.2,154.48L448.6,153.25L448.74,153.22L455.27,152.23L455.41,152.22L464.55,151.22L464.7,151.16L468.9,148.77L469.05,148.66L474.56,143.41L474.7,143.25L489.5,127.56L489.64,127.47L494.57,125.34L494.72,125.3L500.67,124.6L500.81,124.61L506.18,125.53L506.32,125.57L517.05,127.85L517.2,127.85L530.11,128.13L530.25,128.18L534.89,130.48L535.04,130.58L540.99,135.7L541.13,135.85L547.66,143.89L547.8,144.1L553.02,153.03L553.17,153.32L559.84,168.76L559.98,169.14L568.98,193.95L569.12,194.35L576.37,211.78L576.52,212.02L578.98,214.71L579.13,214.79L580,215.01" style="vector-effect: none; fill: none; stroke: rgb(0, 0, 255); stroke-opacity: 1; stroke-width: 3px; opacity: 1;"/></g><g class="points"/><g class="text"/></g><g class="trace scatter trace372184" style="stroke-miterlimit: 2;"><g class="fills"><g><path class="js-fill" d="M0,275.85L2.61,274.93L2.76,274.84L6.67,270.88L6.82,270.7L19.29,255.69L19.43,255.56L24.8,251.86L24.95,251.79L30.17,249.67L30.31,249.62L53.95,243.93L54.1,243.91L66.28,242.57L66.43,242.56L76.72,242.24L76.87,242.25L86.3,243.96L86.44,244L111.97,250.21L112.11,250.23L121.69,250.19L121.83,250.17L128.21,248.17L128.36,248.1L133.87,244.94L134.01,244.84L140.11,239.89L140.25,239.74L144.17,234.82L144.31,234.6L149.39,225.84L149.53,225.56L162.88,200L163.02,199.83L166.94,196.51L167.08,196.43L171.72,194.79L171.87,194.76L177.23,194.58L177.38,194.59L183.18,195.94L183.33,195.99L196.96,201.52L197.1,201.52L200.73,200.83L200.88,200.76L204.65,198.36L204.79,198.24L213.2,191.98L213.35,191.95L216.25,192.14L216.39,192.19L219.73,194.05L219.87,194.15L227.42,200.07L227.56,200.19L235.25,207.29L235.39,207.44L240.33,213.43L240.47,213.63L247.29,224.46L247.43,224.69L253.67,232.91L253.81,233.06L259.76,237.65L259.9,237.72L264.4,239.02L264.55,239.03L269.19,238.64L269.33,238.6L274.55,236.8L274.7,236.74L283.84,231.39L283.98,231.29L290.8,225.87L290.94,225.72L295.15,220.5L295.29,220.29L300.66,211.5L300.81,211.24L311.54,191.93L311.68,191.76L315.45,188.77L315.6,188.7L319.22,187.72L319.37,187.7L325.61,188.02L325.75,188.04L332.71,189.72L332.86,189.78L338.66,192.75L338.8,192.84L346.2,196.05L346.35,196.07L349.97,195.73L350.12,195.68L353.74,193.37L353.89,193.24L362.59,185.63L362.74,185.58L365.64,185.61L365.78,185.66L369.41,187.66L369.55,187.77L374.63,192.05L374.77,192.18L382.32,200.25L382.46,200.43L388.26,208.13L388.41,208.35L395.22,220.42L395.37,220.69L401.9,231.66L402.04,231.86L407.99,238.25L408.13,238.36L412.63,240.74L412.77,240.78L417.41,241.25L417.56,241.24L423.07,240.14L423.22,240.09L429.89,237.03L430.03,236.95L439.17,230.6L439.31,230.47L443.23,226.09L443.38,225.9L449.32,216.14L449.47,215.86L462.23,190.77L462.38,190.59L466.15,187.37L466.29,187.29L470.35,185.94L470.5,185.92L474.85,186.18L474.99,186.21L481.09,188.57L481.23,188.65L486.89,192.5L487.03,192.61L494.43,197.16L494.57,197.2L498.05,197.59L498.2,197.57L501.39,196.38L501.54,196.29L505.31,193.02L505.45,192.86L511.98,187.18L512.12,187.13L514.88,186.98L515.02,187.02L518.21,188.63L518.36,188.73L525.18,194.48L525.32,194.62L531.41,200.89L531.56,201.06L538.37,209.93L538.52,210.15L558.24,242.49L558.39,242.69L576.37,267.13L576.52,267.26L579.27,268.87L579.42,268.9L580,268.96L580,267.53L577.97,266.9L577.82,266.81L574.2,263.14L574.05,262.95L553.75,233.84L553.6,233.62L546.79,222.08L546.64,221.81L539.82,208.99L539.68,208.74L534.31,200.73L534.17,200.55L524.6,189.98L524.45,189.84L517.78,184.18L517.63,184.08L514.59,182.73L514.44,182.7L511.98,183.01L511.83,183.07L506.9,187.31L506.76,187.47L501.83,192.27L501.68,192.37L498.63,193.71L498.49,193.74L494.72,193.45L494.57,193.4L485.87,187.8L485.73,187.69L479.78,183.91L479.63,183.84L474.12,182.02L473.98,182L469.92,181.96L469.77,181.98L465.71,183.59L465.57,183.69L461.65,187.52L461.51,187.72L450.92,209.68L450.77,209.98L445.55,219.72L445.41,219.95L441.06,225.99L440.91,226.16L434.24,231.81L434.09,231.92L427.57,235.99L427.42,236.07L421.62,238.36L421.48,238.4L416.25,239.12L416.11,239.12L411.76,238.27L411.61,238.21L407.26,235.43L407.12,235.31L401.75,229.06L401.61,228.85L391.89,211.05L391.74,210.78L385.22,200.21L385.07,200.01L376.8,190.13L376.66,189.98L369.12,183.14L368.97,183.04L365.64,181.24L365.49,181.2L362.88,181.17L362.74,181.21L353.6,189.42L353.45,189.55L349.97,191.72L349.83,191.77L346.78,192.11L346.64,192.1L334.6,186.49L334.45,186.42L328.07,184.42L327.93,184.4L320.24,183.66L320.1,183.67L316.03,184.52L315.89,184.58L312.26,187.18L312.12,187.33L298.92,211.28L298.77,211.53L293.26,220.1L293.12,220.29L287.32,226.2L287.17,226.32L277.74,232.84L277.6,232.92L272.23,235.47L272.09,235.53L266.58,236.82L266.43,236.83L261.94,236.32L261.79,236.27L256.71,233.43L256.57,233.31L251.2,227.66L251.06,227.47L243.23,214.98L243.08,214.73L238.29,207.48L238.15,207.3L228.58,197.42L228.43,197.29L219.15,189.76L219,189.66L215.81,188.08L215.67,188.04L212.77,188.19L212.62,188.24L208.71,190.91L208.56,191.05L203.2,195.77L203.05,195.87L199.28,197.64L199.13,197.67L195.36,197.64L195.22,197.61L189.42,195.12L189.27,195.04L182.46,191.9L182.31,191.85L176.07,190.71L175.93,190.7L170.71,191.23L170.56,191.27L166.36,193.11L166.21,193.21L162.59,196.66L162.44,196.85L156.78,206.96L156.64,207.28L149.24,223.17L149.1,223.45L143.3,233.48L143.15,233.69L139.52,238.07L139.38,238.22L132.56,243.62L132.42,243.71L126.76,246.76L126.62,246.82L120.67,248.36L120.53,248.38L112.84,248.32L112.69,248.3L93.11,243.67L92.97,243.62L81.22,240.53L81.08,240.5L74.26,239.76L74.11,239.75L58.88,241.04L58.74,241.05L48.3,242.82L48.15,242.85L32.49,246.93L32.34,246.98L25.53,249.57L25.38,249.65L20.31,253.01L20.16,253.13L11.6,262.88L11.46,263.08L5.8,270.61L5.66,270.78L2.61,273.7L2.47,273.8L0,274.65Z" style="fill: rgb(148, 0, 211); fill-opacity: 0.15; stroke-width: 0;"/></g></g><g class="errorbars"/><g class="lines"><path class="js-line" d="M0,274.65L2.47,273.8L2.61,273.7L5.66,270.78L5.8,270.61L11.46,263.08L11.6,262.88L20.16,253.13L20.31,253.01L25.38,249.65L25.53,249.57L32.34,246.98L32.49,246.93L48.15,242.85L48.3,242.82L58.74,241.05L58.88,241.04L74.11,239.75L74.26,239.76L81.08,240.5L81.22,240.53L92.97,243.62L93.11,243.67L112.69,248.3L112.84,248.32L120.53,248.38L120.67,248.36L126.62,246.82L126.76,246.76L132.42,243.71L132.56,243.62L139.38,238.22L139.52,238.07L143.15,233.69L143.3,233.48L149.1,223.45L149.24,223.17L156.64,207.28L156.78,206.96L162.44,196.85L162.59,196.66L166.21,193.21L166.36,193.11L170.56,191.27L170.71,191.23L175.93,190.7L176.07,190.71L182.31,191.85L182.46,191.9L189.27,195.04L189.42,195.12L195.22,197.61L195.36,197.64L199.13,197.67L199.28,197.64L203.05,195.87L203.2,195.77L208.56,191.05L208.71,190.91L212.62,188.24L212.77,188.19L215.67,188.04L215.81,188.08L219,189.66L219.15,189.76L228.43,197.29L228.58,197.42L238.15,207.3L238.29,207.48L243.08,214.73L243.23,214.98L251.06,227.47L251.2,227.66L256.57,233.31L256.71,233.43L261.79,236.27L261.94,236.32L266.43,236.83L266.58,236.82L272.09,235.53L272.23,235.47L277.6,232.92L277.74,232.84L287.17,226.32L287.32,226.2L293.12,220.29L293.26,220.1L298.77,211.53L298.92,211.28L312.12,187.33L312.26,187.18L315.89,184.58L316.03,184.52L320.1,183.67L320.24,183.66L327.93,184.4L328.07,184.42L334.45,186.42L334.6,186.49L346.64,192.1L346.78,192.11L349.83,191.77L349.97,191.72L353.45,189.55L353.6,189.42L362.74,181.21L362.88,181.17L365.49,181.2L365.64,181.24L368.97,183.04L369.12,183.14L376.66,189.98L376.8,190.13L385.07,200.01L385.22,200.21L391.74,210.78L391.89,211.05L401.61,228.85L401.75,229.06L407.12,235.31L407.26,235.43L411.61,238.21L411.76,238.27L416.11,239.12L416.25,239.12L421.48,238.4L421.62,238.36L427.42,236.07L427.57,235.99L434.09,231.92L434.24,231.81L440.91,226.16L441.06,225.99L445.41,219.95L445.55,219.72L450.77,209.98L450.92,209.68L461.51,187.72L461.65,187.52L465.57,183.69L465.71,183.59L469.77,181.98L469.92,181.96L473.98,182L474.12,182.02L479.63,183.84L479.78,183.91L485.73,187.69L485.87,187.8L494.57,193.4L494.72,193.45L498.49,193.74L498.63,193.71L501.68,192.37L501.83,192.27L506.76,187.47L506.9,187.31L511.83,183.07L511.98,183.01L514.44,182.7L514.59,182.73L517.63,184.08L517.78,184.18L524.45,189.84L524.6,189.98L534.17,200.55L534.31,200.73L539.68,208.74L539.82,208.99L546.64,221.81L546.79,222.08L553.6,233.62L553.75,233.84L574.05,262.95L574.2,263.14L577.82,266.81L577.97,266.9L580,267.53" style="vector-effect: none; fill: none; stroke: rgb(255, 102, 146); stroke-opacity: 1; stroke-width: 0px; opacity: 1;"/></g><g class="points"/><g class="text"/></g><g class="trace scatter trace8918c1" style="stroke-miterlimit: 2;"><g class="fills"/><g class="errorbars"/><g class="lines"><path class="js-line" d="M0,275.85L2.61,274.93L2.76,274.84L6.67,270.88L6.82,270.7L19.29,255.69L19.43,255.56L24.8,251.86L24.95,251.79L30.17,249.67L30.31,249.62L53.95,243.93L54.1,243.91L66.28,242.57L66.43,242.56L76.72,242.24L76.87,242.25L86.3,243.96L86.44,244L111.97,250.21L112.11,250.23L121.69,250.19L121.83,250.17L128.21,248.17L128.36,248.1L133.87,244.94L134.01,244.84L140.11,239.89L140.25,239.74L144.17,234.82L144.31,234.6L149.39,225.84L149.53,225.56L162.88,200L163.02,199.83L166.94,196.51L167.08,196.43L171.72,194.79L171.87,194.76L177.23,194.58L177.38,194.59L183.18,195.94L183.33,195.99L196.96,201.52L197.1,201.52L200.73,200.83L200.88,200.76L204.65,198.36L204.79,198.24L213.2,191.98L213.35,191.95L216.25,192.14L216.39,192.19L219.73,194.05L219.87,194.15L227.42,200.07L227.56,200.19L235.25,207.29L235.39,207.44L240.33,213.43L240.47,213.63L247.29,224.46L247.43,224.69L253.67,232.91L253.81,233.06L259.76,237.65L259.9,237.72L264.4,239.02L264.55,239.03L269.19,238.64L269.33,238.6L274.55,236.8L274.7,236.74L283.84,231.39L283.98,231.29L290.8,225.87L290.94,225.72L295.15,220.5L295.29,220.29L300.66,211.5L300.81,211.24L311.54,191.93L311.68,191.76L315.45,188.77L315.6,188.7L319.22,187.72L319.37,187.7L325.61,188.02L325.75,188.04L332.71,189.72L332.86,189.78L338.66,192.75L338.8,192.84L346.2,196.05L346.35,196.07L349.97,195.73L350.12,195.68L353.74,193.37L353.89,193.24L362.59,185.63L362.74,185.58L365.64,185.61L365.78,185.66L369.41,187.66L369.55,187.77L374.63,192.05L374.77,192.18L382.32,200.25L382.46,200.43L388.26,208.13L388.41,208.35L395.22,220.42L395.37,220.69L401.9,231.66L402.04,231.86L407.99,238.25L408.13,238.36L412.63,240.74L412.77,240.78L417.41,241.25L417.56,241.24L423.07,240.14L423.22,240.09L429.89,237.03L430.03,236.95L439.17,230.6L439.31,230.47L443.23,226.09L443.38,225.9L449.32,216.14L449.47,215.86L462.23,190.77L462.38,190.59L466.15,187.37L466.29,187.29L470.35,185.94L470.5,185.92L474.85,186.18L474.99,186.21L481.09,188.57L481.23,188.65L486.89,192.5L487.03,192.61L494.43,197.16L494.57,197.2L498.05,197.59L498.2,197.57L501.39,196.38L501.54,196.29L505.31,193.02L505.45,192.86L511.98,187.18L512.12,187.13L514.88,186.98L515.02,187.02L518.21,188.63L518.36,188.73L525.18,194.48L525.32,194.62L531.41,200.89L531.56,201.06L538.37,209.93L538.52,210.15L558.24,242.49L558.39,242.69L576.37,267.13L576.52,267.26L579.27,268.87L579.42,268.9L580,268.96" style="vector-effect: none; fill: none; stroke: rgb(182, 232, 128); stroke-opacity: 1; stroke-width: 0px; opacity: 1;"/></g><g class="points"/><g class="text"/></g><g class="trace scatter trace255aeb" style="stroke-miterlimit: 2; opacity: 1;"><g class="fills"/><g class="errorbars"/><g class="lines"><path class="js-line" d="M0,275.25L2.47,274.41L2.61,274.32L5.66,271.44L5.8,271.27L12.04,263.07L12.18,262.88L19.87,254.28L20.02,254.16L25.09,250.76L25.24,250.68L32.2,248.03L32.34,247.99L43.95,244.9L44.09,244.87L55.69,242.55L55.84,242.53L76.72,241.07L76.87,241.08L86.01,242.75L86.15,242.79L95,245.32L95.14,245.37L112.26,249.25L112.4,249.26L119.51,249.47L119.65,249.46L125.17,248.35L125.31,248.3L129.81,246.34L129.95,246.26L136.48,241.94L136.62,241.83L141.85,236.69L141.99,236.51L146.05,230.47L146.2,230.23L153.74,215.3L153.88,214.99L162.01,199.27L162.15,199.07L166.21,195.08L166.36,194.99L170.56,193.16L170.71,193.12L175.93,192.6L176.07,192.6L182.31,193.75L182.46,193.79L189.27,196.92L189.42,197L195.07,199.42L195.22,199.45L199.13,199.5L199.28,199.47L203.2,197.62L203.34,197.51L207.84,193.62L207.98,193.49L212.48,190.25L212.62,190.2L215.52,189.98L215.67,190.01L219.15,191.7L219.29,191.8L226.69,197.61L226.84,197.74L236.55,207.01L236.7,207.18L242.79,215.71L242.94,215.94L251.64,229.41L251.78,229.59L257.87,235.41L258.02,235.51L262.66,237.62L262.81,237.66L267.3,237.85L267.45,237.83L272.96,236.33L273.1,236.27L279.77,232.81L279.92,232.72L288.04,226.98L288.19,226.86L293.26,221.58L293.41,221.39L299.5,211.91L299.64,211.65L306.17,198.85L306.32,198.56L310.96,190.67L311.1,190.49L314.87,187.09L315.02,187.01L318.64,185.8L318.79,185.78L323.87,185.82L324.01,185.83L332.71,187.7L332.86,187.76L340.84,191.96L340.98,192.04L346.35,194.06L346.49,194.08L349.68,193.82L349.83,193.77L353.16,191.83L353.31,191.71L359.4,185.51L359.54,185.38L363.03,183.32L363.17,183.29L365.78,183.47L365.93,183.52L369.7,185.73L369.84,185.84L375.79,191.12L375.93,191.26L383.77,200.15L383.91,200.33L390,209.25L390.15,209.5L403.64,232.76L403.78,232.94L409.15,237.98L409.29,238.07L413.21,239.82L413.35,239.85L417.41,240.17L417.56,240.16L423.07,239.03L423.22,238.98L429.74,235.94L429.89,235.85L437.72,230.52L437.86,230.4L442.22,226L442.36,225.81L446.42,219.77L446.57,219.53L453.53,205.68L453.67,205.36L461.51,189.71L461.65,189.51L465.57,185.71L465.71,185.61L469.77,184.01L469.92,183.98L474.41,184.08L474.56,184.11L479.92,185.97L480.07,186.05L485.15,189.23L485.29,189.33L494.43,195.25L494.57,195.3L498.05,195.7L498.2,195.68L501.54,194.38L501.68,194.28L505.45,190.89L505.6,190.73L511.69,185.22L511.83,185.15L514.59,184.83L514.73,184.85L518.07,186.45L518.21,186.55L525.47,192.79L525.61,192.93L532.72,200.56L532.86,200.73L538.95,209.18L539.1,209.41L557.08,239.79L557.23,239.99L576.95,266.9L577.1,267.02L579.85,268.24L580,268.25" style="vector-effect: none; fill: none; stroke: rgb(148, 0, 211); stroke-opacity: 1; stroke-width: 3px; opacity: 1;"/></g><g class="points"/><g class="text"/></g><g class="trace scatter trace85c4ab" style="stroke-miterlimit: 2;"><g class="fills"><g><path class="js-fill" d="M0,303.33L4.93,302.3L5.08,302.25L13.2,300.22L13.34,300.21L28.14,299.96L28.28,299.96L65.99,299.4L66.14,299.41L130.53,301.59L130.68,301.56L134.45,300.18L134.59,300.09L137.78,297.07L137.93,296.89L142.43,289.54L142.57,289.26L149.68,274.41L149.82,274.09L160.7,252.15L160.85,251.93L165.63,245.73L165.78,245.58L169.11,243.22L169.26,243.17L172.01,243L172.16,243.03L175.06,244.68L175.2,244.81L178.68,248.77L178.83,248.96L186.81,259.12L186.95,259.24L190.14,260.9L190.29,260.94L193.91,260.81L194.06,260.78L200.3,258.52L200.44,258.46L207.4,256.44L207.55,256.43L211.03,256.77L211.17,256.82L214.07,258.55L214.22,258.67L217.99,263.18L218.13,263.4L222.05,270.45L222.2,270.75L233.94,294.43L234.09,294.62L237.57,297.92L237.71,298.01L241.78,299.87L241.92,299.91L248.3,300.85L248.45,300.86L282.53,300.2L282.68,300.14L285.72,298.09L285.87,297.95L289.35,293.49L289.49,293.26L293.99,285.36L294.13,285.09L300.81,271.57L300.95,271.26L312.12,248.94L312.26,248.71L317.48,242.27L317.63,242.16L320.39,241.08L320.53,241.08L322.85,241.8L323,241.89L326.19,245.08L326.33,245.27L331.7,253.64L331.84,253.88L337.21,260.84L337.35,260.97L340.98,262.97L341.13,263L344.75,263.04L344.9,263.01L351.28,261.15L351.42,261.1L358.82,259.38L358.96,259.38L362.45,260.09L362.59,260.16L365.78,262.41L365.93,262.55L370.13,268.08L370.28,268.32L375.79,279.18L375.93,279.5L383.33,293.77L383.48,293.97L386.96,297.46L387.1,297.56L391.45,299.62L391.6,299.66L397.4,300.68L397.54,300.69L409.73,300.76L409.87,300.75L432.5,300.24L432.64,300.19L435.98,298.07L436.12,297.93L439.17,294.33L439.31,294.13L443.96,286.34L444.1,286.06L449.61,274.21L449.76,273.87L462.38,244.12L462.52,243.86L466.58,238.21L466.73,238.08L469.34,236.8L469.48,236.79L471.51,237.36L471.66,237.45L474.12,239.89L474.27,240.08L478.47,247.32L478.62,247.61L485.29,259.8L485.44,260L488.77,263.34L488.92,263.43L491.96,264.35L492.11,264.35L495.73,263.61L495.88,263.56L508.79,258.61L508.93,258.6L512.27,259.3L512.41,259.37L515.75,261.95L515.89,262.1L519.37,266.85L519.52,267.09L524.89,277.69L525.03,278.02L533.3,294.2L533.44,294.39L537.36,297.98L537.5,298.07L542.58,299.95L542.73,299.98L549.69,300.68L549.83,300.68L569.56,301.35L569.7,301.38L580,304L580,303.8L569.56,301.07L569.41,301.04L559.55,300.29L559.4,300.29L547.66,300.23L547.51,300.22L541.57,299.35L541.42,299.31L537.07,297.38L536.92,297.28L533.15,293.42L533.01,293.22L525.32,277.47L525.18,277.14L520.39,267.03L520.25,266.76L516.04,260.5L515.89,260.34L512.56,257.59L512.41,257.52L509.37,256.72L509.22,256.71L497.18,261.26L497.04,261.33L492.83,262.63L492.69,262.64L489.5,262.08L489.35,262L486.31,259.41L486.16,259.23L480.36,249.18L480.22,248.88L474.85,238.69L474.7,238.47L472.09,235.43L471.95,235.32L469.63,234.41L469.48,234.41L466.87,235.59L466.73,235.71L462.81,241.1L462.67,241.36L452.51,265.37L452.37,265.75L444.83,283.6L444.68,283.89L439.89,292.6L439.75,292.82L436.12,297.49L435.98,297.63L432.5,299.92L432.35,299.97L409.58,300.46L409.44,300.47L398.56,300.46L398.41,300.46L392.18,299.5L392.03,299.46L387.83,297.62L387.68,297.53L383.91,293.95L383.77,293.76L374.19,274.45L374.05,274.14L369.55,265.56L369.41,265.33L366.07,260.95L365.93,260.8L362.74,258.39L362.59,258.32L359.11,257.49L358.96,257.49L350.84,259.45L350.7,259.5L344.32,261.35L344.17,261.37L340.55,261.12L340.4,261.07L337.5,259.35L337.35,259.23L331.84,252.03L331.7,251.79L326.19,243.06L326.04,242.87L323,239.79L322.85,239.7L320.39,238.96L320.24,238.96L317.63,240.06L317.48,240.17L313.28,245.15L313.13,245.37L305.3,260.01L305.16,260.33L293.12,285.99L292.97,286.27L288.33,294.38L288.19,294.59L285,298.31L284.85,298.44L281.52,300.22L281.37,300.26L274.55,300.53L274.41,300.52L257,300.39L256.86,300.4L247.14,300.5L247,300.49L242.21,299.66L242.07,299.62L238,297.78L237.86,297.69L233.94,293.86L233.8,293.66L224.08,273.48L223.94,273.15L219.29,263.67L219.15,263.42L215.52,258.19L215.38,258.03L212.19,255.41L212.04,255.33L208.71,254.49L208.56,254.48L195.22,258.61L195.07,258.65L191.45,259.27L191.3,259.27L188.26,258.35L188.11,258.27L177.09,244.83L176.94,244.66L173.61,241.67L173.46,241.59L171.14,240.89L171,240.88L167.95,241.85L167.81,241.95L163.75,245.99L163.6,246.18L158.67,253.76L158.52,254.02L149.68,273.03L149.53,273.36L141.99,289.53L141.85,289.81L137.93,296.36L137.78,296.56L134.45,299.82L134.3,299.91L130.68,301.27L130.53,301.3L109.36,301.29L109.21,301.29L74.84,299.65L74.69,299.64L55.84,298.91L55.69,298.92L22.63,299.67L22.48,299.67L13.49,299.86L13.34,299.87L4.5,302.17L4.35,302.22L0,303.08Z" style="fill: rgb(207, 184, 124); fill-opacity: 0.15; stroke-width: 0;"/></g></g><g class="errorbars"/><g class="lines"><path class="js-line" d="M0,303.08L4.35,302.22L4.5,302.17L13.34,299.87L13.49,299.86L22.48,299.67L22.63,299.67L55.69,298.92L55.84,298.91L74.69,299.64L74.84,299.65L109.21,301.29L109.36,301.29L130.53,301.3L130.68,301.27L134.3,299.91L134.45,299.82L137.78,296.56L137.93,296.36L141.85,289.81L141.99,289.53L149.53,273.36L149.68,273.03L158.52,254.02L158.67,253.76L163.6,246.18L163.75,245.99L167.81,241.95L167.95,241.85L171,240.88L171.14,240.89L173.46,241.59L173.61,241.67L176.94,244.66L177.09,244.83L188.11,258.27L188.26,258.35L191.3,259.27L191.45,259.27L195.07,258.65L195.22,258.61L208.56,254.48L208.71,254.49L212.04,255.33L212.19,255.41L215.38,258.03L215.52,258.19L219.15,263.42L219.29,263.67L223.94,273.15L224.08,273.48L233.8,293.66L233.94,293.86L237.86,297.69L238,297.78L242.07,299.62L242.21,299.66L247,300.49L247.14,300.5L256.86,300.4L257,300.39L274.41,300.52L274.55,300.53L281.37,300.26L281.52,300.22L284.85,298.44L285,298.31L288.19,294.59L288.33,294.38L292.97,286.27L293.12,285.99L305.16,260.33L305.3,260.01L313.13,245.37L313.28,245.15L317.48,240.17L317.63,240.06L320.24,238.96L320.39,238.96L322.85,239.7L323,239.79L326.04,242.87L326.19,243.06L331.7,251.79L331.84,252.03L337.35,259.23L337.5,259.35L340.4,261.07L340.55,261.12L344.17,261.37L344.32,261.35L350.7,259.5L350.84,259.45L358.96,257.49L359.11,257.49L362.59,258.32L362.74,258.39L365.93,260.8L366.07,260.95L369.41,265.33L369.55,265.56L374.05,274.14L374.19,274.45L383.77,293.76L383.91,293.95L387.68,297.53L387.83,297.62L392.03,299.46L392.18,299.5L398.41,300.46L398.56,300.46L409.44,300.47L409.58,300.46L432.35,299.97L432.5,299.92L435.98,297.63L436.12,297.49L439.75,292.82L439.89,292.6L444.68,283.89L444.83,283.6L452.37,265.75L452.51,265.37L462.67,241.36L462.81,241.1L466.73,235.71L466.87,235.59L469.48,234.41L469.63,234.41L471.95,235.32L472.09,235.43L474.7,238.47L474.85,238.69L480.22,248.88L480.36,249.18L486.16,259.23L486.31,259.41L489.35,262L489.5,262.08L492.69,262.64L492.83,262.63L497.04,261.33L497.18,261.26L509.22,256.71L509.37,256.72L512.41,257.52L512.56,257.59L515.89,260.34L516.04,260.5L520.25,266.76L520.39,267.03L525.18,277.14L525.32,277.47L533.01,293.22L533.15,293.42L536.92,297.28L537.07,297.38L541.42,299.31L541.57,299.35L547.51,300.22L547.66,300.23L559.4,300.29L559.55,300.29L569.41,301.04L569.56,301.07L580,303.8" style="vector-effect: none; fill: none; stroke: rgb(254, 203, 82); stroke-opacity: 1; stroke-width: 0px; opacity: 1;"/></g><g class="points"/><g class="text"/></g><g class="trace scatter traceab52f5" style="stroke-miterlimit: 2;"><g class="fills"/><g class="errorbars"/><g class="lines"><path class="js-line" d="M0,303.33L4.93,302.3L5.08,302.25L13.2,300.22L13.34,300.21L28.14,299.96L28.28,299.96L65.99,299.4L66.14,299.41L130.53,301.59L130.68,301.56L134.45,300.18L134.59,300.09L137.78,297.07L137.93,296.89L142.43,289.54L142.57,289.26L149.68,274.41L149.82,274.09L160.7,252.15L160.85,251.93L165.63,245.73L165.78,245.58L169.11,243.22L169.26,243.17L172.01,243L172.16,243.03L175.06,244.68L175.2,244.81L178.68,248.77L178.83,248.96L186.81,259.12L186.95,259.24L190.14,260.9L190.29,260.94L193.91,260.81L194.06,260.78L200.3,258.52L200.44,258.46L207.4,256.44L207.55,256.43L211.03,256.77L211.17,256.82L214.07,258.55L214.22,258.67L217.99,263.18L218.13,263.4L222.05,270.45L222.2,270.75L233.94,294.43L234.09,294.62L237.57,297.92L237.71,298.01L241.78,299.87L241.92,299.91L248.3,300.85L248.45,300.86L282.53,300.2L282.68,300.14L285.72,298.09L285.87,297.95L289.35,293.49L289.49,293.26L293.99,285.36L294.13,285.09L300.81,271.57L300.95,271.26L312.12,248.94L312.26,248.71L317.48,242.27L317.63,242.16L320.39,241.08L320.53,241.08L322.85,241.8L323,241.89L326.19,245.08L326.33,245.27L331.7,253.64L331.84,253.88L337.21,260.84L337.35,260.97L340.98,262.97L341.13,263L344.75,263.04L344.9,263.01L351.28,261.15L351.42,261.1L358.82,259.38L358.96,259.38L362.45,260.09L362.59,260.16L365.78,262.41L365.93,262.55L370.13,268.08L370.28,268.32L375.79,279.18L375.93,279.5L383.33,293.77L383.48,293.97L386.96,297.46L387.1,297.56L391.45,299.62L391.6,299.66L397.4,300.68L397.54,300.69L409.73,300.76L409.87,300.75L432.5,300.24L432.64,300.19L435.98,298.07L436.12,297.93L439.17,294.33L439.31,294.13L443.96,286.34L444.1,286.06L449.61,274.21L449.76,273.87L462.38,244.12L462.52,243.86L466.58,238.21L466.73,238.08L469.34,236.8L469.48,236.79L471.51,237.36L471.66,237.45L474.12,239.89L474.27,240.08L478.47,247.32L478.62,247.61L485.29,259.8L485.44,260L488.77,263.34L488.92,263.43L491.96,264.35L492.11,264.35L495.73,263.61L495.88,263.56L508.79,258.61L508.93,258.6L512.27,259.3L512.41,259.37L515.75,261.95L515.89,262.1L519.37,266.85L519.52,267.09L524.89,277.69L525.03,278.02L533.3,294.2L533.44,294.39L537.36,297.98L537.5,298.07L542.58,299.95L542.73,299.98L549.69,300.68L549.83,300.68L569.56,301.35L569.7,301.38L580,304" style="vector-effect: none; fill: none; stroke: rgb(99, 110, 250); stroke-opacity: 1; stroke-width: 0px; opacity: 1;"/></g><g class="points"/><g class="text"/></g><g class="trace scatter trace475bbe" style="stroke-miterlimit: 2; opacity: 1;"><g class="fills"/><g class="errorbars"/><g class="lines"><path class="js-line" d="M0,303.2L4.06,302.45L4.21,302.41L13.34,300.04L13.49,300.03L22.48,299.85L22.63,299.85L57,299.1L57.14,299.09L75.13,299.84L75.27,299.85L110.95,301.5L111.1,301.5L130.53,301.44L130.68,301.42L134.59,299.9L134.74,299.81L138.36,296.04L138.51,295.83L143.3,287.39L143.44,287.1L152.58,267.16L152.72,266.83L160.99,250.8L161.14,250.58L165.78,244.62L165.92,244.48L169.55,242.08L169.69,242.04L172.59,242.18L172.74,242.23L175.64,244.23L175.78,244.37L179.84,249.44L179.99,249.65L187.1,258.46L187.24,258.57L190.58,260.09L190.72,260.11L194.2,259.83L194.35,259.79L202.18,256.86L202.33,256.81L208.56,255.43L208.71,255.43L212.04,256.26L212.19,256.34L215.09,258.6L215.23,258.76L218.28,262.8L218.42,263.03L222.49,270.64L222.63,270.95L234.23,294.52L234.38,294.7L238,297.99L238.15,298.08L242.21,299.83L242.36,299.87L248.16,300.7L248.3,300.7L257.15,300.54L257.29,300.53L274.55,300.68L274.7,300.69L281.95,300.25L282.1,300.2L285.43,298.14L285.58,298.01L289.2,293.37L289.35,293.14L296.31,280.28L296.45,279.99L303.85,264.06L304,263.74L310.52,250.63L310.67,250.38L315.6,243.06L315.74,242.9L318.93,240.35L319.08,240.29L321.55,240.16L321.69,240.2L324.16,241.77L324.3,241.9L327.93,246.58L328.07,246.8L337.35,260.1L337.5,260.22L340.69,262.02L340.84,262.07L344.46,262.2L344.61,262.18L350.99,260.32L351.13,260.27L358.96,258.43L359.11,258.44L362.45,259.17L362.59,259.24L365.78,261.53L365.93,261.68L369.55,266.36L369.7,266.59L374.77,276.35L374.92,276.67L382.61,292.41L382.75,292.63L386.52,296.91L386.67,297.02L390.58,299.16L390.73,299.21L396.67,300.47L396.82,300.48L405.81,300.67L405.96,300.67L424.52,300.78L424.67,300.78L431.92,300.28L432.06,300.23L435.4,298.36L435.54,298.24L438.88,294.43L439.02,294.23L443.52,286.67L443.67,286.4L450.77,270.63L450.92,270.27L461.07,245.52L461.22,245.23L465.28,238.46L465.42,238.28L468.32,235.86L468.47,235.8L470.79,235.83L470.93,235.88L473.4,237.86L473.54,238.03L476.73,242.96L476.88,243.23L486.45,260.42L486.6,260.59L489.64,262.98L489.79,263.04L492.69,263.49L492.83,263.47L496.31,262.51L496.46,262.46L508.79,257.66L508.93,257.66L512.27,258.37L512.41,258.45L515.31,260.61L515.46,260.76L519.23,265.8L519.37,266.04L524.16,275.46L524.31,275.78L531.99,291.98L532.14,292.21L535.47,296.34L535.62,296.47L539.1,298.68L539.24,298.74L544.76,300.15L544.9,300.17L553.02,300.51L553.17,300.51L569.41,301.18L569.56,301.21L580,303.9" style="vector-effect: none; fill: none; stroke: rgb(207, 184, 124); stroke-opacity: 1; stroke-width: 3px; opacity: 1;"/></g><g class="points"/><g class="text"/></g></g></g></g><g class="zerolinelayer-above"/><path class="xlines-above crisp" d="M79,420.5H661M79,99.5H661" style="fill: none; stroke-width: 1px; stroke: rgb(0, 0, 0); stroke-opacity: 1;"/><path class="ylines-above crisp" d="M79.5,100V420M660.5,100V420" style="fill: none; stroke-width: 1px; stroke: rgb(0, 0, 0); stroke-opacity: 1;"/><g class="overlines-above"/><g class="xaxislayer-above"><path class="xtick ticks crisp" d="M0,421v5" transform="translate(80,0)" style="stroke: rgb(68, 68, 68); stroke-opacity: 1; stroke-width: 1px;"/><path class="xtick ticks crisp" d="M0,421v5" transform="translate(152.5,0)" style="stroke: rgb(68, 68, 68); stroke-opacity: 1; stroke-width: 1px;"/><path class="xtick ticks crisp" d="M0,421v5" transform="translate(225,0)" style="stroke: rgb(68, 68, 68); stroke-opacity: 1; stroke-width: 1px;"/><path class="xtick ticks crisp" d="M0,421v5" transform="translate(297.5,0)" style="stroke: rgb(68, 68, 68); stroke-opacity: 1; stroke-width: 1px;"/><path class="xtick ticks crisp" d="M0,421v5" transform="translate(370,0)" style="stroke: rgb(68, 68, 68); stroke-opacity: 1; stroke-width: 1px;"/><path class="xtick ticks crisp" d="M0,421v5" transform="translate(442.5,0)" style="stroke: rgb(68, 68, 68); stroke-opacity: 1; stroke-width: 1px;"/><path class="xtick ticks crisp" d="M0,421v5" transform="translate(515,0)" style="stroke: rgb(68, 68, 68); stroke-opacity: 1; stroke-width: 1px;"/><path class="xtick ticks crisp" d="M0,421v5" transform="translate(587.5,0)" style="stroke: rgb(68, 68, 68); stroke-opacity: 1; stroke-width: 1px;"/><path class="xtick ticks crisp" d="M0,421v5" transform="translate(660,0)" style="stroke: rgb(68, 68, 68); stroke-opacity: 1; stroke-width: 1px;"/><g class="xtick"><text text-anchor="middle" x="0" y="440.4" transform="translate(80,0)" style="font-family: 'Open Sans', verdana, arial, sans-serif; font-size: 12px; fill: rgb(42, 63, 95); fill-opacity: 1; white-space: pre;">−2000</text></g><g class="xtick"><text text-anchor="middle" x="0" y="440.4" style="font-family: 'Open Sans', verdana, arial, sans-serif; font-size: 12px; fill: rgb(42, 63, 95); fill-opacity: 1; white-space: pre;" transform="translate(152.5,0)">−1500</text></g><g class="xtick"><text text-anchor="middle" x="0" y="440.4" style="font-family: 'Open Sans', verdana, arial, sans-serif; font-size: 12px; fill: rgb(42, 63, 95); fill-opacity: 1; white-space: pre;" transform="translate(225,0)">−1000</text></g><g class="xtick"><text text-anchor="middle" x="0" y="440.4" style="font-family: 'Open Sans', verdana, arial, sans-serif; font-size: 12px; fill: rgb(42, 63, 95); fill-opacity: 1; white-space: pre;" transform="translate(297.5,0)">−500</text></g><g class="xtick"><text text-anchor="middle" x="0" y="440.4" style="font-family: 'Open Sans', verdana, arial, sans-serif; font-size: 12px; fill: rgb(42, 63, 95); fill-opacity: 1; white-space: pre;" transform="translate(370,0)">0</text></g><g class="xtick"><text text-anchor="middle" x="0" y="440.4" style="font-family: 'Open Sans', verdana, arial, sans-serif; font-size: 12px; fill: rgb(42, 63, 95); fill-opacity: 1; white-space: pre;" transform="translate(442.5,0)">500</text></g><g class="xtick"><text text-anchor="middle" x="0" y="440.4" style="font-family: 'Open Sans', verdana, arial, sans-serif; font-size: 12px; fill: rgb(42, 63, 95); fill-opacity: 1; white-space: pre;" transform="translate(515,0)">1000</text></g><g class="xtick"><text text-anchor="middle" x="0" y="440.4" style="font-family: 'Open Sans', verdana, arial, sans-serif; font-size: 12px; fill: rgb(42, 63, 95); fill-opacity: 1; white-space: pre;" transform="translate(587.5,0)">1500</text></g><g class="xtick"><text text-anchor="middle" x="0" y="440.4" style="font-family: 'Open Sans', verdana, arial, sans-serif; font-size: 12px; fill: rgb(42, 63, 95); fill-opacity: 1; white-space: pre;" transform="translate(660,0)">2000</text></g></g><g class="yaxislayer-above"><path class="ytick ticks crisp" d="M79,0h-5" transform="translate(0,411.03)" style="stroke: rgb(68, 68, 68); stroke-opacity: 1; stroke-width: 1px;"/><path class="ytick ticks crisp" d="M79,0h-5" transform="translate(0,367.78)" style="stroke: rgb(68, 68, 68); stroke-opacity: 1; stroke-width: 1px;"/><path class="ytick ticks crisp" d="M79,0h-5" transform="translate(0,324.53)" style="stroke: rgb(68, 68, 68); stroke-opacity: 1; stroke-width: 1px;"/><path class="ytick ticks crisp" d="M79,0h-5" transform="translate(0,281.28)" style="stroke: rgb(68, 68, 68); stroke-opacity: 1; stroke-width: 1px;"/><path class="ytick ticks crisp" d="M79,0h-5" transform="translate(0,238.03)" style="stroke: rgb(68, 68, 68); stroke-opacity: 1; stroke-width: 1px;"/><path class="ytick ticks crisp" d="M79,0h-5" transform="translate(0,194.78)" style="stroke: rgb(68, 68, 68); stroke-opacity: 1; stroke-width: 1px;"/><path class="ytick ticks crisp" d="M79,0h-5" transform="translate(0,151.53)" style="stroke: rgb(68, 68, 68); stroke-opacity: 1; stroke-width: 1px;"/><path class="ytick ticks crisp" d="M79,0h-5" transform="translate(0,108.28)" style="stroke: rgb(68, 68, 68); stroke-opacity: 1; stroke-width: 1px;"/><g class="ytick"><text text-anchor="end" x="71.6" y="4.199999999999999" transform="translate(0,411.03)" style="font-family: 'Open Sans', verdana, arial, sans-serif; font-size: 12px; fill: rgb(42, 63, 95); fill-opacity: 1; white-space: pre;">0</text></g><g class="ytick"><text text-anchor="end" x="71.6" y="4.199999999999999" style="font-family: 'Open Sans', verdana, arial, sans-serif; font-size: 12px; fill: rgb(42, 63, 95); fill-opacity: 1; white-space: pre;" transform="translate(0,367.78)">10k</text></g><g class="ytick"><text text-anchor="end" x="71.6" y="4.199999999999999" style="font-family: 'Open Sans', verdana, arial, sans-serif; font-size: 12px; fill: rgb(42, 63, 95); fill-opacity: 1; white-space: pre;" transform="translate(0,324.53)">20k</text></g><g class="ytick"><text text-anchor="end" x="71.6" y="4.199999999999999" style="font-family: 'Open Sans', verdana, arial, sans-serif; font-size: 12px; fill: rgb(42, 63, 95); fill-opacity: 1; white-space: pre;" transform="translate(0,281.28)">30k</text></g><g class="ytick"><text text-anchor="end" x="71.6" y="4.199999999999999" style="font-family: 'Open Sans', verdana, arial, sans-serif; font-size: 12px; fill: rgb(42, 63, 95); fill-opacity: 1; white-space: pre;" transform="translate(0,238.03)">40k</text></g><g class="ytick"><text text-anchor="end" x="71.6" y="4.199999999999999" style="font-family: 'Open Sans', verdana, arial, sans-serif; font-size: 12px; fill: rgb(42, 63, 95); fill-opacity: 1; white-space: pre;" transform="translate(0,194.78)">50k</text></g><g class="ytick"><text text-anchor="end" x="71.6" y="4.199999999999999" style="font-family: 'Open Sans', verdana, arial, sans-serif; font-size: 12px; fill: rgb(42, 63, 95); fill-opacity: 1; white-space: pre;" transform="translate(0,151.53)">60k</text></g><g class="ytick"><text text-anchor="end" x="71.6" y="4.199999999999999" style="font-family: 'Open Sans', verdana, arial, sans-serif; font-size: 12px; fill: rgb(42, 63, 95); fill-opacity: 1; white-space: pre;" transform="translate(0,108.28)">70k</text></g></g><g class="overaxes-above"/></g></g><g class="polarlayer"/><g class="smithlayer"/><g class="ternarylayer"/><g class="geolayer"/><g class="funnelarealayer"/><g class="pielayer"/><g class="iciclelayer"/><g class="treemaplayer"/><g class="sunburstlayer"/><g class="glimages"/><defs id="topdefs-f37b52"><g class="clips"/><clipPath id="legendf37b52"><rect width="515" height="67" x="1" y="1"/></clipPath></defs><g class="layer-above"><g class="imagelayer"/><g class="shapelayer"><g class="shape-group" data-index="0" clip-path="url(#clipf37b52x)"><path data-index="0" fill-rule="evenodd" d="M220.51,420L220.51,100" style="opacity: 1; stroke: rgb(128, 128, 128); stroke-opacity: 1; fill: rgb(0, 0, 0); fill-opacity: 0; stroke-dasharray: 9px, 9px; stroke-width: 2px;"/></g><g class="shape-group" data-index="1" clip-path="url(#clipf37b52x)"><path data-index="1" fill-rule="evenodd" d="M297.5,420L297.5,100" style="opacity: 1; stroke: rgb(128, 128, 128); stroke-opacity: 1; fill: rgb(0, 0, 0); fill-opacity: 0; stroke-dasharray: 3px, 3px; stroke-width: 2px;"/></g><g class="shape-group" data-index="2" clip-path="url(#clipf37b52x)"><path data-index="2" fill-rule="evenodd" d="M370,420L370,100" style="opacity: 1; stroke: rgb(128, 128, 128); stroke-opacity: 1; fill: rgb(0, 0, 0); fill-opacity: 0; stroke-dasharray: 9px, 9px; stroke-width: 2px;"/></g><g class="shape-group" data-index="3" clip-path="url(#clipf37b52x)"><path data-index="3" fill-rule="evenodd" d="M447,420L447,100" style="opacity: 1; stroke: rgb(128, 128, 128); stroke-opacity: 1; fill: rgb(0, 0, 0); fill-opacity: 0; stroke-dasharray: 3px, 3px; stroke-width: 2px;"/></g><g class="shape-group" data-index="4" clip-path="url(#clipf37b52x)"><path data-index="4" fill-rule="evenodd" d="M519.5,420L519.5,100" style="opacity: 1; stroke: rgb(128, 128, 128); stroke-opacity: 1; fill: rgb(0, 0, 0); fill-opacity: 0; stroke-dasharray: 9px, 9px; stroke-width: 2px;"/></g><g class="shape-group" data-index="5" clip-path="url(#clipf37b52x)"><path data-index="5" fill-rule="evenodd" d="M596.49,420L596.49,100" style="opacity: 1; stroke: rgb(128, 128, 128); stroke-opacity: 1; fill: rgb(0, 0, 0); fill-opacity: 0; stroke-dasharray: 3px, 3px; stroke-width: 2px;"/></g><g class="shape-group" data-index="6" clip-path="url(#clipf37b52x)"><path data-index="6" fill-rule="evenodd" d="M370,420L370,100" style="opacity: 1; stroke: rgb(255, 0, 0); stroke-opacity: 1; fill: rgb(0, 0, 0); fill-opacity: 0; stroke-dasharray: 9px, 9px; stroke-width: 2px;"/></g></g></g><g class="infolayer"><g class="legend" pointer-events="all" transform="translate(143,24.599999999999994)"><rect class="bg" shape-rendering="crispEdges" style="stroke: rgb(0, 0, 0); stroke-opacity: 1; fill: rgb(255, 255, 255); fill-opacity: 0.8; stroke-width: 1px;" width="516" height="68" x="0.5" y="0.5"/><g class="scrollbox" transform="" clip-path="url(#legendf37b52)"><g class="groups"><g class="traces" transform="translate(1,15.5)" style="opacity: 1;"><text class="legendtext" text-anchor="start" x="40" y="4.680000000000001" style="font-family: 'Open Sans', verdana, arial, sans-serif; font-size: 12px; fill: rgb(42, 63, 95); fill-opacity: 1; white-space: pre;">Gamma</text><g class="layers" style="opacity: 1;"><g class="legendfill"/><g class="legendlines"><path class="js-line" d="M5,0h30" style="fill: none; stroke: rgb(207, 184, 124); stroke-opacity: 1; stroke-width: 3px;"/></g><g class="legendsymbols"><g class="legendpoints"/></g></g><rect class="legendtoggle" x="0" y="-9.5" width="89.5625" height="19" style="fill: rgb(0, 0, 0); fill-opacity: 0;"/></g><g class="traces" transform="translate(132.8671875,15.5)" style="opacity: 1;"><text class="legendtext" text-anchor="start" x="40" y="4.680000000000001" style="font-family: 'Open Sans', verdana, arial, sans-serif; font-size: 12px; fill: rgb(42, 63, 95); fill-opacity: 1; white-space: pre;">Gamma_down</text><g class="layers"><g class="legendfill"><path class="js-fill" d="M5,-2h30v6h-30z" style="stroke-width: 0; fill: rgb(207, 184, 124); fill-opacity: 0.15;"/></g><g class="legendlines"><path class="js-line" d="M5,-2h30" style="fill: none; stroke: rgb(99, 110, 250); stroke-opacity: 1; stroke-width: 0px;"/></g><g class="legendsymbols"><g class="legendpoints"/></g></g><rect class="legendtoggle" x="0" y="-9.5" width="129.3671875" height="19" style="fill: rgb(0, 0, 0); fill-opacity: 0;"/></g><g class="traces" transform="translate(264.734375,15.5)" style="opacity: 1;"><text class="legendtext" text-anchor="start" x="40" y="4.680000000000001" style="font-family: 'Open Sans', verdana, arial, sans-serif; font-size: 12px; fill: rgb(42, 63, 95); fill-opacity: 1; white-space: pre;">Gamma_up</text><g class="layers"><g class="legendfill"/><g class="legendlines"><path class="js-line" d="M5,0h30" style="fill: none; stroke: rgb(254, 203, 82); stroke-opacity: 1; stroke-width: 0px;"/></g><g class="legendsymbols"><g class="legendpoints"/></g></g><rect class="legendtoggle" x="0" y="-9.5" width="112.265625" height="19" style="fill: rgb(0, 0, 0); fill-opacity: 0;"/></g><g class="traces" transform="translate(396.6015625,15.5)" style="opacity: 1;"><text class="legendtext" text-anchor="start" x="40" y="4.680000000000001" style="font-family: 'Open Sans', verdana, arial, sans-serif; font-size: 12px; fill: rgb(42, 63, 95); fill-opacity: 1; white-space: pre;">Beta</text><g class="layers" style="opacity: 1;"><g class="legendfill"/><g class="legendlines"><path class="js-line" d="M5,0h30" style="fill: none; stroke: rgb(148, 0, 211); stroke-opacity: 1; stroke-width: 3px;"/></g><g class="legendsymbols"><g class="legendpoints"/></g></g><rect class="legendtoggle" x="0" y="-9.5" width="69.8125" height="19" style="fill: rgb(0, 0, 0); fill-opacity: 0;"/></g><g class="traces" transform="translate(1,34.5)" style="opacity: 1;"><text class="legendtext" text-anchor="start" x="40" y="4.680000000000001" style="font-family: 'Open Sans', verdana, arial, sans-serif; font-size: 12px; fill: rgb(42, 63, 95); fill-opacity: 1; white-space: pre;">Beta_down</text><g class="layers"><g class="legendfill"><path class="js-fill" d="M5,-2h30v6h-30z" style="stroke-width: 0; fill: rgb(148, 0, 211); fill-opacity: 0.15;"/></g><g class="legendlines"><path class="js-line" d="M5,-2h30" style="fill: none; stroke: rgb(182, 232, 128); stroke-opacity: 1; stroke-width: 0px;"/></g><g class="legendsymbols"><g class="legendpoints"/></g></g><rect class="legendtoggle" x="0" y="-9.5" width="109.6171875" height="19" style="fill: rgb(0, 0, 0); fill-opacity: 0;"/></g><g class="traces" transform="translate(132.8671875,34.5)" style="opacity: 1;"><text class="legendtext" text-anchor="start" x="40" y="4.680000000000001" style="font-family: 'Open Sans', verdana, arial, sans-serif; font-size: 12px; fill: rgb(42, 63, 95); fill-opacity: 1; white-space: pre;">Beta_up</text><g class="layers"><g class="legendfill"/><g class="legendlines"><path class="js-line" d="M5,0h30" style="fill: none; stroke: rgb(255, 102, 146); stroke-opacity: 1; stroke-width: 0px;"/></g><g class="legendsymbols"><g class="legendpoints"/></g></g><rect class="legendtoggle" x="0" y="-9.5" width="92.515625" height="19" style="fill: rgb(0, 0, 0); fill-opacity: 0;"/></g><g class="traces" transform="translate(264.734375,34.5)" style="opacity: 1;"><text class="legendtext" text-anchor="start" x="40" y="4.680000000000001" style="font-family: 'Open Sans', verdana, arial, sans-serif; font-size: 12px; fill: rgb(42, 63, 95); fill-opacity: 1; white-space: pre;">Alpha</text><g class="layers" style="opacity: 1;"><g class="legendfill"/><g class="legendlines"><path class="js-line" d="M5,0h30" style="fill: none; stroke: rgb(0, 0, 255); stroke-opacity: 1; stroke-width: 3px;"/></g><g class="legendsymbols"><g class="legendpoints"/></g></g><rect class="legendtoggle" x="0" y="-9.5" width="76.2734375" height="19" style="fill: rgb(0, 0, 0); fill-opacity: 0;"/></g><g class="traces" transform="translate(396.6015625,34.5)" style="opacity: 1;"><text class="legendtext" text-anchor="start" x="40" y="4.680000000000001" style="font-family: 'Open Sans', verdana, arial, sans-serif; font-size: 12px; fill: rgb(42, 63, 95); fill-opacity: 1; white-space: pre;">Alpha_down</text><g class="layers"><g class="legendfill"><path class="js-fill" d="M5,-2h30v6h-30z" style="stroke-width: 0; fill: rgb(0, 0, 255); fill-opacity: 0.15;"/></g><g class="legendlines"><path class="js-line" d="M5,-2h30" style="fill: none; stroke: rgb(255, 161, 90); stroke-opacity: 1; stroke-width: 0px;"/></g><g class="legendsymbols"><g class="legendpoints"/></g></g><rect class="legendtoggle" x="0" y="-9.5" width="116.078125" height="19" style="fill: rgb(0, 0, 0); fill-opacity: 0;"/></g><g class="traces" transform="translate(1,53.5)" style="opacity: 1;"><text class="legendtext" text-anchor="start" x="40" y="4.680000000000001" style="font-family: 'Open Sans', verdana, arial, sans-serif; font-size: 12px; fill: rgb(42, 63, 95); fill-opacity: 1; white-space: pre;">Alpha_up</text><g class="layers"><g class="legendfill"/><g class="legendlines"><path class="js-line" d="M5,0h30" style="fill: none; stroke: rgb(171, 99, 250); stroke-opacity: 1; stroke-width: 0px;"/></g><g class="legendsymbols"><g class="legendpoints"/></g></g><rect class="legendtoggle" x="0" y="-9.5" width="98.9765625" height="19" style="fill: rgb(0, 0, 0); fill-opacity: 0;"/></g><g class="traces" transform="translate(132.8671875,53.5)" style="opacity: 1;"><text class="legendtext" text-anchor="start" x="40" y="4.680000000000001" style="font-family: 'Open Sans', verdana, arial, sans-serif; font-size: 12px; fill: rgb(42, 63, 95); fill-opacity: 1; white-space: pre;">Theta</text><g class="layers" style="opacity: 1;"><g class="legendfill"/><g class="legendlines"><path class="js-line" d="M5,0h30" style="fill: none; stroke: rgb(75, 0, 130); stroke-opacity: 1; stroke-width: 3px;"/></g><g class="legendsymbols"><g class="legendpoints"/></g></g><rect class="legendtoggle" x="0" y="-9.5" width="77.078125" height="19" style="fill: rgb(0, 0, 0); fill-opacity: 0;"/></g><g class="traces" transform="translate(264.734375,53.5)" style="opacity: 1;"><text class="legendtext" text-anchor="start" x="40" y="4.680000000000001" style="font-family: 'Open Sans', verdana, arial, sans-serif; font-size: 12px; fill: rgb(42, 63, 95); fill-opacity: 1; white-space: pre;">Theta_down</text><g class="layers"><g class="legendfill"><path class="js-fill" d="M5,-2h30v6h-30z" style="stroke-width: 0; fill: rgb(75, 0, 130); fill-opacity: 0.15;"/></g><g class="legendlines"><path class="js-line" d="M5,-2h30" style="fill: none; stroke: rgb(239, 85, 59); stroke-opacity: 1; stroke-width: 0px;"/></g><g class="legendsymbols"><g class="legendpoints"/></g></g><rect class="legendtoggle" x="0" y="-9.5" width="116.875" height="19" style="fill: rgb(0, 0, 0); fill-opacity: 0;"/></g><g class="traces" transform="translate(396.6015625,53.5)" style="opacity: 1;"><text class="legendtext" text-anchor="start" x="40" y="4.680000000000001" style="font-family: 'Open Sans', verdana, arial, sans-serif; font-size: 12px; fill: rgb(42, 63, 95); fill-opacity: 1; white-space: pre;">Theta_up</text><g class="layers"><g class="legendfill"/><g class="legendlines"><path class="js-line" d="M5,0h30" style="fill: none; stroke: rgb(99, 110, 250); stroke-opacity: 1; stroke-width: 0px;"/></g><g class="legendsymbols"><g class="legendpoints"/></g></g><rect class="legendtoggle" x="0" y="-9.5" width="99.7734375" height="19" style="fill: rgb(0, 0, 0); fill-opacity: 0;"/></g></g></g><rect class="scrollbar" rx="20" ry="3" width="0" height="0" style="fill: rgb(128, 139, 164); fill-opacity: 1;" x="0" y="0"/></g><g class="g-gtitle"><text class="gtitle" x="350" y="50" text-anchor="middle" dy="0em" style="opacity: 1; font-family: Arial; font-size: 18px; fill: rgb(0, 0, 0); fill-opacity: 1; white-space: pre;"><tspan class="line" dy="0em" x="350" y="50"><tspan style="font-weight:bold">Figure f006: MT Band-Specific Omission Dynamics (AAAB)</tspan></tspan><tspan class="line" dy="1.3em" x="350" y="50">​<tspan style="font-size:70%" dy="-0.6em">Relative Power (dB) with ±SEM | 0ms = Omission Onset | 30ms Smoothed</tspan><tspan dy="0.42em">​</tspan></tspan></text></g><g class="g-xtitle"><text class="xtitle" x="370" y="467.200390625" text-anchor="middle" style="opacity: 1; font-family: 'Open Sans', verdana, arial, sans-serif; font-size: 14px; fill: rgb(42, 63, 95); fill-opacity: 1; white-space: pre;">Time from Omission (ms)</text></g><g class="g-ytitle"><text class="ytitle" transform="rotate(-90,29.840234375,260)" x="29.840234375" y="260" text-anchor="middle" style="opacity: 1; font-family: 'Open Sans', verdana, arial, sans-serif; font-size: 14px; fill: rgb(42, 63, 95); fill-opacity: 1; white-space: pre;">Relative Power (dB)</text></g><g class="annotation" data-index="0" style="opacity: 1;"><g class="annotation-text-g" transform="rotate(0,230.01,109.5)"><g class="cursor-pointer" transform="translate(221,100)"><rect class="bg" x="0.5" y="0.5" width="18" height="18" style="stroke-width: 1px; stroke: rgb(0, 0, 0); stroke-opacity: 0; fill: rgb(0, 0, 0); fill-opacity: 0;"/><text class="annotation-text" text-anchor="middle" x="9.43359375" y="14" style="font-family: 'Open Sans', verdana, arial, sans-serif; font-size: 12px; fill: rgb(42, 63, 95); fill-opacity: 1; white-space: pre;">P1</text></g></g></g><g class="annotation" data-index="1" style="opacity: 1;"><g class="annotation-text-g" transform="rotate(0,308,109.5)"><g class="cursor-pointer" transform="translate(298,100)"><rect class="bg" x="0.5" y="0.5" width="20" height="18" style="stroke-width: 1px; stroke: rgb(0, 0, 0); stroke-opacity: 0; fill: rgb(0, 0, 0); fill-opacity: 0;"/><text class="annotation-text" text-anchor="middle" x="10.4375" y="14" style="font-family: 'Open Sans', verdana, arial, sans-serif; font-size: 12px; fill: rgb(42, 63, 95); fill-opacity: 1; white-space: pre;">D1</text></g></g></g><g class="annotation" data-index="2" style="opacity: 1;"><g class="annotation-text-g" transform="rotate(0,379.5,109.5)"><g class="cursor-pointer" transform="translate(370,100)"><rect class="bg" x="0.5" y="0.5" width="18" height="18" style="stroke-width: 1px; stroke: rgb(0, 0, 0); stroke-opacity: 0; fill: rgb(0, 0, 0); fill-opacity: 0;"/><text class="annotation-text" text-anchor="middle" x="9.43359375" y="14" style="font-family: 'Open Sans', verdana, arial, sans-serif; font-size: 12px; fill: rgb(42, 63, 95); fill-opacity: 1; white-space: pre;">P2</text></g></g></g><g class="annotation" data-index="3" style="opacity: 1;"><g class="annotation-text-g" transform="rotate(0,457.5,109.5)"><g class="cursor-pointer" transform="translate(447,100)"><rect class="bg" x="0.5" y="0.5" width="20" height="18" style="stroke-width: 1px; stroke: rgb(0, 0, 0); stroke-opacity: 0; fill: rgb(0, 0, 0); fill-opacity: 0;"/><text class="annotation-text" text-anchor="middle" x="10.4375" y="14" style="font-family: 'Open Sans', verdana, arial, sans-serif; font-size: 12px; fill: rgb(42, 63, 95); fill-opacity: 1; white-space: pre;">D2</text></g></g></g><g class="annotation" data-index="4" style="opacity: 1;"><g class="annotation-text-g" transform="rotate(0,529,109.5)"><g class="cursor-pointer" transform="translate(520,100)"><rect class="bg" x="0.5" y="0.5" width="18" height="18" style="stroke-width: 1px; stroke: rgb(0, 0, 0); stroke-opacity: 0; fill: rgb(0, 0, 0); fill-opacity: 0;"/><text class="annotation-text" text-anchor="middle" x="9.43359375" y="14" style="font-family: 'Open Sans', verdana, arial, sans-serif; font-size: 12px; fill: rgb(42, 63, 95); fill-opacity: 1; white-space: pre;">P3</text></g></g></g><g class="annotation" data-index="5" style="opacity: 1;"><g class="annotation-text-g" transform="rotate(0,606.99,109.5)"><g class="cursor-pointer" transform="translate(596,100)"><rect class="bg" x="0.5" y="0.5" width="20" height="18" style="stroke-width: 1px; stroke: rgb(0, 0, 0); stroke-opacity: 0; fill: rgb(0, 0, 0); fill-opacity: 0;"/><text class="annotation-text" text-anchor="middle" x="10.4375" y="14" style="font-family: 'Open Sans', verdana, arial, sans-serif; font-size: 12px; fill: rgb(42, 63, 95); fill-opacity: 1; white-space: pre;">D3</text></g></g></g><g class="annotation" data-index="6" style="opacity: 1;"><g class="annotation-text-g" transform="rotate(0,419,109.5)"><g class="cursor-pointer" transform="translate(370,100)"><rect class="bg" x="0.5" y="0.5" width="97" height="18" style="stroke-width: 1px; stroke: rgb(0, 0, 0); stroke-opacity: 0; fill: rgb(0, 0, 0); fill-opacity: 0;"/><text class="annotation-text" text-anchor="middle" x="49.171875" y="14" style="font-family: 'Open Sans', verdana, arial, sans-serif; font-size: 12px; fill: rgb(42, 63, 95); fill-opacity: 1; white-space: pre;">OMISSION (P2)</text></g></g></g></g></svg>