<svg class="main-svg" xmlns="http://www.w3.org/2000/svg" xmlns:xlink="http://www.w3.org/1999/xlink" width="700" height="500" style="" viewBox="0 0 700 500"><rect x="0" y="0" width="700" height="500" style="fill: rgb(255, 255, 255); fill-opacity: 1;"/><defs id="defs-b9b7e1"><g class="clips"><clipPath id="clipb9b7e1xyplot" class="plotclip"><rect width="580" height="320"/></clipPath><clipPath class="axesclip" id="clipb9b7e1x"><rect x="80" y="0" width="580" height="500"/></clipPath><clipPath class="axesclip" id="clipb9b7e1y"><rect x="0" y="100" width="700" height="320"/></clipPath><clipPath class="axesclip" id="clipb9b7e1xy"><rect x="80" y="100" width="580" height="320"/></clipPath></g><g class="gradients"/><g class="patterns"/></defs><g class="bglayer"/><g class="layer-below"><g class="imagelayer"/><g class="shapelayer"/></g><g class="cartesianlayer"><g class="subplot xy"><g class="layer-subplot"><g class="shapelayer"/><g class="imagelayer"/></g><g class="minor-gridlayer"><g class="x"/><g class="y"/></g><g class="gridlayer"><g class="x"><path class="xgrid crisp" transform="translate(152.5,0)" d="M0,100v320" style="stroke: rgb(211, 211, 211); stroke-opacity: 1; stroke-width: 1px;"/><path class="xgrid crisp" transform="translate(225,0)" d="M0,100v320" style="stroke: rgb(211, 211, 211); stroke-opacity: 1; stroke-width: 1px;"/><path class="xgrid crisp" transform="translate(297.5,0)" d="M0,100v320" style="stroke: rgb(211, 211, 211); stroke-opacity: 1; stroke-width: 1px;"/><path class="xgrid crisp" transform="translate(442.5,0)" d="M0,100v320" style="stroke: rgb(211, 211, 211); stroke-opacity: 1; stroke-width: 1px;"/><path class="xgrid crisp" transform="translate(515,0)" d="M0,100v320" style="stroke: rgb(211, 211, 211); stroke-opacity: 1; stroke-width: 1px;"/><path class="xgrid crisp" transform="translate(587.5,0)" d="M0,100v320" style="stroke: rgb(211, 211, 211); stroke-opacity: 1; stroke-width: 1px;"/></g><g class="y"><path class="ygrid crisp" transform="translate(0,370.08)" d="M80,0h580" style="stroke: rgb(211, 211, 211); stroke-opacity: 1; stroke-width: 1px;"/><path class="ygrid crisp" transform="translate(0,316.6)" d="M80,0h580" style="stroke: rgb(211, 211, 211); stroke-opacity: 1; stroke-width: 1px;"/><path class="ygrid crisp" transform="translate(0,263.12)" d="M80,0h580" style="stroke: rgb(211, 211, 211); stroke-opacity: 1; stroke-width: 1px;"/><path class="ygrid crisp" transform="translate(0,209.64)" d="M80,0h580" style="stroke: rgb(211, 211, 211); stroke-opacity: 1; stroke-width: 1px;"/><path class="ygrid crisp" transform="translate(0,156.16)" d="M80,0h580" style="stroke: rgb(211, 211, 211); stroke-opacity: 1; stroke-width: 1px;"/><path class="ygrid crisp" transform="translate(0,102.68)" d="M80,0h580" style="stroke: rgb(211, 211, 211); stroke-opacity: 1; stroke-width: 1px;"/></g></g><g class="zerolinelayer"><path class="xzl zl crisp" transform="translate(370,0)" d="M0,100v320" style="stroke: rgb(235, 240, 248); stroke-opacity: 1; stroke-width: 2px;"/></g><g class="layer-between"><g class="shapelayer"/><g class="imagelayer"/></g><path class="xlines-below"/><path class="ylines-below"/><g class="overlines-below"/><g class="xaxislayer-below"/><g class="yaxislayer-below"/><g class="overaxes-below"/><g class="overplot"><g class="xy" transform="translate(80,100)" clip-path="url(#clipb9b7e1xyplot)"><g class="scatterlayer mlayer"><g class="trace scatter trace507d9d" style="stroke-miterlimit: 2;"><g class="fills"><g><path class="js-fill" d="M0,197.61L2.61,196.69L2.76,196.59L6.24,193.21L6.38,193.04L16.82,179.35L16.97,179.16L31.18,160.16L31.33,159.96L42.5,146.04L42.64,145.88L51.63,137.31L51.78,137.2L59.9,131.77L60.05,131.68L83.54,119.02L83.69,118.95L95.43,113.91L95.58,113.85L119.94,105.41L120.09,105.37L137.06,101.54L137.2,101.53L155.62,99.65L155.77,99.63L173.17,96.48L173.32,96.45L188.26,94.11L188.4,94.1L201.89,92.45L202.04,92.42L214.65,89.5L214.8,89.45L227.13,84.85L227.27,84.79L237.13,80.04L237.28,79.97L262.08,66.63L262.23,66.56L277.45,60.74L277.6,60.71L285.72,59.79L285.87,59.79L303.13,58.69L303.27,58.67L324.16,57.67L324.3,57.68L353.89,61.14L354.03,61.14L362.01,60.95L362.16,60.93L369.7,59.41L369.84,59.37L377.09,56.2L377.24,56.12L390.58,48.43L390.73,48.35L409.73,38.28L409.87,38.22L422.78,33.81L422.93,33.77L432.06,32.32L432.21,32.32L440.04,32.8L440.19,32.82L448.74,32.96L448.89,32.94L456.57,31.13L456.72,31.1L467.45,29.28L467.6,29.26L474.85,29.23L474.99,29.25L480.8,30.77L480.94,30.82L490.51,35.42L490.66,35.5L516.62,51.15L516.76,51.24L524.6,56.81L524.74,56.94L530.25,62.29L530.4,62.45L540.12,75.33L540.26,75.55L547.51,87.49L547.66,87.75L564.77,116.77L564.92,117L578.4,137.93L578.55,138.02L580,138.48L580,129.08L578.26,128.4L578.11,128.29L543.6,69.38L543.45,69.14L532.72,53.45L532.57,53.27L525.76,45.96L525.61,45.83L492.98,24.34L492.83,24.25L482.39,18.57L482.25,18.51L476.01,16.46L475.86,16.43L470.93,16.01L470.79,16.01L449.9,19.86L449.76,19.89L436.41,19.5L436.27,19.48L428.58,19.77L428.44,19.79L415.67,23.34L415.53,23.4L404.94,28.21L404.8,28.28L378.11,44.56L377.96,44.65L371.15,48.02L371,48.07L364.48,49.7L364.33,49.73L355.63,50.17L355.48,50.17L324.88,46.21L324.74,46.19L316.76,45.73L316.61,45.73L302.11,46.91L301.97,46.93L285,48.12L284.85,48.13L276.73,49.35L276.58,49.39L259.03,56.83L258.89,56.89L241.2,67.38L241.05,67.46L227.56,74.57L227.42,74.63L215.81,79.29L215.67,79.34L199.86,83.26L199.71,83.29L191.01,84.62L190.87,84.63L180.72,85.98L180.57,86.01L151.71,91.59L151.56,91.61L137.49,93.29L137.35,93.3L121.4,97.66L121.25,97.71L105.88,103.49L105.73,103.54L94.56,107.94L94.42,108L76.43,116.76L76.29,116.84L63.82,123.97L63.67,124.05L51.92,131.76L51.78,131.88L44.53,138.57L44.38,138.73L11.02,182.32L10.88,182.51L5.51,189.33L5.37,189.5L2.61,192L2.47,192.1L0,192.93Z" style="fill: rgb(75, 0, 130); fill-opacity: 0.15; stroke-width: 0;"/></g></g><g class="errorbars"/><g class="lines"><path class="js-line" d="M0,192.93L2.47,192.1L2.61,192L5.37,189.5L5.51,189.33L10.88,182.51L11.02,182.32L44.38,138.73L44.53,138.57L51.78,131.88L51.92,131.76L63.67,124.05L63.82,123.97L76.29,116.84L76.43,116.76L94.42,108L94.56,107.94L105.73,103.54L105.88,103.49L121.25,97.71L121.4,97.66L137.35,93.3L137.49,93.29L151.56,91.61L151.71,91.59L180.57,86.01L180.72,85.98L190.87,84.63L191.01,84.62L199.71,83.29L199.86,83.26L215.67,79.34L215.81,79.29L227.42,74.63L227.56,74.57L241.05,67.46L241.2,67.38L258.89,56.89L259.03,56.83L276.58,49.39L276.73,49.35L284.85,48.13L285,48.12L301.97,46.93L302.11,46.91L316.61,45.73L316.76,45.73L324.74,46.19L324.88,46.21L355.48,50.17L355.63,50.17L364.33,49.73L364.48,49.7L371,48.07L371.15,48.02L377.96,44.65L378.11,44.56L404.8,28.28L404.94,28.21L415.53,23.4L415.67,23.34L428.44,19.79L428.58,19.77L436.27,19.48L436.41,19.5L449.76,19.89L449.9,19.86L470.79,16.01L470.93,16.01L475.86,16.43L476.01,16.46L482.25,18.51L482.39,18.57L492.83,24.25L492.98,24.34L525.61,45.83L525.76,45.96L532.57,53.27L532.72,53.45L543.45,69.14L543.6,69.38L578.11,128.29L578.26,128.4L580,129.08" style="vector-effect: none; fill: none; stroke: rgb(99, 110, 250); stroke-opacity: 1; stroke-width: 0px; opacity: 1;"/></g><g class="points"/><g class="text"/></g><g class="trace scatter tracee23161" style="stroke-miterlimit: 2;"><g class="fills"/><g class="errorbars"/><g class="lines"><path class="js-line" d="M0,197.61L2.61,196.69L2.76,196.59L6.24,193.21L6.38,193.04L16.82,179.35L16.97,179.16L31.18,160.16L31.33,159.96L42.5,146.04L42.64,145.88L51.63,137.31L51.78,137.2L59.9,131.77L60.05,131.68L83.54,119.02L83.69,118.95L95.43,113.91L95.58,113.85L119.94,105.41L120.09,105.37L137.06,101.54L137.2,101.53L155.62,99.65L155.77,99.63L173.17,96.48L173.32,96.45L188.26,94.11L188.4,94.1L201.89,92.45L202.04,92.42L214.65,89.5L214.8,89.45L227.13,84.85L227.27,84.79L237.13,80.04L237.28,79.97L262.08,66.63L262.23,66.56L277.45,60.74L277.6,60.71L285.72,59.79L285.87,59.79L303.13,58.69L303.27,58.67L324.16,57.67L324.3,57.68L353.89,61.14L354.03,61.14L362.01,60.95L362.16,60.93L369.7,59.41L369.84,59.37L377.09,56.2L377.24,56.12L390.58,48.43L390.73,48.35L409.73,38.28L409.87,38.22L422.78,33.81L422.93,33.77L432.06,32.32L432.21,32.32L440.04,32.8L440.19,32.82L448.74,32.96L448.89,32.94L456.57,31.13L456.72,31.1L467.45,29.28L467.6,29.26L474.85,29.23L474.99,29.25L480.8,30.77L480.94,30.82L490.51,35.42L490.66,35.5L516.62,51.15L516.76,51.24L524.6,56.81L524.74,56.94L530.25,62.29L530.4,62.45L540.12,75.33L540.26,75.55L547.51,87.49L547.66,87.75L564.77,116.77L564.92,117L578.4,137.93L578.55,138.02L580,138.48" style="vector-effect: none; fill: none; stroke: rgb(239, 85, 59); stroke-opacity: 1; stroke-width: 0px; opacity: 1;"/></g><g class="points"/><g class="text"/></g><g class="trace scatter traceb285b2" style="stroke-miterlimit: 2; opacity: 1;"><g class="fills"/><g class="errorbars"/><g class="lines"><path class="js-line" d="M0,195.27L2.61,194.35L2.76,194.25L6.24,190.85L6.38,190.68L12.91,182.18L13.05,181.98L29.59,159.83L29.73,159.63L44.09,141.66L44.24,141.51L50.18,135.82L50.33,135.7L57.29,130.7L57.43,130.61L69.76,123.28L69.91,123.2L85.72,115.02L85.86,114.95L101.96,108.24L102.11,108.19L125.17,100.24L125.31,100.2L135.46,97.59L135.61,97.58L170.85,92.56L171,92.53L189.56,89.39L189.71,89.38L204.36,87.17L204.5,87.14L216.39,84.01L216.54,83.96L229.88,78.57L230.03,78.5L247.14,69.14L247.29,69.05L255.41,64.16L255.55,64.08L275.86,55.36L276,55.32L283.69,54.04L283.84,54.03L323.43,51.82L323.58,51.83L336.34,53.89L336.48,53.92L354.61,55.65L354.76,55.65L364.04,55.23L364.19,55.21L372.16,53.09L372.31,53.03L379.99,48.96L380.14,48.87L408.71,32.54L408.86,32.48L417.41,29.02L417.56,28.97L427.13,26.44L427.28,26.42L434.82,25.87L434.96,25.88L442.94,26.63L443.09,26.64L449.61,26.37L449.76,26.34L472.53,22.52L472.67,22.53L478.18,23.47L478.33,23.51L485.87,26.61L486.02,26.69L497.76,33.39L497.91,33.48L525.76,51.89L525.9,52.02L531.56,57.91L531.7,58.08L539.39,68.46L539.53,68.68L547.08,81.08L547.22,81.34L573.33,126.3L573.47,126.56L578.11,133.01L578.26,133.12L580,133.78" style="vector-effect: none; fill: none; stroke: rgb(75, 0, 130); stroke-opacity: 1; stroke-width: 3px; opacity: 1;"/></g><g class="points"/><g class="text"/></g><g class="trace scatter trace0485dc" style="stroke-miterlimit: 2;"><g class="fills"><g><path class="js-fill" d="M0,234.55L2.32,233.68L2.47,233.57L5.51,230.29L5.66,230.09L12.33,219.32L12.47,219.06L20.31,204.56L20.45,204.29L31.18,185.73L31.33,185.54L35.82,180.4L35.97,180.27L40.61,176.98L40.76,176.9L45.83,175.18L45.98,175.16L50.91,175.05L51.05,175.06L58.16,176.74L58.3,176.79L81.8,183.83L81.95,183.88L94.13,189.26L94.27,189.34L106.46,194.26L106.6,194.31L122.85,198.94L122.99,198.97L131.69,199.97L131.84,199.98L147.94,199.88L148.08,199.86L155.62,198.11L155.77,198.07L176.51,191.66L176.65,191.64L198.99,187.77L199.13,187.77L207.26,188.52L207.4,188.55L216.1,191.04L216.25,191.09L242.5,199.62L242.65,199.66L259.03,203.42L259.18,203.44L267.3,203.81L267.45,203.8L283.84,203.05L283.98,203.04L299.06,200.4L299.21,200.36L312.41,195.96L312.55,195.9L332.28,190L332.42,189.96L352.73,184.93L352.87,184.93L358.09,185.67L358.24,185.71L369.12,189.48L369.26,189.53L386.81,194.97L386.96,195.03L401.17,199.15L401.32,199.18L414.37,202.01L414.51,202.02L422.35,201.82L422.49,201.8L449.32,197.94L449.47,197.89L457.88,194.2L458.02,194.13L470.06,189.27L470.21,189.23L494.57,182.79L494.72,182.79L502.26,183.25L502.41,183.28L510.82,185.19L510.96,185.23L524.02,188.6L524.16,188.64L542.73,194.31L542.87,194.39L547.08,197.48L547.22,197.62L551.43,202.51L551.57,202.71L556.94,211.11L557.08,211.36L571.59,233.51L571.73,233.7L577.24,239.56L577.39,239.66L580,240.55L580,237.74L578.69,237.49L578.55,237.44L575.07,234.79L574.92,234.64L567.53,224.85L567.38,224.64L559.26,211.63L559.11,211.38L552.15,199.87L552.01,199.66L547.8,194.44L547.66,194.29L543.74,191.1L543.6,191.01L535.33,187.67L535.18,187.62L518.65,182.86L518.5,182.82L502.26,178.83L502.12,178.81L495.01,178.32L494.86,178.33L475.43,183.67L475.28,183.71L466.87,186.27L466.73,186.32L456.43,191.37L456.28,191.45L449.18,194.67L449.03,194.72L422.35,198.65L422.2,198.67L415.38,198.94L415.24,198.94L407.7,197.6L407.55,197.56L358.67,181.72L358.53,181.68L352.73,180.74L352.58,180.74L326.77,187.35L326.62,187.38L309.51,193.2L309.36,193.26L297.9,197.08L297.76,197.12L290.07,198.89L289.93,198.92L274.99,200.18L274.84,200.19L263.97,200.55L263.82,200.55L254.25,199.33L254.1,199.3L214.94,186.26L214.8,186.21L207.11,183.92L206.97,183.89L197.97,183.21L197.83,183.22L189.71,184.42L189.56,184.45L172.88,188.13L172.74,188.17L160.85,192.46L160.7,192.52L152.43,195.5L152.29,195.54L145.76,196.72L145.62,196.74L131.98,196.57L131.84,196.56L123.72,195.64L123.57,195.61L107.33,190.8L107.18,190.75L90.21,183.41L90.07,183.34L62.51,173.93L62.37,173.88L53.52,171.29L53.37,171.26L48.3,170.7L48.15,170.7L42.64,171.75L42.5,171.81L37.27,174.74L37.13,174.85L31.76,180.5L31.62,180.7L13.49,213.44L13.34,213.71L5.66,226.51L5.51,226.7L2.47,230.03L2.32,230.14L0,231.02Z" style="fill: rgb(0, 0, 255); fill-opacity: 0.15; stroke-width: 0;"/></g></g><g class="errorbars"/><g class="lines"><path class="js-line" d="M0,231.02L2.32,230.14L2.47,230.03L5.51,226.7L5.66,226.51L13.34,213.71L13.49,213.44L31.62,180.7L31.76,180.5L37.13,174.85L37.27,174.74L42.5,171.81L42.64,171.75L48.15,170.7L48.3,170.7L53.37,171.26L53.52,171.29L62.37,173.88L62.51,173.93L90.07,183.34L90.21,183.41L107.18,190.75L107.33,190.8L123.57,195.61L123.72,195.64L131.84,196.56L131.98,196.57L145.62,196.74L145.76,196.72L152.29,195.54L152.43,195.5L160.7,192.52L160.85,192.46L172.74,188.17L172.88,188.13L189.56,184.45L189.71,184.42L197.83,183.22L197.97,183.21L206.97,183.89L207.11,183.92L214.8,186.21L214.94,186.26L254.1,199.3L254.25,199.33L263.82,200.55L263.97,200.55L274.84,200.19L274.99,200.18L289.93,198.92L290.07,198.89L297.76,197.12L297.9,197.08L309.36,193.26L309.51,193.2L326.62,187.38L326.77,187.35L352.58,180.74L352.73,180.74L358.53,181.68L358.67,181.72L407.55,197.56L407.7,197.6L415.24,198.94L415.38,198.94L422.2,198.67L422.35,198.65L449.03,194.72L449.18,194.67L456.28,191.45L456.43,191.37L466.73,186.32L466.87,186.27L475.28,183.71L475.43,183.67L494.86,178.33L495.01,178.32L502.12,178.81L502.26,178.83L518.5,182.82L518.65,182.86L535.18,187.62L535.33,187.67L543.6,191.01L543.74,191.1L547.66,194.29L547.8,194.44L552.01,199.66L552.15,199.87L559.11,211.38L559.26,211.63L567.38,224.64L567.53,224.85L574.92,234.64L575.07,234.79L578.55,237.44L578.69,237.49L580,237.74" style="vector-effect: none; fill: none; stroke: rgb(171, 99, 250); stroke-opacity: 1; stroke-width: 0px; opacity: 1;"/></g><g class="points"/><g class="text"/></g><g class="trace scatter traced263c8" style="stroke-miterlimit: 2;"><g class="fills"/><g class="errorbars"/><g class="lines"><path class="js-line" d="M0,234.55L2.32,233.68L2.47,233.57L5.51,230.29L5.66,230.09L12.33,219.32L12.47,219.06L20.31,204.56L20.45,204.29L31.18,185.73L31.33,185.54L35.82,180.4L35.97,180.27L40.61,176.98L40.76,176.9L45.83,175.18L45.98,175.16L50.91,175.05L51.05,175.06L58.16,176.74L58.3,176.79L81.8,183.83L81.95,183.88L94.13,189.26L94.27,189.34L106.46,194.26L106.6,194.31L122.85,198.94L122.99,198.97L131.69,199.97L131.84,199.98L147.94,199.88L148.08,199.86L155.62,198.11L155.77,198.07L176.51,191.66L176.65,191.64L198.99,187.77L199.13,187.77L207.26,188.52L207.4,188.55L216.1,191.04L216.25,191.09L242.5,199.62L242.65,199.66L259.03,203.42L259.18,203.44L267.3,203.81L267.45,203.8L283.84,203.05L283.98,203.04L299.06,200.4L299.21,200.36L312.41,195.96L312.55,195.9L332.28,190L332.42,189.96L352.73,184.93L352.87,184.93L358.09,185.67L358.24,185.71L369.12,189.48L369.26,189.53L386.81,194.97L386.96,195.03L401.17,199.15L401.32,199.18L414.37,202.01L414.51,202.02L422.35,201.82L422.49,201.8L449.32,197.94L449.47,197.89L457.88,194.2L458.02,194.13L470.06,189.27L470.21,189.23L494.57,182.79L494.72,182.79L502.26,183.25L502.41,183.28L510.82,185.19L510.96,185.23L524.02,188.6L524.16,188.64L542.73,194.31L542.87,194.39L547.08,197.48L547.22,197.62L551.43,202.51L551.57,202.71L556.94,211.11L557.08,211.36L571.59,233.51L571.73,233.7L577.24,239.56L577.39,239.66L580,240.55" style="vector-effect: none; fill: none; stroke: rgb(255, 161, 90); stroke-opacity: 1; stroke-width: 0px; opacity: 1;"/></g><g class="points"/><g class="text"/></g><g class="trace scatter trace162d5a" style="stroke-miterlimit: 2; opacity: 1;"><g class="fills"/><g class="errorbars"/><g class="lines"><path class="js-line" d="M0,232.79L2.32,231.91L2.47,231.8L5.51,228.5L5.66,228.3L12.18,217.69L12.33,217.43L32.34,181.98L32.49,181.8L36.98,177.18L37.13,177.06L41.92,174.2L42.06,174.14L47.14,172.88L47.28,172.87L52.79,173.24L52.94,173.27L62.37,175.98L62.51,176.03L90.36,185.44L90.5,185.51L106.89,192.53L107.04,192.58L122.41,197.1L122.56,197.13L129.95,198.15L130.1,198.16L145.18,198.46L145.33,198.45L152.58,197.22L152.72,197.18L162.3,193.85L162.44,193.79L177.96,189.21L178.1,189.18L199.42,185.46L199.57,185.46L207.11,186.2L207.26,186.23L218.28,189.63L218.42,189.69L250.62,200.15L250.77,200.18L259.61,201.86L259.76,201.87L267.45,202.18L267.59,202.18L293.12,200.04L293.26,200.01L304.14,197.07L304.29,197.03L330.39,188.45L330.54,188.42L352.44,182.84L352.58,182.84L357.95,183.57L358.09,183.61L366.94,186.74L367.09,186.79L378.4,190.29L378.54,190.33L405.23,198.57L405.38,198.61L414.95,200.48L415.09,200.49L422.35,200.23L422.49,200.21L439.6,198.32L439.75,198.3L448.02,196.71L448.16,196.66L453.96,194.36L454.11,194.29L469.48,187.4L469.63,187.35L493.85,180.61L493.99,180.6L501.1,180.87L501.25,180.89L510.38,182.89L510.53,182.93L542.73,192.4L542.87,192.48L547.66,196.17L547.8,196.31L552.15,201.7L552.3,201.91L561.15,216.51L561.29,216.75L572.02,232.59L572.17,232.78L577.24,238.15L577.39,238.24L580,239.14" style="vector-effect: none; fill: none; stroke: rgb(0, 0, 255); stroke-opacity: 1; stroke-width: 3px; opacity: 1;"/></g><g class="points"/><g class="text"/></g><g class="trace scatter trace729619" style="stroke-miterlimit: 2;"><g class="fills"><g><path class="js-fill" d="M0,198.74L1.16,197.95L1.31,197.76L3.19,193.43L3.34,192.97L6.53,179.75L6.67,179.05L18.42,124.59L18.56,124.15L22.19,115.9L22.34,115.68L25.09,112.71L25.24,112.61L28.14,111.43L28.28,111.4L33.36,111.44L33.5,111.46L41.48,113.27L41.63,113.32L47.28,116.04L47.43,116.13L63.67,128.62L63.82,128.73L79.91,141.57L80.06,141.66L85.86,144.66L86.01,144.72L115.74,155.68L115.88,155.72L122.7,157.82L122.85,157.88L136.19,164.38L136.33,164.46L142.43,168.13L142.57,168.24L146.92,172.34L147.07,172.5L162.44,189.38L162.59,189.51L172.01,197.25L172.16,197.34L177.23,199.39L177.38,199.42L182.02,199.48L182.17,199.46L188.11,197.89L188.26,197.83L196.23,194.02L196.38,193.94L206.1,189.85L206.24,189.81L214.36,188.88L214.51,188.89L220.6,189.64L220.75,189.67L228.87,192.39L229.01,192.45L237.71,195.15L237.86,195.18L254.39,198.42L254.54,198.43L260.2,198.28L260.34,198.26L276.29,196.7L276.44,196.71L285.87,198.11L286.01,198.15L292.25,200.15L292.39,200.21L305.88,205.49L306.03,205.56L319.37,211.63L319.51,211.66L325.75,212.58L325.9,212.58L331.84,212.27L331.99,212.24L338.51,210.37L338.66,210.31L347.8,207.18L347.94,207.15L357.8,205.92L357.95,205.92L366.36,206.66L366.51,206.68L377.53,209.34L377.67,209.38L391.31,212.29L391.45,212.3L397.54,211.98L397.69,211.96L405.81,209.81L405.96,209.76L415.82,206.82L415.96,206.79L423.94,206.46L424.09,206.47L431.48,207.96L431.63,208.01L455.56,216.22L455.7,216.25L468.32,218.04L468.47,218.04L483.99,218.37L484.13,218.35L493.85,216.31L493.99,216.28L508.35,214.13L508.5,214.12L519.52,213.72L519.66,213.73L526.34,214.91L526.48,214.95L544.76,219.24L544.9,219.26L558.39,221.29L558.53,221.37L561.44,223.72L561.58,223.88L564.63,228.16L564.77,228.41L568.69,236.35L568.83,236.68L577.39,254.31L577.53,254.48L579.85,255.92L580,255.93L580,253.29L579.42,253.19L579.27,253.15L576.81,250.88L576.66,250.67L569.56,235.28L569.41,234.93L565.06,225.61L564.92,225.35L561.44,220.27L561.29,220.11L558.53,217.85L558.39,217.76L545.92,215.74L545.77,215.73L525.76,210.6L525.61,210.56L518.79,209.38L518.65,209.37L506.9,210.2L506.76,210.22L492.98,212.8L492.83,212.84L485.58,214.56L485.44,214.58L474.41,214.57L474.27,214.56L462.09,213.63L461.94,213.61L450.05,211.09L449.9,211.05L439.6,207.05L439.46,206.98L432.06,203.74L431.92,203.68L424.96,202L424.81,201.99L417.56,201.99L417.41,202L404.36,205.76L404.22,205.81L398.41,207.31L398.27,207.34L391.02,207.83L390.87,207.83L382.46,206.35L382.32,206.32L367.23,202.56L367.09,202.54L358.96,201.8L358.82,201.8L348.81,203.08L348.67,203.11L339.82,206.09L339.67,206.15L333.44,208.2L333.29,208.23L326.77,208.75L326.62,208.75L319.8,207.7L319.66,207.66L307.91,201.96L307.77,201.87L291.67,194.97L291.52,194.91L285.14,192.88L285,192.84L276.15,191.5L276,191.49L265.56,192.17L265.42,192.19L257.44,193.2L257.29,193.2L242.94,190.46L242.79,190.43L226.98,185.57L226.84,185.51L220.6,183.52L220.46,183.48L214.22,182.98L214.07,182.99L207.55,184.03L207.4,184.07L201.31,186.49L201.17,186.56L192.46,191.45L192.32,191.53L185.36,194.44L185.21,194.48L180.57,195.23L180.43,195.23L176.07,194.55L175.93,194.5L171.58,192.03L171.43,191.92L161.72,182.61L161.57,182.46L148.52,166.82L148.37,166.64L143.73,161.63L143.59,161.5L126.76,151.78L126.62,151.71L116.75,147.69L116.61,147.65L89.34,136.96L89.2,136.91L82.96,134.03L82.82,133.95L53.81,110.04L53.66,109.92L46.99,104.58L46.85,104.48L41.63,101.92L41.48,101.87L32.63,99.96L32.49,99.95L27.99,100.12L27.85,100.16L24.51,101.89L24.37,102.02L21.47,106L21.32,106.28L18.13,114.65L17.98,115.14L5.95,174.07L5.8,174.77L3.19,185.54L3.05,186L1.31,190.08L1.16,190.28L0,191.11Z" style="fill: rgb(148, 0, 211); fill-opacity: 0.15; stroke-width: 0;"/></g></g><g class="errorbars"/><g class="lines"><path class="js-line" d="M0,191.11L1.16,190.28L1.31,190.08L3.05,186L3.19,185.54L5.8,174.77L5.95,174.07L17.98,115.14L18.13,114.65L21.32,106.28L21.47,106L24.37,102.02L24.51,101.89L27.85,100.16L27.99,100.12L32.49,99.95L32.63,99.96L41.48,101.87L41.63,101.92L46.85,104.48L46.99,104.58L53.66,109.92L53.81,110.04L82.82,133.95L82.96,134.03L89.2,136.91L89.34,136.96L116.61,147.65L116.75,147.69L126.62,151.71L126.76,151.78L143.59,161.5L143.73,161.63L148.37,166.64L148.52,166.82L161.57,182.46L161.72,182.61L171.43,191.92L171.58,192.03L175.93,194.5L176.07,194.55L180.43,195.23L180.57,195.23L185.21,194.48L185.36,194.44L192.32,191.53L192.46,191.45L201.17,186.56L201.31,186.49L207.4,184.07L207.55,184.03L214.07,182.99L214.22,182.98L220.46,183.48L220.6,183.52L226.84,185.51L226.98,185.57L242.79,190.43L242.94,190.46L257.29,193.2L257.44,193.2L265.42,192.19L265.56,192.17L276,191.49L276.15,191.5L285,192.84L285.14,192.88L291.52,194.91L291.67,194.97L307.77,201.87L307.91,201.96L319.66,207.66L319.8,207.7L326.62,208.75L326.77,208.75L333.29,208.23L333.44,208.2L339.67,206.15L339.82,206.09L348.67,203.11L348.81,203.08L358.82,201.8L358.96,201.8L367.09,202.54L367.23,202.56L382.32,206.32L382.46,206.35L390.87,207.83L391.02,207.83L398.27,207.34L398.41,207.31L404.22,205.81L404.36,205.76L417.41,202L417.56,201.99L424.81,201.99L424.96,202L431.92,203.68L432.06,203.74L439.46,206.98L439.6,207.05L449.9,211.05L450.05,211.09L461.94,213.61L462.09,213.63L474.27,214.56L474.41,214.57L485.44,214.58L485.58,214.56L492.83,212.84L492.98,212.8L506.76,210.22L506.9,210.2L518.65,209.37L518.79,209.38L525.61,210.56L525.76,210.6L545.77,215.73L545.92,215.74L558.39,217.76L558.53,217.85L561.29,220.11L561.44,220.27L564.92,225.35L565.06,225.61L569.41,234.93L569.56,235.28L576.66,250.67L576.81,250.88L579.27,253.15L579.42,253.19L580,253.29" style="vector-effect: none; fill: none; stroke: rgb(255, 102, 146); stroke-opacity: 1; stroke-width: 0px; opacity: 1;"/></g><g class="points"/><g class="text"/></g><g class="trace scatter tracedecf6c" style="stroke-miterlimit: 2;"><g class="fills"/><g class="errorbars"/><g class="lines"><path class="js-line" d="M0,198.74L1.16,197.95L1.31,197.76L3.19,193.43L3.34,192.97L6.53,179.75L6.67,179.05L18.42,124.59L18.56,124.15L22.19,115.9L22.34,115.68L25.09,112.71L25.24,112.61L28.14,111.43L28.28,111.4L33.36,111.44L33.5,111.46L41.48,113.27L41.63,113.32L47.28,116.04L47.43,116.13L63.67,128.62L63.82,128.73L79.91,141.57L80.06,141.66L85.86,144.66L86.01,144.72L115.74,155.68L115.88,155.72L122.7,157.82L122.85,157.88L136.19,164.38L136.33,164.46L142.43,168.13L142.57,168.24L146.92,172.34L147.07,172.5L162.44,189.38L162.59,189.51L172.01,197.25L172.16,197.34L177.23,199.39L177.38,199.42L182.02,199.48L182.17,199.46L188.11,197.89L188.26,197.83L196.23,194.02L196.38,193.94L206.1,189.85L206.24,189.81L214.36,188.88L214.51,188.89L220.6,189.64L220.75,189.67L228.87,192.39L229.01,192.45L237.71,195.15L237.86,195.18L254.39,198.42L254.54,198.43L260.2,198.28L260.34,198.26L276.29,196.7L276.44,196.71L285.87,198.11L286.01,198.15L292.25,200.15L292.39,200.21L305.88,205.49L306.03,205.56L319.37,211.63L319.51,211.66L325.75,212.58L325.9,212.58L331.84,212.27L331.99,212.24L338.51,210.37L338.66,210.31L347.8,207.18L347.94,207.15L357.8,205.92L357.95,205.92L366.36,206.66L366.51,206.68L377.53,209.34L377.67,209.38L391.31,212.29L391.45,212.3L397.54,211.98L397.69,211.96L405.81,209.81L405.96,209.76L415.82,206.82L415.96,206.79L423.94,206.46L424.09,206.47L431.48,207.96L431.63,208.01L455.56,216.22L455.7,216.25L468.32,218.04L468.47,218.04L483.99,218.37L484.13,218.35L493.85,216.31L493.99,216.28L508.35,214.13L508.5,214.12L519.52,213.72L519.66,213.73L526.34,214.91L526.48,214.95L544.76,219.24L544.9,219.26L558.39,221.29L558.53,221.37L561.44,223.72L561.58,223.88L564.63,228.16L564.77,228.41L568.69,236.35L568.83,236.68L577.39,254.31L577.53,254.48L579.85,255.92L580,255.93" style="vector-effect: none; fill: none; stroke: rgb(182, 232, 128); stroke-opacity: 1; stroke-width: 0px; opacity: 1;"/></g><g class="points"/><g class="text"/></g><g class="trace scatter traceb589e8" style="stroke-miterlimit: 2; opacity: 1;"><g class="fills"/><g class="errorbars"/><g class="lines"><path class="js-line" d="M0,194.93L1.31,193.92L1.45,193.7L3.19,189.48L3.34,189.02L6.67,174.75L6.82,174.02L17.26,123.07L17.4,122.55L21.32,111.84L21.47,111.56L24.37,107.65L24.51,107.52L27.7,105.86L27.85,105.82L32.34,105.63L32.49,105.64L40.18,107.18L40.32,107.22L45.69,109.42L45.83,109.5L50.47,112.79L50.62,112.91L75.71,133.57L75.85,133.69L85.28,139.83L85.43,139.9L112.26,150.6L112.4,150.64L124.59,154.65L124.73,154.72L139.96,162.64L140.11,162.73L145.47,167.06L145.62,167.21L153.3,176.52L153.45,176.7L162.01,185.94L162.15,186.08L173.32,195.61L173.46,195.69L177.96,197.28L178.1,197.3L182.75,197.2L182.89,197.17L187.97,195.75L188.11,195.69L193.77,193.03L193.91,192.95L206.24,187.12L206.39,187.08L213.2,185.97L213.35,185.96L220.02,186.45L220.17,186.48L227.13,188.68L227.27,188.73L238.29,192.35L238.44,192.39L257.87,195.84L258.02,195.83L265.27,194.84L265.42,194.82L274.41,194.02L274.55,194.02L285.29,195.44L285.43,195.48L291.81,197.51L291.96,197.56L311.1,206.06L311.25,206.14L318.21,209.27L318.35,209.31L324.3,210.51L324.45,210.53L332.13,210.33L332.28,210.31L338.51,208.49L338.66,208.43L350.26,204.73L350.41,204.71L358.09,203.87L358.24,203.87L365.2,204.36L365.35,204.38L377.82,207.27L377.96,207.31L391.02,210.06L391.16,210.06L397.4,209.74L397.54,209.72L404.22,208.08L404.36,208.04L417.41,204.3L417.56,204.29L424.81,204.26L424.96,204.28L431.19,205.65L431.34,205.7L441.64,210.02L441.78,210.09L452.51,213.62L452.66,213.66L465.13,215.9L465.28,215.91L480.36,216.72L480.51,216.72L486.6,216.18L486.74,216.15L509.95,211.92L510.09,211.91L518.65,211.52L518.79,211.53L525.9,212.72L526.05,212.76L544.9,217.44L545.05,217.45L558.39,219.53L558.53,219.61L561.44,222L561.58,222.16L564.63,226.5L564.77,226.75L569.12,235.79L569.27,236.13L576.52,251.81L576.66,252.02L579.27,254.46L579.42,254.51L580,254.61" style="vector-effect: none; fill: none; stroke: rgb(148, 0, 211); stroke-opacity: 1; stroke-width: 3px; opacity: 1;"/></g><g class="points"/><g class="text"/></g><g class="trace scatter trace6987a7" style="stroke-miterlimit: 2;"><g class="fills"><g><path class="js-fill" d="M0,301.8L2.47,300.89L2.61,300.79L6.24,297.25L6.38,297.09L11.46,292.72L11.6,292.64L15.52,291.39L15.66,291.37L27.7,290.51L27.85,290.5L52.07,289.58L52.21,289.59L62.95,291.05L63.09,291.07L85.14,293.28L85.28,293.29L102.69,294.86L102.83,294.86L119.22,295.21L119.36,295.21L133.29,295.39L133.43,295.39L155.77,295.88L155.91,295.9L184.78,297.09L184.92,297.09L286.88,296.41L287.03,296.39L299.79,296.26L299.93,296.27L321.11,296.23L321.26,296.22L416.54,295.52L416.69,295.51L429.6,295.81L429.74,295.82L447.29,296.24L447.44,296.24L487.03,295.49L487.18,295.48L534.02,294.18L534.17,294.19L561,294.61L561.15,294.61L566.95,295.32L567.09,295.37L570.72,297.31L570.86,297.42L579.71,303.98L579.85,303.99L580,304L580,303.47L579.13,303.35L578.98,303.31L572.75,298.39L572.6,298.25L568.83,295.43L568.69,295.35L565.06,294.15L564.92,294.12L555.05,294.04L554.91,294.04L539.24,293.74L539.1,293.73L523.73,293.55L523.58,293.56L511.69,293.89L511.54,293.89L487.9,294.81L487.76,294.82L447.73,295.57L447.58,295.58L429.89,295.11L429.74,295.1L414.8,294.87L414.66,294.88L321.98,295.58L321.84,295.58L299.79,295.57L299.64,295.56L286.01,295.73L285.87,295.74L186.23,296.43L186.08,296.43L164.18,295.72L164.04,295.71L143.01,294.26L142.86,294.26L114.29,294.02L114.14,294.02L98.33,293.71L98.19,293.7L59.46,289.05L59.32,289.02L51.49,288L51.34,287.99L28.86,288.74L28.72,288.74L16.53,289.62L16.39,289.63L11.89,290.92L11.75,291L6.67,295.4L6.53,295.56L2.47,299.67L2.32,299.77L0,300.62Z" style="fill: rgb(207, 184, 124); fill-opacity: 0.15; stroke-width: 0;"/></g></g><g class="errorbars"/><g class="lines"><path class="js-line" d="M0,300.62L2.32,299.77L2.47,299.67L6.53,295.56L6.67,295.4L11.75,291L11.89,290.92L16.39,289.63L16.53,289.62L28.72,288.74L28.86,288.74L51.34,287.99L51.49,288L59.32,289.02L59.46,289.05L98.19,293.7L98.33,293.71L114.14,294.02L114.29,294.02L142.86,294.26L143.01,294.26L164.04,295.71L164.18,295.72L186.08,296.43L186.23,296.43L285.87,295.74L286.01,295.73L299.64,295.56L299.79,295.57L321.84,295.58L321.98,295.58L414.66,294.88L414.8,294.87L429.74,295.1L429.89,295.11L447.58,295.58L447.73,295.57L487.76,294.82L487.9,294.81L511.54,293.89L511.69,293.89L523.58,293.56L523.73,293.55L539.1,293.73L539.24,293.74L554.91,294.04L555.05,294.04L564.92,294.12L565.06,294.15L568.69,295.35L568.83,295.43L572.6,298.25L572.75,298.39L578.98,303.31L579.13,303.35L580,303.47" style="vector-effect: none; fill: none; stroke: rgb(254, 203, 82); stroke-opacity: 1; stroke-width: 0px; opacity: 1;"/></g><g class="points"/><g class="text"/></g><g class="trace scatter tracef26d11" style="stroke-miterlimit: 2;"><g class="fills"/><g class="errorbars"/><g class="lines"><path class="js-line" d="M0,301.8L2.47,300.89L2.61,300.79L6.24,297.25L6.38,297.09L11.46,292.72L11.6,292.64L15.52,291.39L15.66,291.37L27.7,290.51L27.85,290.5L52.07,289.58L52.21,289.59L62.95,291.05L63.09,291.07L85.14,293.28L85.28,293.29L102.69,294.86L102.83,294.86L119.22,295.21L119.36,295.21L133.29,295.39L133.43,295.39L155.77,295.88L155.91,295.9L184.78,297.09L184.92,297.09L286.88,296.41L287.03,296.39L299.79,296.26L299.93,296.27L321.11,296.23L321.26,296.22L416.54,295.52L416.69,295.51L429.6,295.81L429.74,295.82L447.29,296.24L447.44,296.24L487.03,295.49L487.18,295.48L534.02,294.18L534.17,294.19L561,294.61L561.15,294.61L566.95,295.32L567.09,295.37L570.72,297.31L570.86,297.42L579.71,303.98L579.85,303.99L580,304" style="vector-effect: none; fill: none; stroke: rgb(99, 110, 250); stroke-opacity: 1; stroke-width: 0px; opacity: 1;"/></g><g class="points"/><g class="text"/></g><g class="trace scatter trace2a458e" style="stroke-miterlimit: 2; opacity: 1;"><g class="fills"/><g class="errorbars"/><g class="lines"><path class="js-line" d="M0,301.21L2.32,300.38L2.47,300.28L6.82,295.93L6.96,295.77L12.04,291.63L12.18,291.57L16.24,290.47L16.39,290.46L27.56,289.66L27.7,289.66L51.78,288.79L51.92,288.8L62.08,290.22L62.22,290.24L95.58,294.01L95.72,294.02L114.72,294.55L114.87,294.55L141.27,294.71L141.41,294.71L155.04,295.45L155.19,295.46L172.59,296.51L172.74,296.51L187.24,296.76L187.39,296.76L286.45,296.07L286.59,296.06L299.79,295.91L299.93,295.92L321.69,295.9L321.84,295.9L415.53,295.2L415.67,295.19L429.6,295.45L429.74,295.46L447.73,295.91L447.87,295.9L487.47,295.15L487.61,295.14L534.31,293.82L534.46,293.83L561,294.24L561.15,294.24L566.95,294.97L567.09,295.01L570.72,296.98L570.86,297.09L576.08,301.83L576.23,301.96L579.27,303.65L579.42,303.68L580,303.74" style="vector-effect: none; fill: none; stroke: rgb(207, 184, 124); stroke-opacity: 1; stroke-width: 3px; opacity: 1;"/></g><g class="points"/><g class="text"/></g></g></g></g><g class="zerolinelayer-above"/><path class="xlines-above crisp" d="M79,420.5H661M79,99.5H661" style="fill: none; stroke-width: 1px; stroke: rgb(0, 0, 0); stroke-opacity: 1;"/><path class="ylines-above crisp" d="M79.5,100V420M660.5,100V420" style="fill: none; stroke-width: 1px; stroke: rgb(0, 0, 0); stroke-opacity: 1;"/><g class="overlines-above"/><g class="xaxislayer-above"><path class="xtick ticks crisp" d="M0,421v5" transform="translate(80,0)" style="stroke: rgb(68, 68, 68); stroke-opacity: 1; stroke-width: 1px;"/><path class="xtick ticks crisp" d="M0,421v5" transform="translate(152.5,0)" style="stroke: rgb(68, 68, 68); stroke-opacity: 1; stroke-width: 1px;"/><path class="xtick ticks crisp" d="M0,421v5" transform="translate(225,0)" style="stroke: rgb(68, 68, 68); stroke-opacity: 1; stroke-width: 1px;"/><path class="xtick ticks crisp" d="M0,421v5" transform="translate(297.5,0)" style="stroke: rgb(68, 68, 68); stroke-opacity: 1; stroke-width: 1px;"/><path class="xtick ticks crisp" d="M0,421v5" transform="translate(370,0)" style="stroke: rgb(68, 68, 68); stroke-opacity: 1; stroke-width: 1px;"/><path class="xtick ticks crisp" d="M0,421v5" transform="translate(442.5,0)" style="stroke: rgb(68, 68, 68); stroke-opacity: 1; stroke-width: 1px;"/><path class="xtick ticks crisp" d="M0,421v5" transform="translate(515,0)" style="stroke: rgb(68, 68, 68); stroke-opacity: 1; stroke-width: 1px;"/><path class="xtick ticks crisp" d="M0,421v5" transform="translate(587.5,0)" style="stroke: rgb(68, 68, 68); stroke-opacity: 1; stroke-width: 1px;"/><path class="xtick ticks crisp" d="M0,421v5" transform="translate(660,0)" style="stroke: rgb(68, 68, 68); stroke-opacity: 1; stroke-width: 1px;"/><g class="xtick"><text text-anchor="middle" x="0" y="440.4" transform="translate(80,0)" style="font-family: 'Open Sans', verdana, arial, sans-serif; font-size: 12px; fill: rgb(42, 63, 95); fill-opacity: 1; white-space: pre;">−2000</text></g><g class="xtick"><text text-anchor="middle" x="0" y="440.4" style="font-family: 'Open Sans', verdana, arial, sans-serif; font-size: 12px; fill: rgb(42, 63, 95); fill-opacity: 1; white-space: pre;" transform="translate(152.5,0)">−1500</text></g><g class="xtick"><text text-anchor="middle" x="0" y="440.4" style="font-family: 'Open Sans', verdana, arial, sans-serif; font-size: 12px; fill: rgb(42, 63, 95); fill-opacity: 1; white-space: pre;" transform="translate(225,0)">−1000</text></g><g class="xtick"><text text-anchor="middle" x="0" y="440.4" style="font-family: 'Open Sans', verdana, arial, sans-serif; font-size: 12px; fill: rgb(42, 63, 95); fill-opacity: 1; white-space: pre;" transform="translate(297.5,0)">−500</text></g><g class="xtick"><text text-anchor="middle" x="0" y="440.4" style="font-family: 'Open Sans', verdana, arial, sans-serif; font-size: 12px; fill: rgb(42, 63, 95); fill-opacity: 1; white-space: pre;" transform="translate(370,0)">0</text></g><g class="xtick"><text text-anchor="middle" x="0" y="440.4" style="font-family: 'Open Sans', verdana, arial, sans-serif; font-size: 12px; fill: rgb(42, 63, 95); fill-opacity: 1; white-space: pre;" transform="translate(442.5,0)">500</text></g><g class="xtick"><text text-anchor="middle" x="0" y="440.4" style="font-family: 'Open Sans', verdana, arial, sans-serif; font-size: 12px; fill: rgb(42, 63, 95); fill-opacity: 1; white-space: pre;" transform="translate(515,0)">1000</text></g><g class="xtick"><text text-anchor="middle" x="0" y="440.4" style="font-family: 'Open Sans', verdana, arial, sans-serif; font-size: 12px; fill: rgb(42, 63, 95); fill-opacity: 1; white-space: pre;" transform="translate(587.5,0)">1500</text></g><g class="xtick"><text text-anchor="middle" x="0" y="440.4" style="font-family: 'Open Sans', verdana, arial, sans-serif; font-size: 12px; fill: rgb(42, 63, 95); fill-opacity: 1; white-space: pre;" transform="translate(660,0)">2000</text></g></g><g class="yaxislayer-above"><path class="ytick ticks crisp" d="M79,0h-5" transform="translate(0,370.08)" style="stroke: rgb(68, 68, 68); stroke-opacity: 1; stroke-width: 1px;"/><path class="ytick ticks crisp" d="M79,0h-5" transform="translate(0,316.6)" style="stroke: rgb(68, 68, 68); stroke-opacity: 1; stroke-width: 1px;"/><path class="ytick ticks crisp" d="M79,0h-5" transform="translate(0,263.12)" style="stroke: rgb(68, 68, 68); stroke-opacity: 1; stroke-width: 1px;"/><path class="ytick ticks crisp" d="M79,0h-5" transform="translate(0,209.64)" style="stroke: rgb(68, 68, 68); stroke-opacity: 1; stroke-width: 1px;"/><path class="ytick ticks crisp" d="M79,0h-5" transform="translate(0,156.16)" style="stroke: rgb(68, 68, 68); stroke-opacity: 1; stroke-width: 1px;"/><path class="ytick ticks crisp" d="M79,0h-5" transform="translate(0,102.68)" style="stroke: rgb(68, 68, 68); stroke-opacity: 1; stroke-width: 1px;"/><g class="ytick"><text text-anchor="end" x="71.6" y="4.199999999999999" transform="translate(0,370.08)" style="font-family: 'Open Sans', verdana, arial, sans-serif; font-size: 12px; fill: rgb(42, 63, 95); fill-opacity: 1; white-space: pre;">10k</text></g><g class="ytick"><text text-anchor="end" x="71.6" y="4.199999999999999" style="font-family: 'Open Sans', verdana, arial, sans-serif; font-size: 12px; fill: rgb(42, 63, 95); fill-opacity: 1; white-space: pre;" transform="translate(0,316.6)">20k</text></g><g class="ytick"><text text-anchor="end" x="71.6" y="4.199999999999999" style="font-family: 'Open Sans', verdana, arial, sans-serif; font-size: 12px; fill: rgb(42, 63, 95); fill-opacity: 1; white-space: pre;" transform="translate(0,263.12)">30k</text></g><g class="ytick"><text text-anchor="end" x="71.6" y="4.199999999999999" style="font-family: 'Open Sans', verdana, arial, sans-serif; font-size: 12px; fill: rgb(42, 63, 95); fill-opacity: 1; white-space: pre;" transform="translate(0,209.64)">40k</text></g><g class="ytick"><text text-anchor="end" x="71.6" y="4.199999999999999" style="font-family: 'Open Sans', verdana, arial, sans-serif; font-size: 12px; fill: rgb(42, 63, 95); fill-opacity: 1; white-space: pre;" transform="translate(0,156.16)">50k</text></g><g class="ytick"><text text-anchor="end" x="71.6" y="4.199999999999999" style="font-family: 'Open Sans', verdana, arial, sans-serif; font-size: 12px; fill: rgb(42, 63, 95); fill-opacity: 1; white-space: pre;" transform="translate(0,102.68)">60k</text></g></g><g class="overaxes-above"/></g></g><g class="polarlayer"/><g class="smithlayer"/><g class="ternarylayer"/><g class="geolayer"/><g class="funnelarealayer"/><g class="pielayer"/><g class="iciclelayer"/><g class="treemaplayer"/><g class="sunburstlayer"/><g class="glimages"/><defs id="topdefs-b9b7e1"><g class="clips"/><clipPath id="legendb9b7e1"><rect width="515" height="67" x="1" y="1"/></clipPath></defs><g class="layer-above"><g class="imagelayer"/><g class="shapelayer"><g class="shape-group" data-index="0" clip-path="url(#clipb9b7e1x)"><path data-index="0" fill-rule="evenodd" d="M220.51,420L220.51,100" style="opacity: 1; stroke: rgb(128, 128, 128); stroke-opacity: 1; fill: rgb(0, 0, 0); fill-opacity: 0; stroke-dasharray: 9px, 9px; stroke-width: 2px;"/></g><g class="shape-group" data-index="1" clip-path="url(#clipb9b7e1x)"><path data-index="1" fill-rule="evenodd" d="M297.5,420L297.5,100" style="opacity: 1; stroke: rgb(128, 128, 128); stroke-opacity: 1; fill: rgb(0, 0, 0); fill-opacity: 0; stroke-dasharray: 3px, 3px; stroke-width: 2px;"/></g><g class="shape-group" data-index="2" clip-path="url(#clipb9b7e1x)"><path data-index="2" fill-rule="evenodd" d="M370,420L370,100" style="opacity: 1; stroke: rgb(128, 128, 128); stroke-opacity: 1; fill: rgb(0, 0, 0); fill-opacity: 0; stroke-dasharray: 9px, 9px; stroke-width: 2px;"/></g><g class="shape-group" data-index="3" clip-path="url(#clipb9b7e1x)"><path data-index="3" fill-rule="evenodd" d="M447,420L447,100" style="opacity: 1; stroke: rgb(128, 128, 128); stroke-opacity: 1; fill: rgb(0, 0, 0); fill-opacity: 0; stroke-dasharray: 3px, 3px; stroke-width: 2px;"/></g><g class="shape-group" data-index="4" clip-path="url(#clipb9b7e1x)"><path data-index="4" fill-rule="evenodd" d="M519.5,420L519.5,100" style="opacity: 1; stroke: rgb(128, 128, 128); stroke-opacity: 1; fill: rgb(0, 0, 0); fill-opacity: 0; stroke-dasharray: 9px, 9px; stroke-width: 2px;"/></g><g class="shape-group" data-index="5" clip-path="url(#clipb9b7e1x)"><path data-index="5" fill-rule="evenodd" d="M596.49,420L596.49,100" style="opacity: 1; stroke: rgb(128, 128, 128); stroke-opacity: 1; fill: rgb(0, 0, 0); fill-opacity: 0; stroke-dasharray: 3px, 3px; stroke-width: 2px;"/></g><g class="shape-group" data-index="6" clip-path="url(#clipb9b7e1x)"><path data-index="6" fill-rule="evenodd" d="M370,420L370,100" style="opacity: 1; stroke: rgb(255, 0, 0); stroke-opacity: 1; fill: rgb(0, 0, 0); fill-opacity: 0; stroke-dasharray: 9px, 9px; stroke-width: 2px;"/></g></g></g><g class="infolayer"><g class="legend" pointer-events="all" transform="translate(143,24.599999999999994)"><rect class="bg" shape-rendering="crispEdges" style="stroke: rgb(0, 0, 0); stroke-opacity: 1; fill: rgb(255, 255, 255); fill-opacity: 0.8; stroke-width: 1px;" width="516" height="68" x="0.5" y="0.5"/><g class="scrollbox" transform="" clip-path="url(#legendb9b7e1)"><g class="groups"><g class="traces" transform="translate(1,15.5)" style="opacity: 1;"><text class="legendtext" text-anchor="start" x="40" y="4.680000000000001" style="font-family: 'Open Sans', verdana, arial, sans-serif; font-size: 12px; fill: rgb(42, 63, 95); fill-opacity: 1; white-space: pre;">Gamma</text><g class="layers" style="opacity: 1;"><g class="legendfill"/><g class="legendlines"><path class="js-line" d="M5,0h30" style="fill: none; stroke: rgb(207, 184, 124); stroke-opacity: 1; stroke-width: 3px;"/></g><g class="legendsymbols"><g class="legendpoints"/></g></g><rect class="legendtoggle" x="0" y="-9.5" width="89.5625" height="19" style="fill: rgb(0, 0, 0); fill-opacity: 0;"/></g><g class="traces" transform="translate(132.8671875,15.5)" style="opacity: 1;"><text class="legendtext" text-anchor="start" x="40" y="4.680000000000001" style="font-family: 'Open Sans', verdana, arial, sans-serif; font-size: 12px; fill: rgb(42, 63, 95); fill-opacity: 1; white-space: pre;">Gamma_down</text><g class="layers"><g class="legendfill"><path class="js-fill" d="M5,-2h30v6h-30z" style="stroke-width: 0; fill: rgb(207, 184, 124); fill-opacity: 0.15;"/></g><g class="legendlines"><path class="js-line" d="M5,-2h30" style="fill: none; stroke: rgb(99, 110, 250); stroke-opacity: 1; stroke-width: 0px;"/></g><g class="legendsymbols"><g class="legendpoints"/></g></g><rect class="legendtoggle" x="0" y="-9.5" width="129.3671875" height="19" style="fill: rgb(0, 0, 0); fill-opacity: 0;"/></g><g class="traces" transform="translate(264.734375,15.5)" style="opacity: 1;"><text class="legendtext" text-anchor="start" x="40" y="4.680000000000001" style="font-family: 'Open Sans', verdana, arial, sans-serif; font-size: 12px; fill: rgb(42, 63, 95); fill-opacity: 1; white-space: pre;">Gamma_up</text><g class="layers"><g class="legendfill"/><g class="legendlines"><path class="js-line" d="M5,0h30" style="fill: none; stroke: rgb(254, 203, 82); stroke-opacity: 1; stroke-width: 0px;"/></g><g class="legendsymbols"><g class="legendpoints"/></g></g><rect class="legendtoggle" x="0" y="-9.5" width="112.265625" height="19" style="fill: rgb(0, 0, 0); fill-opacity: 0;"/></g><g class="traces" transform="translate(396.6015625,15.5)" style="opacity: 1;"><text class="legendtext" text-anchor="start" x="40" y="4.680000000000001" style="font-family: 'Open Sans', verdana, arial, sans-serif; font-size: 12px; fill: rgb(42, 63, 95); fill-opacity: 1; white-space: pre;">Beta</text><g class="layers" style="opacity: 1;"><g class="legendfill"/><g class="legendlines"><path class="js-line" d="M5,0h30" style="fill: none; stroke: rgb(148, 0, 211); stroke-opacity: 1; stroke-width: 3px;"/></g><g class="legendsymbols"><g class="legendpoints"/></g></g><rect class="legendtoggle" x="0" y="-9.5" width="69.8125" height="19" style="fill: rgb(0, 0, 0); fill-opacity: 0;"/></g><g class="traces" transform="translate(1,34.5)" style="opacity: 1;"><text class="legendtext" text-anchor="start" x="40" y="4.680000000000001" style="font-family: 'Open Sans', verdana, arial, sans-serif; font-size: 12px; fill: rgb(42, 63, 95); fill-opacity: 1; white-space: pre;">Beta_down</text><g class="layers"><g class="legendfill"><path class="js-fill" d="M5,-2h30v6h-30z" style="stroke-width: 0; fill: rgb(148, 0, 211); fill-opacity: 0.15;"/></g><g class="legendlines"><path class="js-line" d="M5,-2h30" style="fill: none; stroke: rgb(182, 232, 128); stroke-opacity: 1; stroke-width: 0px;"/></g><g class="legendsymbols"><g class="legendpoints"/></g></g><rect class="legendtoggle" x="0" y="-9.5" width="109.6171875" height="19" style="fill: rgb(0, 0, 0); fill-opacity: 0;"/></g><g class="traces" transform="translate(132.8671875,34.5)" style="opacity: 1;"><text class="legendtext" text-anchor="start" x="40" y="4.680000000000001" style="font-family: 'Open Sans', verdana, arial, sans-serif; font-size: 12px; fill: rgb(42, 63, 95); fill-opacity: 1; white-space: pre;">Beta_up</text><g class="layers"><g class="legendfill"/><g class="legendlines"><path class="js-line" d="M5,0h30" style="fill: none; stroke: rgb(255, 102, 146); stroke-opacity: 1; stroke-width: 0px;"/></g><g class="legendsymbols"><g class="legendpoints"/></g></g><rect class="legendtoggle" x="0" y="-9.5" width="92.515625" height="19" style="fill: rgb(0, 0, 0); fill-opacity: 0;"/></g><g class="traces" transform="translate(264.734375,34.5)" style="opacity: 1;"><text class="legendtext" text-anchor="start" x="40" y="4.680000000000001" style="font-family: 'Open Sans', verdana, arial, sans-serif; font-size: 12px; fill: rgb(42, 63, 95); fill-opacity: 1; white-space: pre;">Alpha</text><g class="layers" style="opacity: 1;"><g class="legendfill"/><g class="legendlines"><path class="js-line" d="M5,0h30" style="fill: none; stroke: rgb(0, 0, 255); stroke-opacity: 1; stroke-width: 3px;"/></g><g class="legendsymbols"><g class="legendpoints"/></g></g><rect class="legendtoggle" x="0" y="-9.5" width="76.2734375" height="19" style="fill: rgb(0, 0, 0); fill-opacity: 0;"/></g><g class="traces" transform="translate(396.6015625,34.5)" style="opacity: 1;"><text class="legendtext" text-anchor="start" x="40" y="4.680000000000001" style="font-family: 'Open Sans', verdana, arial, sans-serif; font-size: 12px; fill: rgb(42, 63, 95); fill-opacity: 1; white-space: pre;">Alpha_down</text><g class="layers"><g class="legendfill"><path class="js-fill" d="M5,-2h30v6h-30z" style="stroke-width: 0; fill: rgb(0, 0, 255); fill-opacity: 0.15;"/></g><g class="legendlines"><path class="js-line" d="M5,-2h30" style="fill: none; stroke: rgb(255, 161, 90); stroke-opacity: 1; stroke-width: 0px;"/></g><g class="legendsymbols"><g class="legendpoints"/></g></g><rect class="legendtoggle" x="0" y="-9.5" width="116.078125" height="19" style="fill: rgb(0, 0, 0); fill-opacity: 0;"/></g><g class="traces" transform="translate(1,53.5)" style="opacity: 1;"><text class="legendtext" text-anchor="start" x="40" y="4.680000000000001" style="font-family: 'Open Sans', verdana, arial, sans-serif; font-size: 12px; fill: rgb(42, 63, 95); fill-opacity: 1; white-space: pre;">Alpha_up</text><g class="layers"><g class="legendfill"/><g class="legendlines"><path class="js-line" d="M5,0h30" style="fill: none; stroke: rgb(171, 99, 250); stroke-opacity: 1; stroke-width: 0px;"/></g><g class="legendsymbols"><g class="legendpoints"/></g></g><rect class="legendtoggle" x="0" y="-9.5" width="98.9765625" height="19" style="fill: rgb(0, 0, 0); fill-opacity: 0;"/></g><g class="traces" transform="translate(132.8671875,53.5)" style="opacity: 1;"><text class="legendtext" text-anchor="start" x="40" y="4.680000000000001" style="font-family: 'Open Sans', verdana, arial, sans-serif; font-size: 12px; fill: rgb(42, 63, 95); fill-opacity: 1; white-space: pre;">Theta</text><g class="layers" style="opacity: 1;"><g class="legendfill"/><g class="legendlines"><path class="js-line" d="M5,0h30" style="fill: none; stroke: rgb(75, 0, 130); stroke-opacity: 1; stroke-width: 3px;"/></g><g class="legendsymbols"><g class="legendpoints"/></g></g><rect class="legendtoggle" x="0" y="-9.5" width="77.078125" height="19" style="fill: rgb(0, 0, 0); fill-opacity: 0;"/></g><g class="traces" transform="translate(264.734375,53.5)" style="opacity: 1;"><text class="legendtext" text-anchor="start" x="40" y="4.680000000000001" style="font-family: 'Open Sans', verdana, arial, sans-serif; font-size: 12px; fill: rgb(42, 63, 95); fill-opacity: 1; white-space: pre;">Theta_down</text><g class="layers"><g class="legendfill"><path class="js-fill" d="M5,-2h30v6h-30z" style="stroke-width: 0; fill: rgb(75, 0, 130); fill-opacity: 0.15;"/></g><g class="legendlines"><path class="js-line" d="M5,-2h30" style="fill: none; stroke: rgb(239, 85, 59); stroke-opacity: 1; stroke-width: 0px;"/></g><g class="legendsymbols"><g class="legendpoints"/></g></g><rect class="legendtoggle" x="0" y="-9.5" width="116.875" height="19" style="fill: rgb(0, 0, 0); fill-opacity: 0;"/></g><g class="traces" transform="translate(396.6015625,53.5)" style="opacity: 1;"><text class="legendtext" text-anchor="start" x="40" y="4.680000000000001" style="font-family: 'Open Sans', verdana, arial, sans-serif; font-size: 12px; fill: rgb(42, 63, 95); fill-opacity: 1; white-space: pre;">Theta_up</text><g class="layers"><g class="legendfill"/><g class="legendlines"><path class="js-line" d="M5,0h30" style="fill: none; stroke: rgb(99, 110, 250); stroke-opacity: 1; stroke-width: 0px;"/></g><g class="legendsymbols"><g class="legendpoints"/></g></g><rect class="legendtoggle" x="0" y="-9.5" width="99.7734375" height="19" style="fill: rgb(0, 0, 0); fill-opacity: 0;"/></g></g></g><rect class="scrollbar" rx="20" ry="3" width="0" height="0" style="fill: rgb(128, 139, 164); fill-opacity: 1;" x="0" y="0"/></g><g class="g-gtitle"><text class="gtitle" x="350" y="50" text-anchor="middle" dy="0em" style="opacity: 1; font-family: Arial; font-size: 18px; fill: rgb(0, 0, 0); fill-opacity: 1; white-space: pre;"><tspan class="line" dy="0em" x="350" y="50"><tspan style="font-weight:bold">Figure f006: FEF Band-Specific Omission Dynamics (AAAB)</tspan></tspan><tspan class="line" dy="1.3em" x="350" y="50">​<tspan style="font-size:70%" dy="-0.6em">Relative Power (dB) with ±SEM | 0ms = Omission Onset | 30ms Smoothed</tspan><tspan dy="0.42em">​</tspan></tspan></text></g><g class="g-xtitle"><text class="xtitle" x="370" y="467.200390625" text-anchor="middle" style="opacity: 1; font-family: 'Open Sans', verdana, arial, sans-serif; font-size: 14px; fill: rgb(42, 63, 95); fill-opacity: 1; white-space: pre;">Time from Omission (ms)</text></g><g class="g-ytitle"><text class="ytitle" transform="rotate(-90,29.840234375,260)" x="29.840234375" y="260" text-anchor="middle" style="opacity: 1; font-family: 'Open Sans', verdana, arial, sans-serif; font-size: 14px; fill: rgb(42, 63, 95); fill-opacity: 1; white-space: pre;">Relative Power (dB)</text></g><g class="annotation" data-index="0" style="opacity: 1;"><g class="annotation-text-g" transform="rotate(0,230.01,109.5)"><g class="cursor-pointer" transform="translate(221,100)"><rect class="bg" x="0.5" y="0.5" width="18" height="18" style="stroke-width: 1px; stroke: rgb(0, 0, 0); stroke-opacity: 0; fill: rgb(0, 0, 0); fill-opacity: 0;"/><text class="annotation-text" text-anchor="middle" x="9.43359375" y="14" style="font-family: 'Open Sans', verdana, arial, sans-serif; font-size: 12px; fill: rgb(42, 63, 95); fill-opacity: 1; white-space: pre;">P1</text></g></g></g><g class="annotation" data-index="1" style="opacity: 1;"><g class="annotation-text-g" transform="rotate(0,308,109.5)"><g class="cursor-pointer" transform="translate(298,100)"><rect class="bg" x="0.5" y="0.5" width="20" height="18" style="stroke-width: 1px; stroke: rgb(0, 0, 0); stroke-opacity: 0; fill: rgb(0, 0, 0); fill-opacity: 0;"/><text class="annotation-text" text-anchor="middle" x="10.4375" y="14" style="font-family: 'Open Sans', verdana, arial, sans-serif; font-size: 12px; fill: rgb(42, 63, 95); fill-opacity: 1; white-space: pre;">D1</text></g></g></g><g class="annotation" data-index="2" style="opacity: 1;"><g class="annotation-text-g" transform="rotate(0,379.5,109.5)"><g class="cursor-pointer" transform="translate(370,100)"><rect class="bg" x="0.5" y="0.5" width="18" height="18" style="stroke-width: 1px; stroke: rgb(0, 0, 0); stroke-opacity: 0; fill: rgb(0, 0, 0); fill-opacity: 0;"/><text class="annotation-text" text-anchor="middle" x="9.43359375" y="14" style="font-family: 'Open Sans', verdana, arial, sans-serif; font-size: 12px; fill: rgb(42, 63, 95); fill-opacity: 1; white-space: pre;">P2</text></g></g></g><g class="annotation" data-index="3" style="opacity: 1;"><g class="annotation-text-g" transform="rotate(0,457.5,109.5)"><g class="cursor-pointer" transform="translate(447,100)"><rect class="bg" x="0.5" y="0.5" width="20" height="18" style="stroke-width: 1px; stroke: rgb(0, 0, 0); stroke-opacity: 0; fill: rgb(0, 0, 0); fill-opacity: 0;"/><text class="annotation-text" text-anchor="middle" x="10.4375" y="14" style="font-family: 'Open Sans', verdana, arial, sans-serif; font-size: 12px; fill: rgb(42, 63, 95); fill-opacity: 1; white-space: pre;">D2</text></g></g></g><g class="annotation" data-index="4" style="opacity: 1;"><g class="annotation-text-g" transform="rotate(0,529,109.5)"><g class="cursor-pointer" transform="translate(520,100)"><rect class="bg" x="0.5" y="0.5" width="18" height="18" style="stroke-width: 1px; stroke: rgb(0, 0, 0); stroke-opacity: 0; fill: rgb(0, 0, 0); fill-opacity: 0;"/><text class="annotation-text" text-anchor="middle" x="9.43359375" y="14" style="font-family: 'Open Sans', verdana, arial, sans-serif; font-size: 12px; fill: rgb(42, 63, 95); fill-opacity: 1; white-space: pre;">P3</text></g></g></g><g class="annotation" data-index="5" style="opacity: 1;"><g class="annotation-text-g" transform="rotate(0,606.99,109.5)"><g class="cursor-pointer" transform="translate(596,100)"><rect class="bg" x="0.5" y="0.5" width="20" height="18" style="stroke-width: 1px; stroke: rgb(0, 0, 0); stroke-opacity: 0; fill: rgb(0, 0, 0); fill-opacity: 0;"/><text class="annotation-text" text-anchor="middle" x="10.4375" y="14" style="font-family: 'Open Sans', verdana, arial, sans-serif; font-size: 12px; fill: rgb(42, 63, 95); fill-opacity: 1; white-space: pre;">D3</text></g></g></g><g class="annotation" data-index="6" style="opacity: 1;"><g class="annotation-text-g" transform="rotate(0,419,109.5)"><g class="cursor-pointer" transform="translate(370,100)"><rect class="bg" x="0.5" y="0.5" width="97" height="18" style="stroke-width: 1px; stroke: rgb(0, 0, 0); stroke-opacity: 0; fill: rgb(0, 0, 0); fill-opacity: 0;"/><text class="annotation-text" text-anchor="middle" x="49.171875" y="14" style="font-family: 'Open Sans', verdana, arial, sans-serif; font-size: 12px; fill: rgb(42, 63, 95); fill-opacity: 1; white-space: pre;">OMISSION (P2)</text></g></g></g></g></svg>