<svg class="main-svg" xmlns="http://www.w3.org/2000/svg" xmlns:xlink="http://www.w3.org/1999/xlink" width="700" height="500" style="" viewBox="0 0 700 500"><rect x="0" y="0" width="700" height="500" style="fill: rgb(255, 255, 255); fill-opacity: 1;"/><defs id="defs-5a04b0"><g class="clips"><clipPath id="clip5a04b0xyplot" class="plotclip"><rect width="580" height="320"/></clipPath><clipPath class="axesclip" id="clip5a04b0x"><rect x="80" y="0" width="580" height="500"/></clipPath><clipPath class="axesclip" id="clip5a04b0y"><rect x="0" y="100" width="700" height="320"/></clipPath><clipPath class="axesclip" id="clip5a04b0xy"><rect x="80" y="100" width="580" height="320"/></clipPath></g><g class="gradients"/><g class="patterns"/></defs><g class="bglayer"/><g class="layer-below"><g class="imagelayer"/><g class="shapelayer"/></g><g class="cartesianlayer"><g class="subplot xy"><g class="layer-subplot"><g class="shapelayer"/><g class="imagelayer"/></g><g class="minor-gridlayer"><g class="x"/><g class="y"/></g><g class="gridlayer"><g class="x"><path class="xgrid crisp" transform="translate(152.5,0)" d="M0,100v320" style="stroke: rgb(211, 211, 211); stroke-opacity: 1; stroke-width: 1px;"/><path class="xgrid crisp" transform="translate(225,0)" d="M0,100v320" style="stroke: rgb(211, 211, 211); stroke-opacity: 1; stroke-width: 1px;"/><path class="xgrid crisp" transform="translate(297.5,0)" d="M0,100v320" style="stroke: rgb(211, 211, 211); stroke-opacity: 1; stroke-width: 1px;"/><path class="xgrid crisp" transform="translate(442.5,0)" d="M0,100v320" style="stroke: rgb(211, 211, 211); stroke-opacity: 1; stroke-width: 1px;"/><path class="xgrid crisp" transform="translate(515,0)" d="M0,100v320" style="stroke: rgb(211, 211, 211); stroke-opacity: 1; stroke-width: 1px;"/><path class="xgrid crisp" transform="translate(587.5,0)" d="M0,100v320" style="stroke: rgb(211, 211, 211); stroke-opacity: 1; stroke-width: 1px;"/></g><g class="y"><path class="ygrid crisp" transform="translate(0,340.99)" d="M80,0h580" style="stroke: rgb(211, 211, 211); stroke-opacity: 1; stroke-width: 1px;"/><path class="ygrid crisp" transform="translate(0,273.78)" d="M80,0h580" style="stroke: rgb(211, 211, 211); stroke-opacity: 1; stroke-width: 1px;"/><path class="ygrid crisp" transform="translate(0,206.57)" d="M80,0h580" style="stroke: rgb(211, 211, 211); stroke-opacity: 1; stroke-width: 1px;"/><path class="ygrid crisp" transform="translate(0,139.36)" d="M80,0h580" style="stroke: rgb(211, 211, 211); stroke-opacity: 1; stroke-width: 1px;"/></g></g><g class="zerolinelayer"><path class="xzl zl crisp" transform="translate(370,0)" d="M0,100v320" style="stroke: rgb(235, 240, 248); stroke-opacity: 1; stroke-width: 2px;"/><path class="yzl zl crisp" transform="translate(0,408.2)" d="M80,0h580" style="stroke: rgb(235, 240, 248); stroke-opacity: 1; stroke-width: 2px;"/></g><g class="layer-between"><g class="shapelayer"/><g class="imagelayer"/></g><path class="xlines-below"/><path class="ylines-below"/><g class="overlines-below"/><g class="xaxislayer-below"/><g class="yaxislayer-below"/><g class="overaxes-below"/><g class="overplot"><g class="xy" transform="translate(80,100)" clip-path="url(#clip5a04b0xyplot)"><g class="scatterlayer mlayer"><g class="trace scatter traceffe455" style="stroke-miterlimit: 2;"><g class="fills"><g><path class="js-fill" d="M0,148.66L2.18,147.83L2.32,147.72L4.93,144.91L5.08,144.72L22.77,120.04L22.92,119.87L54.39,80.63L54.53,80.49L61.5,74.54L61.64,74.44L71.79,69.18L71.94,69.11L80.79,63.27L80.93,63.15L87.02,57.35L87.17,57.18L93.55,48.3L93.69,48.07L104.28,32.99L104.43,32.84L108.2,29.63L108.34,29.54L111.68,28.39L111.82,28.38L115.01,29.08L115.16,29.15L118.78,31.77L118.93,31.9L130.82,42.83L130.97,42.92L135.03,44.69L135.17,44.72L139.96,45.25L140.11,45.25L147.94,44.23L148.08,44.21L154.46,44.07L154.61,44.09L166.21,45.76L166.36,45.73L170.71,44.25L170.85,44.17L175.49,41.21L175.64,41.1L187.1,32.86L187.24,32.81L190.72,32.44L190.87,32.46L194.93,33.74L195.07,33.81L201.46,37.58L201.6,37.69L211.32,43.57L211.46,43.6L214.94,43.58L215.09,43.56L222.05,41.36L222.2,41.31L232.2,38.2L232.35,38.2L240.76,37.46L240.91,37.39L245.55,34.27L245.69,34.15L258.74,24.54L258.89,24.47L263.1,23.45L263.24,23.45L267.16,23.93L267.3,23.97L272.23,25.71L272.38,25.78L290.65,34.73L290.8,34.77L295,35.33L295.15,35.32L304.87,35.03L305.01,35.08L310.52,37.7L310.67,37.77L314.73,39.27L314.87,39.3L318.64,39.08L318.79,39.04L323.72,36.91L323.87,36.83L331.7,31.51L331.84,31.41L337.06,28.5L337.21,28.46L340.69,28.39L340.84,28.42L344.61,30.07L344.75,30.17L349.1,33.65L349.25,33.79L362.45,46.36L362.59,46.44L367.38,48.15L367.52,48.18L372.31,48.39L372.45,48.37L377.53,47.31L377.67,47.27L383.62,46.43L383.77,46.42L388.7,45.51L388.84,45.45L392.18,43.35L392.32,43.23L396.82,39.01L396.96,38.86L406.97,29.83L407.12,29.74L411.32,28.18L411.47,28.16L415.53,28.34L415.67,28.37L420.03,29.7L420.17,29.76L425.54,32.69L425.68,32.78L441.93,41.8L442.07,41.85L446.42,42.26L446.57,42.24L454.11,42.15L454.25,42.19L458.89,44.2L459.04,44.27L464.26,46.44L464.41,46.46L468.03,46.22L468.18,46.18L472.82,44L472.96,43.91L484.71,38.17L484.86,38.15L488.34,38.3L488.48,38.33L491.96,40L492.11,40.1L496.31,43.97L496.46,44.13L501.83,51.76L501.97,52L517.34,75.97L517.49,76.15L532.43,96.02L532.57,96.26L556.65,134.02L556.79,134.21L570.72,153.98L570.86,154.22L578.26,165.41L578.4,165.52L580,166.1L580,160.89L578.26,160.19L578.11,160.08L572.31,151.33L572.17,151.07L555.49,126.43L555.34,126.22L539.24,100.81L539.1,100.56L530.25,85.63L530.11,85.41L520.39,72.59L520.25,72.42L514.01,64.39L513.86,64.19L502.7,45.78L502.55,45.53L498.05,38.63L497.91,38.43L492.98,33.27L492.83,33.16L488.92,31.03L488.77,30.99L484.71,30.82L484.57,30.85L471.37,37.74L471.22,37.82L467.74,39.24L467.6,39.28L464.55,39.4L464.41,39.38L458.46,36.79L458.31,36.72L453.82,34.87L453.67,34.83L447.58,34.93L447.44,34.95L443.09,34.94L442.94,34.91L422.35,23.73L422.2,23.66L416.69,21.58L416.54,21.55L411.61,21.15L411.47,21.17L407.41,22.63L407.26,22.72L393.34,35.59L393.19,35.71L389.28,38.46L389.13,38.53L384.2,39.56L384.06,39.56L376.37,40.68L376.22,40.72L371.58,41.44L371.44,41.45L366.65,40.9L366.51,40.87L362.16,38.96L362.01,38.87L356.21,33.69L356.06,33.53L349.68,26.56L349.54,26.41L344.32,22.17L344.17,22.09L340.69,20.65L340.55,20.62L337.35,20.72L337.21,20.76L331.26,24.25L331.12,24.36L323.87,29.34L323.72,29.43L318.79,31.55L318.64,31.58L315.02,31.79L314.87,31.77L309.8,29.72L309.65,29.64L304.58,27.3L304.43,27.26L300.23,26.98L300.08,27L293.99,27.74L293.84,27.73L285.72,25.28L285.58,25.22L274.84,19.59L274.7,19.51L269.48,17.14L269.33,17.09L264.26,16.02L264.11,16.01L260.34,16.53L260.2,16.58L244.24,28.29L244.1,28.4L240.18,30.73L240.04,30.79L232.93,31.22L232.78,31.22L218.42,35.67L218.28,35.71L214.07,36.72L213.93,36.73L210.01,36.15L209.87,36.09L201.46,30.4L201.31,30.3L195.07,26.57L194.93,26.5L191.01,25.23L190.87,25.21L187.39,25.54L187.24,25.59L177.52,32.63L177.38,32.75L171.29,37.06L171.14,37.14L166.5,38.83L166.36,38.86L154.61,37.15L154.46,37.13L146.34,37.53L146.2,37.56L139.38,38.29L139.23,38.28L134.88,37.6L134.74,37.56L130.68,35.58L130.53,35.49L120.24,25.49L120.09,25.34L115.88,21.65L115.74,21.56L112.55,20.37L112.4,20.36L109.36,20.91L109.21,20.97L105.3,23.82L105.15,23.97L96.59,35.4L96.45,35.63L90.5,44.78L90.36,44.99L85.86,50.53L85.72,50.68L79.04,56.48L78.9,56.59L65.27,63.98L65.12,64.05L59.03,67.89L58.88,68.01L52.36,74.37L52.21,74.54L36.55,94.57L36.4,94.77L20.16,115.42L20.02,115.6L10.73,128.51L10.59,128.74L5.22,137.13L5.08,137.33L2.32,140.43L2.18,140.54L0,141.4Z" style="fill: rgb(75, 0, 130); fill-opacity: 0.15; stroke-width: 0;"/></g></g><g class="errorbars"/><g class="lines"><path class="js-line" d="M0,141.4L2.18,140.54L2.32,140.43L5.08,137.33L5.22,137.13L10.59,128.74L10.73,128.51L20.02,115.6L20.16,115.42L36.4,94.77L36.55,94.57L52.21,74.54L52.36,74.37L58.88,68.01L59.03,67.89L65.12,64.05L65.27,63.98L78.9,56.59L79.04,56.48L85.72,50.68L85.86,50.53L90.36,44.99L90.5,44.78L96.45,35.63L96.59,35.4L105.15,23.97L105.3,23.82L109.21,20.97L109.36,20.91L112.4,20.36L112.55,20.37L115.74,21.56L115.88,21.65L120.09,25.34L120.24,25.49L130.53,35.49L130.68,35.58L134.74,37.56L134.88,37.6L139.23,38.28L139.38,38.29L146.2,37.56L146.34,37.53L154.46,37.13L154.61,37.15L166.36,38.86L166.5,38.83L171.14,37.14L171.29,37.06L177.38,32.75L177.52,32.63L187.24,25.59L187.39,25.54L190.87,25.21L191.01,25.23L194.93,26.5L195.07,26.57L201.31,30.3L201.46,30.4L209.87,36.09L210.01,36.15L213.93,36.73L214.07,36.72L218.28,35.71L218.42,35.67L232.78,31.22L232.93,31.22L240.04,30.79L240.18,30.73L244.1,28.4L244.24,28.29L260.2,16.58L260.34,16.53L264.11,16.01L264.26,16.02L269.33,17.09L269.48,17.14L274.7,19.51L274.84,19.59L285.58,25.22L285.72,25.28L293.84,27.73L293.99,27.74L300.08,27L300.23,26.98L304.43,27.26L304.58,27.3L309.65,29.64L309.8,29.72L314.87,31.77L315.02,31.79L318.64,31.58L318.79,31.55L323.72,29.43L323.87,29.34L331.12,24.36L331.26,24.25L337.21,20.76L337.35,20.72L340.55,20.62L340.69,20.65L344.17,22.09L344.32,22.17L349.54,26.41L349.68,26.56L356.06,33.53L356.21,33.69L362.01,38.87L362.16,38.96L366.51,40.87L366.65,40.9L371.44,41.45L371.58,41.44L376.22,40.72L376.37,40.68L384.06,39.56L384.2,39.56L389.13,38.53L389.28,38.46L393.19,35.71L393.34,35.59L407.26,22.72L407.41,22.63L411.47,21.17L411.61,21.15L416.54,21.55L416.69,21.58L422.2,23.66L422.35,23.73L442.94,34.91L443.09,34.94L447.44,34.95L447.58,34.93L453.67,34.83L453.82,34.87L458.31,36.72L458.46,36.79L464.41,39.38L464.55,39.4L467.6,39.28L467.74,39.24L471.22,37.82L471.37,37.74L484.57,30.85L484.71,30.82L488.77,30.99L488.92,31.03L492.83,33.16L492.98,33.27L497.91,38.43L498.05,38.63L502.55,45.53L502.7,45.78L513.86,64.19L514.01,64.39L520.25,72.42L520.39,72.59L530.11,85.41L530.25,85.63L539.1,100.56L539.24,100.81L555.34,126.22L555.49,126.43L572.17,151.07L572.31,151.33L578.11,160.08L578.26,160.19L580,160.89" style="vector-effect: none; fill: none; stroke: rgb(99, 110, 250); stroke-opacity: 1; stroke-width: 0px; opacity: 1;"/></g><g class="points"/><g class="text"/></g><g class="trace scatter traceb79a42" style="stroke-miterlimit: 2;"><g class="fills"/><g class="errorbars"/><g class="lines"><path class="js-line" d="M0,148.66L2.18,147.83L2.32,147.72L4.93,144.91L5.08,144.72L22.77,120.04L22.92,119.87L54.39,80.63L54.53,80.49L61.5,74.54L61.64,74.44L71.79,69.18L71.94,69.11L80.79,63.27L80.93,63.15L87.02,57.35L87.17,57.18L93.55,48.3L93.69,48.07L104.28,32.99L104.43,32.84L108.2,29.63L108.34,29.54L111.68,28.39L111.82,28.38L115.01,29.08L115.16,29.15L118.78,31.77L118.93,31.9L130.82,42.83L130.97,42.92L135.03,44.69L135.17,44.72L139.96,45.25L140.11,45.25L147.94,44.23L148.08,44.21L154.46,44.07L154.61,44.09L166.21,45.76L166.36,45.73L170.71,44.25L170.85,44.17L175.49,41.21L175.64,41.1L187.1,32.86L187.24,32.81L190.72,32.44L190.87,32.46L194.93,33.74L195.07,33.81L201.46,37.58L201.6,37.69L211.32,43.57L211.46,43.6L214.94,43.58L215.09,43.56L222.05,41.36L222.2,41.31L232.2,38.2L232.35,38.2L240.76,37.46L240.91,37.39L245.55,34.27L245.69,34.15L258.74,24.54L258.89,24.47L263.1,23.45L263.24,23.45L267.16,23.93L267.3,23.97L272.23,25.71L272.38,25.78L290.65,34.73L290.8,34.77L295,35.33L295.15,35.32L304.87,35.03L305.01,35.08L310.52,37.7L310.67,37.77L314.73,39.27L314.87,39.3L318.64,39.08L318.79,39.04L323.72,36.91L323.87,36.83L331.7,31.51L331.84,31.41L337.06,28.5L337.21,28.46L340.69,28.39L340.84,28.42L344.61,30.07L344.75,30.17L349.1,33.65L349.25,33.79L362.45,46.36L362.59,46.44L367.38,48.15L367.52,48.18L372.31,48.39L372.45,48.37L377.53,47.31L377.67,47.27L383.62,46.43L383.77,46.42L388.7,45.51L388.84,45.45L392.18,43.35L392.32,43.23L396.82,39.01L396.96,38.86L406.97,29.83L407.12,29.74L411.32,28.18L411.47,28.16L415.53,28.34L415.67,28.37L420.03,29.7L420.17,29.76L425.54,32.69L425.68,32.78L441.93,41.8L442.07,41.85L446.42,42.26L446.57,42.24L454.11,42.15L454.25,42.19L458.89,44.2L459.04,44.27L464.26,46.44L464.41,46.46L468.03,46.22L468.18,46.18L472.82,44L472.96,43.91L484.71,38.17L484.86,38.15L488.34,38.3L488.48,38.33L491.96,40L492.11,40.1L496.31,43.97L496.46,44.13L501.83,51.76L501.97,52L517.34,75.97L517.49,76.15L532.43,96.02L532.57,96.26L556.65,134.02L556.79,134.21L570.72,153.98L570.86,154.22L578.26,165.41L578.4,165.52L580,166.1" style="vector-effect: none; fill: none; stroke: rgb(239, 85, 59); stroke-opacity: 1; stroke-width: 0px; opacity: 1;"/></g><g class="points"/><g class="text"/></g><g class="trace scatter tracec18e7e" style="stroke-miterlimit: 2; opacity: 1;"><g class="fills"/><g class="errorbars"/><g class="lines"><path class="js-line" d="M0,145.03L2.18,144.18L2.32,144.07L4.79,141.42L4.93,141.22L9.57,134.14L9.72,133.91L17.11,123.17L17.26,122.98L54.53,76.26L54.68,76.11L61.5,70.32L61.64,70.23L68.02,66.85L68.17,66.79L78.75,60.77L78.9,60.66L86.88,53.47L87.02,53.3L91.37,47.57L91.52,47.35L104.86,28.32L105.01,28.17L109.21,25.02L109.36,24.96L112.55,24.38L112.69,24.4L115.3,25.26L115.45,25.34L119.22,28.31L119.36,28.45L131.98,39.93L132.13,40L136.04,41.42L136.19,41.45L141.7,41.67L141.85,41.66L155.04,40.69L155.19,40.72L166.36,42.29L166.5,42.27L171.14,40.58L171.29,40.5L176.07,37.29L176.22,37.18L186.08,29.68L186.23,29.61L189.56,28.77L189.71,28.77L193.48,29.51L193.62,29.57L198.12,31.82L198.26,31.91L203.78,35.69L203.92,35.8L210.74,39.91L210.88,39.96L215.09,40.07L215.23,40.04L221.91,37.94L222.05,37.88L232.78,34.71L232.93,34.71L240.33,34.16L240.47,34.1L244.24,31.79L244.39,31.68L259.32,20.6L259.47,20.54L263.24,19.73L263.39,19.72L268.17,20.47L268.32,20.51L273.83,22.77L273.97,22.85L288.77,30.28L288.91,30.33L293.84,31.53L293.99,31.53L299.06,30.96L299.21,30.93L304,30.98L304.14,31.01L308.93,33.05L309.07,33.12L315.16,35.57L315.31,35.59L318.93,35.25L319.08,35.21L324.3,32.84L324.45,32.76L337.93,24.45L338.08,24.43L341.42,24.71L341.56,24.75L345.62,26.89L345.77,26.99L352,32.81L352.15,32.97L360.56,41.46L360.71,41.57L364.91,43.93L365.06,43.98L370.13,44.94L370.28,44.95L376.08,44.22L376.22,44.18L390.44,41.21L390.58,41.12L394.5,37.9L394.64,37.76L407.99,25.79L408.13,25.71L412.19,24.59L412.34,24.58L416.98,25.16L417.12,25.2L422.64,27.42L422.78,27.49L443.81,38.64L443.96,38.66L448.6,38.4L448.74,38.38L453.67,38.44L453.82,38.47L458.31,40.3L458.46,40.38L464.41,42.92L464.55,42.94L468.03,42.7L468.18,42.65L472.82,40.46L472.96,40.37L485,34.45L485.15,34.43L488.63,34.66L488.77,34.7L492.69,36.79L492.83,36.9L496.6,40.56L496.75,40.73L501.83,48.03L501.97,48.27L516.18,70.92L516.33,71.11L532.14,92.1L532.28,92.34L557.66,132.43L557.81,132.63L572.46,154.3L572.6,154.56L578.11,162.69L578.26,162.8L580,163.49" style="vector-effect: none; fill: none; stroke: rgb(75, 0, 130); stroke-opacity: 1; stroke-width: 3px; opacity: 1;"/></g><g class="points"/><g class="text"/></g><g class="trace scatter traced371de" style="stroke-miterlimit: 2;"><g class="fills"><g><path class="js-fill" d="M0,232.3L2.03,231.49L2.18,231.38L4.93,228.11L5.08,227.89L10.88,217.39L11.02,217.11L35.53,171.84L35.68,171.65L40.03,166.97L40.18,166.85L45.11,163.59L45.25,163.52L56.27,158.49L56.42,158.42L63.96,155.47L64.11,155.44L68.31,155.31L68.46,155.34L72.81,156.81L72.95,156.88L78.32,160.21L78.46,160.3L89.63,166.93L89.78,166.99L95.29,168.56L95.43,168.58L100.22,168.47L100.37,168.44L105.44,166.66L105.59,166.58L109.79,163.68L109.94,163.56L118.06,157.57L118.2,157.51L121.4,157.18L121.54,157.21L125.02,158.64L125.17,158.72L134.16,163.68L134.3,163.72L138.07,163.97L138.22,163.95L142.14,162.66L142.28,162.59L147.79,159.2L147.94,159.11L154.17,155.99L154.32,155.95L164.62,152.07L164.76,151.96L168.82,147.81L168.97,147.63L175.64,137.85L175.78,137.61L186.66,120.96L186.81,120.83L190.14,118.96L190.29,118.92L193.77,118.82L193.91,118.84L199.28,120.29L199.42,120.34L204.5,122.81L204.65,122.9L214.94,128.76L215.09,128.8L219,128.98L219.15,128.96L224.95,127L225.1,126.95L229.88,125.7L230.03,125.69L235.1,126.08L235.25,126.1L242.36,126.81L242.5,126.79L246.42,125.52L246.56,125.44L252.94,121.64L253.09,121.56L257.58,120.11L257.73,120.09L261.94,120.55L262.08,120.6L267.01,122.68L267.16,122.75L273.83,126.89L273.97,127L283.69,133.46L283.84,133.5L288.19,134.07L288.33,134.07L295,133.34L295.15,133.31L303.13,132.39L303.27,132.41L307.48,133.71L307.62,133.77L313.86,135.49L314,135.48L317.19,134.54L317.34,134.46L321.4,131.02L321.55,130.86L326.48,123.74L326.62,123.49L338.08,103.64L338.22,103.51L340.84,102.14L340.98,102.12L343.45,102.51L343.59,102.58L346.64,104.83L346.78,104.97L350.99,109.88L351.13,110.06L361.58,122.41L361.72,122.52L365.2,124.2L365.35,124.23L368.97,124.13L369.12,124.1L379.12,122.12L379.27,122.13L384.2,123.54L384.35,123.59L389.42,124.98L389.57,124.99L393.34,124.65L393.48,124.61L397.98,122.64L398.12,122.57L402.62,120.98L402.77,120.96L406.1,121.45L406.25,121.51L409.58,123.73L409.73,123.86L416.11,130.79L416.25,130.95L430.03,144.63L430.18,144.73L434.38,147.11L434.53,147.17L440.04,148.28L440.19,148.29L447.44,148.07L447.58,148.05L455.7,147.68L455.85,147.69L463.54,148.03L463.68,148L467.16,146.33L467.31,146.22L471.08,142.66L471.22,142.49L475.57,136.43L475.72,136.19L488.19,114.92L488.34,114.79L490.95,113.34L491.09,113.31L493.56,113.53L493.7,113.59L496.46,115.27L496.6,115.39L501.25,120.06L501.39,120.22L512.27,131.28L512.41,131.37L516.33,132.4L516.47,132.4L520.54,131.42L520.68,131.36L528.08,129.14L528.22,129.13L532.14,129.86L532.28,129.92L536.63,132.44L536.78,132.54L546.06,140.72L546.21,140.88L551.72,148.7L551.86,148.96L555.92,157.47L556.07,157.82L562.31,175.32L562.45,175.77L575.94,216.14L576.08,216.41L578.84,220.01L578.98,220.1L580,220.41L580,216.65L578.84,216.23L578.69,216.13L575.5,211.36L575.36,211.04L562.31,170.41L562.16,169.94L557.08,155.05L556.94,154.67L552.01,143.65L551.86,143.38L547.22,136.32L547.08,136.15L538.81,128.14L538.66,128.02L533.44,124.39L533.3,124.32L529.67,123.11L529.53,123.09L518.07,126.26L517.92,126.29L514.44,126.31L514.3,126.27L510.82,124.47L510.67,124.36L502.12,115.12L501.97,114.95L497.04,109.77L496.89,109.64L493.99,107.73L493.85,107.67L491.38,107.32L491.24,107.34L488.19,109.06L488.05,109.2L477.6,127.39L477.46,127.65L472.67,135.23L472.53,135.42L467.89,140.33L467.74,140.44L464.55,142.26L464.41,142.31L454.83,142.04L454.69,142.02L447.15,142.57L447,142.59L438.44,142.72L438.3,142.7L433.66,141.5L433.51,141.44L427.71,137.34L427.57,137.2L410.89,119.24L410.74,119.09L406.97,116L406.83,115.92L403.64,115L403.49,114.99L395.37,117.91L395.22,117.98L391.02,119.01L390.87,119.01L382.61,116.86L382.46,116.8L378.25,115.93L378.11,115.92L373.03,116.84L372.89,116.89L367.81,118.31L367.67,118.33L364.62,118.06L364.48,118.02L360.85,115.84L360.71,115.72L350.99,103.76L350.84,103.57L346.2,98.22L346.06,98.09L343.3,96.23L343.16,96.17L340.69,95.94L340.55,95.98L337.79,97.7L337.64,97.85L332.42,106.06L332.28,106.35L325.9,118.74L325.75,118.99L320.97,125.53L320.82,125.68L317.34,128.48L317.19,128.56L314.15,129.47L314,129.48L308.78,128.16L308.64,128.09L303.42,126.25L303.27,126.23L293.12,127.65L292.97,127.67L287.03,128.21L286.88,128.21L283.11,127.48L282.97,127.43L275.71,122.57L275.57,122.45L267.16,116.86L267.01,116.79L261.36,114.48L261.21,114.44L257,114.28L256.86,114.31L247,119.36L246.85,119.44L242.94,120.86L242.79,120.88L238,120.67L237.86,120.65L231.48,119.68L231.33,119.68L222.34,122.21L222.2,122.27L218.13,123.29L217.99,123.3L213.93,122.67L213.78,122.61L206.97,118.65L206.82,118.55L200.3,114.98L200.15,114.92L194.06,113.12L193.91,113.09L190.43,113.07L190.29,113.1L186.95,114.85L186.81,114.98L172.74,137.01L172.59,137.23L167.66,143.92L167.52,144.09L163.89,147.39L163.75,147.49L156.49,150.15L156.35,150.19L142.86,157.33L142.72,157.41L138.51,159L138.36,159.02L134.45,158.81L134.3,158.77L127.05,154.75L126.91,154.65L122.7,152.2L122.56,152.15L119.36,151.83L119.22,151.86L107.04,160.49L106.89,160.58L101.82,162.91L101.67,162.95L97.17,163.52L97.03,163.52L90.21,161.95L90.07,161.89L77.01,153.87L76.87,153.77L71.65,150.73L71.5,150.66L67.59,149.65L67.44,149.63L62.95,150.13L62.8,150.18L46.27,157.61L46.12,157.68L39.88,161.78L39.74,161.91L35.39,166.85L35.24,167.05L9.57,216.01L9.43,216.3L4.93,224.53L4.79,224.75L2.18,227.93L2.03,228.05L0,228.9Z" style="fill: rgb(0, 0, 255); fill-opacity: 0.15; stroke-width: 0;"/></g></g><g class="errorbars"/><g class="lines"><path class="js-line" d="M0,228.9L2.03,228.05L2.18,227.93L4.79,224.75L4.93,224.53L9.43,216.3L9.57,216.01L35.24,167.05L35.39,166.85L39.74,161.91L39.88,161.78L46.12,157.68L46.27,157.61L62.8,150.18L62.95,150.13L67.44,149.63L67.59,149.65L71.5,150.66L71.65,150.73L76.87,153.77L77.01,153.87L90.07,161.89L90.21,161.95L97.03,163.52L97.17,163.52L101.67,162.95L101.82,162.91L106.89,160.58L107.04,160.49L119.22,151.86L119.36,151.83L122.56,152.15L122.7,152.2L126.91,154.65L127.05,154.75L134.3,158.77L134.45,158.81L138.36,159.02L138.51,159L142.72,157.41L142.86,157.33L156.35,150.19L156.49,150.15L163.75,147.49L163.89,147.39L167.52,144.09L167.66,143.92L172.59,137.23L172.74,137.01L186.81,114.98L186.95,114.85L190.29,113.1L190.43,113.07L193.91,113.09L194.06,113.12L200.15,114.92L200.3,114.98L206.82,118.55L206.97,118.65L213.78,122.61L213.93,122.67L217.99,123.3L218.13,123.29L222.2,122.27L222.34,122.21L231.33,119.68L231.48,119.68L237.86,120.65L238,120.67L242.79,120.88L242.94,120.86L246.85,119.44L247,119.36L256.86,114.31L257,114.28L261.21,114.44L261.36,114.48L267.01,116.79L267.16,116.86L275.57,122.45L275.71,122.57L282.97,127.43L283.11,127.48L286.88,128.21L287.03,128.21L292.97,127.67L293.12,127.65L303.27,126.23L303.42,126.25L308.64,128.09L308.78,128.16L314,129.48L314.15,129.47L317.19,128.56L317.34,128.48L320.82,125.68L320.97,125.53L325.75,118.99L325.9,118.74L332.28,106.35L332.42,106.06L337.64,97.85L337.79,97.7L340.55,95.98L340.69,95.94L343.16,96.17L343.3,96.23L346.06,98.09L346.2,98.22L350.84,103.57L350.99,103.76L360.71,115.72L360.85,115.84L364.48,118.02L364.62,118.06L367.67,118.33L367.81,118.31L372.89,116.89L373.03,116.84L378.11,115.92L378.25,115.93L382.46,116.8L382.61,116.86L390.87,119.01L391.02,119.01L395.22,117.98L395.37,117.91L403.49,114.99L403.64,115L406.83,115.92L406.97,116L410.74,119.09L410.89,119.24L427.57,137.2L427.71,137.34L433.51,141.44L433.66,141.5L438.3,142.7L438.44,142.72L447,142.59L447.15,142.57L454.69,142.02L454.83,142.04L464.41,142.31L464.55,142.26L467.74,140.44L467.89,140.33L472.53,135.42L472.67,135.23L477.46,127.65L477.6,127.39L488.05,109.2L488.19,109.06L491.24,107.34L491.38,107.32L493.85,107.67L493.99,107.73L496.89,109.64L497.04,109.77L501.97,114.95L502.12,115.12L510.67,124.36L510.82,124.47L514.3,126.27L514.44,126.31L517.92,126.29L518.07,126.26L529.53,123.09L529.67,123.11L533.3,124.32L533.44,124.39L538.66,128.02L538.81,128.14L547.08,136.15L547.22,136.32L551.86,143.38L552.01,143.65L556.94,154.67L557.08,155.05L562.16,169.94L562.31,170.41L575.36,211.04L575.5,211.36L578.69,216.13L578.84,216.23L580,216.65" style="vector-effect: none; fill: none; stroke: rgb(171, 99, 250); stroke-opacity: 1; stroke-width: 0px; opacity: 1;"/></g><g class="points"/><g class="text"/></g><g class="trace scatter traceba22a2" style="stroke-miterlimit: 2;"><g class="fills"/><g class="errorbars"/><g class="lines"><path class="js-line" d="M0,232.3L2.03,231.49L2.18,231.38L4.93,228.11L5.08,227.89L10.88,217.39L11.02,217.11L35.53,171.84L35.68,171.65L40.03,166.97L40.18,166.85L45.11,163.59L45.25,163.52L56.27,158.49L56.42,158.42L63.96,155.47L64.11,155.44L68.31,155.31L68.46,155.34L72.81,156.81L72.95,156.88L78.32,160.21L78.46,160.3L89.63,166.93L89.78,166.99L95.29,168.56L95.43,168.58L100.22,168.47L100.37,168.44L105.44,166.66L105.59,166.58L109.79,163.68L109.94,163.56L118.06,157.57L118.2,157.51L121.4,157.18L121.54,157.21L125.02,158.64L125.17,158.72L134.16,163.68L134.3,163.72L138.07,163.97L138.22,163.95L142.14,162.66L142.28,162.59L147.79,159.2L147.94,159.11L154.17,155.99L154.32,155.95L164.62,152.07L164.76,151.96L168.82,147.81L168.97,147.63L175.64,137.85L175.78,137.61L186.66,120.96L186.81,120.83L190.14,118.96L190.29,118.92L193.77,118.82L193.91,118.84L199.28,120.29L199.42,120.34L204.5,122.81L204.65,122.9L214.94,128.76L215.09,128.8L219,128.98L219.15,128.96L224.95,127L225.1,126.95L229.88,125.7L230.03,125.69L235.1,126.08L235.25,126.1L242.36,126.81L242.5,126.79L246.42,125.52L246.56,125.44L252.94,121.64L253.09,121.56L257.58,120.11L257.73,120.09L261.94,120.55L262.08,120.6L267.01,122.68L267.16,122.75L273.83,126.89L273.97,127L283.69,133.46L283.84,133.5L288.19,134.07L288.33,134.07L295,133.34L295.15,133.31L303.13,132.39L303.27,132.41L307.48,133.71L307.62,133.77L313.86,135.49L314,135.48L317.19,134.54L317.34,134.46L321.4,131.02L321.55,130.86L326.48,123.74L326.62,123.49L338.08,103.64L338.22,103.51L340.84,102.14L340.98,102.12L343.45,102.51L343.59,102.58L346.64,104.83L346.78,104.97L350.99,109.88L351.13,110.06L361.58,122.41L361.72,122.52L365.2,124.2L365.35,124.23L368.97,124.13L369.12,124.1L379.12,122.12L379.27,122.13L384.2,123.54L384.35,123.59L389.42,124.98L389.57,124.99L393.34,124.65L393.48,124.61L397.98,122.64L398.12,122.57L402.62,120.98L402.77,120.96L406.1,121.45L406.25,121.51L409.58,123.73L409.73,123.86L416.11,130.79L416.25,130.95L430.03,144.63L430.18,144.73L434.38,147.11L434.53,147.17L440.04,148.28L440.19,148.29L447.44,148.07L447.58,148.05L455.7,147.68L455.85,147.69L463.54,148.03L463.68,148L467.16,146.33L467.31,146.22L471.08,142.66L471.22,142.49L475.57,136.43L475.72,136.19L488.19,114.92L488.34,114.79L490.95,113.34L491.09,113.31L493.56,113.53L493.7,113.59L496.46,115.27L496.6,115.39L501.25,120.06L501.39,120.22L512.27,131.28L512.41,131.37L516.33,132.4L516.47,132.4L520.54,131.42L520.68,131.36L528.08,129.14L528.22,129.13L532.14,129.86L532.28,129.92L536.63,132.44L536.78,132.54L546.06,140.72L546.21,140.88L551.72,148.7L551.86,148.96L555.92,157.47L556.07,157.82L562.31,175.32L562.45,175.77L575.94,216.14L576.08,216.41L578.84,220.01L578.98,220.1L580,220.41" style="vector-effect: none; fill: none; stroke: rgb(255, 161, 90); stroke-opacity: 1; stroke-width: 0px; opacity: 1;"/></g><g class="points"/><g class="text"/></g><g class="trace scatter trace0be06c" style="stroke-miterlimit: 2; opacity: 1;"><g class="fills"/><g class="errorbars"/><g class="lines"><path class="js-line" d="M0,230.6L2.03,229.77L2.18,229.66L5.22,225.87L5.37,225.63L11.6,213.97L11.75,213.68L26.54,184.74L26.69,184.46L34.08,171.29L34.23,171.08L39.01,165.25L39.16,165.11L43.51,161.79L43.66,161.7L49.31,158.94L49.46,158.88L63.09,152.88L63.24,152.84L67.88,152.47L68.02,152.48L72.23,153.76L72.37,153.83L78.03,157.29L78.17,157.4L89.92,164.44L90.07,164.5L95.43,165.99L95.58,166L100.08,165.9L100.22,165.87L105.3,164.13L105.44,164.05L110.23,160.69L110.37,160.56L118.64,154.68L118.78,154.64L122.12,154.67L122.27,154.71L126.47,156.94L126.62,157.04L133.29,160.92L133.43,160.98L137.49,161.57L137.64,161.56L141.7,160.4L141.85,160.33L148.81,156.03L148.95,155.94L155.04,153.14L155.19,153.09L163.75,150.09L163.89,149.99L167.52,146.71L167.66,146.55L172.74,139.71L172.88,139.49L179.26,128.83L179.41,128.58L184.92,119.9L185.07,119.72L188.4,116.76L188.55,116.68L191.45,115.83L191.59,115.82L195.51,116.29L195.65,116.33L201.02,118.13L201.17,118.2L206.82,121.43L206.97,121.53L213.78,125.5L213.93,125.56L217.99,126.19L218.13,126.18L222.2,125.18L222.34,125.13L230.32,122.69L230.46,122.68L236.7,123.4L236.84,123.43L242.65,123.84L242.79,123.82L247.14,122.21L247.29,122.12L256.86,117.26L257,117.24L260.49,117.25L260.63,117.28L264.4,118.51L264.55,118.57L273.68,123.87L273.83,123.98L283.11,130.37L283.26,130.42L287.61,131.14L287.75,131.15L297.18,129.82L297.32,129.79L302.26,129.21L302.4,129.22L306.46,130.23L306.61,130.29L314,132.48L314.15,132.47L317.48,131.39L317.63,131.3L321.4,128.04L321.55,127.88L326.48,120.74L326.62,120.49L333.44,107.18L333.58,106.91L338.08,100.53L338.22,100.4L341.13,98.99L341.27,98.97L344.03,99.69L344.17,99.77L347.51,102.62L347.65,102.78L353.31,109.91L353.45,110.1L361,118.96L361.14,119.08L364.91,121.14L365.06,121.17L368.39,121.23L368.54,121.21L379.56,119.11L379.7,119.13L385.94,121.13L386.09,121.18L391.16,122.01L391.31,122L395.22,120.98L395.37,120.91L403.49,117.96L403.64,117.96L406.97,118.93L407.12,119.01L411.32,122.56L411.47,122.72L430.18,142.08L430.32,142.18L434.96,144.66L435.11,144.7L440.48,145.6L440.62,145.61L447.29,145.32L447.44,145.3L455.56,144.89L455.7,144.9L463.68,145.26L463.83,145.22L467.31,143.49L467.45,143.39L471.37,139.59L471.51,139.42L475.43,133.92L475.57,133.68L480.8,123.96L480.94,123.67L487.32,112.89L487.47,112.73L490.37,110.55L490.51,110.5L493.12,110.41L493.27,110.45L496.6,112.39L496.75,112.51L502.12,118.09L502.26,118.26L512.27,128.36L512.41,128.44L515.89,129.45L516.04,129.45L519.81,128.7L519.95,128.64L528.95,126.09L529.09,126.1L532.72,127.07L532.86,127.14L536.63,129.44L536.78,129.54L545.77,137.52L545.92,137.68L550.85,144.4L550.99,144.64L555.2,153.07L555.34,153.41L559.98,165.75L560.13,166.18L566.8,187.56L566.95,188.04L574.2,210.26L574.34,210.62L577.82,217.19L577.97,217.36L580,218.53" style="vector-effect: none; fill: none; stroke: rgb(0, 0, 255); stroke-opacity: 1; stroke-width: 3px; opacity: 1;"/></g><g class="points"/><g class="text"/></g><g class="trace scatter tracedb9a5b" style="stroke-miterlimit: 2;"><g class="fills"><g><path class="js-fill" d="M0,278.34L2.61,277.54L2.76,277.46L6.53,274.16L6.67,274L21.03,259.11L21.18,259.01L26.54,256.07L26.69,256.01L36.69,252.53L36.84,252.48L47.28,250.32L47.43,250.31L60.34,247.86L60.48,247.81L69.04,244.18L69.18,244.11L79.19,240.8L79.33,240.79L85.43,240.71L85.57,240.72L102.25,242.57L102.4,242.6L119.94,245.2L120.09,245.19L126.18,244.05L126.33,244L132.13,241.63L132.27,241.55L137.35,238.01L137.49,237.88L142.28,232.74L142.43,232.55L149.68,221.5L149.82,221.26L160.7,205.65L160.85,205.5L164.76,202.62L164.91,202.55L168.68,201.75L168.82,201.75L173.61,202.76L173.75,202.82L187.24,208.09L187.39,208.16L194.78,211.08L194.93,211.08L197.68,210.49L197.83,210.41L200.59,208.22L200.73,208.06L203.78,203.76L203.92,203.51L213.35,187.94L213.49,187.84L216.1,187L216.25,187.01L219.44,188.09L219.58,188.17L231.04,195.13L231.19,195.24L238,201.52L238.15,201.68L244.82,210.43L244.97,210.65L257.44,228.89L257.58,229.04L261.94,232.39L262.08,232.46L265.71,233.17L265.85,233.16L270.06,232.14L270.2,232.08L279.05,227.75L279.19,227.67L286.74,222.8L286.88,222.69L294.13,215.96L294.28,215.8L310.38,198.49L310.52,198.4L314.15,197.26L314.29,197.25L318.06,197.97L318.21,198.02L324.88,201.67L325.03,201.76L331.99,204.89L332.13,204.94L344.03,208.75L344.17,208.72L346.78,207.62L346.93,207.52L349.97,204.26L350.12,204.05L354.18,196.66L354.32,196.35L362.01,181.69L362.16,181.54L364.77,179.84L364.91,179.8L367.67,179.96L367.81,180L373.18,182.56L373.32,182.64L379.7,187.33L379.85,187.46L388.99,197.59L389.13,197.78L394.93,206.32L395.08,206.56L408.71,229.65L408.86,229.81L412.19,232.74L412.34,232.82L415.67,233.91L415.82,233.92L420.03,233.46L420.17,233.42L427.86,230.62L428,230.55L434.53,226.7L434.67,226.59L439.31,222.64L439.46,222.49L446.13,214.29L446.28,214.09L460.2,195.4L460.35,195.28L463.54,193.53L463.68,193.48L467.16,193.27L467.31,193.29L471.22,194.68L471.37,194.76L477.6,198.7L477.75,198.79L488.05,206.19L488.19,206.31L493.27,209.44L493.41,209.48L496.17,209.32L496.31,209.27L498.78,207.52L498.92,207.37L501.97,203.03L502.12,202.78L512.12,183.82L512.27,183.69L514.73,182.39L514.88,182.37L517.63,182.78L517.78,182.84L524.16,186.04L524.31,186.13L530.11,190.3L530.25,190.42L537.21,197.44L537.36,197.61L542.87,205.01L543.02,205.24L549.98,218.07L550.12,218.37L566.08,248.33L566.22,248.55L576.08,262.37L576.23,262.51L579.13,264.39L579.27,264.43L580,264.52L580,262.72L577.97,262.07L577.82,261.98L573.62,257.49L573.47,257.29L565.79,245.58L565.64,245.35L549.83,214.91L549.69,214.61L542.73,201.8L542.58,201.57L536.49,193.53L536.34,193.36L528.95,186.06L528.8,185.94L522.42,181.69L522.28,181.61L517.05,179.08L516.91,179.04L514.3,178.93L514.15,178.97L511.54,180.88L511.4,181.05L506.9,189.24L506.76,189.56L501.97,199.69L501.83,199.94L498.92,204.05L498.78,204.2L496.31,205.95L496.17,206L493.56,206.15L493.41,206.12L487.9,202.6L487.76,202.47L479.78,196.48L479.63,196.39L472.09,191.52L471.95,191.43L467.89,189.71L467.74,189.68L463.97,189.68L463.83,189.72L460.64,191.32L460.49,191.43L455.12,197.72L454.98,197.93L444.39,213.29L444.25,213.49L439.89,218.87L439.75,219.03L433.22,224.69L433.08,224.79L427.28,228.09L427.13,228.16L419.15,231.02L419.01,231.05L415.24,231.26L415.09,231.24L411.61,229.79L411.47,229.69L407.7,225.78L407.55,225.59L399.43,211.53L399.28,211.25L393.77,201.47L393.63,201.24L384.64,189.23L384.49,189.06L377.82,182.39L377.67,182.27L370.71,177.74L370.57,177.66L366.94,176.21L366.8,176.18L364.04,176.49L363.9,176.56L361.29,178.95L361.14,179.14L354.47,192.52L354.32,192.83L350.55,199.93L350.41,200.15L347.22,203.83L347.07,203.95L344.17,205.26L344.03,205.28L331.99,201.42L331.84,201.37L325.03,198.32L324.88,198.23L318.21,194.57L318.06,194.52L314.44,193.77L314.29,193.77L311.25,194.51L311.1,194.58L300.08,205.84L299.93,206.01L290.22,216.73L290.07,216.87L283.69,221.99L283.55,222.09L271.8,228.78L271.65,228.85L267.3,230.47L267.16,230.5L263.39,230.48L263.24,230.44L259.76,228.63L259.61,228.52L255.41,224.05L255.26,223.87L247.58,212.15L247.43,211.92L240.62,201.95L240.47,201.76L233.22,194.05L233.07,193.92L225.82,188.73L225.68,188.65L218.71,184.57L218.57,184.5L215.67,183.77L215.52,183.78L213.06,184.91L212.91,185.04L205.37,197.71L205.23,197.99L201.46,204.05L201.31,204.23L198.41,206.9L198.26,206.99L195.36,207.83L195.22,207.83L191.3,206.77L191.16,206.7L173.32,199.14L173.17,199.09L168.97,198.22L168.82,198.21L165.05,198.95L164.91,199.01L161.43,201.43L161.28,201.57L143.59,228.05L143.44,228.25L137.64,235.06L137.49,235.19L131.55,239.41L131.4,239.49L124.44,242.1L124.3,242.14L119.07,242.88L118.93,242.89L110.81,241.94L110.66,241.91L98.91,239.59L98.77,239.57L85.72,238.37L85.57,238.36L78.9,238.53L78.75,238.56L60.05,246.02L59.9,246.07L47.72,248.41L47.57,248.43L37.71,250.41L37.56,250.46L26.98,254.19L26.83,254.25L21.47,257.19L21.32,257.29L6.67,272.73L6.53,272.89L2.9,276.18L2.76,276.27L0,277.18Z" style="fill: rgb(148, 0, 211); fill-opacity: 0.15; stroke-width: 0;"/></g></g><g class="errorbars"/><g class="lines"><path class="js-line" d="M0,277.18L2.76,276.27L2.9,276.18L6.53,272.89L6.67,272.73L21.32,257.29L21.47,257.19L26.83,254.25L26.98,254.19L37.56,250.46L37.71,250.41L47.57,248.43L47.72,248.41L59.9,246.07L60.05,246.02L78.75,238.56L78.9,238.53L85.57,238.36L85.72,238.37L98.77,239.57L98.91,239.59L110.66,241.91L110.81,241.94L118.93,242.89L119.07,242.88L124.3,242.14L124.44,242.1L131.4,239.49L131.55,239.41L137.49,235.19L137.64,235.06L143.44,228.25L143.59,228.05L161.28,201.57L161.43,201.43L164.91,199.01L165.05,198.95L168.82,198.21L168.97,198.22L173.17,199.09L173.32,199.14L191.16,206.7L191.3,206.77L195.22,207.83L195.36,207.83L198.26,206.99L198.41,206.9L201.31,204.23L201.46,204.05L205.23,197.99L205.37,197.71L212.91,185.04L213.06,184.91L215.52,183.78L215.67,183.77L218.57,184.5L218.71,184.57L225.68,188.65L225.82,188.73L233.07,193.92L233.22,194.05L240.47,201.76L240.62,201.95L247.43,211.92L247.58,212.15L255.26,223.87L255.41,224.05L259.61,228.52L259.76,228.63L263.24,230.44L263.39,230.48L267.16,230.5L267.3,230.47L271.65,228.85L271.8,228.78L283.55,222.09L283.69,221.99L290.07,216.87L290.22,216.73L299.93,206.01L300.08,205.84L311.1,194.58L311.25,194.51L314.29,193.77L314.44,193.77L318.06,194.52L318.21,194.57L324.88,198.23L325.03,198.32L331.84,201.37L331.99,201.42L344.03,205.28L344.17,205.26L347.07,203.95L347.22,203.83L350.41,200.15L350.55,199.93L354.32,192.83L354.47,192.52L361.14,179.14L361.29,178.95L363.9,176.56L364.04,176.49L366.8,176.18L366.94,176.21L370.57,177.66L370.71,177.74L377.67,182.27L377.82,182.39L384.49,189.06L384.64,189.23L393.63,201.24L393.77,201.47L399.28,211.25L399.43,211.53L407.55,225.59L407.7,225.78L411.47,229.69L411.61,229.79L415.09,231.24L415.24,231.26L419.01,231.05L419.15,231.02L427.13,228.16L427.28,228.09L433.08,224.79L433.22,224.69L439.75,219.03L439.89,218.87L444.25,213.49L444.39,213.29L454.98,197.93L455.12,197.72L460.49,191.43L460.64,191.32L463.83,189.72L463.97,189.68L467.74,189.68L467.89,189.71L471.95,191.43L472.09,191.52L479.63,196.39L479.78,196.48L487.76,202.47L487.9,202.6L493.41,206.12L493.56,206.15L496.17,206L496.31,205.95L498.78,204.2L498.92,204.05L501.83,199.94L501.97,199.69L506.76,189.56L506.9,189.24L511.4,181.05L511.54,180.88L514.15,178.97L514.3,178.93L516.91,179.04L517.05,179.08L522.28,181.61L522.42,181.69L528.8,185.94L528.95,186.06L536.34,193.36L536.49,193.53L542.58,201.57L542.73,201.8L549.69,214.61L549.83,214.91L565.64,245.35L565.79,245.58L573.47,257.29L573.62,257.49L577.82,261.98L577.97,262.07L580,262.72" style="vector-effect: none; fill: none; stroke: rgb(255, 102, 146); stroke-opacity: 1; stroke-width: 0px; opacity: 1;"/></g><g class="points"/><g class="text"/></g><g class="trace scatter trace842d96" style="stroke-miterlimit: 2;"><g class="fills"/><g class="errorbars"/><g class="lines"><path class="js-line" d="M0,278.34L2.61,277.54L2.76,277.46L6.53,274.16L6.67,274L21.03,259.11L21.18,259.01L26.54,256.07L26.69,256.01L36.69,252.53L36.84,252.48L47.28,250.32L47.43,250.31L60.34,247.86L60.48,247.81L69.04,244.18L69.18,244.11L79.19,240.8L79.33,240.79L85.43,240.71L85.57,240.72L102.25,242.57L102.4,242.6L119.94,245.2L120.09,245.19L126.18,244.05L126.33,244L132.13,241.63L132.27,241.55L137.35,238.01L137.49,237.88L142.28,232.74L142.43,232.55L149.68,221.5L149.82,221.26L160.7,205.65L160.85,205.5L164.76,202.62L164.91,202.55L168.68,201.75L168.82,201.75L173.61,202.76L173.75,202.82L187.24,208.09L187.39,208.16L194.78,211.08L194.93,211.08L197.68,210.49L197.83,210.41L200.59,208.22L200.73,208.06L203.78,203.76L203.92,203.51L213.35,187.94L213.49,187.84L216.1,187L216.25,187.01L219.44,188.09L219.58,188.17L231.04,195.13L231.19,195.24L238,201.52L238.15,201.68L244.82,210.43L244.97,210.65L257.44,228.89L257.58,229.04L261.94,232.39L262.08,232.46L265.71,233.17L265.85,233.16L270.06,232.14L270.2,232.08L279.05,227.75L279.19,227.67L286.74,222.8L286.88,222.69L294.13,215.96L294.28,215.8L310.38,198.49L310.52,198.4L314.15,197.26L314.29,197.25L318.06,197.97L318.21,198.02L324.88,201.67L325.03,201.76L331.99,204.89L332.13,204.94L344.03,208.75L344.17,208.72L346.78,207.62L346.93,207.52L349.97,204.26L350.12,204.05L354.18,196.66L354.32,196.35L362.01,181.69L362.16,181.54L364.77,179.84L364.91,179.8L367.67,179.96L367.81,180L373.18,182.56L373.32,182.64L379.7,187.33L379.85,187.46L388.99,197.59L389.13,197.78L394.93,206.32L395.08,206.56L408.71,229.65L408.86,229.81L412.19,232.74L412.34,232.82L415.67,233.91L415.82,233.92L420.03,233.46L420.17,233.42L427.86,230.62L428,230.55L434.53,226.7L434.67,226.59L439.31,222.64L439.46,222.49L446.13,214.29L446.28,214.09L460.2,195.4L460.35,195.28L463.54,193.53L463.68,193.48L467.16,193.27L467.31,193.29L471.22,194.68L471.37,194.76L477.6,198.7L477.75,198.79L488.05,206.19L488.19,206.31L493.27,209.44L493.41,209.48L496.17,209.32L496.31,209.27L498.78,207.52L498.92,207.37L501.97,203.03L502.12,202.78L512.12,183.82L512.27,183.69L514.73,182.39L514.88,182.37L517.63,182.78L517.78,182.84L524.16,186.04L524.31,186.13L530.11,190.3L530.25,190.42L537.21,197.44L537.36,197.61L542.87,205.01L543.02,205.24L549.98,218.07L550.12,218.37L566.08,248.33L566.22,248.55L576.08,262.37L576.23,262.51L579.13,264.39L579.27,264.43L580,264.52" style="vector-effect: none; fill: none; stroke: rgb(182, 232, 128); stroke-opacity: 1; stroke-width: 0px; opacity: 1;"/></g><g class="points"/><g class="text"/></g><g class="trace scatter trace4760e7" style="stroke-miterlimit: 2; opacity: 1;"><g class="fills"/><g class="errorbars"/><g class="lines"><path class="js-line" d="M0,277.76L2.76,276.86L2.9,276.77L6.09,273.99L6.24,273.83L21.18,258.2L21.32,258.1L27.7,254.74L27.85,254.69L37.27,251.45L37.42,251.41L45.69,249.6L45.83,249.58L59.9,247.04L60.05,246.99L69.04,243.11L69.18,243.04L77.59,239.92L77.74,239.89L83.54,239.45L83.69,239.46L98.33,240.71L98.48,240.73L119.94,244.02L120.09,244.01L126.04,242.88L126.18,242.83L131.69,240.6L131.84,240.52L137.64,236.4L137.78,236.27L141.99,231.68L142.14,231.49L149.1,220.84L149.24,220.6L159.97,204.68L160.12,204.52L164.33,201.06L164.47,200.99L168.24,199.99L168.39,199.99L172.3,200.56L172.45,200.61L183.33,204.77L183.47,204.82L189.85,207.73L190,207.8L194.2,209.39L194.35,209.41L197.39,209.01L197.54,208.95L200.15,207.1L200.3,206.95L203.78,202.18L203.92,201.93L213.35,186.31L213.49,186.21L215.96,185.38L216.1,185.38L219,186.29L219.15,186.37L228.43,191.84L228.58,191.93L236.12,198.17L236.26,198.31L241.92,204.99L242.07,205.19L249.61,216.66L249.75,216.89L258.02,228.29L258.16,228.43L262.37,231.37L262.52,231.42L265.56,231.94L265.71,231.93L269.91,230.91L270.06,230.85L280.07,225.76L280.21,225.68L288.48,219.86L288.62,219.73L293.99,214.48L294.13,214.32L310.67,196.57L310.81,196.49L314.15,195.52L314.29,195.51L318.06,196.24L318.21,196.3L324.88,199.95L325.03,200.04L331.84,203.1L331.99,203.15L344.03,207.01L344.17,206.99L346.78,205.89L346.93,205.79L349.97,202.52L350.12,202.31L354.18,194.9L354.32,194.59L362.01,179.88L362.16,179.72L364.62,178.08L364.77,178.03L367.67,178.18L367.81,178.23L371.73,180.02L371.87,180.1L377.96,184.17L378.11,184.29L384.78,190.97L384.93,191.13L393.77,202.95L393.92,203.18L409.29,229.01L409.44,229.16L412.92,231.84L413.06,231.91L416.4,232.65L416.54,232.65L420.75,231.93L420.9,231.89L429.31,228.5L429.45,228.43L435.83,224.21L435.98,224.09L442.22,217.8L442.36,217.62L448.89,208.64L449.03,208.43L460.49,193.3L460.64,193.18L464.26,191.48L464.41,191.45L468.32,191.66L468.47,191.7L472.96,193.87L473.11,193.96L487.9,204.33L488.05,204.46L492.83,207.62L492.98,207.67L495.73,207.8L495.88,207.76L498.49,206.14L498.63,206L501.25,202.59L501.39,202.35L505.02,195.18L505.16,194.86L511.54,182.66L511.69,182.49L514.3,180.71L514.44,180.67L517.2,180.88L517.34,180.93L522.42,183.39L522.57,183.47L528.22,187.11L528.37,187.22L536.63,195.24L536.78,195.4L543.74,204.93L543.89,205.17L551.14,219.02L551.28,219.32L565.21,245.8L565.35,246.03L576.37,261.72L576.52,261.86L579.42,263.56L579.56,263.58L580,263.62" style="vector-effect: none; fill: none; stroke: rgb(148, 0, 211); stroke-opacity: 1; stroke-width: 3px; opacity: 1;"/></g><g class="points"/><g class="text"/></g><g class="trace scatter tracef9bca3" style="stroke-miterlimit: 2;"><g class="fills"><g><path class="js-fill" d="M0,303.33L5.37,302.58L5.51,302.55L12.91,301.33L13.05,301.32L27.56,301.1L27.7,301.1L71.07,301.55L71.21,301.56L87.02,301.87L87.17,301.87L111.24,302.62L111.39,302.63L130.53,302.55L130.68,302.54L135.03,301.23L135.17,301.15L138.51,298.29L138.65,298.11L141.7,293.58L141.85,293.33L147.65,280.58L147.79,280.21L158.23,255.69L158.38,255.46L161.72,251.58L161.86,251.46L165.49,249.89L165.63,249.87L168.97,250.36L169.11,250.42L172.45,252.79L172.59,252.93L176.65,258.02L176.8,258.23L184.63,268.66L184.78,268.79L188.11,270.74L188.26,270.78L191.3,270.8L191.45,270.77L195.36,269.06L195.51,268.97L209.14,261.37L209.29,261.35L212.33,261.68L212.48,261.74L215.38,263.73L215.52,263.87L218.86,268.21L219,268.44L223.21,276.26L223.36,276.57L232.78,295.13L232.93,295.32L236.26,298.79L236.41,298.9L240.47,300.9L240.62,300.94L246.27,301.91L246.42,301.92L264.69,301.82L264.84,301.82L282.1,301.68L282.24,301.64L285.72,299.69L285.87,299.57L289.49,295.22L289.64,295L294.86,285.41L295,285.11L301.24,271L301.39,270.65L307.77,257.08L307.91,256.84L312.12,251.46L312.26,251.32L316.32,248.71L316.47,248.67L319.37,248.53L319.51,248.57L321.98,249.94L322.13,250.06L325.9,254.5L326.04,254.71L335.61,267.34L335.76,267.44L338.66,268.83L338.8,268.86L342.43,268.65L342.58,268.6L347.07,266.62L347.22,266.54L357.51,261.48L357.66,261.44L361.14,261.19L361.29,261.22L364.33,262.54L364.48,262.65L367.67,265.85L367.81,266.04L371.44,271.83L371.58,272.1L377.38,284.5L377.53,284.82L382.32,294.21L382.46,294.43L386.23,298.71L386.38,298.82L389.86,300.66L390,300.71L395.8,301.87L395.95,301.88L404.94,302.08L405.09,302.07L432.64,301.53L432.79,301.48L436.7,299.02L436.85,298.88L440.62,294.06L440.77,293.83L445.99,283.51L446.13,283.17L451.64,268.83L451.79,268.43L457.73,253.6L457.88,253.31L461.65,247.35L461.8,247.18L465.13,244.48L465.28,244.42L467.89,244.11L468.03,244.14L470.5,245.57L470.64,245.7L473.4,249.22L473.54,249.45L478.76,259.19L478.91,259.47L483.55,267.18L483.7,267.37L486.89,270.3L487.03,270.38L490.08,271.03L490.22,271.02L493.56,269.86L493.7,269.78L499.79,265.28L499.94,265.16L507.63,259.9L507.77,259.85L511.11,259.51L511.25,259.54L513.86,260.77L514.01,260.87L517.63,264.9L517.78,265.12L521.99,272.7L522.13,273.01L528.66,287.73L528.8,288.04L533.59,296.32L533.73,296.5L537.5,299.69L537.65,299.77L542.29,301.31L542.44,301.33L549.11,301.97L549.25,301.97L560.42,301.97L560.57,301.96L571.3,302.7L571.44,302.73L580,304L580,303.87L573.04,302.86L572.89,302.83L547.66,301.55L547.51,301.54L540.7,300.66L540.55,300.62L536.63,298.85L536.49,298.75L532.57,294.46L532.43,294.23L527.79,284.89L527.64,284.55L521.84,270.87L521.7,270.56L517.92,263.47L517.78,263.25L514.3,259.05L514.15,258.93L511.54,257.49L511.4,257.45L508.06,257.63L507.92,257.68L500.52,262.77L500.38,262.9L494.72,267.42L494.57,267.52L491.09,269.18L490.95,269.22L488.05,269.1L487.9,269.05L484.86,266.88L484.71,266.72L475.86,251.17L475.72,250.89L471.95,244.56L471.8,244.37L469.19,241.95L469.05,241.87L466.73,241.41L466.58,241.42L463.68,242.86L463.54,242.98L459.91,247.47L459.76,247.71L448.74,275.59L448.6,275.98L443.81,287.58L443.67,287.88L439.89,294.72L439.75,294.94L436.27,299.12L436.12,299.25L432.79,301.27L432.64,301.32L425.1,302.04L424.96,302.03L409.15,301.83L409,301.83L397.83,301.83L397.69,301.83L391.45,300.94L391.31,300.9L387.54,299.32L387.39,299.23L383.62,295.62L383.48,295.43L372.6,272.66L372.45,272.36L368.39,265.08L368.25,264.87L364.77,260.93L364.62,260.81L361.72,259.28L361.58,259.24L358.24,259.23L358.09,259.26L346.93,264.78L346.78,264.85L342.14,266.86L342,266.9L338.66,266.95L338.51,266.91L335.47,265.27L335.32,265.15L325.9,252.06L325.75,251.84L322.42,247.76L322.27,247.62L319.8,246.09L319.66,246.04L316.9,246.03L316.76,246.08L313.28,248.13L313.13,248.25L309.22,252.81L309.07,253.03L298.77,275.71L298.63,276.05L291.67,291.02L291.52,291.29L288.04,296.85L287.9,297.04L284.71,300.2L284.56,300.3L281.37,301.67L281.23,301.71L273.54,301.9L273.39,301.9L257.73,301.69L257.58,301.69L248.3,301.82L248.16,301.82L241.49,300.98L241.34,300.94L237.28,299.21L237.13,299.11L233.8,296.03L233.65,295.85L222.92,274.38L222.78,274.07L218.28,265.64L218.13,265.41L215.23,261.72L215.09,261.58L212.04,259.58L211.9,259.54L208.56,259.45L208.42,259.49L196.67,266.49L196.52,266.59L192.03,268.92L191.88,268.96L188.55,269.14L188.4,269.1L185.36,267.48L185.21,267.36L178.97,259.38L178.83,259.15L173.32,251.35L173.17,251.19L169.98,248.44L169.84,248.36L167.08,247.46L166.94,247.45L164.04,247.92L163.89,247.98L160.7,250.34L160.56,250.49L157.22,255.53L157.07,255.81L150.84,271.03L150.69,271.43L144.89,286.4L144.75,286.73L140.4,295.3L140.25,295.53L136.77,299.76L136.62,299.89L133.14,301.84L133,301.89L127.05,302.6L126.91,302.61L70.49,301.32L70.34,301.31L48.01,300.57L47.86,300.57L14.36,300.98L14.21,300.99L5.37,302.36L5.22,302.39L0,303.13Z" style="fill: rgb(207, 184, 124); fill-opacity: 0.15; stroke-width: 0;"/></g></g><g class="errorbars"/><g class="lines"><path class="js-line" d="M0,303.13L5.22,302.39L5.37,302.36L14.21,300.99L14.36,300.98L47.86,300.57L48.01,300.57L70.34,301.31L70.49,301.32L126.91,302.61L127.05,302.6L133,301.89L133.14,301.84L136.62,299.89L136.77,299.76L140.25,295.53L140.4,295.3L144.75,286.73L144.89,286.4L150.69,271.43L150.84,271.03L157.07,255.81L157.22,255.53L160.56,250.49L160.7,250.34L163.89,247.98L164.04,247.92L166.94,247.45L167.08,247.46L169.84,248.36L169.98,248.44L173.17,251.19L173.32,251.35L178.83,259.15L178.97,259.38L185.21,267.36L185.36,267.48L188.4,269.1L188.55,269.14L191.88,268.96L192.03,268.92L196.52,266.59L196.67,266.49L208.42,259.49L208.56,259.45L211.9,259.54L212.04,259.58L215.09,261.58L215.23,261.72L218.13,265.41L218.28,265.64L222.78,274.07L222.92,274.38L233.65,295.85L233.8,296.03L237.13,299.11L237.28,299.21L241.34,300.94L241.49,300.98L248.16,301.82L248.3,301.82L257.58,301.69L257.73,301.69L273.39,301.9L273.54,301.9L281.23,301.71L281.37,301.67L284.56,300.3L284.71,300.2L287.9,297.04L288.04,296.85L291.52,291.29L291.67,291.02L298.63,276.05L298.77,275.71L309.07,253.03L309.22,252.81L313.13,248.25L313.28,248.13L316.76,246.08L316.9,246.03L319.66,246.04L319.8,246.09L322.27,247.62L322.42,247.76L325.75,251.84L325.9,252.06L335.32,265.15L335.47,265.27L338.51,266.91L338.66,266.95L342,266.9L342.14,266.86L346.78,264.85L346.93,264.78L358.09,259.26L358.24,259.23L361.58,259.24L361.72,259.28L364.62,260.81L364.77,260.93L368.25,264.87L368.39,265.08L372.45,272.36L372.6,272.66L383.48,295.43L383.62,295.62L387.39,299.23L387.54,299.32L391.31,300.9L391.45,300.94L397.69,301.83L397.83,301.83L409,301.83L409.15,301.83L424.96,302.03L425.1,302.04L432.64,301.32L432.79,301.27L436.12,299.25L436.27,299.12L439.75,294.94L439.89,294.72L443.67,287.88L443.81,287.58L448.6,275.98L448.74,275.59L459.76,247.71L459.91,247.47L463.54,242.98L463.68,242.86L466.58,241.42L466.73,241.41L469.05,241.87L469.19,241.95L471.8,244.37L471.95,244.56L475.72,250.89L475.86,251.17L484.71,266.72L484.86,266.88L487.9,269.05L488.05,269.1L490.95,269.22L491.09,269.18L494.57,267.52L494.72,267.42L500.38,262.9L500.52,262.77L507.92,257.68L508.06,257.63L511.4,257.45L511.54,257.49L514.15,258.93L514.3,259.05L517.78,263.25L517.92,263.47L521.7,270.56L521.84,270.87L527.64,284.55L527.79,284.89L532.43,294.23L532.57,294.46L536.49,298.75L536.63,298.85L540.55,300.62L540.7,300.66L547.51,301.54L547.66,301.55L572.89,302.83L573.04,302.86L580,303.87" style="vector-effect: none; fill: none; stroke: rgb(254, 203, 82); stroke-opacity: 1; stroke-width: 0px; opacity: 1;"/></g><g class="points"/><g class="text"/></g><g class="trace scatter trace8a1c21" style="stroke-miterlimit: 2;"><g class="fills"/><g class="errorbars"/><g class="lines"><path class="js-line" d="M0,303.33L5.37,302.58L5.51,302.55L12.91,301.33L13.05,301.32L27.56,301.1L27.7,301.1L71.07,301.55L71.21,301.56L87.02,301.87L87.17,301.87L111.24,302.62L111.39,302.63L130.53,302.55L130.68,302.54L135.03,301.23L135.17,301.15L138.51,298.29L138.65,298.11L141.7,293.58L141.85,293.33L147.65,280.58L147.79,280.21L158.23,255.69L158.38,255.46L161.72,251.58L161.86,251.46L165.49,249.89L165.63,249.87L168.97,250.36L169.11,250.42L172.45,252.79L172.59,252.93L176.65,258.02L176.8,258.23L184.63,268.66L184.78,268.79L188.11,270.74L188.26,270.78L191.3,270.8L191.45,270.77L195.36,269.06L195.51,268.97L209.14,261.37L209.29,261.35L212.33,261.68L212.48,261.74L215.38,263.73L215.52,263.87L218.86,268.21L219,268.44L223.21,276.26L223.36,276.57L232.78,295.13L232.93,295.32L236.26,298.79L236.41,298.9L240.47,300.9L240.62,300.94L246.27,301.91L246.42,301.92L264.69,301.82L264.84,301.82L282.1,301.68L282.24,301.64L285.72,299.69L285.87,299.57L289.49,295.22L289.64,295L294.86,285.41L295,285.11L301.24,271L301.39,270.65L307.77,257.08L307.91,256.84L312.12,251.46L312.26,251.32L316.32,248.71L316.47,248.67L319.37,248.53L319.51,248.57L321.98,249.94L322.13,250.06L325.9,254.5L326.04,254.71L335.61,267.34L335.76,267.44L338.66,268.83L338.8,268.86L342.43,268.65L342.58,268.6L347.07,266.62L347.22,266.54L357.51,261.48L357.66,261.44L361.14,261.19L361.29,261.22L364.33,262.54L364.48,262.65L367.67,265.85L367.81,266.04L371.44,271.83L371.58,272.1L377.38,284.5L377.53,284.82L382.32,294.21L382.46,294.43L386.23,298.71L386.38,298.82L389.86,300.66L390,300.71L395.8,301.87L395.95,301.88L404.94,302.08L405.09,302.07L432.64,301.53L432.79,301.48L436.7,299.02L436.85,298.88L440.62,294.06L440.77,293.83L445.99,283.51L446.13,283.17L451.64,268.83L451.79,268.43L457.73,253.6L457.88,253.31L461.65,247.35L461.8,247.18L465.13,244.48L465.28,244.42L467.89,244.11L468.03,244.14L470.5,245.57L470.64,245.7L473.4,249.22L473.54,249.45L478.76,259.19L478.91,259.47L483.55,267.18L483.7,267.37L486.89,270.3L487.03,270.38L490.08,271.03L490.22,271.02L493.56,269.86L493.7,269.78L499.79,265.28L499.94,265.16L507.63,259.9L507.77,259.85L511.11,259.51L511.25,259.54L513.86,260.77L514.01,260.87L517.63,264.9L517.78,265.12L521.99,272.7L522.13,273.01L528.66,287.73L528.8,288.04L533.59,296.32L533.73,296.5L537.5,299.69L537.65,299.77L542.29,301.31L542.44,301.33L549.11,301.97L549.25,301.97L560.42,301.97L560.57,301.96L571.3,302.7L571.44,302.73L580,304" style="vector-effect: none; fill: none; stroke: rgb(99, 110, 250); stroke-opacity: 1; stroke-width: 0px; opacity: 1;"/></g><g class="points"/><g class="text"/></g><g class="trace scatter trace2a141b" style="stroke-miterlimit: 2; opacity: 1;"><g class="fills"/><g class="errorbars"/><g class="lines"><path class="js-line" d="M0,303.23L5.22,302.5L5.37,302.47L14.07,301.13L14.21,301.12L27.56,300.98L27.7,300.98L70.78,301.43L70.92,301.44L87.02,301.78L87.17,301.77L110.66,302.52L110.81,302.53L130.53,302.47L130.68,302.45L134.74,301.28L134.88,301.2L137.93,298.78L138.07,298.62L141.56,293.58L141.7,293.32L145.62,285.09L145.76,284.75L153.16,265.6L153.3,265.23L158.52,254.24L158.67,254.01L162.15,250.13L162.3,250.03L165.34,248.72L165.49,248.7L168.53,248.98L168.68,249.03L172.16,251.32L172.3,251.46L175.93,255.87L176.07,256.08L185.5,268.49L185.65,268.6L188.55,269.99L188.69,270.02L191.59,269.89L191.74,269.85L195.65,268.02L195.8,267.93L208.42,260.5L208.56,260.46L211.9,260.54L212.04,260.58L214.8,262.25L214.94,262.38L218.28,266.48L218.42,266.7L222.78,274.72L222.92,275.02L233.51,295.87L233.65,296.05L237.42,299.43L237.57,299.52L241.92,301.19L242.07,301.22L249.17,301.93L249.32,301.93L282.68,301.38L282.82,301.33L286.01,299.29L286.16,299.15L289.78,294.54L289.93,294.31L296.16,282.2L296.31,281.88L309.07,254.04L309.22,253.82L313.28,249.3L313.42,249.18L316.9,247.29L317.05,247.25L319.8,247.38L319.95,247.43L322.42,249.04L322.56,249.17L325.9,253.28L326.04,253.49L335.61,266.36L335.76,266.47L338.8,267.92L338.95,267.95L342.43,267.71L342.58,267.67L347.65,265.34L347.8,265.26L357.8,260.37L357.95,260.33L361.43,260.22L361.58,260.26L364.48,261.67L364.62,261.78L367.52,264.77L367.67,264.96L371.87,271.91L372.02,272.2L383.91,296.21L384.06,296.39L387.54,299.46L387.68,299.54L391.74,301.11L391.89,301.15L398.27,301.94L398.41,301.95L409.15,301.92L409.29,301.92L424.96,302.12L425.1,302.13L432.64,301.43L432.79,301.37L436.27,299.27L436.41,299.14L439.46,295.58L439.6,295.37L443.38,288.81L443.52,288.52L448.31,277.29L448.45,276.9L459.76,248.83L459.91,248.59L463.68,244.12L463.83,244L466.87,242.71L467.02,242.7L469.48,243.45L469.63,243.55L472.24,246.24L472.38,246.44L475.72,252.08L475.86,252.36L484.57,267.47L484.71,267.63L487.76,269.85L487.9,269.9L490.8,270.09L490.95,270.06L494.43,268.48L494.57,268.39L501.68,262.76L501.83,262.65L507.19,259.03L507.34,258.97L510.53,258.37L510.67,258.38L513.57,259.52L513.72,259.63L516.62,262.55L516.76,262.74L520.54,268.98L520.68,269.26L526.05,281.26L526.19,281.6L532.57,294.7L532.72,294.92L536.05,298.59L536.2,298.7L540.12,300.63L540.26,300.68L546.93,301.69L547.08,301.7L559.84,301.83L559.98,301.83L571.01,302.56L571.15,302.59L580,303.93" style="vector-effect: none; fill: none; stroke: rgb(207, 184, 124); stroke-opacity: 1; stroke-width: 3px; opacity: 1;"/></g><g class="points"/><g class="text"/></g></g></g></g><g class="zerolinelayer-above"/><path class="xlines-above crisp" d="M79,420.5H661M79,99.5H661" style="fill: none; stroke-width: 1px; stroke: rgb(0, 0, 0); stroke-opacity: 1;"/><path class="ylines-above crisp" d="M79.5,100V420M660.5,100V420" style="fill: none; stroke-width: 1px; stroke: rgb(0, 0, 0); stroke-opacity: 1;"/><g class="overlines-above"/><g class="xaxislayer-above"><path class="xtick ticks crisp" d="M0,421v5" transform="translate(80,0)" style="stroke: rgb(68, 68, 68); stroke-opacity: 1; stroke-width: 1px;"/><path class="xtick ticks crisp" d="M0,421v5" transform="translate(152.5,0)" style="stroke: rgb(68, 68, 68); stroke-opacity: 1; stroke-width: 1px;"/><path class="xtick ticks crisp" d="M0,421v5" transform="translate(225,0)" style="stroke: rgb(68, 68, 68); stroke-opacity: 1; stroke-width: 1px;"/><path class="xtick ticks crisp" d="M0,421v5" transform="translate(297.5,0)" style="stroke: rgb(68, 68, 68); stroke-opacity: 1; stroke-width: 1px;"/><path class="xtick ticks crisp" d="M0,421v5" transform="translate(370,0)" style="stroke: rgb(68, 68, 68); stroke-opacity: 1; stroke-width: 1px;"/><path class="xtick ticks crisp" d="M0,421v5" transform="translate(442.5,0)" style="stroke: rgb(68, 68, 68); stroke-opacity: 1; stroke-width: 1px;"/><path class="xtick ticks crisp" d="M0,421v5" transform="translate(515,0)" style="stroke: rgb(68, 68, 68); stroke-opacity: 1; stroke-width: 1px;"/><path class="xtick ticks crisp" d="M0,421v5" transform="translate(587.5,0)" style="stroke: rgb(68, 68, 68); stroke-opacity: 1; stroke-width: 1px;"/><path class="xtick ticks crisp" d="M0,421v5" transform="translate(660,0)" style="stroke: rgb(68, 68, 68); stroke-opacity: 1; stroke-width: 1px;"/><g class="xtick"><text text-anchor="middle" x="0" y="440.4" transform="translate(80,0)" style="font-family: 'Open Sans', verdana, arial, sans-serif; font-size: 12px; fill: rgb(42, 63, 95); fill-opacity: 1; white-space: pre;">−2000</text></g><g class="xtick"><text text-anchor="middle" x="0" y="440.4" style="font-family: 'Open Sans', verdana, arial, sans-serif; font-size: 12px; fill: rgb(42, 63, 95); fill-opacity: 1; white-space: pre;" transform="translate(152.5,0)">−1500</text></g><g class="xtick"><text text-anchor="middle" x="0" y="440.4" style="font-family: 'Open Sans', verdana, arial, sans-serif; font-size: 12px; fill: rgb(42, 63, 95); fill-opacity: 1; white-space: pre;" transform="translate(225,0)">−1000</text></g><g class="xtick"><text text-anchor="middle" x="0" y="440.4" style="font-family: 'Open Sans', verdana, arial, sans-serif; font-size: 12px; fill: rgb(42, 63, 95); fill-opacity: 1; white-space: pre;" transform="translate(297.5,0)">−500</text></g><g class="xtick"><text text-anchor="middle" x="0" y="440.4" style="font-family: 'Open Sans', verdana, arial, sans-serif; font-size: 12px; fill: rgb(42, 63, 95); fill-opacity: 1; white-space: pre;" transform="translate(370,0)">0</text></g><g class="xtick"><text text-anchor="middle" x="0" y="440.4" style="font-family: 'Open Sans', verdana, arial, sans-serif; font-size: 12px; fill: rgb(42, 63, 95); fill-opacity: 1; white-space: pre;" transform="translate(442.5,0)">500</text></g><g class="xtick"><text text-anchor="middle" x="0" y="440.4" style="font-family: 'Open Sans', verdana, arial, sans-serif; font-size: 12px; fill: rgb(42, 63, 95); fill-opacity: 1; white-space: pre;" transform="translate(515,0)">1000</text></g><g class="xtick"><text text-anchor="middle" x="0" y="440.4" style="font-family: 'Open Sans', verdana, arial, sans-serif; font-size: 12px; fill: rgb(42, 63, 95); fill-opacity: 1; white-space: pre;" transform="translate(587.5,0)">1500</text></g><g class="xtick"><text text-anchor="middle" x="0" y="440.4" style="font-family: 'Open Sans', verdana, arial, sans-serif; font-size: 12px; fill: rgb(42, 63, 95); fill-opacity: 1; white-space: pre;" transform="translate(660,0)">2000</text></g></g><g class="yaxislayer-above"><path class="ytick ticks crisp" d="M79,0h-5" transform="translate(0,408.2)" style="stroke: rgb(68, 68, 68); stroke-opacity: 1; stroke-width: 1px;"/><path class="ytick ticks crisp" d="M79,0h-5" transform="translate(0,340.99)" style="stroke: rgb(68, 68, 68); stroke-opacity: 1; stroke-width: 1px;"/><path class="ytick ticks crisp" d="M79,0h-5" transform="translate(0,273.78)" style="stroke: rgb(68, 68, 68); stroke-opacity: 1; stroke-width: 1px;"/><path class="ytick ticks crisp" d="M79,0h-5" transform="translate(0,206.57)" style="stroke: rgb(68, 68, 68); stroke-opacity: 1; stroke-width: 1px;"/><path class="ytick ticks crisp" d="M79,0h-5" transform="translate(0,139.36)" style="stroke: rgb(68, 68, 68); stroke-opacity: 1; stroke-width: 1px;"/><g class="ytick"><text text-anchor="end" x="71.6" y="4.199999999999999" transform="translate(0,408.2)" style="font-family: 'Open Sans', verdana, arial, sans-serif; font-size: 12px; fill: rgb(42, 63, 95); fill-opacity: 1; white-space: pre;">0</text></g><g class="ytick"><text text-anchor="end" x="71.6" y="4.199999999999999" style="font-family: 'Open Sans', verdana, arial, sans-serif; font-size: 12px; fill: rgb(42, 63, 95); fill-opacity: 1; white-space: pre;" transform="translate(0,340.99)">20k</text></g><g class="ytick"><text text-anchor="end" x="71.6" y="4.199999999999999" style="font-family: 'Open Sans', verdana, arial, sans-serif; font-size: 12px; fill: rgb(42, 63, 95); fill-opacity: 1; white-space: pre;" transform="translate(0,273.78)">40k</text></g><g class="ytick"><text text-anchor="end" x="71.6" y="4.199999999999999" style="font-family: 'Open Sans', verdana, arial, sans-serif; font-size: 12px; fill: rgb(42, 63, 95); fill-opacity: 1; white-space: pre;" transform="translate(0,206.57)">60k</text></g><g class="ytick"><text text-anchor="end" x="71.6" y="4.199999999999999" style="font-family: 'Open Sans', verdana, arial, sans-serif; font-size: 12px; fill: rgb(42, 63, 95); fill-opacity: 1; white-space: pre;" transform="translate(0,139.36)">80k</text></g></g><g class="overaxes-above"/></g></g><g class="polarlayer"/><g class="smithlayer"/><g class="ternarylayer"/><g class="geolayer"/><g class="funnelarealayer"/><g class="pielayer"/><g class="iciclelayer"/><g class="treemaplayer"/><g class="sunburstlayer"/><g class="glimages"/><defs id="topdefs-5a04b0"><g class="clips"/><clipPath id="legend5a04b0"><rect width="515" height="67" x="1" y="1"/></clipPath></defs><g class="layer-above"><g class="imagelayer"/><g class="shapelayer"><g class="shape-group" data-index="0" clip-path="url(#clip5a04b0x)"><path data-index="0" fill-rule="evenodd" d="M220.51,420L220.51,100" style="opacity: 1; stroke: rgb(128, 128, 128); stroke-opacity: 1; fill: rgb(0, 0, 0); fill-opacity: 0; stroke-dasharray: 9px, 9px; stroke-width: 2px;"/></g><g class="shape-group" data-index="1" clip-path="url(#clip5a04b0x)"><path data-index="1" fill-rule="evenodd" d="M297.5,420L297.5,100" style="opacity: 1; stroke: rgb(128, 128, 128); stroke-opacity: 1; fill: rgb(0, 0, 0); fill-opacity: 0; stroke-dasharray: 3px, 3px; stroke-width: 2px;"/></g><g class="shape-group" data-index="2" clip-path="url(#clip5a04b0x)"><path data-index="2" fill-rule="evenodd" d="M370,420L370,100" style="opacity: 1; stroke: rgb(128, 128, 128); stroke-opacity: 1; fill: rgb(0, 0, 0); fill-opacity: 0; stroke-dasharray: 9px, 9px; stroke-width: 2px;"/></g><g class="shape-group" data-index="3" clip-path="url(#clip5a04b0x)"><path data-index="3" fill-rule="evenodd" d="M447,420L447,100" style="opacity: 1; stroke: rgb(128, 128, 128); stroke-opacity: 1; fill: rgb(0, 0, 0); fill-opacity: 0; stroke-dasharray: 3px, 3px; stroke-width: 2px;"/></g><g class="shape-group" data-index="4" clip-path="url(#clip5a04b0x)"><path data-index="4" fill-rule="evenodd" d="M519.5,420L519.5,100" style="opacity: 1; stroke: rgb(128, 128, 128); stroke-opacity: 1; fill: rgb(0, 0, 0); fill-opacity: 0; stroke-dasharray: 9px, 9px; stroke-width: 2px;"/></g><g class="shape-group" data-index="5" clip-path="url(#clip5a04b0x)"><path data-index="5" fill-rule="evenodd" d="M596.49,420L596.49,100" style="opacity: 1; stroke: rgb(128, 128, 128); stroke-opacity: 1; fill: rgb(0, 0, 0); fill-opacity: 0; stroke-dasharray: 3px, 3px; stroke-width: 2px;"/></g><g class="shape-group" data-index="6" clip-path="url(#clip5a04b0x)"><path data-index="6" fill-rule="evenodd" d="M370,420L370,100" style="opacity: 1; stroke: rgb(255, 0, 0); stroke-opacity: 1; fill: rgb(0, 0, 0); fill-opacity: 0; stroke-dasharray: 9px, 9px; stroke-width: 2px;"/></g></g></g><g class="infolayer"><g class="legend" pointer-events="all" transform="translate(143,24.599999999999994)"><rect class="bg" shape-rendering="crispEdges" style="stroke: rgb(0, 0, 0); stroke-opacity: 1; fill: rgb(255, 255, 255); fill-opacity: 0.8; stroke-width: 1px;" width="516" height="68" x="0.5" y="0.5"/><g class="scrollbox" transform="" clip-path="url(#legend5a04b0)"><g class="groups"><g class="traces" transform="translate(1,15.5)" style="opacity: 1;"><text class="legendtext" text-anchor="start" x="40" y="4.680000000000001" style="font-family: 'Open Sans', verdana, arial, sans-serif; font-size: 12px; fill: rgb(42, 63, 95); fill-opacity: 1; white-space: pre;">Gamma</text><g class="layers" style="opacity: 1;"><g class="legendfill"/><g class="legendlines"><path class="js-line" d="M5,0h30" style="fill: none; stroke: rgb(207, 184, 124); stroke-opacity: 1; stroke-width: 3px;"/></g><g class="legendsymbols"><g class="legendpoints"/></g></g><rect class="legendtoggle" x="0" y="-9.5" width="89.5625" height="19" style="fill: rgb(0, 0, 0); fill-opacity: 0;"/></g><g class="traces" transform="translate(132.8671875,15.5)" style="opacity: 1;"><text class="legendtext" text-anchor="start" x="40" y="4.680000000000001" style="font-family: 'Open Sans', verdana, arial, sans-serif; font-size: 12px; fill: rgb(42, 63, 95); fill-opacity: 1; white-space: pre;">Gamma_down</text><g class="layers"><g class="legendfill"><path class="js-fill" d="M5,-2h30v6h-30z" style="stroke-width: 0; fill: rgb(207, 184, 124); fill-opacity: 0.15;"/></g><g class="legendlines"><path class="js-line" d="M5,-2h30" style="fill: none; stroke: rgb(99, 110, 250); stroke-opacity: 1; stroke-width: 0px;"/></g><g class="legendsymbols"><g class="legendpoints"/></g></g><rect class="legendtoggle" x="0" y="-9.5" width="129.3671875" height="19" style="fill: rgb(0, 0, 0); fill-opacity: 0;"/></g><g class="traces" transform="translate(264.734375,15.5)" style="opacity: 1;"><text class="legendtext" text-anchor="start" x="40" y="4.680000000000001" style="font-family: 'Open Sans', verdana, arial, sans-serif; font-size: 12px; fill: rgb(42, 63, 95); fill-opacity: 1; white-space: pre;">Gamma_up</text><g class="layers"><g class="legendfill"/><g class="legendlines"><path class="js-line" d="M5,0h30" style="fill: none; stroke: rgb(254, 203, 82); stroke-opacity: 1; stroke-width: 0px;"/></g><g class="legendsymbols"><g class="legendpoints"/></g></g><rect class="legendtoggle" x="0" y="-9.5" width="112.265625" height="19" style="fill: rgb(0, 0, 0); fill-opacity: 0;"/></g><g class="traces" transform="translate(396.6015625,15.5)" style="opacity: 1;"><text class="legendtext" text-anchor="start" x="40" y="4.680000000000001" style="font-family: 'Open Sans', verdana, arial, sans-serif; font-size: 12px; fill: rgb(42, 63, 95); fill-opacity: 1; white-space: pre;">Beta</text><g class="layers" style="opacity: 1;"><g class="legendfill"/><g class="legendlines"><path class="js-line" d="M5,0h30" style="fill: none; stroke: rgb(148, 0, 211); stroke-opacity: 1; stroke-width: 3px;"/></g><g class="legendsymbols"><g class="legendpoints"/></g></g><rect class="legendtoggle" x="0" y="-9.5" width="69.8125" height="19" style="fill: rgb(0, 0, 0); fill-opacity: 0;"/></g><g class="traces" transform="translate(1,34.5)" style="opacity: 1;"><text class="legendtext" text-anchor="start" x="40" y="4.680000000000001" style="font-family: 'Open Sans', verdana, arial, sans-serif; font-size: 12px; fill: rgb(42, 63, 95); fill-opacity: 1; white-space: pre;">Beta_down</text><g class="layers"><g class="legendfill"><path class="js-fill" d="M5,-2h30v6h-30z" style="stroke-width: 0; fill: rgb(148, 0, 211); fill-opacity: 0.15;"/></g><g class="legendlines"><path class="js-line" d="M5,-2h30" style="fill: none; stroke: rgb(182, 232, 128); stroke-opacity: 1; stroke-width: 0px;"/></g><g class="legendsymbols"><g class="legendpoints"/></g></g><rect class="legendtoggle" x="0" y="-9.5" width="109.6171875" height="19" style="fill: rgb(0, 0, 0); fill-opacity: 0;"/></g><g class="traces" transform="translate(132.8671875,34.5)" style="opacity: 1;"><text class="legendtext" text-anchor="start" x="40" y="4.680000000000001" style="font-family: 'Open Sans', verdana, arial, sans-serif; font-size: 12px; fill: rgb(42, 63, 95); fill-opacity: 1; white-space: pre;">Beta_up</text><g class="layers"><g class="legendfill"/><g class="legendlines"><path class="js-line" d="M5,0h30" style="fill: none; stroke: rgb(255, 102, 146); stroke-opacity: 1; stroke-width: 0px;"/></g><g class="legendsymbols"><g class="legendpoints"/></g></g><rect class="legendtoggle" x="0" y="-9.5" width="92.515625" height="19" style="fill: rgb(0, 0, 0); fill-opacity: 0;"/></g><g class="traces" transform="translate(264.734375,34.5)" style="opacity: 1;"><text class="legendtext" text-anchor="start" x="40" y="4.680000000000001" style="font-family: 'Open Sans', verdana, arial, sans-serif; font-size: 12px; fill: rgb(42, 63, 95); fill-opacity: 1; white-space: pre;">Alpha</text><g class="layers" style="opacity: 1;"><g class="legendfill"/><g class="legendlines"><path class="js-line" d="M5,0h30" style="fill: none; stroke: rgb(0, 0, 255); stroke-opacity: 1; stroke-width: 3px;"/></g><g class="legendsymbols"><g class="legendpoints"/></g></g><rect class="legendtoggle" x="0" y="-9.5" width="76.2734375" height="19" style="fill: rgb(0, 0, 0); fill-opacity: 0;"/></g><g class="traces" transform="translate(396.6015625,34.5)" style="opacity: 1;"><text class="legendtext" text-anchor="start" x="40" y="4.680000000000001" style="font-family: 'Open Sans', verdana, arial, sans-serif; font-size: 12px; fill: rgb(42, 63, 95); fill-opacity: 1; white-space: pre;">Alpha_down</text><g class="layers"><g class="legendfill"><path class="js-fill" d="M5,-2h30v6h-30z" style="stroke-width: 0; fill: rgb(0, 0, 255); fill-opacity: 0.15;"/></g><g class="legendlines"><path class="js-line" d="M5,-2h30" style="fill: none; stroke: rgb(255, 161, 90); stroke-opacity: 1; stroke-width: 0px;"/></g><g class="legendsymbols"><g class="legendpoints"/></g></g><rect class="legendtoggle" x="0" y="-9.5" width="116.078125" height="19" style="fill: rgb(0, 0, 0); fill-opacity: 0;"/></g><g class="traces" transform="translate(1,53.5)" style="opacity: 1;"><text class="legendtext" text-anchor="start" x="40" y="4.680000000000001" style="font-family: 'Open Sans', verdana, arial, sans-serif; font-size: 12px; fill: rgb(42, 63, 95); fill-opacity: 1; white-space: pre;">Alpha_up</text><g class="layers"><g class="legendfill"/><g class="legendlines"><path class="js-line" d="M5,0h30" style="fill: none; stroke: rgb(171, 99, 250); stroke-opacity: 1; stroke-width: 0px;"/></g><g class="legendsymbols"><g class="legendpoints"/></g></g><rect class="legendtoggle" x="0" y="-9.5" width="98.9765625" height="19" style="fill: rgb(0, 0, 0); fill-opacity: 0;"/></g><g class="traces" transform="translate(132.8671875,53.5)" style="opacity: 1;"><text class="legendtext" text-anchor="start" x="40" y="4.680000000000001" style="font-family: 'Open Sans', verdana, arial, sans-serif; font-size: 12px; fill: rgb(42, 63, 95); fill-opacity: 1; white-space: pre;">Theta</text><g class="layers" style="opacity: 1;"><g class="legendfill"/><g class="legendlines"><path class="js-line" d="M5,0h30" style="fill: none; stroke: rgb(75, 0, 130); stroke-opacity: 1; stroke-width: 3px;"/></g><g class="legendsymbols"><g class="legendpoints"/></g></g><rect class="legendtoggle" x="0" y="-9.5" width="77.078125" height="19" style="fill: rgb(0, 0, 0); fill-opacity: 0;"/></g><g class="traces" transform="translate(264.734375,53.5)" style="opacity: 1;"><text class="legendtext" text-anchor="start" x="40" y="4.680000000000001" style="font-family: 'Open Sans', verdana, arial, sans-serif; font-size: 12px; fill: rgb(42, 63, 95); fill-opacity: 1; white-space: pre;">Theta_down</text><g class="layers"><g class="legendfill"><path class="js-fill" d="M5,-2h30v6h-30z" style="stroke-width: 0; fill: rgb(75, 0, 130); fill-opacity: 0.15;"/></g><g class="legendlines"><path class="js-line" d="M5,-2h30" style="fill: none; stroke: rgb(239, 85, 59); stroke-opacity: 1; stroke-width: 0px;"/></g><g class="legendsymbols"><g class="legendpoints"/></g></g><rect class="legendtoggle" x="0" y="-9.5" width="116.875" height="19" style="fill: rgb(0, 0, 0); fill-opacity: 0;"/></g><g class="traces" transform="translate(396.6015625,53.5)" style="opacity: 1;"><text class="legendtext" text-anchor="start" x="40" y="4.680000000000001" style="font-family: 'Open Sans', verdana, arial, sans-serif; font-size: 12px; fill: rgb(42, 63, 95); fill-opacity: 1; white-space: pre;">Theta_up</text><g class="layers"><g class="legendfill"/><g class="legendlines"><path class="js-line" d="M5,0h30" style="fill: none; stroke: rgb(99, 110, 250); stroke-opacity: 1; stroke-width: 0px;"/></g><g class="legendsymbols"><g class="legendpoints"/></g></g><rect class="legendtoggle" x="0" y="-9.5" width="99.7734375" height="19" style="fill: rgb(0, 0, 0); fill-opacity: 0;"/></g></g></g><rect class="scrollbar" rx="20" ry="3" width="0" height="0" style="fill: rgb(128, 139, 164); fill-opacity: 1;" x="0" y="0"/></g><g class="g-gtitle"><text class="gtitle" x="350" y="50" text-anchor="middle" dy="0em" style="opacity: 1; font-family: Arial; font-size: 18px; fill: rgb(0, 0, 0); fill-opacity: 1; white-space: pre;"><tspan class="line" dy="0em" x="350" y="50"><tspan style="font-weight:bold">Figure f006: MST Band-Specific Omission Dynamics (AAAB)</tspan></tspan><tspan class="line" dy="1.3em" x="350" y="50">​<tspan style="font-size:70%" dy="-0.6em">Relative Power (dB) with ±SEM | 0ms = Omission Onset | 30ms Smoothed</tspan><tspan dy="0.42em">​</tspan></tspan></text></g><g class="g-xtitle"><text class="xtitle" x="370" y="467.200390625" text-anchor="middle" style="opacity: 1; font-family: 'Open Sans', verdana, arial, sans-serif; font-size: 14px; fill: rgb(42, 63, 95); fill-opacity: 1; white-space: pre;">Time from Omission (ms)</text></g><g class="g-ytitle"><text class="ytitle" transform="rotate(-90,29.840234375,260)" x="29.840234375" y="260" text-anchor="middle" style="opacity: 1; font-family: 'Open Sans', verdana, arial, sans-serif; font-size: 14px; fill: rgb(42, 63, 95); fill-opacity: 1; white-space: pre;">Relative Power (dB)</text></g><g class="annotation" data-index="0" style="opacity: 1;"><g class="annotation-text-g" transform="rotate(0,230.01,109.5)"><g class="cursor-pointer" transform="translate(221,100)"><rect class="bg" x="0.5" y="0.5" width="18" height="18" style="stroke-width: 1px; stroke: rgb(0, 0, 0); stroke-opacity: 0; fill: rgb(0, 0, 0); fill-opacity: 0;"/><text class="annotation-text" text-anchor="middle" x="9.43359375" y="14" style="font-family: 'Open Sans', verdana, arial, sans-serif; font-size: 12px; fill: rgb(42, 63, 95); fill-opacity: 1; white-space: pre;">P1</text></g></g></g><g class="annotation" data-index="1" style="opacity: 1;"><g class="annotation-text-g" transform="rotate(0,308,109.5)"><g class="cursor-pointer" transform="translate(298,100)"><rect class="bg" x="0.5" y="0.5" width="20" height="18" style="stroke-width: 1px; stroke: rgb(0, 0, 0); stroke-opacity: 0; fill: rgb(0, 0, 0); fill-opacity: 0;"/><text class="annotation-text" text-anchor="middle" x="10.4375" y="14" style="font-family: 'Open Sans', verdana, arial, sans-serif; font-size: 12px; fill: rgb(42, 63, 95); fill-opacity: 1; white-space: pre;">D1</text></g></g></g><g class="annotation" data-index="2" style="opacity: 1;"><g class="annotation-text-g" transform="rotate(0,379.5,109.5)"><g class="cursor-pointer" transform="translate(370,100)"><rect class="bg" x="0.5" y="0.5" width="18" height="18" style="stroke-width: 1px; stroke: rgb(0, 0, 0); stroke-opacity: 0; fill: rgb(0, 0, 0); fill-opacity: 0;"/><text class="annotation-text" text-anchor="middle" x="9.43359375" y="14" style="font-family: 'Open Sans', verdana, arial, sans-serif; font-size: 12px; fill: rgb(42, 63, 95); fill-opacity: 1; white-space: pre;">P2</text></g></g></g><g class="annotation" data-index="3" style="opacity: 1;"><g class="annotation-text-g" transform="rotate(0,457.5,109.5)"><g class="cursor-pointer" transform="translate(447,100)"><rect class="bg" x="0.5" y="0.5" width="20" height="18" style="stroke-width: 1px; stroke: rgb(0, 0, 0); stroke-opacity: 0; fill: rgb(0, 0, 0); fill-opacity: 0;"/><text class="annotation-text" text-anchor="middle" x="10.4375" y="14" style="font-family: 'Open Sans', verdana, arial, sans-serif; font-size: 12px; fill: rgb(42, 63, 95); fill-opacity: 1; white-space: pre;">D2</text></g></g></g><g class="annotation" data-index="4" style="opacity: 1;"><g class="annotation-text-g" transform="rotate(0,529,109.5)"><g class="cursor-pointer" transform="translate(520,100)"><rect class="bg" x="0.5" y="0.5" width="18" height="18" style="stroke-width: 1px; stroke: rgb(0, 0, 0); stroke-opacity: 0; fill: rgb(0, 0, 0); fill-opacity: 0;"/><text class="annotation-text" text-anchor="middle" x="9.43359375" y="14" style="font-family: 'Open Sans', verdana, arial, sans-serif; font-size: 12px; fill: rgb(42, 63, 95); fill-opacity: 1; white-space: pre;">P3</text></g></g></g><g class="annotation" data-index="5" style="opacity: 1;"><g class="annotation-text-g" transform="rotate(0,606.99,109.5)"><g class="cursor-pointer" transform="translate(596,100)"><rect class="bg" x="0.5" y="0.5" width="20" height="18" style="stroke-width: 1px; stroke: rgb(0, 0, 0); stroke-opacity: 0; fill: rgb(0, 0, 0); fill-opacity: 0;"/><text class="annotation-text" text-anchor="middle" x="10.4375" y="14" style="font-family: 'Open Sans', verdana, arial, sans-serif; font-size: 12px; fill: rgb(42, 63, 95); fill-opacity: 1; white-space: pre;">D3</text></g></g></g><g class="annotation" data-index="6" style="opacity: 1;"><g class="annotation-text-g" transform="rotate(0,419,109.5)"><g class="cursor-pointer" transform="translate(370,100)"><rect class="bg" x="0.5" y="0.5" width="97" height="18" style="stroke-width: 1px; stroke: rgb(0, 0, 0); stroke-opacity: 0; fill: rgb(0, 0, 0); fill-opacity: 0;"/><text class="annotation-text" text-anchor="middle" x="49.171875" y="14" style="font-family: 'Open Sans', verdana, arial, sans-serif; font-size: 12px; fill: rgb(42, 63, 95); fill-opacity: 1; white-space: pre;">OMISSION (P2)</text></g></g></g></g></svg>