<svg class="main-svg" xmlns="http://www.w3.org/2000/svg" xmlns:xlink="http://www.w3.org/1999/xlink" width="700" height="500" style="" viewBox="0 0 700 500"><rect x="0" y="0" width="700" height="500" style="fill: rgb(255, 255, 255); fill-opacity: 1;"/><defs id="defs-f30946"><g class="clips"><clipPath id="clipf30946xyplot" class="plotclip"><rect width="580" height="320"/></clipPath><clipPath class="axesclip" id="clipf30946x"><rect x="80" y="0" width="580" height="500"/></clipPath><clipPath class="axesclip" id="clipf30946y"><rect x="0" y="100" width="700" height="320"/></clipPath><clipPath class="axesclip" id="clipf30946xy"><rect x="80" y="100" width="580" height="320"/></clipPath></g><g class="gradients"/><g class="patterns"/></defs><g class="bglayer"/><g class="layer-below"><g class="imagelayer"/><g class="shapelayer"/></g><g class="cartesianlayer"><g class="subplot xy"><g class="layer-subplot"><g class="shapelayer"/><g class="imagelayer"/></g><g class="minor-gridlayer"><g class="x"/><g class="y"/></g><g class="gridlayer"><g class="x"><path class="xgrid crisp" transform="translate(152.5,0)" d="M0,100v320" style="stroke: rgb(211, 211, 211); stroke-opacity: 1; stroke-width: 1px;"/><path class="xgrid crisp" transform="translate(225,0)" d="M0,100v320" style="stroke: rgb(211, 211, 211); stroke-opacity: 1; stroke-width: 1px;"/><path class="xgrid crisp" transform="translate(297.5,0)" d="M0,100v320" style="stroke: rgb(211, 211, 211); stroke-opacity: 1; stroke-width: 1px;"/><path class="xgrid crisp" transform="translate(442.5,0)" d="M0,100v320" style="stroke: rgb(211, 211, 211); stroke-opacity: 1; stroke-width: 1px;"/><path class="xgrid crisp" transform="translate(515,0)" d="M0,100v320" style="stroke: rgb(211, 211, 211); stroke-opacity: 1; stroke-width: 1px;"/><path class="xgrid crisp" transform="translate(587.5,0)" d="M0,100v320" style="stroke: rgb(211, 211, 211); stroke-opacity: 1; stroke-width: 1px;"/></g><g class="y"><path class="ygrid crisp" transform="translate(0,358.71)" d="M80,0h580" style="stroke: rgb(211, 211, 211); stroke-opacity: 1; stroke-width: 1px;"/><path class="ygrid crisp" transform="translate(0,307.61)" d="M80,0h580" style="stroke: rgb(211, 211, 211); stroke-opacity: 1; stroke-width: 1px;"/><path class="ygrid crisp" transform="translate(0,256.52)" d="M80,0h580" style="stroke: rgb(211, 211, 211); stroke-opacity: 1; stroke-width: 1px;"/><path class="ygrid crisp" transform="translate(0,205.43)" d="M80,0h580" style="stroke: rgb(211, 211, 211); stroke-opacity: 1; stroke-width: 1px;"/><path class="ygrid crisp" transform="translate(0,154.34)" d="M80,0h580" style="stroke: rgb(211, 211, 211); stroke-opacity: 1; stroke-width: 1px;"/><path class="ygrid crisp" transform="translate(0,103.25)" d="M80,0h580" style="stroke: rgb(211, 211, 211); stroke-opacity: 1; stroke-width: 1px;"/></g></g><g class="zerolinelayer"><path class="xzl zl crisp" transform="translate(370,0)" d="M0,100v320" style="stroke: rgb(235, 240, 248); stroke-opacity: 1; stroke-width: 2px;"/><path class="yzl zl crisp" transform="translate(0,409.8)" d="M80,0h580" style="stroke: rgb(235, 240, 248); stroke-opacity: 1; stroke-width: 2px;"/></g><g class="layer-between"><g class="shapelayer"/><g class="imagelayer"/></g><path class="xlines-below"/><path class="ylines-below"/><g class="overlines-below"/><g class="xaxislayer-below"/><g class="yaxislayer-below"/><g class="overaxes-below"/><g class="overplot"><g class="xy" transform="translate(80,100)" clip-path="url(#clipf30946xyplot)"><g class="scatterlayer mlayer"><g class="trace scatter tracefb0d4b" style="stroke-miterlimit: 2;"><g class="fills"><g><path class="js-fill" d="M0,173.64L2.32,172.78L2.47,172.67L5.51,169.41L5.66,169.21L12.47,158.71L12.62,158.48L34.81,123.46L34.95,123.25L45.4,109.18L45.54,109.01L60.19,93.48L60.34,93.34L72.66,82.07L72.81,81.95L79.33,77.32L79.48,77.23L88.47,72.34L88.62,72.27L96.74,69.04L96.88,68.99L114.58,63.33L114.72,63.32L121.83,63.55L121.98,63.58L128.79,65.25L128.94,65.3L140.83,68.26L140.98,68.27L149.1,68.37L149.24,68.37L159.39,69.11L159.54,69.13L182.17,71.8L182.31,71.79L198.26,72.47L198.41,72.5L205.08,74.63L205.23,74.69L217.84,79.31L217.99,79.33L223.79,79.57L223.94,79.56L241.05,77.63L241.2,77.61L249.9,75.09L250.04,75.03L264.26,70.04L264.4,70.02L270.49,69.56L270.64,69.56L283.55,70.73L283.69,70.76L296.31,71.85L296.45,71.84L303.27,70.64L303.42,70.6L317.48,67.89L317.63,67.88L332.42,66.12L332.57,66.1L349.25,64.55L349.39,64.56L363.17,65.31L363.32,65.32L375.64,65.43L375.79,65.42L396.24,63.98L396.38,63.95L402.19,62.45L402.33,62.4L421.19,57.71L421.33,57.7L429.45,58.42L429.6,58.44L439.89,59.82L440.04,59.82L446.42,58.66L446.57,58.62L461.51,54.67L461.65,54.65L476.01,54.4L476.15,54.4L485.29,55.13L485.44,55.16L494.86,57.86L495.01,57.93L500.81,61.21L500.96,61.31L509.66,68.41L509.8,68.54L526.92,85.52L527.06,85.69L532.72,92.8L532.86,93L539.68,102.81L539.82,103.03L561.44,133.14L561.58,133.3L578.55,152.42L578.69,152.48L580,152.75L580,138.01L578.55,137.66L578.4,137.59L561.44,117.8L561.29,117.63L538.66,84.42L538.52,84.19L530.54,72.92L530.4,72.74L511.83,53.27L511.69,53.13L504.29,46.25L504.15,46.13L497.91,41.71L497.76,41.63L492.4,39.39L492.25,39.35L482.25,37.6L482.1,37.59L463.1,38.11L462.96,38.12L455.12,39.45L454.98,39.49L444.1,43.16L443.96,43.2L438.44,43.94L438.3,43.94L430.9,42.74L430.76,42.71L422.93,41.42L422.78,41.42L400.16,45.78L400.01,45.81L378.69,46.42L378.54,46.43L363.75,46.65L363.61,46.64L348.96,45.89L348.81,45.89L330.68,47.58L330.54,47.6L318.5,48.76L318.35,48.77L304,51.69L303.85,51.73L296.45,52.96L296.31,52.97L286.01,52.29L285.87,52.27L268.75,50.38L268.61,50.37L263.1,50.56L262.95,50.59L253.52,54.23L253.38,54.3L244.97,57.98L244.82,58.02L231.33,59.35L231.19,59.37L222.92,60.11L222.78,60.11L217.84,59.23L217.7,59.18L206.24,52.25L206.1,52.15L197.54,47.05L197.39,46.98L185.79,40.13L185.65,40.03L167.95,26.51L167.81,26.39L162.59,22.98L162.44,22.91L157.07,21.47L156.93,21.45L149.1,21.8L148.95,21.83L141.56,22.82L141.41,22.81L128.21,18.56L128.07,18.51L120.82,16.51L120.67,16.48L113.13,16.01L112.98,16.01L107.04,16.5L106.89,16.53L99.35,19.47L99.2,19.54L90.65,22.37L90.5,22.4L85.43,24.11L85.28,24.18L81.08,26.8L80.93,26.91L75.13,32.42L74.98,32.58L69.33,39.38L69.18,39.57L62.95,48.82L62.8,49.05L43.95,79.89L43.8,80.14L37.13,92.66L36.98,92.95L30.02,106.5L29.88,106.77L20.31,122.43L20.16,122.64L10.73,136.97L10.59,137.22L4.93,146.83L4.79,147.04L2.18,150L2.03,150.11L0,150.9Z" style="fill: rgb(75, 0, 130); fill-opacity: 0.15; stroke-width: 0;"/></g></g><g class="errorbars"/><g class="lines"><path class="js-line" d="M0,150.9L2.03,150.11L2.18,150L4.79,147.04L4.93,146.83L10.59,137.22L10.73,136.97L20.16,122.64L20.31,122.43L29.88,106.77L30.02,106.5L36.98,92.95L37.13,92.66L43.8,80.14L43.95,79.89L62.8,49.05L62.95,48.82L69.18,39.57L69.33,39.38L74.98,32.58L75.13,32.42L80.93,26.91L81.08,26.8L85.28,24.18L85.43,24.11L90.5,22.4L90.65,22.37L99.2,19.54L99.35,19.47L106.89,16.53L107.04,16.5L112.98,16.01L113.13,16.01L120.67,16.48L120.82,16.51L128.07,18.51L128.21,18.56L141.41,22.81L141.56,22.82L148.95,21.83L149.1,21.8L156.93,21.45L157.07,21.47L162.44,22.91L162.59,22.98L167.81,26.39L167.95,26.51L185.65,40.03L185.79,40.13L197.39,46.98L197.54,47.05L206.1,52.15L206.24,52.25L217.7,59.18L217.84,59.23L222.78,60.11L222.92,60.11L231.19,59.37L231.33,59.35L244.82,58.02L244.97,57.98L253.38,54.3L253.52,54.23L262.95,50.59L263.1,50.56L268.61,50.37L268.75,50.38L285.87,52.27L286.01,52.29L296.31,52.97L296.45,52.96L303.85,51.73L304,51.69L318.35,48.77L318.5,48.76L330.54,47.6L330.68,47.58L348.81,45.89L348.96,45.89L363.61,46.64L363.75,46.65L378.54,46.43L378.69,46.42L400.01,45.81L400.16,45.78L422.78,41.42L422.93,41.42L430.76,42.71L430.9,42.74L438.3,43.94L438.44,43.94L443.96,43.2L444.1,43.16L454.98,39.49L455.12,39.45L462.96,38.12L463.1,38.11L482.1,37.59L482.25,37.6L492.25,39.35L492.4,39.39L497.76,41.63L497.91,41.71L504.15,46.13L504.29,46.25L511.69,53.13L511.83,53.27L530.4,72.74L530.54,72.92L538.52,84.19L538.66,84.42L561.29,117.63L561.44,117.8L578.4,137.59L578.55,137.66L580,138.01" style="vector-effect: none; fill: none; stroke: rgb(99, 110, 250); stroke-opacity: 1; stroke-width: 0px; opacity: 1;"/></g><g class="points"/><g class="text"/></g><g class="trace scatter trace22bd51" style="stroke-miterlimit: 2;"><g class="fills"/><g class="errorbars"/><g class="lines"><path class="js-line" d="M0,173.64L2.32,172.78L2.47,172.67L5.51,169.41L5.66,169.21L12.47,158.71L12.62,158.48L34.81,123.46L34.95,123.25L45.4,109.18L45.54,109.01L60.19,93.48L60.34,93.34L72.66,82.07L72.81,81.95L79.33,77.32L79.48,77.23L88.47,72.34L88.62,72.27L96.74,69.04L96.88,68.99L114.58,63.33L114.72,63.32L121.83,63.55L121.98,63.58L128.79,65.25L128.94,65.3L140.83,68.26L140.98,68.27L149.1,68.37L149.24,68.37L159.39,69.11L159.54,69.13L182.17,71.8L182.31,71.79L198.26,72.47L198.41,72.5L205.08,74.63L205.23,74.69L217.84,79.31L217.99,79.33L223.79,79.57L223.94,79.56L241.05,77.63L241.2,77.61L249.9,75.09L250.04,75.03L264.26,70.04L264.4,70.02L270.49,69.56L270.64,69.56L283.55,70.73L283.69,70.76L296.31,71.85L296.45,71.84L303.27,70.64L303.42,70.6L317.48,67.89L317.63,67.88L332.42,66.12L332.57,66.1L349.25,64.55L349.39,64.56L363.17,65.31L363.32,65.32L375.64,65.43L375.79,65.42L396.24,63.98L396.38,63.95L402.19,62.45L402.33,62.4L421.19,57.71L421.33,57.7L429.45,58.42L429.6,58.44L439.89,59.82L440.04,59.82L446.42,58.66L446.57,58.62L461.51,54.67L461.65,54.65L476.01,54.4L476.15,54.4L485.29,55.13L485.44,55.16L494.86,57.86L495.01,57.93L500.81,61.21L500.96,61.31L509.66,68.41L509.8,68.54L526.92,85.52L527.06,85.69L532.72,92.8L532.86,93L539.68,102.81L539.82,103.03L561.44,133.14L561.58,133.3L578.55,152.42L578.69,152.48L580,152.75" style="vector-effect: none; fill: none; stroke: rgb(239, 85, 59); stroke-opacity: 1; stroke-width: 0px; opacity: 1;"/></g><g class="points"/><g class="text"/></g><g class="trace scatter trace530657" style="stroke-miterlimit: 2; opacity: 1;"><g class="fills"/><g class="errorbars"/><g class="lines"><path class="js-line" d="M0,162.27L2.18,161.44L2.32,161.33L4.93,158.49L5.08,158.3L24.37,128.08L24.51,127.84L33.5,112.7L33.65,112.44L44.38,94.79L44.53,94.58L60.77,72.67L60.92,72.48L69.91,61.52L70.05,61.36L78.46,53.45L78.61,53.33L85.14,49.13L85.28,49.06L94.13,45.73L94.27,45.69L111.97,39.87L112.11,39.86L118.78,39.72L118.93,39.74L125.31,40.93L125.46,40.97L142.28,45.58L142.43,45.58L160.12,45.64L160.27,45.67L167.08,48.08L167.23,48.15L181.88,54.65L182.02,54.7L195.8,59.14L195.94,59.19L202.47,61.68L202.62,61.75L218.86,69.51L219,69.54L225.53,69.7L225.68,69.69L245.84,67.09L245.98,67.04L254.97,63.26L255.12,63.19L263.68,60.31L263.82,60.28L270.78,60.08L270.93,60.09L287.75,62L287.9,62.02L296.16,62.42L296.31,62.41L303.71,61.15L303.85,61.11L319.95,58.21L320.1,58.2L329.81,57.12L329.96,57.1L343.3,55.56L343.45,55.55L352.58,55.33L352.73,55.34L378.98,55.84L379.12,55.83L399.72,54.53L399.86,54.49L410.02,51.7L410.16,51.66L420.9,49.57L421.04,49.57L426.84,49.93L426.99,49.96L441.49,51.71L441.64,51.69L449.18,49.64L449.32,49.59L460.64,46.56L460.78,46.54L469.48,46.13L469.63,46.13L486.31,46.72L486.45,46.75L492.98,48.35L493.12,48.4L498.78,51.06L498.92,51.15L505.16,55.74L505.31,55.86L516.91,66.78L517.05,66.92L527.35,77.53L527.5,77.7L536.92,90.26L537.07,90.47L555.63,118.27L555.78,118.47L564.05,128.44L564.19,128.61L571.44,137.42L571.59,137.61L577.53,144.45L577.68,144.55L580,145.38" style="vector-effect: none; fill: none; stroke: rgb(75, 0, 130); stroke-opacity: 1; stroke-width: 3px; opacity: 1;"/></g><g class="points"/><g class="text"/></g><g class="trace scatter trace458b91" style="stroke-miterlimit: 2;"><g class="fills"><g><path class="js-fill" d="M0,231.17L2.32,230.39L2.47,230.3L5.66,227.17L5.8,226.99L11.6,218.86L11.75,218.65L35.82,182.1L35.97,181.93L41.19,177.07L41.34,176.96L46.56,174.13L46.7,174.07L68.89,166.23L69.04,166.15L75.85,161.91L76,161.81L93.69,148.26L93.84,148.14L103.41,139L103.56,138.83L119.8,120.63L119.94,120.53L123.86,119.02L124.01,119.01L127.49,119.49L127.63,119.54L131.55,121.63L131.69,121.72L151.85,136.05L152,136.17L159.97,143.38L160.12,143.52L181.73,164.07L181.88,164.2L202.47,183.73L202.62,183.85L207.69,187.56L207.84,187.64L212.48,189.75L212.62,189.79L216.97,190.47L217.12,190.47L222.2,189.72L222.34,189.68L232.64,185.5L232.78,185.43L247.87,178.62L248.01,178.53L253.09,174.64L253.23,174.5L258.31,169.12L258.45,168.95L270.64,155.95L270.78,155.85L274.84,154L274.99,153.97L279.63,153.75L279.77,153.76L305.16,155.69L305.3,155.73L312.26,158.35L312.41,158.42L331.26,167.31L331.41,167.39L340.69,173.54L340.84,173.64L351.57,181.14L351.71,181.22L357.22,183.67L357.37,183.72L364.04,184.79L364.19,184.8L370.42,184.29L370.57,184.26L378.4,181.9L378.54,181.84L384.93,178.95L385.07,178.87L392.9,174.4L393.05,174.31L402.04,167.67L402.19,167.53L409.15,159.55L409.29,159.36L420.75,145.45L420.9,145.34L424.81,143.4L424.96,143.36L429.31,143.21L429.45,143.23L453.82,146.98L453.96,147.03L461.51,150.82L461.65,150.91L474.27,157.01L474.41,157.06L482.54,160.56L482.68,160.64L488.05,164.7L488.19,164.83L503.28,177.7L503.42,177.77L508.06,179.42L508.21,179.45L513.43,179.79L513.57,179.78L518.94,178.34L519.08,178.27L523.73,175.61L523.87,175.52L538.52,165.98L538.66,165.94L542.29,165.7L542.44,165.72L545.77,167.01L545.92,167.1L549.98,170.59L550.12,170.75L555.34,177.41L555.49,177.62L568.4,194.76L568.54,194.94L578.4,205.56L578.55,205.63L580,205.95L580,197.32L578.11,196.76L577.97,196.68L569.7,187.2L569.56,187.01L555.34,167.37L555.2,167.15L549.83,159.94L549.69,159.78L546.06,156.48L545.92,156.38L542.87,155.02L542.73,154.98L539.1,155.12L538.95,155.16L523.44,166.24L523.29,166.35L518.65,169.15L518.5,169.22L513.57,170.63L513.43,170.64L508.06,170.32L507.92,170.29L502.55,168.23L502.41,168.15L488.77,155.96L488.63,155.82L483.84,151.76L483.7,151.65L470.93,145.95L470.79,145.89L463.25,141.91L463.1,141.82L456.57,137.96L456.43,137.89L451.06,135.7L450.92,135.65L443.38,134.66L443.23,134.66L434.96,133.75L434.82,133.72L428.87,132.58L428.73,132.56L424.67,132.82L424.52,132.87L421.19,134.55L421.04,134.65L405.96,153.74L405.81,153.92L400.88,159.17L400.74,159.3L392.18,165.66L392.03,165.75L382.9,171.14L382.75,171.22L374.48,174.75L374.34,174.8L367.38,176.48L367.23,176.49L361.29,176.4L361.14,176.38L355.19,174.78L355.05,174.72L335.47,161.25L335.32,161.14L323,154.21L322.85,154.14L306.32,146.37L306.17,146.32L299.93,144.75L299.79,144.73L292.39,144.48L292.25,144.48L278.61,143.4L278.47,143.39L273.97,143.86L273.83,143.91L270.06,145.97L269.91,146.08L264.26,151.79L264.11,151.97L255.55,162.18L255.41,162.33L250.33,166.97L250.19,167.08L228.72,177.17L228.58,177.24L221.76,179.83L221.62,179.87L216.83,180.43L216.68,180.42L212.77,179.52L212.62,179.46L208.13,176.59L207.98,176.47L196.96,163.5L196.81,163.31L185.36,150.92L185.21,150.78L168.53,133.92L168.39,133.75L159.68,124.62L159.54,124.48L135.9,105.5L135.75,105.38L130.24,101.63L130.1,101.55L126.18,100.02L126.04,99.99L122.85,100.05L122.7,100.08L119.22,101.88L119.07,101.99L105.44,119.9L105.3,120.09L95.29,131.75L95.14,131.89L81.22,143.97L81.08,144.08L74.4,148.94L74.26,149.03L66.28,153.58L66.14,153.66L48.01,160.18L47.86,160.24L43.22,162.73L43.08,162.83L37.85,167.99L37.71,168.17L28.86,181.55L28.72,181.8L12.33,210.04L12.18,210.27L5.8,220.01L5.66,220.2L2.47,223.58L2.32,223.68L0,224.52Z" style="fill: rgb(0, 0, 255); fill-opacity: 0.15; stroke-width: 0;"/></g></g><g class="errorbars"/><g class="lines"><path class="js-line" d="M0,224.52L2.32,223.68L2.47,223.58L5.66,220.2L5.8,220.01L12.18,210.27L12.33,210.04L28.72,181.8L28.86,181.55L37.71,168.17L37.85,167.99L43.08,162.83L43.22,162.73L47.86,160.24L48.01,160.18L66.14,153.66L66.28,153.58L74.26,149.03L74.4,148.94L81.08,144.08L81.22,143.97L95.14,131.89L95.29,131.75L105.3,120.09L105.44,119.9L119.07,101.99L119.22,101.88L122.7,100.08L122.85,100.05L126.04,99.99L126.18,100.02L130.1,101.55L130.24,101.63L135.75,105.38L135.9,105.5L159.54,124.48L159.68,124.62L168.39,133.75L168.53,133.92L185.21,150.78L185.36,150.92L196.81,163.31L196.96,163.5L207.98,176.47L208.13,176.59L212.62,179.46L212.77,179.52L216.68,180.42L216.83,180.43L221.62,179.87L221.76,179.83L228.58,177.24L228.72,177.17L250.19,167.08L250.33,166.97L255.41,162.33L255.55,162.18L264.11,151.97L264.26,151.79L269.91,146.08L270.06,145.97L273.83,143.91L273.97,143.86L278.47,143.39L278.61,143.4L292.25,144.48L292.39,144.48L299.79,144.73L299.93,144.75L306.17,146.32L306.32,146.37L322.85,154.14L323,154.21L335.32,161.14L335.47,161.25L355.05,174.72L355.19,174.78L361.14,176.38L361.29,176.4L367.23,176.49L367.38,176.48L374.34,174.8L374.48,174.75L382.75,171.22L382.9,171.14L392.03,165.75L392.18,165.66L400.74,159.3L400.88,159.17L405.81,153.92L405.96,153.74L421.04,134.65L421.19,134.55L424.52,132.87L424.67,132.82L428.73,132.56L428.87,132.58L434.82,133.72L434.96,133.75L443.23,134.66L443.38,134.66L450.92,135.65L451.06,135.7L456.43,137.89L456.57,137.96L463.1,141.82L463.25,141.91L470.79,145.89L470.93,145.95L483.7,151.65L483.84,151.76L488.63,155.82L488.77,155.96L502.41,168.15L502.55,168.23L507.92,170.29L508.06,170.32L513.43,170.64L513.57,170.63L518.5,169.22L518.65,169.15L523.29,166.35L523.44,166.24L538.95,155.16L539.1,155.12L542.73,154.98L542.87,155.02L545.92,156.38L546.06,156.48L549.69,159.78L549.83,159.94L555.2,167.15L555.34,167.37L569.56,187.01L569.7,187.2L577.97,196.68L578.11,196.76L580,197.32" style="vector-effect: none; fill: none; stroke: rgb(171, 99, 250); stroke-opacity: 1; stroke-width: 0px; opacity: 1;"/></g><g class="points"/><g class="text"/></g><g class="trace scatter traceabd47e" style="stroke-miterlimit: 2;"><g class="fills"/><g class="errorbars"/><g class="lines"><path class="js-line" d="M0,231.17L2.32,230.39L2.47,230.3L5.66,227.17L5.8,226.99L11.6,218.86L11.75,218.65L35.82,182.1L35.97,181.93L41.19,177.07L41.34,176.96L46.56,174.13L46.7,174.07L68.89,166.23L69.04,166.15L75.85,161.91L76,161.81L93.69,148.26L93.84,148.14L103.41,139L103.56,138.83L119.8,120.63L119.94,120.53L123.86,119.02L124.01,119.01L127.49,119.49L127.63,119.54L131.55,121.63L131.69,121.72L151.85,136.05L152,136.17L159.97,143.38L160.12,143.52L181.73,164.07L181.88,164.2L202.47,183.73L202.62,183.85L207.69,187.56L207.84,187.64L212.48,189.75L212.62,189.79L216.97,190.47L217.12,190.47L222.2,189.72L222.34,189.68L232.64,185.5L232.78,185.43L247.87,178.62L248.01,178.53L253.09,174.64L253.23,174.5L258.31,169.12L258.45,168.95L270.64,155.95L270.78,155.85L274.84,154L274.99,153.97L279.63,153.75L279.77,153.76L305.16,155.69L305.3,155.73L312.26,158.35L312.41,158.42L331.26,167.31L331.41,167.39L340.69,173.54L340.84,173.64L351.57,181.14L351.71,181.22L357.22,183.67L357.37,183.72L364.04,184.79L364.19,184.8L370.42,184.29L370.57,184.26L378.4,181.9L378.54,181.84L384.93,178.95L385.07,178.87L392.9,174.4L393.05,174.31L402.04,167.67L402.19,167.53L409.15,159.55L409.29,159.36L420.75,145.45L420.9,145.34L424.81,143.4L424.96,143.36L429.31,143.21L429.45,143.23L453.82,146.98L453.96,147.03L461.51,150.82L461.65,150.91L474.27,157.01L474.41,157.06L482.54,160.56L482.68,160.64L488.05,164.7L488.19,164.83L503.28,177.7L503.42,177.77L508.06,179.42L508.21,179.45L513.43,179.79L513.57,179.78L518.94,178.34L519.08,178.27L523.73,175.61L523.87,175.52L538.52,165.98L538.66,165.94L542.29,165.7L542.44,165.72L545.77,167.01L545.92,167.1L549.98,170.59L550.12,170.75L555.34,177.41L555.49,177.62L568.4,194.76L568.54,194.94L578.4,205.56L578.55,205.63L580,205.95" style="vector-effect: none; fill: none; stroke: rgb(255, 161, 90); stroke-opacity: 1; stroke-width: 0px; opacity: 1;"/></g><g class="points"/><g class="text"/></g><g class="trace scatter trace39e3b0" style="stroke-miterlimit: 2; opacity: 1;"><g class="fills"/><g class="errorbars"/><g class="lines"><path class="js-line" d="M0,227.85L2.47,226.94L2.61,226.83L5.66,223.68L5.8,223.5L11.89,214.58L12.04,214.36L28.72,186.85L28.86,186.61L36.98,174.95L37.13,174.78L41.77,170.27L41.92,170.16L46.56,167.46L46.7,167.4L55.26,164.77L55.4,164.73L63.67,161.77L63.82,161.7L72.23,157.3L72.37,157.21L78.17,153.27L78.32,153.16L97.46,137.27L97.61,137.13L107.62,125.42L107.76,125.23L118.35,112.15L118.49,112.03L122.56,109.71L122.7,109.67L126.04,109.55L126.18,109.57L129.95,111.06L130.1,111.14L136.77,115.8L136.91,115.91L157.51,131.77L157.65,131.91L170.71,145.12L170.85,145.27L209.43,183.07L209.58,183.15L213.78,184.99L213.93,185.03L218.57,185.4L218.71,185.39L223.36,184.36L223.5,184.31L232.35,180.58L232.49,180.52L248.16,173.46L248.3,173.37L254.25,168.53L254.39,168.39L261.5,160.23L261.65,160.05L269.62,151.5L269.77,151.39L273.83,149.1L273.97,149.06L277.89,148.52L278.03,148.52L284.85,149.27L285,149.28L293.84,149.46L293.99,149.46L301.39,149.93L301.53,149.96L309.07,152.21L309.22,152.27L317.63,156.26L317.77,156.33L334.74,165.07L334.89,165.16L354.9,178.74L355.05,178.8L360.56,180.37L360.71,180.39L366.65,180.66L366.8,180.65L373.9,179.19L374.05,179.14L382.61,175.7L382.75,175.62L391.16,170.88L391.31,170.79L401.46,163.41L401.61,163.28L408.57,155.33L408.71,155.13L421.04,139.94L421.19,139.84L424.96,138.06L425.1,138.02L429.31,137.92L429.45,137.94L453.53,141.72L453.67,141.78L459.04,144.36L459.18,144.44L471.95,151.26L472.09,151.32L481.96,155.37L482.1,155.45L487.76,159.72L487.9,159.85L503.28,173.16L503.42,173.23L509.08,175.06L509.22,175.08L514.59,175.06L514.73,175.04L519.66,173.32L519.81,173.25L527.06,168.3L527.21,168.18L537.36,161.08L537.5,161.02L541.42,160.22L541.57,160.23L544.9,161.16L545.05,161.23L548.96,164.27L549.11,164.42L554.76,171.56L554.91,171.77L569.99,192.15L570.14,192.33L576.81,200.18L576.95,200.3L579.71,201.61L579.85,201.63" style="vector-effect: none; fill: none; stroke: rgb(0, 0, 255); stroke-opacity: 1; stroke-width: 3px; opacity: 1;"/></g><g class="points"/><g class="text"/></g><g class="trace scatter traceaf50cb" style="stroke-miterlimit: 2;"><g class="fills"><g><path class="js-fill" d="M0,264.55L2.18,263.7L2.32,263.59L5.08,260.48L5.22,260.28L10.44,251.71L10.59,251.46L17.98,240.25L18.13,240.07L22.63,235.47L22.77,235.35L28.43,232.07L28.57,232.02L35.68,230.41L35.82,230.39L55.26,227.33L55.4,227.29L77.88,219.98L78.03,219.95L86.88,217.67L87.02,217.61L105.15,211.62L105.3,211.59L114.87,208.52L115.01,208.46L131.26,202.31L131.4,202.3L136.48,203.01L136.62,203.05L144.02,206.3L144.17,206.37L154.46,211.57L154.61,211.66L164.62,219.64L164.76,219.79L177.23,231.72L177.38,231.82L191.88,240.26L192.03,240.33L197.68,242.71L197.83,242.76L205.66,244.68L205.81,244.7L219.29,246.27L219.44,246.28L226.4,245.77L226.55,245.74L236.26,242.97L236.41,242.92L248.59,238.36L248.74,238.3L265.71,230.37L265.85,230.28L285.72,218.36L285.87,218.32L294.28,217.06L294.42,217.04L304.87,215.65L305.01,215.66L310.23,216.39L310.38,216.42L315.74,218.65L315.89,218.73L328.22,225.04L328.36,225.1L337.21,229.43L337.35,229.51L348.67,234.73L348.81,234.78L360.56,237.96L360.71,237.97L366.65,238.06L366.8,238.04L373.03,236.86L373.18,236.81L379.99,233.93L380.14,233.86L397.4,225.5L397.54,225.44L418.72,216.18L418.86,216.1L425.83,211.55L425.97,211.44L435.98,204.94L436.12,204.88L443.67,202.65L443.81,202.62L450.77,201.52L450.92,201.52L457.15,202.26L457.3,202.29L463.25,204.25L463.39,204.32L469.63,208.46L469.77,208.57L488.48,222.99L488.63,223.11L495.01,227.19L495.15,227.27L505.6,231.36L505.74,231.4L513.86,232.82L514.01,232.82L520.54,232.54L520.68,232.52L527.5,230.87L527.64,230.81L533.88,227.95L534.02,227.87L542,222.78L542.15,222.67L551.72,216.67L551.86,216.62L555.63,216.36L555.78,216.39L559.11,217.94L559.26,218.04L563.18,222.01L563.32,222.2L567.09,227.85L567.24,228.09L577.68,245.62L577.82,245.75L580,246.72L580,241.37L578.26,240.68L578.11,240.57L565.5,218.09L565.35,217.85L561.29,212.12L561.15,211.96L557.66,209L557.52,208.92L554.76,208.03L554.62,208.01L550.99,208.66L550.85,208.72L544.61,212.79L544.47,212.9L534.46,220.21L534.31,220.31L526.92,224.25L526.77,224.31L519.52,226.31L519.37,226.33L512.41,226.61L512.27,226.6L503.57,224.65L503.42,224.6L494.28,220.52L494.14,220.43L485,213.4L484.86,213.27L466.87,199.17L466.73,199.06L460.93,195.8L460.78,195.75L452.8,193.97L452.66,193.96L447.44,194.13L447.29,194.15L436.99,196.8L436.85,196.85L425.39,203.98L425.25,204.08L412.92,210.98L412.77,211.04L395.22,218.42L395.08,218.49L385.22,223.94L385.07,224.03L374.92,229.92L374.77,229.99L369.84,231.71L369.7,231.75L363.46,232.48L363.32,232.49L357.08,231.72L356.93,231.68L349.54,229.32L349.39,229.27L336.48,223.1L336.34,223.02L326.33,218.23L326.19,218.17L317.63,213.55L317.48,213.45L312.55,210.7L312.41,210.64L305.59,209.01L305.45,209L298.92,209.16L298.77,209.19L290.8,210.2L290.65,210.21L285.29,210.75L285.14,210.78L272.52,218L272.38,218.1L260.49,225.74L260.34,225.82L237.28,236.38L237.13,236.43L227.56,239.75L227.42,239.79L221.04,240.73L220.89,240.73L208.71,239.39L208.56,239.37L200.59,237.67L200.44,237.63L193.91,234.97L193.77,234.9L177.81,225.16L177.67,225.07L164.18,211.83L164.04,211.68L156.78,205.43L156.64,205.32L139.96,195.97L139.81,195.9L135.17,193.89L135.03,193.85L130.97,193.42L130.82,193.43L115.74,199.42L115.59,199.48L99.06,204.45L98.91,204.49L88.91,208.68L88.76,208.75L72.37,213.46L72.23,213.5L65.27,216.16L65.12,216.22L53.81,220.91L53.66,220.96L40.03,223.34L39.88,223.36L30.89,224.99L30.75,225.03L25.67,227.25L25.53,227.34L19.87,232.33L19.72,232.5L12.47,243.24L12.33,243.5L4.79,256.7L4.64,256.91L2.18,259.71L2.03,259.83L0,260.63Z" style="fill: rgb(148, 0, 211); fill-opacity: 0.15; stroke-width: 0;"/></g></g><g class="errorbars"/><g class="lines"><path class="js-line" d="M0,260.63L2.03,259.83L2.18,259.71L4.64,256.91L4.79,256.7L12.33,243.5L12.47,243.24L19.72,232.5L19.87,232.33L25.53,227.34L25.67,227.25L30.75,225.03L30.89,224.99L39.88,223.36L40.03,223.34L53.66,220.96L53.81,220.91L65.12,216.22L65.27,216.16L72.23,213.5L72.37,213.46L88.76,208.75L88.91,208.68L98.91,204.49L99.06,204.45L115.59,199.48L115.74,199.42L130.82,193.43L130.97,193.42L135.03,193.85L135.17,193.89L139.81,195.9L139.96,195.97L156.64,205.32L156.78,205.43L164.04,211.68L164.18,211.83L177.67,225.07L177.81,225.16L193.77,234.9L193.91,234.97L200.44,237.63L200.59,237.67L208.56,239.37L208.71,239.39L220.89,240.73L221.04,240.73L227.42,239.79L227.56,239.75L237.13,236.43L237.28,236.38L260.34,225.82L260.49,225.74L272.38,218.1L272.52,218L285.14,210.78L285.29,210.75L290.65,210.21L290.8,210.2L298.77,209.19L298.92,209.16L305.45,209L305.59,209.01L312.41,210.64L312.55,210.7L317.48,213.45L317.63,213.55L326.19,218.17L326.33,218.23L336.34,223.02L336.48,223.1L349.39,229.27L349.54,229.32L356.93,231.68L357.08,231.72L363.32,232.49L363.46,232.48L369.7,231.75L369.84,231.71L374.77,229.99L374.92,229.92L385.07,224.03L385.22,223.94L395.08,218.49L395.22,218.42L412.77,211.04L412.92,210.98L425.25,204.08L425.39,203.98L436.85,196.85L436.99,196.8L447.29,194.15L447.44,194.13L452.66,193.96L452.8,193.97L460.78,195.75L460.93,195.8L466.73,199.06L466.87,199.17L484.86,213.27L485,213.4L494.14,220.43L494.28,220.52L503.42,224.6L503.57,224.65L512.27,226.6L512.41,226.61L519.37,226.33L519.52,226.31L526.77,224.31L526.92,224.25L534.31,220.31L534.46,220.21L544.47,212.9L544.61,212.79L550.85,208.72L550.99,208.66L554.62,208.01L554.76,208.03L557.52,208.92L557.66,209L561.15,211.96L561.29,212.12L565.35,217.85L565.5,218.09L578.11,240.57L578.26,240.68L580,241.37" style="vector-effect: none; fill: none; stroke: rgb(255, 102, 146); stroke-opacity: 1; stroke-width: 0px; opacity: 1;"/></g><g class="points"/><g class="text"/></g><g class="trace scatter traceb623d1" style="stroke-miterlimit: 2;"><g class="fills"/><g class="errorbars"/><g class="lines"><path class="js-line" d="M0,264.55L2.18,263.7L2.32,263.59L5.08,260.48L5.22,260.28L10.44,251.71L10.59,251.46L17.98,240.25L18.13,240.07L22.63,235.47L22.77,235.35L28.43,232.07L28.57,232.02L35.68,230.41L35.82,230.39L55.26,227.33L55.4,227.29L77.88,219.98L78.03,219.95L86.88,217.67L87.02,217.61L105.15,211.62L105.3,211.59L114.87,208.52L115.01,208.46L131.26,202.31L131.4,202.3L136.48,203.01L136.62,203.05L144.02,206.3L144.17,206.37L154.46,211.57L154.61,211.66L164.62,219.64L164.76,219.79L177.23,231.72L177.38,231.82L191.88,240.26L192.03,240.33L197.68,242.71L197.83,242.76L205.66,244.68L205.81,244.7L219.29,246.27L219.44,246.28L226.4,245.77L226.55,245.74L236.26,242.97L236.41,242.92L248.59,238.36L248.74,238.3L265.71,230.37L265.85,230.28L285.72,218.36L285.87,218.32L294.28,217.06L294.42,217.04L304.87,215.65L305.01,215.66L310.23,216.39L310.38,216.42L315.74,218.65L315.89,218.73L328.22,225.04L328.36,225.1L337.21,229.43L337.35,229.51L348.67,234.73L348.81,234.78L360.56,237.96L360.71,237.97L366.65,238.06L366.8,238.04L373.03,236.86L373.18,236.81L379.99,233.93L380.14,233.86L397.4,225.5L397.54,225.44L418.72,216.18L418.86,216.1L425.83,211.55L425.97,211.44L435.98,204.94L436.12,204.88L443.67,202.65L443.81,202.62L450.77,201.52L450.92,201.52L457.15,202.26L457.3,202.29L463.25,204.25L463.39,204.32L469.63,208.46L469.77,208.57L488.48,222.99L488.63,223.11L495.01,227.19L495.15,227.27L505.6,231.36L505.74,231.4L513.86,232.82L514.01,232.82L520.54,232.54L520.68,232.52L527.5,230.87L527.64,230.81L533.88,227.95L534.02,227.87L542,222.78L542.15,222.67L551.72,216.67L551.86,216.62L555.63,216.36L555.78,216.39L559.11,217.94L559.26,218.04L563.18,222.01L563.32,222.2L567.09,227.85L567.24,228.09L577.68,245.62L577.82,245.75L580,246.72" style="vector-effect: none; fill: none; stroke: rgb(182, 232, 128); stroke-opacity: 1; stroke-width: 0px; opacity: 1;"/></g><g class="points"/><g class="text"/></g><g class="trace scatter trace1b1343" style="stroke-miterlimit: 2; opacity: 1;"><g class="fills"/><g class="errorbars"/><g class="lines"><path class="js-line" d="M0,262.59L2.18,261.71L2.32,261.59L4.93,258.59L5.08,258.38L20.16,234.88L20.31,234.73L25.09,230.67L25.24,230.57L29.88,228.44L30.02,228.4L36.26,227.11L36.4,227.09L45.4,226.05L45.54,226.04L52.07,224.87L52.21,224.83L60.63,221.82L60.77,221.76L75.56,216.53L75.71,216.5L87.46,213.4L87.6,213.34L101.96,208.04L102.11,208.01L112.4,205.12L112.55,205.07L130.82,197.89L130.97,197.88L135.32,198.3L135.46,198.34L140.4,200.41L140.54,200.49L155.19,208.15L155.33,208.26L162.59,213.98L162.73,214.12L167.95,219.6L168.1,219.77L175.2,226.8L175.35,226.91L182.02,231.2L182.17,231.29L194.64,238.43L194.78,238.5L204.07,241.47L204.21,241.5L217.26,243.36L217.41,243.37L224.08,243.31L224.23,243.3L230.9,241.65L231.04,241.6L247.58,235.31L247.72,235.24L266.29,226.08L266.43,225.99L285.43,214.57L285.58,214.54L291.81,213.8L291.96,213.79L306.9,212.49L307.04,212.51L312.84,214.03L312.99,214.09L349.39,232.13L349.54,232.18L360.27,235.11L360.42,235.13L367.23,235.1L367.38,235.09L374.05,233.42L374.19,233.36L379.41,230.84L379.56,230.76L397.11,221.58L397.25,221.52L418.72,212.14L418.86,212.06L426.26,207.29L426.41,207.18L436.12,200.99L436.27,200.94L442.22,199.19L442.36,199.15L450.63,197.69L450.77,197.69L456.86,198.42L457.01,198.45L462.96,200.4L463.1,200.48L467.74,203.45L467.89,203.55L495.44,224.29L495.59,224.36L501.83,227.08L501.97,227.13L511.54,229.57L511.69,229.59L518.65,229.59L518.79,229.57L526.48,227.82L526.63,227.77L534.02,224.18L534.17,224.1L552.59,212.29L552.73,212.26L556.36,212.47L556.5,212.52L559.55,214.32L559.69,214.44L563.03,218.07L563.18,218.26L568.83,227.56L568.98,227.84L577.39,242.61L577.53,242.76L580,244.05" style="vector-effect: none; fill: none; stroke: rgb(148, 0, 211); stroke-opacity: 1; stroke-width: 3px; opacity: 1;"/></g><g class="points"/><g class="text"/></g><g class="trace scatter trace455d22" style="stroke-miterlimit: 2;"><g class="fills"><g><path class="js-fill" d="M0,304L5.08,303.25L5.22,303.22L13.49,301.79L13.63,301.78L36.55,301.71L36.69,301.71L67.59,300.99L67.73,300.98L91.66,301.55L91.81,301.56L105.59,301.77L105.73,301.76L123.72,301.31L123.86,301.31L139.38,300.62L139.52,300.6L150.11,299.89L150.26,299.9L162.15,301.46L162.3,301.48L172.74,301.83L172.88,301.83L188.98,302.16L189.13,302.16L245.55,301.6L245.69,301.59L262.52,301.21L262.66,301.22L286.16,301.43L286.3,301.41L299.64,300.27L299.79,300.28L307.91,301.31L308.06,301.34L318.21,302.02L318.35,302.02L329.09,302.05L329.23,302.05L340.11,302.04L340.26,302.03L355.92,302.24L356.06,302.25L370.13,301.99L370.28,301.98L403.93,301.53L404.07,301.54L440.19,301.43L440.33,301.41L455.56,300.99L455.7,301L472.53,301.45L472.67,301.45L570.72,302.14L570.86,302.17L580,303.9L580,303.21L570.43,301.15L570.28,301.12L482.68,300.93L482.54,300.92L471.08,300.57L470.93,300.57L454.83,300.17L454.69,300.16L435.98,301.08L435.83,301.1L414.66,301.11L414.51,301.1L391.6,300.38L391.45,300.38L369.41,301.15L369.26,301.16L350.41,301.22L350.26,301.22L338.51,301.26L338.37,301.26L318.35,301.2L318.21,301.21L300.66,299.41L300.52,299.4L284.13,300.73L283.98,300.74L266.58,300.28L266.43,300.27L242.65,300.67L242.5,300.68L168.24,300.96L168.1,300.96L160.27,300.37L160.12,300.34L149.82,298.92L149.68,298.91L139.52,299.57L139.38,299.6L124.01,300.25L123.86,300.24L111.97,300.31L111.82,300.32L100.08,301.07L99.93,301.07L86.73,300.06L86.59,300.05L71.36,299.83L71.21,299.83L49.89,300.51L49.75,300.52L36.11,300.8L35.97,300.8L14.07,300.83L13.92,300.84L4.93,302.48L4.79,302.51L0,303.25Z" style="fill: rgb(207, 184, 124); fill-opacity: 0.15; stroke-width: 0;"/></g></g><g class="errorbars"/><g class="lines"><path class="js-line" d="M0,303.25L4.79,302.51L4.93,302.48L13.92,300.84L14.07,300.83L35.97,300.8L36.11,300.8L49.75,300.52L49.89,300.51L71.21,299.83L71.36,299.83L86.59,300.05L86.73,300.06L99.93,301.07L100.08,301.07L111.82,300.32L111.97,300.31L123.86,300.24L124.01,300.25L139.38,299.6L139.52,299.57L149.68,298.91L149.82,298.92L160.12,300.34L160.27,300.37L168.1,300.96L168.24,300.96L242.5,300.68L242.65,300.67L266.43,300.27L266.58,300.28L283.98,300.74L284.13,300.73L300.52,299.4L300.66,299.41L318.21,301.21L318.35,301.2L338.37,301.26L338.51,301.26L350.26,301.22L350.41,301.22L369.26,301.16L369.41,301.15L391.45,300.38L391.6,300.38L414.51,301.1L414.66,301.11L435.83,301.1L435.98,301.08L454.69,300.16L454.83,300.17L470.93,300.57L471.08,300.57L482.54,300.92L482.68,300.93L570.28,301.12L570.43,301.15L580,303.21" style="vector-effect: none; fill: none; stroke: rgb(254, 203, 82); stroke-opacity: 1; stroke-width: 0px; opacity: 1;"/></g><g class="points"/><g class="text"/></g><g class="trace scatter trace4de46c" style="stroke-miterlimit: 2;"><g class="fills"/><g class="errorbars"/><g class="lines"><path class="js-line" d="M0,304L5.08,303.25L5.22,303.22L13.49,301.79L13.63,301.78L36.55,301.71L36.69,301.71L67.59,300.99L67.73,300.98L91.66,301.55L91.81,301.56L105.59,301.77L105.73,301.76L123.72,301.31L123.86,301.31L139.38,300.62L139.52,300.6L150.11,299.89L150.26,299.9L162.15,301.46L162.3,301.48L172.74,301.83L172.88,301.83L188.98,302.16L189.13,302.16L245.55,301.6L245.69,301.59L262.52,301.21L262.66,301.22L286.16,301.43L286.3,301.41L299.64,300.27L299.79,300.28L307.91,301.31L308.06,301.34L318.21,302.02L318.35,302.02L329.09,302.05L329.23,302.05L340.11,302.04L340.26,302.03L355.92,302.24L356.06,302.25L370.13,301.99L370.28,301.98L403.93,301.53L404.07,301.54L440.19,301.43L440.33,301.41L455.56,300.99L455.7,301L472.53,301.45L472.67,301.45L570.72,302.14L570.86,302.17L580,303.9" style="vector-effect: none; fill: none; stroke: rgb(99, 110, 250); stroke-opacity: 1; stroke-width: 0px; opacity: 1;"/></g><g class="points"/><g class="text"/></g><g class="trace scatter trace4e38d8" style="stroke-miterlimit: 2; opacity: 1;"><g class="fills"/><g class="errorbars"/><g class="lines"><path class="js-line" d="M0,303.63L6.53,302.48L6.67,302.45L13.78,301.31L13.92,301.3L60.92,300.55L61.06,300.54L91.23,300.99L91.37,301.01L105.73,301.29L105.88,301.28L123.72,300.77L123.86,300.78L139.38,300.11L139.52,300.09L147.07,299.33L147.21,299.33L156.2,300.07L156.35,300.1L169.84,301.38L169.98,301.38L244.1,301.14L244.24,301.13L262.81,300.63L262.95,300.64L283.26,301.27L283.4,301.25L301.97,300.01L302.11,300.03L310.96,301.37L311.1,301.39L318.35,301.61L318.5,301.6L378.54,301.18L378.69,301.17L404.22,301.04L404.36,301.04L425.97,301.73L426.12,301.73L440.19,301.01L440.33,300.99L450.34,300.41L450.48,300.41L493.85,301.46L493.99,301.46L570.43,301.61L570.57,301.64L580,303.56" style="vector-effect: none; fill: none; stroke: rgb(207, 184, 124); stroke-opacity: 1; stroke-width: 3px; opacity: 1;"/></g><g class="points"/><g class="text"/></g></g></g></g><g class="zerolinelayer-above"/><path class="xlines-above crisp" d="M79,420.5H661M79,99.5H661" style="fill: none; stroke-width: 1px; stroke: rgb(0, 0, 0); stroke-opacity: 1;"/><path class="ylines-above crisp" d="M79.5,100V420M660.5,100V420" style="fill: none; stroke-width: 1px; stroke: rgb(0, 0, 0); stroke-opacity: 1;"/><g class="overlines-above"/><g class="xaxislayer-above"><path class="xtick ticks crisp" d="M0,421v5" transform="translate(80,0)" style="stroke: rgb(68, 68, 68); stroke-opacity: 1; stroke-width: 1px;"/><path class="xtick ticks crisp" d="M0,421v5" transform="translate(152.5,0)" style="stroke: rgb(68, 68, 68); stroke-opacity: 1; stroke-width: 1px;"/><path class="xtick ticks crisp" d="M0,421v5" transform="translate(225,0)" style="stroke: rgb(68, 68, 68); stroke-opacity: 1; stroke-width: 1px;"/><path class="xtick ticks crisp" d="M0,421v5" transform="translate(297.5,0)" style="stroke: rgb(68, 68, 68); stroke-opacity: 1; stroke-width: 1px;"/><path class="xtick ticks crisp" d="M0,421v5" transform="translate(370,0)" style="stroke: rgb(68, 68, 68); stroke-opacity: 1; stroke-width: 1px;"/><path class="xtick ticks crisp" d="M0,421v5" transform="translate(442.5,0)" style="stroke: rgb(68, 68, 68); stroke-opacity: 1; stroke-width: 1px;"/><path class="xtick ticks crisp" d="M0,421v5" transform="translate(515,0)" style="stroke: rgb(68, 68, 68); stroke-opacity: 1; stroke-width: 1px;"/><path class="xtick ticks crisp" d="M0,421v5" transform="translate(587.5,0)" style="stroke: rgb(68, 68, 68); stroke-opacity: 1; stroke-width: 1px;"/><path class="xtick ticks crisp" d="M0,421v5" transform="translate(660,0)" style="stroke: rgb(68, 68, 68); stroke-opacity: 1; stroke-width: 1px;"/><g class="xtick"><text text-anchor="middle" x="0" y="440.4" transform="translate(80,0)" style="font-family: 'Open Sans', verdana, arial, sans-serif; font-size: 12px; fill: rgb(42, 63, 95); fill-opacity: 1; white-space: pre;">−2000</text></g><g class="xtick"><text text-anchor="middle" x="0" y="440.4" style="font-family: 'Open Sans', verdana, arial, sans-serif; font-size: 12px; fill: rgb(42, 63, 95); fill-opacity: 1; white-space: pre;" transform="translate(152.5,0)">−1500</text></g><g class="xtick"><text text-anchor="middle" x="0" y="440.4" style="font-family: 'Open Sans', verdana, arial, sans-serif; font-size: 12px; fill: rgb(42, 63, 95); fill-opacity: 1; white-space: pre;" transform="translate(225,0)">−1000</text></g><g class="xtick"><text text-anchor="middle" x="0" y="440.4" style="font-family: 'Open Sans', verdana, arial, sans-serif; font-size: 12px; fill: rgb(42, 63, 95); fill-opacity: 1; white-space: pre;" transform="translate(297.5,0)">−500</text></g><g class="xtick"><text text-anchor="middle" x="0" y="440.4" style="font-family: 'Open Sans', verdana, arial, sans-serif; font-size: 12px; fill: rgb(42, 63, 95); fill-opacity: 1; white-space: pre;" transform="translate(370,0)">0</text></g><g class="xtick"><text text-anchor="middle" x="0" y="440.4" style="font-family: 'Open Sans', verdana, arial, sans-serif; font-size: 12px; fill: rgb(42, 63, 95); fill-opacity: 1; white-space: pre;" transform="translate(442.5,0)">500</text></g><g class="xtick"><text text-anchor="middle" x="0" y="440.4" style="font-family: 'Open Sans', verdana, arial, sans-serif; font-size: 12px; fill: rgb(42, 63, 95); fill-opacity: 1; white-space: pre;" transform="translate(515,0)">1000</text></g><g class="xtick"><text text-anchor="middle" x="0" y="440.4" style="font-family: 'Open Sans', verdana, arial, sans-serif; font-size: 12px; fill: rgb(42, 63, 95); fill-opacity: 1; white-space: pre;" transform="translate(587.5,0)">1500</text></g><g class="xtick"><text text-anchor="middle" x="0" y="440.4" style="font-family: 'Open Sans', verdana, arial, sans-serif; font-size: 12px; fill: rgb(42, 63, 95); fill-opacity: 1; white-space: pre;" transform="translate(660,0)">2000</text></g></g><g class="yaxislayer-above"><path class="ytick ticks crisp" d="M79,0h-5" transform="translate(0,409.8)" style="stroke: rgb(68, 68, 68); stroke-opacity: 1; stroke-width: 1px;"/><path class="ytick ticks crisp" d="M79,0h-5" transform="translate(0,358.71)" style="stroke: rgb(68, 68, 68); stroke-opacity: 1; stroke-width: 1px;"/><path class="ytick ticks crisp" d="M79,0h-5" transform="translate(0,307.61)" style="stroke: rgb(68, 68, 68); stroke-opacity: 1; stroke-width: 1px;"/><path class="ytick ticks crisp" d="M79,0h-5" transform="translate(0,256.52)" style="stroke: rgb(68, 68, 68); stroke-opacity: 1; stroke-width: 1px;"/><path class="ytick ticks crisp" d="M79,0h-5" transform="translate(0,205.43)" style="stroke: rgb(68, 68, 68); stroke-opacity: 1; stroke-width: 1px;"/><path class="ytick ticks crisp" d="M79,0h-5" transform="translate(0,154.34)" style="stroke: rgb(68, 68, 68); stroke-opacity: 1; stroke-width: 1px;"/><path class="ytick ticks crisp" d="M79,0h-5" transform="translate(0,103.25)" style="stroke: rgb(68, 68, 68); stroke-opacity: 1; stroke-width: 1px;"/><g class="ytick"><text text-anchor="end" x="71.6" y="4.199999999999999" transform="translate(0,409.8)" style="font-family: 'Open Sans', verdana, arial, sans-serif; font-size: 12px; fill: rgb(42, 63, 95); fill-opacity: 1; white-space: pre;">0</text></g><g class="ytick"><text text-anchor="end" x="71.6" y="4.199999999999999" style="font-family: 'Open Sans', verdana, arial, sans-serif; font-size: 12px; fill: rgb(42, 63, 95); fill-opacity: 1; white-space: pre;" transform="translate(0,358.71)">20k</text></g><g class="ytick"><text text-anchor="end" x="71.6" y="4.199999999999999" style="font-family: 'Open Sans', verdana, arial, sans-serif; font-size: 12px; fill: rgb(42, 63, 95); fill-opacity: 1; white-space: pre;" transform="translate(0,307.61)">40k</text></g><g class="ytick"><text text-anchor="end" x="71.6" y="4.199999999999999" style="font-family: 'Open Sans', verdana, arial, sans-serif; font-size: 12px; fill: rgb(42, 63, 95); fill-opacity: 1; white-space: pre;" transform="translate(0,256.52)">60k</text></g><g class="ytick"><text text-anchor="end" x="71.6" y="4.199999999999999" style="font-family: 'Open Sans', verdana, arial, sans-serif; font-size: 12px; fill: rgb(42, 63, 95); fill-opacity: 1; white-space: pre;" transform="translate(0,205.43)">80k</text></g><g class="ytick"><text text-anchor="end" x="71.6" y="4.199999999999999" style="font-family: 'Open Sans', verdana, arial, sans-serif; font-size: 12px; fill: rgb(42, 63, 95); fill-opacity: 1; white-space: pre;" transform="translate(0,154.34)">100k</text></g><g class="ytick"><text text-anchor="end" x="71.6" y="4.199999999999999" style="font-family: 'Open Sans', verdana, arial, sans-serif; font-size: 12px; fill: rgb(42, 63, 95); fill-opacity: 1; white-space: pre;" transform="translate(0,103.25)">120k</text></g></g><g class="overaxes-above"/></g></g><g class="polarlayer"/><g class="smithlayer"/><g class="ternarylayer"/><g class="geolayer"/><g class="funnelarealayer"/><g class="pielayer"/><g class="iciclelayer"/><g class="treemaplayer"/><g class="sunburstlayer"/><g class="glimages"/><defs id="topdefs-f30946"><g class="clips"/><clipPath id="legendf30946"><rect width="515" height="67" x="1" y="1"/></clipPath></defs><g class="layer-above"><g class="imagelayer"/><g class="shapelayer"><g class="shape-group" data-index="0" clip-path="url(#clipf30946x)"><path data-index="0" fill-rule="evenodd" d="M220.51,420L220.51,100" style="opacity: 1; stroke: rgb(128, 128, 128); stroke-opacity: 1; fill: rgb(0, 0, 0); fill-opacity: 0; stroke-dasharray: 9px, 9px; stroke-width: 2px;"/></g><g class="shape-group" data-index="1" clip-path="url(#clipf30946x)"><path data-index="1" fill-rule="evenodd" d="M297.5,420L297.5,100" style="opacity: 1; stroke: rgb(128, 128, 128); stroke-opacity: 1; fill: rgb(0, 0, 0); fill-opacity: 0; stroke-dasharray: 3px, 3px; stroke-width: 2px;"/></g><g class="shape-group" data-index="2" clip-path="url(#clipf30946x)"><path data-index="2" fill-rule="evenodd" d="M370,420L370,100" style="opacity: 1; stroke: rgb(128, 128, 128); stroke-opacity: 1; fill: rgb(0, 0, 0); fill-opacity: 0; stroke-dasharray: 9px, 9px; stroke-width: 2px;"/></g><g class="shape-group" data-index="3" clip-path="url(#clipf30946x)"><path data-index="3" fill-rule="evenodd" d="M447,420L447,100" style="opacity: 1; stroke: rgb(128, 128, 128); stroke-opacity: 1; fill: rgb(0, 0, 0); fill-opacity: 0; stroke-dasharray: 3px, 3px; stroke-width: 2px;"/></g><g class="shape-group" data-index="4" clip-path="url(#clipf30946x)"><path data-index="4" fill-rule="evenodd" d="M519.5,420L519.5,100" style="opacity: 1; stroke: rgb(128, 128, 128); stroke-opacity: 1; fill: rgb(0, 0, 0); fill-opacity: 0; stroke-dasharray: 9px, 9px; stroke-width: 2px;"/></g><g class="shape-group" data-index="5" clip-path="url(#clipf30946x)"><path data-index="5" fill-rule="evenodd" d="M596.49,420L596.49,100" style="opacity: 1; stroke: rgb(128, 128, 128); stroke-opacity: 1; fill: rgb(0, 0, 0); fill-opacity: 0; stroke-dasharray: 3px, 3px; stroke-width: 2px;"/></g><g class="shape-group" data-index="6" clip-path="url(#clipf30946x)"><path data-index="6" fill-rule="evenodd" d="M370,420L370,100" style="opacity: 1; stroke: rgb(255, 0, 0); stroke-opacity: 1; fill: rgb(0, 0, 0); fill-opacity: 0; stroke-dasharray: 9px, 9px; stroke-width: 2px;"/></g></g></g><g class="infolayer"><g class="legend" pointer-events="all" transform="translate(143,24.599999999999994)"><rect class="bg" shape-rendering="crispEdges" style="stroke: rgb(0, 0, 0); stroke-opacity: 1; fill: rgb(255, 255, 255); fill-opacity: 0.8; stroke-width: 1px;" width="516" height="68" x="0.5" y="0.5"/><g class="scrollbox" transform="" clip-path="url(#legendf30946)"><g class="groups"><g class="traces" transform="translate(1,15.5)" style="opacity: 1;"><text class="legendtext" text-anchor="start" x="40" y="4.680000000000001" style="font-family: 'Open Sans', verdana, arial, sans-serif; font-size: 12px; fill: rgb(42, 63, 95); fill-opacity: 1; white-space: pre;">Gamma</text><g class="layers" style="opacity: 1;"><g class="legendfill"/><g class="legendlines"><path class="js-line" d="M5,0h30" style="fill: none; stroke: rgb(207, 184, 124); stroke-opacity: 1; stroke-width: 3px;"/></g><g class="legendsymbols"><g class="legendpoints"/></g></g><rect class="legendtoggle" x="0" y="-9.5" width="89.5625" height="19" style="fill: rgb(0, 0, 0); fill-opacity: 0;"/></g><g class="traces" transform="translate(132.8671875,15.5)" style="opacity: 1;"><text class="legendtext" text-anchor="start" x="40" y="4.680000000000001" style="font-family: 'Open Sans', verdana, arial, sans-serif; font-size: 12px; fill: rgb(42, 63, 95); fill-opacity: 1; white-space: pre;">Gamma_down</text><g class="layers"><g class="legendfill"><path class="js-fill" d="M5,-2h30v6h-30z" style="stroke-width: 0; fill: rgb(207, 184, 124); fill-opacity: 0.15;"/></g><g class="legendlines"><path class="js-line" d="M5,-2h30" style="fill: none; stroke: rgb(99, 110, 250); stroke-opacity: 1; stroke-width: 0px;"/></g><g class="legendsymbols"><g class="legendpoints"/></g></g><rect class="legendtoggle" x="0" y="-9.5" width="129.3671875" height="19" style="fill: rgb(0, 0, 0); fill-opacity: 0;"/></g><g class="traces" transform="translate(264.734375,15.5)" style="opacity: 1;"><text class="legendtext" text-anchor="start" x="40" y="4.680000000000001" style="font-family: 'Open Sans', verdana, arial, sans-serif; font-size: 12px; fill: rgb(42, 63, 95); fill-opacity: 1; white-space: pre;">Gamma_up</text><g class="layers"><g class="legendfill"/><g class="legendlines"><path class="js-line" d="M5,0h30" style="fill: none; stroke: rgb(254, 203, 82); stroke-opacity: 1; stroke-width: 0px;"/></g><g class="legendsymbols"><g class="legendpoints"/></g></g><rect class="legendtoggle" x="0" y="-9.5" width="112.265625" height="19" style="fill: rgb(0, 0, 0); fill-opacity: 0;"/></g><g class="traces" transform="translate(396.6015625,15.5)" style="opacity: 1;"><text class="legendtext" text-anchor="start" x="40" y="4.680000000000001" style="font-family: 'Open Sans', verdana, arial, sans-serif; font-size: 12px; fill: rgb(42, 63, 95); fill-opacity: 1; white-space: pre;">Beta</text><g class="layers" style="opacity: 1;"><g class="legendfill"/><g class="legendlines"><path class="js-line" d="M5,0h30" style="fill: none; stroke: rgb(148, 0, 211); stroke-opacity: 1; stroke-width: 3px;"/></g><g class="legendsymbols"><g class="legendpoints"/></g></g><rect class="legendtoggle" x="0" y="-9.5" width="69.8125" height="19" style="fill: rgb(0, 0, 0); fill-opacity: 0;"/></g><g class="traces" transform="translate(1,34.5)" style="opacity: 1;"><text class="legendtext" text-anchor="start" x="40" y="4.680000000000001" style="font-family: 'Open Sans', verdana, arial, sans-serif; font-size: 12px; fill: rgb(42, 63, 95); fill-opacity: 1; white-space: pre;">Beta_down</text><g class="layers"><g class="legendfill"><path class="js-fill" d="M5,-2h30v6h-30z" style="stroke-width: 0; fill: rgb(148, 0, 211); fill-opacity: 0.15;"/></g><g class="legendlines"><path class="js-line" d="M5,-2h30" style="fill: none; stroke: rgb(182, 232, 128); stroke-opacity: 1; stroke-width: 0px;"/></g><g class="legendsymbols"><g class="legendpoints"/></g></g><rect class="legendtoggle" x="0" y="-9.5" width="109.6171875" height="19" style="fill: rgb(0, 0, 0); fill-opacity: 0;"/></g><g class="traces" transform="translate(132.8671875,34.5)" style="opacity: 1;"><text class="legendtext" text-anchor="start" x="40" y="4.680000000000001" style="font-family: 'Open Sans', verdana, arial, sans-serif; font-size: 12px; fill: rgb(42, 63, 95); fill-opacity: 1; white-space: pre;">Beta_up</text><g class="layers"><g class="legendfill"/><g class="legendlines"><path class="js-line" d="M5,0h30" style="fill: none; stroke: rgb(255, 102, 146); stroke-opacity: 1; stroke-width: 0px;"/></g><g class="legendsymbols"><g class="legendpoints"/></g></g><rect class="legendtoggle" x="0" y="-9.5" width="92.515625" height="19" style="fill: rgb(0, 0, 0); fill-opacity: 0;"/></g><g class="traces" transform="translate(264.734375,34.5)" style="opacity: 1;"><text class="legendtext" text-anchor="start" x="40" y="4.680000000000001" style="font-family: 'Open Sans', verdana, arial, sans-serif; font-size: 12px; fill: rgb(42, 63, 95); fill-opacity: 1; white-space: pre;">Alpha</text><g class="layers" style="opacity: 1;"><g class="legendfill"/><g class="legendlines"><path class="js-line" d="M5,0h30" style="fill: none; stroke: rgb(0, 0, 255); stroke-opacity: 1; stroke-width: 3px;"/></g><g class="legendsymbols"><g class="legendpoints"/></g></g><rect class="legendtoggle" x="0" y="-9.5" width="76.2734375" height="19" style="fill: rgb(0, 0, 0); fill-opacity: 0;"/></g><g class="traces" transform="translate(396.6015625,34.5)" style="opacity: 1;"><text class="legendtext" text-anchor="start" x="40" y="4.680000000000001" style="font-family: 'Open Sans', verdana, arial, sans-serif; font-size: 12px; fill: rgb(42, 63, 95); fill-opacity: 1; white-space: pre;">Alpha_down</text><g class="layers"><g class="legendfill"><path class="js-fill" d="M5,-2h30v6h-30z" style="stroke-width: 0; fill: rgb(0, 0, 255); fill-opacity: 0.15;"/></g><g class="legendlines"><path class="js-line" d="M5,-2h30" style="fill: none; stroke: rgb(255, 161, 90); stroke-opacity: 1; stroke-width: 0px;"/></g><g class="legendsymbols"><g class="legendpoints"/></g></g><rect class="legendtoggle" x="0" y="-9.5" width="116.078125" height="19" style="fill: rgb(0, 0, 0); fill-opacity: 0;"/></g><g class="traces" transform="translate(1,53.5)" style="opacity: 1;"><text class="legendtext" text-anchor="start" x="40" y="4.680000000000001" style="font-family: 'Open Sans', verdana, arial, sans-serif; font-size: 12px; fill: rgb(42, 63, 95); fill-opacity: 1; white-space: pre;">Alpha_up</text><g class="layers"><g class="legendfill"/><g class="legendlines"><path class="js-line" d="M5,0h30" style="fill: none; stroke: rgb(171, 99, 250); stroke-opacity: 1; stroke-width: 0px;"/></g><g class="legendsymbols"><g class="legendpoints"/></g></g><rect class="legendtoggle" x="0" y="-9.5" width="98.9765625" height="19" style="fill: rgb(0, 0, 0); fill-opacity: 0;"/></g><g class="traces" transform="translate(132.8671875,53.5)" style="opacity: 1;"><text class="legendtext" text-anchor="start" x="40" y="4.680000000000001" style="font-family: 'Open Sans', verdana, arial, sans-serif; font-size: 12px; fill: rgb(42, 63, 95); fill-opacity: 1; white-space: pre;">Theta</text><g class="layers" style="opacity: 1;"><g class="legendfill"/><g class="legendlines"><path class="js-line" d="M5,0h30" style="fill: none; stroke: rgb(75, 0, 130); stroke-opacity: 1; stroke-width: 3px;"/></g><g class="legendsymbols"><g class="legendpoints"/></g></g><rect class="legendtoggle" x="0" y="-9.5" width="77.078125" height="19" style="fill: rgb(0, 0, 0); fill-opacity: 0;"/></g><g class="traces" transform="translate(264.734375,53.5)" style="opacity: 1;"><text class="legendtext" text-anchor="start" x="40" y="4.680000000000001" style="font-family: 'Open Sans', verdana, arial, sans-serif; font-size: 12px; fill: rgb(42, 63, 95); fill-opacity: 1; white-space: pre;">Theta_down</text><g class="layers"><g class="legendfill"><path class="js-fill" d="M5,-2h30v6h-30z" style="stroke-width: 0; fill: rgb(75, 0, 130); fill-opacity: 0.15;"/></g><g class="legendlines"><path class="js-line" d="M5,-2h30" style="fill: none; stroke: rgb(239, 85, 59); stroke-opacity: 1; stroke-width: 0px;"/></g><g class="legendsymbols"><g class="legendpoints"/></g></g><rect class="legendtoggle" x="0" y="-9.5" width="116.875" height="19" style="fill: rgb(0, 0, 0); fill-opacity: 0;"/></g><g class="traces" transform="translate(396.6015625,53.5)" style="opacity: 1;"><text class="legendtext" text-anchor="start" x="40" y="4.680000000000001" style="font-family: 'Open Sans', verdana, arial, sans-serif; font-size: 12px; fill: rgb(42, 63, 95); fill-opacity: 1; white-space: pre;">Theta_up</text><g class="layers"><g class="legendfill"/><g class="legendlines"><path class="js-line" d="M5,0h30" style="fill: none; stroke: rgb(99, 110, 250); stroke-opacity: 1; stroke-width: 0px;"/></g><g class="legendsymbols"><g class="legendpoints"/></g></g><rect class="legendtoggle" x="0" y="-9.5" width="99.7734375" height="19" style="fill: rgb(0, 0, 0); fill-opacity: 0;"/></g></g></g><rect class="scrollbar" rx="20" ry="3" width="0" height="0" style="fill: rgb(128, 139, 164); fill-opacity: 1;" x="0" y="0"/></g><g class="g-gtitle"><text class="gtitle" x="350" y="50" text-anchor="middle" dy="0em" style="opacity: 1; font-family: Arial; font-size: 18px; fill: rgb(0, 0, 0); fill-opacity: 1; white-space: pre;"><tspan class="line" dy="0em" x="350" y="50"><tspan style="font-weight:bold">Figure f006: V3d Band-Specific Omission Dynamics (AAAB)</tspan></tspan><tspan class="line" dy="1.3em" x="350" y="50">​<tspan style="font-size:70%" dy="-0.6em">Relative Power (dB) with ±SEM | 0ms = Omission Onset | 30ms Smoothed</tspan><tspan dy="0.42em">​</tspan></tspan></text></g><g class="g-xtitle"><text class="xtitle" x="370" y="467.200390625" text-anchor="middle" style="opacity: 1; font-family: 'Open Sans', verdana, arial, sans-serif; font-size: 14px; fill: rgb(42, 63, 95); fill-opacity: 1; white-space: pre;">Time from Omission (ms)</text></g><g class="g-ytitle"><text class="ytitle" transform="rotate(-90,22.207421875,260)" x="22.207421875" y="260" text-anchor="middle" style="opacity: 1; font-family: 'Open Sans', verdana, arial, sans-serif; font-size: 14px; fill: rgb(42, 63, 95); fill-opacity: 1; white-space: pre;">Relative Power (dB)</text></g><g class="annotation" data-index="0" style="opacity: 1;"><g class="annotation-text-g" transform="rotate(0,230.01,109.5)"><g class="cursor-pointer" transform="translate(221,100)"><rect class="bg" x="0.5" y="0.5" width="18" height="18" style="stroke-width: 1px; stroke: rgb(0, 0, 0); stroke-opacity: 0; fill: rgb(0, 0, 0); fill-opacity: 0;"/><text class="annotation-text" text-anchor="middle" x="9.43359375" y="14" style="font-family: 'Open Sans', verdana, arial, sans-serif; font-size: 12px; fill: rgb(42, 63, 95); fill-opacity: 1; white-space: pre;">P1</text></g></g></g><g class="annotation" data-index="1" style="opacity: 1;"><g class="annotation-text-g" transform="rotate(0,308,109.5)"><g class="cursor-pointer" transform="translate(298,100)"><rect class="bg" x="0.5" y="0.5" width="20" height="18" style="stroke-width: 1px; stroke: rgb(0, 0, 0); stroke-opacity: 0; fill: rgb(0, 0, 0); fill-opacity: 0;"/><text class="annotation-text" text-anchor="middle" x="10.4375" y="14" style="font-family: 'Open Sans', verdana, arial, sans-serif; font-size: 12px; fill: rgb(42, 63, 95); fill-opacity: 1; white-space: pre;">D1</text></g></g></g><g class="annotation" data-index="2" style="opacity: 1;"><g class="annotation-text-g" transform="rotate(0,379.5,109.5)"><g class="cursor-pointer" transform="translate(370,100)"><rect class="bg" x="0.5" y="0.5" width="18" height="18" style="stroke-width: 1px; stroke: rgb(0, 0, 0); stroke-opacity: 0; fill: rgb(0, 0, 0); fill-opacity: 0;"/><text class="annotation-text" text-anchor="middle" x="9.43359375" y="14" style="font-family: 'Open Sans', verdana, arial, sans-serif; font-size: 12px; fill: rgb(42, 63, 95); fill-opacity: 1; white-space: pre;">P2</text></g></g></g><g class="annotation" data-index="3" style="opacity: 1;"><g class="annotation-text-g" transform="rotate(0,457.5,109.5)"><g class="cursor-pointer" transform="translate(447,100)"><rect class="bg" x="0.5" y="0.5" width="20" height="18" style="stroke-width: 1px; stroke: rgb(0, 0, 0); stroke-opacity: 0; fill: rgb(0, 0, 0); fill-opacity: 0;"/><text class="annotation-text" text-anchor="middle" x="10.4375" y="14" style="font-family: 'Open Sans', verdana, arial, sans-serif; font-size: 12px; fill: rgb(42, 63, 95); fill-opacity: 1; white-space: pre;">D2</text></g></g></g><g class="annotation" data-index="4" style="opacity: 1;"><g class="annotation-text-g" transform="rotate(0,529,109.5)"><g class="cursor-pointer" transform="translate(520,100)"><rect class="bg" x="0.5" y="0.5" width="18" height="18" style="stroke-width: 1px; stroke: rgb(0, 0, 0); stroke-opacity: 0; fill: rgb(0, 0, 0); fill-opacity: 0;"/><text class="annotation-text" text-anchor="middle" x="9.43359375" y="14" style="font-family: 'Open Sans', verdana, arial, sans-serif; font-size: 12px; fill: rgb(42, 63, 95); fill-opacity: 1; white-space: pre;">P3</text></g></g></g><g class="annotation" data-index="5" style="opacity: 1;"><g class="annotation-text-g" transform="rotate(0,606.99,109.5)"><g class="cursor-pointer" transform="translate(596,100)"><rect class="bg" x="0.5" y="0.5" width="20" height="18" style="stroke-width: 1px; stroke: rgb(0, 0, 0); stroke-opacity: 0; fill: rgb(0, 0, 0); fill-opacity: 0;"/><text class="annotation-text" text-anchor="middle" x="10.4375" y="14" style="font-family: 'Open Sans', verdana, arial, sans-serif; font-size: 12px; fill: rgb(42, 63, 95); fill-opacity: 1; white-space: pre;">D3</text></g></g></g><g class="annotation" data-index="6" style="opacity: 1;"><g class="annotation-text-g" transform="rotate(0,419,109.5)"><g class="cursor-pointer" transform="translate(370,100)"><rect class="bg" x="0.5" y="0.5" width="97" height="18" style="stroke-width: 1px; stroke: rgb(0, 0, 0); stroke-opacity: 0; fill: rgb(0, 0, 0); fill-opacity: 0;"/><text class="annotation-text" text-anchor="middle" x="49.171875" y="14" style="font-family: 'Open Sans', verdana, arial, sans-serif; font-size: 12px; fill: rgb(42, 63, 95); fill-opacity: 1; white-space: pre;">OMISSION (P2)</text></g></g></g></g></svg>