<svg class="main-svg" xmlns="http://www.w3.org/2000/svg" xmlns:xlink="http://www.w3.org/1999/xlink" width="700" height="500" style="" viewBox="0 0 700 500"><rect x="0" y="0" width="700" height="500" style="fill: rgb(255, 255, 255); fill-opacity: 1;"/><defs id="defs-58d425"><g class="clips"><clipPath id="clip58d425xyplot" class="plotclip"><rect width="580" height="320"/></clipPath><clipPath class="axesclip" id="clip58d425x"><rect x="80" y="0" width="580" height="500"/></clipPath><clipPath class="axesclip" id="clip58d425y"><rect x="0" y="100" width="700" height="320"/></clipPath><clipPath class="axesclip" id="clip58d425xy"><rect x="80" y="100" width="580" height="320"/></clipPath></g><g class="gradients"/><g class="patterns"/></defs><g class="bglayer"/><g class="layer-below"><g class="imagelayer"/><g class="shapelayer"/></g><g class="cartesianlayer"><g class="subplot xy"><g class="layer-subplot"><g class="shapelayer"/><g class="imagelayer"/></g><g class="minor-gridlayer"><g class="x"/><g class="y"/></g><g class="gridlayer"><g class="x"><path class="xgrid crisp" transform="translate(152.5,0)" d="M0,100v320" style="stroke: rgb(211, 211, 211); stroke-opacity: 1; stroke-width: 1px;"/><path class="xgrid crisp" transform="translate(225,0)" d="M0,100v320" style="stroke: rgb(211, 211, 211); stroke-opacity: 1; stroke-width: 1px;"/><path class="xgrid crisp" transform="translate(297.5,0)" d="M0,100v320" style="stroke: rgb(211, 211, 211); stroke-opacity: 1; stroke-width: 1px;"/><path class="xgrid crisp" transform="translate(442.5,0)" d="M0,100v320" style="stroke: rgb(211, 211, 211); stroke-opacity: 1; stroke-width: 1px;"/><path class="xgrid crisp" transform="translate(515,0)" d="M0,100v320" style="stroke: rgb(211, 211, 211); stroke-opacity: 1; stroke-width: 1px;"/><path class="xgrid crisp" transform="translate(587.5,0)" d="M0,100v320" style="stroke: rgb(211, 211, 211); stroke-opacity: 1; stroke-width: 1px;"/></g><g class="y"><path class="ygrid crisp" transform="translate(0,371.45)" d="M80,0h580" style="stroke: rgb(211, 211, 211); stroke-opacity: 1; stroke-width: 1px;"/><path class="ygrid crisp" transform="translate(0,335.62)" d="M80,0h580" style="stroke: rgb(211, 211, 211); stroke-opacity: 1; stroke-width: 1px;"/><path class="ygrid crisp" transform="translate(0,299.78)" d="M80,0h580" style="stroke: rgb(211, 211, 211); stroke-opacity: 1; stroke-width: 1px;"/><path class="ygrid crisp" transform="translate(0,263.95)" d="M80,0h580" style="stroke: rgb(211, 211, 211); stroke-opacity: 1; stroke-width: 1px;"/><path class="ygrid crisp" transform="translate(0,228.11)" d="M80,0h580" style="stroke: rgb(211, 211, 211); stroke-opacity: 1; stroke-width: 1px;"/><path class="ygrid crisp" transform="translate(0,192.28)" d="M80,0h580" style="stroke: rgb(211, 211, 211); stroke-opacity: 1; stroke-width: 1px;"/><path class="ygrid crisp" transform="translate(0,156.44)" d="M80,0h580" style="stroke: rgb(211, 211, 211); stroke-opacity: 1; stroke-width: 1px;"/><path class="ygrid crisp" transform="translate(0,120.6)" d="M80,0h580" style="stroke: rgb(211, 211, 211); stroke-opacity: 1; stroke-width: 1px;"/></g></g><g class="zerolinelayer"><path class="xzl zl crisp" transform="translate(370,0)" d="M0,100v320" style="stroke: rgb(235, 240, 248); stroke-opacity: 1; stroke-width: 2px;"/><path class="yzl zl crisp" transform="translate(0,407.29)" d="M80,0h580" style="stroke: rgb(235, 240, 248); stroke-opacity: 1; stroke-width: 2px;"/></g><g class="layer-between"><g class="shapelayer"/><g class="imagelayer"/></g><path class="xlines-below"/><path class="ylines-below"/><g class="overlines-below"/><g class="xaxislayer-below"/><g class="yaxislayer-below"/><g class="overaxes-below"/><g class="overplot"><g class="xy" transform="translate(80,100)" clip-path="url(#clip58d425xyplot)"><g class="scatterlayer mlayer"><g class="trace scatter trace23d415" style="stroke-miterlimit: 2;"><g class="fills"><g><path class="js-fill" d="M0,122.77L1.74,121.99L1.89,121.86L4.21,118.72L4.35,118.47L8.12,110.45L8.27,110.11L17.98,87.82L18.13,87.53L23.5,77.79L23.64,77.56L32.2,65.78L32.34,65.59L51.78,41.47L51.92,41.33L58.59,36.13L58.74,36.04L64.69,33.48L64.83,33.44L73.24,31.96L73.39,31.95L81.08,32.16L81.22,32.17L89.2,31.96L89.34,31.94L104.43,31.39L104.57,31.41L112.11,33.16L112.26,33.2L126.91,38.29L127.05,38.37L135.32,41.46L135.46,41.5L142.28,44.08L142.43,44.16L148.81,49.11L148.95,49.24L157.22,57.98L157.36,58.14L171.72,72.51L171.87,72.63L178.1,77.42L178.25,77.52L186.23,81.79L186.37,81.85L198.99,87.68L199.13,87.77L210.74,93.93L210.88,93.98L217.7,95.48L217.84,95.49L223.94,95.15L224.08,95.12L237.57,92.98L237.71,92.99L244.82,93.72L244.97,93.75L260.63,96.66L260.78,96.69L278.47,99L278.61,99.01L284.42,98.48L284.56,98.45L290.65,96.06L290.8,95.98L296.6,91.82L296.74,91.7L310.81,80.06L310.96,79.98L318.21,76.7L318.35,76.65L325.32,75.11L325.46,75.1L330.54,75.17L330.68,75.19L337.21,76.79L337.35,76.84L347.51,81L347.65,81.07L364.19,88L364.33,88.02L368.97,88.23L369.12,88.21L385.65,87.22L385.8,87.24L407.7,89.57L407.84,89.58L425.68,92.51L425.83,92.54L433.51,93.39L433.66,93.38L439.02,92.47L439.17,92.42L444.25,89.88L444.39,89.78L450.92,84.54L451.06,84.41L459.18,78.77L459.33,78.7L465.86,76.27L466,76.23L472.82,75.15L472.96,75.15L478.62,75.52L478.76,75.54L486.45,77.81L486.6,77.87L493.56,81.66L493.7,81.76L499.65,86.2L499.79,86.32L521.84,104.83L521.99,104.94L534.02,115.11L534.17,115.26L542.44,125.81L542.58,126.02L549.25,136.63L549.4,136.88L576.66,184.57L576.81,184.73L579.42,186.5L579.56,186.53L580,186.57L580,180.04L578.98,179.81L578.84,179.75L576.23,177.43L576.08,177.25L555.05,139.3L554.91,139.02L546.64,123.78L546.5,123.54L540.26,113.99L540.12,113.79L534.02,106.2L533.88,106.04L516.33,91.66L516.18,91.55L505.31,81.74L505.16,81.6L495.01,72.72L494.86,72.61L488.34,68.53L488.19,68.46L481.23,65.83L481.09,65.79L474.85,64.83L474.7,64.82L467.16,65.58L467.02,65.62L459.91,68.12L459.76,68.19L447.29,77.72L447.15,77.84L442.65,81.07L442.51,81.15L438.01,82.99L437.86,83.03L432.35,83.55L432.21,83.54L420.46,81.18L420.32,81.15L384.06,76.65L383.91,76.64L369.84,78.1L369.7,78.12L364.04,78.09L363.9,78.06L344.75,69.86L344.61,69.8L335.76,66.27L335.61,66.22L329.38,64.84L329.23,64.83L323,65.18L322.85,65.2L316.47,67.12L316.32,67.18L309.36,70.94L309.22,71.04L297.76,81.44L297.61,81.58L291.52,86.51L291.38,86.6L286.88,88.86L286.74,88.92L281.23,90.2L281.08,90.21L274.99,89.89L274.84,89.87L248.01,85.09L247.87,85.06L237.57,83.62L237.42,83.62L223.65,86L223.5,86.03L216.1,86.23L215.96,86.21L210.01,84.63L209.87,84.57L197.54,77.52L197.39,77.44L186.66,72.36L186.52,72.29L179.55,68.53L179.41,68.44L172.45,62.99L172.3,62.86L165.78,56.52L165.63,56.37L155.19,44.14L155.04,43.97L147.07,34.96L146.92,34.81L141.85,30.7L141.7,30.6L134.16,27.51L134.01,27.47L126.33,23.94L126.18,23.86L110.95,18.04L110.81,18L103.99,16.34L103.85,16.32L93.69,16.3L93.55,16.32L75.71,16.6L75.56,16.6L68.17,17.37L68.02,17.39L62.66,18.9L62.51,18.96L57,22.02L56.85,22.13L51.49,26.78L51.34,26.92L28.86,56.3L28.72,56.51L21.9,67.29L21.76,67.56L8.12,98.96L7.98,99.31L4.35,107.38L4.21,107.65L1.89,110.95L1.74,111.08L0,111.9Z" style="fill: rgb(75, 0, 130); fill-opacity: 0.15; stroke-width: 0;"/></g></g><g class="errorbars"/><g class="lines"><path class="js-line" d="M0,111.9L1.74,111.08L1.89,110.95L4.21,107.65L4.35,107.38L7.98,99.31L8.12,98.96L21.76,67.56L21.9,67.29L28.72,56.51L28.86,56.3L51.34,26.92L51.49,26.78L56.85,22.13L57,22.02L62.51,18.96L62.66,18.9L68.02,17.39L68.17,17.37L75.56,16.6L75.71,16.6L93.55,16.32L93.69,16.3L103.85,16.32L103.99,16.34L110.81,18L110.95,18.04L126.18,23.86L126.33,23.94L134.01,27.47L134.16,27.51L141.7,30.6L141.85,30.7L146.92,34.81L147.07,34.96L155.04,43.97L155.19,44.14L165.63,56.37L165.78,56.52L172.3,62.86L172.45,62.99L179.41,68.44L179.55,68.53L186.52,72.29L186.66,72.36L197.39,77.44L197.54,77.52L209.87,84.57L210.01,84.63L215.96,86.21L216.1,86.23L223.5,86.03L223.65,86L237.42,83.62L237.57,83.62L247.87,85.06L248.01,85.09L274.84,89.87L274.99,89.89L281.08,90.21L281.23,90.2L286.74,88.92L286.88,88.86L291.38,86.6L291.52,86.51L297.61,81.58L297.76,81.44L309.22,71.04L309.36,70.94L316.32,67.18L316.47,67.12L322.85,65.2L323,65.18L329.23,64.83L329.38,64.84L335.61,66.22L335.76,66.27L344.61,69.8L344.75,69.86L363.9,78.06L364.04,78.09L369.7,78.12L369.84,78.1L383.91,76.64L384.06,76.65L420.32,81.15L420.46,81.18L432.21,83.54L432.35,83.55L437.86,83.03L438.01,82.99L442.51,81.15L442.65,81.07L447.15,77.84L447.29,77.72L459.76,68.19L459.91,68.12L467.02,65.62L467.16,65.58L474.7,64.82L474.85,64.83L481.09,65.79L481.23,65.83L488.19,68.46L488.34,68.53L494.86,72.61L495.01,72.72L505.16,81.6L505.31,81.74L516.18,91.55L516.33,91.66L533.88,106.04L534.02,106.2L540.12,113.79L540.26,113.99L546.5,123.54L546.64,123.78L554.91,139.02L555.05,139.3L576.08,177.25L576.23,177.43L578.84,179.75L578.98,179.81L580,180.04" style="vector-effect: none; fill: none; stroke: rgb(99, 110, 250); stroke-opacity: 1; stroke-width: 0px; opacity: 1;"/></g><g class="points"/><g class="text"/></g><g class="trace scatter tracef90ece" style="stroke-miterlimit: 2;"><g class="fills"/><g class="errorbars"/><g class="lines"><path class="js-line" d="M0,122.77L1.74,121.99L1.89,121.86L4.21,118.72L4.35,118.47L8.12,110.45L8.27,110.11L17.98,87.82L18.13,87.53L23.5,77.79L23.64,77.56L32.2,65.78L32.34,65.59L51.78,41.47L51.92,41.33L58.59,36.13L58.74,36.04L64.69,33.48L64.83,33.44L73.24,31.96L73.39,31.95L81.08,32.16L81.22,32.17L89.2,31.96L89.34,31.94L104.43,31.39L104.57,31.41L112.11,33.16L112.26,33.2L126.91,38.29L127.05,38.37L135.32,41.46L135.46,41.5L142.28,44.08L142.43,44.16L148.81,49.11L148.95,49.24L157.22,57.98L157.36,58.14L171.72,72.51L171.87,72.63L178.1,77.42L178.25,77.52L186.23,81.79L186.37,81.85L198.99,87.68L199.13,87.77L210.74,93.93L210.88,93.98L217.7,95.48L217.84,95.49L223.94,95.15L224.08,95.12L237.57,92.98L237.71,92.99L244.82,93.72L244.97,93.75L260.63,96.66L260.78,96.69L278.47,99L278.61,99.01L284.42,98.48L284.56,98.45L290.65,96.06L290.8,95.98L296.6,91.82L296.74,91.7L310.81,80.06L310.96,79.98L318.21,76.7L318.35,76.65L325.32,75.11L325.46,75.1L330.54,75.17L330.68,75.19L337.21,76.79L337.35,76.84L347.51,81L347.65,81.07L364.19,88L364.33,88.02L368.97,88.23L369.12,88.21L385.65,87.22L385.8,87.24L407.7,89.57L407.84,89.58L425.68,92.51L425.83,92.54L433.51,93.39L433.66,93.38L439.02,92.47L439.17,92.42L444.25,89.88L444.39,89.78L450.92,84.54L451.06,84.41L459.18,78.77L459.33,78.7L465.86,76.27L466,76.23L472.82,75.15L472.96,75.15L478.62,75.52L478.76,75.54L486.45,77.81L486.6,77.87L493.56,81.66L493.7,81.76L499.65,86.2L499.79,86.32L521.84,104.83L521.99,104.94L534.02,115.11L534.17,115.26L542.44,125.81L542.58,126.02L549.25,136.63L549.4,136.88L576.66,184.57L576.81,184.73L579.42,186.5L579.56,186.53L580,186.57" style="vector-effect: none; fill: none; stroke: rgb(239, 85, 59); stroke-opacity: 1; stroke-width: 0px; opacity: 1;"/></g><g class="points"/><g class="text"/></g><g class="trace scatter trace41e831" style="stroke-miterlimit: 2; opacity: 1;"><g class="fills"/><g class="errorbars"/><g class="lines"><path class="js-line" d="M0,117.33L1.74,116.54L1.89,116.41L4.35,112.93L4.5,112.66L9.28,101.88L9.43,101.53L18.27,80.86L18.42,80.56L24.08,70.18L24.22,69.95L33.5,57.04L33.65,56.85L46.85,39.29L46.99,39.11L55.11,31.02L55.26,30.9L61.21,27.14L61.35,27.07L68.6,24.93L68.75,24.9L76.87,24.26L77.01,24.27L90.94,24.18L91.08,24.17L101.09,23.59L101.24,23.59L109.07,24.86L109.21,24.9L123.14,29.39L123.28,29.45L136.33,34.96L136.48,35L142.43,37.62L142.57,37.71L147.07,41.25L147.21,41.38L154.75,49.43L154.9,49.6L166.5,62.53L166.65,62.67L173.61,69.05L173.75,69.17L182.17,74.99L182.31,75.07L191.59,79.18L191.74,79.24L199.42,83.33L199.57,83.43L209.58,88.98L209.72,89.04L217.55,90.92L217.7,90.94L223.65,90.6L223.79,90.57L231.19,88.83L231.33,88.8L237.57,88.3L237.71,88.31L244.53,89.06L244.68,89.09L258.02,91.68L258.16,91.71L273.54,94.04L273.68,94.06L282.24,94.48L282.39,94.46L288.48,92.66L288.62,92.59L292.97,90.08L293.12,89.97L299.21,84.74L299.35,84.6L309.94,75.57L310.09,75.48L316.61,72.17L316.76,72.11L324.01,70.14L324.16,70.12L330.1,70.02L330.25,70.04L337.06,71.72L337.21,71.77L347.65,76.16L347.8,76.23L362.16,82.58L362.3,82.62L367.67,83.3L367.81,83.3L377.53,81.91L377.67,81.89L385.8,82.05L385.94,82.07L414.66,85.24L414.8,85.25L424.96,87.34L425.1,87.38L433.95,88.46L434.09,88.45L438.59,87.72L438.73,87.67L442.94,85.79L443.09,85.71L449.76,80.55L449.9,80.42L458.31,74.08L458.46,74L464.12,71.61L464.26,71.56L472.82,69.99L472.96,69.98L480.22,70.7L480.36,70.73L488.34,73.59L488.48,73.66L496.31,78.65L496.46,78.76L506.32,87.45L506.47,87.59L515.46,95.52L515.6,95.64L532.14,108.69L532.28,108.84L537.36,114.56L537.5,114.74L543.6,123.2L543.74,123.42L550.27,134.29L550.41,134.55L562.31,156.67L562.45,156.93L577.53,182.15L577.68,182.27L580,183.3" style="vector-effect: none; fill: none; stroke: rgb(75, 0, 130); stroke-opacity: 1; stroke-width: 3px; opacity: 1;"/></g><g class="points"/><g class="text"/></g><g class="trace scatter trace063b92" style="stroke-miterlimit: 2;"><g class="fills"><g><path class="js-fill" d="M0,204.89L1.89,204.03L2.03,203.9L4.21,201.05L4.35,200.81L7.98,193.38L8.12,193.05L16.82,171.48L16.97,171.11L31.47,134.83L31.62,134.52L36.11,126.34L36.26,126.12L40.18,121.53L40.32,121.4L44.82,118.69L44.96,118.64L50.33,117.6L50.47,117.59L57.87,117.35L58.01,117.35L64.11,118.09L64.25,118.14L68.31,120.24L68.46,120.34L72.95,124.81L73.1,124.99L80.21,135.31L80.35,135.53L87.02,144.01L87.17,144.15L92.68,148.26L92.82,148.35L99.93,153.95L100.08,154.09L115.59,167.97L115.74,168.05L120.09,169.43L120.24,169.46L126.91,171.55L127.05,171.63L135.9,175.45L136.04,175.45L139.09,174.75L139.23,174.68L142.57,172.31L142.72,172.18L148.81,165.09L148.95,164.9L166.07,142.11L166.21,141.87L172.45,130.48L172.59,130.2L181.44,115.6L181.59,115.42L186.23,110.35L186.37,110.22L192.9,105.53L193.04,105.45L198.99,103.12L199.13,103.1L202.18,103.2L202.33,103.24L205.81,104.95L205.95,105.06L210.16,109.03L210.3,109.19L220.17,119.35L220.31,119.45L225.1,121.78L225.24,121.83L231.62,124.71L231.77,124.8L237.57,129.83L237.71,129.99L243.52,136.83L243.66,137.01L260.49,156.79L260.63,156.92L266.72,161.21L266.87,161.29L272.38,163.24L272.52,163.27L277.45,163.53L277.6,163.5L281.23,162.14L281.37,162.05L284.85,158.85L285,158.68L289.49,151.75L289.64,151.49L303.85,125.45L304,125.25L309.65,118.44L309.8,118.28L316.47,109.55L316.61,109.32L331.26,86.2L331.41,86.04L336.63,81.2L336.77,81.09L344.75,76.12L344.9,76.06L348.81,75.18L348.96,75.18L352.15,76.09L352.29,76.17L355.34,78.59L355.48,78.73L360.27,84.57L360.42,84.77L368.1,93.96L368.25,94.1L375.06,99.86L375.21,99.99L381.3,106.59L381.45,106.79L387.83,117.16L387.97,117.42L400.74,141.94L400.88,142.21L409,155.36L409.15,155.56L413.93,160.85L414.08,160.98L418.57,163.87L418.72,163.94L424.23,165.51L424.38,165.54L429.6,165.51L429.74,165.48L432.93,164.12L433.08,164.03L436.7,160.59L436.85,160.41L442.22,151.92L442.36,151.65L456.86,126.46L457.01,126.26L470.64,106.86L470.79,106.63L477.46,96.64L477.6,96.46L483.7,90.28L483.84,90.16L490.22,86.01L490.37,85.93L496.02,83.9L496.17,83.88L500.23,84.06L500.38,84.11L503.71,85.89L503.86,86L508.35,90.8L508.5,90.99L524.45,112.81L524.6,112.98L532.43,123.59L532.57,123.83L537.21,132.62L537.36,132.93L544.76,151.05L544.9,151.44L554.18,178.32L554.33,178.75L563.61,205.48L563.76,205.86L570.28,221.81L570.43,222.13L575.36,231.55L575.5,231.76L578.69,235.02L578.84,235.09L580,235.37L580,230.34L578.69,229.98L578.55,229.9L575.65,226.82L575.5,226.6L569.41,214.26L569.27,213.92L555.63,175.8L555.49,175.35L546.35,147.57L546.21,147.15L539.53,129.22L539.39,128.87L532.72,115.01L532.57,114.76L527.06,106.62L526.92,106.44L508.93,81.65L508.79,81.45L504.87,76.79L504.73,76.66L501.68,74.46L501.54,74.39L497.91,73.55L497.76,73.56L492.25,74.97L492.11,75.04L484.13,80.05L483.99,80.17L479.2,84.82L479.05,84.99L468.9,100.54L468.76,100.78L455.99,119.01L455.85,119.22L446.13,136.52L445.99,136.81L439.89,148.42L439.75,148.66L436.12,153.88L435.98,154.05L432.64,156.92L432.5,157L428.73,158.23L428.58,158.24L423.07,157.88L422.93,157.86L418.72,156.58L418.57,156.52L413.64,153.2L413.5,153.06L407.84,146.02L407.7,145.8L395.22,122.33L395.08,122.04L387.1,106.16L386.96,105.89L381.16,96.32L381.01,96.12L369.99,85.43L369.84,85.3L358.09,71.11L357.95,70.92L354.03,66.6L353.89,66.48L350.7,64.62L350.55,64.57L346.78,64.59L346.64,64.63L340.11,68.12L339.96,68.22L334.02,73.12L333.87,73.26L329.38,78.38L329.23,78.57L323.58,87.53L323.43,87.79L316.9,99.64L316.76,99.88L307.48,112.08L307.33,112.25L301.68,120.14L301.53,120.38L293.41,136.08L293.26,136.38L288.04,146.52L287.9,146.77L283.84,152.45L283.69,152.6L280.21,155.28L280.07,155.35L276.29,156.3L276.15,156.3L270.93,155.62L270.78,155.58L264.98,152.96L264.84,152.87L258.6,147.66L258.45,147.51L244.24,129.62L244.1,129.43L236.7,120.41L236.55,120.26L232.49,116.66L232.35,116.55L225.97,113.39L225.82,113.34L220.75,110.96L220.6,110.87L210.59,100.32L210.45,100.15L205.81,95.59L205.66,95.49L202.76,93.99L202.62,93.94L198.99,93.82L198.84,93.85L193.77,95.93L193.62,96.01L187.68,100.12L187.53,100.25L181.73,106.44L181.59,106.63L166.65,133.51L166.5,133.77L148.08,159.21L147.94,159.4L143.15,165.23L143.01,165.37L139.52,168.04L139.38,168.11L136.19,168.83L136.04,168.82L126.18,163.83L126.04,163.75L119.07,161.63L118.93,161.59L114.58,159.65L114.43,159.55L102.54,147.92L102.4,147.77L88.18,136.06L88.04,135.93L74.98,117.8L74.84,117.59L70.63,112.35L70.49,112.2L66.72,109.23L66.57,109.14L61.79,107.56L61.64,107.54L50.62,107.55L50.47,107.55L45.11,108.48L44.96,108.53L41.34,110.47L41.19,110.58L37.42,114.49L37.27,114.68L32.34,123.27L32.2,123.57L16.1,165.14L15.95,165.52L8.12,185.68L7.98,186.03L4.35,193.8L4.21,194.05L1.89,197.17L1.74,197.3L0,198.07Z" style="fill: rgb(0, 0, 255); fill-opacity: 0.15; stroke-width: 0;"/></g></g><g class="errorbars"/><g class="lines"><path class="js-line" d="M0,198.07L1.74,197.3L1.89,197.17L4.21,194.05L4.35,193.8L7.98,186.03L8.12,185.68L15.95,165.52L16.1,165.14L32.2,123.57L32.34,123.27L37.27,114.68L37.42,114.49L41.19,110.58L41.34,110.47L44.96,108.53L45.11,108.48L50.47,107.55L50.62,107.55L61.64,107.54L61.79,107.56L66.57,109.14L66.72,109.23L70.49,112.2L70.63,112.35L74.84,117.59L74.98,117.8L88.04,135.93L88.18,136.06L102.4,147.77L102.54,147.92L114.43,159.55L114.58,159.65L118.93,161.59L119.07,161.63L126.04,163.75L126.18,163.83L136.04,168.82L136.19,168.83L139.38,168.11L139.52,168.04L143.01,165.37L143.15,165.23L147.94,159.4L148.08,159.21L166.5,133.77L166.65,133.51L181.59,106.63L181.73,106.44L187.53,100.25L187.68,100.12L193.62,96.01L193.77,95.93L198.84,93.85L198.99,93.82L202.62,93.94L202.76,93.99L205.66,95.49L205.81,95.59L210.45,100.15L210.59,100.32L220.6,110.87L220.75,110.96L225.82,113.34L225.97,113.39L232.35,116.55L232.49,116.66L236.55,120.26L236.7,120.41L244.1,129.43L244.24,129.62L258.45,147.51L258.6,147.66L264.84,152.87L264.98,152.96L270.78,155.58L270.93,155.62L276.15,156.3L276.29,156.3L280.07,155.35L280.21,155.28L283.69,152.6L283.84,152.45L287.9,146.77L288.04,146.52L293.26,136.38L293.41,136.08L301.53,120.38L301.68,120.14L307.33,112.25L307.48,112.08L316.76,99.88L316.9,99.64L323.43,87.79L323.58,87.53L329.23,78.57L329.38,78.38L333.87,73.26L334.02,73.12L339.96,68.22L340.11,68.12L346.64,64.63L346.78,64.59L350.55,64.57L350.7,64.62L353.89,66.48L354.03,66.6L357.95,70.92L358.09,71.11L369.84,85.3L369.99,85.43L381.01,96.12L381.16,96.32L386.96,105.89L387.1,106.16L395.08,122.04L395.22,122.33L407.7,145.8L407.84,146.02L413.5,153.06L413.64,153.2L418.57,156.52L418.72,156.58L422.93,157.86L423.07,157.88L428.58,158.24L428.73,158.23L432.5,157L432.64,156.92L435.98,154.05L436.12,153.88L439.75,148.66L439.89,148.42L445.99,136.81L446.13,136.52L455.85,119.22L455.99,119.01L468.76,100.78L468.9,100.54L479.05,84.99L479.2,84.82L483.99,80.17L484.13,80.05L492.11,75.04L492.25,74.97L497.76,73.56L497.91,73.55L501.54,74.39L501.68,74.46L504.73,76.66L504.87,76.79L508.79,81.45L508.93,81.65L526.92,106.44L527.06,106.62L532.57,114.76L532.72,115.01L539.39,128.87L539.53,129.22L546.21,147.15L546.35,147.57L555.49,175.35L555.63,175.8L569.27,213.92L569.41,214.26L575.5,226.6L575.65,226.82L578.55,229.9L578.69,229.98L580,230.34" style="vector-effect: none; fill: none; stroke: rgb(171, 99, 250); stroke-opacity: 1; stroke-width: 0px; opacity: 1;"/></g><g class="points"/><g class="text"/></g><g class="trace scatter trace359d63" style="stroke-miterlimit: 2;"><g class="fills"/><g class="errorbars"/><g class="lines"><path class="js-line" d="M0,204.89L1.89,204.03L2.03,203.9L4.21,201.05L4.35,200.81L7.98,193.38L8.12,193.05L16.82,171.48L16.97,171.11L31.47,134.83L31.62,134.52L36.11,126.34L36.26,126.12L40.18,121.53L40.32,121.4L44.82,118.69L44.96,118.64L50.33,117.6L50.47,117.59L57.87,117.35L58.01,117.35L64.11,118.09L64.25,118.14L68.31,120.24L68.46,120.34L72.95,124.81L73.1,124.99L80.21,135.31L80.35,135.53L87.02,144.01L87.17,144.15L92.68,148.26L92.82,148.35L99.93,153.95L100.08,154.09L115.59,167.97L115.74,168.05L120.09,169.43L120.24,169.46L126.91,171.55L127.05,171.63L135.9,175.45L136.04,175.45L139.09,174.75L139.23,174.68L142.57,172.31L142.72,172.18L148.81,165.09L148.95,164.9L166.07,142.11L166.21,141.87L172.45,130.48L172.59,130.2L181.44,115.6L181.59,115.42L186.23,110.35L186.37,110.22L192.9,105.53L193.04,105.45L198.99,103.12L199.13,103.1L202.18,103.2L202.33,103.24L205.81,104.95L205.95,105.06L210.16,109.03L210.3,109.19L220.17,119.35L220.31,119.45L225.1,121.78L225.24,121.83L231.62,124.71L231.77,124.8L237.57,129.83L237.71,129.99L243.52,136.83L243.66,137.01L260.49,156.79L260.63,156.92L266.72,161.21L266.87,161.29L272.38,163.24L272.52,163.27L277.45,163.53L277.6,163.5L281.23,162.14L281.37,162.05L284.85,158.85L285,158.68L289.49,151.75L289.64,151.49L303.85,125.45L304,125.25L309.65,118.44L309.8,118.28L316.47,109.55L316.61,109.32L331.26,86.2L331.41,86.04L336.63,81.2L336.77,81.09L344.75,76.12L344.9,76.06L348.81,75.18L348.96,75.18L352.15,76.09L352.29,76.17L355.34,78.59L355.48,78.73L360.27,84.57L360.42,84.77L368.1,93.96L368.25,94.1L375.06,99.86L375.21,99.99L381.3,106.59L381.45,106.79L387.83,117.16L387.97,117.42L400.74,141.94L400.88,142.21L409,155.36L409.15,155.56L413.93,160.85L414.08,160.98L418.57,163.87L418.72,163.94L424.23,165.51L424.38,165.54L429.6,165.51L429.74,165.48L432.93,164.12L433.08,164.03L436.7,160.59L436.85,160.41L442.22,151.92L442.36,151.65L456.86,126.46L457.01,126.26L470.64,106.86L470.79,106.63L477.46,96.64L477.6,96.46L483.7,90.28L483.84,90.16L490.22,86.01L490.37,85.93L496.02,83.9L496.17,83.88L500.23,84.06L500.38,84.11L503.71,85.89L503.86,86L508.35,90.8L508.5,90.99L524.45,112.81L524.6,112.98L532.43,123.59L532.57,123.83L537.21,132.62L537.36,132.93L544.76,151.05L544.9,151.44L554.18,178.32L554.33,178.75L563.61,205.48L563.76,205.86L570.28,221.81L570.43,222.13L575.36,231.55L575.5,231.76L578.69,235.02L578.84,235.09L580,235.37" style="vector-effect: none; fill: none; stroke: rgb(255, 161, 90); stroke-opacity: 1; stroke-width: 0px; opacity: 1;"/></g><g class="points"/><g class="text"/></g><g class="trace scatter trace6d2505" style="stroke-miterlimit: 2; opacity: 1;"><g class="fills"/><g class="errorbars"/><g class="lines"><path class="js-line" d="M0,201.48L1.74,200.73L1.89,200.6L4.35,197.3L4.5,197.05L9.14,186.93L9.28,186.58L20.74,157.15L20.89,156.76L31.76,129.36L31.91,129.05L36.69,120.5L36.84,120.29L40.76,115.98L40.9,115.86L45.4,113.44L45.54,113.39L51.78,112.49L51.92,112.49L61.79,112.57L61.93,112.59L66.86,114.3L67.01,114.39L71.36,118.05L71.5,118.21L75.85,123.91L76,124.12L86.01,138.46L86.15,138.61L91.81,143.23L91.95,143.32L99.64,149.31L99.78,149.45L115.88,164.27L116.03,164.34L120.38,165.71L120.53,165.74L126.62,167.73L126.76,167.81L135.75,172.12L135.9,172.13L139.09,171.5L139.23,171.43L142.57,169.05L142.72,168.92L148.37,162.23L148.52,162.04L167.23,136.31L167.37,136.05L182.46,109.93L182.6,109.75L188.11,104.25L188.26,104.14L193.33,100.74L193.48,100.66L198.7,98.52L198.84,98.49L202.76,98.67L202.91,98.72L206.24,100.6L206.39,100.72L210.74,105.09L210.88,105.26L220.31,115.06L220.46,115.16L225.68,117.64L225.82,117.69L231.62,120.38L231.77,120.48L236.26,124.23L236.41,124.37L244.82,134.45L244.97,134.64L257,149.72L257.15,149.87L262.37,154.72L262.52,154.84L268.03,158.22L268.17,158.28L274.12,159.88L274.26,159.9L278.9,159.51L279.05,159.46L282.39,157.58L282.53,157.45L285.72,153.94L285.87,153.74L290.65,145.64L290.8,145.36L301.82,124.2L301.97,123.96L307.19,116.82L307.33,116.65L315.89,105.87L316.03,105.65L322.27,94.71L322.42,94.45L328.07,85.17L328.22,84.97L333.44,78.82L333.58,78.68L340.69,73.03L340.84,72.93L346.64,70.05L346.78,70.01L350.12,69.89L350.26,69.93L353.02,71.21L353.16,71.31L356.93,74.99L357.08,75.16L369.41,90.04L369.55,90.17L380.29,100.21L380.43,100.4L385.22,107.64L385.36,107.89L393.92,124.2L394.06,124.49L407.84,149.89L407.99,150.1L412.92,156.2L413.06,156.35L417.85,159.85L417.99,159.92L422.35,161.44L422.49,161.47L428.58,161.96L428.73,161.94L432.5,160.7L432.64,160.61L435.98,157.75L436.12,157.58L439.89,152.19L440.04,151.94L445.41,141.94L445.55,141.66L456.28,122.93L456.43,122.73L465.71,110.16L465.86,109.94L479.78,89.05L479.92,88.89L485.73,83.78L485.87,83.68L493.27,79.61L493.41,79.55L498.34,78.66L498.49,78.67L501.83,79.61L501.97,79.69L505.31,82.25L505.45,82.4L509.66,87.63L509.8,87.84L526.05,110.02L526.19,110.2L531.99,118.33L532.14,118.57L538.08,130.15L538.23,130.48L546.21,151.09L546.35,151.51L555.05,177.46L555.2,177.9L564.77,205.54L564.92,205.92L571.59,221.91L571.73,222.22L576.95,231.08L577.1,231.23L579.56,232.81L579.71,232.83L580,232.86" style="vector-effect: none; fill: none; stroke: rgb(0, 0, 255); stroke-opacity: 1; stroke-width: 3px; opacity: 1;"/></g><g class="points"/><g class="text"/></g><g class="trace scatter trace8266e7" style="stroke-miterlimit: 2;"><g class="fills"><g><path class="js-fill" d="M0,253.52L2.03,252.71L2.18,252.6L4.93,249.34L5.08,249.12L11.02,238.4L11.17,238.12L19.14,223.82L19.29,223.6L23.93,217.41L24.08,217.25L28.28,213.57L28.43,213.48L32.92,211.15L33.07,211.1L38.87,209.42L39.01,209.39L49.31,208.68L49.46,208.69L62.8,210.35L62.95,210.4L67.3,212.69L67.44,212.79L72.23,217.23L72.37,217.38L90.94,236.77L91.08,236.95L99.49,245.98L99.64,246.1L105.3,249.62L105.44,249.69L111.39,251.65L111.53,251.68L121.4,252.31L121.54,252.3L128.5,251.12L128.65,251.06L133,248.64L133.14,248.53L136.91,244.58L137.06,244.39L142.14,235.86L142.28,235.57L149.82,219.39L149.97,219.07L158.23,201.98L158.38,201.73L163.17,194.36L163.31,194.16L173.17,182.76L173.32,182.64L177.09,180.39L177.23,180.34L180.86,180.11L181.01,180.14L184.78,181.64L184.92,181.72L191.01,186.24L191.16,186.36L212.77,207.35L212.91,207.5L220.89,215.97L221.04,216.13L232.06,227.6L232.2,227.74L241.05,235.01L241.2,235.1L247.58,238.32L247.72,238.38L260.34,242.66L260.49,242.68L266,242.89L266.14,242.88L271.94,241.39L272.09,241.33L277.6,238.18L277.74,238.08L282.97,233.35L283.11,233.19L287.61,227.02L287.75,226.78L292.54,218.12L292.68,217.84L309.22,188.28L309.36,188.07L318.93,175.34L319.08,175.16L324.45,169.42L324.59,169.3L328.94,166.99L329.09,166.96L332.71,167.04L332.86,167.08L337.21,169.02L337.35,169.11L342.14,172.83L342.29,172.96L349.25,180.93L349.39,181.12L366.22,201.59L366.36,201.75L377.38,214.59L377.53,214.78L390.44,231.06L390.58,231.2L398.27,237.41L398.41,237.51L408.57,242.83L408.71,242.88L414.66,244.08L414.8,244.08L418.86,243.63L419.01,243.59L423.36,241.81L423.51,241.73L429.02,237.75L429.16,237.62L433.37,233.34L433.51,233.17L438.01,227L438.15,226.77L446.28,212.94L446.42,212.69L459.18,192.74L459.33,192.56L467.45,182.8L467.6,182.63L473.54,176.59L473.69,176.49L477.02,174.79L477.17,174.75L480.8,174.62L480.94,174.65L484.57,175.84L484.71,175.91L489.64,178.67L489.79,178.76L496.89,184.7L497.04,184.84L512.27,201.13L512.41,201.29L525.76,216.62L525.9,216.79L544.61,237.22L544.76,237.36L564.48,257.56L564.63,257.74L576.37,270.87L576.52,270.97L579.56,272.26L579.71,272.27L580,272.29L580,270.02L576.95,268.97L576.81,268.87L563.47,253.66L563.32,253.48L544.03,233.37L543.89,233.23L531.7,219.74L531.56,219.57L502.26,185.29L502.12,185.13L493.56,176.19L493.41,176.06L487.61,171.74L487.47,171.65L482.25,169.09L482.1,169.05L478.76,168.53L478.62,168.53L474.7,169.82L474.56,169.91L470.5,173.47L470.35,173.63L460.64,185.56L460.49,185.74L449.61,202.69L449.47,202.95L437.14,224.55L436.99,224.77L432.93,230.18L432.79,230.35L427.42,235.55L427.28,235.67L421.77,239.21L421.62,239.27L416.98,240.64L416.83,240.66L412.19,240.48L412.05,240.46L405.81,238.33L405.67,238.27L399.43,234.73L399.28,234.64L392.32,229.16L392.18,229.02L384.78,220.36L384.64,220.16L376.8,209.04L376.66,208.84L370.13,200.8L369.99,200.63L348.52,173.64L348.38,173.44L342,166.02L341.85,165.88L336.77,161.97L336.63,161.89L332.28,160.09L332.13,160.06L328.8,160.14L328.65,160.18L324.59,162.49L324.45,162.61L318.79,169.03L318.64,169.22L310.38,180.82L310.23,181.04L297.32,204.53L297.18,204.81L288.19,222.37L288.04,222.62L283.69,228.96L283.55,229.13L278.76,233.81L278.61,233.93L271.8,238.09L271.65,238.15L266.58,239.58L266.43,239.6L260.49,239.51L260.34,239.49L252.36,237.09L252.22,237.04L243.37,233.14L243.23,233.06L235.97,227.72L235.83,227.59L218.13,208.57L217.99,208.41L195.65,185.02L195.51,184.88L188.11,178L187.97,177.88L183.33,174.75L183.18,174.68L179.99,173.75L179.84,173.74L176.51,174.37L176.36,174.44L172.74,177.04L172.59,177.18L165.49,185.57L165.34,185.76L158.81,195.64L158.67,195.9L149.39,215.92L149.24,216.26L141.99,232.42L141.85,232.72L137.78,239.96L137.64,240.17L133.87,244.65L133.72,244.78L129.66,247.5L129.52,247.56L124.15,249.03L124.01,249.05L115.45,249.2L115.3,249.19L109.36,248.12L109.21,248.08L103.99,245.78L103.85,245.7L98.48,241.7L98.33,241.56L90.94,232.79L90.79,232.59L72.37,212.24L72.23,212.08L67.44,207.3L67.3,207.19L63.67,204.97L63.53,204.91L52.07,202.99L51.92,202.97L43.37,202.84L43.22,202.86L35.97,204.33L35.82,204.38L30.17,206.77L30.02,206.86L25.53,210.3L25.38,210.45L19.43,218.29L19.29,218.53L10.3,235.46L10.15,235.75L5.22,245.01L5.08,245.24L2.18,248.9L2.03,249.02L0,249.87Z" style="fill: rgb(148, 0, 211); fill-opacity: 0.15; stroke-width: 0;"/></g></g><g class="errorbars"/><g class="lines"><path class="js-line" d="M0,249.87L2.03,249.02L2.18,248.9L5.08,245.24L5.22,245.01L10.15,235.75L10.3,235.46L19.29,218.53L19.43,218.29L25.38,210.45L25.53,210.3L30.02,206.86L30.17,206.77L35.82,204.38L35.97,204.33L43.22,202.86L43.37,202.84L51.92,202.97L52.07,202.99L63.53,204.91L63.67,204.97L67.3,207.19L67.44,207.3L72.23,212.08L72.37,212.24L90.79,232.59L90.94,232.79L98.33,241.56L98.48,241.7L103.85,245.7L103.99,245.78L109.21,248.08L109.36,248.12L115.3,249.19L115.45,249.2L124.01,249.05L124.15,249.03L129.52,247.56L129.66,247.5L133.72,244.78L133.87,244.65L137.64,240.17L137.78,239.96L141.85,232.72L141.99,232.42L149.24,216.26L149.39,215.92L158.67,195.9L158.81,195.64L165.34,185.76L165.49,185.57L172.59,177.18L172.74,177.04L176.36,174.44L176.51,174.37L179.84,173.74L179.99,173.75L183.18,174.68L183.33,174.75L187.97,177.88L188.11,178L195.51,184.88L195.65,185.02L217.99,208.41L218.13,208.57L235.83,227.59L235.97,227.72L243.23,233.06L243.37,233.14L252.22,237.04L252.36,237.09L260.34,239.49L260.49,239.51L266.43,239.6L266.58,239.58L271.65,238.15L271.8,238.09L278.61,233.93L278.76,233.81L283.55,229.13L283.69,228.96L288.04,222.62L288.19,222.37L297.18,204.81L297.32,204.53L310.23,181.04L310.38,180.82L318.64,169.22L318.79,169.03L324.45,162.61L324.59,162.49L328.65,160.18L328.8,160.14L332.13,160.06L332.28,160.09L336.63,161.89L336.77,161.97L341.85,165.88L342,166.02L348.38,173.44L348.52,173.64L369.99,200.63L370.13,200.8L376.66,208.84L376.8,209.04L384.64,220.16L384.78,220.36L392.18,229.02L392.32,229.16L399.28,234.64L399.43,234.73L405.67,238.27L405.81,238.33L412.05,240.46L412.19,240.48L416.83,240.66L416.98,240.64L421.62,239.27L421.77,239.21L427.28,235.67L427.42,235.55L432.79,230.35L432.93,230.18L436.99,224.77L437.14,224.55L449.47,202.95L449.61,202.69L460.49,185.74L460.64,185.56L470.35,173.63L470.5,173.47L474.56,169.91L474.7,169.82L478.62,168.53L478.76,168.53L482.1,169.05L482.25,169.09L487.47,171.65L487.61,171.74L493.41,176.06L493.56,176.19L502.12,185.13L502.26,185.29L531.56,219.57L531.7,219.74L543.89,233.23L544.03,233.37L563.32,253.48L563.47,253.66L576.81,268.87L576.95,268.97L580,270.02" style="vector-effect: none; fill: none; stroke: rgb(255, 102, 146); stroke-opacity: 1; stroke-width: 0px; opacity: 1;"/></g><g class="points"/><g class="text"/></g><g class="trace scatter trace2d1756" style="stroke-miterlimit: 2;"><g class="fills"/><g class="errorbars"/><g class="lines"><path class="js-line" d="M0,253.52L2.03,252.71L2.18,252.6L4.93,249.34L5.08,249.12L11.02,238.4L11.17,238.12L19.14,223.82L19.29,223.6L23.93,217.41L24.08,217.25L28.28,213.57L28.43,213.48L32.92,211.15L33.07,211.1L38.87,209.42L39.01,209.39L49.31,208.68L49.46,208.69L62.8,210.35L62.95,210.4L67.3,212.69L67.44,212.79L72.23,217.23L72.37,217.38L90.94,236.77L91.08,236.95L99.49,245.98L99.64,246.1L105.3,249.62L105.44,249.69L111.39,251.65L111.53,251.68L121.4,252.31L121.54,252.3L128.5,251.12L128.65,251.06L133,248.64L133.14,248.53L136.91,244.58L137.06,244.39L142.14,235.86L142.28,235.57L149.82,219.39L149.97,219.07L158.23,201.98L158.38,201.73L163.17,194.36L163.31,194.16L173.17,182.76L173.32,182.64L177.09,180.39L177.23,180.34L180.86,180.11L181.01,180.14L184.78,181.64L184.92,181.72L191.01,186.24L191.16,186.36L212.77,207.35L212.91,207.5L220.89,215.97L221.04,216.13L232.06,227.6L232.2,227.74L241.05,235.01L241.2,235.1L247.58,238.32L247.72,238.38L260.34,242.66L260.49,242.68L266,242.89L266.14,242.88L271.94,241.39L272.09,241.33L277.6,238.18L277.74,238.08L282.97,233.35L283.11,233.19L287.61,227.02L287.75,226.78L292.54,218.12L292.68,217.84L309.22,188.28L309.36,188.07L318.93,175.34L319.08,175.16L324.45,169.42L324.59,169.3L328.94,166.99L329.09,166.96L332.71,167.04L332.86,167.08L337.21,169.02L337.35,169.11L342.14,172.83L342.29,172.96L349.25,180.93L349.39,181.12L366.22,201.59L366.36,201.75L377.38,214.59L377.53,214.78L390.44,231.06L390.58,231.2L398.27,237.41L398.41,237.51L408.57,242.83L408.71,242.88L414.66,244.08L414.8,244.08L418.86,243.63L419.01,243.59L423.36,241.81L423.51,241.73L429.02,237.75L429.16,237.62L433.37,233.34L433.51,233.17L438.01,227L438.15,226.77L446.28,212.94L446.42,212.69L459.18,192.74L459.33,192.56L467.45,182.8L467.6,182.63L473.54,176.59L473.69,176.49L477.02,174.79L477.17,174.75L480.8,174.62L480.94,174.65L484.57,175.84L484.71,175.91L489.64,178.67L489.79,178.76L496.89,184.7L497.04,184.84L512.27,201.13L512.41,201.29L525.76,216.62L525.9,216.79L544.61,237.22L544.76,237.36L564.48,257.56L564.63,257.74L576.37,270.87L576.52,270.97L579.56,272.26L579.71,272.27L580,272.29" style="vector-effect: none; fill: none; stroke: rgb(182, 232, 128); stroke-opacity: 1; stroke-width: 0px; opacity: 1;"/></g><g class="points"/><g class="text"/></g><g class="trace scatter tracef54561" style="stroke-miterlimit: 2; opacity: 1;"><g class="fills"/><g class="errorbars"/><g class="lines"><path class="js-line" d="M0,251.7L2.03,250.87L2.18,250.75L4.93,247.41L5.08,247.18L11.6,235.07L11.75,234.79L18.85,221.76L19,221.53L23.64,215.04L23.79,214.87L28.43,210.68L28.57,210.58L33.94,207.9L34.08,207.85L42.06,205.95L42.21,205.93L50.47,205.8L50.62,205.81L62.37,207.35L62.51,207.4L66.14,209.11L66.28,209.21L70.63,212.97L70.78,213.12L91.95,236.09L92.1,236.28L97.75,242.74L97.9,242.88L102.54,246.51L102.69,246.6L108.2,249.27L108.34,249.32L114.58,250.62L114.72,250.64L124.3,250.55L124.44,250.53L129.52,249.14L129.66,249.07L133.14,246.91L133.29,246.79L137.2,242.5L137.35,242.29L141.85,234.57L141.99,234.28L148.66,219.77L148.81,219.44L158.96,198.05L159.1,197.8L165.78,188.07L165.92,187.89L173.61,179.33L173.75,179.21L177.96,177.02L178.1,176.99L181.3,177.09L181.44,177.12L185.21,178.87L185.36,178.96L191.3,183.64L191.45,183.77L206.97,199.18L207.11,199.32L223.36,216.62L223.5,216.78L237.71,230.94L237.86,231.06L244.39,235.28L244.53,235.35L256.42,240.1L256.57,240.14L262.95,241.36L263.1,241.37L268.61,240.82L268.75,240.79L274.26,238.57L274.41,238.49L280.21,234.34L280.36,234.21L285.43,228.48L285.58,228.28L290.65,219.77L290.8,219.5L306.32,190.11L306.46,189.87L314.29,178.22L314.44,178.03L322.27,168.12L322.42,167.97L326.77,164.39L326.91,164.32L330.25,163.36L330.39,163.36L334.16,164.08L334.31,164.14L339.24,167.03L339.38,167.14L344.17,171.55L344.32,171.71L352.15,181.75L352.29,181.96L364.19,196.67L364.33,196.83L379.41,214.99L379.56,215.19L389.71,228.41L389.86,228.57L395.95,234.01L396.09,234.12L404.51,239.39L404.65,239.46L412.05,242.12L412.19,242.15L417.85,242.18L417.99,242.15L422.64,240.48L422.78,240.41L428.15,236.72L428.29,236.6L434.09,230.63L434.24,230.45L441.06,220L441.2,219.74L459.91,189.16L460.06,188.98L469.05,178.03L469.19,177.86L474.99,172.65L475.14,172.57L478.47,171.53L478.62,171.52L482.54,172.12L482.68,172.17L489.06,175.48L489.21,175.58L494.86,180.09L495.01,180.23L503.42,189.06L503.57,189.22L545.63,236.57L545.77,236.7L560.28,251.26L560.42,251.43L577.39,270.38L577.53,270.46L580,271.16" style="vector-effect: none; fill: none; stroke: rgb(148, 0, 211); stroke-opacity: 1; stroke-width: 3px; opacity: 1;"/></g><g class="points"/><g class="text"/></g><g class="trace scatter trace89a27a" style="stroke-miterlimit: 2;"><g class="fills"><g><path class="js-fill" d="M0,304L7.69,303.25L7.83,303.23L17.4,302.7L17.55,302.7L45.25,301.98L45.4,301.97L83.83,301.17L83.98,301.18L101.53,302.26L101.67,302.26L152.43,301.75L152.58,301.74L164.91,300.14L165.05,300.12L178.83,299.02L178.97,299.02L190.58,299.77L190.72,299.78L235.68,302.03L235.83,302.03L254.97,302.12L255.12,302.13L305.59,301.55L305.74,301.54L332.28,299.11L332.42,299.12L373.61,301.29L373.76,301.3L386.23,301.85L386.38,301.85L455.12,301.51L455.27,301.49L481.96,299.02L482.1,299.02L534.89,301.79L535.04,301.79L570.43,302.49L570.57,302.51L580,303.57L580,303.44L570.43,302.35L570.28,302.33L540.99,301.58L540.84,301.58L524.6,301.21L524.45,301.19L497.47,299.52L497.33,299.51L482.39,298.76L482.25,298.75L455.27,301.33L455.12,301.34L393.34,301.7L393.19,301.7L371.87,300.93L371.73,300.92L330.54,298.76L330.39,298.75L305.59,301.38L305.45,301.39L239.89,301.82L239.74,301.83L214.51,300.7L214.36,300.68L179.12,298.74L178.97,298.74L164.18,300.02L164.04,300.04L152.58,301.58L152.43,301.6L109.36,302.17L109.21,302.17L78.17,300.5L78.03,300.5L54.82,301.3L54.68,301.3L42.79,301.79L42.64,301.8L17.69,302.53L17.55,302.53L7.54,303.11L7.4,303.13L0,303.87Z" style="fill: rgb(207, 184, 124); fill-opacity: 0.15; stroke-width: 0;"/></g></g><g class="errorbars"/><g class="lines"><path class="js-line" d="M0,303.87L7.4,303.13L7.54,303.11L17.55,302.53L17.69,302.53L42.64,301.8L42.79,301.79L54.68,301.3L54.82,301.3L78.03,300.5L78.17,300.5L109.21,302.17L109.36,302.17L152.43,301.6L152.58,301.58L164.04,300.04L164.18,300.02L178.97,298.74L179.12,298.74L214.36,300.68L214.51,300.7L239.74,301.83L239.89,301.82L305.45,301.39L305.59,301.38L330.39,298.75L330.54,298.76L371.73,300.92L371.87,300.93L393.19,301.7L393.34,301.7L455.12,301.34L455.27,301.33L482.25,298.75L482.39,298.76L497.33,299.51L497.47,299.52L524.45,301.19L524.6,301.21L540.84,301.58L540.99,301.58L570.28,302.33L570.43,302.35L580,303.44" style="vector-effect: none; fill: none; stroke: rgb(254, 203, 82); stroke-opacity: 1; stroke-width: 0px; opacity: 1;"/></g><g class="points"/><g class="text"/></g><g class="trace scatter tracebc182c" style="stroke-miterlimit: 2;"><g class="fills"/><g class="errorbars"/><g class="lines"><path class="js-line" d="M0,304L7.69,303.25L7.83,303.23L17.4,302.7L17.55,302.7L45.25,301.98L45.4,301.97L83.83,301.17L83.98,301.18L101.53,302.26L101.67,302.26L152.43,301.75L152.58,301.74L164.91,300.14L165.05,300.12L178.83,299.02L178.97,299.02L190.58,299.77L190.72,299.78L235.68,302.03L235.83,302.03L254.97,302.12L255.12,302.13L305.59,301.55L305.74,301.54L332.28,299.11L332.42,299.12L373.61,301.29L373.76,301.3L386.23,301.85L386.38,301.85L455.12,301.51L455.27,301.49L481.96,299.02L482.1,299.02L534.89,301.79L535.04,301.79L570.43,302.49L570.57,302.51L580,303.57" style="vector-effect: none; fill: none; stroke: rgb(99, 110, 250); stroke-opacity: 1; stroke-width: 0px; opacity: 1;"/></g><g class="points"/><g class="text"/></g><g class="trace scatter tracea48521" style="stroke-miterlimit: 2; opacity: 1;"><g class="fills"/><g class="errorbars"/><g class="lines"><path class="js-line" d="M0,303.93L7.54,303.19L7.69,303.17L17.11,302.62L17.26,302.62L83.69,301.04L83.83,301.06L109.07,302.24L109.21,302.24L122.85,302.4L122.99,302.4L152.43,301.68L152.58,301.66L164.47,300.09L164.62,300.07L175.49,298.95L175.64,298.94L186.23,299.31L186.37,299.32L236.12,301.94L236.26,301.94L305.45,301.48L305.59,301.46L316.32,300L316.47,299.98L329.81,298.89L329.96,298.89L372.45,301.09L372.6,301.1L386.23,301.77L386.38,301.77L455.12,301.43L455.27,301.41L481.96,298.88L482.1,298.89L520.25,300.95L520.39,300.96L531.27,301.66L531.41,301.66L542.73,301.67L542.87,301.67L570.43,302.42L570.57,302.44L580,303.5" style="vector-effect: none; fill: none; stroke: rgb(207, 184, 124); stroke-opacity: 1; stroke-width: 3px; opacity: 1;"/></g><g class="points"/><g class="text"/></g></g></g></g><g class="zerolinelayer-above"/><path class="xlines-above crisp" d="M79,420.5H661M79,99.5H661" style="fill: none; stroke-width: 1px; stroke: rgb(0, 0, 0); stroke-opacity: 1;"/><path class="ylines-above crisp" d="M79.5,100V420M660.5,100V420" style="fill: none; stroke-width: 1px; stroke: rgb(0, 0, 0); stroke-opacity: 1;"/><g class="overlines-above"/><g class="xaxislayer-above"><path class="xtick ticks crisp" d="M0,421v5" transform="translate(80,0)" style="stroke: rgb(68, 68, 68); stroke-opacity: 1; stroke-width: 1px;"/><path class="xtick ticks crisp" d="M0,421v5" transform="translate(152.5,0)" style="stroke: rgb(68, 68, 68); stroke-opacity: 1; stroke-width: 1px;"/><path class="xtick ticks crisp" d="M0,421v5" transform="translate(225,0)" style="stroke: rgb(68, 68, 68); stroke-opacity: 1; stroke-width: 1px;"/><path class="xtick ticks crisp" d="M0,421v5" transform="translate(297.5,0)" style="stroke: rgb(68, 68, 68); stroke-opacity: 1; stroke-width: 1px;"/><path class="xtick ticks crisp" d="M0,421v5" transform="translate(370,0)" style="stroke: rgb(68, 68, 68); stroke-opacity: 1; stroke-width: 1px;"/><path class="xtick ticks crisp" d="M0,421v5" transform="translate(442.5,0)" style="stroke: rgb(68, 68, 68); stroke-opacity: 1; stroke-width: 1px;"/><path class="xtick ticks crisp" d="M0,421v5" transform="translate(515,0)" style="stroke: rgb(68, 68, 68); stroke-opacity: 1; stroke-width: 1px;"/><path class="xtick ticks crisp" d="M0,421v5" transform="translate(587.5,0)" style="stroke: rgb(68, 68, 68); stroke-opacity: 1; stroke-width: 1px;"/><path class="xtick ticks crisp" d="M0,421v5" transform="translate(660,0)" style="stroke: rgb(68, 68, 68); stroke-opacity: 1; stroke-width: 1px;"/><g class="xtick"><text text-anchor="middle" x="0" y="440.4" transform="translate(80,0)" style="font-family: 'Open Sans', verdana, arial, sans-serif; font-size: 12px; fill: rgb(42, 63, 95); fill-opacity: 1; white-space: pre;">−2000</text></g><g class="xtick"><text text-anchor="middle" x="0" y="440.4" style="font-family: 'Open Sans', verdana, arial, sans-serif; font-size: 12px; fill: rgb(42, 63, 95); fill-opacity: 1; white-space: pre;" transform="translate(152.5,0)">−1500</text></g><g class="xtick"><text text-anchor="middle" x="0" y="440.4" style="font-family: 'Open Sans', verdana, arial, sans-serif; font-size: 12px; fill: rgb(42, 63, 95); fill-opacity: 1; white-space: pre;" transform="translate(225,0)">−1000</text></g><g class="xtick"><text text-anchor="middle" x="0" y="440.4" style="font-family: 'Open Sans', verdana, arial, sans-serif; font-size: 12px; fill: rgb(42, 63, 95); fill-opacity: 1; white-space: pre;" transform="translate(297.5,0)">−500</text></g><g class="xtick"><text text-anchor="middle" x="0" y="440.4" style="font-family: 'Open Sans', verdana, arial, sans-serif; font-size: 12px; fill: rgb(42, 63, 95); fill-opacity: 1; white-space: pre;" transform="translate(370,0)">0</text></g><g class="xtick"><text text-anchor="middle" x="0" y="440.4" style="font-family: 'Open Sans', verdana, arial, sans-serif; font-size: 12px; fill: rgb(42, 63, 95); fill-opacity: 1; white-space: pre;" transform="translate(442.5,0)">500</text></g><g class="xtick"><text text-anchor="middle" x="0" y="440.4" style="font-family: 'Open Sans', verdana, arial, sans-serif; font-size: 12px; fill: rgb(42, 63, 95); fill-opacity: 1; white-space: pre;" transform="translate(515,0)">1000</text></g><g class="xtick"><text text-anchor="middle" x="0" y="440.4" style="font-family: 'Open Sans', verdana, arial, sans-serif; font-size: 12px; fill: rgb(42, 63, 95); fill-opacity: 1; white-space: pre;" transform="translate(587.5,0)">1500</text></g><g class="xtick"><text text-anchor="middle" x="0" y="440.4" style="font-family: 'Open Sans', verdana, arial, sans-serif; font-size: 12px; fill: rgb(42, 63, 95); fill-opacity: 1; white-space: pre;" transform="translate(660,0)">2000</text></g></g><g class="yaxislayer-above"><path class="ytick ticks crisp" d="M79,0h-5" transform="translate(0,407.29)" style="stroke: rgb(68, 68, 68); stroke-opacity: 1; stroke-width: 1px;"/><path class="ytick ticks crisp" d="M79,0h-5" transform="translate(0,371.45)" style="stroke: rgb(68, 68, 68); stroke-opacity: 1; stroke-width: 1px;"/><path class="ytick ticks crisp" d="M79,0h-5" transform="translate(0,335.62)" style="stroke: rgb(68, 68, 68); stroke-opacity: 1; stroke-width: 1px;"/><path class="ytick ticks crisp" d="M79,0h-5" transform="translate(0,299.78)" style="stroke: rgb(68, 68, 68); stroke-opacity: 1; stroke-width: 1px;"/><path class="ytick ticks crisp" d="M79,0h-5" transform="translate(0,263.95)" style="stroke: rgb(68, 68, 68); stroke-opacity: 1; stroke-width: 1px;"/><path class="ytick ticks crisp" d="M79,0h-5" transform="translate(0,228.11)" style="stroke: rgb(68, 68, 68); stroke-opacity: 1; stroke-width: 1px;"/><path class="ytick ticks crisp" d="M79,0h-5" transform="translate(0,192.28)" style="stroke: rgb(68, 68, 68); stroke-opacity: 1; stroke-width: 1px;"/><path class="ytick ticks crisp" d="M79,0h-5" transform="translate(0,156.44)" style="stroke: rgb(68, 68, 68); stroke-opacity: 1; stroke-width: 1px;"/><path class="ytick ticks crisp" d="M79,0h-5" transform="translate(0,120.6)" style="stroke: rgb(68, 68, 68); stroke-opacity: 1; stroke-width: 1px;"/><g class="ytick"><text text-anchor="end" x="71.6" y="4.199999999999999" transform="translate(0,407.29)" style="font-family: 'Open Sans', verdana, arial, sans-serif; font-size: 12px; fill: rgb(42, 63, 95); fill-opacity: 1; white-space: pre;">0</text></g><g class="ytick"><text text-anchor="end" x="71.6" y="4.199999999999999" style="font-family: 'Open Sans', verdana, arial, sans-serif; font-size: 12px; fill: rgb(42, 63, 95); fill-opacity: 1; white-space: pre;" transform="translate(0,371.45)">20k</text></g><g class="ytick"><text text-anchor="end" x="71.6" y="4.199999999999999" style="font-family: 'Open Sans', verdana, arial, sans-serif; font-size: 12px; fill: rgb(42, 63, 95); fill-opacity: 1; white-space: pre;" transform="translate(0,335.62)">40k</text></g><g class="ytick"><text text-anchor="end" x="71.6" y="4.199999999999999" style="font-family: 'Open Sans', verdana, arial, sans-serif; font-size: 12px; fill: rgb(42, 63, 95); fill-opacity: 1; white-space: pre;" transform="translate(0,299.78)">60k</text></g><g class="ytick"><text text-anchor="end" x="71.6" y="4.199999999999999" style="font-family: 'Open Sans', verdana, arial, sans-serif; font-size: 12px; fill: rgb(42, 63, 95); fill-opacity: 1; white-space: pre;" transform="translate(0,263.95)">80k</text></g><g class="ytick"><text text-anchor="end" x="71.6" y="4.199999999999999" style="font-family: 'Open Sans', verdana, arial, sans-serif; font-size: 12px; fill: rgb(42, 63, 95); fill-opacity: 1; white-space: pre;" transform="translate(0,228.11)">100k</text></g><g class="ytick"><text text-anchor="end" x="71.6" y="4.199999999999999" style="font-family: 'Open Sans', verdana, arial, sans-serif; font-size: 12px; fill: rgb(42, 63, 95); fill-opacity: 1; white-space: pre;" transform="translate(0,192.28)">120k</text></g><g class="ytick"><text text-anchor="end" x="71.6" y="4.199999999999999" style="font-family: 'Open Sans', verdana, arial, sans-serif; font-size: 12px; fill: rgb(42, 63, 95); fill-opacity: 1; white-space: pre;" transform="translate(0,156.44)">140k</text></g><g class="ytick"><text text-anchor="end" x="71.6" y="4.199999999999999" style="font-family: 'Open Sans', verdana, arial, sans-serif; font-size: 12px; fill: rgb(42, 63, 95); fill-opacity: 1; white-space: pre;" transform="translate(0,120.6)">160k</text></g></g><g class="overaxes-above"/></g></g><g class="polarlayer"/><g class="smithlayer"/><g class="ternarylayer"/><g class="geolayer"/><g class="funnelarealayer"/><g class="pielayer"/><g class="iciclelayer"/><g class="treemaplayer"/><g class="sunburstlayer"/><g class="glimages"/><defs id="topdefs-58d425"><g class="clips"/><clipPath id="legend58d425"><rect width="515" height="67" x="1" y="1"/></clipPath></defs><g class="layer-above"><g class="imagelayer"/><g class="shapelayer"><g class="shape-group" data-index="0" clip-path="url(#clip58d425x)"><path data-index="0" fill-rule="evenodd" d="M220.51,420L220.51,100" style="opacity: 1; stroke: rgb(128, 128, 128); stroke-opacity: 1; fill: rgb(0, 0, 0); fill-opacity: 0; stroke-dasharray: 9px, 9px; stroke-width: 2px;"/></g><g class="shape-group" data-index="1" clip-path="url(#clip58d425x)"><path data-index="1" fill-rule="evenodd" d="M297.5,420L297.5,100" style="opacity: 1; stroke: rgb(128, 128, 128); stroke-opacity: 1; fill: rgb(0, 0, 0); fill-opacity: 0; stroke-dasharray: 3px, 3px; stroke-width: 2px;"/></g><g class="shape-group" data-index="2" clip-path="url(#clip58d425x)"><path data-index="2" fill-rule="evenodd" d="M370,420L370,100" style="opacity: 1; stroke: rgb(128, 128, 128); stroke-opacity: 1; fill: rgb(0, 0, 0); fill-opacity: 0; stroke-dasharray: 9px, 9px; stroke-width: 2px;"/></g><g class="shape-group" data-index="3" clip-path="url(#clip58d425x)"><path data-index="3" fill-rule="evenodd" d="M447,420L447,100" style="opacity: 1; stroke: rgb(128, 128, 128); stroke-opacity: 1; fill: rgb(0, 0, 0); fill-opacity: 0; stroke-dasharray: 3px, 3px; stroke-width: 2px;"/></g><g class="shape-group" data-index="4" clip-path="url(#clip58d425x)"><path data-index="4" fill-rule="evenodd" d="M519.5,420L519.5,100" style="opacity: 1; stroke: rgb(128, 128, 128); stroke-opacity: 1; fill: rgb(0, 0, 0); fill-opacity: 0; stroke-dasharray: 9px, 9px; stroke-width: 2px;"/></g><g class="shape-group" data-index="5" clip-path="url(#clip58d425x)"><path data-index="5" fill-rule="evenodd" d="M596.49,420L596.49,100" style="opacity: 1; stroke: rgb(128, 128, 128); stroke-opacity: 1; fill: rgb(0, 0, 0); fill-opacity: 0; stroke-dasharray: 3px, 3px; stroke-width: 2px;"/></g><g class="shape-group" data-index="6" clip-path="url(#clip58d425x)"><path data-index="6" fill-rule="evenodd" d="M370,420L370,100" style="opacity: 1; stroke: rgb(255, 0, 0); stroke-opacity: 1; fill: rgb(0, 0, 0); fill-opacity: 0; stroke-dasharray: 9px, 9px; stroke-width: 2px;"/></g></g></g><g class="infolayer"><g class="legend" pointer-events="all" transform="translate(143,24.599999999999994)"><rect class="bg" shape-rendering="crispEdges" style="stroke: rgb(0, 0, 0); stroke-opacity: 1; fill: rgb(255, 255, 255); fill-opacity: 0.8; stroke-width: 1px;" width="516" height="68" x="0.5" y="0.5"/><g class="scrollbox" transform="" clip-path="url(#legend58d425)"><g class="groups"><g class="traces" transform="translate(1,15.5)" style="opacity: 1;"><text class="legendtext" text-anchor="start" x="40" y="4.680000000000001" style="font-family: 'Open Sans', verdana, arial, sans-serif; font-size: 12px; fill: rgb(42, 63, 95); fill-opacity: 1; white-space: pre;">Gamma</text><g class="layers" style="opacity: 1;"><g class="legendfill"/><g class="legendlines"><path class="js-line" d="M5,0h30" style="fill: none; stroke: rgb(207, 184, 124); stroke-opacity: 1; stroke-width: 3px;"/></g><g class="legendsymbols"><g class="legendpoints"/></g></g><rect class="legendtoggle" x="0" y="-9.5" width="89.5625" height="19" style="fill: rgb(0, 0, 0); fill-opacity: 0;"/></g><g class="traces" transform="translate(132.8671875,15.5)" style="opacity: 1;"><text class="legendtext" text-anchor="start" x="40" y="4.680000000000001" style="font-family: 'Open Sans', verdana, arial, sans-serif; font-size: 12px; fill: rgb(42, 63, 95); fill-opacity: 1; white-space: pre;">Gamma_down</text><g class="layers"><g class="legendfill"><path class="js-fill" d="M5,-2h30v6h-30z" style="stroke-width: 0; fill: rgb(207, 184, 124); fill-opacity: 0.15;"/></g><g class="legendlines"><path class="js-line" d="M5,-2h30" style="fill: none; stroke: rgb(99, 110, 250); stroke-opacity: 1; stroke-width: 0px;"/></g><g class="legendsymbols"><g class="legendpoints"/></g></g><rect class="legendtoggle" x="0" y="-9.5" width="129.3671875" height="19" style="fill: rgb(0, 0, 0); fill-opacity: 0;"/></g><g class="traces" transform="translate(264.734375,15.5)" style="opacity: 1;"><text class="legendtext" text-anchor="start" x="40" y="4.680000000000001" style="font-family: 'Open Sans', verdana, arial, sans-serif; font-size: 12px; fill: rgb(42, 63, 95); fill-opacity: 1; white-space: pre;">Gamma_up</text><g class="layers"><g class="legendfill"/><g class="legendlines"><path class="js-line" d="M5,0h30" style="fill: none; stroke: rgb(254, 203, 82); stroke-opacity: 1; stroke-width: 0px;"/></g><g class="legendsymbols"><g class="legendpoints"/></g></g><rect class="legendtoggle" x="0" y="-9.5" width="112.265625" height="19" style="fill: rgb(0, 0, 0); fill-opacity: 0;"/></g><g class="traces" transform="translate(396.6015625,15.5)" style="opacity: 1;"><text class="legendtext" text-anchor="start" x="40" y="4.680000000000001" style="font-family: 'Open Sans', verdana, arial, sans-serif; font-size: 12px; fill: rgb(42, 63, 95); fill-opacity: 1; white-space: pre;">Beta</text><g class="layers" style="opacity: 1;"><g class="legendfill"/><g class="legendlines"><path class="js-line" d="M5,0h30" style="fill: none; stroke: rgb(148, 0, 211); stroke-opacity: 1; stroke-width: 3px;"/></g><g class="legendsymbols"><g class="legendpoints"/></g></g><rect class="legendtoggle" x="0" y="-9.5" width="69.8125" height="19" style="fill: rgb(0, 0, 0); fill-opacity: 0;"/></g><g class="traces" transform="translate(1,34.5)" style="opacity: 1;"><text class="legendtext" text-anchor="start" x="40" y="4.680000000000001" style="font-family: 'Open Sans', verdana, arial, sans-serif; font-size: 12px; fill: rgb(42, 63, 95); fill-opacity: 1; white-space: pre;">Beta_down</text><g class="layers"><g class="legendfill"><path class="js-fill" d="M5,-2h30v6h-30z" style="stroke-width: 0; fill: rgb(148, 0, 211); fill-opacity: 0.15;"/></g><g class="legendlines"><path class="js-line" d="M5,-2h30" style="fill: none; stroke: rgb(182, 232, 128); stroke-opacity: 1; stroke-width: 0px;"/></g><g class="legendsymbols"><g class="legendpoints"/></g></g><rect class="legendtoggle" x="0" y="-9.5" width="109.6171875" height="19" style="fill: rgb(0, 0, 0); fill-opacity: 0;"/></g><g class="traces" transform="translate(132.8671875,34.5)" style="opacity: 1;"><text class="legendtext" text-anchor="start" x="40" y="4.680000000000001" style="font-family: 'Open Sans', verdana, arial, sans-serif; font-size: 12px; fill: rgb(42, 63, 95); fill-opacity: 1; white-space: pre;">Beta_up</text><g class="layers"><g class="legendfill"/><g class="legendlines"><path class="js-line" d="M5,0h30" style="fill: none; stroke: rgb(255, 102, 146); stroke-opacity: 1; stroke-width: 0px;"/></g><g class="legendsymbols"><g class="legendpoints"/></g></g><rect class="legendtoggle" x="0" y="-9.5" width="92.515625" height="19" style="fill: rgb(0, 0, 0); fill-opacity: 0;"/></g><g class="traces" transform="translate(264.734375,34.5)" style="opacity: 1;"><text class="legendtext" text-anchor="start" x="40" y="4.680000000000001" style="font-family: 'Open Sans', verdana, arial, sans-serif; font-size: 12px; fill: rgb(42, 63, 95); fill-opacity: 1; white-space: pre;">Alpha</text><g class="layers" style="opacity: 1;"><g class="legendfill"/><g class="legendlines"><path class="js-line" d="M5,0h30" style="fill: none; stroke: rgb(0, 0, 255); stroke-opacity: 1; stroke-width: 3px;"/></g><g class="legendsymbols"><g class="legendpoints"/></g></g><rect class="legendtoggle" x="0" y="-9.5" width="76.2734375" height="19" style="fill: rgb(0, 0, 0); fill-opacity: 0;"/></g><g class="traces" transform="translate(396.6015625,34.5)" style="opacity: 1;"><text class="legendtext" text-anchor="start" x="40" y="4.680000000000001" style="font-family: 'Open Sans', verdana, arial, sans-serif; font-size: 12px; fill: rgb(42, 63, 95); fill-opacity: 1; white-space: pre;">Alpha_down</text><g class="layers"><g class="legendfill"><path class="js-fill" d="M5,-2h30v6h-30z" style="stroke-width: 0; fill: rgb(0, 0, 255); fill-opacity: 0.15;"/></g><g class="legendlines"><path class="js-line" d="M5,-2h30" style="fill: none; stroke: rgb(255, 161, 90); stroke-opacity: 1; stroke-width: 0px;"/></g><g class="legendsymbols"><g class="legendpoints"/></g></g><rect class="legendtoggle" x="0" y="-9.5" width="116.078125" height="19" style="fill: rgb(0, 0, 0); fill-opacity: 0;"/></g><g class="traces" transform="translate(1,53.5)" style="opacity: 1;"><text class="legendtext" text-anchor="start" x="40" y="4.680000000000001" style="font-family: 'Open Sans', verdana, arial, sans-serif; font-size: 12px; fill: rgb(42, 63, 95); fill-opacity: 1; white-space: pre;">Alpha_up</text><g class="layers"><g class="legendfill"/><g class="legendlines"><path class="js-line" d="M5,0h30" style="fill: none; stroke: rgb(171, 99, 250); stroke-opacity: 1; stroke-width: 0px;"/></g><g class="legendsymbols"><g class="legendpoints"/></g></g><rect class="legendtoggle" x="0" y="-9.5" width="98.9765625" height="19" style="fill: rgb(0, 0, 0); fill-opacity: 0;"/></g><g class="traces" transform="translate(132.8671875,53.5)" style="opacity: 1;"><text class="legendtext" text-anchor="start" x="40" y="4.680000000000001" style="font-family: 'Open Sans', verdana, arial, sans-serif; font-size: 12px; fill: rgb(42, 63, 95); fill-opacity: 1; white-space: pre;">Theta</text><g class="layers" style="opacity: 1;"><g class="legendfill"/><g class="legendlines"><path class="js-line" d="M5,0h30" style="fill: none; stroke: rgb(75, 0, 130); stroke-opacity: 1; stroke-width: 3px;"/></g><g class="legendsymbols"><g class="legendpoints"/></g></g><rect class="legendtoggle" x="0" y="-9.5" width="77.078125" height="19" style="fill: rgb(0, 0, 0); fill-opacity: 0;"/></g><g class="traces" transform="translate(264.734375,53.5)" style="opacity: 1;"><text class="legendtext" text-anchor="start" x="40" y="4.680000000000001" style="font-family: 'Open Sans', verdana, arial, sans-serif; font-size: 12px; fill: rgb(42, 63, 95); fill-opacity: 1; white-space: pre;">Theta_down</text><g class="layers"><g class="legendfill"><path class="js-fill" d="M5,-2h30v6h-30z" style="stroke-width: 0; fill: rgb(75, 0, 130); fill-opacity: 0.15;"/></g><g class="legendlines"><path class="js-line" d="M5,-2h30" style="fill: none; stroke: rgb(239, 85, 59); stroke-opacity: 1; stroke-width: 0px;"/></g><g class="legendsymbols"><g class="legendpoints"/></g></g><rect class="legendtoggle" x="0" y="-9.5" width="116.875" height="19" style="fill: rgb(0, 0, 0); fill-opacity: 0;"/></g><g class="traces" transform="translate(396.6015625,53.5)" style="opacity: 1;"><text class="legendtext" text-anchor="start" x="40" y="4.680000000000001" style="font-family: 'Open Sans', verdana, arial, sans-serif; font-size: 12px; fill: rgb(42, 63, 95); fill-opacity: 1; white-space: pre;">Theta_up</text><g class="layers"><g class="legendfill"/><g class="legendlines"><path class="js-line" d="M5,0h30" style="fill: none; stroke: rgb(99, 110, 250); stroke-opacity: 1; stroke-width: 0px;"/></g><g class="legendsymbols"><g class="legendpoints"/></g></g><rect class="legendtoggle" x="0" y="-9.5" width="99.7734375" height="19" style="fill: rgb(0, 0, 0); fill-opacity: 0;"/></g></g></g><rect class="scrollbar" rx="20" ry="3" width="0" height="0" style="fill: rgb(128, 139, 164); fill-opacity: 1;" x="0" y="0"/></g><g class="g-gtitle"><text class="gtitle" x="350" y="50" text-anchor="middle" dy="0em" style="opacity: 1; font-family: Arial; font-size: 18px; fill: rgb(0, 0, 0); fill-opacity: 1; white-space: pre;"><tspan class="line" dy="0em" x="350" y="50"><tspan style="font-weight:bold">Figure f006: TEO Band-Specific Omission Dynamics (AAAB)</tspan></tspan><tspan class="line" dy="1.3em" x="350" y="50">​<tspan style="font-size:70%" dy="-0.6em">Relative Power (dB) with ±SEM | 0ms = Omission Onset | 30ms Smoothed</tspan><tspan dy="0.42em">​</tspan></tspan></text></g><g class="g-xtitle"><text class="xtitle" x="370" y="467.200390625" text-anchor="middle" style="opacity: 1; font-family: 'Open Sans', verdana, arial, sans-serif; font-size: 14px; fill: rgb(42, 63, 95); fill-opacity: 1; white-space: pre;">Time from Omission (ms)</text></g><g class="g-ytitle"><text class="ytitle" transform="rotate(-90,22.207421875,260)" x="22.207421875" y="260" text-anchor="middle" style="opacity: 1; font-family: 'Open Sans', verdana, arial, sans-serif; font-size: 14px; fill: rgb(42, 63, 95); fill-opacity: 1; white-space: pre;">Relative Power (dB)</text></g><g class="annotation" data-index="0" style="opacity: 1;"><g class="annotation-text-g" transform="rotate(0,230.01,109.5)"><g class="cursor-pointer" transform="translate(221,100)"><rect class="bg" x="0.5" y="0.5" width="18" height="18" style="stroke-width: 1px; stroke: rgb(0, 0, 0); stroke-opacity: 0; fill: rgb(0, 0, 0); fill-opacity: 0;"/><text class="annotation-text" text-anchor="middle" x="9.43359375" y="14" style="font-family: 'Open Sans', verdana, arial, sans-serif; font-size: 12px; fill: rgb(42, 63, 95); fill-opacity: 1; white-space: pre;">P1</text></g></g></g><g class="annotation" data-index="1" style="opacity: 1;"><g class="annotation-text-g" transform="rotate(0,308,109.5)"><g class="cursor-pointer" transform="translate(298,100)"><rect class="bg" x="0.5" y="0.5" width="20" height="18" style="stroke-width: 1px; stroke: rgb(0, 0, 0); stroke-opacity: 0; fill: rgb(0, 0, 0); fill-opacity: 0;"/><text class="annotation-text" text-anchor="middle" x="10.4375" y="14" style="font-family: 'Open Sans', verdana, arial, sans-serif; font-size: 12px; fill: rgb(42, 63, 95); fill-opacity: 1; white-space: pre;">D1</text></g></g></g><g class="annotation" data-index="2" style="opacity: 1;"><g class="annotation-text-g" transform="rotate(0,379.5,109.5)"><g class="cursor-pointer" transform="translate(370,100)"><rect class="bg" x="0.5" y="0.5" width="18" height="18" style="stroke-width: 1px; stroke: rgb(0, 0, 0); stroke-opacity: 0; fill: rgb(0, 0, 0); fill-opacity: 0;"/><text class="annotation-text" text-anchor="middle" x="9.43359375" y="14" style="font-family: 'Open Sans', verdana, arial, sans-serif; font-size: 12px; fill: rgb(42, 63, 95); fill-opacity: 1; white-space: pre;">P2</text></g></g></g><g class="annotation" data-index="3" style="opacity: 1;"><g class="annotation-text-g" transform="rotate(0,457.5,109.5)"><g class="cursor-pointer" transform="translate(447,100)"><rect class="bg" x="0.5" y="0.5" width="20" height="18" style="stroke-width: 1px; stroke: rgb(0, 0, 0); stroke-opacity: 0; fill: rgb(0, 0, 0); fill-opacity: 0;"/><text class="annotation-text" text-anchor="middle" x="10.4375" y="14" style="font-family: 'Open Sans', verdana, arial, sans-serif; font-size: 12px; fill: rgb(42, 63, 95); fill-opacity: 1; white-space: pre;">D2</text></g></g></g><g class="annotation" data-index="4" style="opacity: 1;"><g class="annotation-text-g" transform="rotate(0,529,109.5)"><g class="cursor-pointer" transform="translate(520,100)"><rect class="bg" x="0.5" y="0.5" width="18" height="18" style="stroke-width: 1px; stroke: rgb(0, 0, 0); stroke-opacity: 0; fill: rgb(0, 0, 0); fill-opacity: 0;"/><text class="annotation-text" text-anchor="middle" x="9.43359375" y="14" style="font-family: 'Open Sans', verdana, arial, sans-serif; font-size: 12px; fill: rgb(42, 63, 95); fill-opacity: 1; white-space: pre;">P3</text></g></g></g><g class="annotation" data-index="5" style="opacity: 1;"><g class="annotation-text-g" transform="rotate(0,606.99,109.5)"><g class="cursor-pointer" transform="translate(596,100)"><rect class="bg" x="0.5" y="0.5" width="20" height="18" style="stroke-width: 1px; stroke: rgb(0, 0, 0); stroke-opacity: 0; fill: rgb(0, 0, 0); fill-opacity: 0;"/><text class="annotation-text" text-anchor="middle" x="10.4375" y="14" style="font-family: 'Open Sans', verdana, arial, sans-serif; font-size: 12px; fill: rgb(42, 63, 95); fill-opacity: 1; white-space: pre;">D3</text></g></g></g><g class="annotation" data-index="6" style="opacity: 1;"><g class="annotation-text-g" transform="rotate(0,419,109.5)"><g class="cursor-pointer" transform="translate(370,100)"><rect class="bg" x="0.5" y="0.5" width="97" height="18" style="stroke-width: 1px; stroke: rgb(0, 0, 0); stroke-opacity: 0; fill: rgb(0, 0, 0); fill-opacity: 0;"/><text class="annotation-text" text-anchor="middle" x="49.171875" y="14" style="font-family: 'Open Sans', verdana, arial, sans-serif; font-size: 12px; fill: rgb(42, 63, 95); fill-opacity: 1; white-space: pre;">OMISSION (P2)</text></g></g></g></g></svg>