<svg class="main-svg" xmlns="http://www.w3.org/2000/svg" xmlns:xlink="http://www.w3.org/1999/xlink" width="700" height="500" style="" viewBox="0 0 700 500"><rect x="0" y="0" width="700" height="500" style="fill: rgb(255, 255, 255); fill-opacity: 1;"/><defs id="defs-5c0d90"><g class="clips"><clipPath id="clip5c0d90xyplot" class="plotclip"><rect width="580" height="320"/></clipPath><clipPath class="axesclip" id="clip5c0d90x"><rect x="80" y="0" width="580" height="500"/></clipPath><clipPath class="axesclip" id="clip5c0d90y"><rect x="0" y="100" width="700" height="320"/></clipPath><clipPath class="axesclip" id="clip5c0d90xy"><rect x="80" y="100" width="580" height="320"/></clipPath></g><g class="gradients"/><g class="patterns"/></defs><g class="bglayer"/><g class="layer-below"><g class="imagelayer"/><g class="shapelayer"/></g><g class="cartesianlayer"><g class="subplot xy"><g class="layer-subplot"><g class="shapelayer"/><g class="imagelayer"/></g><g class="minor-gridlayer"><g class="x"/><g class="y"/></g><g class="gridlayer"><g class="x"><path class="xgrid crisp" transform="translate(152.5,0)" d="M0,100v320" style="stroke: rgb(211, 211, 211); stroke-opacity: 1; stroke-width: 1px;"/><path class="xgrid crisp" transform="translate(225,0)" d="M0,100v320" style="stroke: rgb(211, 211, 211); stroke-opacity: 1; stroke-width: 1px;"/><path class="xgrid crisp" transform="translate(297.5,0)" d="M0,100v320" style="stroke: rgb(211, 211, 211); stroke-opacity: 1; stroke-width: 1px;"/><path class="xgrid crisp" transform="translate(442.5,0)" d="M0,100v320" style="stroke: rgb(211, 211, 211); stroke-opacity: 1; stroke-width: 1px;"/><path class="xgrid crisp" transform="translate(515,0)" d="M0,100v320" style="stroke: rgb(211, 211, 211); stroke-opacity: 1; stroke-width: 1px;"/><path class="xgrid crisp" transform="translate(587.5,0)" d="M0,100v320" style="stroke: rgb(211, 211, 211); stroke-opacity: 1; stroke-width: 1px;"/></g><g class="y"><path class="ygrid crisp" transform="translate(0,364.65)" d="M80,0h580" style="stroke: rgb(211, 211, 211); stroke-opacity: 1; stroke-width: 1px;"/><path class="ygrid crisp" transform="translate(0,320.88)" d="M80,0h580" style="stroke: rgb(211, 211, 211); stroke-opacity: 1; stroke-width: 1px;"/><path class="ygrid crisp" transform="translate(0,277.11)" d="M80,0h580" style="stroke: rgb(211, 211, 211); stroke-opacity: 1; stroke-width: 1px;"/><path class="ygrid crisp" transform="translate(0,233.34)" d="M80,0h580" style="stroke: rgb(211, 211, 211); stroke-opacity: 1; stroke-width: 1px;"/><path class="ygrid crisp" transform="translate(0,189.57999999999998)" d="M80,0h580" style="stroke: rgb(211, 211, 211); stroke-opacity: 1; stroke-width: 1px;"/><path class="ygrid crisp" transform="translate(0,145.81)" d="M80,0h580" style="stroke: rgb(211, 211, 211); stroke-opacity: 1; stroke-width: 1px;"/><path class="ygrid crisp" transform="translate(0,102.04)" d="M80,0h580" style="stroke: rgb(211, 211, 211); stroke-opacity: 1; stroke-width: 1px;"/></g></g><g class="zerolinelayer"><path class="xzl zl crisp" transform="translate(370,0)" d="M0,100v320" style="stroke: rgb(235, 240, 248); stroke-opacity: 1; stroke-width: 2px;"/><path class="yzl zl crisp" transform="translate(0,408.41)" d="M80,0h580" style="stroke: rgb(235, 240, 248); stroke-opacity: 1; stroke-width: 2px;"/></g><g class="layer-between"><g class="shapelayer"/><g class="imagelayer"/></g><path class="xlines-below"/><path class="ylines-below"/><g class="overlines-below"/><g class="xaxislayer-below"/><g class="yaxislayer-below"/><g class="overaxes-below"/><g class="overplot"><g class="xy" transform="translate(80,100)" clip-path="url(#clip5c0d90xyplot)"><g class="scatterlayer mlayer"><g class="trace scatter traced930ad" style="stroke-miterlimit: 2;"><g class="fills"><g><path class="js-fill" d="M0,126.2L1.6,125.39L1.74,125.25L3.92,121.88L4.06,121.58L7.69,112.71L7.83,112.33L22.63,75.4L22.77,75.13L27.56,68.03L27.7,67.86L42.21,53.43L42.35,53.3L63.53,35.68L63.67,35.6L69.76,33.19L69.91,33.15L75.13,32.63L75.27,32.64L81.22,33.76L81.37,33.8L89.92,35.4L90.07,35.41L106.46,36.19L106.6,36.23L112.55,38.97L112.69,39.06L120.09,44.36L120.24,44.48L128.94,52.9L129.08,53.06L135.75,61.26L135.9,61.45L143.88,71.02L144.02,71.18L153.3,82.15L153.45,82.34L162.3,93.1L162.44,93.26L186.66,118.16L186.81,118.28L205.95,133.75L206.1,133.82L212.91,136.87L213.06,136.92L220.02,139.1L220.17,139.13L225.39,139.27L225.53,139.26L239.74,137.92L239.89,137.93L249.32,139.29L249.46,139.33L258.02,141.8L258.16,141.85L275.13,145.63L275.28,145.65L288.62,147.2L288.77,147.21L295.73,146.47L295.87,146.44L308.93,142.21L309.07,142.15L325.32,137.44L325.46,137.41L332.71,137.16L332.86,137.18L338.95,138.54L339.09,138.58L349.54,142.85L349.68,142.92L364.48,148.58L364.62,148.59L369.7,148.55L369.84,148.53L376.66,146.88L376.8,146.84L387.54,144.71L387.68,144.7L403.06,143.39L403.2,143.39L427.57,142.44L427.71,142.44L443.67,141.71L443.81,141.68L453.67,138.28L453.82,138.22L478.47,130.01L478.62,129.99L484.71,130.08L484.86,130.11L490.08,131.75L490.22,131.81L496.17,134.98L496.31,135.07L508.64,143.33L508.79,143.43L517.63,148.83L517.78,148.91L535.47,159.41L535.62,159.52L546.79,169.98L546.93,170.13L557.66,182.66L557.81,182.84L577.97,207.1L578.11,207.17L580,207.68L580,203.2L577.97,202.6L577.82,202.52L571.73,195.9L571.59,195.7L561,181.85L560.86,181.67L548.96,167.06L548.82,166.89L541.42,158.98L541.28,158.84L535.18,153.44L535.04,153.32L516.62,142.45L516.47,142.37L503.42,133.73L503.28,133.63L493.56,127.23L493.41,127.14L486.74,124.15L486.6,124.11L481.38,123.36L481.23,123.36L474.41,124.41L474.27,124.44L448.45,133.98L448.31,134.04L442.65,135.93L442.51,135.97L422.2,136.68L422.06,136.67L387.39,138.38L387.25,138.39L375.06,140.99L374.92,141.04L368.25,142.47L368.1,142.48L362.88,142.2L362.74,142.17L352.29,138.05L352.15,137.98L341.71,133.23L341.56,133.17L335.32,131.17L335.18,131.14L329.09,130.63L328.94,130.64L320.82,132.03L320.68,132.07L304.87,137.27L304.72,137.32L295.44,140.32L295.29,140.36L290.07,141.1L289.93,141.11L280.94,140.61L280.79,140.6L268.61,138.41L268.46,138.38L255.41,134.67L255.26,134.62L248.3,132.48L248.16,132.44L239.31,131.09L239.16,131.08L225.97,132.37L225.82,132.39L220.17,132.35L220.02,132.32L210.74,129.12L210.59,129.05L204.21,125.68L204.07,125.59L181.44,105.34L181.3,105.19L165.78,87.52L165.63,87.35L153.88,72.03L153.74,71.82L132.85,44.15L132.71,43.95L125.89,35.61L125.75,35.45L116.9,26.93L116.75,26.81L110.52,22.42L110.37,22.33L105.73,20.33L105.59,20.28L91.95,19.37L91.81,19.37L78.03,16.47L77.88,16.44L73.53,16.01L73.39,16.01L67.15,17.35L67.01,17.41L61.5,20.44L61.35,20.54L53.23,27.61L53.08,27.75L32.49,47.38L32.34,47.53L26.98,53.2L26.83,53.38L22.92,59.6L22.77,59.89L7.54,100.06L7.4,100.46L4.06,109.01L3.92,109.32L1.74,112.89L1.6,113.04L0,113.9Z" style="fill: rgb(75, 0, 130); fill-opacity: 0.15; stroke-width: 0;"/></g></g><g class="errorbars"/><g class="lines"><path class="js-line" d="M0,113.9L1.6,113.04L1.74,112.89L3.92,109.32L4.06,109.01L7.4,100.46L7.54,100.06L22.77,59.89L22.92,59.6L26.83,53.38L26.98,53.2L32.34,47.53L32.49,47.38L53.08,27.75L53.23,27.61L61.35,20.54L61.5,20.44L67.01,17.41L67.15,17.35L73.39,16.01L73.53,16.01L77.88,16.44L78.03,16.47L91.81,19.37L91.95,19.37L105.59,20.28L105.73,20.33L110.37,22.33L110.52,22.42L116.75,26.81L116.9,26.93L125.75,35.45L125.89,35.61L132.71,43.95L132.85,44.15L153.74,71.82L153.88,72.03L165.63,87.35L165.78,87.52L181.3,105.19L181.44,105.34L204.07,125.59L204.21,125.68L210.59,129.05L210.74,129.12L220.02,132.32L220.17,132.35L225.82,132.39L225.97,132.37L239.16,131.08L239.31,131.09L248.16,132.44L248.3,132.48L255.26,134.62L255.41,134.67L268.46,138.38L268.61,138.41L280.79,140.6L280.94,140.61L289.93,141.11L290.07,141.1L295.29,140.36L295.44,140.32L304.72,137.32L304.87,137.27L320.68,132.07L320.82,132.03L328.94,130.64L329.09,130.63L335.18,131.14L335.32,131.17L341.56,133.17L341.71,133.23L352.15,137.98L352.29,138.05L362.74,142.17L362.88,142.2L368.1,142.48L368.25,142.47L374.92,141.04L375.06,140.99L387.25,138.39L387.39,138.38L422.06,136.67L422.2,136.68L442.51,135.97L442.65,135.93L448.31,134.04L448.45,133.98L474.27,124.44L474.41,124.41L481.23,123.36L481.38,123.36L486.6,124.11L486.74,124.15L493.41,127.14L493.56,127.23L503.28,133.63L503.42,133.73L516.47,142.37L516.62,142.45L535.04,153.32L535.18,153.44L541.28,158.84L541.42,158.98L548.82,166.89L548.96,167.06L560.86,181.67L561,181.85L571.59,195.7L571.73,195.9L577.82,202.52L577.97,202.6L580,203.2" style="vector-effect: none; fill: none; stroke: rgb(99, 110, 250); stroke-opacity: 1; stroke-width: 0px; opacity: 1;"/></g><g class="points"/><g class="text"/></g><g class="trace scatter tracebcc351" style="stroke-miterlimit: 2;"><g class="fills"/><g class="errorbars"/><g class="lines"><path class="js-line" d="M0,126.2L1.6,125.39L1.74,125.25L3.92,121.88L4.06,121.58L7.69,112.71L7.83,112.33L22.63,75.4L22.77,75.13L27.56,68.03L27.7,67.86L42.21,53.43L42.35,53.3L63.53,35.68L63.67,35.6L69.76,33.19L69.91,33.15L75.13,32.63L75.27,32.64L81.22,33.76L81.37,33.8L89.92,35.4L90.07,35.41L106.46,36.19L106.6,36.23L112.55,38.97L112.69,39.06L120.09,44.36L120.24,44.48L128.94,52.9L129.08,53.06L135.75,61.26L135.9,61.45L143.88,71.02L144.02,71.18L153.3,82.15L153.45,82.34L162.3,93.1L162.44,93.26L186.66,118.16L186.81,118.28L205.95,133.75L206.1,133.82L212.91,136.87L213.06,136.92L220.02,139.1L220.17,139.13L225.39,139.27L225.53,139.26L239.74,137.92L239.89,137.93L249.32,139.29L249.46,139.33L258.02,141.8L258.16,141.85L275.13,145.63L275.28,145.65L288.62,147.2L288.77,147.21L295.73,146.47L295.87,146.44L308.93,142.21L309.07,142.15L325.32,137.44L325.46,137.41L332.71,137.16L332.86,137.18L338.95,138.54L339.09,138.58L349.54,142.85L349.68,142.92L364.48,148.58L364.62,148.59L369.7,148.55L369.84,148.53L376.66,146.88L376.8,146.84L387.54,144.71L387.68,144.7L403.06,143.39L403.2,143.39L427.57,142.44L427.71,142.44L443.67,141.71L443.81,141.68L453.67,138.28L453.82,138.22L478.47,130.01L478.62,129.99L484.71,130.08L484.86,130.11L490.08,131.75L490.22,131.81L496.17,134.98L496.31,135.07L508.64,143.33L508.79,143.43L517.63,148.83L517.78,148.91L535.47,159.41L535.62,159.52L546.79,169.98L546.93,170.13L557.66,182.66L557.81,182.84L577.97,207.1L578.11,207.17L580,207.68" style="vector-effect: none; fill: none; stroke: rgb(239, 85, 59); stroke-opacity: 1; stroke-width: 0px; opacity: 1;"/></g><g class="points"/><g class="text"/></g><g class="trace scatter traced2cda0" style="stroke-miterlimit: 2; opacity: 1;"><g class="fills"/><g class="errorbars"/><g class="lines"><path class="js-line" d="M0,120.05L1.6,119.22L1.74,119.07L3.77,115.89L3.92,115.6L8.27,104.58L8.41,104.18L22.05,68.94L22.19,68.65L26.98,60.96L27.12,60.78L37.42,50.2L37.56,50.05L50.47,38.19L50.62,38.06L62.51,28.01L62.66,27.92L68.02,25.36L68.17,25.31L73.82,24.31L73.97,24.31L79.33,25.03L79.48,25.07L90.36,27.37L90.5,27.37L106.75,28.47L106.89,28.52L111.97,30.97L112.11,31.06L118.78,35.92L118.93,36.04L127.34,44.21L127.49,44.37L136.62,55.9L136.77,56.1L146.05,67.43L146.2,67.6L158.38,83.52L158.52,83.7L168.97,95.74L169.11,95.9L184.92,112.69L185.07,112.83L202.62,128.11L202.76,128.21L208.56,131.58L208.71,131.64L216.97,134.95L217.12,134.99L222.78,135.98L222.92,135.99L229.16,135.25L229.3,135.23L237.13,134.42L237.28,134.42L246.85,135.47L247,135.5L254.54,137.55L254.68,137.6L268.03,141.26L268.17,141.29L285.43,144.04L285.58,144.05L293.26,143.85L293.41,143.83L301.1,141.75L301.24,141.7L325.32,134.23L325.46,134.21L332.71,133.96L332.86,133.97L339.82,135.66L339.96,135.71L356.5,143.09L356.64,143.16L364.33,145.49L364.48,145.51L370.13,145.36L370.28,145.33L378.54,143.15L378.69,143.11L386.96,141.6L387.1,141.58L424.09,139.6L424.23,139.6L442.94,138.87L443.09,138.84L450.63,136.26L450.77,136.2L467.6,129.8L467.74,129.75L476.01,127.23L476.15,127.2L482.68,126.62L482.83,126.63L488.48,127.93L488.63,127.98L496.75,132.25L496.89,132.34L507.34,139.48L507.48,139.58L520.54,147.43L520.68,147.51L530.4,152.87L530.54,152.97L536.63,157.48L536.78,157.6L546.21,166.66L546.35,166.81L556.36,178.56L556.5,178.74L571.44,197.83L571.59,198.03L577.1,204.28L577.24,204.39L580,205.44" style="vector-effect: none; fill: none; stroke: rgb(75, 0, 130); stroke-opacity: 1; stroke-width: 3px; opacity: 1;"/></g><g class="points"/><g class="text"/></g><g class="trace scatter tracefd255a" style="stroke-miterlimit: 2;"><g class="fills"><g><path class="js-fill" d="M0,254.63L2.18,253.74L2.32,253.62L4.79,250.72L4.93,250.5L8.56,243.85L8.7,243.54L14.07,230.79L14.21,230.41L21.03,211.13L21.18,210.7L30.6,184.8L30.75,184.42L36.55,170.82L36.69,170.54L41.34,163.38L41.48,163.21L46.85,158.54L46.99,158.45L52.07,156.27L52.21,156.23L67.3,152.95L67.44,152.95L71.36,153.7L71.5,153.76L75.13,155.99L75.27,156.11L79.62,160.54L79.77,160.71L86.88,168.17L87.02,168.29L98.91,178.27L99.06,178.44L104.72,186.86L104.86,187.12L109.65,196.55L109.79,196.86L119.94,215.87L120.09,216.09L128.79,227.06L128.94,227.22L135.03,233.07L135.17,233.17L138.8,234.7L138.94,234.71L141.85,234.4L141.99,234.36L146.92,231.95L147.07,231.86L188.11,209.08L188.26,209.02L198.99,205.72L199.13,205.7L204.21,205.43L204.36,205.44L210.16,206.78L210.3,206.84L215.67,209.4L215.81,209.48L236.12,220.95L236.26,221.05L251.2,230.35L251.35,230.41L257.73,232.34L257.87,232.37L269.19,233.9L269.33,233.91L285.29,234.67L285.43,234.64L291.09,232.37L291.23,232.29L308.2,223.35L308.35,223.31L321.4,219.07L321.55,219L337.79,211.56L337.93,211.51L351.13,207.88L351.28,207.86L358.09,207.66L358.24,207.67L367.23,209.34L367.38,209.38L375.35,212.32L375.5,212.4L382.9,216.93L383.04,217.03L401.46,228.49L401.61,228.55L408.86,230.85L409,230.89L417.99,231.93L418.14,231.94L426.26,233.5L426.41,233.54L435.4,235.56L435.54,235.56L439.89,234.82L440.04,234.77L444.97,232.35L445.12,232.26L458.89,225.07L459.04,225.01L468.9,219.99L469.05,219.9L484.28,210.89L484.42,210.83L493.41,208.02L493.56,207.98L506.47,205.17L506.61,205.16L512.56,205.51L512.7,205.54L520.1,207.78L520.25,207.83L528.66,212.21L528.8,212.3L537.21,218.79L537.36,218.91L550.12,231.72L550.27,231.88L576.81,261.43L576.95,261.52L579.85,262.56L580,262.56L580,259.27L579.71,259.25L579.56,259.24L576.66,257.98L576.52,257.88L557.08,235.45L556.94,235.27L540.12,216.23L539.97,216.08L532.28,208.98L532.14,208.86L524.89,203.88L524.74,203.79L517.63,200.64L517.49,200.59L512.12,199.12L511.98,199.09L506.32,198.73L506.18,198.74L492.98,201.62L492.83,201.66L483.84,204.47L483.7,204.53L467.45,214.88L467.31,214.97L458.02,220.13L457.88,220.2L445.55,227.63L445.41,227.73L440.19,230.69L440.04,230.75L435.69,231.63L435.54,231.63L428.15,230.07L428,230.03L413.21,227.58L413.06,227.57L405.23,225.71L405.09,225.66L397.25,221.79L397.11,221.7L386.38,214.22L386.23,214.12L378.83,208.81L378.69,208.71L371.73,204.95L371.58,204.89L361.72,202.16L361.58,202.13L354.03,201.41L353.89,201.42L346.2,202.72L346.06,202.76L335.32,206.26L335.18,206.31L323.58,212.08L323.43,212.16L308.06,217.78L307.91,217.83L293.26,226.33L293.12,226.43L288.04,229.25L287.9,229.31L282.68,230.59L282.53,230.6L264.26,229.46L264.11,229.44L255.99,227.97L255.84,227.93L250.77,226.2L250.62,226.14L242.21,220.88L242.07,220.77L231.91,213.1L231.77,213L214.65,203.04L214.51,202.96L209,200.49L208.85,200.44L202.91,199.51L202.76,199.52L197.1,200.27L196.96,200.3L188.26,203.23L188.11,203.29L145.47,228.72L145.33,228.81L141.27,230.7L141.12,230.73L138.07,230.68L137.93,230.64L134.45,228.57L134.3,228.45L125.31,218.18L125.17,217.99L119.51,209.73L119.36,209.49L109.79,190.06L109.65,189.73L103.27,176.86L103.12,176.62L98.62,170.1L98.48,169.93L90.07,162.55L89.92,162.44L83.25,156.36L83.11,156.19L76.29,148.33L76.14,148.19L72.66,145.53L72.52,145.45L68.75,144.23L68.6,144.21L52.36,147.45L52.21,147.49L46.7,149.99L46.56,150.09L41.77,154.41L41.63,154.58L36.98,161.76L36.84,162.04L25.09,192.2L24.95,192.61L15.08,221.75L14.94,222.16L9.57,236.18L9.43,236.52L5.08,245.44L4.93,245.68L2.18,249.17L2.03,249.29L0,250.13Z" style="fill: rgb(0, 0, 255); fill-opacity: 0.15; stroke-width: 0;"/></g></g><g class="errorbars"/><g class="lines"><path class="js-line" d="M0,250.13L2.03,249.29L2.18,249.17L4.93,245.68L5.08,245.44L9.43,236.52L9.57,236.18L14.94,222.16L15.08,221.75L24.95,192.61L25.09,192.2L36.84,162.04L36.98,161.76L41.63,154.58L41.77,154.41L46.56,150.09L46.7,149.99L52.21,147.49L52.36,147.45L68.6,144.21L68.75,144.23L72.52,145.45L72.66,145.53L76.14,148.19L76.29,148.33L83.11,156.19L83.25,156.36L89.92,162.44L90.07,162.55L98.48,169.93L98.62,170.1L103.12,176.62L103.27,176.86L109.65,189.73L109.79,190.06L119.36,209.49L119.51,209.73L125.17,217.99L125.31,218.18L134.3,228.45L134.45,228.57L137.93,230.64L138.07,230.68L141.12,230.73L141.27,230.7L145.33,228.81L145.47,228.72L188.11,203.29L188.26,203.23L196.96,200.3L197.1,200.27L202.76,199.52L202.91,199.51L208.85,200.44L209,200.49L214.51,202.96L214.65,203.04L231.77,213L231.91,213.1L242.07,220.77L242.21,220.88L250.62,226.14L250.77,226.2L255.84,227.93L255.99,227.97L264.11,229.44L264.26,229.46L282.53,230.6L282.68,230.59L287.9,229.31L288.04,229.25L293.12,226.43L293.26,226.33L307.91,217.83L308.06,217.78L323.43,212.16L323.58,212.08L335.18,206.31L335.32,206.26L346.06,202.76L346.2,202.72L353.89,201.42L354.03,201.41L361.58,202.13L361.72,202.16L371.58,204.89L371.73,204.95L378.69,208.71L378.83,208.81L386.23,214.12L386.38,214.22L397.11,221.7L397.25,221.79L405.09,225.66L405.23,225.71L413.06,227.57L413.21,227.58L428,230.03L428.15,230.07L435.54,231.63L435.69,231.63L440.04,230.75L440.19,230.69L445.41,227.73L445.55,227.63L457.88,220.2L458.02,220.13L467.31,214.97L467.45,214.88L483.7,204.53L483.84,204.47L492.83,201.66L492.98,201.62L506.18,198.74L506.32,198.73L511.98,199.09L512.12,199.12L517.49,200.59L517.63,200.64L524.74,203.79L524.89,203.88L532.14,208.86L532.28,208.98L539.97,216.08L540.12,216.23L556.94,235.27L557.08,235.45L576.52,257.88L576.66,257.98L579.56,259.24L579.71,259.25L580,259.27" style="vector-effect: none; fill: none; stroke: rgb(171, 99, 250); stroke-opacity: 1; stroke-width: 0px; opacity: 1;"/></g><g class="points"/><g class="text"/></g><g class="trace scatter tracea1c5cb" style="stroke-miterlimit: 2;"><g class="fills"/><g class="errorbars"/><g class="lines"><path class="js-line" d="M0,254.63L2.18,253.74L2.32,253.62L4.79,250.72L4.93,250.5L8.56,243.85L8.7,243.54L14.07,230.79L14.21,230.41L21.03,211.13L21.18,210.7L30.6,184.8L30.75,184.42L36.55,170.82L36.69,170.54L41.34,163.38L41.48,163.21L46.85,158.54L46.99,158.45L52.07,156.27L52.21,156.23L67.3,152.95L67.44,152.95L71.36,153.7L71.5,153.76L75.13,155.99L75.27,156.11L79.62,160.54L79.77,160.71L86.88,168.17L87.02,168.29L98.91,178.27L99.06,178.44L104.72,186.86L104.86,187.12L109.65,196.55L109.79,196.86L119.94,215.87L120.09,216.09L128.79,227.06L128.94,227.22L135.03,233.07L135.17,233.17L138.8,234.7L138.94,234.71L141.85,234.4L141.99,234.36L146.92,231.95L147.07,231.86L188.11,209.08L188.26,209.02L198.99,205.72L199.13,205.7L204.21,205.43L204.36,205.44L210.16,206.78L210.3,206.84L215.67,209.4L215.81,209.48L236.12,220.95L236.26,221.05L251.2,230.35L251.35,230.41L257.73,232.34L257.87,232.37L269.19,233.9L269.33,233.91L285.29,234.67L285.43,234.64L291.09,232.37L291.23,232.29L308.2,223.35L308.35,223.31L321.4,219.07L321.55,219L337.79,211.56L337.93,211.51L351.13,207.88L351.28,207.86L358.09,207.66L358.24,207.67L367.23,209.34L367.38,209.38L375.35,212.32L375.5,212.4L382.9,216.93L383.04,217.03L401.46,228.49L401.61,228.55L408.86,230.85L409,230.89L417.99,231.93L418.14,231.94L426.26,233.5L426.41,233.54L435.4,235.56L435.54,235.56L439.89,234.82L440.04,234.77L444.97,232.35L445.12,232.26L458.89,225.07L459.04,225.01L468.9,219.99L469.05,219.9L484.28,210.89L484.42,210.83L493.41,208.02L493.56,207.98L506.47,205.17L506.61,205.16L512.56,205.51L512.7,205.54L520.1,207.78L520.25,207.83L528.66,212.21L528.8,212.3L537.21,218.79L537.36,218.91L550.12,231.72L550.27,231.88L576.81,261.43L576.95,261.52L579.85,262.56L580,262.56" style="vector-effect: none; fill: none; stroke: rgb(255, 161, 90); stroke-opacity: 1; stroke-width: 0px; opacity: 1;"/></g><g class="points"/><g class="text"/></g><g class="trace scatter trace2123cb" style="stroke-miterlimit: 2; opacity: 1;"><g class="fills"/><g class="errorbars"/><g class="lines"><path class="js-line" d="M0,252.38L2.03,251.57L2.18,251.45L4.79,248.32L4.93,248.09L8.56,241.18L8.7,240.87L14.07,227.7L14.21,227.3L21.32,206.74L21.47,206.31L30.02,182.46L30.17,182.07L36.26,167.3L36.4,167.01L41.19,159.33L41.34,159.16L45.25,155.35L45.4,155.24L49.89,152.62L50.04,152.57L54.97,151.26L55.11,151.23L69.04,148.67L69.18,148.7L72.66,149.92L72.81,150L77.45,153.83L77.59,153.99L90.65,166.98L90.79,167.08L96.74,171.93L96.88,172.08L101.24,177.46L101.38,177.68L105.73,185.05L105.88,185.33L120.82,214.48L120.96,214.69L128.5,224.45L128.65,224.62L134.74,230.84L134.88,230.95L138.51,232.72L138.65,232.75L141.85,232.46L141.99,232.42L146.49,230.14L146.63,230.05L187.24,206.53L187.39,206.48L196.67,203.3L196.81,203.26L204.21,202.49L204.36,202.5L210.16,203.84L210.3,203.9L215.52,206.42L215.67,206.5L236.7,218.99L236.84,219.09L249.9,227.8L250.04,227.86L256.57,230.09L256.71,230.13L268.61,231.81L268.75,231.82L285,232.48L285.14,232.45L289.64,230.81L289.78,230.74L295.44,227.29L295.58,227.19L305.3,221.58L305.45,221.52L311.97,219.52L312.12,219.48L319.95,216.84L320.1,216.77L338.51,208.2L338.66,208.15L352.44,204.61L352.58,204.59L359.83,204.84L359.98,204.86L368.39,206.72L368.54,206.76L375.93,209.81L376.08,209.89L385.36,216.04L385.51,216.14L394.93,222.59L395.08,222.69L403.35,227.12L403.49,227.18L410.31,229.13L410.45,229.15L418.43,230L418.57,230.01L425.1,231.17L425.25,231.21L436.12,233.58L436.27,233.57L440.62,232.53L440.77,232.47L446.42,229.25L446.57,229.16L454.4,224.46L454.54,224.39L468.9,216.93L469.05,216.83L484.42,207.53L484.57,207.48L491.67,205.23L491.82,205.19L506.32,201.95L506.47,201.94L512.99,202.45L513.14,202.48L520.1,204.67L520.25,204.73L528.22,208.94L528.37,209.03L537.94,216.74L538.08,216.87L548.09,227.22L548.24,227.38L577.1,259.95L577.24,260.04L580,260.91" style="vector-effect: none; fill: none; stroke: rgb(0, 0, 255); stroke-opacity: 1; stroke-width: 3px; opacity: 1;"/></g><g class="points"/><g class="text"/></g><g class="trace scatter tracea7347d" style="stroke-miterlimit: 2;"><g class="fills"><g><path class="js-fill" d="M0,279L2.61,278.23L2.76,278.15L6.67,274.81L6.82,274.65L24.37,256.02L24.51,255.91L45.25,241.68L45.4,241.56L55.69,233.72L55.84,233.65L60.05,232.34L60.19,232.32L65.56,232.67L65.7,232.71L70.63,234.77L70.78,234.85L85.72,244.65L85.86,244.8L92.82,253.32L92.97,253.5L98.33,259.2L98.48,259.33L103.7,262.84L103.85,262.91L109.5,265.28L109.65,265.33L130.82,272.24L130.97,272.26L137.78,272.25L137.93,272.23L142.72,270.69L142.86,270.61L146.78,267.99L146.92,267.86L150.84,263.78L150.98,263.6L155.48,257.06L155.62,256.82L165.05,243.46L165.2,243.3L170.71,238.1L170.85,237.99L176.36,234.52L176.51,234.46L181.01,233.33L181.15,233.32L185.65,233.76L185.79,233.8L191.45,236.04L191.59,236.12L198.41,240.6L198.55,240.71L224.66,259.19L224.81,259.28L232.06,263.06L232.2,263.12L239.45,265.25L239.6,265.27L246.13,265.44L246.27,265.43L271.94,262.97L272.09,262.95L283.98,262.44L284.13,262.45L291.81,261.7L291.96,261.66L296.74,259.59L296.89,259.5L300.95,256.02L301.1,255.86L307.48,246.99L307.62,246.77L316.32,235.29L316.47,235.13L323.29,228.46L323.43,228.34L328.51,225.53L328.65,225.48L333.15,225.05L333.29,225.06L338.66,226.49L338.8,226.55L344.75,229.71L344.9,229.81L350.84,234.51L350.99,234.64L362.59,244.39L362.74,244.49L377.82,254.35L377.96,254.43L387.97,259.57L388.12,259.63L394.79,261.71L394.93,261.73L402.33,262.47L402.48,262.47L433.66,263.33L433.8,263.33L442.51,262.31L442.65,262.27L446.86,260.38L447,260.29L451.21,256.61L451.35,256.45L456.86,249.11L457.01,248.9L463.39,240.62L463.54,240.46L469.34,234.97L469.48,234.85L476.59,230.51L476.73,230.45L482.54,229.27L482.68,229.27L487.76,229.99L487.9,230.03L495.01,233.13L495.15,233.21L504,239.38L504.15,239.49L520.39,251.31L520.54,251.41L536.2,261.7L536.34,261.77L543.74,264.89L543.89,264.94L561.44,271.49L561.58,271.57L568.69,276.68L568.83,276.8L577.53,282.88L577.68,282.93L580,283.35L580,280.91L578.4,280.7L578.26,280.66L566.51,272.3L566.37,272.18L560.42,268.17L560.28,268.09L547.08,263.21L546.93,263.16L538.52,259.77L538.37,259.69L530.69,255.11L530.54,255.01L515.17,243.88L515.02,243.77L503.86,234.42L503.71,234.3L495.44,227.91L495.3,227.82L488.92,224.62L488.77,224.57L483.7,223.48L483.55,223.47L479.34,223.82L479.2,223.85L473.25,226.59L473.11,226.68L467.02,231.74L466.87,231.89L460.2,239.95L460.06,240.15L452.51,251.46L452.37,251.65L448.45,255.99L448.31,256.11L443.67,258.88L443.52,258.93L429.16,260.23L429.02,260.23L407.41,259.2L407.26,259.19L396.09,258.42L395.95,258.39L388.7,256.07L388.55,256L380.29,251.56L380.14,251.47L362.88,239.74L362.74,239.63L353.89,231.81L353.74,231.66L348.23,226.3L348.09,226.17L342,221.88L341.85,221.8L336.77,219.69L336.63,219.65L331.99,218.91L331.84,218.91L327.78,219.77L327.64,219.83L322.56,223.29L322.42,223.42L315.6,231.01L315.45,231.2L305.16,246.67L305.01,246.9L300.23,253.44L300.08,253.6L296.45,256.63L296.31,256.72L292.1,258.57L291.96,258.61L277.6,259.13L277.45,259.14L249.75,262.18L249.61,262.2L242.07,262.68L241.92,262.67L234.23,260.81L234.09,260.75L228,257.71L227.85,257.63L212.48,246.5L212.33,246.4L204.36,240.54L204.21,240.42L194.64,232.67L194.49,232.56L187.68,228.86L187.53,228.81L183.47,227.82L183.33,227.8L179.12,228.08L178.97,228.12L174.48,230.17L174.33,230.27L166.79,236.83L166.65,236.99L151.71,259.36L151.56,259.56L146.78,265.01L146.63,265.14L142.14,268.18L141.99,268.25L137.06,269.67L136.91,269.69L130.39,269.53L130.24,269.51L111.1,262.6L110.95,262.54L103.85,259.33L103.7,259.25L98.33,255.23L98.19,255.09L88.33,242.29L88.18,242.09L83.83,237.04L83.69,236.91L69.91,228.23L69.76,228.15L65.41,226.54L65.27,226.51L60.77,226.37L60.63,226.39L56.71,227.56L56.56,227.63L38.87,242.01L38.72,242.12L30.31,248.03L30.17,248.12L24.37,252.11L24.22,252.22L13.92,263.01L13.78,263.19L6.09,272.47L5.95,272.62L2.9,275.26L2.76,275.35L0,276.25Z" style="fill: rgb(148, 0, 211); fill-opacity: 0.15; stroke-width: 0;"/></g></g><g class="errorbars"/><g class="lines"><path class="js-line" d="M0,276.25L2.76,275.35L2.9,275.26L5.95,272.62L6.09,272.47L13.78,263.19L13.92,263.01L24.22,252.22L24.37,252.11L30.17,248.12L30.31,248.03L38.72,242.12L38.87,242.01L56.56,227.63L56.71,227.56L60.63,226.39L60.77,226.37L65.27,226.51L65.41,226.54L69.76,228.15L69.91,228.23L83.69,236.91L83.83,237.04L88.18,242.09L88.33,242.29L98.19,255.09L98.33,255.23L103.7,259.25L103.85,259.33L110.95,262.54L111.1,262.6L130.24,269.51L130.39,269.53L136.91,269.69L137.06,269.67L141.99,268.25L142.14,268.18L146.63,265.14L146.78,265.01L151.56,259.56L151.71,259.36L166.65,236.99L166.79,236.83L174.33,230.27L174.48,230.17L178.97,228.12L179.12,228.08L183.33,227.8L183.47,227.82L187.53,228.81L187.68,228.86L194.49,232.56L194.64,232.67L204.21,240.42L204.36,240.54L212.33,246.4L212.48,246.5L227.85,257.63L228,257.71L234.09,260.75L234.23,260.81L241.92,262.67L242.07,262.68L249.61,262.2L249.75,262.18L277.45,259.14L277.6,259.13L291.96,258.61L292.1,258.57L296.31,256.72L296.45,256.63L300.08,253.6L300.23,253.44L305.01,246.9L305.16,246.67L315.45,231.2L315.6,231.01L322.42,223.42L322.56,223.29L327.64,219.83L327.78,219.77L331.84,218.91L331.99,218.91L336.63,219.65L336.77,219.69L341.85,221.8L342,221.88L348.09,226.17L348.23,226.3L353.74,231.66L353.89,231.81L362.74,239.63L362.88,239.74L380.14,251.47L380.29,251.56L388.55,256L388.7,256.07L395.95,258.39L396.09,258.42L407.26,259.19L407.41,259.2L429.02,260.23L429.16,260.23L443.52,258.93L443.67,258.88L448.31,256.11L448.45,255.99L452.37,251.65L452.51,251.46L460.06,240.15L460.2,239.95L466.87,231.89L467.02,231.74L473.11,226.68L473.25,226.59L479.2,223.85L479.34,223.82L483.55,223.47L483.7,223.48L488.77,224.57L488.92,224.62L495.3,227.82L495.44,227.91L503.71,234.3L503.86,234.42L515.02,243.77L515.17,243.88L530.54,255.01L530.69,255.11L538.37,259.69L538.52,259.77L546.93,263.16L547.08,263.21L560.28,268.09L560.42,268.17L566.37,272.18L566.51,272.3L578.26,280.66L578.4,280.7L580,280.91" style="vector-effect: none; fill: none; stroke: rgb(255, 102, 146); stroke-opacity: 1; stroke-width: 0px; opacity: 1;"/></g><g class="points"/><g class="text"/></g><g class="trace scatter traced868ec" style="stroke-miterlimit: 2;"><g class="fills"/><g class="errorbars"/><g class="lines"><path class="js-line" d="M0,279L2.61,278.23L2.76,278.15L6.67,274.81L6.82,274.65L24.37,256.02L24.51,255.91L45.25,241.68L45.4,241.56L55.69,233.72L55.84,233.65L60.05,232.34L60.19,232.32L65.56,232.67L65.7,232.71L70.63,234.77L70.78,234.85L85.72,244.65L85.86,244.8L92.82,253.32L92.97,253.5L98.33,259.2L98.48,259.33L103.7,262.84L103.85,262.91L109.5,265.28L109.65,265.33L130.82,272.24L130.97,272.26L137.78,272.25L137.93,272.23L142.72,270.69L142.86,270.61L146.78,267.99L146.92,267.86L150.84,263.78L150.98,263.6L155.48,257.06L155.62,256.82L165.05,243.46L165.2,243.3L170.71,238.1L170.85,237.99L176.36,234.52L176.51,234.46L181.01,233.33L181.15,233.32L185.65,233.76L185.79,233.8L191.45,236.04L191.59,236.12L198.41,240.6L198.55,240.71L224.66,259.19L224.81,259.28L232.06,263.06L232.2,263.12L239.45,265.25L239.6,265.27L246.13,265.44L246.27,265.43L271.94,262.97L272.09,262.95L283.98,262.44L284.13,262.45L291.81,261.7L291.96,261.66L296.74,259.59L296.89,259.5L300.95,256.02L301.1,255.86L307.48,246.99L307.62,246.77L316.32,235.29L316.47,235.13L323.29,228.46L323.43,228.34L328.51,225.53L328.65,225.48L333.15,225.05L333.29,225.06L338.66,226.49L338.8,226.55L344.75,229.71L344.9,229.81L350.84,234.51L350.99,234.64L362.59,244.39L362.74,244.49L377.82,254.35L377.96,254.43L387.97,259.57L388.12,259.63L394.79,261.71L394.93,261.73L402.33,262.47L402.48,262.47L433.66,263.33L433.8,263.33L442.51,262.31L442.65,262.27L446.86,260.38L447,260.29L451.21,256.61L451.35,256.45L456.86,249.11L457.01,248.9L463.39,240.62L463.54,240.46L469.34,234.97L469.48,234.85L476.59,230.51L476.73,230.45L482.54,229.27L482.68,229.27L487.76,229.99L487.9,230.03L495.01,233.13L495.15,233.21L504,239.38L504.15,239.49L520.39,251.31L520.54,251.41L536.2,261.7L536.34,261.77L543.74,264.89L543.89,264.94L561.44,271.49L561.58,271.57L568.69,276.68L568.83,276.8L577.53,282.88L577.68,282.93L580,283.35" style="vector-effect: none; fill: none; stroke: rgb(182, 232, 128); stroke-opacity: 1; stroke-width: 0px; opacity: 1;"/></g><g class="points"/><g class="text"/></g><g class="trace scatter tracecb5dd6" style="stroke-miterlimit: 2; opacity: 1;"><g class="fills"/><g class="errorbars"/><g class="lines"><path class="js-line" d="M0,277.62L2.61,276.84L2.76,276.75L6.53,273.48L6.67,273.32L12.47,266.46L12.62,266.28L22.05,255.98L22.19,255.85L30.89,249.77L31.04,249.68L42.35,241.59L42.5,241.47L56.13,230.68L56.27,230.61L60.77,229.31L60.92,229.3L65.27,229.56L65.41,229.59L69.62,231.16L69.76,231.23L82.53,238.87L82.67,238.98L87.17,243.5L87.31,243.67L100.08,258.68L100.22,258.79L106.17,262.26L106.31,262.33L128.94,270.62L129.08,270.65L137.06,271.01L137.2,270.99L141.99,269.64L142.14,269.57L146.92,266.37L147.07,266.24L151.85,260.81L152,260.61L166.21,239.84L166.36,239.69L172.59,234.09L172.74,233.99L177.09,231.5L177.23,231.44L181.44,230.52L181.59,230.52L186.08,231.11L186.23,231.15L191.45,233.34L191.59,233.42L197.68,237.51L197.83,237.63L216.39,251.38L216.54,251.49L230.61,260.78L230.75,260.85L238.29,263.58L238.44,263.61L244.53,264.12L244.68,264.12L267.3,261.82L267.45,261.8L283.26,260.85L283.4,260.85L290.07,260.56L290.22,260.53L295.15,258.92L295.29,258.85L299.64,255.69L299.79,255.55L304,250.33L304.14,250.11L318.93,229.74L319.08,229.58L325.03,224.26L325.17,224.16L329.96,222.13L330.1,222.11L333.87,222.09L334.02,222.11L339.67,223.84L339.82,223.9L345.48,227.14L345.62,227.25L350.84,231.62L350.99,231.76L361.29,241.01L361.43,241.12L385.36,256.44L385.51,256.51L393.19,259.54L393.34,259.58L400.88,260.67L401.03,260.67L428.44,261.85L428.58,261.84L441.2,261.11L441.35,261.08L446.28,259.16L446.42,259.08L450.19,255.98L450.34,255.83L455.12,249.63L455.27,249.42L462.96,238.69L463.1,238.52L469.05,232.52L469.19,232.39L475.86,227.96L476.01,227.89L481.23,226.42L481.38,226.41L485.87,226.67L486.02,226.7L491.82,228.66L491.96,228.73L498.05,232.38L498.2,232.49L509.08,241.16L509.22,241.28L523,251.35L523.15,251.46L537.36,260.73L537.5,260.8L547.95,264.88L548.09,264.92L561.15,269.95L561.29,270.04L566.66,273.74L566.8,273.85L577.68,281.71L577.82,281.76L580,282.13" style="vector-effect: none; fill: none; stroke: rgb(148, 0, 211); stroke-opacity: 1; stroke-width: 3px; opacity: 1;"/></g><g class="points"/><g class="text"/></g><g class="trace scatter traceef2033" style="stroke-miterlimit: 2;"><g class="fills"><g><path class="js-fill" d="M0,304L6.09,303.25L6.24,303.23L15.08,302.45L15.23,302.45L41.92,301.86L42.06,301.85L64.69,299.62L64.83,299.6L78.61,298.51L78.75,298.51L92.53,300.16L92.68,300.18L122.85,301.54L122.99,301.54L145.62,300.81L145.76,300.78L150.84,299.03L150.98,298.96L155.77,295.59L155.91,295.47L163.17,288.2L163.31,288.05L169.69,283.07L169.84,283L173.75,281.87L173.9,281.85L177.96,282.32L178.1,282.36L183.47,284.91L183.62,284.99L190.14,287.86L190.29,287.9L229.74,299.62L229.88,299.64L239.16,300.14L239.31,300.14L275.86,300.89L276,300.9L295.58,300.24L295.73,300.2L300.66,298.45L300.81,298.38L306.03,294.97L306.17,294.85L312.12,289.57L312.26,289.43L320.68,283.03L320.82,282.95L325.46,281.6L325.61,281.59L329.96,282.18L330.1,282.23L336.34,285.1L336.48,285.17L353.16,292.16L353.31,292.21L365.2,295.54L365.35,295.57L384.49,299.44L384.64,299.45L442.22,300.95L442.36,300.93L448.02,299.44L448.16,299.38L452.37,296.93L452.51,296.82L458.17,291.77L458.31,291.62L468.47,282.81L468.61,282.73L474.27,280.89L474.41,280.87L479.34,281.25L479.49,281.29L485.44,283.9L485.58,283.98L506.47,292.95L506.61,292.99L534.31,299.62L534.46,299.63L573.33,302.36L573.47,302.4L580,303.48L580,303.21L575.21,302.52L575.07,302.48L566.95,300.9L566.8,300.88L535.76,299.25L535.62,299.24L510.82,292.8L510.67,292.76L504.15,290.76L504,290.71L481.67,280.35L481.52,280.29L477.02,278.97L476.88,278.95L472.24,279.31L472.09,279.35L467.6,281.37L467.45,281.47L455.27,293.51L455.12,293.65L449.47,298.15L449.32,298.23L444.54,300.12L444.39,300.15L436.56,300.9L436.41,300.91L415.09,300.24L414.95,300.24L384.64,298.9L384.49,298.9L362.59,293.8L362.45,293.76L343.01,286.57L342.87,286.51L334.31,282.47L334.16,282.4L329.23,280.31L329.09,280.27L325.32,279.95L325.17,279.96L321.26,281.13L321.11,281.19L307.91,292.31L307.77,292.45L301.39,297.38L301.24,297.47L295.44,299.82L295.29,299.85L275.42,300.45L275.28,300.44L237.71,299.69L237.57,299.69L229.74,299.09L229.59,299.06L207.84,292.08L207.69,292.03L190.14,286.58L190,286.53L182.6,282.94L182.46,282.85L177.81,280.52L177.67,280.47L173.9,279.98L173.75,279.99L169.55,281.27L169.4,281.35L163.31,286.46L163.17,286.62L156.49,293.87L156.35,294.02L151.42,298.05L151.27,298.14L146.78,300.11L146.63,300.15L126.33,301.16L126.18,301.16L112.11,300.97L111.97,300.96L80.79,297.98L80.64,297.96L39.74,301.47L39.59,301.48L13.92,301.99L13.78,301.99L6.09,302.77L5.95,302.8L0,303.55Z" style="fill: rgb(207, 184, 124); fill-opacity: 0.15; stroke-width: 0;"/></g></g><g class="errorbars"/><g class="lines"><path class="js-line" d="M0,303.55L5.95,302.8L6.09,302.77L13.78,301.99L13.92,301.99L39.59,301.48L39.74,301.47L80.64,297.96L80.79,297.98L111.97,300.96L112.11,300.97L126.18,301.16L126.33,301.16L146.63,300.15L146.78,300.11L151.27,298.14L151.42,298.05L156.35,294.02L156.49,293.87L163.17,286.62L163.31,286.46L169.4,281.35L169.55,281.27L173.75,279.99L173.9,279.98L177.67,280.47L177.81,280.52L182.46,282.85L182.6,282.94L190,286.53L190.14,286.58L207.69,292.03L207.84,292.08L229.59,299.06L229.74,299.09L237.57,299.69L237.71,299.69L275.28,300.44L275.42,300.45L295.29,299.85L295.44,299.82L301.24,297.47L301.39,297.38L307.77,292.45L307.91,292.31L321.11,281.19L321.26,281.13L325.17,279.96L325.32,279.95L329.09,280.27L329.23,280.31L334.16,282.4L334.31,282.47L342.87,286.51L343.01,286.57L362.45,293.76L362.59,293.8L384.49,298.9L384.64,298.9L414.95,300.24L415.09,300.24L436.41,300.91L436.56,300.9L444.39,300.15L444.54,300.12L449.32,298.23L449.47,298.15L455.12,293.65L455.27,293.51L467.45,281.47L467.6,281.37L472.09,279.35L472.24,279.31L476.88,278.95L477.02,278.97L481.52,280.29L481.67,280.35L504,290.71L504.15,290.76L510.67,292.76L510.82,292.8L535.62,299.24L535.76,299.25L566.8,300.88L566.95,300.9L575.07,302.48L575.21,302.52L580,303.21" style="vector-effect: none; fill: none; stroke: rgb(254, 203, 82); stroke-opacity: 1; stroke-width: 0px; opacity: 1;"/></g><g class="points"/><g class="text"/></g><g class="trace scatter traced25c5d" style="stroke-miterlimit: 2;"><g class="fills"/><g class="errorbars"/><g class="lines"><path class="js-line" d="M0,304L6.09,303.25L6.24,303.23L15.08,302.45L15.23,302.45L41.92,301.86L42.06,301.85L64.69,299.62L64.83,299.6L78.61,298.51L78.75,298.51L92.53,300.16L92.68,300.18L122.85,301.54L122.99,301.54L145.62,300.81L145.76,300.78L150.84,299.03L150.98,298.96L155.77,295.59L155.91,295.47L163.17,288.2L163.31,288.05L169.69,283.07L169.84,283L173.75,281.87L173.9,281.85L177.96,282.32L178.1,282.36L183.47,284.91L183.62,284.99L190.14,287.86L190.29,287.9L229.74,299.62L229.88,299.64L239.16,300.14L239.31,300.14L275.86,300.89L276,300.9L295.58,300.24L295.73,300.2L300.66,298.45L300.81,298.38L306.03,294.97L306.17,294.85L312.12,289.57L312.26,289.43L320.68,283.03L320.82,282.95L325.46,281.6L325.61,281.59L329.96,282.18L330.1,282.23L336.34,285.1L336.48,285.17L353.16,292.16L353.31,292.21L365.2,295.54L365.35,295.57L384.49,299.44L384.64,299.45L442.22,300.95L442.36,300.93L448.02,299.44L448.16,299.38L452.37,296.93L452.51,296.82L458.17,291.77L458.31,291.62L468.47,282.81L468.61,282.73L474.27,280.89L474.41,280.87L479.34,281.25L479.49,281.29L485.44,283.9L485.58,283.98L506.47,292.95L506.61,292.99L534.31,299.62L534.46,299.63L573.33,302.36L573.47,302.4L580,303.48" style="vector-effect: none; fill: none; stroke: rgb(99, 110, 250); stroke-opacity: 1; stroke-width: 0px; opacity: 1;"/></g><g class="points"/><g class="text"/></g><g class="trace scatter traced4bab4" style="stroke-miterlimit: 2; opacity: 1;"><g class="fills"/><g class="errorbars"/><g class="lines"><path class="js-line" d="M0,303.78L21.76,302.36L21.9,302.37L40.61,301.67L40.76,301.66L80.5,298.28L80.64,298.29L103.41,300.68L103.56,300.69L138.51,301.31L138.65,301.31L145.76,300.58L145.91,300.54L150.69,298.79L150.84,298.72L155.77,295.09L155.91,294.95L161.72,288.94L161.86,288.78L169.26,282.36L169.4,282.28L174.04,280.91L174.19,280.9L178.1,281.49L178.25,281.54L183.18,284.02L183.33,284.11L190.29,287.26L190.43,287.31L206.97,292.49L207.11,292.54L229.3,299.29L229.45,299.31L237.28,299.91L237.42,299.91L275.13,300.66L275.28,300.67L295.44,300.04L295.58,300.01L301.39,297.73L301.53,297.65L307.48,293.25L307.62,293.12L320.82,282.15L320.97,282.08L325.17,280.79L325.32,280.78L329.52,281.22L329.67,281.26L335.32,283.79L335.47,283.87L349.54,290.08L349.68,290.14L361.72,294.16L361.87,294.19L381.74,298.91L381.88,298.93L389.86,299.25L390,299.25L404.22,300L404.36,300.01L429.16,300.93L429.31,300.93L440.33,300.94L440.48,300.93L446.42,299.8L446.57,299.75L451.21,297.37L451.35,297.27L456.14,293.19L456.28,293.05L468.03,282.08L468.18,282L472.09,280.34L472.24,280.3L477.02,279.9L477.17,279.92L481.38,281.09L481.52,281.15L507.05,292.41L507.19,292.45L535.47,299.46L535.62,299.47L573.04,302.14L573.18,302.17L580,303.34" style="vector-effect: none; fill: none; stroke: rgb(207, 184, 124); stroke-opacity: 1; stroke-width: 3px; opacity: 1;"/></g><g class="points"/><g class="text"/></g></g></g></g><g class="zerolinelayer-above"/><path class="xlines-above crisp" d="M79,420.5H661M79,99.5H661" style="fill: none; stroke-width: 1px; stroke: rgb(0, 0, 0); stroke-opacity: 1;"/><path class="ylines-above crisp" d="M79.5,100V420M660.5,100V420" style="fill: none; stroke-width: 1px; stroke: rgb(0, 0, 0); stroke-opacity: 1;"/><g class="overlines-above"/><g class="xaxislayer-above"><path class="xtick ticks crisp" d="M0,421v5" transform="translate(80,0)" style="stroke: rgb(68, 68, 68); stroke-opacity: 1; stroke-width: 1px;"/><path class="xtick ticks crisp" d="M0,421v5" transform="translate(152.5,0)" style="stroke: rgb(68, 68, 68); stroke-opacity: 1; stroke-width: 1px;"/><path class="xtick ticks crisp" d="M0,421v5" transform="translate(225,0)" style="stroke: rgb(68, 68, 68); stroke-opacity: 1; stroke-width: 1px;"/><path class="xtick ticks crisp" d="M0,421v5" transform="translate(297.5,0)" style="stroke: rgb(68, 68, 68); stroke-opacity: 1; stroke-width: 1px;"/><path class="xtick ticks crisp" d="M0,421v5" transform="translate(370,0)" style="stroke: rgb(68, 68, 68); stroke-opacity: 1; stroke-width: 1px;"/><path class="xtick ticks crisp" d="M0,421v5" transform="translate(442.5,0)" style="stroke: rgb(68, 68, 68); stroke-opacity: 1; stroke-width: 1px;"/><path class="xtick ticks crisp" d="M0,421v5" transform="translate(515,0)" style="stroke: rgb(68, 68, 68); stroke-opacity: 1; stroke-width: 1px;"/><path class="xtick ticks crisp" d="M0,421v5" transform="translate(587.5,0)" style="stroke: rgb(68, 68, 68); stroke-opacity: 1; stroke-width: 1px;"/><path class="xtick ticks crisp" d="M0,421v5" transform="translate(660,0)" style="stroke: rgb(68, 68, 68); stroke-opacity: 1; stroke-width: 1px;"/><g class="xtick"><text text-anchor="middle" x="0" y="440.4" transform="translate(80,0)" style="font-family: 'Open Sans', verdana, arial, sans-serif; font-size: 12px; fill: rgb(42, 63, 95); fill-opacity: 1; white-space: pre;">−2000</text></g><g class="xtick"><text text-anchor="middle" x="0" y="440.4" style="font-family: 'Open Sans', verdana, arial, sans-serif; font-size: 12px; fill: rgb(42, 63, 95); fill-opacity: 1; white-space: pre;" transform="translate(152.5,0)">−1500</text></g><g class="xtick"><text text-anchor="middle" x="0" y="440.4" style="font-family: 'Open Sans', verdana, arial, sans-serif; font-size: 12px; fill: rgb(42, 63, 95); fill-opacity: 1; white-space: pre;" transform="translate(225,0)">−1000</text></g><g class="xtick"><text text-anchor="middle" x="0" y="440.4" style="font-family: 'Open Sans', verdana, arial, sans-serif; font-size: 12px; fill: rgb(42, 63, 95); fill-opacity: 1; white-space: pre;" transform="translate(297.5,0)">−500</text></g><g class="xtick"><text text-anchor="middle" x="0" y="440.4" style="font-family: 'Open Sans', verdana, arial, sans-serif; font-size: 12px; fill: rgb(42, 63, 95); fill-opacity: 1; white-space: pre;" transform="translate(370,0)">0</text></g><g class="xtick"><text text-anchor="middle" x="0" y="440.4" style="font-family: 'Open Sans', verdana, arial, sans-serif; font-size: 12px; fill: rgb(42, 63, 95); fill-opacity: 1; white-space: pre;" transform="translate(442.5,0)">500</text></g><g class="xtick"><text text-anchor="middle" x="0" y="440.4" style="font-family: 'Open Sans', verdana, arial, sans-serif; font-size: 12px; fill: rgb(42, 63, 95); fill-opacity: 1; white-space: pre;" transform="translate(515,0)">1000</text></g><g class="xtick"><text text-anchor="middle" x="0" y="440.4" style="font-family: 'Open Sans', verdana, arial, sans-serif; font-size: 12px; fill: rgb(42, 63, 95); fill-opacity: 1; white-space: pre;" transform="translate(587.5,0)">1500</text></g><g class="xtick"><text text-anchor="middle" x="0" y="440.4" style="font-family: 'Open Sans', verdana, arial, sans-serif; font-size: 12px; fill: rgb(42, 63, 95); fill-opacity: 1; white-space: pre;" transform="translate(660,0)">2000</text></g></g><g class="yaxislayer-above"><path class="ytick ticks crisp" d="M79,0h-5" transform="translate(0,408.41)" style="stroke: rgb(68, 68, 68); stroke-opacity: 1; stroke-width: 1px;"/><path class="ytick ticks crisp" d="M79,0h-5" transform="translate(0,364.65)" style="stroke: rgb(68, 68, 68); stroke-opacity: 1; stroke-width: 1px;"/><path class="ytick ticks crisp" d="M79,0h-5" transform="translate(0,320.88)" style="stroke: rgb(68, 68, 68); stroke-opacity: 1; stroke-width: 1px;"/><path class="ytick ticks crisp" d="M79,0h-5" transform="translate(0,277.11)" style="stroke: rgb(68, 68, 68); stroke-opacity: 1; stroke-width: 1px;"/><path class="ytick ticks crisp" d="M79,0h-5" transform="translate(0,233.34)" style="stroke: rgb(68, 68, 68); stroke-opacity: 1; stroke-width: 1px;"/><path class="ytick ticks crisp" d="M79,0h-5" transform="translate(0,189.57999999999998)" style="stroke: rgb(68, 68, 68); stroke-opacity: 1; stroke-width: 1px;"/><path class="ytick ticks crisp" d="M79,0h-5" transform="translate(0,145.81)" style="stroke: rgb(68, 68, 68); stroke-opacity: 1; stroke-width: 1px;"/><path class="ytick ticks crisp" d="M79,0h-5" transform="translate(0,102.04)" style="stroke: rgb(68, 68, 68); stroke-opacity: 1; stroke-width: 1px;"/><g class="ytick"><text text-anchor="end" x="71.6" y="4.199999999999999" transform="translate(0,408.41)" style="font-family: 'Open Sans', verdana, arial, sans-serif; font-size: 12px; fill: rgb(42, 63, 95); fill-opacity: 1; white-space: pre;">0</text></g><g class="ytick"><text text-anchor="end" x="71.6" y="4.199999999999999" style="font-family: 'Open Sans', verdana, arial, sans-serif; font-size: 12px; fill: rgb(42, 63, 95); fill-opacity: 1; white-space: pre;" transform="translate(0,364.65)">50k</text></g><g class="ytick"><text text-anchor="end" x="71.6" y="4.199999999999999" style="font-family: 'Open Sans', verdana, arial, sans-serif; font-size: 12px; fill: rgb(42, 63, 95); fill-opacity: 1; white-space: pre;" transform="translate(0,320.88)">100k</text></g><g class="ytick"><text text-anchor="end" x="71.6" y="4.199999999999999" style="font-family: 'Open Sans', verdana, arial, sans-serif; font-size: 12px; fill: rgb(42, 63, 95); fill-opacity: 1; white-space: pre;" transform="translate(0,277.11)">150k</text></g><g class="ytick"><text text-anchor="end" x="71.6" y="4.199999999999999" style="font-family: 'Open Sans', verdana, arial, sans-serif; font-size: 12px; fill: rgb(42, 63, 95); fill-opacity: 1; white-space: pre;" transform="translate(0,233.34)">200k</text></g><g class="ytick"><text text-anchor="end" x="71.6" y="4.199999999999999" style="font-family: 'Open Sans', verdana, arial, sans-serif; font-size: 12px; fill: rgb(42, 63, 95); fill-opacity: 1; white-space: pre;" transform="translate(0,189.57999999999998)">250k</text></g><g class="ytick"><text text-anchor="end" x="71.6" y="4.199999999999999" style="font-family: 'Open Sans', verdana, arial, sans-serif; font-size: 12px; fill: rgb(42, 63, 95); fill-opacity: 1; white-space: pre;" transform="translate(0,145.81)">300k</text></g><g class="ytick"><text text-anchor="end" x="71.6" y="4.199999999999999" style="font-family: 'Open Sans', verdana, arial, sans-serif; font-size: 12px; fill: rgb(42, 63, 95); fill-opacity: 1; white-space: pre;" transform="translate(0,102.04)">350k</text></g></g><g class="overaxes-above"/></g></g><g class="polarlayer"/><g class="smithlayer"/><g class="ternarylayer"/><g class="geolayer"/><g class="funnelarealayer"/><g class="pielayer"/><g class="iciclelayer"/><g class="treemaplayer"/><g class="sunburstlayer"/><g class="glimages"/><defs id="topdefs-5c0d90"><g class="clips"/><clipPath id="legend5c0d90"><rect width="515" height="67" x="1" y="1"/></clipPath></defs><g class="layer-above"><g class="imagelayer"/><g class="shapelayer"><g class="shape-group" data-index="0" clip-path="url(#clip5c0d90x)"><path data-index="0" fill-rule="evenodd" d="M220.51,420L220.51,100" style="opacity: 1; stroke: rgb(128, 128, 128); stroke-opacity: 1; fill: rgb(0, 0, 0); fill-opacity: 0; stroke-dasharray: 9px, 9px; stroke-width: 2px;"/></g><g class="shape-group" data-index="1" clip-path="url(#clip5c0d90x)"><path data-index="1" fill-rule="evenodd" d="M297.5,420L297.5,100" style="opacity: 1; stroke: rgb(128, 128, 128); stroke-opacity: 1; fill: rgb(0, 0, 0); fill-opacity: 0; stroke-dasharray: 3px, 3px; stroke-width: 2px;"/></g><g class="shape-group" data-index="2" clip-path="url(#clip5c0d90x)"><path data-index="2" fill-rule="evenodd" d="M370,420L370,100" style="opacity: 1; stroke: rgb(128, 128, 128); stroke-opacity: 1; fill: rgb(0, 0, 0); fill-opacity: 0; stroke-dasharray: 9px, 9px; stroke-width: 2px;"/></g><g class="shape-group" data-index="3" clip-path="url(#clip5c0d90x)"><path data-index="3" fill-rule="evenodd" d="M447,420L447,100" style="opacity: 1; stroke: rgb(128, 128, 128); stroke-opacity: 1; fill: rgb(0, 0, 0); fill-opacity: 0; stroke-dasharray: 3px, 3px; stroke-width: 2px;"/></g><g class="shape-group" data-index="4" clip-path="url(#clip5c0d90x)"><path data-index="4" fill-rule="evenodd" d="M519.5,420L519.5,100" style="opacity: 1; stroke: rgb(128, 128, 128); stroke-opacity: 1; fill: rgb(0, 0, 0); fill-opacity: 0; stroke-dasharray: 9px, 9px; stroke-width: 2px;"/></g><g class="shape-group" data-index="5" clip-path="url(#clip5c0d90x)"><path data-index="5" fill-rule="evenodd" d="M596.49,420L596.49,100" style="opacity: 1; stroke: rgb(128, 128, 128); stroke-opacity: 1; fill: rgb(0, 0, 0); fill-opacity: 0; stroke-dasharray: 3px, 3px; stroke-width: 2px;"/></g><g class="shape-group" data-index="6" clip-path="url(#clip5c0d90x)"><path data-index="6" fill-rule="evenodd" d="M370,420L370,100" style="opacity: 1; stroke: rgb(255, 0, 0); stroke-opacity: 1; fill: rgb(0, 0, 0); fill-opacity: 0; stroke-dasharray: 9px, 9px; stroke-width: 2px;"/></g></g></g><g class="infolayer"><g class="legend" pointer-events="all" transform="translate(143,24.599999999999994)"><rect class="bg" shape-rendering="crispEdges" style="stroke: rgb(0, 0, 0); stroke-opacity: 1; fill: rgb(255, 255, 255); fill-opacity: 0.8; stroke-width: 1px;" width="516" height="68" x="0.5" y="0.5"/><g class="scrollbox" transform="" clip-path="url(#legend5c0d90)"><g class="groups"><g class="traces" transform="translate(1,15.5)" style="opacity: 1;"><text class="legendtext" text-anchor="start" x="40" y="4.680000000000001" style="font-family: 'Open Sans', verdana, arial, sans-serif; font-size: 12px; fill: rgb(42, 63, 95); fill-opacity: 1; white-space: pre;">Gamma</text><g class="layers" style="opacity: 1;"><g class="legendfill"/><g class="legendlines"><path class="js-line" d="M5,0h30" style="fill: none; stroke: rgb(207, 184, 124); stroke-opacity: 1; stroke-width: 3px;"/></g><g class="legendsymbols"><g class="legendpoints"/></g></g><rect class="legendtoggle" x="0" y="-9.5" width="89.5625" height="19" style="fill: rgb(0, 0, 0); fill-opacity: 0;"/></g><g class="traces" transform="translate(132.8671875,15.5)" style="opacity: 1;"><text class="legendtext" text-anchor="start" x="40" y="4.680000000000001" style="font-family: 'Open Sans', verdana, arial, sans-serif; font-size: 12px; fill: rgb(42, 63, 95); fill-opacity: 1; white-space: pre;">Gamma_down</text><g class="layers"><g class="legendfill"><path class="js-fill" d="M5,-2h30v6h-30z" style="stroke-width: 0; fill: rgb(207, 184, 124); fill-opacity: 0.15;"/></g><g class="legendlines"><path class="js-line" d="M5,-2h30" style="fill: none; stroke: rgb(99, 110, 250); stroke-opacity: 1; stroke-width: 0px;"/></g><g class="legendsymbols"><g class="legendpoints"/></g></g><rect class="legendtoggle" x="0" y="-9.5" width="129.3671875" height="19" style="fill: rgb(0, 0, 0); fill-opacity: 0;"/></g><g class="traces" transform="translate(264.734375,15.5)" style="opacity: 1;"><text class="legendtext" text-anchor="start" x="40" y="4.680000000000001" style="font-family: 'Open Sans', verdana, arial, sans-serif; font-size: 12px; fill: rgb(42, 63, 95); fill-opacity: 1; white-space: pre;">Gamma_up</text><g class="layers"><g class="legendfill"/><g class="legendlines"><path class="js-line" d="M5,0h30" style="fill: none; stroke: rgb(254, 203, 82); stroke-opacity: 1; stroke-width: 0px;"/></g><g class="legendsymbols"><g class="legendpoints"/></g></g><rect class="legendtoggle" x="0" y="-9.5" width="112.265625" height="19" style="fill: rgb(0, 0, 0); fill-opacity: 0;"/></g><g class="traces" transform="translate(396.6015625,15.5)" style="opacity: 1;"><text class="legendtext" text-anchor="start" x="40" y="4.680000000000001" style="font-family: 'Open Sans', verdana, arial, sans-serif; font-size: 12px; fill: rgb(42, 63, 95); fill-opacity: 1; white-space: pre;">Beta</text><g class="layers" style="opacity: 1;"><g class="legendfill"/><g class="legendlines"><path class="js-line" d="M5,0h30" style="fill: none; stroke: rgb(148, 0, 211); stroke-opacity: 1; stroke-width: 3px;"/></g><g class="legendsymbols"><g class="legendpoints"/></g></g><rect class="legendtoggle" x="0" y="-9.5" width="69.8125" height="19" style="fill: rgb(0, 0, 0); fill-opacity: 0;"/></g><g class="traces" transform="translate(1,34.5)" style="opacity: 1;"><text class="legendtext" text-anchor="start" x="40" y="4.680000000000001" style="font-family: 'Open Sans', verdana, arial, sans-serif; font-size: 12px; fill: rgb(42, 63, 95); fill-opacity: 1; white-space: pre;">Beta_down</text><g class="layers"><g class="legendfill"><path class="js-fill" d="M5,-2h30v6h-30z" style="stroke-width: 0; fill: rgb(148, 0, 211); fill-opacity: 0.15;"/></g><g class="legendlines"><path class="js-line" d="M5,-2h30" style="fill: none; stroke: rgb(182, 232, 128); stroke-opacity: 1; stroke-width: 0px;"/></g><g class="legendsymbols"><g class="legendpoints"/></g></g><rect class="legendtoggle" x="0" y="-9.5" width="109.6171875" height="19" style="fill: rgb(0, 0, 0); fill-opacity: 0;"/></g><g class="traces" transform="translate(132.8671875,34.5)" style="opacity: 1;"><text class="legendtext" text-anchor="start" x="40" y="4.680000000000001" style="font-family: 'Open Sans', verdana, arial, sans-serif; font-size: 12px; fill: rgb(42, 63, 95); fill-opacity: 1; white-space: pre;">Beta_up</text><g class="layers"><g class="legendfill"/><g class="legendlines"><path class="js-line" d="M5,0h30" style="fill: none; stroke: rgb(255, 102, 146); stroke-opacity: 1; stroke-width: 0px;"/></g><g class="legendsymbols"><g class="legendpoints"/></g></g><rect class="legendtoggle" x="0" y="-9.5" width="92.515625" height="19" style="fill: rgb(0, 0, 0); fill-opacity: 0;"/></g><g class="traces" transform="translate(264.734375,34.5)" style="opacity: 1;"><text class="legendtext" text-anchor="start" x="40" y="4.680000000000001" style="font-family: 'Open Sans', verdana, arial, sans-serif; font-size: 12px; fill: rgb(42, 63, 95); fill-opacity: 1; white-space: pre;">Alpha</text><g class="layers" style="opacity: 1;"><g class="legendfill"/><g class="legendlines"><path class="js-line" d="M5,0h30" style="fill: none; stroke: rgb(0, 0, 255); stroke-opacity: 1; stroke-width: 3px;"/></g><g class="legendsymbols"><g class="legendpoints"/></g></g><rect class="legendtoggle" x="0" y="-9.5" width="76.2734375" height="19" style="fill: rgb(0, 0, 0); fill-opacity: 0;"/></g><g class="traces" transform="translate(396.6015625,34.5)" style="opacity: 1;"><text class="legendtext" text-anchor="start" x="40" y="4.680000000000001" style="font-family: 'Open Sans', verdana, arial, sans-serif; font-size: 12px; fill: rgb(42, 63, 95); fill-opacity: 1; white-space: pre;">Alpha_down</text><g class="layers"><g class="legendfill"><path class="js-fill" d="M5,-2h30v6h-30z" style="stroke-width: 0; fill: rgb(0, 0, 255); fill-opacity: 0.15;"/></g><g class="legendlines"><path class="js-line" d="M5,-2h30" style="fill: none; stroke: rgb(255, 161, 90); stroke-opacity: 1; stroke-width: 0px;"/></g><g class="legendsymbols"><g class="legendpoints"/></g></g><rect class="legendtoggle" x="0" y="-9.5" width="116.078125" height="19" style="fill: rgb(0, 0, 0); fill-opacity: 0;"/></g><g class="traces" transform="translate(1,53.5)" style="opacity: 1;"><text class="legendtext" text-anchor="start" x="40" y="4.680000000000001" style="font-family: 'Open Sans', verdana, arial, sans-serif; font-size: 12px; fill: rgb(42, 63, 95); fill-opacity: 1; white-space: pre;">Alpha_up</text><g class="layers"><g class="legendfill"/><g class="legendlines"><path class="js-line" d="M5,0h30" style="fill: none; stroke: rgb(171, 99, 250); stroke-opacity: 1; stroke-width: 0px;"/></g><g class="legendsymbols"><g class="legendpoints"/></g></g><rect class="legendtoggle" x="0" y="-9.5" width="98.9765625" height="19" style="fill: rgb(0, 0, 0); fill-opacity: 0;"/></g><g class="traces" transform="translate(132.8671875,53.5)" style="opacity: 1;"><text class="legendtext" text-anchor="start" x="40" y="4.680000000000001" style="font-family: 'Open Sans', verdana, arial, sans-serif; font-size: 12px; fill: rgb(42, 63, 95); fill-opacity: 1; white-space: pre;">Theta</text><g class="layers" style="opacity: 1;"><g class="legendfill"/><g class="legendlines"><path class="js-line" d="M5,0h30" style="fill: none; stroke: rgb(75, 0, 130); stroke-opacity: 1; stroke-width: 3px;"/></g><g class="legendsymbols"><g class="legendpoints"/></g></g><rect class="legendtoggle" x="0" y="-9.5" width="77.078125" height="19" style="fill: rgb(0, 0, 0); fill-opacity: 0;"/></g><g class="traces" transform="translate(264.734375,53.5)" style="opacity: 1;"><text class="legendtext" text-anchor="start" x="40" y="4.680000000000001" style="font-family: 'Open Sans', verdana, arial, sans-serif; font-size: 12px; fill: rgb(42, 63, 95); fill-opacity: 1; white-space: pre;">Theta_down</text><g class="layers"><g class="legendfill"><path class="js-fill" d="M5,-2h30v6h-30z" style="stroke-width: 0; fill: rgb(75, 0, 130); fill-opacity: 0.15;"/></g><g class="legendlines"><path class="js-line" d="M5,-2h30" style="fill: none; stroke: rgb(239, 85, 59); stroke-opacity: 1; stroke-width: 0px;"/></g><g class="legendsymbols"><g class="legendpoints"/></g></g><rect class="legendtoggle" x="0" y="-9.5" width="116.875" height="19" style="fill: rgb(0, 0, 0); fill-opacity: 0;"/></g><g class="traces" transform="translate(396.6015625,53.5)" style="opacity: 1;"><text class="legendtext" text-anchor="start" x="40" y="4.680000000000001" style="font-family: 'Open Sans', verdana, arial, sans-serif; font-size: 12px; fill: rgb(42, 63, 95); fill-opacity: 1; white-space: pre;">Theta_up</text><g class="layers"><g class="legendfill"/><g class="legendlines"><path class="js-line" d="M5,0h30" style="fill: none; stroke: rgb(99, 110, 250); stroke-opacity: 1; stroke-width: 0px;"/></g><g class="legendsymbols"><g class="legendpoints"/></g></g><rect class="legendtoggle" x="0" y="-9.5" width="99.7734375" height="19" style="fill: rgb(0, 0, 0); fill-opacity: 0;"/></g></g></g><rect class="scrollbar" rx="20" ry="3" width="0" height="0" style="fill: rgb(128, 139, 164); fill-opacity: 1;" x="0" y="0"/></g><g class="g-gtitle"><text class="gtitle" x="350" y="50" text-anchor="middle" dy="0em" style="opacity: 1; font-family: Arial; font-size: 18px; fill: rgb(0, 0, 0); fill-opacity: 1; white-space: pre;"><tspan class="line" dy="0em" x="350" y="50"><tspan style="font-weight:bold">Figure f006: FST Band-Specific Omission Dynamics (AAAB)</tspan></tspan><tspan class="line" dy="1.3em" x="350" y="50">​<tspan style="font-size:70%" dy="-0.6em">Relative Power (dB) with ±SEM | 0ms = Omission Onset | 30ms Smoothed</tspan><tspan dy="0.42em">​</tspan></tspan></text></g><g class="g-xtitle"><text class="xtitle" x="370" y="467.200390625" text-anchor="middle" style="opacity: 1; font-family: 'Open Sans', verdana, arial, sans-serif; font-size: 14px; fill: rgb(42, 63, 95); fill-opacity: 1; white-space: pre;">Time from Omission (ms)</text></g><g class="g-ytitle"><text class="ytitle" transform="rotate(-90,22.207421875,260)" x="22.207421875" y="260" text-anchor="middle" style="opacity: 1; font-family: 'Open Sans', verdana, arial, sans-serif; font-size: 14px; fill: rgb(42, 63, 95); fill-opacity: 1; white-space: pre;">Relative Power (dB)</text></g><g class="annotation" data-index="0" style="opacity: 1;"><g class="annotation-text-g" transform="rotate(0,230.01,109.5)"><g class="cursor-pointer" transform="translate(221,100)"><rect class="bg" x="0.5" y="0.5" width="18" height="18" style="stroke-width: 1px; stroke: rgb(0, 0, 0); stroke-opacity: 0; fill: rgb(0, 0, 0); fill-opacity: 0;"/><text class="annotation-text" text-anchor="middle" x="9.43359375" y="14" style="font-family: 'Open Sans', verdana, arial, sans-serif; font-size: 12px; fill: rgb(42, 63, 95); fill-opacity: 1; white-space: pre;">P1</text></g></g></g><g class="annotation" data-index="1" style="opacity: 1;"><g class="annotation-text-g" transform="rotate(0,308,109.5)"><g class="cursor-pointer" transform="translate(298,100)"><rect class="bg" x="0.5" y="0.5" width="20" height="18" style="stroke-width: 1px; stroke: rgb(0, 0, 0); stroke-opacity: 0; fill: rgb(0, 0, 0); fill-opacity: 0;"/><text class="annotation-text" text-anchor="middle" x="10.4375" y="14" style="font-family: 'Open Sans', verdana, arial, sans-serif; font-size: 12px; fill: rgb(42, 63, 95); fill-opacity: 1; white-space: pre;">D1</text></g></g></g><g class="annotation" data-index="2" style="opacity: 1;"><g class="annotation-text-g" transform="rotate(0,379.5,109.5)"><g class="cursor-pointer" transform="translate(370,100)"><rect class="bg" x="0.5" y="0.5" width="18" height="18" style="stroke-width: 1px; stroke: rgb(0, 0, 0); stroke-opacity: 0; fill: rgb(0, 0, 0); fill-opacity: 0;"/><text class="annotation-text" text-anchor="middle" x="9.43359375" y="14" style="font-family: 'Open Sans', verdana, arial, sans-serif; font-size: 12px; fill: rgb(42, 63, 95); fill-opacity: 1; white-space: pre;">P2</text></g></g></g><g class="annotation" data-index="3" style="opacity: 1;"><g class="annotation-text-g" transform="rotate(0,457.5,109.5)"><g class="cursor-pointer" transform="translate(447,100)"><rect class="bg" x="0.5" y="0.5" width="20" height="18" style="stroke-width: 1px; stroke: rgb(0, 0, 0); stroke-opacity: 0; fill: rgb(0, 0, 0); fill-opacity: 0;"/><text class="annotation-text" text-anchor="middle" x="10.4375" y="14" style="font-family: 'Open Sans', verdana, arial, sans-serif; font-size: 12px; fill: rgb(42, 63, 95); fill-opacity: 1; white-space: pre;">D2</text></g></g></g><g class="annotation" data-index="4" style="opacity: 1;"><g class="annotation-text-g" transform="rotate(0,529,109.5)"><g class="cursor-pointer" transform="translate(520,100)"><rect class="bg" x="0.5" y="0.5" width="18" height="18" style="stroke-width: 1px; stroke: rgb(0, 0, 0); stroke-opacity: 0; fill: rgb(0, 0, 0); fill-opacity: 0;"/><text class="annotation-text" text-anchor="middle" x="9.43359375" y="14" style="font-family: 'Open Sans', verdana, arial, sans-serif; font-size: 12px; fill: rgb(42, 63, 95); fill-opacity: 1; white-space: pre;">P3</text></g></g></g><g class="annotation" data-index="5" style="opacity: 1;"><g class="annotation-text-g" transform="rotate(0,606.99,109.5)"><g class="cursor-pointer" transform="translate(596,100)"><rect class="bg" x="0.5" y="0.5" width="20" height="18" style="stroke-width: 1px; stroke: rgb(0, 0, 0); stroke-opacity: 0; fill: rgb(0, 0, 0); fill-opacity: 0;"/><text class="annotation-text" text-anchor="middle" x="10.4375" y="14" style="font-family: 'Open Sans', verdana, arial, sans-serif; font-size: 12px; fill: rgb(42, 63, 95); fill-opacity: 1; white-space: pre;">D3</text></g></g></g><g class="annotation" data-index="6" style="opacity: 1;"><g class="annotation-text-g" transform="rotate(0,419,109.5)"><g class="cursor-pointer" transform="translate(370,100)"><rect class="bg" x="0.5" y="0.5" width="97" height="18" style="stroke-width: 1px; stroke: rgb(0, 0, 0); stroke-opacity: 0; fill: rgb(0, 0, 0); fill-opacity: 0;"/><text class="annotation-text" text-anchor="middle" x="49.171875" y="14" style="font-family: 'Open Sans', verdana, arial, sans-serif; font-size: 12px; fill: rgb(42, 63, 95); fill-opacity: 1; white-space: pre;">OMISSION (P2)</text></g></g></g></g></svg>