<svg class="main-svg" xmlns="http://www.w3.org/2000/svg" xmlns:xlink="http://www.w3.org/1999/xlink" width="700" height="500" style="" viewBox="0 0 700 500"><rect x="0" y="0" width="700" height="500" style="fill: rgb(255, 255, 255); fill-opacity: 1;"/><defs id="defs-65e672"><g class="clips"><clipPath id="clip65e672xyplot" class="plotclip"><rect width="580" height="320"/></clipPath><clipPath class="axesclip" id="clip65e672x"><rect x="80" y="0" width="580" height="500"/></clipPath><clipPath class="axesclip" id="clip65e672y"><rect x="0" y="100" width="700" height="320"/></clipPath><clipPath class="axesclip" id="clip65e672xy"><rect x="80" y="100" width="580" height="320"/></clipPath></g><g class="gradients"/><g class="patterns"/></defs><g class="bglayer"/><g class="layer-below"><g class="imagelayer"/><g class="shapelayer"/></g><g class="cartesianlayer"><g class="subplot xy"><g class="layer-subplot"><g class="shapelayer"/><g class="imagelayer"/></g><g class="minor-gridlayer"><g class="x"/><g class="y"/></g><g class="gridlayer"><g class="x"><path class="xgrid crisp" transform="translate(152.5,0)" d="M0,100v320" style="stroke: rgb(211, 211, 211); stroke-opacity: 1; stroke-width: 1px;"/><path class="xgrid crisp" transform="translate(225,0)" d="M0,100v320" style="stroke: rgb(211, 211, 211); stroke-opacity: 1; stroke-width: 1px;"/><path class="xgrid crisp" transform="translate(297.5,0)" d="M0,100v320" style="stroke: rgb(211, 211, 211); stroke-opacity: 1; stroke-width: 1px;"/><path class="xgrid crisp" transform="translate(442.5,0)" d="M0,100v320" style="stroke: rgb(211, 211, 211); stroke-opacity: 1; stroke-width: 1px;"/><path class="xgrid crisp" transform="translate(515,0)" d="M0,100v320" style="stroke: rgb(211, 211, 211); stroke-opacity: 1; stroke-width: 1px;"/><path class="xgrid crisp" transform="translate(587.5,0)" d="M0,100v320" style="stroke: rgb(211, 211, 211); stroke-opacity: 1; stroke-width: 1px;"/></g><g class="y"><path class="ygrid crisp" transform="translate(0,364.16)" d="M80,0h580" style="stroke: rgb(211, 211, 211); stroke-opacity: 1; stroke-width: 1px;"/><path class="ygrid crisp" transform="translate(0,322.40999999999997)" d="M80,0h580" style="stroke: rgb(211, 211, 211); stroke-opacity: 1; stroke-width: 1px;"/><path class="ygrid crisp" transform="translate(0,280.65)" d="M80,0h580" style="stroke: rgb(211, 211, 211); stroke-opacity: 1; stroke-width: 1px;"/><path class="ygrid crisp" transform="translate(0,238.9)" d="M80,0h580" style="stroke: rgb(211, 211, 211); stroke-opacity: 1; stroke-width: 1px;"/><path class="ygrid crisp" transform="translate(0,197.15)" d="M80,0h580" style="stroke: rgb(211, 211, 211); stroke-opacity: 1; stroke-width: 1px;"/><path class="ygrid crisp" transform="translate(0,155.39)" d="M80,0h580" style="stroke: rgb(211, 211, 211); stroke-opacity: 1; stroke-width: 1px;"/><path class="ygrid crisp" transform="translate(0,113.64)" d="M80,0h580" style="stroke: rgb(211, 211, 211); stroke-opacity: 1; stroke-width: 1px;"/></g></g><g class="zerolinelayer"><path class="xzl zl crisp" transform="translate(370,0)" d="M0,100v320" style="stroke: rgb(235, 240, 248); stroke-opacity: 1; stroke-width: 2px;"/><path class="yzl zl crisp" transform="translate(0,405.92)" d="M80,0h580" style="stroke: rgb(235, 240, 248); stroke-opacity: 1; stroke-width: 2px;"/></g><g class="layer-between"><g class="shapelayer"/><g class="imagelayer"/></g><path class="xlines-below"/><path class="ylines-below"/><g class="overlines-below"/><g class="xaxislayer-below"/><g class="yaxislayer-below"/><g class="overaxes-below"/><g class="overplot"><g class="xy" transform="translate(80,100)" clip-path="url(#clip65e672xyplot)"><g class="scatterlayer mlayer"><g class="trace scatter trace631fa8" style="stroke-miterlimit: 2;"><g class="fills"><g><path class="js-fill" d="M0,153.76L2.18,152.93L2.32,152.82L4.93,149.98L5.08,149.78L12.33,138.13L12.47,137.89L33.65,104.05L33.79,103.8L64.25,53.36L64.4,53.16L71.65,44.1L71.79,43.95L77.45,39.62L77.59,39.54L85.86,36.47L86.01,36.42L94.13,34.39L94.27,34.39L98.04,35.13L98.19,35.18L103.85,38.09L103.99,38.18L117.04,44.69L117.19,44.74L144.89,54.12L145.04,54.18L154.03,59.39L154.17,59.5L165.63,67.25L165.78,67.31L171.43,68.66L171.58,68.68L180.28,70.33L180.43,70.37L188.84,71.69L188.98,71.68L194.64,70.93L194.78,70.9L212.91,67.22L213.06,67.15L220.89,64L221.04,63.99L224.81,64.43L224.95,64.48L229.59,66.79L229.74,66.88L238.44,73.32L238.58,73.45L244.24,79.34L244.39,79.51L254.97,91.18L255.12,91.31L259.9,95.03L260.05,95.12L264.4,96.61L264.55,96.63L269.04,96.37L269.19,96.34L277.74,93.82L277.89,93.76L282.68,90.93L282.82,90.81L288.33,85.45L288.48,85.29L297.32,76.29L297.47,76.17L302.11,73.14L302.26,73.07L306.32,71.83L306.46,71.81L312.7,71.7L312.84,71.71L323.87,73.19L324.01,73.24L328.8,75.94L328.94,76.04L335.03,79.25L335.18,79.28L339.24,79.23L339.38,79.2L345.62,77.21L345.77,77.15L357.51,72.31L357.66,72.23L370.57,65.12L370.71,65.11L373.9,65.44L374.05,65.49L378.11,67.67L378.25,67.78L385.07,73.22L385.22,73.34L393.92,81.75L394.06,81.91L404.8,92.54L404.94,92.64L410.16,95.26L410.31,95.31L415.38,95.97L415.53,95.97L423.07,95.23L423.22,95.21L429.74,93.33L429.89,93.26L435.25,89.78L435.4,89.66L450.48,78.35L450.63,78.28L455.41,76.71L455.56,76.68L461.22,76.45L461.36,76.46L468.18,77.63L468.32,77.68L472.82,79.62L472.96,79.7L478.47,83.88L478.62,84.01L489.64,92.49L489.79,92.6L496.75,98.98L496.89,99.13L514.01,116.89L514.15,117.01L520.68,123.65L520.83,123.83L528.37,134.74L528.51,134.97L559.55,180.25L559.69,180.42L577.39,200.79L577.53,200.88L580,201.64L580,196.24L577.39,195.35L577.24,195.26L557.08,170.69L556.94,170.5L525.9,121.96L525.76,121.72L519.52,112.54L519.37,112.36L514.44,107.12L514.3,106.98L499.21,90.37L499.07,90.19L493.41,83.93L493.27,83.78L474.85,68.39L474.7,68.28L469.48,65.41L469.34,65.36L462.38,63.9L462.23,63.89L456.43,63.95L456.28,63.97L451.06,65.59L450.92,65.66L436.99,76.36L436.85,76.49L432.06,80.21L431.92,80.3L427.28,82.5L427.13,82.55L420.75,83.7L420.61,83.72L413.79,83.98L413.64,83.96L409.15,82.85L409,82.79L403.49,79.29L403.35,79.17L394.21,69.23L394.06,69.05L382.32,57.21L382.17,57.08L376.8,52.61L376.66,52.51L373.32,50.85L373.18,50.81L370.13,50.69L369.99,50.71L359.54,57.16L359.4,57.25L354.03,60.2L353.89,60.27L344.46,64.19L344.32,64.25L338.66,66.17L338.51,66.2L334.89,66.17L334.74,66.13L330.83,64.25L330.68,64.15L325.61,60.8L325.46,60.72L321.11,59.4L320.97,59.38L309.94,58.64L309.8,58.64L304.87,59.26L304.72,59.3L299.93,61.61L299.79,61.71L285.29,76.53L285.14,76.68L280.36,80.59L280.21,80.68L272.67,83.49L272.52,83.53L266.58,84.69L266.43,84.69L262.52,84.09L262.37,84.04L257.87,81.33L257.73,81.21L244.24,66.01L244.1,65.83L237.42,58.58L237.28,58.45L230.75,53.2L230.61,53.09L225.82,50.06L225.68,49.99L221.91,48.98L221.76,48.97L211.46,52.96L211.32,53.03L205.81,54.31L205.66,54.32L195.22,55.75L195.07,55.79L188.26,56.75L188.11,56.75L181.59,55.7L181.44,55.66L170.85,53.52L170.71,53.5L165.78,52.17L165.63,52.11L154.17,43.53L154.03,43.41L148.52,39.43L148.37,39.34L116.32,26.88L116.17,26.83L104.28,20.27L104.14,20.17L98.48,16.95L98.33,16.89L94.13,16L93.98,16L82.82,19.49L82.67,19.54L76.43,22.47L76.29,22.57L71.36,27.12L71.21,27.29L63.82,37.55L63.67,37.77L46.99,66.57L46.85,66.84L11.89,127.91L11.75,128.16L5.08,139.48L4.93,139.69L2.32,142.7L2.18,142.81L0,143.69Z" style="fill: rgb(75, 0, 130); fill-opacity: 0.15; stroke-width: 0;"/></g></g><g class="errorbars"/><g class="lines"><path class="js-line" d="M0,143.69L2.18,142.81L2.32,142.7L4.93,139.69L5.08,139.48L11.75,128.16L11.89,127.91L46.85,66.84L46.99,66.57L63.67,37.77L63.82,37.55L71.21,27.29L71.36,27.12L76.29,22.57L76.43,22.47L82.67,19.54L82.82,19.49L93.98,16L94.13,16L98.33,16.89L98.48,16.95L104.14,20.17L104.28,20.27L116.17,26.83L116.32,26.88L148.37,39.34L148.52,39.43L154.03,43.41L154.17,43.53L165.63,52.11L165.78,52.17L170.71,53.5L170.85,53.52L181.44,55.66L181.59,55.7L188.11,56.75L188.26,56.75L195.07,55.79L195.22,55.75L205.66,54.32L205.81,54.31L211.32,53.03L211.46,52.96L221.76,48.97L221.91,48.98L225.68,49.99L225.82,50.06L230.61,53.09L230.75,53.2L237.28,58.45L237.42,58.58L244.1,65.83L244.24,66.01L257.73,81.21L257.87,81.33L262.37,84.04L262.52,84.09L266.43,84.69L266.58,84.69L272.52,83.53L272.67,83.49L280.21,80.68L280.36,80.59L285.14,76.68L285.29,76.53L299.79,61.71L299.93,61.61L304.72,59.3L304.87,59.26L309.8,58.64L309.94,58.64L320.97,59.38L321.11,59.4L325.46,60.72L325.61,60.8L330.68,64.15L330.83,64.25L334.74,66.13L334.89,66.17L338.51,66.2L338.66,66.17L344.32,64.25L344.46,64.19L353.89,60.27L354.03,60.2L359.4,57.25L359.54,57.16L369.99,50.71L370.13,50.69L373.18,50.81L373.32,50.85L376.66,52.51L376.8,52.61L382.17,57.08L382.32,57.21L394.06,69.05L394.21,69.23L403.35,79.17L403.49,79.29L409,82.79L409.15,82.85L413.64,83.96L413.79,83.98L420.61,83.72L420.75,83.7L427.13,82.55L427.28,82.5L431.92,80.3L432.06,80.21L436.85,76.49L436.99,76.36L450.92,65.66L451.06,65.59L456.28,63.97L456.43,63.95L462.23,63.89L462.38,63.9L469.34,65.36L469.48,65.41L474.7,68.28L474.85,68.39L493.27,83.78L493.41,83.93L499.07,90.19L499.21,90.37L514.3,106.98L514.44,107.12L519.37,112.36L519.52,112.54L525.76,121.72L525.9,121.96L556.94,170.5L557.08,170.69L577.24,195.26L577.39,195.35L580,196.24" style="vector-effect: none; fill: none; stroke: rgb(99, 110, 250); stroke-opacity: 1; stroke-width: 0px; opacity: 1;"/></g><g class="points"/><g class="text"/></g><g class="trace scatter trace62c53d" style="stroke-miterlimit: 2;"><g class="fills"/><g class="errorbars"/><g class="lines"><path class="js-line" d="M0,153.76L2.18,152.93L2.32,152.82L4.93,149.98L5.08,149.78L12.33,138.13L12.47,137.89L33.65,104.05L33.79,103.8L64.25,53.36L64.4,53.16L71.65,44.1L71.79,43.95L77.45,39.62L77.59,39.54L85.86,36.47L86.01,36.42L94.13,34.39L94.27,34.39L98.04,35.13L98.19,35.18L103.85,38.09L103.99,38.18L117.04,44.69L117.19,44.74L144.89,54.12L145.04,54.18L154.03,59.39L154.17,59.5L165.63,67.25L165.78,67.31L171.43,68.66L171.58,68.68L180.28,70.33L180.43,70.37L188.84,71.69L188.98,71.68L194.64,70.93L194.78,70.9L212.91,67.22L213.06,67.15L220.89,64L221.04,63.99L224.81,64.43L224.95,64.48L229.59,66.79L229.74,66.88L238.44,73.32L238.58,73.45L244.24,79.34L244.39,79.51L254.97,91.18L255.12,91.31L259.9,95.03L260.05,95.12L264.4,96.61L264.55,96.63L269.04,96.37L269.19,96.34L277.74,93.82L277.89,93.76L282.68,90.93L282.82,90.81L288.33,85.45L288.48,85.29L297.32,76.29L297.47,76.17L302.11,73.14L302.26,73.07L306.32,71.83L306.46,71.81L312.7,71.7L312.84,71.71L323.87,73.19L324.01,73.24L328.8,75.94L328.94,76.04L335.03,79.25L335.18,79.28L339.24,79.23L339.38,79.2L345.62,77.21L345.77,77.15L357.51,72.31L357.66,72.23L370.57,65.12L370.71,65.11L373.9,65.44L374.05,65.49L378.11,67.67L378.25,67.78L385.07,73.22L385.22,73.34L393.92,81.75L394.06,81.91L404.8,92.54L404.94,92.64L410.16,95.26L410.31,95.31L415.38,95.97L415.53,95.97L423.07,95.23L423.22,95.21L429.74,93.33L429.89,93.26L435.25,89.78L435.4,89.66L450.48,78.35L450.63,78.28L455.41,76.71L455.56,76.68L461.22,76.45L461.36,76.46L468.18,77.63L468.32,77.68L472.82,79.62L472.96,79.7L478.47,83.88L478.62,84.01L489.64,92.49L489.79,92.6L496.75,98.98L496.89,99.13L514.01,116.89L514.15,117.01L520.68,123.65L520.83,123.83L528.37,134.74L528.51,134.97L559.55,180.25L559.69,180.42L577.39,200.79L577.53,200.88L580,201.64" style="vector-effect: none; fill: none; stroke: rgb(239, 85, 59); stroke-opacity: 1; stroke-width: 0px; opacity: 1;"/></g><g class="points"/><g class="text"/></g><g class="trace scatter tracee631d2" style="stroke-miterlimit: 2; opacity: 1;"><g class="fills"/><g class="errorbars"/><g class="lines"><path class="js-line" d="M0,148.73L2.18,147.87L2.32,147.76L5.08,144.63L5.22,144.43L10.44,135.86L10.59,135.61L21.47,117.71L21.61,117.48L32.92,98.78L33.07,98.53L53.08,62.94L53.23,62.68L62.37,47.89L62.51,47.68L71.94,35.14L72.08,34.98L77.3,30.81L77.45,30.73L82.96,28.44L83.11,28.39L94.27,25.19L94.42,25.2L98.33,26.06L98.48,26.12L104.72,29.59L104.86,29.68L113.71,34.68L113.85,34.74L145.33,46.01L145.47,46.08L152.29,50.07L152.43,50.17L166.07,59.85L166.21,59.91L172.59,61.27L172.74,61.29L180.14,62.79L180.28,62.83L188.26,64.22L188.4,64.22L194.2,63.49L194.35,63.46L206.24,61.75L206.39,61.73L211.32,60.48L211.46,60.42L221.76,56.46L221.91,56.47L225.53,57.3L225.68,57.36L232.35,61.5L232.49,61.61L238.58,66.57L238.73,66.7L247.14,76.15L247.29,76.32L254.68,84.62L254.83,84.77L260.2,89.09L260.34,89.17L264.55,90.61L264.69,90.63L269.62,90.26L269.77,90.22L277.89,87.79L278.03,87.73L282.24,85.28L282.39,85.16L287.61,80.13L287.75,79.97L299.5,68.28L299.64,68.18L304.58,65.78L304.72,65.74L309.94,65.11L310.09,65.11L320.39,65.85L320.53,65.87L325.32,67.23L325.46,67.3L330.1,70.29L330.25,70.39L334.6,72.62L334.74,72.65L338.22,72.82L338.37,72.8L344.03,71.08L344.17,71.02L355.05,66.62L355.19,66.55L361.72,62.68L361.87,62.58L368.25,58.51L368.39,58.45L371.87,57.83L372.02,57.84L375.5,58.94L375.64,59.01L380.14,62.24L380.29,62.36L392.76,73.99L392.9,74.15L404.22,86L404.36,86.11L409.58,89.05L409.73,89.1L414.51,89.99L414.66,90L421.77,89.5L421.91,89.48L428.87,87.82L429.02,87.76L435.11,83.93L435.25,83.81L450.63,72.04L450.77,71.97L455.99,70.31L456.14,70.29L462.09,70.19L462.23,70.21L468.32,71.35L468.47,71.4L473.4,73.67L473.54,73.76L479.63,78.71L479.78,78.84L487.03,84.58L487.18,84.68L496.02,92.44L496.17,92.6L512.99,110.9L513.14,111.03L520.97,119.23L521.12,119.42L528.8,131.08L528.95,131.31L547.22,159.89L547.37,160.11L554.91,171.06L555.05,171.25L571.73,192.26L571.88,192.44L576.95,197.78L577.1,197.88L579.85,198.94L580,198.94" style="vector-effect: none; fill: none; stroke: rgb(75, 0, 130); stroke-opacity: 1; stroke-width: 3px; opacity: 1;"/></g><g class="points"/><g class="text"/></g><g class="trace scatter traceb326e6" style="stroke-miterlimit: 2;"><g class="fills"><g><path class="js-fill" d="M0,257.43L3.05,256.58L3.19,256.51L7.25,253.53L7.4,253.41L23.06,237.96L23.21,237.8L32.78,228.62L32.92,228.51L39.88,224.71L40.03,224.66L46.27,222.96L46.41,222.93L61.93,220.52L62.08,220.52L68.75,221.49L68.89,221.52L82.82,224.47L82.96,224.48L89.2,223.76L89.34,223.73L96.45,222.61L96.59,222.6L103.7,221.4L103.85,221.35L109.94,218.48L110.08,218.4L123.86,210.62L124.01,210.6L127.78,210.7L127.92,210.74L134.59,212.83L134.74,212.88L143.44,214.53L143.59,214.54L155.04,216.39L155.19,216.43L162.88,218.05L163.02,218.05L167.52,217.17L167.66,217.12L177.52,213.77L177.67,213.77L181.73,214.23L181.88,214.28L185.94,216.47L186.08,216.58L191.3,221.69L191.45,221.85L199.28,229.15L199.42,229.26L208.27,234.86L208.42,234.92L212.04,235.7L212.19,235.7L217.26,234.97L217.41,234.93L235.25,231.34L235.39,231.31L243.66,228.9L243.81,228.85L274.55,218.6L274.7,218.59L288.77,218.85L288.91,218.85L308.93,218.25L309.07,218.26L317.34,217.55L317.48,217.52L329.96,214.67L330.1,214.67L338.95,215.94L339.09,215.98L346.06,218.61L346.2,218.68L353.6,222.44L353.74,222.51L360.27,225.15L360.42,225.19L366.22,225.82L366.36,225.81L393.34,225.34L393.48,225.32L402.91,223.32L403.06,223.28L423.8,218.9L423.94,218.9L429.6,219.63L429.74,219.66L444.39,221.09L444.54,221.08L467.16,218.87L467.31,218.82L480.36,215.68L480.51,215.68L486.31,216.42L486.45,216.46L492.25,218.77L492.4,218.84L509.51,227.88L509.66,227.92L514.88,228.78L515.02,228.79L529.67,229.92L529.82,229.96L535.91,232.18L536.05,232.25L541.71,235.3L541.86,235.39L552.3,242.91L552.44,243.04L561.44,251.82L561.58,251.96L576.37,265.75L576.52,265.84L579.85,266.93L580,266.93L580,264.33L577.24,263.59L577.1,263.52L553.46,240.19L553.31,240.05L543.6,232.25L543.45,232.15L537.5,228.55L537.36,228.47L530.69,225.62L530.54,225.58L515.02,224.13L514.88,224.12L509.51,223.1L509.37,223.05L496.46,215.45L496.31,215.35L490.22,211.7L490.08,211.63L484.86,209.8L484.71,209.77L479.2,209.41L479.05,209.42L473.25,210.6L473.11,210.64L464.7,213.14L464.55,213.17L454.83,213.9L454.69,213.91L443.09,214.66L442.94,214.66L430.47,213.24L430.32,213.21L424.52,212.46L424.38,212.45L400.74,218.61L400.59,218.66L392.9,220.42L392.76,220.45L365.93,221.04L365.78,221.04L360.56,220.39L360.42,220.35L344.32,211.89L344.17,211.82L337.93,209.38L337.79,209.34L331.26,208.18L331.12,208.17L316.03,211.17L315.89,211.19L307.77,211.38L307.62,211.37L292.1,211.75L291.96,211.75L281.23,211.76L281.08,211.75L274.7,211.67L274.55,211.68L242.21,224.33L242.07,224.38L234.81,226.58L234.67,226.61L217.26,230.52L217.12,230.56L212.33,231.31L212.19,231.3L208.42,230.47L208.27,230.4L201.89,226.22L201.75,226.11L190.43,214.84L190.29,214.67L186.08,210.37L185.94,210.25L182.31,208.04L182.17,207.98L178.1,207.24L177.96,207.24L167.52,210.45L167.37,210.5L163.31,211.24L163.17,211.24L155.33,209.39L155.19,209.34L141.85,206.92L141.7,206.9L133.14,204.81L133,204.76L127.49,203.07L127.34,203.04L123.72,203.2L123.57,203.24L111.1,211.59L110.95,211.7L105.73,214.93L105.59,215.01L92.1,217.98L91.95,218.01L84.85,219.48L84.7,219.49L69.47,216.71L69.33,216.67L61.93,215.45L61.79,215.45L49.75,217.21L49.6,217.24L40.32,219.56L40.18,219.62L34.08,222.81L33.94,222.91L19.87,237.25L19.72,237.42L7.11,250.13L6.96,250.26L3.19,253.12L3.05,253.2L0,254.1Z" style="fill: rgb(0, 0, 255); fill-opacity: 0.15; stroke-width: 0;"/></g></g><g class="errorbars"/><g class="lines"><path class="js-line" d="M0,254.1L3.05,253.2L3.19,253.12L6.96,250.26L7.11,250.13L19.72,237.42L19.87,237.25L33.94,222.91L34.08,222.81L40.18,219.62L40.32,219.56L49.6,217.24L49.75,217.21L61.79,215.45L61.93,215.45L69.33,216.67L69.47,216.71L84.7,219.49L84.85,219.48L91.95,218.01L92.1,217.98L105.59,215.01L105.73,214.93L110.95,211.7L111.1,211.59L123.57,203.24L123.72,203.2L127.34,203.04L127.49,203.07L133,204.76L133.14,204.81L141.7,206.9L141.85,206.92L155.19,209.34L155.33,209.39L163.17,211.24L163.31,211.24L167.37,210.5L167.52,210.45L177.96,207.24L178.1,207.24L182.17,207.98L182.31,208.04L185.94,210.25L186.08,210.37L190.29,214.67L190.43,214.84L201.75,226.11L201.89,226.22L208.27,230.4L208.42,230.47L212.19,231.3L212.33,231.31L217.12,230.56L217.26,230.52L234.67,226.61L234.81,226.58L242.07,224.38L242.21,224.33L274.55,211.68L274.7,211.67L281.08,211.75L281.23,211.76L291.96,211.75L292.1,211.75L307.62,211.37L307.77,211.38L315.89,211.19L316.03,211.17L331.12,208.17L331.26,208.18L337.79,209.34L337.93,209.38L344.17,211.82L344.32,211.89L360.42,220.35L360.56,220.39L365.78,221.04L365.93,221.04L392.76,220.45L392.9,220.42L400.59,218.66L400.74,218.61L424.38,212.45L424.52,212.46L430.32,213.21L430.47,213.24L442.94,214.66L443.09,214.66L454.69,213.91L454.83,213.9L464.55,213.17L464.7,213.14L473.11,210.64L473.25,210.6L479.05,209.42L479.2,209.41L484.71,209.77L484.86,209.8L490.08,211.63L490.22,211.7L496.31,215.35L496.46,215.45L509.37,223.05L509.51,223.1L514.88,224.12L515.02,224.13L530.54,225.58L530.69,225.62L537.36,228.47L537.5,228.55L543.45,232.15L543.6,232.25L553.31,240.05L553.46,240.19L577.1,263.52L577.24,263.59L580,264.33" style="vector-effect: none; fill: none; stroke: rgb(171, 99, 250); stroke-opacity: 1; stroke-width: 0px; opacity: 1;"/></g><g class="points"/><g class="text"/></g><g class="trace scatter tracee8ac7b" style="stroke-miterlimit: 2;"><g class="fills"/><g class="errorbars"/><g class="lines"><path class="js-line" d="M0,257.43L3.05,256.58L3.19,256.51L7.25,253.53L7.4,253.41L23.06,237.96L23.21,237.8L32.78,228.62L32.92,228.51L39.88,224.71L40.03,224.66L46.27,222.96L46.41,222.93L61.93,220.52L62.08,220.52L68.75,221.49L68.89,221.52L82.82,224.47L82.96,224.48L89.2,223.76L89.34,223.73L96.45,222.61L96.59,222.6L103.7,221.4L103.85,221.35L109.94,218.48L110.08,218.4L123.86,210.62L124.01,210.6L127.78,210.7L127.92,210.74L134.59,212.83L134.74,212.88L143.44,214.53L143.59,214.54L155.04,216.39L155.19,216.43L162.88,218.05L163.02,218.05L167.52,217.17L167.66,217.12L177.52,213.77L177.67,213.77L181.73,214.23L181.88,214.28L185.94,216.47L186.08,216.58L191.3,221.69L191.45,221.85L199.28,229.15L199.42,229.26L208.27,234.86L208.42,234.92L212.04,235.7L212.19,235.7L217.26,234.97L217.41,234.93L235.25,231.34L235.39,231.31L243.66,228.9L243.81,228.85L274.55,218.6L274.7,218.59L288.77,218.85L288.91,218.85L308.93,218.25L309.07,218.26L317.34,217.55L317.48,217.52L329.96,214.67L330.1,214.67L338.95,215.94L339.09,215.98L346.06,218.61L346.2,218.68L353.6,222.44L353.74,222.51L360.27,225.15L360.42,225.19L366.22,225.82L366.36,225.81L393.34,225.34L393.48,225.32L402.91,223.32L403.06,223.28L423.8,218.9L423.94,218.9L429.6,219.63L429.74,219.66L444.39,221.09L444.54,221.08L467.16,218.87L467.31,218.82L480.36,215.68L480.51,215.68L486.31,216.42L486.45,216.46L492.25,218.77L492.4,218.84L509.51,227.88L509.66,227.92L514.88,228.78L515.02,228.79L529.67,229.92L529.82,229.96L535.91,232.18L536.05,232.25L541.71,235.3L541.86,235.39L552.3,242.91L552.44,243.04L561.44,251.82L561.58,251.96L576.37,265.75L576.52,265.84L579.85,266.93L580,266.93" style="vector-effect: none; fill: none; stroke: rgb(255, 161, 90); stroke-opacity: 1; stroke-width: 0px; opacity: 1;"/></g><g class="points"/><g class="text"/></g><g class="trace scatter trace54971a" style="stroke-miterlimit: 2; opacity: 1;"><g class="fills"/><g class="errorbars"/><g class="lines"><path class="js-line" d="M0,255.76L2.9,254.97L3.05,254.89L6.67,252.27L6.82,252.15L21.32,237.73L21.47,237.57L31.47,227.26L31.62,227.14L36.98,223.5L37.13,223.43L41.92,221.54L42.06,221.5L49.75,219.72L49.89,219.69L61.93,217.98L62.08,217.99L68.46,218.94L68.6,218.97L82.82,222L82.96,222L87.6,221.58L87.75,221.55L97.9,219.86L98.04,219.84L103.27,218.78L103.41,218.73L108.78,216.16L108.92,216.07L114.87,212.06L115.01,211.95L123.57,206.96L123.72,206.93L127.2,206.81L127.34,206.83L134.3,208.97L134.45,209.02L142.28,210.69L142.43,210.71L154.46,212.65L154.61,212.7L163.17,214.64L163.31,214.64L167.23,213.91L167.37,213.86L178.39,210.49L178.54,210.5L182.6,211.35L182.75,211.41L186.52,213.84L186.66,213.96L192.03,219.58L192.17,219.74L200.44,227.53L200.59,227.64L206.53,231.78L206.68,231.86L210.74,233.36L210.88,233.38L214.36,233.36L214.51,233.34L225.68,230.66L225.82,230.63L242.79,226.65L242.94,226.6L262.08,219.21L262.23,219.15L272.96,215.35L273.1,215.33L278.03,215.1L278.18,215.11L295.44,215.05L295.58,215.03L308.2,214.81L308.35,214.82L315.6,214.57L315.74,214.55L325.03,211.95L325.17,211.91L331.26,211.44L331.41,211.45L338.51,212.69L338.66,212.73L345.19,215.28L345.33,215.35L362.01,223.11L362.16,223.14L369.12,223.35L369.26,223.35L380.43,223.35L380.58,223.36L388.84,223.48L388.99,223.47L398.99,221.69L399.14,221.65L424.67,215.69L424.81,215.7L431.19,216.66L431.34,216.68L440.48,217.81L440.62,217.81L448.02,217.57L448.16,217.56L457.73,217.04L457.88,217.04L465.86,216.05L466,216.01L480.65,212.52L480.8,212.52L486.16,213.25L486.31,213.29L492.69,216.01L492.83,216.09L502.26,221.96L502.41,222.05L508.64,225.19L508.79,225.25L514.44,226.42L514.59,226.43L530.69,227.91L530.83,227.95L536.49,230.23L536.63,230.3L546.79,236.54L546.93,236.65L552.73,241.4L552.88,241.53L564.48,253.32L564.63,253.47L576.81,264.68L576.95,264.76L580,265.63" style="vector-effect: none; fill: none; stroke: rgb(0, 0, 255); stroke-opacity: 1; stroke-width: 3px; opacity: 1;"/></g><g class="points"/><g class="text"/></g><g class="trace scatter trace23df55" style="stroke-miterlimit: 2;"><g class="fills"><g><path class="js-fill" d="M0,293.23L4.21,292.52L4.35,292.47L10.15,290.16L10.3,290.1L20.45,286.55L20.6,286.51L29.3,285.18L29.44,285.17L41.92,284.26L42.06,284.25L84.7,281.85L84.85,281.86L101.96,283.2L102.11,283.22L115.45,283.54L115.59,283.51L120.53,281.8L120.67,281.72L124.73,278.75L124.88,278.61L131.69,271.27L131.84,271.12L136.33,267.64L136.48,267.57L140.69,266.02L140.83,265.98L153.01,263.24L153.16,263.24L161.57,263.68L161.72,263.72L165.92,265.65L166.07,265.75L172.59,270.83L172.74,270.94L177.81,273.98L177.96,274.04L182.6,275.22L182.75,275.24L188.84,274.91L188.98,274.89L201.89,273.06L202.04,273.05L211.32,273.45L211.46,273.48L224.23,276.79L224.37,276.83L248.01,282.45L248.16,282.46L260.63,283.01L260.78,283L267.01,281.83L267.16,281.78L272.09,279.31L272.23,279.21L276.58,275.73L276.73,275.59L285.72,268.16L285.87,268.08L291.52,266.07L291.67,266.02L308.78,261.41L308.93,261.39L313.28,261.36L313.42,261.39L317.92,263.04L318.06,263.11L327.06,267.08L327.2,267.11L332.28,267.37L332.42,267.36L340.98,265.49L341.13,265.45L348.96,264.33L349.1,264.32L356.21,265.06L356.35,265.09L365.49,268.25L365.64,268.31L389.71,279.51L389.86,279.57L398.27,282.38L398.41,282.41L407.12,283.96L407.26,283.97L412.63,283.95L412.77,283.93L417.12,282.92L417.27,282.86L421.77,280.39L421.91,280.28L426.12,276.29L426.26,276.13L436.7,264.99L436.85,264.9L441.35,262.6L441.49,262.53L452.08,258.95L452.22,258.92L461.22,257.88L461.36,257.9L465.42,259.42L465.57,259.5L478.04,267.29L478.18,267.33L482.83,267.52L482.97,267.5L489.21,265.92L489.35,265.87L499.65,263.81L499.79,263.8L506.18,264.1L506.32,264.12L512.27,265.65L512.41,265.71L518.5,268.53L518.65,268.61L530.69,275.46L530.83,275.54L541.42,281.02L541.57,281.08L550.56,284.14L550.7,284.18L559.69,286.74L559.84,286.79L570.72,290.94L570.86,291L577.53,293.33L577.68,293.35L580,293.58L580,292.59L579.13,292.55L578.98,292.53L563.18,286.45L563.03,286.39L550.12,282.18L549.98,282.14L541.13,278.82L540.99,278.75L529.53,272.26L529.38,272.17L518.79,265.68L518.65,265.59L511.69,262.16L511.54,262.1L506.03,260.64L505.89,260.62L499.94,260.28L499.79,260.28L487.03,263.16L486.89,263.21L481.81,264.26L481.67,264.26L477.75,263.81L477.6,263.77L472.82,261.21L472.67,261.1L465.86,255.84L465.71,255.74L461.8,254.03L461.65,254L457.01,254.08L456.86,254.1L448.31,255.99L448.16,256.04L441.35,259.09L441.2,259.16L436.27,262.08L436.12,262.19L426.41,273.6L426.26,273.78L421.91,278.19L421.77,278.31L417.12,280.97L416.98,281.02L411.47,282.13L411.32,282.14L403.93,281.61L403.78,281.59L394.21,279.07L394.06,279.02L372.6,269.02L372.45,268.95L362.3,264.09L362.16,264.03L355.19,261.89L355.05,261.86L348.38,261.35L348.23,261.35L339.82,262.93L339.67,262.97L333.29,264.57L333.15,264.59L328.8,264.72L328.65,264.71L315.74,258.82L315.6,258.76L311.54,257.75L311.39,257.74L290.36,263.2L290.22,263.25L285.14,265.46L285,265.55L279.63,270.22L279.48,270.37L273.1,276.42L272.96,276.53L267.74,279.57L267.59,279.63L261.36,281L261.21,281.01L249.03,280.49L248.88,280.47L219.29,273.13L219.15,273.09L210.74,270.88L210.59,270.86L202.04,270.43L201.89,270.43L190.14,272.05L190,272.08L184.05,272.81L183.91,272.81L178.97,271.94L178.83,271.89L166.21,262.8L166.07,262.69L162.01,260.54L161.86,260.49L152.14,259.76L152,259.77L141.27,262.46L141.12,262.51L136.48,264.31L136.33,264.39L125.17,275.91L125.02,276.06L120.96,279.36L120.82,279.45L115.74,281.41L115.59,281.44L87.31,279.61L87.17,279.6L79.33,279.38L79.19,279.38L66.14,280.45L65.99,280.47L32.63,283.3L32.49,283.31L22.92,284.53L22.77,284.56L5.22,291.13L5.08,291.19L0,292.26Z" style="fill: rgb(148, 0, 211); fill-opacity: 0.15; stroke-width: 0;"/></g></g><g class="errorbars"/><g class="lines"><path class="js-line" d="M0,292.26L5.08,291.19L5.22,291.13L22.77,284.56L22.92,284.53L32.49,283.31L32.63,283.3L65.99,280.47L66.14,280.45L79.19,279.38L79.33,279.38L87.17,279.6L87.31,279.61L115.59,281.44L115.74,281.41L120.82,279.45L120.96,279.36L125.02,276.06L125.17,275.91L136.33,264.39L136.48,264.31L141.12,262.51L141.27,262.46L152,259.77L152.14,259.76L161.86,260.49L162.01,260.54L166.07,262.69L166.21,262.8L178.83,271.89L178.97,271.94L183.91,272.81L184.05,272.81L190,272.08L190.14,272.05L201.89,270.43L202.04,270.43L210.59,270.86L210.74,270.88L219.15,273.09L219.29,273.13L248.88,280.47L249.03,280.49L261.21,281.01L261.36,281L267.59,279.63L267.74,279.57L272.96,276.53L273.1,276.42L279.48,270.37L279.63,270.22L285,265.55L285.14,265.46L290.22,263.25L290.36,263.2L311.39,257.74L311.54,257.75L315.6,258.76L315.74,258.82L328.65,264.71L328.8,264.72L333.15,264.59L333.29,264.57L339.67,262.97L339.82,262.93L348.23,261.35L348.38,261.35L355.05,261.86L355.19,261.89L362.16,264.03L362.3,264.09L372.45,268.95L372.6,269.02L394.06,279.02L394.21,279.07L403.78,281.59L403.93,281.61L411.32,282.14L411.47,282.13L416.98,281.02L417.12,280.97L421.77,278.31L421.91,278.19L426.26,273.78L426.41,273.6L436.12,262.19L436.27,262.08L441.2,259.16L441.35,259.09L448.16,256.04L448.31,255.99L456.86,254.1L457.01,254.08L461.65,254L461.8,254.03L465.71,255.74L465.86,255.84L472.67,261.1L472.82,261.21L477.6,263.77L477.75,263.81L481.67,264.26L481.81,264.26L486.89,263.21L487.03,263.16L499.79,260.28L499.94,260.28L505.89,260.62L506.03,260.64L511.54,262.1L511.69,262.16L518.65,265.59L518.79,265.68L529.38,272.17L529.53,272.26L540.99,278.75L541.13,278.82L549.98,282.14L550.12,282.18L563.03,286.39L563.18,286.45L578.98,292.53L579.13,292.55L580,292.59" style="vector-effect: none; fill: none; stroke: rgb(255, 102, 146); stroke-opacity: 1; stroke-width: 0px; opacity: 1;"/></g><g class="points"/><g class="text"/></g><g class="trace scatter tracee7ce76" style="stroke-miterlimit: 2;"><g class="fills"/><g class="errorbars"/><g class="lines"><path class="js-line" d="M0,293.23L4.21,292.52L4.35,292.47L10.15,290.16L10.3,290.1L20.45,286.55L20.6,286.51L29.3,285.18L29.44,285.17L41.92,284.26L42.06,284.25L84.7,281.85L84.85,281.86L101.96,283.2L102.11,283.22L115.45,283.54L115.59,283.51L120.53,281.8L120.67,281.72L124.73,278.75L124.88,278.61L131.69,271.27L131.84,271.12L136.33,267.64L136.48,267.57L140.69,266.02L140.83,265.98L153.01,263.24L153.16,263.24L161.57,263.68L161.72,263.72L165.92,265.65L166.07,265.75L172.59,270.83L172.74,270.94L177.81,273.98L177.96,274.04L182.6,275.22L182.75,275.24L188.84,274.91L188.98,274.89L201.89,273.06L202.04,273.05L211.32,273.45L211.46,273.48L224.23,276.79L224.37,276.83L248.01,282.45L248.16,282.46L260.63,283.01L260.78,283L267.01,281.83L267.16,281.78L272.09,279.31L272.23,279.21L276.58,275.73L276.73,275.59L285.72,268.16L285.87,268.08L291.52,266.07L291.67,266.02L308.78,261.41L308.93,261.39L313.28,261.36L313.42,261.39L317.92,263.04L318.06,263.11L327.06,267.08L327.2,267.11L332.28,267.37L332.42,267.36L340.98,265.49L341.13,265.45L348.96,264.33L349.1,264.32L356.21,265.06L356.35,265.09L365.49,268.25L365.64,268.31L389.71,279.51L389.86,279.57L398.27,282.38L398.41,282.41L407.12,283.96L407.26,283.97L412.63,283.95L412.77,283.93L417.12,282.92L417.27,282.86L421.77,280.39L421.91,280.28L426.12,276.29L426.26,276.13L436.7,264.99L436.85,264.9L441.35,262.6L441.49,262.53L452.08,258.95L452.22,258.92L461.22,257.88L461.36,257.9L465.42,259.42L465.57,259.5L478.04,267.29L478.18,267.33L482.83,267.52L482.97,267.5L489.21,265.92L489.35,265.87L499.65,263.81L499.79,263.8L506.18,264.1L506.32,264.12L512.27,265.65L512.41,265.71L518.5,268.53L518.65,268.61L530.69,275.46L530.83,275.54L541.42,281.02L541.57,281.08L550.56,284.14L550.7,284.18L559.69,286.74L559.84,286.79L570.72,290.94L570.86,291L577.53,293.33L577.68,293.35L580,293.58" style="vector-effect: none; fill: none; stroke: rgb(182, 232, 128); stroke-opacity: 1; stroke-width: 0px; opacity: 1;"/></g><g class="points"/><g class="text"/></g><g class="trace scatter trace9b7640" style="stroke-miterlimit: 2; opacity: 1;"><g class="fills"/><g class="errorbars"/><g class="lines"><path class="js-line" d="M0,292.74L4.21,292.01L4.35,291.96L13.63,288.08L13.78,288.02L21.18,285.64L21.32,285.61L32.63,284.09L32.78,284.08L70.2,281.02L70.34,281L85.43,280.69L85.57,280.7L115.59,282.47L115.74,282.44L120.53,280.71L120.67,280.63L124.59,277.69L124.73,277.55L130.24,271.4L130.39,271.23L135.46,266.53L135.61,266.44L139.81,264.61L139.96,264.56L151.27,261.57L151.42,261.56L159.97,261.72L160.12,261.74L164.04,263L164.18,263.07L168.82,266.36L168.97,266.48L176.8,272.25L176.94,272.32L181.3,273.8L181.44,273.82L185.94,273.99L186.08,273.98L193.19,272.77L193.33,272.74L202.18,271.73L202.33,271.73L211.03,272.17L211.17,272.2L217.55,273.8L217.7,273.84L247.58,281.36L247.72,281.38L263.1,281.79L263.24,281.77L269.48,279.79L269.62,279.72L274.84,276.1L274.99,275.98L286.16,266.41L286.3,266.34L293.55,263.76L293.7,263.71L305.16,260.54L305.3,260.51L311.97,259.49L312.12,259.5L316.18,260.63L316.32,260.7L322.42,263.94L322.56,264.01L327.64,265.87L327.78,265.9L333.29,265.91L333.44,265.89L351.13,262.87L351.28,262.88L358.24,264.1L358.38,264.14L368.25,268.17L368.39,268.24L395.95,280.69L396.09,280.73L404.07,282.61L404.22,282.64L412.34,283.02L412.48,283.01L418.14,281.53L418.28,281.46L422.64,278.64L422.78,278.52L427.42,273.55L427.57,273.37L435.69,264.13L435.83,264.01L441.49,260.77L441.64,260.7L449.61,257.54L449.76,257.51L459.91,255.8L460.06,255.8L463.83,256.67L463.97,256.73L468.47,259.62L468.61,259.73L476.44,265.06L476.59,265.12L480.8,265.96L480.94,265.96L485.73,265.24L485.87,265.2L499.79,262.04L499.94,262.03L507.05,262.53L507.19,262.56L513.72,264.62L513.86,264.68L524.16,270.29L524.31,270.38L544.47,281.27L544.61,281.33L571.3,290.59L571.44,290.65L577.97,292.9L578.11,292.92L580,293.08" style="vector-effect: none; fill: none; stroke: rgb(148, 0, 211); stroke-opacity: 1; stroke-width: 3px; opacity: 1;"/></g><g class="points"/><g class="text"/></g><g class="trace scatter trace7d8a11" style="stroke-miterlimit: 2;"><g class="fills"><g><path class="js-fill" d="M0,303.52L13.78,302.77L13.92,302.76L133.58,302.24L133.72,302.2L137.35,300.51L137.49,300.41L142.28,296.68L142.43,296.56L147.36,293.31L147.5,293.25L151.71,292.31L151.85,292.31L155.04,293.03L155.19,293.09L159.54,295.76L159.68,295.86L165.49,298.88L165.63,298.92L172.16,299.91L172.3,299.92L192.75,300.55L192.9,300.55L223.36,301.07L223.5,301.09L243.52,303.18L243.66,303.18L282.39,302.44L282.53,302.41L287.03,300.76L287.17,300.68L299.06,295.37L299.21,295.34L304.14,295.53L304.29,295.57L310.09,297.73L310.23,297.79L316.76,299.24L316.9,299.25L328.51,299.28L328.65,299.28L365.78,300.02L365.93,300.04L376.37,301.5L376.51,301.53L393.48,303.22L393.63,303.22L432.64,302.47L432.79,302.44L438.01,300.27L438.15,300.19L448.6,295.24L448.74,295.2L454.11,295.19L454.25,295.23L458.75,296.86L458.89,296.93L466.29,299.12L466.44,299.14L480.51,299.85L480.65,299.86L518.79,300.12L518.94,300.14L543.6,303.24L543.74,303.24L576.95,303.89L577.1,303.9L580,304L580,303.91L576.52,303.77L576.37,303.76L551.43,303.07L551.28,303.07L538.52,302.94L538.37,302.93L526.92,301.31L526.77,301.28L515.46,299.36L515.31,299.34L496.46,299.32L496.31,299.33L473.69,299.29L473.54,299.29L464.99,298.55L464.84,298.52L457.01,295.4L456.86,295.34L452.51,294.05L452.37,294.04L447.58,294.59L447.44,294.64L437.43,300.22L437.28,300.31L432.93,302.22L432.79,302.26L409.29,302.94L409.15,302.94L390.87,303.06L390.73,303.06L375.21,301.1L375.06,301.07L365.2,299.67L365.06,299.66L328.07,298.91L327.93,298.91L316.32,298.88L316.18,298.86L305.59,295.13L305.45,295.08L301.39,294.22L301.24,294.22L297.03,294.84L296.89,294.88L287.61,300L287.46,300.09L282.97,302.09L282.82,302.13L257,302.82L256.86,302.82L240.33,303L240.18,303L223.07,300.8L222.92,300.78L191.3,300.24L191.16,300.24L172.74,299.72L172.59,299.7L165.63,298.6L165.49,298.55L158.52,294.29L158.38,294.18L154.61,291.79L154.46,291.73L151.13,291.13L150.98,291.14L147.36,292.17L147.21,292.24L142.14,295.99L141.99,296.12L137.49,300L137.35,300.11L133.58,302.03L133.43,302.08L39.74,302.46L39.59,302.46L12.62,302.64L12.47,302.65L0,303.4Z" style="fill: rgb(207, 184, 124); fill-opacity: 0.15; stroke-width: 0;"/></g></g><g class="errorbars"/><g class="lines"><path class="js-line" d="M0,303.4L12.47,302.65L12.62,302.64L39.59,302.46L39.74,302.46L133.43,302.08L133.58,302.03L137.35,300.11L137.49,300L141.99,296.12L142.14,295.99L147.21,292.24L147.36,292.17L150.98,291.14L151.13,291.13L154.46,291.73L154.61,291.79L158.38,294.18L158.52,294.29L165.49,298.55L165.63,298.6L172.59,299.7L172.74,299.72L191.16,300.24L191.3,300.24L222.92,300.78L223.07,300.8L240.18,303L240.33,303L256.86,302.82L257,302.82L282.82,302.13L282.97,302.09L287.46,300.09L287.61,300L296.89,294.88L297.03,294.84L301.24,294.22L301.39,294.22L305.45,295.08L305.59,295.13L316.18,298.86L316.32,298.88L327.93,298.91L328.07,298.91L365.06,299.66L365.2,299.67L375.06,301.07L375.21,301.1L390.73,303.06L390.87,303.06L409.15,302.94L409.29,302.94L432.79,302.26L432.93,302.22L437.28,300.31L437.43,300.22L447.44,294.64L447.58,294.59L452.37,294.04L452.51,294.05L456.86,295.34L457.01,295.4L464.84,298.52L464.99,298.55L473.54,299.29L473.69,299.29L496.31,299.33L496.46,299.32L515.31,299.34L515.46,299.36L526.77,301.28L526.92,301.31L538.37,302.93L538.52,302.94L551.28,303.07L551.43,303.07L576.37,303.76L576.52,303.77L580,303.91" style="vector-effect: none; fill: none; stroke: rgb(254, 203, 82); stroke-opacity: 1; stroke-width: 0px; opacity: 1;"/></g><g class="points"/><g class="text"/></g><g class="trace scatter traced89f80" style="stroke-miterlimit: 2;"><g class="fills"/><g class="errorbars"/><g class="lines"><path class="js-line" d="M0,303.52L13.78,302.77L13.92,302.76L133.58,302.24L133.72,302.2L137.35,300.51L137.49,300.41L142.28,296.68L142.43,296.56L147.36,293.31L147.5,293.25L151.71,292.31L151.85,292.31L155.04,293.03L155.19,293.09L159.54,295.76L159.68,295.86L165.49,298.88L165.63,298.92L172.16,299.91L172.3,299.92L192.75,300.55L192.9,300.55L223.36,301.07L223.5,301.09L243.52,303.18L243.66,303.18L282.39,302.44L282.53,302.41L287.03,300.76L287.17,300.68L299.06,295.37L299.21,295.34L304.14,295.53L304.29,295.57L310.09,297.73L310.23,297.79L316.76,299.24L316.9,299.25L328.51,299.28L328.65,299.28L365.78,300.02L365.93,300.04L376.37,301.5L376.51,301.53L393.48,303.22L393.63,303.22L432.64,302.47L432.79,302.44L438.01,300.27L438.15,300.19L448.6,295.24L448.74,295.2L454.11,295.19L454.25,295.23L458.75,296.86L458.89,296.93L466.29,299.12L466.44,299.14L480.51,299.85L480.65,299.86L518.79,300.12L518.94,300.14L543.6,303.24L543.74,303.24L576.95,303.89L577.1,303.9L580,304" style="vector-effect: none; fill: none; stroke: rgb(99, 110, 250); stroke-opacity: 1; stroke-width: 0px; opacity: 1;"/></g><g class="points"/><g class="text"/></g><g class="trace scatter traced453a9" style="stroke-miterlimit: 2; opacity: 1;"><g class="fills"/><g class="errorbars"/><g class="lines"><path class="js-line" d="M0,303.46L13.05,302.71L13.2,302.7L133.58,302.14L133.72,302.09L137.2,300.4L137.35,300.31L149.1,292.08L149.24,292.04L152.87,291.83L153.01,291.85L156.49,293.29L156.64,293.37L165.34,298.67L165.49,298.71L171.14,299.7L171.29,299.72L191.74,300.4L191.88,300.4L223.21,300.94L223.36,300.96L243.23,303.11L243.37,303.11L282.24,302.37L282.39,302.34L286.74,300.7L286.88,300.63L298.34,295L298.48,294.97L302.84,294.83L302.98,294.85L307.04,296.11L307.19,296.18L315.45,298.95L315.6,298.97L324.16,299.12L324.3,299.12L365.35,299.83L365.49,299.85L375.5,301.25L375.64,301.28L393.63,303.16L393.77,303.16L432.5,302.42L432.64,302.38L436.56,300.88L436.7,300.8L442.8,297.14L442.94,297.06L447.87,294.96L448.02,294.92L452.8,294.53L452.95,294.55L457.3,295.89L457.44,295.95L465.13,298.76L465.28,298.78L473.54,299.45L473.69,299.45L496.75,299.51L496.89,299.5L518.36,299.9L518.5,299.92L544.18,303.18L544.32,303.18L576.66,303.83L576.81,303.84L580,303.96" style="vector-effect: none; fill: none; stroke: rgb(207, 184, 124); stroke-opacity: 1; stroke-width: 3px; opacity: 1;"/></g><g class="points"/><g class="text"/></g></g></g></g><g class="zerolinelayer-above"/><path class="xlines-above crisp" d="M79,420.5H661M79,99.5H661" style="fill: none; stroke-width: 1px; stroke: rgb(0, 0, 0); stroke-opacity: 1;"/><path class="ylines-above crisp" d="M79.5,100V420M660.5,100V420" style="fill: none; stroke-width: 1px; stroke: rgb(0, 0, 0); stroke-opacity: 1;"/><g class="overlines-above"/><g class="xaxislayer-above"><path class="xtick ticks crisp" d="M0,421v5" transform="translate(80,0)" style="stroke: rgb(68, 68, 68); stroke-opacity: 1; stroke-width: 1px;"/><path class="xtick ticks crisp" d="M0,421v5" transform="translate(152.5,0)" style="stroke: rgb(68, 68, 68); stroke-opacity: 1; stroke-width: 1px;"/><path class="xtick ticks crisp" d="M0,421v5" transform="translate(225,0)" style="stroke: rgb(68, 68, 68); stroke-opacity: 1; stroke-width: 1px;"/><path class="xtick ticks crisp" d="M0,421v5" transform="translate(297.5,0)" style="stroke: rgb(68, 68, 68); stroke-opacity: 1; stroke-width: 1px;"/><path class="xtick ticks crisp" d="M0,421v5" transform="translate(370,0)" style="stroke: rgb(68, 68, 68); stroke-opacity: 1; stroke-width: 1px;"/><path class="xtick ticks crisp" d="M0,421v5" transform="translate(442.5,0)" style="stroke: rgb(68, 68, 68); stroke-opacity: 1; stroke-width: 1px;"/><path class="xtick ticks crisp" d="M0,421v5" transform="translate(515,0)" style="stroke: rgb(68, 68, 68); stroke-opacity: 1; stroke-width: 1px;"/><path class="xtick ticks crisp" d="M0,421v5" transform="translate(587.5,0)" style="stroke: rgb(68, 68, 68); stroke-opacity: 1; stroke-width: 1px;"/><path class="xtick ticks crisp" d="M0,421v5" transform="translate(660,0)" style="stroke: rgb(68, 68, 68); stroke-opacity: 1; stroke-width: 1px;"/><g class="xtick"><text text-anchor="middle" x="0" y="440.4" transform="translate(80,0)" style="font-family: 'Open Sans', verdana, arial, sans-serif; font-size: 12px; fill: rgb(42, 63, 95); fill-opacity: 1; white-space: pre;">−2000</text></g><g class="xtick"><text text-anchor="middle" x="0" y="440.4" style="font-family: 'Open Sans', verdana, arial, sans-serif; font-size: 12px; fill: rgb(42, 63, 95); fill-opacity: 1; white-space: pre;" transform="translate(152.5,0)">−1500</text></g><g class="xtick"><text text-anchor="middle" x="0" y="440.4" style="font-family: 'Open Sans', verdana, arial, sans-serif; font-size: 12px; fill: rgb(42, 63, 95); fill-opacity: 1; white-space: pre;" transform="translate(225,0)">−1000</text></g><g class="xtick"><text text-anchor="middle" x="0" y="440.4" style="font-family: 'Open Sans', verdana, arial, sans-serif; font-size: 12px; fill: rgb(42, 63, 95); fill-opacity: 1; white-space: pre;" transform="translate(297.5,0)">−500</text></g><g class="xtick"><text text-anchor="middle" x="0" y="440.4" style="font-family: 'Open Sans', verdana, arial, sans-serif; font-size: 12px; fill: rgb(42, 63, 95); fill-opacity: 1; white-space: pre;" transform="translate(370,0)">0</text></g><g class="xtick"><text text-anchor="middle" x="0" y="440.4" style="font-family: 'Open Sans', verdana, arial, sans-serif; font-size: 12px; fill: rgb(42, 63, 95); fill-opacity: 1; white-space: pre;" transform="translate(442.5,0)">500</text></g><g class="xtick"><text text-anchor="middle" x="0" y="440.4" style="font-family: 'Open Sans', verdana, arial, sans-serif; font-size: 12px; fill: rgb(42, 63, 95); fill-opacity: 1; white-space: pre;" transform="translate(515,0)">1000</text></g><g class="xtick"><text text-anchor="middle" x="0" y="440.4" style="font-family: 'Open Sans', verdana, arial, sans-serif; font-size: 12px; fill: rgb(42, 63, 95); fill-opacity: 1; white-space: pre;" transform="translate(587.5,0)">1500</text></g><g class="xtick"><text text-anchor="middle" x="0" y="440.4" style="font-family: 'Open Sans', verdana, arial, sans-serif; font-size: 12px; fill: rgb(42, 63, 95); fill-opacity: 1; white-space: pre;" transform="translate(660,0)">2000</text></g></g><g class="yaxislayer-above"><path class="ytick ticks crisp" d="M79,0h-5" transform="translate(0,405.92)" style="stroke: rgb(68, 68, 68); stroke-opacity: 1; stroke-width: 1px;"/><path class="ytick ticks crisp" d="M79,0h-5" transform="translate(0,364.16)" style="stroke: rgb(68, 68, 68); stroke-opacity: 1; stroke-width: 1px;"/><path class="ytick ticks crisp" d="M79,0h-5" transform="translate(0,322.40999999999997)" style="stroke: rgb(68, 68, 68); stroke-opacity: 1; stroke-width: 1px;"/><path class="ytick ticks crisp" d="M79,0h-5" transform="translate(0,280.65)" style="stroke: rgb(68, 68, 68); stroke-opacity: 1; stroke-width: 1px;"/><path class="ytick ticks crisp" d="M79,0h-5" transform="translate(0,238.9)" style="stroke: rgb(68, 68, 68); stroke-opacity: 1; stroke-width: 1px;"/><path class="ytick ticks crisp" d="M79,0h-5" transform="translate(0,197.15)" style="stroke: rgb(68, 68, 68); stroke-opacity: 1; stroke-width: 1px;"/><path class="ytick ticks crisp" d="M79,0h-5" transform="translate(0,155.39)" style="stroke: rgb(68, 68, 68); stroke-opacity: 1; stroke-width: 1px;"/><path class="ytick ticks crisp" d="M79,0h-5" transform="translate(0,113.64)" style="stroke: rgb(68, 68, 68); stroke-opacity: 1; stroke-width: 1px;"/><g class="ytick"><text text-anchor="end" x="71.6" y="4.199999999999999" transform="translate(0,405.92)" style="font-family: 'Open Sans', verdana, arial, sans-serif; font-size: 12px; fill: rgb(42, 63, 95); fill-opacity: 1; white-space: pre;">0</text></g><g class="ytick"><text text-anchor="end" x="71.6" y="4.199999999999999" style="font-family: 'Open Sans', verdana, arial, sans-serif; font-size: 12px; fill: rgb(42, 63, 95); fill-opacity: 1; white-space: pre;" transform="translate(0,364.16)">10k</text></g><g class="ytick"><text text-anchor="end" x="71.6" y="4.199999999999999" style="font-family: 'Open Sans', verdana, arial, sans-serif; font-size: 12px; fill: rgb(42, 63, 95); fill-opacity: 1; white-space: pre;" transform="translate(0,322.40999999999997)">20k</text></g><g class="ytick"><text text-anchor="end" x="71.6" y="4.199999999999999" style="font-family: 'Open Sans', verdana, arial, sans-serif; font-size: 12px; fill: rgb(42, 63, 95); fill-opacity: 1; white-space: pre;" transform="translate(0,280.65)">30k</text></g><g class="ytick"><text text-anchor="end" x="71.6" y="4.199999999999999" style="font-family: 'Open Sans', verdana, arial, sans-serif; font-size: 12px; fill: rgb(42, 63, 95); fill-opacity: 1; white-space: pre;" transform="translate(0,238.9)">40k</text></g><g class="ytick"><text text-anchor="end" x="71.6" y="4.199999999999999" style="font-family: 'Open Sans', verdana, arial, sans-serif; font-size: 12px; fill: rgb(42, 63, 95); fill-opacity: 1; white-space: pre;" transform="translate(0,197.15)">50k</text></g><g class="ytick"><text text-anchor="end" x="71.6" y="4.199999999999999" style="font-family: 'Open Sans', verdana, arial, sans-serif; font-size: 12px; fill: rgb(42, 63, 95); fill-opacity: 1; white-space: pre;" transform="translate(0,155.39)">60k</text></g><g class="ytick"><text text-anchor="end" x="71.6" y="4.199999999999999" style="font-family: 'Open Sans', verdana, arial, sans-serif; font-size: 12px; fill: rgb(42, 63, 95); fill-opacity: 1; white-space: pre;" transform="translate(0,113.64)">70k</text></g></g><g class="overaxes-above"/></g></g><g class="polarlayer"/><g class="smithlayer"/><g class="ternarylayer"/><g class="geolayer"/><g class="funnelarealayer"/><g class="pielayer"/><g class="iciclelayer"/><g class="treemaplayer"/><g class="sunburstlayer"/><g class="glimages"/><defs id="topdefs-65e672"><g class="clips"/><clipPath id="legend65e672"><rect width="515" height="67" x="1" y="1"/></clipPath></defs><g class="layer-above"><g class="imagelayer"/><g class="shapelayer"><g class="shape-group" data-index="0" clip-path="url(#clip65e672x)"><path data-index="0" fill-rule="evenodd" d="M220.51,420L220.51,100" style="opacity: 1; stroke: rgb(128, 128, 128); stroke-opacity: 1; fill: rgb(0, 0, 0); fill-opacity: 0; stroke-dasharray: 9px, 9px; stroke-width: 2px;"/></g><g class="shape-group" data-index="1" clip-path="url(#clip65e672x)"><path data-index="1" fill-rule="evenodd" d="M297.5,420L297.5,100" style="opacity: 1; stroke: rgb(128, 128, 128); stroke-opacity: 1; fill: rgb(0, 0, 0); fill-opacity: 0; stroke-dasharray: 3px, 3px; stroke-width: 2px;"/></g><g class="shape-group" data-index="2" clip-path="url(#clip65e672x)"><path data-index="2" fill-rule="evenodd" d="M370,420L370,100" style="opacity: 1; stroke: rgb(128, 128, 128); stroke-opacity: 1; fill: rgb(0, 0, 0); fill-opacity: 0; stroke-dasharray: 9px, 9px; stroke-width: 2px;"/></g><g class="shape-group" data-index="3" clip-path="url(#clip65e672x)"><path data-index="3" fill-rule="evenodd" d="M447,420L447,100" style="opacity: 1; stroke: rgb(128, 128, 128); stroke-opacity: 1; fill: rgb(0, 0, 0); fill-opacity: 0; stroke-dasharray: 3px, 3px; stroke-width: 2px;"/></g><g class="shape-group" data-index="4" clip-path="url(#clip65e672x)"><path data-index="4" fill-rule="evenodd" d="M519.5,420L519.5,100" style="opacity: 1; stroke: rgb(128, 128, 128); stroke-opacity: 1; fill: rgb(0, 0, 0); fill-opacity: 0; stroke-dasharray: 9px, 9px; stroke-width: 2px;"/></g><g class="shape-group" data-index="5" clip-path="url(#clip65e672x)"><path data-index="5" fill-rule="evenodd" d="M596.49,420L596.49,100" style="opacity: 1; stroke: rgb(128, 128, 128); stroke-opacity: 1; fill: rgb(0, 0, 0); fill-opacity: 0; stroke-dasharray: 3px, 3px; stroke-width: 2px;"/></g><g class="shape-group" data-index="6" clip-path="url(#clip65e672x)"><path data-index="6" fill-rule="evenodd" d="M370,420L370,100" style="opacity: 1; stroke: rgb(255, 0, 0); stroke-opacity: 1; fill: rgb(0, 0, 0); fill-opacity: 0; stroke-dasharray: 9px, 9px; stroke-width: 2px;"/></g></g></g><g class="infolayer"><g class="legend" pointer-events="all" transform="translate(143,24.599999999999994)"><rect class="bg" shape-rendering="crispEdges" style="stroke: rgb(0, 0, 0); stroke-opacity: 1; fill: rgb(255, 255, 255); fill-opacity: 0.8; stroke-width: 1px;" width="516" height="68" x="0.5" y="0.5"/><g class="scrollbox" transform="" clip-path="url(#legend65e672)"><g class="groups"><g class="traces" transform="translate(1,15.5)" style="opacity: 1;"><text class="legendtext" text-anchor="start" x="40" y="4.680000000000001" style="font-family: 'Open Sans', verdana, arial, sans-serif; font-size: 12px; fill: rgb(42, 63, 95); fill-opacity: 1; white-space: pre;">Gamma</text><g class="layers" style="opacity: 1;"><g class="legendfill"/><g class="legendlines"><path class="js-line" d="M5,0h30" style="fill: none; stroke: rgb(207, 184, 124); stroke-opacity: 1; stroke-width: 3px;"/></g><g class="legendsymbols"><g class="legendpoints"/></g></g><rect class="legendtoggle" x="0" y="-9.5" width="89.5625" height="19" style="fill: rgb(0, 0, 0); fill-opacity: 0;"/></g><g class="traces" transform="translate(132.8671875,15.5)" style="opacity: 1;"><text class="legendtext" text-anchor="start" x="40" y="4.680000000000001" style="font-family: 'Open Sans', verdana, arial, sans-serif; font-size: 12px; fill: rgb(42, 63, 95); fill-opacity: 1; white-space: pre;">Gamma_down</text><g class="layers"><g class="legendfill"><path class="js-fill" d="M5,-2h30v6h-30z" style="stroke-width: 0; fill: rgb(207, 184, 124); fill-opacity: 0.15;"/></g><g class="legendlines"><path class="js-line" d="M5,-2h30" style="fill: none; stroke: rgb(99, 110, 250); stroke-opacity: 1; stroke-width: 0px;"/></g><g class="legendsymbols"><g class="legendpoints"/></g></g><rect class="legendtoggle" x="0" y="-9.5" width="129.3671875" height="19" style="fill: rgb(0, 0, 0); fill-opacity: 0;"/></g><g class="traces" transform="translate(264.734375,15.5)" style="opacity: 1;"><text class="legendtext" text-anchor="start" x="40" y="4.680000000000001" style="font-family: 'Open Sans', verdana, arial, sans-serif; font-size: 12px; fill: rgb(42, 63, 95); fill-opacity: 1; white-space: pre;">Gamma_up</text><g class="layers"><g class="legendfill"/><g class="legendlines"><path class="js-line" d="M5,0h30" style="fill: none; stroke: rgb(254, 203, 82); stroke-opacity: 1; stroke-width: 0px;"/></g><g class="legendsymbols"><g class="legendpoints"/></g></g><rect class="legendtoggle" x="0" y="-9.5" width="112.265625" height="19" style="fill: rgb(0, 0, 0); fill-opacity: 0;"/></g><g class="traces" transform="translate(396.6015625,15.5)" style="opacity: 1;"><text class="legendtext" text-anchor="start" x="40" y="4.680000000000001" style="font-family: 'Open Sans', verdana, arial, sans-serif; font-size: 12px; fill: rgb(42, 63, 95); fill-opacity: 1; white-space: pre;">Beta</text><g class="layers" style="opacity: 1;"><g class="legendfill"/><g class="legendlines"><path class="js-line" d="M5,0h30" style="fill: none; stroke: rgb(148, 0, 211); stroke-opacity: 1; stroke-width: 3px;"/></g><g class="legendsymbols"><g class="legendpoints"/></g></g><rect class="legendtoggle" x="0" y="-9.5" width="69.8125" height="19" style="fill: rgb(0, 0, 0); fill-opacity: 0;"/></g><g class="traces" transform="translate(1,34.5)" style="opacity: 1;"><text class="legendtext" text-anchor="start" x="40" y="4.680000000000001" style="font-family: 'Open Sans', verdana, arial, sans-serif; font-size: 12px; fill: rgb(42, 63, 95); fill-opacity: 1; white-space: pre;">Beta_down</text><g class="layers"><g class="legendfill"><path class="js-fill" d="M5,-2h30v6h-30z" style="stroke-width: 0; fill: rgb(148, 0, 211); fill-opacity: 0.15;"/></g><g class="legendlines"><path class="js-line" d="M5,-2h30" style="fill: none; stroke: rgb(182, 232, 128); stroke-opacity: 1; stroke-width: 0px;"/></g><g class="legendsymbols"><g class="legendpoints"/></g></g><rect class="legendtoggle" x="0" y="-9.5" width="109.6171875" height="19" style="fill: rgb(0, 0, 0); fill-opacity: 0;"/></g><g class="traces" transform="translate(132.8671875,34.5)" style="opacity: 1;"><text class="legendtext" text-anchor="start" x="40" y="4.680000000000001" style="font-family: 'Open Sans', verdana, arial, sans-serif; font-size: 12px; fill: rgb(42, 63, 95); fill-opacity: 1; white-space: pre;">Beta_up</text><g class="layers"><g class="legendfill"/><g class="legendlines"><path class="js-line" d="M5,0h30" style="fill: none; stroke: rgb(255, 102, 146); stroke-opacity: 1; stroke-width: 0px;"/></g><g class="legendsymbols"><g class="legendpoints"/></g></g><rect class="legendtoggle" x="0" y="-9.5" width="92.515625" height="19" style="fill: rgb(0, 0, 0); fill-opacity: 0;"/></g><g class="traces" transform="translate(264.734375,34.5)" style="opacity: 1;"><text class="legendtext" text-anchor="start" x="40" y="4.680000000000001" style="font-family: 'Open Sans', verdana, arial, sans-serif; font-size: 12px; fill: rgb(42, 63, 95); fill-opacity: 1; white-space: pre;">Alpha</text><g class="layers" style="opacity: 1;"><g class="legendfill"/><g class="legendlines"><path class="js-line" d="M5,0h30" style="fill: none; stroke: rgb(0, 0, 255); stroke-opacity: 1; stroke-width: 3px;"/></g><g class="legendsymbols"><g class="legendpoints"/></g></g><rect class="legendtoggle" x="0" y="-9.5" width="76.2734375" height="19" style="fill: rgb(0, 0, 0); fill-opacity: 0;"/></g><g class="traces" transform="translate(396.6015625,34.5)" style="opacity: 1;"><text class="legendtext" text-anchor="start" x="40" y="4.680000000000001" style="font-family: 'Open Sans', verdana, arial, sans-serif; font-size: 12px; fill: rgb(42, 63, 95); fill-opacity: 1; white-space: pre;">Alpha_down</text><g class="layers"><g class="legendfill"><path class="js-fill" d="M5,-2h30v6h-30z" style="stroke-width: 0; fill: rgb(0, 0, 255); fill-opacity: 0.15;"/></g><g class="legendlines"><path class="js-line" d="M5,-2h30" style="fill: none; stroke: rgb(255, 161, 90); stroke-opacity: 1; stroke-width: 0px;"/></g><g class="legendsymbols"><g class="legendpoints"/></g></g><rect class="legendtoggle" x="0" y="-9.5" width="116.078125" height="19" style="fill: rgb(0, 0, 0); fill-opacity: 0;"/></g><g class="traces" transform="translate(1,53.5)" style="opacity: 1;"><text class="legendtext" text-anchor="start" x="40" y="4.680000000000001" style="font-family: 'Open Sans', verdana, arial, sans-serif; font-size: 12px; fill: rgb(42, 63, 95); fill-opacity: 1; white-space: pre;">Alpha_up</text><g class="layers"><g class="legendfill"/><g class="legendlines"><path class="js-line" d="M5,0h30" style="fill: none; stroke: rgb(171, 99, 250); stroke-opacity: 1; stroke-width: 0px;"/></g><g class="legendsymbols"><g class="legendpoints"/></g></g><rect class="legendtoggle" x="0" y="-9.5" width="98.9765625" height="19" style="fill: rgb(0, 0, 0); fill-opacity: 0;"/></g><g class="traces" transform="translate(132.8671875,53.5)" style="opacity: 1;"><text class="legendtext" text-anchor="start" x="40" y="4.680000000000001" style="font-family: 'Open Sans', verdana, arial, sans-serif; font-size: 12px; fill: rgb(42, 63, 95); fill-opacity: 1; white-space: pre;">Theta</text><g class="layers" style="opacity: 1;"><g class="legendfill"/><g class="legendlines"><path class="js-line" d="M5,0h30" style="fill: none; stroke: rgb(75, 0, 130); stroke-opacity: 1; stroke-width: 3px;"/></g><g class="legendsymbols"><g class="legendpoints"/></g></g><rect class="legendtoggle" x="0" y="-9.5" width="77.078125" height="19" style="fill: rgb(0, 0, 0); fill-opacity: 0;"/></g><g class="traces" transform="translate(264.734375,53.5)" style="opacity: 1;"><text class="legendtext" text-anchor="start" x="40" y="4.680000000000001" style="font-family: 'Open Sans', verdana, arial, sans-serif; font-size: 12px; fill: rgb(42, 63, 95); fill-opacity: 1; white-space: pre;">Theta_down</text><g class="layers"><g class="legendfill"><path class="js-fill" d="M5,-2h30v6h-30z" style="stroke-width: 0; fill: rgb(75, 0, 130); fill-opacity: 0.15;"/></g><g class="legendlines"><path class="js-line" d="M5,-2h30" style="fill: none; stroke: rgb(239, 85, 59); stroke-opacity: 1; stroke-width: 0px;"/></g><g class="legendsymbols"><g class="legendpoints"/></g></g><rect class="legendtoggle" x="0" y="-9.5" width="116.875" height="19" style="fill: rgb(0, 0, 0); fill-opacity: 0;"/></g><g class="traces" transform="translate(396.6015625,53.5)" style="opacity: 1;"><text class="legendtext" text-anchor="start" x="40" y="4.680000000000001" style="font-family: 'Open Sans', verdana, arial, sans-serif; font-size: 12px; fill: rgb(42, 63, 95); fill-opacity: 1; white-space: pre;">Theta_up</text><g class="layers"><g class="legendfill"/><g class="legendlines"><path class="js-line" d="M5,0h30" style="fill: none; stroke: rgb(99, 110, 250); stroke-opacity: 1; stroke-width: 0px;"/></g><g class="legendsymbols"><g class="legendpoints"/></g></g><rect class="legendtoggle" x="0" y="-9.5" width="99.7734375" height="19" style="fill: rgb(0, 0, 0); fill-opacity: 0;"/></g></g></g><rect class="scrollbar" rx="20" ry="3" width="0" height="0" style="fill: rgb(128, 139, 164); fill-opacity: 1;" x="0" y="0"/></g><g class="g-gtitle"><text class="gtitle" x="350" y="50" text-anchor="middle" dy="0em" style="opacity: 1; font-family: Arial; font-size: 18px; fill: rgb(0, 0, 0); fill-opacity: 1; white-space: pre;"><tspan class="line" dy="0em" x="350" y="50"><tspan style="font-weight:bold">Figure f006: V1 Band-Specific Omission Dynamics (AAAB)</tspan></tspan><tspan class="line" dy="1.3em" x="350" y="50">​<tspan style="font-size:70%" dy="-0.6em">Relative Power (dB) with ±SEM | 0ms = Omission Onset | 30ms Smoothed</tspan><tspan dy="0.42em">​</tspan></tspan></text></g><g class="g-xtitle"><text class="xtitle" x="370" y="467.200390625" text-anchor="middle" style="opacity: 1; font-family: 'Open Sans', verdana, arial, sans-serif; font-size: 14px; fill: rgb(42, 63, 95); fill-opacity: 1; white-space: pre;">Time from Omission (ms)</text></g><g class="g-ytitle"><text class="ytitle" transform="rotate(-90,29.840234375,260)" x="29.840234375" y="260" text-anchor="middle" style="opacity: 1; font-family: 'Open Sans', verdana, arial, sans-serif; font-size: 14px; fill: rgb(42, 63, 95); fill-opacity: 1; white-space: pre;">Relative Power (dB)</text></g><g class="annotation" data-index="0" style="opacity: 1;"><g class="annotation-text-g" transform="rotate(0,230.01,109.5)"><g class="cursor-pointer" transform="translate(221,100)"><rect class="bg" x="0.5" y="0.5" width="18" height="18" style="stroke-width: 1px; stroke: rgb(0, 0, 0); stroke-opacity: 0; fill: rgb(0, 0, 0); fill-opacity: 0;"/><text class="annotation-text" text-anchor="middle" x="9.43359375" y="14" style="font-family: 'Open Sans', verdana, arial, sans-serif; font-size: 12px; fill: rgb(42, 63, 95); fill-opacity: 1; white-space: pre;">P1</text></g></g></g><g class="annotation" data-index="1" style="opacity: 1;"><g class="annotation-text-g" transform="rotate(0,308,109.5)"><g class="cursor-pointer" transform="translate(298,100)"><rect class="bg" x="0.5" y="0.5" width="20" height="18" style="stroke-width: 1px; stroke: rgb(0, 0, 0); stroke-opacity: 0; fill: rgb(0, 0, 0); fill-opacity: 0;"/><text class="annotation-text" text-anchor="middle" x="10.4375" y="14" style="font-family: 'Open Sans', verdana, arial, sans-serif; font-size: 12px; fill: rgb(42, 63, 95); fill-opacity: 1; white-space: pre;">D1</text></g></g></g><g class="annotation" data-index="2" style="opacity: 1;"><g class="annotation-text-g" transform="rotate(0,379.5,109.5)"><g class="cursor-pointer" transform="translate(370,100)"><rect class="bg" x="0.5" y="0.5" width="18" height="18" style="stroke-width: 1px; stroke: rgb(0, 0, 0); stroke-opacity: 0; fill: rgb(0, 0, 0); fill-opacity: 0;"/><text class="annotation-text" text-anchor="middle" x="9.43359375" y="14" style="font-family: 'Open Sans', verdana, arial, sans-serif; font-size: 12px; fill: rgb(42, 63, 95); fill-opacity: 1; white-space: pre;">P2</text></g></g></g><g class="annotation" data-index="3" style="opacity: 1;"><g class="annotation-text-g" transform="rotate(0,457.5,109.5)"><g class="cursor-pointer" transform="translate(447,100)"><rect class="bg" x="0.5" y="0.5" width="20" height="18" style="stroke-width: 1px; stroke: rgb(0, 0, 0); stroke-opacity: 0; fill: rgb(0, 0, 0); fill-opacity: 0;"/><text class="annotation-text" text-anchor="middle" x="10.4375" y="14" style="font-family: 'Open Sans', verdana, arial, sans-serif; font-size: 12px; fill: rgb(42, 63, 95); fill-opacity: 1; white-space: pre;">D2</text></g></g></g><g class="annotation" data-index="4" style="opacity: 1;"><g class="annotation-text-g" transform="rotate(0,529,109.5)"><g class="cursor-pointer" transform="translate(520,100)"><rect class="bg" x="0.5" y="0.5" width="18" height="18" style="stroke-width: 1px; stroke: rgb(0, 0, 0); stroke-opacity: 0; fill: rgb(0, 0, 0); fill-opacity: 0;"/><text class="annotation-text" text-anchor="middle" x="9.43359375" y="14" style="font-family: 'Open Sans', verdana, arial, sans-serif; font-size: 12px; fill: rgb(42, 63, 95); fill-opacity: 1; white-space: pre;">P3</text></g></g></g><g class="annotation" data-index="5" style="opacity: 1;"><g class="annotation-text-g" transform="rotate(0,606.99,109.5)"><g class="cursor-pointer" transform="translate(596,100)"><rect class="bg" x="0.5" y="0.5" width="20" height="18" style="stroke-width: 1px; stroke: rgb(0, 0, 0); stroke-opacity: 0; fill: rgb(0, 0, 0); fill-opacity: 0;"/><text class="annotation-text" text-anchor="middle" x="10.4375" y="14" style="font-family: 'Open Sans', verdana, arial, sans-serif; font-size: 12px; fill: rgb(42, 63, 95); fill-opacity: 1; white-space: pre;">D3</text></g></g></g><g class="annotation" data-index="6" style="opacity: 1;"><g class="annotation-text-g" transform="rotate(0,419,109.5)"><g class="cursor-pointer" transform="translate(370,100)"><rect class="bg" x="0.5" y="0.5" width="97" height="18" style="stroke-width: 1px; stroke: rgb(0, 0, 0); stroke-opacity: 0; fill: rgb(0, 0, 0); fill-opacity: 0;"/><text class="annotation-text" text-anchor="middle" x="49.171875" y="14" style="font-family: 'Open Sans', verdana, arial, sans-serif; font-size: 12px; fill: rgb(42, 63, 95); fill-opacity: 1; white-space: pre;">OMISSION (P2)</text></g></g></g></g></svg>