<svg class="main-svg" xmlns="http://www.w3.org/2000/svg" xmlns:xlink="http://www.w3.org/1999/xlink" width="700" height="500" style="" viewBox="0 0 700 500"><rect x="0" y="0" width="700" height="500" style="fill: rgb(255, 255, 255); fill-opacity: 1;"/><defs id="defs-361421"><g class="clips"><clipPath id="clip361421xyplot" class="plotclip"><rect width="580" height="320"/></clipPath><clipPath class="axesclip" id="clip361421x"><rect x="80" y="0" width="580" height="500"/></clipPath><clipPath class="axesclip" id="clip361421y"><rect x="0" y="100" width="700" height="320"/></clipPath><clipPath class="axesclip" id="clip361421xy"><rect x="80" y="100" width="580" height="320"/></clipPath></g><g class="gradients"/><g class="patterns"/></defs><g class="bglayer"/><g class="layer-below"><g class="imagelayer"/><g class="shapelayer"/></g><g class="cartesianlayer"><g class="subplot xy"><g class="layer-subplot"><g class="shapelayer"/><g class="imagelayer"/></g><g class="minor-gridlayer"><g class="x"/><g class="y"/></g><g class="gridlayer"><g class="x"><path class="xgrid crisp" transform="translate(118.67,0)" d="M0,100v320" style="stroke: rgb(211, 211, 211); stroke-opacity: 1; stroke-width: 1px;"/><path class="xgrid crisp" transform="translate(196,0)" d="M0,100v320" style="stroke: rgb(211, 211, 211); stroke-opacity: 1; stroke-width: 1px;"/><path class="xgrid crisp" transform="translate(350.67,0)" d="M0,100v320" style="stroke: rgb(211, 211, 211); stroke-opacity: 1; stroke-width: 1px;"/><path class="xgrid crisp" transform="translate(428,0)" d="M0,100v320" style="stroke: rgb(211, 211, 211); stroke-opacity: 1; stroke-width: 1px;"/><path class="xgrid crisp" transform="translate(505.33,0)" d="M0,100v320" style="stroke: rgb(211, 211, 211); stroke-opacity: 1; stroke-width: 1px;"/><path class="xgrid crisp" transform="translate(582.6700000000001,0)" d="M0,100v320" style="stroke: rgb(211, 211, 211); stroke-opacity: 1; stroke-width: 1px;"/></g><g class="y"><path class="ygrid crisp" transform="translate(0,411.01)" d="M80,0h580" style="stroke: rgb(211, 211, 211); stroke-opacity: 1; stroke-width: 1px;"/><path class="ygrid crisp" transform="translate(0,369.16)" d="M80,0h580" style="stroke: rgb(211, 211, 211); stroke-opacity: 1; stroke-width: 1px;"/><path class="ygrid crisp" transform="translate(0,327.31)" d="M80,0h580" style="stroke: rgb(211, 211, 211); stroke-opacity: 1; stroke-width: 1px;"/><path class="ygrid crisp" transform="translate(0,285.46000000000004)" d="M80,0h580" style="stroke: rgb(211, 211, 211); stroke-opacity: 1; stroke-width: 1px;"/><path class="ygrid crisp" transform="translate(0,243.61)" d="M80,0h580" style="stroke: rgb(211, 211, 211); stroke-opacity: 1; stroke-width: 1px;"/><path class="ygrid crisp" transform="translate(0,201.76)" d="M80,0h580" style="stroke: rgb(211, 211, 211); stroke-opacity: 1; stroke-width: 1px;"/><path class="ygrid crisp" transform="translate(0,159.91)" d="M80,0h580" style="stroke: rgb(211, 211, 211); stroke-opacity: 1; stroke-width: 1px;"/><path class="ygrid crisp" transform="translate(0,118.06)" d="M80,0h580" style="stroke: rgb(211, 211, 211); stroke-opacity: 1; stroke-width: 1px;"/></g></g><g class="zerolinelayer"><path class="xzl zl crisp" transform="translate(273.33000000000004,0)" d="M0,100v320" style="stroke: rgb(235, 240, 248); stroke-opacity: 1; stroke-width: 2px;"/></g><g class="layer-between"><g class="shapelayer"/><g class="imagelayer"/></g><path class="xlines-below"/><path class="ylines-below"/><g class="overlines-below"/><g class="xaxislayer-below"/><g class="yaxislayer-below"/><g class="overaxes-below"/><g class="overplot"><g class="xy" transform="translate(80,100)" clip-path="url(#clip361421xyplot)"><g class="scatterlayer mlayer"><g class="trace scatter traceeeb9fb" style="stroke-miterlimit: 2;"><g class="fills"><g><path class="js-fill" d="M-193.33,69.56L-189.08,65.25L-188.69,64.55L-180.57,51.61L-180.18,51.6L-177.09,55.04L-176.7,55.94L-171.67,76.7L-171.28,78.9L-154.26,181.71L-153.87,183.19L-145.75,203.9L-145.36,204.5L-135.3,215.47L-134.92,215.84L-102.03,246.33L-101.65,246.52L-90.04,249.9L-89.65,249.95L-76.5,249.96L-76.11,249.92L-49.81,247.6L-49.42,247.62L-21.18,250.77L-20.79,250.84L3.97,255.47L4.35,255.66L8.61,258.6L8.99,258.95L13.64,264.27L14.02,264.8L20.6,275.12L20.99,275.77L29.11,288.31L29.5,288.81L34.91,294.55L35.3,294.87L41.1,298.43L41.49,298.59L48.07,300.53L48.45,300.6L56.97,301.23L57.35,301.21L64.7,300.28L65.09,300.2L74.76,297.22L75.15,297.08L93.33,290.69L93.72,290.59L110.35,286.98L110.74,286.9L131.63,282.82L132.02,282.76L164.9,277.65L165.29,277.64L177.67,276.34L178.05,276.24L182.69,274.15L183.08,273.89L186.56,270.52L186.95,270.01L190.05,264.66L190.43,263.81L193.53,255.17L193.91,253.85L197.4,239.16L197.78,237.22L202.42,209.37L202.81,206.73L214.03,132.12L214.42,130.37L217.51,120.19L217.9,119.42L219.83,117.34L220.22,117.27L221.77,118.11L222.15,118.58L224.09,122.42L224.48,123.46L227.96,135.89L228.34,137.54L241.11,191.7L241.5,192.88L245.75,203.52L246.14,204.28L250.4,210.9L250.78,211.36L255.81,216.04L256.2,216.33L271.67,228.29L272.06,228.66L288.31,243.8L288.69,244.07L295.66,247.86L296.04,248.01L303.78,250.24L304.17,250.32L315,251.52L315.39,251.54L343.24,253.29L343.63,253.34L358.33,254.88L358.72,254.89L383.86,254.16L384.25,254.14L399.34,254.4L399.72,254.48L404.75,256.36L405.14,256.58L409.39,259.93L409.78,260.31L414.81,266.62L415.2,267.19L432.22,293.02L432.61,293.43L437.64,297.52L438.02,297.75L443.44,299.95L443.83,300.05L450.79,300.95L451.18,300.97L463.56,300.58L463.94,300.55L480.96,298.06L481.35,297.99L501.08,293.21L501.47,293.1L520.42,288.37L520.81,288.3L537.06,285.72L537.45,285.68L580,281.74L580,265.48L579.61,265.48L579.23,265.49L568.78,266.37L568.39,266.43L537.83,269.97L537.45,270.02L521.2,272.68L520.81,272.75L503.01,277.52L502.63,277.64L487.15,281.97L486.77,282.06L471.29,284.77L470.91,284.81L456.59,285.53L456.2,285.52L447.31,284.83L446.92,284.76L440.73,283.02L440.34,282.85L435.7,279.98L435.31,279.67L430.29,274.27L429.9,273.76L420.61,258.22L420.23,257.51L413.65,246.21L413.26,245.63L408.62,239.81L408.23,239.42L403.98,236.1L403.59,235.88L398.18,233.92L397.79,233.85L385.8,233.51L385.41,233.53L361.42,234.27L361.04,234.26L338.21,231.21L337.83,231.15L315.39,229.9L315,229.88L303.01,228.47L302.62,228.38L295.27,226.13L294.88,225.96L288.69,222.42L288.31,222.14L271.29,205.25L270.9,204.87L255.42,193.01L255.04,192.72L250.4,188.28L250.01,187.8L245.75,180.86L245.37,180.05L241.11,168.62L240.72,167.33L228.34,110.51L227.96,108.73L224.48,95.37L224.09,94.26L222.15,90.23L221.77,89.75L220.22,88.99L219.83,89.1L217.9,91.58L217.51,92.46L214.42,103.91L214.03,105.86L203.97,178.37L203.59,181.31L198.94,212.82L198.56,215.05L195.07,232.13L194.69,233.7L191.21,244.98L190.82,245.96L187.72,252.09L187.34,252.67L183.86,256.57L183.47,256.88L178.83,259.33L178.44,259.46L162.19,261.21L161.8,261.23L101.07,273.74L100.68,273.82L73.21,282.89L72.83,283.03L64.7,285.19L64.32,285.25L56.19,285.76L55.8,285.74L48.07,284.64L47.68,284.55L41.1,282.31L40.72,282.13L35.69,278.92L35.3,278.6L30.27,273.23L29.88,272.72L19.44,255.17L19.05,254.47L12.48,243.54L12.09,243L7.45,237.65L7.06,237.3L2.42,234.13L2.03,233.94L-23.11,228.04L-23.5,227.96L-47.87,224.39L-48.26,224.36L-76.89,226.53L-77.28,226.56L-91.2,225.97L-91.59,225.89L-103.19,221.68L-103.58,221.45L-116.35,210.64L-116.74,210.22L-132.98,192.7L-133.37,192.36L-144.2,182.54L-144.59,182.05L-152.33,165.13L-152.71,163.8L-167.03,77.31L-167.41,74.43L-174.38,31.38L-174.76,29.78L-178.63,20L-179.02,19.65L-179.41,19.41L-189.08,34.65L-189.46,35.38L-193.33,39.33Z" style="fill: rgb(207, 184, 124); fill-opacity: 0.2; stroke-width: 0;"/></g></g><g class="errorbars"/><g class="lines"><path class="js-line" d="M-193.33,39.33L-189.46,35.38L-189.08,34.65L-179.41,19.41L-179.02,19.65L-178.63,20L-174.76,29.78L-174.38,31.38L-167.41,74.43L-167.03,77.31L-152.71,163.8L-152.33,165.13L-144.59,182.05L-144.2,182.54L-133.37,192.36L-132.98,192.7L-116.74,210.22L-116.35,210.64L-103.58,221.45L-103.19,221.68L-91.59,225.89L-91.2,225.97L-77.28,226.56L-76.89,226.53L-48.26,224.36L-47.87,224.39L-23.5,227.96L-23.11,228.04L2.03,233.94L2.42,234.13L7.06,237.3L7.45,237.65L12.09,243L12.48,243.54L19.05,254.47L19.44,255.17L29.88,272.72L30.27,273.23L35.3,278.6L35.69,278.92L40.72,282.13L41.1,282.31L47.68,284.55L48.07,284.64L55.8,285.74L56.19,285.76L64.32,285.25L64.7,285.19L72.83,283.03L73.21,282.89L100.68,273.82L101.07,273.74L161.8,261.23L162.19,261.21L178.44,259.46L178.83,259.33L183.47,256.88L183.86,256.57L187.34,252.67L187.72,252.09L190.82,245.96L191.21,244.98L194.69,233.7L195.07,232.13L198.56,215.05L198.94,212.82L203.59,181.31L203.97,178.37L214.03,105.86L214.42,103.91L217.51,92.46L217.9,91.58L219.83,89.1L220.22,88.99L221.77,89.75L222.15,90.23L224.09,94.26L224.48,95.37L227.96,108.73L228.34,110.51L240.72,167.33L241.11,168.62L245.37,180.05L245.75,180.86L250.01,187.8L250.4,188.28L255.04,192.72L255.42,193.01L270.9,204.87L271.29,205.25L288.31,222.14L288.69,222.42L294.88,225.96L295.27,226.13L302.62,228.38L303.01,228.47L315,229.88L315.39,229.9L337.83,231.15L338.21,231.21L361.04,234.26L361.42,234.27L385.41,233.53L385.8,233.51L397.79,233.85L398.18,233.92L403.59,235.88L403.98,236.1L408.23,239.42L408.62,239.81L413.26,245.63L413.65,246.21L420.23,257.51L420.61,258.22L429.9,273.76L430.29,274.27L435.31,279.67L435.7,279.98L440.34,282.85L440.73,283.02L446.92,284.76L447.31,284.83L456.2,285.52L456.59,285.53L470.91,284.81L471.29,284.77L486.77,282.06L487.15,281.97L502.63,277.64L503.01,277.52L520.81,272.75L521.2,272.68L537.45,270.02L537.83,269.97L568.39,266.43L568.78,266.37L579.23,265.49L579.61,265.48L580,265.48" style="vector-effect: none; fill: none; stroke: rgb(99, 110, 250); stroke-opacity: 1; stroke-width: 0px; opacity: 1;"/></g><g class="points"/><g class="text"/></g><g class="trace scatter tracebf6a22" style="stroke-miterlimit: 2;"><g class="fills"/><g class="errorbars"/><g class="lines"><path class="js-line" d="M-193.33,69.56L-189.08,65.25L-188.69,64.55L-180.57,51.61L-180.18,51.6L-177.09,55.04L-176.7,55.94L-171.67,76.7L-171.28,78.9L-154.26,181.71L-153.87,183.19L-145.75,203.9L-145.36,204.5L-135.3,215.47L-134.92,215.84L-102.03,246.33L-101.65,246.52L-90.04,249.9L-89.65,249.95L-76.5,249.96L-76.11,249.92L-49.81,247.6L-49.42,247.62L-21.18,250.77L-20.79,250.84L3.97,255.47L4.35,255.66L8.61,258.6L8.99,258.95L13.64,264.27L14.02,264.8L20.6,275.12L20.99,275.77L29.11,288.31L29.5,288.81L34.91,294.55L35.3,294.87L41.1,298.43L41.49,298.59L48.07,300.53L48.45,300.6L56.97,301.23L57.35,301.21L64.7,300.28L65.09,300.2L74.76,297.22L75.15,297.08L93.33,290.69L93.72,290.59L110.35,286.98L110.74,286.9L131.63,282.82L132.02,282.76L164.9,277.65L165.29,277.64L177.67,276.34L178.05,276.24L182.69,274.15L183.08,273.89L186.56,270.52L186.95,270.01L190.05,264.66L190.43,263.81L193.53,255.17L193.91,253.85L197.4,239.16L197.78,237.22L202.42,209.37L202.81,206.73L214.03,132.12L214.42,130.37L217.51,120.19L217.9,119.42L219.83,117.34L220.22,117.27L221.77,118.11L222.15,118.58L224.09,122.42L224.48,123.46L227.96,135.89L228.34,137.54L241.11,191.7L241.5,192.88L245.75,203.52L246.14,204.28L250.4,210.9L250.78,211.36L255.81,216.04L256.2,216.33L271.67,228.29L272.06,228.66L288.31,243.8L288.69,244.07L295.66,247.86L296.04,248.01L303.78,250.24L304.17,250.32L315,251.52L315.39,251.54L343.24,253.29L343.63,253.34L358.33,254.88L358.72,254.89L383.86,254.16L384.25,254.14L399.34,254.4L399.72,254.48L404.75,256.36L405.14,256.58L409.39,259.93L409.78,260.31L414.81,266.62L415.2,267.19L432.22,293.02L432.61,293.43L437.64,297.52L438.02,297.75L443.44,299.95L443.83,300.05L450.79,300.95L451.18,300.97L463.56,300.58L463.94,300.55L480.96,298.06L481.35,297.99L501.08,293.21L501.47,293.1L520.42,288.37L520.81,288.3L537.06,285.72L537.45,285.68L580,281.74" style="vector-effect: none; fill: none; stroke: rgb(239, 85, 59); stroke-opacity: 1; stroke-width: 0px; opacity: 1;"/></g><g class="points"/><g class="text"/></g><g class="trace scatter trace89971c" style="stroke-miterlimit: 2; opacity: 1;"><g class="fills"/><g class="errorbars"/><g class="lines"><path class="js-line" d="M-193.33,54.44L-189.08,49.95L-188.69,49.21L-179.41,35.63L-179.02,35.89L-178.63,36.25L-174.76,45.9L-174.38,47.46L-167.41,89.12L-167.03,91.9L-152.71,175.57L-152.33,176.87L-144.2,194.36L-143.82,194.85L-129.89,208.22L-129.5,208.62L-103.19,233.71L-102.81,233.92L-91.2,237.85L-90.82,237.91L-78.44,238.4L-78.05,238.37L-48.26,236.03L-47.87,236.06L-18.86,240.07L-18.47,240.14L3.19,244.83L3.58,245.02L8.22,248.33L8.61,248.69L13.64,254.76L14.02,255.32L20.6,266.22L20.99,266.9L29.11,279.99L29.5,280.5L34.53,286.07L34.91,286.41L40.33,290L40.72,290.19L46.91,292.32L47.29,292.41L55.03,293.46L55.42,293.48L63.15,293.01L63.54,292.94L70.89,291.12L71.28,290.99L82.88,286.65L83.27,286.5L95.65,282.54L96.04,282.45L113.06,278.74L113.45,278.65L134.72,274.37L135.11,274.3L163.35,269.43L163.74,269.41L177.67,268.01L178.05,267.91L182.69,265.8L183.08,265.53L186.56,262.13L186.95,261.62L190.05,256.21L190.43,255.35L193.91,245.24L194.3,243.83L197.78,228.27L198.17,226.22L202.81,196.9L203.2,194.13L214.03,118.99L214.42,117.14L217.51,106.32L217.9,105.5L219.83,103.22L220.22,103.13L221.77,103.93L222.15,104.41L224.09,108.34L224.48,109.41L227.96,122.31L228.34,124.03L241.11,180.16L241.5,181.37L245.75,192.19L246.14,192.96L250.4,199.59L250.78,200.05L255.81,204.67L256.2,204.95L271.29,216.58L271.67,216.97L289.08,233.51L289.47,233.77L295.27,236.91L295.66,237.07L302.62,239.19L303.01,239.27L313.07,240.59L313.45,240.62L341.69,242.43L342.08,242.49L359.88,244.57L360.26,244.58L384.64,243.84L385.02,243.83L397.02,243.9L397.4,243.95L402.43,245.28L402.82,245.45L407.46,248.44L407.85,248.78L412.49,253.98L412.88,254.5L419.45,265.04L419.84,265.72L430.29,282.54L430.67,283.02L436.09,288.39L436.47,288.67L441.5,291.35L441.89,291.49L448.08,292.85L448.47,292.89L458.53,293.23L458.91,293.22L471.68,292.18L472.07,292.13L491.41,288.36L491.8,288.26L506.88,283.92L507.27,283.81L519.65,280.75L520.04,280.68L536.67,277.94L537.06,277.89L580,273.61" style="vector-effect: none; fill: none; stroke: rgb(207, 184, 124); stroke-opacity: 1; stroke-width: 3px; opacity: 1;"/></g><g class="points"/><g class="text"/></g><g class="trace scatter tracefb8739" style="stroke-miterlimit: 2;"><g class="fills"><g><path class="js-fill" d="M-193.33,72.38L-189.46,68.15L-189.08,67.36L-179.02,49.71L-178.63,49.93L-178.25,50.25L-174.38,59.69L-173.99,61.25L-167.03,102.96L-166.64,105.74L-154.26,181.69L-153.87,183.23L-146.14,203.43L-145.75,204.02L-136.08,213.65L-135.69,213.98L-106.68,240.08L-106.29,240.32L-86.17,250.03L-85.79,250.16L-71.47,253.2L-71.09,253.22L-58.71,252.08L-58.32,252.03L-45.94,251.75L-45.55,251.77L-29.69,251.49L-29.3,251.47L-19.25,252.14L-18.86,252.22L-4.55,255.98L-4.16,256.08L3.19,258.51L3.58,258.7L7.83,261.61L8.22,261.95L12.86,267.3L13.25,267.84L19.05,277.2L19.44,277.87L29.11,293.27L29.5,293.75L34.14,298.43L34.53,298.73L39.56,301.59L39.94,301.74L46.52,303.38L46.91,303.44L55.03,304L55.42,303.99L62.77,303.06L63.15,302.96L69.73,300.33L70.12,300.12L79.02,294.5L79.4,294.25L88.3,289.59L88.69,289.45L95.65,287.67L96.04,287.6L113.06,283.77L113.45,283.65L136.66,276.43L137.05,276.37L146.72,275.6L147.1,275.58L155.61,274.68L156,274.6L166.06,271.52L166.45,271.4L173.41,269.96L173.8,269.93L179.99,270.43L180.37,270.51L195.46,273.15L195.85,273.13L202.81,272.07L203.2,271.98L216.35,269.65L216.74,269.65L222.54,270.19L222.93,270.27L229.5,272.59L229.89,272.78L239.18,278.13L239.56,278.36L248.07,282.55L248.46,282.68L255.42,284.25L255.81,284.3L263.94,284.39L264.32,284.36L273.22,282.73L273.61,282.63L285.6,280.16L285.99,280.16L291.79,281.03L292.18,281.15L308.04,285.58L308.42,285.59L315,284.91L315.39,284.83L330.09,282.72L330.48,282.72L349.04,282.82L349.43,282.76L365.68,280.42L366.07,280.44L373.42,281.33L373.8,281.4L383.86,282.52L384.25,282.51L390.44,281.63L390.83,281.53L410.94,276.22L411.33,276.19L421.39,276.42L421.77,276.44L431.06,276.2L431.45,276.15L439.18,274.18L439.57,274.05L452.72,270.12L453.11,270.07L459.69,269.96L460.07,270L478.64,271.52L479.03,271.49L504.18,269.04L504.56,269.07L514.23,270.56L514.62,270.64L523.52,271.73L523.91,271.73L530.1,270.87L530.48,270.77L550.6,265.63L550.99,265.61L560.27,265.83L560.66,265.87L580,266.8L580,249.16L556.01,247.92L555.63,247.91L547.89,248.4L547.5,248.46L538.99,250.79L538.61,250.93L530.1,253.67L529.71,253.76L524.29,254.29L523.91,254.28L513.46,252.07L513.07,251.96L505.72,250.31L505.34,250.25L497.6,250.13L497.21,250.17L484.45,252.77L484.06,252.87L476.71,254.33L476.32,254.38L460.46,253.18L460.07,253.14L453.88,253.18L453.5,253.23L440.34,257.32L439.96,257.46L432.99,259.41L432.61,259.47L415.58,258.99L415.2,258.97L408.23,259.33L407.85,259.39L399.72,261.72L399.34,261.87L390.44,265.15L390.05,265.26L383.86,266.3L383.48,266.31L374.58,265.43L374.19,265.36L366.07,264.21L365.68,264.19L348.66,266.88L348.27,266.95L340.92,267.44L340.53,267.43L329.7,266.68L329.31,266.68L313.84,269.57L313.45,269.66L308.04,270.18L307.65,270.16L291.4,264.74L291.02,264.63L285.6,263.77L285.21,263.77L273.99,266.04L273.61,266.15L266.26,267.61L265.87,267.65L258.13,267.74L257.75,267.71L250.01,266.29L249.62,266.18L230.67,256.48L230.28,256.28L223.7,253.74L223.31,253.65L217.51,252.97L217.13,252.97L201.65,256.02L201.26,256.1L195.46,256.82L195.07,256.83L180.76,253.73L180.37,253.64L174.96,252.97L174.57,252.97L168.38,253.98L167.99,254.1L157.16,257.64L156.78,257.73L145.56,258.77L145.17,258.78L136.27,259.65L135.88,259.73L126.99,262.49L126.6,262.64L113.83,267.68L113.45,267.82L94.49,272.18L94.1,272.26L87.53,274.26L87.14,274.43L75.53,281.61L75.15,281.88L68.18,286.05L67.8,286.23L61.99,288.13L61.61,288.2L55.03,288.61L54.64,288.6L46.52,287.45L46.13,287.37L39.56,285.22L39.17,285.04L34.14,281.82L33.75,281.49L28.72,275.91L28.34,275.37L17.51,256.37L17.12,255.65L11.32,246.09L10.93,245.56L6.67,240.76L6.29,240.42L1.64,237.31L1.26,237.12L-17.7,230.58L-18.09,230.47L-43.23,229.21L-43.62,229.19L-56.77,229.22L-57.16,229.26L-69.54,230.42L-69.92,230.4L-82.3,227.85L-82.69,227.72L-98.55,220.54L-98.94,220.32L-132.98,192.22L-133.37,191.91L-144.2,183.26L-144.59,182.8L-152.33,165.77L-152.71,164.39L-167.03,72.92L-167.41,69.93L-173.99,28.01L-174.38,26.36L-177.86,16.99L-178.25,16.57L-179.02,16.07L-189.08,35.69L-189.46,36.54L-193.33,41.08Z" style="fill: rgb(148, 0, 211); fill-opacity: 0.2; stroke-width: 0;"/></g></g><g class="errorbars"/><g class="lines"><path class="js-line" d="M-193.33,41.08L-189.46,36.54L-189.08,35.69L-179.02,16.07L-178.25,16.57L-177.86,16.99L-174.38,26.36L-173.99,28.01L-167.41,69.93L-167.03,72.92L-152.71,164.39L-152.33,165.77L-144.59,182.8L-144.2,183.26L-133.37,191.91L-132.98,192.22L-98.94,220.32L-98.55,220.54L-82.69,227.72L-82.3,227.85L-69.92,230.4L-69.54,230.42L-57.16,229.26L-56.77,229.22L-43.62,229.19L-43.23,229.21L-18.09,230.47L-17.7,230.58L1.26,237.12L1.64,237.31L6.29,240.42L6.67,240.76L10.93,245.56L11.32,246.09L17.12,255.65L17.51,256.37L28.34,275.37L28.72,275.91L33.75,281.49L34.14,281.82L39.17,285.04L39.56,285.22L46.13,287.37L46.52,287.45L54.64,288.6L55.03,288.61L61.61,288.2L61.99,288.13L67.8,286.23L68.18,286.05L75.15,281.88L75.53,281.61L87.14,274.43L87.53,274.26L94.1,272.26L94.49,272.18L113.45,267.82L113.83,267.68L126.6,262.64L126.99,262.49L135.88,259.73L136.27,259.65L145.17,258.78L145.56,258.77L156.78,257.73L157.16,257.64L167.99,254.1L168.38,253.98L174.57,252.97L174.96,252.97L180.37,253.64L180.76,253.73L195.07,256.83L195.46,256.82L201.26,256.1L201.65,256.02L217.13,252.97L217.51,252.97L223.31,253.65L223.7,253.74L230.28,256.28L230.67,256.48L249.62,266.18L250.01,266.29L257.75,267.71L258.13,267.74L265.87,267.65L266.26,267.61L273.61,266.15L273.99,266.04L285.21,263.77L285.6,263.77L291.02,264.63L291.4,264.74L307.65,270.16L308.04,270.18L313.45,269.66L313.84,269.57L329.31,266.68L329.7,266.68L340.53,267.43L340.92,267.44L348.27,266.95L348.66,266.88L365.68,264.19L366.07,264.21L374.19,265.36L374.58,265.43L383.48,266.31L383.86,266.3L390.05,265.26L390.44,265.15L399.34,261.87L399.72,261.72L407.85,259.39L408.23,259.33L415.2,258.97L415.58,258.99L432.61,259.47L432.99,259.41L439.96,257.46L440.34,257.32L453.5,253.23L453.88,253.18L460.07,253.14L460.46,253.18L476.32,254.38L476.71,254.33L484.06,252.87L484.45,252.77L497.21,250.17L497.6,250.13L505.34,250.25L505.72,250.31L513.07,251.96L513.46,252.07L523.91,254.28L524.29,254.29L529.71,253.76L530.1,253.67L538.61,250.93L538.99,250.79L547.5,248.46L547.89,248.4L555.63,247.91L556.01,247.92L580,249.16" style="vector-effect: none; fill: none; stroke: rgb(171, 99, 250); stroke-opacity: 1; stroke-width: 0px; opacity: 1;"/></g><g class="points"/><g class="text"/></g><g class="trace scatter trace5bc75b" style="stroke-miterlimit: 2;"><g class="fills"/><g class="errorbars"/><g class="lines"><path class="js-line" d="M-193.33,72.38L-189.46,68.15L-189.08,67.36L-179.02,49.71L-178.63,49.93L-178.25,50.25L-174.38,59.69L-173.99,61.25L-167.03,102.96L-166.64,105.74L-154.26,181.69L-153.87,183.23L-146.14,203.43L-145.75,204.02L-136.08,213.65L-135.69,213.98L-106.68,240.08L-106.29,240.32L-86.17,250.03L-85.79,250.16L-71.47,253.2L-71.09,253.22L-58.71,252.08L-58.32,252.03L-45.94,251.75L-45.55,251.77L-29.69,251.49L-29.3,251.47L-19.25,252.14L-18.86,252.22L-4.55,255.98L-4.16,256.08L3.19,258.51L3.58,258.7L7.83,261.61L8.22,261.95L12.86,267.3L13.25,267.84L19.05,277.2L19.44,277.87L29.11,293.27L29.5,293.75L34.14,298.43L34.53,298.73L39.56,301.59L39.94,301.74L46.52,303.38L46.91,303.44L55.03,304L55.42,303.99L62.77,303.06L63.15,302.96L69.73,300.33L70.12,300.12L79.02,294.5L79.4,294.25L88.3,289.59L88.69,289.45L95.65,287.67L96.04,287.6L113.06,283.77L113.45,283.65L136.66,276.43L137.05,276.37L146.72,275.6L147.1,275.58L155.61,274.68L156,274.6L166.06,271.52L166.45,271.4L173.41,269.96L173.8,269.93L179.99,270.43L180.37,270.51L195.46,273.15L195.85,273.13L202.81,272.07L203.2,271.98L216.35,269.65L216.74,269.65L222.54,270.19L222.93,270.27L229.5,272.59L229.89,272.78L239.18,278.13L239.56,278.36L248.07,282.55L248.46,282.68L255.42,284.25L255.81,284.3L263.94,284.39L264.32,284.36L273.22,282.73L273.61,282.63L285.6,280.16L285.99,280.16L291.79,281.03L292.18,281.15L308.04,285.58L308.42,285.59L315,284.91L315.39,284.83L330.09,282.72L330.48,282.72L349.04,282.82L349.43,282.76L365.68,280.42L366.07,280.44L373.42,281.33L373.8,281.4L383.86,282.52L384.25,282.51L390.44,281.63L390.83,281.53L410.94,276.22L411.33,276.19L421.39,276.42L421.77,276.44L431.06,276.2L431.45,276.15L439.18,274.18L439.57,274.05L452.72,270.12L453.11,270.07L459.69,269.96L460.07,270L478.64,271.52L479.03,271.49L504.18,269.04L504.56,269.07L514.23,270.56L514.62,270.64L523.52,271.73L523.91,271.73L530.1,270.87L530.48,270.77L550.6,265.63L550.99,265.61L560.27,265.83L560.66,265.87L580,266.8" style="vector-effect: none; fill: none; stroke: rgb(255, 161, 90); stroke-opacity: 1; stroke-width: 0px; opacity: 1;"/></g><g class="points"/><g class="text"/></g><g class="trace scatter traceeffc4a" style="stroke-miterlimit: 2; opacity: 1;"><g class="fills"/><g class="errorbars"/><g class="lines"><path class="js-line" d="M-193.33,56.73L-189.46,52.34L-189.08,51.53L-179.02,32.89L-178.25,33.41L-177.86,33.84L-174.38,43.03L-173.99,44.63L-167.03,87.94L-166.64,90.84L-152.71,175.95L-152.33,177.3L-144.59,194.21L-144.2,194.68L-133.37,203.96L-132.98,204.29L-102.81,230.2L-102.42,230.42L-84.63,238.79L-84.24,238.92L-70.7,241.8L-70.31,241.81L-57.93,240.67L-57.55,240.62L-44.01,240.51L-43.62,240.53L-27.37,240.26L-26.98,240.26L-18.09,241.43L-17.7,241.53L-0.68,246.65L-0.29,246.78L5.51,249.8L5.9,250.09L10.16,254.23L10.54,254.7L15.18,261.46L15.57,262.1L30.27,286.28L30.66,286.73L35.69,291.28L36.07,291.54L41.49,294.14L41.88,294.27L49.23,295.85L49.61,295.9L57.74,296.25L58.13,296.23L64.7,294.96L65.09,294.83L70.89,292.15L71.28,291.93L89.46,281.35L89.85,281.22L98.36,279.34L98.75,279.28L112.67,275.99L113.06,275.86L137.82,267.81L138.21,267.75L149.04,267.08L149.42,267.06L157.16,265.99L157.55,265.89L174.96,261.44L175.34,261.44L181.53,262.34L181.92,262.44L194.3,264.98L194.69,264.99L201.26,264.26L201.65,264.17L217.51,261.31L217.9,261.31L224.48,262.31L224.86,262.42L231.44,265.22L231.83,265.43L248.07,274.11L248.46,274.25L255.42,275.85L255.81,275.9L264.32,276.07L264.71,276.04L273.61,274.39L273.99,274.29L284.83,271.98L285.21,271.97L290.24,272.53L290.63,272.62L299.14,275.79L299.53,275.94L306.49,277.77L306.88,277.81L312.68,277.55L313.07,277.49L330.09,274.7L330.48,274.71L348.66,274.88L349.04,274.82L365.68,272.31L366.07,272.32L374.58,273.48L374.96,273.55L383.86,274.41L384.25,274.39L390.44,273.39L390.83,273.28L410.56,267.65L410.94,267.62L418.68,267.74L419.07,267.77L430.67,267.99L431.06,267.94L438.02,266.35L438.41,266.22L453.88,261.58L454.27,261.54L460.46,261.61L460.85,261.65L477.1,262.96L477.48,262.92L487.15,261.2L487.54,261.12L499.15,259.49L499.53,259.48L507.66,260.01L508.04,260.07L525.45,262.97L525.84,262.94L532.03,261.75L532.42,261.64L548.66,257.04L549.05,257L556.4,256.76L556.79,256.78L580,257.98" style="vector-effect: none; fill: none; stroke: rgb(148, 0, 211); stroke-opacity: 1; stroke-width: 3px; opacity: 1;"/></g><g class="points"/><g class="text"/></g></g></g></g><g class="zerolinelayer-above"/><path class="xlines-above crisp" d="M79,420.5H661M79,99.5H661" style="fill: none; stroke-width: 1px; stroke: rgb(0, 0, 0); stroke-opacity: 1;"/><path class="ylines-above crisp" d="M79.5,100V420M660.5,100V420" style="fill: none; stroke-width: 1px; stroke: rgb(0, 0, 0); stroke-opacity: 1;"/><g class="overlines-above"/><g class="xaxislayer-above"><path class="xtick ticks crisp" d="M0,421v5" transform="translate(118.67,0)" style="stroke: rgb(68, 68, 68); stroke-opacity: 1; stroke-width: 1px;"/><path class="xtick ticks crisp" d="M0,421v5" transform="translate(196,0)" style="stroke: rgb(68, 68, 68); stroke-opacity: 1; stroke-width: 1px;"/><path class="xtick ticks crisp" d="M0,421v5" transform="translate(273.33000000000004,0)" style="stroke: rgb(68, 68, 68); stroke-opacity: 1; stroke-width: 1px;"/><path class="xtick ticks crisp" d="M0,421v5" transform="translate(350.67,0)" style="stroke: rgb(68, 68, 68); stroke-opacity: 1; stroke-width: 1px;"/><path class="xtick ticks crisp" d="M0,421v5" transform="translate(428,0)" style="stroke: rgb(68, 68, 68); stroke-opacity: 1; stroke-width: 1px;"/><path class="xtick ticks crisp" d="M0,421v5" transform="translate(505.33,0)" style="stroke: rgb(68, 68, 68); stroke-opacity: 1; stroke-width: 1px;"/><path class="xtick ticks crisp" d="M0,421v5" transform="translate(582.6700000000001,0)" style="stroke: rgb(68, 68, 68); stroke-opacity: 1; stroke-width: 1px;"/><path class="xtick ticks crisp" d="M0,421v5" transform="translate(660,0)" style="stroke: rgb(68, 68, 68); stroke-opacity: 1; stroke-width: 1px;"/><g class="xtick"><text text-anchor="middle" x="0" y="440.4" transform="translate(118.67,0)" style="font-family: 'Open Sans', verdana, arial, sans-serif; font-size: 12px; fill: rgb(42, 63, 95); fill-opacity: 1; white-space: pre;">−400</text></g><g class="xtick"><text text-anchor="middle" x="0" y="440.4" style="font-family: 'Open Sans', verdana, arial, sans-serif; font-size: 12px; fill: rgb(42, 63, 95); fill-opacity: 1; white-space: pre;" transform="translate(196,0)">−200</text></g><g class="xtick"><text text-anchor="middle" x="0" y="440.4" style="font-family: 'Open Sans', verdana, arial, sans-serif; font-size: 12px; fill: rgb(42, 63, 95); fill-opacity: 1; white-space: pre;" transform="translate(273.33000000000004,0)">0</text></g><g class="xtick"><text text-anchor="middle" x="0" y="440.4" style="font-family: 'Open Sans', verdana, arial, sans-serif; font-size: 12px; fill: rgb(42, 63, 95); fill-opacity: 1; white-space: pre;" transform="translate(350.67,0)">200</text></g><g class="xtick"><text text-anchor="middle" x="0" y="440.4" style="font-family: 'Open Sans', verdana, arial, sans-serif; font-size: 12px; fill: rgb(42, 63, 95); fill-opacity: 1; white-space: pre;" transform="translate(428,0)">400</text></g><g class="xtick"><text text-anchor="middle" x="0" y="440.4" style="font-family: 'Open Sans', verdana, arial, sans-serif; font-size: 12px; fill: rgb(42, 63, 95); fill-opacity: 1; white-space: pre;" transform="translate(505.33,0)">600</text></g><g class="xtick"><text text-anchor="middle" x="0" y="440.4" style="font-family: 'Open Sans', verdana, arial, sans-serif; font-size: 12px; fill: rgb(42, 63, 95); fill-opacity: 1; white-space: pre;" transform="translate(582.6700000000001,0)">800</text></g><g class="xtick"><text text-anchor="middle" x="0" y="440.4" style="font-family: 'Open Sans', verdana, arial, sans-serif; font-size: 12px; fill: rgb(42, 63, 95); fill-opacity: 1; white-space: pre;" transform="translate(660,0)">1000</text></g></g><g class="yaxislayer-above"><path class="ytick ticks crisp" d="M79,0h-5" transform="translate(0,411.01)" style="stroke: rgb(68, 68, 68); stroke-opacity: 1; stroke-width: 1px;"/><path class="ytick ticks crisp" d="M79,0h-5" transform="translate(0,369.16)" style="stroke: rgb(68, 68, 68); stroke-opacity: 1; stroke-width: 1px;"/><path class="ytick ticks crisp" d="M79,0h-5" transform="translate(0,327.31)" style="stroke: rgb(68, 68, 68); stroke-opacity: 1; stroke-width: 1px;"/><path class="ytick ticks crisp" d="M79,0h-5" transform="translate(0,285.46000000000004)" style="stroke: rgb(68, 68, 68); stroke-opacity: 1; stroke-width: 1px;"/><path class="ytick ticks crisp" d="M79,0h-5" transform="translate(0,243.61)" style="stroke: rgb(68, 68, 68); stroke-opacity: 1; stroke-width: 1px;"/><path class="ytick ticks crisp" d="M79,0h-5" transform="translate(0,201.76)" style="stroke: rgb(68, 68, 68); stroke-opacity: 1; stroke-width: 1px;"/><path class="ytick ticks crisp" d="M79,0h-5" transform="translate(0,159.91)" style="stroke: rgb(68, 68, 68); stroke-opacity: 1; stroke-width: 1px;"/><path class="ytick ticks crisp" d="M79,0h-5" transform="translate(0,118.06)" style="stroke: rgb(68, 68, 68); stroke-opacity: 1; stroke-width: 1px;"/><g class="ytick"><text text-anchor="end" x="71.6" y="4.199999999999999" transform="translate(0,411.01)" style="font-family: 'Open Sans', verdana, arial, sans-serif; font-size: 12px; fill: rgb(42, 63, 95); fill-opacity: 1; white-space: pre;">2</text></g><g class="ytick"><text text-anchor="end" x="71.6" y="4.199999999999999" style="font-family: 'Open Sans', verdana, arial, sans-serif; font-size: 12px; fill: rgb(42, 63, 95); fill-opacity: 1; white-space: pre;" transform="translate(0,369.16)">3</text></g><g class="ytick"><text text-anchor="end" x="71.6" y="4.199999999999999" style="font-family: 'Open Sans', verdana, arial, sans-serif; font-size: 12px; fill: rgb(42, 63, 95); fill-opacity: 1; white-space: pre;" transform="translate(0,327.31)">4</text></g><g class="ytick"><text text-anchor="end" x="71.6" y="4.199999999999999" style="font-family: 'Open Sans', verdana, arial, sans-serif; font-size: 12px; fill: rgb(42, 63, 95); fill-opacity: 1; white-space: pre;" transform="translate(0,285.46000000000004)">5</text></g><g class="ytick"><text text-anchor="end" x="71.6" y="4.199999999999999" style="font-family: 'Open Sans', verdana, arial, sans-serif; font-size: 12px; fill: rgb(42, 63, 95); fill-opacity: 1; white-space: pre;" transform="translate(0,243.61)">6</text></g><g class="ytick"><text text-anchor="end" x="71.6" y="4.199999999999999" style="font-family: 'Open Sans', verdana, arial, sans-serif; font-size: 12px; fill: rgb(42, 63, 95); fill-opacity: 1; white-space: pre;" transform="translate(0,201.76)">7</text></g><g class="ytick"><text text-anchor="end" x="71.6" y="4.199999999999999" style="font-family: 'Open Sans', verdana, arial, sans-serif; font-size: 12px; fill: rgb(42, 63, 95); fill-opacity: 1; white-space: pre;" transform="translate(0,159.91)">8</text></g><g class="ytick"><text text-anchor="end" x="71.6" y="4.199999999999999" style="font-family: 'Open Sans', verdana, arial, sans-serif; font-size: 12px; fill: rgb(42, 63, 95); fill-opacity: 1; white-space: pre;" transform="translate(0,118.06)">9</text></g></g><g class="overaxes-above"/></g></g><g class="polarlayer"/><g class="smithlayer"/><g class="ternarylayer"/><g class="geolayer"/><g class="funnelarealayer"/><g class="pielayer"/><g class="iciclelayer"/><g class="treemaplayer"/><g class="sunburstlayer"/><g class="glimages"/><defs id="topdefs-361421"><g class="clips"/><clipPath id="legend361421"><rect width="296" height="29" x="1" y="1"/></clipPath></defs><g class="layer-above"><g class="imagelayer"/><g class="shapelayer"><g class="shape-group" data-index="0" clip-path="url(#clip361421x)"><path data-index="0" fill-rule="evenodd" d="M273.33000000000004,420L273.33000000000004,100" style="opacity: 1; stroke: rgb(255, 0, 0); stroke-opacity: 1; fill: rgb(0, 0, 0); fill-opacity: 0; stroke-dasharray: 9px, 9px; stroke-width: 2px;"/></g></g></g><g class="infolayer"><g class="legend" pointer-events="all" transform="translate(362,62.599999999999994)"><rect class="bg" shape-rendering="crispEdges" style="stroke: rgb(0, 0, 0); stroke-opacity: 1; fill: rgb(255, 255, 255); fill-opacity: 0.8; stroke-width: 1px;" width="297" height="30" x="0.5" y="0.5"/><g class="scrollbox" transform="" clip-path="url(#legend361421)"><g class="groups" transform=""><g class="traces" transform="translate(0,15.5)" style="opacity: 1;"><text class="legendtext" text-anchor="start" x="40" y="4.680000000000001" style="font-family: 'Open Sans', verdana, arial, sans-serif; font-size: 12px; fill: rgb(42, 63, 95); fill-opacity: 1; white-space: pre;">Standard (AAAB)</text><g class="layers" style="opacity: 1;"><g class="legendfill"/><g class="legendlines"><path class="js-line" d="M5,0h30" style="fill: none; stroke: rgb(207, 184, 124); stroke-opacity: 1; stroke-width: 3px;"/></g><g class="legendsymbols"><g class="legendpoints"/></g></g><rect class="legendtoggle" x="0" y="-9.5" width="145.46875" height="19" style="fill: rgb(0, 0, 0); fill-opacity: 0;"/></g></g><g class="groups" transform="translate(147.96875,0)"><g class="traces" transform="translate(0,15.5)" style="opacity: 1;"><text class="legendtext" text-anchor="start" x="40" y="4.680000000000001" style="font-family: 'Open Sans', verdana, arial, sans-serif; font-size: 12px; fill: rgb(42, 63, 95); fill-opacity: 1; white-space: pre;">Omission (AXAB)</text><g class="layers" style="opacity: 1;"><g class="legendfill"/><g class="legendlines"><path class="js-line" d="M5,0h30" style="fill: none; stroke: rgb(148, 0, 211); stroke-opacity: 1; stroke-width: 3px;"/></g><g class="legendsymbols"><g class="legendpoints"/></g></g><rect class="legendtoggle" x="0" y="-9.5" width="145.5546875" height="19" style="fill: rgb(0, 0, 0); fill-opacity: 0;"/></g></g></g><rect class="scrollbar" rx="20" ry="3" width="0" height="0" style="fill: rgb(128, 139, 164); fill-opacity: 1;" x="0" y="0"/></g><g class="g-gtitle"><text class="gtitle" x="350" y="50" text-anchor="middle" dy="0em" style="opacity: 1; font-family: Arial; font-size: 18px; fill: rgb(0, 0, 0); fill-opacity: 1; white-space: pre;"><tspan class="line" dy="0em" x="350" y="50"><tspan style="font-weight:bold">Figure f002: V1 Omission-Local PSTH</tspan></tspan><tspan class="line" dy="1.3em" x="350" y="50">​<tspan style="font-size:70%" dy="-0.6em">n=871 units | Mean ± SEM | 0ms = Omission Onset</tspan><tspan dy="0.42em">​</tspan></tspan></text></g><g class="g-xtitle"><text class="xtitle" x="370" y="467.200390625" text-anchor="middle" style="opacity: 1; font-family: 'Open Sans', verdana, arial, sans-serif; font-size: 14px; fill: rgb(42, 63, 95); fill-opacity: 1; white-space: pre;">Time from Omission (ms)</text></g><g class="g-ytitle"><text class="ytitle" transform="rotate(-90,44.566796875,260)" x="44.566796875" y="260" text-anchor="middle" style="opacity: 1; font-family: 'Open Sans', verdana, arial, sans-serif; font-size: 14px; fill: rgb(42, 63, 95); fill-opacity: 1; white-space: pre;">Firing Rate (Hz)</text></g><g class="annotation" data-index="0" style="opacity: 1;"><g class="annotation-text-g" transform="rotate(0,322.83000000000004,109.5)"><g class="cursor-pointer" transform="translate(273,100)"><rect class="bg" x="0.5" y="0.5" width="98" height="18" style="stroke-width: 1px; stroke: rgb(0, 0, 0); stroke-opacity: 0; fill: rgb(0, 0, 0); fill-opacity: 0;"/><text class="annotation-text" text-anchor="middle" x="49.23828125" y="14" style="font-family: 'Open Sans', verdana, arial, sans-serif; font-size: 12px; fill: rgb(42, 63, 95); fill-opacity: 1; white-space: pre;">Omission Onset</text></g></g></g></g></svg>