<svg class="main-svg" xmlns="http://www.w3.org/2000/svg" xmlns:xlink="http://www.w3.org/1999/xlink" width="700" height="500" style="" viewBox="0 0 700 500"><rect x="0" y="0" width="700" height="500" style="fill: rgb(255, 255, 255); fill-opacity: 1;"/><defs id="defs-c5122c"><g class="clips"><clipPath id="clipc5122cxyplot" class="plotclip"><rect width="580" height="320"/></clipPath><clipPath class="axesclip" id="clipc5122cx"><rect x="80" y="0" width="580" height="500"/></clipPath><clipPath class="axesclip" id="clipc5122cy"><rect x="0" y="100" width="700" height="320"/></clipPath><clipPath class="axesclip" id="clipc5122cxy"><rect x="80" y="100" width="580" height="320"/></clipPath></g><g class="gradients"/><g class="patterns"/></defs><g class="bglayer"/><g class="layer-below"><g class="imagelayer"/><g class="shapelayer"/></g><g class="cartesianlayer"><g class="subplot xy"><g class="layer-subplot"><g class="shapelayer"/><g class="imagelayer"/></g><g class="minor-gridlayer"><g class="x"/><g class="y"/></g><g class="gridlayer"><g class="x"><path class="xgrid crisp" transform="translate(118.67,0)" d="M0,100v320" style="stroke: rgb(211, 211, 211); stroke-opacity: 1; stroke-width: 1px;"/><path class="xgrid crisp" transform="translate(196,0)" d="M0,100v320" style="stroke: rgb(211, 211, 211); stroke-opacity: 1; stroke-width: 1px;"/><path class="xgrid crisp" transform="translate(350.67,0)" d="M0,100v320" style="stroke: rgb(211, 211, 211); stroke-opacity: 1; stroke-width: 1px;"/><path class="xgrid crisp" transform="translate(428,0)" d="M0,100v320" style="stroke: rgb(211, 211, 211); stroke-opacity: 1; stroke-width: 1px;"/><path class="xgrid crisp" transform="translate(505.33,0)" d="M0,100v320" style="stroke: rgb(211, 211, 211); stroke-opacity: 1; stroke-width: 1px;"/><path class="xgrid crisp" transform="translate(582.6700000000001,0)" d="M0,100v320" style="stroke: rgb(211, 211, 211); stroke-opacity: 1; stroke-width: 1px;"/></g><g class="y"><path class="ygrid crisp" transform="translate(0,398)" d="M80,0h580" style="stroke: rgb(211, 211, 211); stroke-opacity: 1; stroke-width: 1px;"/><path class="ygrid crisp" transform="translate(0,361.08)" d="M80,0h580" style="stroke: rgb(211, 211, 211); stroke-opacity: 1; stroke-width: 1px;"/><path class="ygrid crisp" transform="translate(0,324.15999999999997)" d="M80,0h580" style="stroke: rgb(211, 211, 211); stroke-opacity: 1; stroke-width: 1px;"/><path class="ygrid crisp" transform="translate(0,287.24)" d="M80,0h580" style="stroke: rgb(211, 211, 211); stroke-opacity: 1; stroke-width: 1px;"/><path class="ygrid crisp" transform="translate(0,250.32)" d="M80,0h580" style="stroke: rgb(211, 211, 211); stroke-opacity: 1; stroke-width: 1px;"/><path class="ygrid crisp" transform="translate(0,213.4)" d="M80,0h580" style="stroke: rgb(211, 211, 211); stroke-opacity: 1; stroke-width: 1px;"/><path class="ygrid crisp" transform="translate(0,176.48000000000002)" d="M80,0h580" style="stroke: rgb(211, 211, 211); stroke-opacity: 1; stroke-width: 1px;"/><path class="ygrid crisp" transform="translate(0,139.57)" d="M80,0h580" style="stroke: rgb(211, 211, 211); stroke-opacity: 1; stroke-width: 1px;"/><path class="ygrid crisp" transform="translate(0,102.65)" d="M80,0h580" style="stroke: rgb(211, 211, 211); stroke-opacity: 1; stroke-width: 1px;"/></g></g><g class="zerolinelayer"><path class="xzl zl crisp" transform="translate(273.33000000000004,0)" d="M0,100v320" style="stroke: rgb(235, 240, 248); stroke-opacity: 1; stroke-width: 2px;"/></g><g class="layer-between"><g class="shapelayer"/><g class="imagelayer"/></g><path class="xlines-below"/><path class="ylines-below"/><g class="overlines-below"/><g class="xaxislayer-below"/><g class="yaxislayer-below"/><g class="overaxes-below"/><g class="overplot"><g class="xy" transform="translate(80,100)" clip-path="url(#clipc5122cxyplot)"><g class="scatterlayer mlayer"><g class="trace scatter trace64cbec" style="stroke-miterlimit: 2;"><g class="fills"><g><path class="js-fill" d="M-193.33,235.27L-180.95,231.73L-180.57,231.53L-166.64,221.07L-166.25,220.67L-152.33,201.91L-151.94,201.33L-139.17,186.88L-138.79,186.68L-131.44,185.88L-131.05,185.99L-121.38,191.54L-120.99,191.83L-59.87,235.78L-59.48,235.86L-54.06,235.49L-53.68,235.36L-47.49,231.66L-47.1,231.36L-34.72,223.02L-34.33,222.92L-29.69,223L-29.3,223.12L-24.28,226.09L-23.89,226.42L-15.76,234.54L-15.38,234.93L-9.19,239.89L-8.8,240.11L-4.16,241.71L-3.77,241.76L0.48,241.52L0.87,241.43L5.51,239.54L5.9,239.33L11.7,235.12L12.09,234.79L27.56,221.92L27.95,221.74L31.82,220.75L32.21,220.73L35.69,221.44L36.07,221.61L39.56,223.98L39.94,224.34L44.2,229.39L44.59,229.95L50.78,240.28L51.16,240.99L63.93,262.9L64.32,263.43L70.12,270.02L70.51,270.37L75.53,273.97L75.92,274.17L81.34,276.2L81.72,276.29L87.53,276.72L87.91,276.69L93.33,275.54L93.72,275.4L99.91,272.21L100.29,271.95L108.8,265.4L109.19,265.1L117.7,259.27L118.09,259.08L124.28,256.73L124.67,256.63L142.07,252.81L142.46,252.75L149.04,252.64L149.42,252.69L157.16,254.42L157.55,254.51L163.74,255.03L164.13,254.99L168.77,253.59L169.15,253.4L174.18,250.05L174.57,249.74L184.63,240.53L185.02,240.19L191.98,235.06L192.37,234.84L199.33,231.85L199.72,231.73L217.51,225.69L217.9,225.5L226.02,220.52L226.41,220.24L232.99,214.44L233.37,214.03L238.4,207.49L238.79,206.88L243.82,197.54L244.21,196.71L251.17,179.33L251.56,178.27L262,151L262.39,150.16L267.03,141.89L267.42,141.36L270.9,137.88L271.29,137.64L274.38,136.72L274.77,136.73L277.86,137.75L278.25,137.99L281.73,141.05L282.12,141.48L288.31,149.93L288.69,150.52L304.94,173.96L305.33,174.45L315,185.22L315.39,185.58L321.19,190.02L321.58,190.25L326.99,192.74L327.38,192.88L338.99,195.7L339.37,195.77L346.34,196.34L346.72,196.32L352.53,195.22L352.91,195.09L370.71,189.14L371.1,189.12L376.9,189.55L377.29,189.62L391.6,192.29L391.99,192.25L397.02,190.99L397.4,190.84L407.85,185.47L408.23,185.3L414.42,183.22L414.81,183.13L426.03,181.57L426.42,181.54L432.99,181.57L433.38,181.63L438.02,183.19L438.41,183.4L443.05,186.81L443.44,187.17L449.24,193.61L449.63,194.08L463.17,210L463.56,210.36L469.74,215.08L470.13,215.32L477.87,218.87L478.26,219L490.64,222.77L491.02,222.86L497.21,223.52L497.6,223.5L503.01,222.35L503.4,222.21L518.1,216.63L518.49,216.61L523.13,217.19L523.52,217.3L530.87,220.33L531.26,220.5L537.83,222.55L538.22,222.6L543.64,222.54L544.02,222.48L552.15,220.51L552.53,220.41L560.66,219.03L561.04,219.01L571.49,219.19L571.88,219.21L580,219.42L580,117.28L573.04,117.6L572.65,117.63L560.66,118.79L560.27,118.86L549.82,121.85L549.44,121.99L543.25,123.84L542.86,123.91L538.22,124.09L537.83,124.04L526.23,119.64L525.84,119.48L521.2,118.21L520.81,118.18L516.55,118.61L516.17,118.72L509.98,121.76L509.59,121.99L503.4,125.46L503.01,125.63L498.37,126.9L497.99,126.94L492.96,126.57L492.57,126.48L482.9,122.71L482.51,122.52L473.61,117.43L473.23,117.16L466.26,111.37L465.88,110.99L447.31,87.06L446.92,86.57L441.89,81.08L441.5,80.73L437.25,77.85L436.86,77.67L432.22,76.48L431.83,76.45L422.16,77.52L421.77,77.59L412.49,79.69L412.1,79.82L402.43,84.43L402.04,84.64L396.24,87.36L395.85,87.49L390.83,88.21L390.44,88.19L378.45,84.65L378.06,84.52L372.64,83.3L372.26,83.26L367.23,83.56L366.84,83.64L357.56,87.25L357.17,87.43L350.59,90.03L350.21,90.13L344.79,90.71L344.4,90.69L338.21,89.49L337.83,89.37L330.09,86.18L329.7,85.98L323.51,81.97L323.12,81.66L316.94,75.53L316.55,75.07L307.65,62.93L307.26,62.35L290.24,33.14L289.85,32.44L284.05,22.81L283.67,22.26L279.8,17.88L279.41,17.57L276.7,16.16L276.31,16.07L273.61,16.38L273.22,16.56L270.13,19.17L269.74,19.65L265.48,26.99L265.1,27.83L258.13,46.9L257.75,48.12L248.07,78.98L247.69,80.12L242.27,94.29L241.88,95.16L236.86,104.76L236.47,105.37L230.67,112.94L230.28,113.35L224.09,118.97L223.7,119.27L216.35,124.21L215.96,124.43L205.52,129.21L205.13,129.36L196.62,133.11L196.23,133.32L190.05,137.65L189.66,137.99L178.83,149.39L178.44,149.82L172.25,156.14L171.86,156.47L167.22,159.57L166.83,159.74L162.58,160.9L162.19,160.94L153.68,159.89L153.29,159.81L147.1,158.97L146.72,158.96L134.72,160.73L134.34,160.81L123.12,163.21L122.73,163.34L116.93,165.95L116.54,166.18L107.64,173.19L107.26,173.54L98.75,180.74L98.36,181.01L93.33,183.8L92.94,183.96L88.3,185.08L87.91,185.11L83.27,184.76L82.88,184.67L77.86,182.59L77.47,182.36L72.05,177.93L71.67,177.53L65.86,170.07L65.48,169.48L48.07,135.57L47.68,134.82L42.65,126.18L42.26,125.62L38.4,121.05L38.01,120.7L34.53,118.5L34.14,118.36L30.66,118.01L30.27,118.06L26.4,119.55L26.02,119.78L18.28,126.49L17.89,126.89L10.54,134.09L10.16,134.43L5.13,137.96L4.74,138.16L0.48,139.65L0.1,139.71L-4.16,139.54L-4.55,139.44L-9.19,137.16L-9.57,136.88L-16.93,129.44L-17.31,128.97L-24.66,120.69L-25.05,120.35L-29.3,117.7L-29.69,117.57L-33.56,117.42L-33.95,117.51L-49.42,130.32L-49.81,130.64L-55.22,133.73L-55.61,133.83L-60.64,133.49L-61.03,133.35L-99.71,99.68L-100.1,99.32L-120.6,81.72L-120.99,81.45L-129.89,77.09L-130.28,77.02L-137.63,78.69L-138.01,78.96L-154.65,103.05L-155.03,103.73L-167.41,122.03L-167.8,122.47L-179.79,132L-180.18,132.2L-193.33,135.39Z" style="fill: rgb(207, 184, 124); fill-opacity: 0.2; stroke-width: 0;"/></g></g><g class="errorbars"/><g class="lines"><path class="js-line" d="M-193.33,135.39L-180.18,132.2L-179.79,132L-167.8,122.47L-167.41,122.03L-155.03,103.73L-154.65,103.05L-138.01,78.96L-137.63,78.69L-130.28,77.02L-129.89,77.09L-120.99,81.45L-120.6,81.72L-100.1,99.32L-99.71,99.68L-61.03,133.35L-60.64,133.49L-55.61,133.83L-55.22,133.73L-49.81,130.64L-49.42,130.32L-33.95,117.51L-33.56,117.42L-29.69,117.57L-29.3,117.7L-25.05,120.35L-24.66,120.69L-17.31,128.97L-16.93,129.44L-9.57,136.88L-9.19,137.16L-4.55,139.44L-4.16,139.54L0.1,139.71L0.48,139.65L4.74,138.16L5.13,137.96L10.16,134.43L10.54,134.09L17.89,126.89L18.28,126.49L26.02,119.78L26.4,119.55L30.27,118.06L30.66,118.01L34.14,118.36L34.53,118.5L38.01,120.7L38.4,121.05L42.26,125.62L42.65,126.18L47.68,134.82L48.07,135.57L65.48,169.48L65.86,170.07L71.67,177.53L72.05,177.93L77.47,182.36L77.86,182.59L82.88,184.67L83.27,184.76L87.91,185.11L88.3,185.08L92.94,183.96L93.33,183.8L98.36,181.01L98.75,180.74L107.26,173.54L107.64,173.19L116.54,166.18L116.93,165.95L122.73,163.34L123.12,163.21L134.34,160.81L134.72,160.73L146.72,158.96L147.1,158.97L153.29,159.81L153.68,159.89L162.19,160.94L162.58,160.9L166.83,159.74L167.22,159.57L171.86,156.47L172.25,156.14L178.44,149.82L178.83,149.39L189.66,137.99L190.05,137.65L196.23,133.32L196.62,133.11L205.13,129.36L205.52,129.21L215.96,124.43L216.35,124.21L223.7,119.27L224.09,118.97L230.28,113.35L230.67,112.94L236.47,105.37L236.86,104.76L241.88,95.16L242.27,94.29L247.69,80.12L248.07,78.98L257.75,48.12L258.13,46.9L265.1,27.83L265.48,26.99L269.74,19.65L270.13,19.17L273.22,16.56L273.61,16.38L276.31,16.07L276.7,16.16L279.41,17.57L279.8,17.88L283.67,22.26L284.05,22.81L289.85,32.44L290.24,33.14L307.26,62.35L307.65,62.93L316.55,75.07L316.94,75.53L323.12,81.66L323.51,81.97L329.7,85.98L330.09,86.18L337.83,89.37L338.21,89.49L344.4,90.69L344.79,90.71L350.21,90.13L350.59,90.03L357.17,87.43L357.56,87.25L366.84,83.64L367.23,83.56L372.26,83.26L372.64,83.3L378.06,84.52L378.45,84.65L390.44,88.19L390.83,88.21L395.85,87.49L396.24,87.36L402.04,84.64L402.43,84.43L412.1,79.82L412.49,79.69L421.77,77.59L422.16,77.52L431.83,76.45L432.22,76.48L436.86,77.67L437.25,77.85L441.5,80.73L441.89,81.08L446.92,86.57L447.31,87.06L465.88,110.99L466.26,111.37L473.23,117.16L473.61,117.43L482.51,122.52L482.9,122.71L492.57,126.48L492.96,126.57L497.99,126.94L498.37,126.9L503.01,125.63L503.4,125.46L509.59,121.99L509.98,121.76L516.17,118.72L516.55,118.61L520.81,118.18L521.2,118.21L525.84,119.48L526.23,119.64L537.83,124.04L538.22,124.09L542.86,123.91L543.25,123.84L549.44,121.99L549.82,121.85L560.27,118.86L560.66,118.79L572.65,117.63L573.04,117.6L580,117.28" style="vector-effect: none; fill: none; stroke: rgb(99, 110, 250); stroke-opacity: 1; stroke-width: 0px; opacity: 1;"/></g><g class="points"/><g class="text"/></g><g class="trace scatter trace62c9cb" style="stroke-miterlimit: 2;"><g class="fills"/><g class="errorbars"/><g class="lines"><path class="js-line" d="M-193.33,235.27L-180.95,231.73L-180.57,231.53L-166.64,221.07L-166.25,220.67L-152.33,201.91L-151.94,201.33L-139.17,186.88L-138.79,186.68L-131.44,185.88L-131.05,185.99L-121.38,191.54L-120.99,191.83L-59.87,235.78L-59.48,235.86L-54.06,235.49L-53.68,235.36L-47.49,231.66L-47.1,231.36L-34.72,223.02L-34.33,222.92L-29.69,223L-29.3,223.12L-24.28,226.09L-23.89,226.42L-15.76,234.54L-15.38,234.93L-9.19,239.89L-8.8,240.11L-4.16,241.71L-3.77,241.76L0.48,241.52L0.87,241.43L5.51,239.54L5.9,239.33L11.7,235.12L12.09,234.79L27.56,221.92L27.95,221.74L31.82,220.75L32.21,220.73L35.69,221.44L36.07,221.61L39.56,223.98L39.94,224.34L44.2,229.39L44.59,229.95L50.78,240.28L51.16,240.99L63.93,262.9L64.32,263.43L70.12,270.02L70.51,270.37L75.53,273.97L75.92,274.17L81.34,276.2L81.72,276.29L87.53,276.72L87.91,276.69L93.33,275.54L93.72,275.4L99.91,272.21L100.29,271.95L108.8,265.4L109.19,265.1L117.7,259.27L118.09,259.08L124.28,256.73L124.67,256.63L142.07,252.81L142.46,252.75L149.04,252.64L149.42,252.69L157.16,254.42L157.55,254.51L163.74,255.03L164.13,254.99L168.77,253.59L169.15,253.4L174.18,250.05L174.57,249.74L184.63,240.53L185.02,240.19L191.98,235.06L192.37,234.84L199.33,231.85L199.72,231.73L217.51,225.69L217.9,225.5L226.02,220.52L226.41,220.24L232.99,214.44L233.37,214.03L238.4,207.49L238.79,206.88L243.82,197.54L244.21,196.71L251.17,179.33L251.56,178.27L262,151L262.39,150.16L267.03,141.89L267.42,141.36L270.9,137.88L271.29,137.64L274.38,136.72L274.77,136.73L277.86,137.75L278.25,137.99L281.73,141.05L282.12,141.48L288.31,149.93L288.69,150.52L304.94,173.96L305.33,174.45L315,185.22L315.39,185.58L321.19,190.02L321.58,190.25L326.99,192.74L327.38,192.88L338.99,195.7L339.37,195.77L346.34,196.34L346.72,196.32L352.53,195.22L352.91,195.09L370.71,189.14L371.1,189.12L376.9,189.55L377.29,189.62L391.6,192.29L391.99,192.25L397.02,190.99L397.4,190.84L407.85,185.47L408.23,185.3L414.42,183.22L414.81,183.13L426.03,181.57L426.42,181.54L432.99,181.57L433.38,181.63L438.02,183.19L438.41,183.4L443.05,186.81L443.44,187.17L449.24,193.61L449.63,194.08L463.17,210L463.56,210.36L469.74,215.08L470.13,215.32L477.87,218.87L478.26,219L490.64,222.77L491.02,222.86L497.21,223.52L497.6,223.5L503.01,222.35L503.4,222.21L518.1,216.63L518.49,216.61L523.13,217.19L523.52,217.3L530.87,220.33L531.26,220.5L537.83,222.55L538.22,222.6L543.64,222.54L544.02,222.48L552.15,220.51L552.53,220.41L560.66,219.03L561.04,219.01L571.49,219.19L571.88,219.21L580,219.42" style="vector-effect: none; fill: none; stroke: rgb(239, 85, 59); stroke-opacity: 1; stroke-width: 0px; opacity: 1;"/></g><g class="points"/><g class="text"/></g><g class="trace scatter trace60d9ae" style="stroke-miterlimit: 2; opacity: 1;"><g class="fills"/><g class="errorbars"/><g class="lines"><path class="js-line" d="M-193.33,185.33L-180.57,181.96L-180.18,181.76L-167.03,171.53L-166.64,171.11L-153.49,152.33L-153.1,151.7L-139.17,133.37L-138.79,133.11L-131.44,131.39L-131.05,131.45L-122.15,135.82L-121.76,136.09L-96.62,156.4L-96.23,156.71L-59.87,184.76L-59.48,184.85L-54.06,184.41L-53.68,184.26L-47.49,180.11L-47.1,179.78L-35.11,170.52L-34.72,170.39L-30.47,170.1L-30.08,170.18L-25.82,172.31L-25.44,172.61L-19.63,178.34L-19.25,178.78L-9.96,188.01L-9.57,188.27L-5.32,190.34L-4.93,190.45L-0.68,190.76L-0.29,190.72L4.35,189.25L4.74,189.06L9.77,185.72L10.16,185.41L19.83,176.29L20.21,175.93L26.79,170.83L27.18,170.62L31.05,169.39L31.43,169.36L34.91,169.91L35.3,170.06L38.78,172.37L39.17,172.72L43.43,177.84L43.81,178.4L49.61,188.42L50,189.16L64.7,216.1L65.09,216.66L70.89,223.7L71.28,224.08L77.08,228.43L77.47,228.64L82.88,230.59L83.27,230.66L88.3,230.87L88.69,230.83L93.72,229.52L94.1,229.36L99.91,226.05L100.29,225.77L108.8,218.78L109.19,218.45L117.7,212.39L118.09,212.19L124.28,209.81L124.67,209.7L140.14,206.39L140.53,206.32L147.49,205.74L147.88,205.76L155.23,207.08L155.61,207.17L162.19,208.02L162.58,208L167.22,206.9L167.61,206.73L172.64,203.52L173.02,203.2L179.6,196.86L179.99,196.45L189.66,187.26L190.05,186.97L196.23,183.15L196.62,182.96L205.52,179.66L205.91,179.53L216.35,175.23L216.74,175.03L224.86,169.85L225.25,169.55L231.44,164.05L231.83,163.64L237.24,156.67L237.63,156.06L242.66,146.67L243.04,145.82L248.46,132.18L248.85,131.1L264.32,87.95L264.71,87.15L268.96,80.11L269.35,79.65L272.83,76.86L273.22,76.7L275.93,76.47L276.31,76.56L279.41,78.2L279.8,78.52L283.67,82.81L284.05,83.33L290.63,93.67L291.02,94.32L303.78,114.7L304.17,115.26L314.61,128.78L315,129.2L321.19,135L321.58,135.29L326.99,138.59L327.38,138.77L335.89,141.89L336.28,142.01L344.79,143.53L345.18,143.54L350.98,142.79L351.37,142.68L359.49,139.39L359.88,139.21L367.61,136.54L368,136.47L373.42,136.25L373.8,136.29L380.38,137.85L380.77,137.98L390.05,140.24L390.44,140.26L395.47,139.58L395.85,139.45L401.27,137.01L401.66,136.8L412.1,131.82L412.49,131.7L421.77,129.82L422.16,129.76L431.83,128.94L432.22,128.98L436.86,130.16L437.25,130.34L441.5,133.11L441.89,133.44L446.92,138.7L447.31,139.17L465.1,160.96L465.49,161.32L472.45,166.6L472.84,166.83L481.35,170.99L481.74,171.15L492.18,174.74L492.57,174.83L498.37,175.17L498.76,175.12L503.4,173.84L503.79,173.67L518.1,167.45L518.49,167.42L522.74,167.78L523.13,167.88L528.55,169.99L528.93,170.17L537.06,173.17L537.45,173.24L542.47,173.33L542.86,173.27L549.05,171.74L549.44,171.62L558.72,169.18L559.11,169.12L567.62,168.52L568.01,168.51L580,168.35" style="vector-effect: none; fill: none; stroke: rgb(207, 184, 124); stroke-opacity: 1; stroke-width: 3px; opacity: 1;"/></g><g class="points"/><g class="text"/></g><g class="trace scatter trace884cad" style="stroke-miterlimit: 2;"><g class="fills"><g><path class="js-fill" d="M-193.33,286.45L-187.92,282.78L-187.53,282.27L-179.41,266.42L-179.02,265.49L-156.58,218.03L-156.19,217.47L-143.04,202.86L-142.65,202.61L-134.53,200.72L-134.14,200.78L-124.47,205L-124.09,205.24L-105.52,215.28L-105.13,215.3L-86.95,216.02L-86.56,216.24L-77.28,223.93L-76.89,224.3L-51.36,248.24L-50.97,248.38L-45.17,248.73L-44.78,248.67L-33.56,247.62L-33.17,247.73L-27.76,250.46L-27.37,250.72L-18.47,255.72L-18.09,255.79L-14.22,255.48L-13.83,255.35L-9.57,252.83L-9.19,252.53L9.38,237.58L9.77,237.35L15.96,234.37L16.34,234.27L20.21,234.04L20.6,234.11L24.08,235.61L24.47,235.87L28.34,239.37L28.72,239.8L35.69,248.72L36.07,249.25L52.71,270.29L53.1,270.69L58.13,274.9L58.51,275.14L63.54,277.15L63.93,277.24L76.7,280.17L77.08,280.38L82.11,283.92L82.5,284.26L89.85,292.01L90.24,292.45L98.36,300.96L98.75,301.26L102.61,303.49L103,303.62L106.48,303.93L106.87,303.88L110.35,302.55L110.74,302.32L115.77,298.23L116.15,297.85L126.99,288.33L127.37,288.1L132.79,285.89L133.18,285.79L144.01,282.45L144.4,282.23L150.59,277.8L150.97,277.48L158.32,272.48L158.71,272.32L162.96,271.37L163.35,271.35L176.12,271.26L176.5,271.13L181.15,268.74L181.53,268.47L186.95,263.85L187.34,263.46L194.3,255.26L194.69,254.74L214.42,227.85L214.8,227.44L222.93,219.73L223.31,219.42L230.28,214.83L230.67,214.64L237.24,212.19L237.63,212.08L251.17,207.62L251.56,207.41L257.36,203.43L257.75,203.11L272.45,190.58L272.83,190.4L276.7,189.54L277.09,189.56L280.57,190.51L280.96,190.7L285.21,193.81L285.6,194.17L301.07,208.7L301.46,208.91L305.72,210.29L306.1,210.33L309.97,209.84L310.36,209.71L314.61,207.23L315,206.92L320.42,201.66L320.8,201.24L330.86,191.18L331.25,190.89L336.28,188.18L336.66,188.06L340.53,187.64L340.92,187.68L344.79,189.02L345.18,189.24L349.43,192.91L349.82,193.35L354.46,199.79L354.85,200.41L372.26,229.23L372.64,229.65L376.51,232.82L376.9,233.03L380.38,233.87L380.77,233.85L383.86,232.9L384.25,232.69L388.12,229.56L388.5,229.17L398.95,218.89L399.34,218.72L402.04,218.33L402.43,218.4L405.14,219.85L405.53,220.19L409.01,224.65L409.39,225.28L415.2,236.56L415.58,237.35L421.39,247.46L421.77,247.94L424.87,250.59L425.26,250.76L427.58,251L427.96,250.91L430.67,249.3L431.06,248.94L434.54,244.52L434.93,243.93L446.92,225.26L447.31,224.88L450.79,222.51L451.18,222.37L454.66,222.04L455.04,222.1L459.69,223.76L460.07,223.95L465.88,225.94L466.26,225.97L469.36,225.38L469.74,225.2L472.84,222.76L473.23,222.34L477.1,216.79L477.48,216.12L491.41,191.84L491.8,191.43L495.66,188.63L496.05,188.47L499.53,187.97L499.92,188L504.18,189.2L504.56,189.37L515.78,195.06L516.17,195.25L529.32,200.7L529.71,200.83L539.38,203.04L539.77,203.09L550.6,203.79L550.99,203.8L562.59,203.08L562.98,203.02L580,200.41L580,86.07L579.61,86.08L579.23,86.1L564.91,91.36L564.53,91.5L557.56,93.28L557.18,93.34L549.05,93.67L548.66,93.65L541.31,92.49L540.93,92.39L530.48,88.3L530.1,88.11L509.59,80.19L509.2,80.06L502.24,77.88L501.85,77.8L497.99,77.71L497.6,77.78L494.12,79.23L493.73,79.49L489.47,83.78L489.09,84.3L480.96,98.51L480.58,99.26L475.16,108.8L474.77,109.37L471.29,113.49L470.91,113.83L467.42,115.87L467.04,115.99L462.78,116.23L462.39,116.19L456.2,115.47L455.82,115.49L452.34,116.36L451.95,116.55L448.08,119.63L447.69,120.05L436.09,139.28L435.7,139.92L432.22,144.77L431.83,145.18L429.12,147.06L428.74,147.18L426.42,147.08L426.03,146.92L422.93,144.22L422.55,143.71L411.33,120.05L410.94,119.22L407.46,112.91L407.07,112.36L404.37,109.58L403.98,109.33L401.66,108.71L401.27,108.74L398.18,110.25L397.79,110.57L390.83,119.18L390.44,119.7L386.18,124.65L385.8,125L382.7,127.01L382.31,127.16L379.22,127.4L378.83,127.31L375.35,125.44L374.96,125.12L370.32,119.61L369.93,119.04L361.42,103.31L361.04,102.51L353.3,87.14L352.91,86.46L348.27,79.34L347.88,78.86L344.02,75.12L343.63,74.86L340.15,73.4L339.76,73.34L336.28,73.63L335.89,73.75L330.86,76.69L330.48,77.01L322.74,85.13L322.35,85.57L315.77,92.65L315.39,93L311.13,96.09L310.75,96.29L306.88,97.52L306.49,97.56L302.62,97.13L302.23,97L297.59,94.34L297.21,94.03L291.02,87.58L290.63,87.12L284.05,79.51L283.67,79.13L279.8,76.23L279.41,76.04L276.31,75.28L275.93,75.28L272.45,76.17L272.06,76.37L256.2,91L255.81,91.35L248.85,96.63L248.46,96.87L237.24,101.89L236.86,102.04L230.28,105.23L229.89,105.48L224.48,109.83L224.09,110.2L215.96,119.66L215.58,120.18L198.17,148.43L197.78,149.08L191.59,158.5L191.21,159.02L185.4,165.62L185.02,165.99L180.37,169.63L179.99,169.87L175.73,171.64L175.34,171.72L169.54,171.72L169.15,171.66L163.35,171.06L162.96,171.08L158.71,172.27L158.32,172.48L149.42,180.01L149.04,180.38L144.01,184.46L143.62,184.71L132.02,188.7L131.63,188.82L126.21,191.42L125.83,191.68L116.93,199.99L116.54,200.39L111.51,205.11L111.13,205.4L107.64,207.31L107.26,207.43L103.78,207.62L103.39,207.54L99.52,205.63L99.13,205.34L87.91,192.72L87.53,192.26L82.11,186.58L81.72,186.25L77.47,183.42L77.08,183.24L66.25,181.42L65.86,181.38L61.22,179.94L60.83,179.72L56.58,176.21L56.19,175.79L42.26,154.27L41.88,153.64L32.98,140.09L32.59,139.55L27.18,133L26.79,132.62L22.92,129.83L22.53,129.66L19.05,128.91L18.67,128.92L14.41,129.97L14.02,130.13L5.51,135.44L5.13,135.73L-3.77,143.6L-4.16,143.99L-10.35,149.72L-10.74,150.01L-14.6,152.01L-14.99,152.1L-18.86,151.92L-19.25,151.79L-27.76,145.67L-28.14,145.34L-33.95,141.53L-34.33,141.38L-44.39,140.48L-44.78,140.48L-51.36,139.29L-51.74,139.12L-61.41,131.9L-61.8,131.53L-81.14,110.92L-81.53,110.46L-89.27,102.94L-89.65,102.69L-103.19,100.74L-103.58,100.73L-122.92,90.04L-123.31,89.82L-132.21,86.81L-132.6,86.78L-141.11,89.25L-141.49,89.51L-155.81,106.24L-156.19,106.82L-179.41,159.64L-179.79,160.61L-187.53,175.98L-187.92,176.48L-193.33,180.05Z" style="fill: rgb(148, 0, 211); fill-opacity: 0.2; stroke-width: 0;"/></g></g><g class="errorbars"/><g class="lines"><path class="js-line" d="M-193.33,180.05L-187.92,176.48L-187.53,175.98L-179.79,160.61L-179.41,159.64L-156.19,106.82L-155.81,106.24L-141.49,89.51L-141.11,89.25L-132.6,86.78L-132.21,86.81L-123.31,89.82L-122.92,90.04L-103.58,100.73L-103.19,100.74L-89.65,102.69L-89.27,102.94L-81.53,110.46L-81.14,110.92L-61.8,131.53L-61.41,131.9L-51.74,139.12L-51.36,139.29L-44.78,140.48L-44.39,140.48L-34.33,141.38L-33.95,141.53L-28.14,145.34L-27.76,145.67L-19.25,151.79L-18.86,151.92L-14.99,152.1L-14.6,152.01L-10.74,150.01L-10.35,149.72L-4.16,143.99L-3.77,143.6L5.13,135.73L5.51,135.44L14.02,130.13L14.41,129.97L18.67,128.92L19.05,128.91L22.53,129.66L22.92,129.83L26.79,132.62L27.18,133L32.59,139.55L32.98,140.09L41.88,153.64L42.26,154.27L56.19,175.79L56.58,176.21L60.83,179.72L61.22,179.94L65.86,181.38L66.25,181.42L77.08,183.24L77.47,183.42L81.72,186.25L82.11,186.58L87.53,192.26L87.91,192.72L99.13,205.34L99.52,205.63L103.39,207.54L103.78,207.62L107.26,207.43L107.64,207.31L111.13,205.4L111.51,205.11L116.54,200.39L116.93,199.99L125.83,191.68L126.21,191.42L131.63,188.82L132.02,188.7L143.62,184.71L144.01,184.46L149.04,180.38L149.42,180.01L158.32,172.48L158.71,172.27L162.96,171.08L163.35,171.06L169.15,171.66L169.54,171.72L175.34,171.72L175.73,171.64L179.99,169.87L180.37,169.63L185.02,165.99L185.4,165.62L191.21,159.02L191.59,158.5L197.78,149.08L198.17,148.43L215.58,120.18L215.96,119.66L224.09,110.2L224.48,109.83L229.89,105.48L230.28,105.23L236.86,102.04L237.24,101.89L248.46,96.87L248.85,96.63L255.81,91.35L256.2,91L272.06,76.37L272.45,76.17L275.93,75.28L276.31,75.28L279.41,76.04L279.8,76.23L283.67,79.13L284.05,79.51L290.63,87.12L291.02,87.58L297.21,94.03L297.59,94.34L302.23,97L302.62,97.13L306.49,97.56L306.88,97.52L310.75,96.29L311.13,96.09L315.39,93L315.77,92.65L322.35,85.57L322.74,85.13L330.48,77.01L330.86,76.69L335.89,73.75L336.28,73.63L339.76,73.34L340.15,73.4L343.63,74.86L344.02,75.12L347.88,78.86L348.27,79.34L352.91,86.46L353.3,87.14L361.04,102.51L361.42,103.31L369.93,119.04L370.32,119.61L374.96,125.12L375.35,125.44L378.83,127.31L379.22,127.4L382.31,127.16L382.7,127.01L385.8,125L386.18,124.65L390.44,119.7L390.83,119.18L397.79,110.57L398.18,110.25L401.27,108.74L401.66,108.71L403.98,109.33L404.37,109.58L407.07,112.36L407.46,112.91L410.94,119.22L411.33,120.05L422.55,143.71L422.93,144.22L426.03,146.92L426.42,147.08L428.74,147.18L429.12,147.06L431.83,145.18L432.22,144.77L435.7,139.92L436.09,139.28L447.69,120.05L448.08,119.63L451.95,116.55L452.34,116.36L455.82,115.49L456.2,115.47L462.39,116.19L462.78,116.23L467.04,115.99L467.42,115.87L470.91,113.83L471.29,113.49L474.77,109.37L475.16,108.8L480.58,99.26L480.96,98.51L489.09,84.3L489.47,83.78L493.73,79.49L494.12,79.23L497.6,77.78L497.99,77.71L501.85,77.8L502.24,77.88L509.2,80.06L509.59,80.19L530.1,88.11L530.48,88.3L540.93,92.39L541.31,92.49L548.66,93.65L549.05,93.67L557.18,93.34L557.56,93.28L564.53,91.5L564.91,91.36L579.23,86.1L579.61,86.08L580,86.07" style="vector-effect: none; fill: none; stroke: rgb(171, 99, 250); stroke-opacity: 1; stroke-width: 0px; opacity: 1;"/></g><g class="points"/><g class="text"/></g><g class="trace scatter trace344689" style="stroke-miterlimit: 2;"><g class="fills"/><g class="errorbars"/><g class="lines"><path class="js-line" d="M-193.33,286.45L-187.92,282.78L-187.53,282.27L-179.41,266.42L-179.02,265.49L-156.58,218.03L-156.19,217.47L-143.04,202.86L-142.65,202.61L-134.53,200.72L-134.14,200.78L-124.47,205L-124.09,205.24L-105.52,215.28L-105.13,215.3L-86.95,216.02L-86.56,216.24L-77.28,223.93L-76.89,224.3L-51.36,248.24L-50.97,248.38L-45.17,248.73L-44.78,248.67L-33.56,247.62L-33.17,247.73L-27.76,250.46L-27.37,250.72L-18.47,255.72L-18.09,255.79L-14.22,255.48L-13.83,255.35L-9.57,252.83L-9.19,252.53L9.38,237.58L9.77,237.35L15.96,234.37L16.34,234.27L20.21,234.04L20.6,234.11L24.08,235.61L24.47,235.87L28.34,239.37L28.72,239.8L35.69,248.72L36.07,249.25L52.71,270.29L53.1,270.69L58.13,274.9L58.51,275.14L63.54,277.15L63.93,277.24L76.7,280.17L77.08,280.38L82.11,283.92L82.5,284.26L89.85,292.01L90.24,292.45L98.36,300.96L98.75,301.26L102.61,303.49L103,303.62L106.48,303.93L106.87,303.88L110.35,302.55L110.74,302.32L115.77,298.23L116.15,297.85L126.99,288.33L127.37,288.1L132.79,285.89L133.18,285.79L144.01,282.45L144.4,282.23L150.59,277.8L150.97,277.48L158.32,272.48L158.71,272.32L162.96,271.37L163.35,271.35L176.12,271.26L176.5,271.13L181.15,268.74L181.53,268.47L186.95,263.85L187.34,263.46L194.3,255.26L194.69,254.74L214.42,227.85L214.8,227.44L222.93,219.73L223.31,219.42L230.28,214.83L230.67,214.64L237.24,212.19L237.63,212.08L251.17,207.62L251.56,207.41L257.36,203.43L257.75,203.11L272.45,190.58L272.83,190.4L276.7,189.54L277.09,189.56L280.57,190.51L280.96,190.7L285.21,193.81L285.6,194.17L301.07,208.7L301.46,208.91L305.72,210.29L306.1,210.33L309.97,209.84L310.36,209.71L314.61,207.23L315,206.92L320.42,201.66L320.8,201.24L330.86,191.18L331.25,190.89L336.28,188.18L336.66,188.06L340.53,187.64L340.92,187.68L344.79,189.02L345.18,189.24L349.43,192.91L349.82,193.35L354.46,199.79L354.85,200.41L372.26,229.23L372.64,229.65L376.51,232.82L376.9,233.03L380.38,233.87L380.77,233.85L383.86,232.9L384.25,232.69L388.12,229.56L388.5,229.17L398.95,218.89L399.34,218.72L402.04,218.33L402.43,218.4L405.14,219.85L405.53,220.19L409.01,224.65L409.39,225.28L415.2,236.56L415.58,237.35L421.39,247.46L421.77,247.94L424.87,250.59L425.26,250.76L427.58,251L427.96,250.91L430.67,249.3L431.06,248.94L434.54,244.52L434.93,243.93L446.92,225.26L447.31,224.88L450.79,222.51L451.18,222.37L454.66,222.04L455.04,222.1L459.69,223.76L460.07,223.95L465.88,225.94L466.26,225.97L469.36,225.38L469.74,225.2L472.84,222.76L473.23,222.34L477.1,216.79L477.48,216.12L491.41,191.84L491.8,191.43L495.66,188.63L496.05,188.47L499.53,187.97L499.92,188L504.18,189.2L504.56,189.37L515.78,195.06L516.17,195.25L529.32,200.7L529.71,200.83L539.38,203.04L539.77,203.09L550.6,203.79L550.99,203.8L562.59,203.08L562.98,203.02L580,200.41" style="vector-effect: none; fill: none; stroke: rgb(255, 161, 90); stroke-opacity: 1; stroke-width: 0px; opacity: 1;"/></g><g class="points"/><g class="text"/></g><g class="trace scatter tracec50b7f" style="stroke-miterlimit: 2; opacity: 1;"><g class="fills"/><g class="errorbars"/><g class="lines"><path class="js-line" d="M-193.33,233.25L-187.92,229.63L-187.53,229.13L-179.41,213.03L-179.02,212.07L-156.19,162.15L-155.81,161.58L-141.88,145.97L-141.49,145.73L-133.37,143.85L-132.98,143.9L-123.7,147.55L-123.31,147.78L-104.36,157.99L-103.97,158.01L-88.88,159.14L-88.49,159.36L-80.37,166.43L-79.98,166.84L-53.68,192.63L-53.29,192.85L-47.1,194.64L-46.71,194.65L-32.79,194.97L-32.4,195.14L-26.21,199.26L-25.82,199.56L-19.25,203.65L-18.86,203.77L-14.99,203.9L-14.6,203.8L-10.74,201.85L-10.35,201.57L-3.39,195.27L-3,194.9L6.67,186.96L7.06,186.69L15.18,182.14L15.57,182.01L19.83,181.47L20.21,181.52L23.7,182.8L24.08,183.04L27.95,186.37L28.34,186.79L34.91,195.27L35.3,195.82L56.19,224.65L56.58,225.02L61.22,228.2L61.61,228.36L66.25,229.53L66.64,229.57L76.31,231.44L76.7,231.62L81.72,234.92L82.11,235.25L87.91,241.26L88.3,241.71L99.13,253.45L99.52,253.73L103.39,255.63L103.78,255.72L107.26,255.62L107.64,255.51L111.51,253.46L111.9,253.17L117.32,248.15L117.7,247.75L125.83,240.38L126.21,240.12L131.63,237.52L132.02,237.4L144.01,233.45L144.4,233.22L150.59,228.34L150.97,228L157.94,222.68L158.32,222.48L162.58,221.25L162.96,221.22L168.38,221.62L168.77,221.68L174.57,221.75L174.96,221.68L179.21,220.11L179.6,219.9L185.02,215.84L185.4,215.48L191.59,208.61L191.98,208.11L198.56,198.52L198.94,197.9L213.64,175.77L214.03,175.29L222.54,165.91L222.93,165.55L229.5,160.48L229.89,160.25L236.86,157.17L237.24,157.04L249.62,152.26L250.01,152.04L255.81,148L256.2,147.68L267.42,136.95L267.8,136.61L272.83,133.2L273.22,133.04L276.7,132.42L277.09,132.45L280.57,133.59L280.96,133.81L285.21,137.26L285.6,137.66L299.91,151.96L300.3,152.2L304.94,153.87L305.33,153.92L309.2,153.51L309.58,153.39L313.45,151.33L313.84,151.05L318.87,146.41L319.26,146L331.64,133.35L332.02,133.08L336.28,130.91L336.66,130.79L340.53,130.56L340.92,130.63L344.4,132.11L344.79,132.36L348.66,135.97L349.04,136.43L353.69,143.21L354.07,143.86L362.58,159.95L362.97,160.7L370.32,173.23L370.71,173.77L375.35,178.76L375.74,179.05L379.22,180.59L379.61,180.65L382.7,180.22L383.09,180.06L386.57,177.64L386.96,177.28L392.76,170.47L393.15,169.99L398.18,164.78L398.56,164.52L401.27,163.51L401.66,163.5L403.98,164.18L404.37,164.42L407.07,167.12L407.46,167.64L411.33,174.4L411.72,175.2L421.77,195.27L422.16,195.78L425.26,198.62L425.64,198.81L427.96,199.11L428.35,199.03L431.06,197.42L431.45,197.05L434.93,192.54L435.31,191.93L447.69,172.29L448.08,171.91L451.95,169.35L452.34,169.22L455.82,168.88L456.2,168.92L462.78,170.69L463.17,170.78L467.42,170.9L467.81,170.8L470.91,169.16L471.29,168.84L474.77,164.88L475.16,164.32L480.19,155.54L480.58,154.79L488.7,140.08L489.09,139.53L493.34,134.9L493.73,134.61L497.6,132.92L497.99,132.86L501.85,133.09L502.24,133.18L508.43,135.53L508.82,135.7L522.36,141.3L522.74,141.46L538.99,147.41L539.38,147.5L548.66,148.7L549.05,148.72L559.11,148.27L559.5,148.21L569.17,145.69L569.55,145.56L578.45,143.32L578.84,143.28L580,143.24" style="vector-effect: none; fill: none; stroke: rgb(148, 0, 211); stroke-opacity: 1; stroke-width: 3px; opacity: 1;"/></g><g class="points"/><g class="text"/></g></g></g></g><g class="zerolinelayer-above"/><path class="xlines-above crisp" d="M79,420.5H661M79,99.5H661" style="fill: none; stroke-width: 1px; stroke: rgb(0, 0, 0); stroke-opacity: 1;"/><path class="ylines-above crisp" d="M79.5,100V420M660.5,100V420" style="fill: none; stroke-width: 1px; stroke: rgb(0, 0, 0); stroke-opacity: 1;"/><g class="overlines-above"/><g class="xaxislayer-above"><path class="xtick ticks crisp" d="M0,421v5" transform="translate(118.67,0)" style="stroke: rgb(68, 68, 68); stroke-opacity: 1; stroke-width: 1px;"/><path class="xtick ticks crisp" d="M0,421v5" transform="translate(196,0)" style="stroke: rgb(68, 68, 68); stroke-opacity: 1; stroke-width: 1px;"/><path class="xtick ticks crisp" d="M0,421v5" transform="translate(273.33000000000004,0)" style="stroke: rgb(68, 68, 68); stroke-opacity: 1; stroke-width: 1px;"/><path class="xtick ticks crisp" d="M0,421v5" transform="translate(350.67,0)" style="stroke: rgb(68, 68, 68); stroke-opacity: 1; stroke-width: 1px;"/><path class="xtick ticks crisp" d="M0,421v5" transform="translate(428,0)" style="stroke: rgb(68, 68, 68); stroke-opacity: 1; stroke-width: 1px;"/><path class="xtick ticks crisp" d="M0,421v5" transform="translate(505.33,0)" style="stroke: rgb(68, 68, 68); stroke-opacity: 1; stroke-width: 1px;"/><path class="xtick ticks crisp" d="M0,421v5" transform="translate(582.6700000000001,0)" style="stroke: rgb(68, 68, 68); stroke-opacity: 1; stroke-width: 1px;"/><path class="xtick ticks crisp" d="M0,421v5" transform="translate(660,0)" style="stroke: rgb(68, 68, 68); stroke-opacity: 1; stroke-width: 1px;"/><g class="xtick"><text text-anchor="middle" x="0" y="440.4" transform="translate(118.67,0)" style="font-family: 'Open Sans', verdana, arial, sans-serif; font-size: 12px; fill: rgb(42, 63, 95); fill-opacity: 1; white-space: pre;">−400</text></g><g class="xtick"><text text-anchor="middle" x="0" y="440.4" style="font-family: 'Open Sans', verdana, arial, sans-serif; font-size: 12px; fill: rgb(42, 63, 95); fill-opacity: 1; white-space: pre;" transform="translate(196,0)">−200</text></g><g class="xtick"><text text-anchor="middle" x="0" y="440.4" style="font-family: 'Open Sans', verdana, arial, sans-serif; font-size: 12px; fill: rgb(42, 63, 95); fill-opacity: 1; white-space: pre;" transform="translate(273.33000000000004,0)">0</text></g><g class="xtick"><text text-anchor="middle" x="0" y="440.4" style="font-family: 'Open Sans', verdana, arial, sans-serif; font-size: 12px; fill: rgb(42, 63, 95); fill-opacity: 1; white-space: pre;" transform="translate(350.67,0)">200</text></g><g class="xtick"><text text-anchor="middle" x="0" y="440.4" style="font-family: 'Open Sans', verdana, arial, sans-serif; font-size: 12px; fill: rgb(42, 63, 95); fill-opacity: 1; white-space: pre;" transform="translate(428,0)">400</text></g><g class="xtick"><text text-anchor="middle" x="0" y="440.4" style="font-family: 'Open Sans', verdana, arial, sans-serif; font-size: 12px; fill: rgb(42, 63, 95); fill-opacity: 1; white-space: pre;" transform="translate(505.33,0)">600</text></g><g class="xtick"><text text-anchor="middle" x="0" y="440.4" style="font-family: 'Open Sans', verdana, arial, sans-serif; font-size: 12px; fill: rgb(42, 63, 95); fill-opacity: 1; white-space: pre;" transform="translate(582.6700000000001,0)">800</text></g><g class="xtick"><text text-anchor="middle" x="0" y="440.4" style="font-family: 'Open Sans', verdana, arial, sans-serif; font-size: 12px; fill: rgb(42, 63, 95); fill-opacity: 1; white-space: pre;" transform="translate(660,0)">1000</text></g></g><g class="yaxislayer-above"><path class="ytick ticks crisp" d="M79,0h-5" transform="translate(0,398)" style="stroke: rgb(68, 68, 68); stroke-opacity: 1; stroke-width: 1px;"/><path class="ytick ticks crisp" d="M79,0h-5" transform="translate(0,361.08)" style="stroke: rgb(68, 68, 68); stroke-opacity: 1; stroke-width: 1px;"/><path class="ytick ticks crisp" d="M79,0h-5" transform="translate(0,324.15999999999997)" style="stroke: rgb(68, 68, 68); stroke-opacity: 1; stroke-width: 1px;"/><path class="ytick ticks crisp" d="M79,0h-5" transform="translate(0,287.24)" style="stroke: rgb(68, 68, 68); stroke-opacity: 1; stroke-width: 1px;"/><path class="ytick ticks crisp" d="M79,0h-5" transform="translate(0,250.32)" style="stroke: rgb(68, 68, 68); stroke-opacity: 1; stroke-width: 1px;"/><path class="ytick ticks crisp" d="M79,0h-5" transform="translate(0,213.4)" style="stroke: rgb(68, 68, 68); stroke-opacity: 1; stroke-width: 1px;"/><path class="ytick ticks crisp" d="M79,0h-5" transform="translate(0,176.48000000000002)" style="stroke: rgb(68, 68, 68); stroke-opacity: 1; stroke-width: 1px;"/><path class="ytick ticks crisp" d="M79,0h-5" transform="translate(0,139.57)" style="stroke: rgb(68, 68, 68); stroke-opacity: 1; stroke-width: 1px;"/><path class="ytick ticks crisp" d="M79,0h-5" transform="translate(0,102.65)" style="stroke: rgb(68, 68, 68); stroke-opacity: 1; stroke-width: 1px;"/><g class="ytick"><text text-anchor="end" x="71.6" y="4.199999999999999" transform="translate(0,398)" style="font-family: 'Open Sans', verdana, arial, sans-serif; font-size: 12px; fill: rgb(42, 63, 95); fill-opacity: 1; white-space: pre;">6.8</text></g><g class="ytick"><text text-anchor="end" x="71.6" y="4.199999999999999" style="font-family: 'Open Sans', verdana, arial, sans-serif; font-size: 12px; fill: rgb(42, 63, 95); fill-opacity: 1; white-space: pre;" transform="translate(0,361.08)">7</text></g><g class="ytick"><text text-anchor="end" x="71.6" y="4.199999999999999" style="font-family: 'Open Sans', verdana, arial, sans-serif; font-size: 12px; fill: rgb(42, 63, 95); fill-opacity: 1; white-space: pre;" transform="translate(0,324.15999999999997)">7.2</text></g><g class="ytick"><text text-anchor="end" x="71.6" y="4.199999999999999" style="font-family: 'Open Sans', verdana, arial, sans-serif; font-size: 12px; fill: rgb(42, 63, 95); fill-opacity: 1; white-space: pre;" transform="translate(0,287.24)">7.4</text></g><g class="ytick"><text text-anchor="end" x="71.6" y="4.199999999999999" style="font-family: 'Open Sans', verdana, arial, sans-serif; font-size: 12px; fill: rgb(42, 63, 95); fill-opacity: 1; white-space: pre;" transform="translate(0,250.32)">7.6</text></g><g class="ytick"><text text-anchor="end" x="71.6" y="4.199999999999999" style="font-family: 'Open Sans', verdana, arial, sans-serif; font-size: 12px; fill: rgb(42, 63, 95); fill-opacity: 1; white-space: pre;" transform="translate(0,213.4)">7.8</text></g><g class="ytick"><text text-anchor="end" x="71.6" y="4.199999999999999" style="font-family: 'Open Sans', verdana, arial, sans-serif; font-size: 12px; fill: rgb(42, 63, 95); fill-opacity: 1; white-space: pre;" transform="translate(0,176.48000000000002)">8</text></g><g class="ytick"><text text-anchor="end" x="71.6" y="4.199999999999999" style="font-family: 'Open Sans', verdana, arial, sans-serif; font-size: 12px; fill: rgb(42, 63, 95); fill-opacity: 1; white-space: pre;" transform="translate(0,139.57)">8.2</text></g><g class="ytick"><text text-anchor="end" x="71.6" y="4.199999999999999" style="font-family: 'Open Sans', verdana, arial, sans-serif; font-size: 12px; fill: rgb(42, 63, 95); fill-opacity: 1; white-space: pre;" transform="translate(0,102.65)">8.4</text></g></g><g class="overaxes-above"/></g></g><g class="polarlayer"/><g class="smithlayer"/><g class="ternarylayer"/><g class="geolayer"/><g class="funnelarealayer"/><g class="pielayer"/><g class="iciclelayer"/><g class="treemaplayer"/><g class="sunburstlayer"/><g class="glimages"/><defs id="topdefs-c5122c"><g class="clips"/><clipPath id="legendc5122c"><rect width="296" height="29" x="1" y="1"/></clipPath></defs><g class="layer-above"><g class="imagelayer"/><g class="shapelayer"><g class="shape-group" data-index="0" clip-path="url(#clipc5122cx)"><path data-index="0" fill-rule="evenodd" d="M273.33000000000004,420L273.33000000000004,100" style="opacity: 1; stroke: rgb(255, 0, 0); stroke-opacity: 1; fill: rgb(0, 0, 0); fill-opacity: 0; stroke-dasharray: 9px, 9px; stroke-width: 2px;"/></g></g></g><g class="infolayer"><g class="legend" pointer-events="all" transform="translate(362,62.599999999999994)"><rect class="bg" shape-rendering="crispEdges" style="stroke: rgb(0, 0, 0); stroke-opacity: 1; fill: rgb(255, 255, 255); fill-opacity: 0.8; stroke-width: 1px;" width="297" height="30" x="0.5" y="0.5"/><g class="scrollbox" transform="" clip-path="url(#legendc5122c)"><g class="groups" transform=""><g class="traces" transform="translate(0,15.5)" style="opacity: 1;"><text class="legendtext" text-anchor="start" x="40" y="4.680000000000001" style="font-family: 'Open Sans', verdana, arial, sans-serif; font-size: 12px; fill: rgb(42, 63, 95); fill-opacity: 1; white-space: pre;">Standard (AAAB)</text><g class="layers" style="opacity: 1;"><g class="legendfill"/><g class="legendlines"><path class="js-line" d="M5,0h30" style="fill: none; stroke: rgb(207, 184, 124); stroke-opacity: 1; stroke-width: 3px;"/></g><g class="legendsymbols"><g class="legendpoints"/></g></g><rect class="legendtoggle" x="0" y="-9.5" width="145.46875" height="19" style="fill: rgb(0, 0, 0); fill-opacity: 0;"/></g></g><g class="groups" transform="translate(147.96875,0)"><g class="traces" transform="translate(0,15.5)" style="opacity: 1;"><text class="legendtext" text-anchor="start" x="40" y="4.680000000000001" style="font-family: 'Open Sans', verdana, arial, sans-serif; font-size: 12px; fill: rgb(42, 63, 95); fill-opacity: 1; white-space: pre;">Omission (AXAB)</text><g class="layers" style="opacity: 1;"><g class="legendfill"/><g class="legendlines"><path class="js-line" d="M5,0h30" style="fill: none; stroke: rgb(148, 0, 211); stroke-opacity: 1; stroke-width: 3px;"/></g><g class="legendsymbols"><g class="legendpoints"/></g></g><rect class="legendtoggle" x="0" y="-9.5" width="145.5546875" height="19" style="fill: rgb(0, 0, 0); fill-opacity: 0;"/></g></g></g><rect class="scrollbar" rx="20" ry="3" width="0" height="0" style="fill: rgb(128, 139, 164); fill-opacity: 1;" x="0" y="0"/></g><g class="g-gtitle"><text class="gtitle" x="350" y="50" text-anchor="middle" dy="0em" style="opacity: 1; font-family: Arial; font-size: 18px; fill: rgb(0, 0, 0); fill-opacity: 1; white-space: pre;"><tspan class="line" dy="0em" x="350" y="50"><tspan style="font-weight:bold">Figure f002: FEF Omission-Local PSTH</tspan></tspan><tspan class="line" dy="1.3em" x="350" y="50">​<tspan style="font-size:70%" dy="-0.6em">n=293 units | Mean ± SEM | 0ms = Omission Onset</tspan><tspan dy="0.42em">​</tspan></tspan></text></g><g class="g-xtitle"><text class="xtitle" x="370" y="467.200390625" text-anchor="middle" style="opacity: 1; font-family: 'Open Sans', verdana, arial, sans-serif; font-size: 14px; fill: rgb(42, 63, 95); fill-opacity: 1; white-space: pre;">Time from Omission (ms)</text></g><g class="g-ytitle"><text class="ytitle" transform="rotate(-90,32.574609375,260)" x="32.574609375" y="260" text-anchor="middle" style="opacity: 1; font-family: 'Open Sans', verdana, arial, sans-serif; font-size: 14px; fill: rgb(42, 63, 95); fill-opacity: 1; white-space: pre;">Firing Rate (Hz)</text></g><g class="annotation" data-index="0" style="opacity: 1;"><g class="annotation-text-g" transform="rotate(0,322.83000000000004,109.5)"><g class="cursor-pointer" transform="translate(273,100)"><rect class="bg" x="0.5" y="0.5" width="98" height="18" style="stroke-width: 1px; stroke: rgb(0, 0, 0); stroke-opacity: 0; fill: rgb(0, 0, 0); fill-opacity: 0;"/><text class="annotation-text" text-anchor="middle" x="49.23828125" y="14" style="font-family: 'Open Sans', verdana, arial, sans-serif; font-size: 12px; fill: rgb(42, 63, 95); fill-opacity: 1; white-space: pre;">Omission Onset</text></g></g></g></g></svg>