<svg class="main-svg" xmlns="http://www.w3.org/2000/svg" xmlns:xlink="http://www.w3.org/1999/xlink" width="700" height="500" style="" viewBox="0 0 700 500"><rect x="0" y="0" width="700" height="500" style="fill: rgb(255, 255, 255); fill-opacity: 1;"/><defs id="defs-e9e0cd"><g class="clips"><clipPath id="clipe9e0cdxyplot" class="plotclip"><rect width="580" height="320"/></clipPath><clipPath class="axesclip" id="clipe9e0cdx"><rect x="80" y="0" width="580" height="500"/></clipPath><clipPath class="axesclip" id="clipe9e0cdy"><rect x="0" y="100" width="700" height="320"/></clipPath><clipPath class="axesclip" id="clipe9e0cdxy"><rect x="80" y="100" width="580" height="320"/></clipPath></g><g class="gradients"/><g class="patterns"/></defs><g class="bglayer"/><g class="layer-below"><g class="imagelayer"/><g class="shapelayer"/></g><g class="cartesianlayer"><g class="subplot xy"><g class="layer-subplot"><g class="shapelayer"/><g class="imagelayer"/></g><g class="minor-gridlayer"><g class="x"/><g class="y"/></g><g class="gridlayer"><g class="x"><path class="xgrid crisp" transform="translate(118.67,0)" d="M0,100v320" style="stroke: rgb(211, 211, 211); stroke-opacity: 1; stroke-width: 1px;"/><path class="xgrid crisp" transform="translate(196,0)" d="M0,100v320" style="stroke: rgb(211, 211, 211); stroke-opacity: 1; stroke-width: 1px;"/><path class="xgrid crisp" transform="translate(350.67,0)" d="M0,100v320" style="stroke: rgb(211, 211, 211); stroke-opacity: 1; stroke-width: 1px;"/><path class="xgrid crisp" transform="translate(428,0)" d="M0,100v320" style="stroke: rgb(211, 211, 211); stroke-opacity: 1; stroke-width: 1px;"/><path class="xgrid crisp" transform="translate(505.33,0)" d="M0,100v320" style="stroke: rgb(211, 211, 211); stroke-opacity: 1; stroke-width: 1px;"/><path class="xgrid crisp" transform="translate(582.6700000000001,0)" d="M0,100v320" style="stroke: rgb(211, 211, 211); stroke-opacity: 1; stroke-width: 1px;"/></g><g class="y"><path class="ygrid crisp" transform="translate(0,354.71000000000004)" d="M80,0h580" style="stroke: rgb(211, 211, 211); stroke-opacity: 1; stroke-width: 1px;"/><path class="ygrid crisp" transform="translate(0,288.71000000000004)" d="M80,0h580" style="stroke: rgb(211, 211, 211); stroke-opacity: 1; stroke-width: 1px;"/><path class="ygrid crisp" transform="translate(0,222.72)" d="M80,0h580" style="stroke: rgb(211, 211, 211); stroke-opacity: 1; stroke-width: 1px;"/><path class="ygrid crisp" transform="translate(0,156.72)" d="M80,0h580" style="stroke: rgb(211, 211, 211); stroke-opacity: 1; stroke-width: 1px;"/></g></g><g class="zerolinelayer"><path class="xzl zl crisp" transform="translate(273.33000000000004,0)" d="M0,100v320" style="stroke: rgb(235, 240, 248); stroke-opacity: 1; stroke-width: 2px;"/></g><g class="layer-between"><g class="shapelayer"/><g class="imagelayer"/></g><path class="xlines-below"/><path class="ylines-below"/><g class="overlines-below"/><g class="xaxislayer-below"/><g class="yaxislayer-below"/><g class="overaxes-below"/><g class="overplot"><g class="xy" transform="translate(80,100)" clip-path="url(#clipe9e0cdxyplot)"><g class="scatterlayer mlayer"><g class="trace scatter trace843250" style="stroke-miterlimit: 2;"><g class="fills"><g><path class="js-fill" d="M-193.33,113.21L-187.14,116.5L-186.76,116.97L-181.34,128.56L-180.95,129.78L-172.44,168.61L-172.06,170.72L-163.16,215.47L-162.77,217.01L-154.65,237.96L-154.26,238.43L-148.46,240.82L-148.07,240.73L-141.11,235.79L-140.72,235.41L-126.41,224.29L-126.02,224.19L-118.28,224.94L-117.9,225.09L-93.14,234.26L-92.75,234.28L-83.08,232.82L-82.69,232.68L-73.79,227.78L-73.41,227.51L-57.93,217.95L-57.55,217.85L-50.58,217.4L-50.2,217.45L-40.14,219.96L-39.75,220.07L-27.37,222.8L-26.98,222.83L-18.86,222.51L-18.47,222.44L-12.67,220.39L-12.28,220.17L-7.64,216.45L-7.25,216.04L-2.22,209.24L-1.84,208.62L7.06,195.16L7.45,194.82L9.77,193.68L10.16,193.66L12.09,194.38L12.48,194.7L14.8,197.87L15.18,198.61L18.28,206.57L18.67,207.79L24.08,228.52L24.47,230.14L32.21,259.41L32.59,260.56L36.85,270.86L37.24,271.59L41.49,277.76L41.88,278.19L47.29,282.95L47.68,283.24L69.34,297.91L69.73,298.13L78.63,302.35L79.02,302.48L85.21,303.85L85.59,303.89L92.17,303.67L92.56,303.61L99.13,301.71L99.52,301.55L108.03,297.28L108.42,297.06L118.48,292.29L118.86,292.17L124.67,290.96L125.05,290.93L131.63,291.12L132.02,291.16L153.68,293.66L154.07,293.63L161.42,292.54L161.8,292.45L177.28,288.12L177.67,287.96L181.92,285.4L182.31,285.06L185.79,280.93L186.18,280.31L189.66,272.92L190.05,271.86L193.91,258.29L194.3,256.61L198.56,234.49L198.94,232.18L211.32,158.09L211.71,156.61L214.42,149.2L214.8,148.59L216.74,147.22L217.13,147.3L218.67,148.71L219.06,149.34L221.38,155.21L221.77,156.51L225.64,173.41L226.02,175.39L237.24,231.23L237.63,232.62L241.5,243.37L241.88,244.13L244.98,248.29L245.37,248.58L247.69,249.4L248.07,249.39L250.78,248.4L251.17,248.14L255.04,244.5L255.42,244.06L265.87,233.07L266.26,232.8L270.51,230.68L270.9,230.57L275.15,230.13L275.54,230.16L280.18,231.17L280.57,231.3L287.15,234.42L287.53,234.64L308.81,246.35L309.2,246.49L316.94,248.61L317.32,248.67L324.29,249.06L324.67,249.04L330.86,247.74L331.25,247.6L338.6,244.37L338.99,244.18L348.66,240.12L349.04,240L370.71,233.8L371.1,233.62L389.28,224.7L389.66,224.42L393.92,220.33L394.31,219.86L399.34,212.2L399.72,211.52L407.46,199.11L407.85,198.73L410.17,197.46L410.56,197.43L412.49,198.16L412.88,198.49L415.2,201.8L415.58,202.57L418.68,210.87L419.07,212.14L424.48,233.53L424.87,235.19L432.61,264.84L432.99,266L437.25,276.2L437.64,276.91L441.5,282.33L441.89,282.73L446.53,286.23L446.92,286.44L453.11,288.99L453.5,289.12L465.49,292.14L465.88,292.22L479.42,294.33L479.8,294.36L493.34,294.67L493.73,294.64L501.85,293.32L502.24,293.22L511.14,290.22L511.53,290.06L523.91,284.37L524.29,284.19L532.03,281.18L532.42,281.09L537.83,280.49L538.22,280.5L545.57,281.62L545.96,281.71L555.63,283.29L556.01,283.3L562.98,282.78L563.37,282.71L580,280.01L580,234.72L579.61,234.73L564.53,237.63L564.14,237.72L557.18,238.64L556.79,238.65L549.44,237.82L549.05,237.73L539.77,235.76L539.38,235.72L534.35,235.83L533.96,235.89L517.33,242.62L516.94,242.79L505.34,246.91L504.95,247.02L495.66,248.9L495.28,248.94L482.12,249.01L481.74,248.98L461.23,246.56L460.85,246.49L451.56,244.36L451.18,244.23L445.37,241.51L444.99,241.25L441.12,237.84L440.73,237.39L436.86,231.31L436.47,230.52L432.61,220.38L432.22,219.14L424.87,188.82L424.48,187.03L419.45,165.22L419.07,163.79L415.97,154.45L415.58,153.57L413.26,149.81L412.88,149.44L410.94,148.58L410.56,148.6L408.23,149.92L407.85,150.31L402.04,159.64L401.66,160.35L396.63,168.9L396.24,169.45L391.99,174.27L391.6,174.6L372.64,183.51L372.26,183.68L351.75,190.33L351.37,190.46L335.89,198.21L335.5,198.42L329.31,201.06L328.93,201.17L323.51,201.99L323.12,202L316.16,201.16L315.77,201.07L308.04,198.42L307.65,198.25L285.99,184.39L285.6,184.14L279.41,180.98L279.02,180.84L274.38,179.94L273.99,179.94L270.13,180.66L269.74,180.81L265.48,183.5L265.1,183.83L255.04,196.01L254.65,196.49L250.78,200.46L250.4,200.73L247.69,201.75L247.3,201.75L244.59,200.49L244.21,200.11L241.11,195.16L240.72,194.29L236.86,182.28L236.47,180.76L230.28,149.97L229.89,147.77L224.09,115.55L223.7,113.68L220.61,101.46L220.22,100.34L218.29,96.43L217.9,96.01L216.35,95.55L215.96,95.76L214.03,98.74L213.64,99.72L210.55,111.79L210.16,113.77L203.59,156.95L203.2,159.71L197.4,197.6L197.01,199.74L193.14,217.75L192.75,219.21L189.27,229.8L188.88,230.71L185.79,236.5L185.4,237.06L181.92,240.8L181.53,241.1L176.5,243.78L176.12,243.92L161.03,248.14L160.64,248.23L152.13,249.41L151.75,249.42L132.4,246.77L132.02,246.7L125.44,246.18L125.05,246.19L118.86,247.2L118.48,247.31L104.55,254.02L104.16,254.22L96.42,257.55L96.04,257.66L89.46,258.83L89.07,258.85L82.11,258.18L81.72,258.08L73.99,255.16L73.6,254.96L50,240.03L49.61,239.77L43.04,234.72L42.65,234.35L38.4,229.02L38.01,228.38L33.75,219.1L33.37,218.02L27.95,198.72L27.56,197.09L19.83,163.55L19.44,162.1L15.96,151.41L15.57,150.53L13.25,146.63L12.86,146.21L10.93,145.11L10.54,145.07L8.22,145.99L7.83,146.31L-0.68,159.21L-1.06,159.85L-5.71,166.48L-6.09,166.93L-10.35,170.78L-10.74,171.04L-16.15,173.34L-16.54,173.42L-23.89,173.79L-24.28,173.75L-38.98,169.81L-39.36,169.67L-49.03,166.88L-49.42,166.83L-56.38,167.14L-56.77,167.24L-74.18,178.81L-74.57,179.09L-83.47,183.98L-83.85,184.1L-93.91,185.18L-94.3,185.14L-118.28,174.21L-118.67,174.03L-126.02,172.87L-126.41,172.96L-135.69,179.25L-136.08,179.65L-146.14,189.66L-146.52,189.9L-151.94,190.52L-152.33,190.32L-158.9,180.17L-159.29,179.13L-171.28,124.12L-171.67,121.87L-180.95,74.47L-181.34,73.05L-187.14,58.55L-187.53,58L-193.33,54.25Z" style="fill: rgb(207, 184, 124); fill-opacity: 0.2; stroke-width: 0;"/></g></g><g class="errorbars"/><g class="lines"><path class="js-line" d="M-193.33,54.25L-187.53,58L-187.14,58.55L-181.34,73.05L-180.95,74.47L-171.67,121.87L-171.28,124.12L-159.29,179.13L-158.9,180.17L-152.33,190.32L-151.94,190.52L-146.52,189.9L-146.14,189.66L-136.08,179.65L-135.69,179.25L-126.41,172.96L-126.02,172.87L-118.67,174.03L-118.28,174.21L-94.3,185.14L-93.91,185.18L-83.85,184.1L-83.47,183.98L-74.57,179.09L-74.18,178.81L-56.77,167.24L-56.38,167.14L-49.42,166.83L-49.03,166.88L-39.36,169.67L-38.98,169.81L-24.28,173.75L-23.89,173.79L-16.54,173.42L-16.15,173.34L-10.74,171.04L-10.35,170.78L-6.09,166.93L-5.71,166.48L-1.06,159.85L-0.68,159.21L7.83,146.31L8.22,145.99L10.54,145.07L10.93,145.11L12.86,146.21L13.25,146.63L15.57,150.53L15.96,151.41L19.44,162.1L19.83,163.55L27.56,197.09L27.95,198.72L33.37,218.02L33.75,219.1L38.01,228.38L38.4,229.02L42.65,234.35L43.04,234.72L49.61,239.77L50,240.03L73.6,254.96L73.99,255.16L81.72,258.08L82.11,258.18L89.07,258.85L89.46,258.83L96.04,257.66L96.42,257.55L104.16,254.22L104.55,254.02L118.48,247.31L118.86,247.2L125.05,246.19L125.44,246.18L132.02,246.7L132.4,246.77L151.75,249.42L152.13,249.41L160.64,248.23L161.03,248.14L176.12,243.92L176.5,243.78L181.53,241.1L181.92,240.8L185.4,237.06L185.79,236.5L188.88,230.71L189.27,229.8L192.75,219.21L193.14,217.75L197.01,199.74L197.4,197.6L203.2,159.71L203.59,156.95L210.16,113.77L210.55,111.79L213.64,99.72L214.03,98.74L215.96,95.76L216.35,95.55L217.9,96.01L218.29,96.43L220.22,100.34L220.61,101.46L223.7,113.68L224.09,115.55L229.89,147.77L230.28,149.97L236.47,180.76L236.86,182.28L240.72,194.29L241.11,195.16L244.21,200.11L244.59,200.49L247.3,201.75L247.69,201.75L250.4,200.73L250.78,200.46L254.65,196.49L255.04,196.01L265.1,183.83L265.48,183.5L269.74,180.81L270.13,180.66L273.99,179.94L274.38,179.94L279.02,180.84L279.41,180.98L285.6,184.14L285.99,184.39L307.65,198.25L308.04,198.42L315.77,201.07L316.16,201.16L323.12,202L323.51,201.99L328.93,201.17L329.31,201.06L335.5,198.42L335.89,198.21L351.37,190.46L351.75,190.33L372.26,183.68L372.64,183.51L391.6,174.6L391.99,174.27L396.24,169.45L396.63,168.9L401.66,160.35L402.04,159.64L407.85,150.31L408.23,149.92L410.56,148.6L410.94,148.58L412.88,149.44L413.26,149.81L415.58,153.57L415.97,154.45L419.07,163.79L419.45,165.22L424.48,187.03L424.87,188.82L432.22,219.14L432.61,220.38L436.47,230.52L436.86,231.31L440.73,237.39L441.12,237.84L444.99,241.25L445.37,241.51L451.18,244.23L451.56,244.36L460.85,246.49L461.23,246.56L481.74,248.98L482.12,249.01L495.28,248.94L495.66,248.9L504.95,247.02L505.34,246.91L516.94,242.79L517.33,242.62L533.96,235.89L534.35,235.83L539.38,235.72L539.77,235.76L549.05,237.73L549.44,237.82L556.79,238.65L557.18,238.64L564.14,237.72L564.53,237.63L579.61,234.73L580,234.72" style="vector-effect: none; fill: none; stroke: rgb(99, 110, 250); stroke-opacity: 1; stroke-width: 0px; opacity: 1;"/></g><g class="points"/><g class="text"/></g><g class="trace scatter trace389b40" style="stroke-miterlimit: 2;"><g class="fills"/><g class="errorbars"/><g class="lines"><path class="js-line" d="M-193.33,113.21L-187.14,116.5L-186.76,116.97L-181.34,128.56L-180.95,129.78L-172.44,168.61L-172.06,170.72L-163.16,215.47L-162.77,217.01L-154.65,237.96L-154.26,238.43L-148.46,240.82L-148.07,240.73L-141.11,235.79L-140.72,235.41L-126.41,224.29L-126.02,224.19L-118.28,224.94L-117.9,225.09L-93.14,234.26L-92.75,234.28L-83.08,232.82L-82.69,232.68L-73.79,227.78L-73.41,227.51L-57.93,217.95L-57.55,217.85L-50.58,217.4L-50.2,217.45L-40.14,219.96L-39.75,220.07L-27.37,222.8L-26.98,222.83L-18.86,222.51L-18.47,222.44L-12.67,220.39L-12.28,220.17L-7.64,216.45L-7.25,216.04L-2.22,209.24L-1.84,208.62L7.06,195.16L7.45,194.82L9.77,193.68L10.16,193.66L12.09,194.38L12.48,194.7L14.8,197.87L15.18,198.61L18.28,206.57L18.67,207.79L24.08,228.52L24.47,230.14L32.21,259.41L32.59,260.56L36.85,270.86L37.24,271.59L41.49,277.76L41.88,278.19L47.29,282.95L47.68,283.24L69.34,297.91L69.73,298.13L78.63,302.35L79.02,302.48L85.21,303.85L85.59,303.89L92.17,303.67L92.56,303.61L99.13,301.71L99.52,301.55L108.03,297.28L108.42,297.06L118.48,292.29L118.86,292.17L124.67,290.96L125.05,290.93L131.63,291.12L132.02,291.16L153.68,293.66L154.07,293.63L161.42,292.54L161.8,292.45L177.28,288.12L177.67,287.96L181.92,285.4L182.31,285.06L185.79,280.93L186.18,280.31L189.66,272.92L190.05,271.86L193.91,258.29L194.3,256.61L198.56,234.49L198.94,232.18L211.32,158.09L211.71,156.61L214.42,149.2L214.8,148.59L216.74,147.22L217.13,147.3L218.67,148.71L219.06,149.34L221.38,155.21L221.77,156.51L225.64,173.41L226.02,175.39L237.24,231.23L237.63,232.62L241.5,243.37L241.88,244.13L244.98,248.29L245.37,248.58L247.69,249.4L248.07,249.39L250.78,248.4L251.17,248.14L255.04,244.5L255.42,244.06L265.87,233.07L266.26,232.8L270.51,230.68L270.9,230.57L275.15,230.13L275.54,230.16L280.18,231.17L280.57,231.3L287.15,234.42L287.53,234.64L308.81,246.35L309.2,246.49L316.94,248.61L317.32,248.67L324.29,249.06L324.67,249.04L330.86,247.74L331.25,247.6L338.6,244.37L338.99,244.18L348.66,240.12L349.04,240L370.71,233.8L371.1,233.62L389.28,224.7L389.66,224.42L393.92,220.33L394.31,219.86L399.34,212.2L399.72,211.52L407.46,199.11L407.85,198.73L410.17,197.46L410.56,197.43L412.49,198.16L412.88,198.49L415.2,201.8L415.58,202.57L418.68,210.87L419.07,212.14L424.48,233.53L424.87,235.19L432.61,264.84L432.99,266L437.25,276.2L437.64,276.91L441.5,282.33L441.89,282.73L446.53,286.23L446.92,286.44L453.11,288.99L453.5,289.12L465.49,292.14L465.88,292.22L479.42,294.33L479.8,294.36L493.34,294.67L493.73,294.64L501.85,293.32L502.24,293.22L511.14,290.22L511.53,290.06L523.91,284.37L524.29,284.19L532.03,281.18L532.42,281.09L537.83,280.49L538.22,280.5L545.57,281.62L545.96,281.71L555.63,283.29L556.01,283.3L562.98,282.78L563.37,282.71L580,280.01" style="vector-effect: none; fill: none; stroke: rgb(239, 85, 59); stroke-opacity: 1; stroke-width: 0px; opacity: 1;"/></g><g class="points"/><g class="text"/></g><g class="trace scatter tracec4d69a" style="stroke-miterlimit: 2; opacity: 1;"><g class="fills"/><g class="errorbars"/><g class="lines"><path class="js-line" d="M-193.33,83.73L-187.53,87.03L-187.14,87.52L-181.34,100.8L-180.95,102.13L-172.06,145.17L-171.67,147.35L-163.55,189.09L-163.16,190.69L-158.9,204.95L-158.52,205.94L-151.55,215.61L-151.17,215.75L-145.75,214.53L-145.36,214.26L-124.09,198.31L-123.7,198.31L-115.96,200.68L-115.57,200.89L-96.23,209.43L-95.84,209.48L-85.79,209.12L-85.4,209.03L-76.5,205.02L-76.11,204.77L-56.77,192.45L-56.38,192.36L-49.42,192.19L-49.03,192.25L-37.04,195.69L-36.65,195.81L-25.44,198.27L-25.05,198.3L-17.7,197.96L-17.31,197.88L-11.51,195.6L-11.12,195.36L-6.48,191.27L-6.09,190.82L-0.68,182.96L-0.29,182.31L7.45,170.75L7.83,170.42L10.16,169.38L10.54,169.38L12.48,170.28L12.86,170.65L15.18,174.16L15.57,174.97L18.67,183.56L19.05,184.88L24.08,205.08L24.47,206.77L32.21,236.97L32.59,238.15L36.85,248.58L37.24,249.31L41.1,255.01L41.49,255.45L46.52,259.97L46.91,260.26L60.45,269.66L60.83,269.92L73.6,277.58L73.99,277.77L80.95,280.47L81.34,280.57L87.53,281.43L87.91,281.43L94.1,280.73L94.49,280.64L100.68,278.49L101.07,278.31L111.51,272.82L111.9,272.62L119.64,269.46L120.02,269.35L126.6,268.51L126.99,268.51L135.11,269.45L135.5,269.52L150.59,271.57L150.97,271.57L158.71,270.86L159.1,270.79L174.18,266.88L174.57,266.76L180.37,264.22L180.76,263.96L184.24,260.79L184.63,260.32L187.72,255.33L188.11,254.53L191.59,245.17L191.98,243.87L195.85,227.56L196.23,225.6L200.88,197.99L201.26,195.41L210.94,134.78L211.32,133.1L214.42,123.55L214.8,122.87L216.74,121.35L217.13,121.41L218.67,122.85L219.06,123.49L221.38,129.6L221.77,130.96L225.64,148.48L226.02,150.53L237.24,207.49L237.63,208.88L241.5,219.67L241.88,220.43L244.98,224.55L245.37,224.83L247.69,225.58L248.07,225.55L250.78,224.43L251.17,224.15L255.04,220.25L255.42,219.79L265.87,208.12L266.26,207.83L270.51,205.6L270.9,205.49L275.15,205.06L275.54,205.09L280.18,206.22L280.57,206.37L287.53,210.02L287.92,210.26L308.04,222.24L308.42,222.4L317.32,225.04L317.71,225.11L323.9,225.53L324.29,225.51L330.48,224.27L330.86,224.14L338.21,220.73L338.6,220.53L349.43,215.52L349.82,215.39L359.49,212.92L359.88,212.83L369.93,209.43L370.32,209.26L390.05,199.95L390.44,199.66L394.69,195.41L395.08,194.92L399.72,187.7L400.11,187.01L407.85,174.52L408.23,174.16L410.56,173.02L410.94,173.02L412.88,173.96L413.26,174.35L415.58,178.07L415.97,178.93L419.07,187.97L419.45,189.34L424.87,212L425.26,213.73L431.83,240.13L432.22,241.39L436.47,252.6L436.86,253.39L440.73,259.42L441.12,259.87L444.99,263.27L445.37,263.52L451.18,266.28L451.56,266.41L461.23,268.88L461.62,268.95L477.1,271.36L477.48,271.4L490.25,272L490.64,271.99L499.92,271.01L500.31,270.93L511.14,267.63L511.53,267.48L522.36,262.71L522.74,262.53L532.03,258.75L532.42,258.65L537.83,258.06L538.22,258.07L545.18,259.17L545.57,259.26L556.01,260.97L556.4,260.98L563.37,260.3L563.75,260.22L580,257.36" style="vector-effect: none; fill: none; stroke: rgb(207, 184, 124); stroke-opacity: 1; stroke-width: 3px; opacity: 1;"/></g><g class="points"/><g class="text"/></g><g class="trace scatter traceecbcb3" style="stroke-miterlimit: 2;"><g class="fills"><g><path class="js-fill" d="M-193.33,81.96L-187.53,85.49L-187.14,86.01L-181.34,100.06L-180.95,101.45L-172.06,147.2L-171.67,149.56L-162.38,201.76L-162,203.5L-154.65,226.89L-154.26,227.6L-148.46,232.24L-148.07,232.19L-143.04,228.31L-142.65,227.81L-122.54,199.94L-122.15,199.81L-115.19,200.1L-114.8,200.2L-102.03,201.76L-101.65,201.72L-90.82,202.37L-90.43,202.5L-73.41,208.32L-73.02,208.24L-66.83,205.28L-66.44,205.02L-53.29,197.19L-52.9,197.11L-46.33,197.26L-45.94,197.33L-35.49,198.03L-35.11,197.94L-29.3,195.2L-28.92,194.94L-12.28,184.23L-11.9,184.06L-4.93,180.33L-4.55,180.04L0.87,175.13L1.26,174.75L5.9,171.07L6.29,170.9L8.61,170.69L8.99,170.81L11.32,172.58L11.7,173.07L14.02,177.23L14.41,178.13L17.51,187.34L17.89,188.73L22.92,209.85L23.31,211.61L31.43,245.02L31.82,246.25L36.07,256.94L36.46,257.66L40.33,262.92L40.72,263.28L44.59,265.8L44.97,265.97L52.32,268.18L52.71,268.27L63.15,269.93L63.54,269.93L69.73,269.2L70.12,269.12L84.43,266.44L84.82,266.44L91.4,267.19L91.78,267.27L101.84,270.61L102.23,270.75L109.19,272.56L109.58,272.61L115.38,272.54L115.77,272.49L125.44,270.21L125.83,270.1L137.43,265.99L137.82,265.84L145.56,263.6L145.94,263.55L151.36,263.66L151.75,263.71L164.13,265.1L164.51,265.06L171.09,263.34L171.48,263.21L179.99,260.87L180.37,260.83L185.79,260.96L186.18,261.01L202.04,263.23L202.42,263.21L209.39,261.98L209.77,261.88L220.61,258.07L220.99,257.92L227.96,256.16L228.34,256.14L232.6,256.75L232.99,256.89L236.86,259.13L237.24,259.43L242.66,264.84L243.04,265.29L252.72,275.2L253.1,275.47L257.75,277.75L258.13,277.86L263.55,278.48L263.94,278.48L273.99,277.5L274.38,277.43L281.73,275.2L282.12,275.03L294.11,270.21L294.5,270.17L298.75,270.51L299.14,270.62L304.17,272.87L304.56,273.09L313.45,277.43L313.84,277.53L318.87,277.83L319.26,277.78L332.8,276.14L333.18,276.21L338.21,277.91L338.6,278.09L351.37,283.55L351.75,283.61L356.78,283.55L357.17,283.49L363.75,281.59L364.13,281.45L375.35,278.17L375.74,278.11L393.92,275.11L394.31,274.96L402.82,270.8L403.2,270.6L410.17,267.85L410.56,267.77L415.58,267.38L415.97,267.4L431.06,268.31L431.45,268.25L447.31,265.85L447.69,265.9L453.11,267.45L453.5,267.62L460.46,271.72L460.85,271.99L471.29,278.26L471.68,278.43L479.03,280.86L479.42,280.95L487.15,282.04L487.54,282.05L492.96,281.48L493.34,281.37L497.99,279.38L498.37,279.14L503.01,275.51L503.4,275.14L509.98,267.92L510.37,267.46L518.88,258.3L519.26,257.97L524.29,254.9L524.68,254.77L528.55,254.33L528.93,254.38L532.8,255.73L533.19,255.95L537.83,259.45L538.22,259.79L549.44,269.14L549.82,269.35L554.47,270.9L554.85,270.95L559.88,270.86L560.27,270.8L580,267.91L580,216.44L577.29,216.6L576.91,216.64L566.07,219.25L565.69,219.36L558.34,221.05L557.95,221.1L552.92,220.9L552.53,220.81L548.28,219.12L547.89,218.9L540.54,213.02L540.15,212.67L534.35,207.81L533.96,207.56L530.1,205.73L529.71,205.63L526.23,205.48L525.84,205.54L521.58,207.31L521.2,207.56L515.01,213.05L514.62,213.47L504.18,224.94L503.79,225.31L498.76,229.31L498.37,229.55L493.73,231.68L493.34,231.8L487.15,232.7L486.77,232.71L478.26,231.84L477.87,231.76L471.29,229.69L470.91,229.53L459.69,222.69L459.3,222.43L453.11,218.77L452.72,218.59L447.31,217L446.92,216.95L430.67,219.41L430.29,219.47L417.52,219.07L417.13,219.05L411.72,219.33L411.33,219.4L397.4,225.65L397.02,225.83L391.21,227.91L390.83,228L382.31,228.75L381.93,228.75L374.19,229.21L373.8,229.27L362.2,233.08L361.81,233.23L356.01,234.86L355.62,234.92L350.98,234.86L350.59,234.79L337.05,228.6L336.66,228.42L332.02,226.89L331.64,226.82L320.03,227.9L319.64,227.96L314.61,227.88L314.23,227.8L303.78,222.86L303.4,222.65L298.37,220.69L297.98,220.62L293.72,220.7L293.34,220.78L286.76,223.6L286.37,223.82L279.02,227.44L278.64,227.58L272.06,229.11L271.67,229.16L262.77,229.67L262.39,229.66L257.36,228.85L256.97,228.73L252.33,226.23L251.94,225.93L242.66,216.17L242.27,215.72L236.86,210.36L236.47,210.06L232.6,207.92L232.21,207.79L228.34,207.26L227.96,207.27L221.38,208.79L220.99,208.93L211.32,212.18L210.94,212.29L203.2,213.61L202.81,213.63L187.72,211.88L187.34,211.82L181.15,211.57L180.76,211.61L169.93,214.79L169.54,214.93L163.35,216.46L162.96,216.49L154.45,215.69L154.07,215.61L147.1,214.88L146.72,214.9L125.83,221.14L125.44,221.25L116.93,223.28L116.54,223.33L110.74,223.33L110.35,223.28L101.84,220.51L101.45,220.34L93.72,217.37L93.33,217.26L87.14,216.4L86.75,216.41L69.34,220.76L68.96,220.86L62.38,221.72L61.99,221.72L53.1,220.57L52.71,220.49L45.36,218.46L44.97,218.29L41.1,215.84L40.72,215.49L37.24,211L36.85,210.33L32.98,201.25L32.59,200.09L27.56,180.91L27.18,179.16L19.44,142.51L19.05,140.86L15.57,128.36L15.18,127.26L12.48,121.42L12.09,120.85L10.16,118.91L9.77,118.69L7.45,118.46L7.06,118.57L2.03,122.33L1.64,122.7L-3.39,127.15L-3.77,127.43L-13.06,131.5L-13.44,131.64L-30.47,142.86L-30.85,143.1L-36.27,145.39L-36.65,145.46L-44.39,145.14L-44.78,145.08L-51.74,144.69L-52.13,144.75L-67.22,154.03L-67.6,154.29L-73.41,156.68L-73.79,156.72L-88.11,151.09L-88.49,150.9L-97.39,148.84L-97.78,148.85L-117.9,145.94L-118.28,145.88L-124.47,147.2L-124.86,147.45L-137.63,166.46L-138.01,167.17L-144.98,177.73L-145.36,178.09L-150.01,179.54L-150.39,179.38L-156.97,168.83L-157.36,167.72L-173.22,82.77L-173.6,80.27L-182.11,35.07L-182.5,33.65L-187.92,20.02L-188.3,19.46L-193.33,16Z" style="fill: rgb(148, 0, 211); fill-opacity: 0.2; stroke-width: 0;"/></g></g><g class="errorbars"/><g class="lines"><path class="js-line" d="M-193.33,16L-188.3,19.46L-187.92,20.02L-182.5,33.65L-182.11,35.07L-173.6,80.27L-173.22,82.77L-157.36,167.72L-156.97,168.83L-150.39,179.38L-150.01,179.54L-145.36,178.09L-144.98,177.73L-138.01,167.17L-137.63,166.46L-124.86,147.45L-124.47,147.2L-118.28,145.88L-117.9,145.94L-97.78,148.85L-97.39,148.84L-88.49,150.9L-88.11,151.09L-73.79,156.72L-73.41,156.68L-67.6,154.29L-67.22,154.03L-52.13,144.75L-51.74,144.69L-44.78,145.08L-44.39,145.14L-36.65,145.46L-36.27,145.39L-30.85,143.1L-30.47,142.86L-13.44,131.64L-13.06,131.5L-3.77,127.43L-3.39,127.15L1.64,122.7L2.03,122.33L7.06,118.57L7.45,118.46L9.77,118.69L10.16,118.91L12.09,120.85L12.48,121.42L15.18,127.26L15.57,128.36L19.05,140.86L19.44,142.51L27.18,179.16L27.56,180.91L32.59,200.09L32.98,201.25L36.85,210.33L37.24,211L40.72,215.49L41.1,215.84L44.97,218.29L45.36,218.46L52.71,220.49L53.1,220.57L61.99,221.72L62.38,221.72L68.96,220.86L69.34,220.76L86.75,216.41L87.14,216.4L93.33,217.26L93.72,217.37L101.45,220.34L101.84,220.51L110.35,223.28L110.74,223.33L116.54,223.33L116.93,223.28L125.44,221.25L125.83,221.14L146.72,214.9L147.1,214.88L154.07,215.61L154.45,215.69L162.96,216.49L163.35,216.46L169.54,214.93L169.93,214.79L180.76,211.61L181.15,211.57L187.34,211.82L187.72,211.88L202.81,213.63L203.2,213.61L210.94,212.29L211.32,212.18L220.99,208.93L221.38,208.79L227.96,207.27L228.34,207.26L232.21,207.79L232.6,207.92L236.47,210.06L236.86,210.36L242.27,215.72L242.66,216.17L251.94,225.93L252.33,226.23L256.97,228.73L257.36,228.85L262.39,229.66L262.77,229.67L271.67,229.16L272.06,229.11L278.64,227.58L279.02,227.44L286.37,223.82L286.76,223.6L293.34,220.78L293.72,220.7L297.98,220.62L298.37,220.69L303.4,222.65L303.78,222.86L314.23,227.8L314.61,227.88L319.64,227.96L320.03,227.9L331.64,226.82L332.02,226.89L336.66,228.42L337.05,228.6L350.59,234.79L350.98,234.86L355.62,234.92L356.01,234.86L361.81,233.23L362.2,233.08L373.8,229.27L374.19,229.21L381.93,228.75L382.31,228.75L390.83,228L391.21,227.91L397.02,225.83L397.4,225.65L411.33,219.4L411.72,219.33L417.13,219.05L417.52,219.07L430.29,219.47L430.67,219.41L446.92,216.95L447.31,217L452.72,218.59L453.11,218.77L459.3,222.43L459.69,222.69L470.91,229.53L471.29,229.69L477.87,231.76L478.26,231.84L486.77,232.71L487.15,232.7L493.34,231.8L493.73,231.68L498.37,229.55L498.76,229.31L503.79,225.31L504.18,224.94L514.62,213.47L515.01,213.05L521.2,207.56L521.58,207.31L525.84,205.54L526.23,205.48L529.71,205.63L530.1,205.73L533.96,207.56L534.35,207.81L540.15,212.67L540.54,213.02L547.89,218.9L548.28,219.12L552.53,220.81L552.92,220.9L557.95,221.1L558.34,221.05L565.69,219.36L566.07,219.25L576.91,216.64L577.29,216.6L580,216.44" style="vector-effect: none; fill: none; stroke: rgb(171, 99, 250); stroke-opacity: 1; stroke-width: 0px; opacity: 1;"/></g><g class="points"/><g class="text"/></g><g class="trace scatter trace074f4f" style="stroke-miterlimit: 2;"><g class="fills"/><g class="errorbars"/><g class="lines"><path class="js-line" d="M-193.33,81.96L-187.53,85.49L-187.14,86.01L-181.34,100.06L-180.95,101.45L-172.06,147.2L-171.67,149.56L-162.38,201.76L-162,203.5L-154.65,226.89L-154.26,227.6L-148.46,232.24L-148.07,232.19L-143.04,228.31L-142.65,227.81L-122.54,199.94L-122.15,199.81L-115.19,200.1L-114.8,200.2L-102.03,201.76L-101.65,201.72L-90.82,202.37L-90.43,202.5L-73.41,208.32L-73.02,208.24L-66.83,205.28L-66.44,205.02L-53.29,197.19L-52.9,197.11L-46.33,197.26L-45.94,197.33L-35.49,198.03L-35.11,197.94L-29.3,195.2L-28.92,194.94L-12.28,184.23L-11.9,184.06L-4.93,180.33L-4.55,180.04L0.87,175.13L1.26,174.75L5.9,171.07L6.29,170.9L8.61,170.69L8.99,170.81L11.32,172.58L11.7,173.07L14.02,177.23L14.41,178.13L17.51,187.34L17.89,188.73L22.92,209.85L23.31,211.61L31.43,245.02L31.82,246.25L36.07,256.94L36.46,257.66L40.33,262.92L40.72,263.28L44.59,265.8L44.97,265.97L52.32,268.18L52.71,268.27L63.15,269.93L63.54,269.93L69.73,269.2L70.12,269.12L84.43,266.44L84.82,266.44L91.4,267.19L91.78,267.27L101.84,270.61L102.23,270.75L109.19,272.56L109.58,272.61L115.38,272.54L115.77,272.49L125.44,270.21L125.83,270.1L137.43,265.99L137.82,265.84L145.56,263.6L145.94,263.55L151.36,263.66L151.75,263.71L164.13,265.1L164.51,265.06L171.09,263.34L171.48,263.21L179.99,260.87L180.37,260.83L185.79,260.96L186.18,261.01L202.04,263.23L202.42,263.21L209.39,261.98L209.77,261.88L220.61,258.07L220.99,257.92L227.96,256.16L228.34,256.14L232.6,256.75L232.99,256.89L236.86,259.13L237.24,259.43L242.66,264.84L243.04,265.29L252.72,275.2L253.1,275.47L257.75,277.75L258.13,277.86L263.55,278.48L263.94,278.48L273.99,277.5L274.38,277.43L281.73,275.2L282.12,275.03L294.11,270.21L294.5,270.17L298.75,270.51L299.14,270.62L304.17,272.87L304.56,273.09L313.45,277.43L313.84,277.53L318.87,277.83L319.26,277.78L332.8,276.14L333.18,276.21L338.21,277.91L338.6,278.09L351.37,283.55L351.75,283.61L356.78,283.55L357.17,283.49L363.75,281.59L364.13,281.45L375.35,278.17L375.74,278.11L393.92,275.11L394.31,274.96L402.82,270.8L403.2,270.6L410.17,267.85L410.56,267.77L415.58,267.38L415.97,267.4L431.06,268.31L431.45,268.25L447.31,265.85L447.69,265.9L453.11,267.45L453.5,267.62L460.46,271.72L460.85,271.99L471.29,278.26L471.68,278.43L479.03,280.86L479.42,280.95L487.15,282.04L487.54,282.05L492.96,281.48L493.34,281.37L497.99,279.38L498.37,279.14L503.01,275.51L503.4,275.14L509.98,267.92L510.37,267.46L518.88,258.3L519.26,257.97L524.29,254.9L524.68,254.77L528.55,254.33L528.93,254.38L532.8,255.73L533.19,255.95L537.83,259.45L538.22,259.79L549.44,269.14L549.82,269.35L554.47,270.9L554.85,270.95L559.88,270.86L560.27,270.8L580,267.91" style="vector-effect: none; fill: none; stroke: rgb(255, 161, 90); stroke-opacity: 1; stroke-width: 0px; opacity: 1;"/></g><g class="points"/><g class="text"/></g><g class="trace scatter trace92ce98" style="stroke-miterlimit: 2; opacity: 1;"><g class="fills"/><g class="errorbars"/><g class="lines"><path class="js-line" d="M-193.33,48.98L-187.92,52.52L-187.53,53.06L-181.73,67.64L-181.34,69.08L-172.83,113.9L-172.44,116.33L-160.45,183.39L-160.06,184.92L-152.33,204.1L-151.94,204.51L-146.91,205.5L-146.52,205.29L-140.72,198.46L-140.33,197.83L-124.09,173.81L-123.7,173.6L-117.12,172.88L-116.74,172.96L-100.1,175.25L-99.71,175.23L-90.43,176.29L-90.04,176.43L-73.41,182.5L-73.02,182.43L-66.83,179.53L-66.44,179.26L-53.29,171.09L-52.9,171.01L-46.71,170.99L-46.33,171.05L-35.49,171.61L-35.11,171.51L-29.69,168.9L-29.3,168.64L-13.83,158.34L-13.44,158.19L-3.77,153.43L-3.39,153.14L7.45,144.54L7.83,144.49L10.16,145.18L10.54,145.48L12.86,148.47L13.25,149.18L15.96,155.91L16.34,157.11L20.21,171.9L20.6,173.61L32.21,223.16L32.59,224.34L36.46,233.64L36.85,234.33L40.33,239.02L40.72,239.39L44.59,241.96L44.97,242.13L51.94,244.2L52.32,244.29L61.99,245.81L62.38,245.82L68.96,245.11L69.34,245.02L85.98,241.44L86.37,241.45L92.17,242.17L92.56,242.27L99.52,244.63L99.91,244.79L109.58,247.87L109.96,247.93L115.77,247.95L116.15,247.9L123.89,246.18L124.28,246.07L137.05,241.7L137.43,241.56L145.17,239.34L145.56,239.29L151.36,239.4L151.75,239.46L163.74,240.78L164.13,240.73L169.93,239.27L170.32,239.13L179.99,236.29L180.37,236.24L186.18,236.34L186.56,236.39L202.42,238.43L202.81,238.4L210.16,237.13L210.55,237.02L219.45,233.99L219.83,233.85L227.57,231.75L227.96,231.72L232.21,232.21L232.6,232.33L236.86,234.74L237.24,235.05L242.27,240.06L242.66,240.5L251.56,249.96L251.94,250.27L256.58,252.97L256.97,253.11L262,254.04L262.39,254.06L271.29,253.55L271.67,253.5L279.02,251.84L279.41,251.7L287.53,247.81L287.92,247.61L294.11,245.42L294.5,245.37L298.75,245.65L299.14,245.75L303.78,247.76L304.17,247.97L313.84,252.62L314.23,252.71L319.26,252.89L319.64,252.84L332.41,251.52L332.8,251.6L337.83,253.36L338.21,253.54L350.59,259.1L350.98,259.17L356.01,259.26L356.39,259.2L362.2,257.61L362.58,257.47L374.19,253.79L374.58,253.73L381.93,253.1L382.31,253.08L391.6,251.86L391.99,251.75L399.34,248.65L399.72,248.45L410.56,243.67L410.94,243.59L416.36,243.22L416.75,243.24L430.67,243.89L431.06,243.83L446.53,241.35L446.92,241.38L452.34,242.78L452.72,242.94L458.91,246.43L459.3,246.69L471.68,254.14L472.07,254.31L479.8,256.58L480.19,256.66L487.93,257.37L488.31,257.35L493.73,256.47L494.12,256.35L499.15,253.85L499.53,253.59L504.95,248.89L505.34,248.49L520.81,232.3L521.2,232.04L525.45,230.09L525.84,230L529.71,230.08L530.1,230.18L533.96,231.99L534.35,232.25L539.38,236.41L539.77,236.77L547.89,243.56L548.28,243.79L552.92,245.73L553.31,245.82L558.34,246.04L558.72,246L566.85,244.22L567.23,244.12L577.29,242.29L577.68,242.26L580,242.18" style="vector-effect: none; fill: none; stroke: rgb(148, 0, 211); stroke-opacity: 1; stroke-width: 3px; opacity: 1;"/></g><g class="points"/><g class="text"/></g></g></g></g><g class="zerolinelayer-above"/><path class="xlines-above crisp" d="M79,420.5H661M79,99.5H661" style="fill: none; stroke-width: 1px; stroke: rgb(0, 0, 0); stroke-opacity: 1;"/><path class="ylines-above crisp" d="M79.5,100V420M660.5,100V420" style="fill: none; stroke-width: 1px; stroke: rgb(0, 0, 0); stroke-opacity: 1;"/><g class="overlines-above"/><g class="xaxislayer-above"><path class="xtick ticks crisp" d="M0,421v5" transform="translate(118.67,0)" style="stroke: rgb(68, 68, 68); stroke-opacity: 1; stroke-width: 1px;"/><path class="xtick ticks crisp" d="M0,421v5" transform="translate(196,0)" style="stroke: rgb(68, 68, 68); stroke-opacity: 1; stroke-width: 1px;"/><path class="xtick ticks crisp" d="M0,421v5" transform="translate(273.33000000000004,0)" style="stroke: rgb(68, 68, 68); stroke-opacity: 1; stroke-width: 1px;"/><path class="xtick ticks crisp" d="M0,421v5" transform="translate(350.67,0)" style="stroke: rgb(68, 68, 68); stroke-opacity: 1; stroke-width: 1px;"/><path class="xtick ticks crisp" d="M0,421v5" transform="translate(428,0)" style="stroke: rgb(68, 68, 68); stroke-opacity: 1; stroke-width: 1px;"/><path class="xtick ticks crisp" d="M0,421v5" transform="translate(505.33,0)" style="stroke: rgb(68, 68, 68); stroke-opacity: 1; stroke-width: 1px;"/><path class="xtick ticks crisp" d="M0,421v5" transform="translate(582.6700000000001,0)" style="stroke: rgb(68, 68, 68); stroke-opacity: 1; stroke-width: 1px;"/><path class="xtick ticks crisp" d="M0,421v5" transform="translate(660,0)" style="stroke: rgb(68, 68, 68); stroke-opacity: 1; stroke-width: 1px;"/><g class="xtick"><text text-anchor="middle" x="0" y="440.4" transform="translate(118.67,0)" style="font-family: 'Open Sans', verdana, arial, sans-serif; font-size: 12px; fill: rgb(42, 63, 95); fill-opacity: 1; white-space: pre;">−400</text></g><g class="xtick"><text text-anchor="middle" x="0" y="440.4" style="font-family: 'Open Sans', verdana, arial, sans-serif; font-size: 12px; fill: rgb(42, 63, 95); fill-opacity: 1; white-space: pre;" transform="translate(196,0)">−200</text></g><g class="xtick"><text text-anchor="middle" x="0" y="440.4" style="font-family: 'Open Sans', verdana, arial, sans-serif; font-size: 12px; fill: rgb(42, 63, 95); fill-opacity: 1; white-space: pre;" transform="translate(273.33000000000004,0)">0</text></g><g class="xtick"><text text-anchor="middle" x="0" y="440.4" style="font-family: 'Open Sans', verdana, arial, sans-serif; font-size: 12px; fill: rgb(42, 63, 95); fill-opacity: 1; white-space: pre;" transform="translate(350.67,0)">200</text></g><g class="xtick"><text text-anchor="middle" x="0" y="440.4" style="font-family: 'Open Sans', verdana, arial, sans-serif; font-size: 12px; fill: rgb(42, 63, 95); fill-opacity: 1; white-space: pre;" transform="translate(428,0)">400</text></g><g class="xtick"><text text-anchor="middle" x="0" y="440.4" style="font-family: 'Open Sans', verdana, arial, sans-serif; font-size: 12px; fill: rgb(42, 63, 95); fill-opacity: 1; white-space: pre;" transform="translate(505.33,0)">600</text></g><g class="xtick"><text text-anchor="middle" x="0" y="440.4" style="font-family: 'Open Sans', verdana, arial, sans-serif; font-size: 12px; fill: rgb(42, 63, 95); fill-opacity: 1; white-space: pre;" transform="translate(582.6700000000001,0)">800</text></g><g class="xtick"><text text-anchor="middle" x="0" y="440.4" style="font-family: 'Open Sans', verdana, arial, sans-serif; font-size: 12px; fill: rgb(42, 63, 95); fill-opacity: 1; white-space: pre;" transform="translate(660,0)">1000</text></g></g><g class="yaxislayer-above"><path class="ytick ticks crisp" d="M79,0h-5" transform="translate(0,354.71000000000004)" style="stroke: rgb(68, 68, 68); stroke-opacity: 1; stroke-width: 1px;"/><path class="ytick ticks crisp" d="M79,0h-5" transform="translate(0,288.71000000000004)" style="stroke: rgb(68, 68, 68); stroke-opacity: 1; stroke-width: 1px;"/><path class="ytick ticks crisp" d="M79,0h-5" transform="translate(0,222.72)" style="stroke: rgb(68, 68, 68); stroke-opacity: 1; stroke-width: 1px;"/><path class="ytick ticks crisp" d="M79,0h-5" transform="translate(0,156.72)" style="stroke: rgb(68, 68, 68); stroke-opacity: 1; stroke-width: 1px;"/><g class="ytick"><text text-anchor="end" x="71.6" y="4.199999999999999" transform="translate(0,354.71000000000004)" style="font-family: 'Open Sans', verdana, arial, sans-serif; font-size: 12px; fill: rgb(42, 63, 95); fill-opacity: 1; white-space: pre;">6</text></g><g class="ytick"><text text-anchor="end" x="71.6" y="4.199999999999999" style="font-family: 'Open Sans', verdana, arial, sans-serif; font-size: 12px; fill: rgb(42, 63, 95); fill-opacity: 1; white-space: pre;" transform="translate(0,288.71000000000004)">6.5</text></g><g class="ytick"><text text-anchor="end" x="71.6" y="4.199999999999999" style="font-family: 'Open Sans', verdana, arial, sans-serif; font-size: 12px; fill: rgb(42, 63, 95); fill-opacity: 1; white-space: pre;" transform="translate(0,222.72)">7</text></g><g class="ytick"><text text-anchor="end" x="71.6" y="4.199999999999999" style="font-family: 'Open Sans', verdana, arial, sans-serif; font-size: 12px; fill: rgb(42, 63, 95); fill-opacity: 1; white-space: pre;" transform="translate(0,156.72)">7.5</text></g></g><g class="overaxes-above"/></g></g><g class="polarlayer"/><g class="smithlayer"/><g class="ternarylayer"/><g class="geolayer"/><g class="funnelarealayer"/><g class="pielayer"/><g class="iciclelayer"/><g class="treemaplayer"/><g class="sunburstlayer"/><g class="glimages"/><defs id="topdefs-e9e0cd"><g class="clips"/><clipPath id="legende9e0cd"><rect width="296" height="29" x="1" y="1"/></clipPath></defs><g class="layer-above"><g class="imagelayer"/><g class="shapelayer"><g class="shape-group" data-index="0" clip-path="url(#clipe9e0cdx)"><path data-index="0" fill-rule="evenodd" d="M273.33000000000004,420L273.33000000000004,100" style="opacity: 1; stroke: rgb(255, 0, 0); stroke-opacity: 1; fill: rgb(0, 0, 0); fill-opacity: 0; stroke-dasharray: 9px, 9px; stroke-width: 2px;"/></g></g></g><g class="infolayer"><g class="legend" pointer-events="all" transform="translate(362,62.599999999999994)"><rect class="bg" shape-rendering="crispEdges" style="stroke: rgb(0, 0, 0); stroke-opacity: 1; fill: rgb(255, 255, 255); fill-opacity: 0.8; stroke-width: 1px;" width="297" height="30" x="0.5" y="0.5"/><g class="scrollbox" transform="" clip-path="url(#legende9e0cd)"><g class="groups" transform=""><g class="traces" transform="translate(0,15.5)" style="opacity: 1;"><text class="legendtext" text-anchor="start" x="40" y="4.680000000000001" style="font-family: 'Open Sans', verdana, arial, sans-serif; font-size: 12px; fill: rgb(42, 63, 95); fill-opacity: 1; white-space: pre;">Standard (AAAB)</text><g class="layers" style="opacity: 1;"><g class="legendfill"/><g class="legendlines"><path class="js-line" d="M5,0h30" style="fill: none; stroke: rgb(207, 184, 124); stroke-opacity: 1; stroke-width: 3px;"/></g><g class="legendsymbols"><g class="legendpoints"/></g></g><rect class="legendtoggle" x="0" y="-9.5" width="145.46875" height="19" style="fill: rgb(0, 0, 0); fill-opacity: 0;"/></g></g><g class="groups" transform="translate(147.96875,0)"><g class="traces" transform="translate(0,15.5)" style="opacity: 1;"><text class="legendtext" text-anchor="start" x="40" y="4.680000000000001" style="font-family: 'Open Sans', verdana, arial, sans-serif; font-size: 12px; fill: rgb(42, 63, 95); fill-opacity: 1; white-space: pre;">Omission (AXAB)</text><g class="layers" style="opacity: 1;"><g class="legendfill"/><g class="legendlines"><path class="js-line" d="M5,0h30" style="fill: none; stroke: rgb(148, 0, 211); stroke-opacity: 1; stroke-width: 3px;"/></g><g class="legendsymbols"><g class="legendpoints"/></g></g><rect class="legendtoggle" x="0" y="-9.5" width="145.5546875" height="19" style="fill: rgb(0, 0, 0); fill-opacity: 0;"/></g></g></g><rect class="scrollbar" rx="20" ry="3" width="0" height="0" style="fill: rgb(128, 139, 164); fill-opacity: 1;" x="0" y="0"/></g><g class="g-gtitle"><text class="gtitle" x="350" y="50" text-anchor="middle" dy="0em" style="opacity: 1; font-family: Arial; font-size: 18px; fill: rgb(0, 0, 0); fill-opacity: 1; white-space: pre;"><tspan class="line" dy="0em" x="350" y="50"><tspan style="font-weight:bold">Figure f002: MT Omission-Local PSTH</tspan></tspan><tspan class="line" dy="1.3em" x="350" y="50">​<tspan style="font-size:70%" dy="-0.6em">n=660 units | Mean ± SEM | 0ms = Omission Onset</tspan><tspan dy="0.42em">​</tspan></tspan></text></g><g class="g-xtitle"><text class="xtitle" x="370" y="467.200390625" text-anchor="middle" style="opacity: 1; font-family: 'Open Sans', verdana, arial, sans-serif; font-size: 14px; fill: rgb(42, 63, 95); fill-opacity: 1; white-space: pre;">Time from Omission (ms)</text></g><g class="g-ytitle"><text class="ytitle" transform="rotate(-90,32.574609375,260)" x="32.574609375" y="260" text-anchor="middle" style="opacity: 1; font-family: 'Open Sans', verdana, arial, sans-serif; font-size: 14px; fill: rgb(42, 63, 95); fill-opacity: 1; white-space: pre;">Firing Rate (Hz)</text></g><g class="annotation" data-index="0" style="opacity: 1;"><g class="annotation-text-g" transform="rotate(0,322.83000000000004,109.5)"><g class="cursor-pointer" transform="translate(273,100)"><rect class="bg" x="0.5" y="0.5" width="98" height="18" style="stroke-width: 1px; stroke: rgb(0, 0, 0); stroke-opacity: 0; fill: rgb(0, 0, 0); fill-opacity: 0;"/><text class="annotation-text" text-anchor="middle" x="49.23828125" y="14" style="font-family: 'Open Sans', verdana, arial, sans-serif; font-size: 12px; fill: rgb(42, 63, 95); fill-opacity: 1; white-space: pre;">Omission Onset</text></g></g></g></g></svg>