<svg class="main-svg" xmlns="http://www.w3.org/2000/svg" xmlns:xlink="http://www.w3.org/1999/xlink" width="700" height="500" style="" viewBox="0 0 700 500"><rect x="0" y="0" width="700" height="500" style="fill: rgb(255, 255, 255); fill-opacity: 1;"/><defs id="defs-3fd6cd"><g class="clips"><clipPath id="clip3fd6cdxyplot" class="plotclip"><rect width="580" height="320"/></clipPath><clipPath class="axesclip" id="clip3fd6cdx"><rect x="80" y="0" width="580" height="500"/></clipPath><clipPath class="axesclip" id="clip3fd6cdy"><rect x="0" y="100" width="700" height="320"/></clipPath><clipPath class="axesclip" id="clip3fd6cdxy"><rect x="80" y="100" width="580" height="320"/></clipPath></g><g class="gradients"/><g class="patterns"/></defs><g class="bglayer"/><g class="layer-below"><g class="imagelayer"/><g class="shapelayer"/></g><g class="cartesianlayer"><g class="subplot xy"><g class="layer-subplot"><g class="shapelayer"/><g class="imagelayer"/></g><g class="minor-gridlayer"><g class="x"/><g class="y"/></g><g class="gridlayer"><g class="x"><path class="xgrid crisp" transform="translate(118.67,0)" d="M0,100v320" style="stroke: rgb(211, 211, 211); stroke-opacity: 1; stroke-width: 1px;"/><path class="xgrid crisp" transform="translate(196,0)" d="M0,100v320" style="stroke: rgb(211, 211, 211); stroke-opacity: 1; stroke-width: 1px;"/><path class="xgrid crisp" transform="translate(350.67,0)" d="M0,100v320" style="stroke: rgb(211, 211, 211); stroke-opacity: 1; stroke-width: 1px;"/><path class="xgrid crisp" transform="translate(428,0)" d="M0,100v320" style="stroke: rgb(211, 211, 211); stroke-opacity: 1; stroke-width: 1px;"/><path class="xgrid crisp" transform="translate(505.33,0)" d="M0,100v320" style="stroke: rgb(211, 211, 211); stroke-opacity: 1; stroke-width: 1px;"/><path class="xgrid crisp" transform="translate(582.6700000000001,0)" d="M0,100v320" style="stroke: rgb(211, 211, 211); stroke-opacity: 1; stroke-width: 1px;"/></g><g class="y"><path class="ygrid crisp" transform="translate(0,390.69)" d="M80,0h580" style="stroke: rgb(211, 211, 211); stroke-opacity: 1; stroke-width: 1px;"/><path class="ygrid crisp" transform="translate(0,348.37)" d="M80,0h580" style="stroke: rgb(211, 211, 211); stroke-opacity: 1; stroke-width: 1px;"/><path class="ygrid crisp" transform="translate(0,306.05)" d="M80,0h580" style="stroke: rgb(211, 211, 211); stroke-opacity: 1; stroke-width: 1px;"/><path class="ygrid crisp" transform="translate(0,263.73)" d="M80,0h580" style="stroke: rgb(211, 211, 211); stroke-opacity: 1; stroke-width: 1px;"/><path class="ygrid crisp" transform="translate(0,221.41)" d="M80,0h580" style="stroke: rgb(211, 211, 211); stroke-opacity: 1; stroke-width: 1px;"/><path class="ygrid crisp" transform="translate(0,179.1)" d="M80,0h580" style="stroke: rgb(211, 211, 211); stroke-opacity: 1; stroke-width: 1px;"/><path class="ygrid crisp" transform="translate(0,136.78)" d="M80,0h580" style="stroke: rgb(211, 211, 211); stroke-opacity: 1; stroke-width: 1px;"/></g></g><g class="zerolinelayer"><path class="xzl zl crisp" transform="translate(273.33000000000004,0)" d="M0,100v320" style="stroke: rgb(235, 240, 248); stroke-opacity: 1; stroke-width: 2px;"/></g><g class="layer-between"><g class="shapelayer"/><g class="imagelayer"/></g><path class="xlines-below"/><path class="ylines-below"/><g class="overlines-below"/><g class="xaxislayer-below"/><g class="yaxislayer-below"/><g class="overaxes-below"/><g class="overplot"><g class="xy" transform="translate(80,100)" clip-path="url(#clip3fd6cdxyplot)"><g class="scatterlayer mlayer"><g class="trace scatter trace9bd018" style="stroke-miterlimit: 2;"><g class="fills"><g><path class="js-fill" d="M-193.33,141.14L-187.92,144.66L-187.53,145.16L-180.95,159.08L-180.57,160.2L-172.06,191.31L-171.67,192.92L-156.97,251.98L-156.58,253.25L-147.3,274.7L-146.91,275.19L-140.33,278.94L-139.95,278.94L-132.98,275.79L-132.6,275.48L-124.47,265.33L-124.09,264.66L-115.96,246.02L-115.57,244.93L-85.01,157.55L-84.63,156.79L-74.95,141.9L-74.57,141.47L-66.44,134.94L-66.06,134.73L-56.77,131.61L-56.38,131.55L-46.71,131.33L-46.33,131.37L-36.65,133.5L-36.27,133.65L-29.69,137.18L-29.3,137.47L-23.5,143.28L-23.11,143.78L-16.93,153.51L-16.54,154.22L-8.41,170.99L-8.03,171.84L8.22,205.21L8.61,205.89L14.02,214.33L14.41,214.81L17.89,217.99L18.28,218.2L20.99,218.6L21.37,218.5L23.7,216.95L24.08,216.53L26.79,212.27L27.18,211.47L31.05,201.06L31.43,199.8L36.85,179.35L37.24,177.76L46.91,140.52L47.29,139.29L52.32,126.07L52.71,125.28L56.58,119.12L56.97,118.68L60.45,116.1L60.83,115.96L63.93,115.81L64.32,115.91L67.8,117.78L68.18,118.09L72.44,122.51L72.83,122.98L81.72,135.62L82.11,136.2L113.83,182.49L114.22,182.91L119.25,187.27L119.64,187.51L123.89,189.31L124.28,189.4L128.53,189.46L128.92,189.39L133.18,187.82L133.56,187.61L138.59,183.8L138.98,183.43L144.78,176.82L145.17,176.32L160.26,157.47L160.64,157.1L166.83,152.3L167.22,152.06L174.18,148.75L174.57,148.61L182.31,146.8L182.69,146.75L191.59,146.56L191.98,146.57L202.04,147.5L202.42,147.61L206.29,149.73L206.68,150.06L209.77,153.78L210.16,154.39L213.64,161.62L214.03,162.63L217.9,174.87L218.29,176.31L224.09,201.44L224.48,203.29L235.69,254.75L236.08,256.21L241.11,271.74L241.5,272.65L244.98,278.94L245.37,279.42L248.07,281.71L248.46,281.88L251.17,282.16L251.56,282.08L254.65,280.56L255.04,280.29L261.61,274.38L262,274.02L275.93,260.67L276.31,260.13L280.57,252.74L280.96,251.93L286.37,238.17L286.76,237.03L293.72,214.01L294.11,212.64L307.26,168.8L307.65,167.74L313.07,155.39L313.45,154.69L317.71,148.7L318.1,148.31L321.96,145.59L322.35,145.43L326.22,144.75L326.61,144.76L331.64,145.62L332.02,145.73L347.5,149.35L347.88,149.42L357.17,151.54L357.56,151.67L363.75,154.7L364.13,154.95L369.93,159.61L370.32,159.98L377.29,167.8L377.67,168.29L394.69,188.95L395.08,189.31L403.2,195.46L403.59,195.73L412.88,203.02L413.26,203.35L419.07,207.55L419.45,207.71L422.55,208.07L422.93,207.97L425.64,206.28L426.03,205.89L428.74,201.96L429.12,201.23L432.61,193L432.99,191.91L438.41,174.13L438.8,172.74L449.24,137.07L449.63,135.97L454.66,123.99L455.04,123.25L459.3,117.01L459.69,116.6L463.17,114.09L463.56,113.92L467.04,113.42L467.42,113.46L471.29,114.75L471.68,114.97L475.93,118.11L476.32,118.47L481.35,124.08L481.74,124.58L489.09,135.81L489.47,136.47L500.69,154.1L501.08,154.55L505.72,158.58L506.11,158.8L509.98,160.06L510.37,160.1L515.78,159.78L516.17,159.72L523.91,159.2L524.29,159.24L533.19,160.67L533.58,160.71L538.61,160.57L538.99,160.49L544.41,158.63L544.8,158.45L560.27,151.38L560.66,151.27L568.39,150.01L568.78,149.98L580,149.79L580,56.25L579.23,56.27L578.84,56.28L571.88,57.39L571.49,57.5L562.59,60.81L562.2,60.99L550.6,67.87L550.21,68.13L542.86,72.5L542.47,72.67L537.45,74.04L537.06,74.07L525.45,72.2L525.07,72.12L515.78,71.71L515.39,71.72L510.37,71.29L509.98,71.19L506.11,69.26L505.72,68.97L501.08,63.98L500.69,63.44L491.41,46.95L491.02,46.19L483.67,32.58L483.28,31.94L477.1,23.14L476.71,22.69L472.07,18.28L471.68,18.01L468.2,16.29L467.81,16.19L464.72,16.17L464.33,16.28L461.23,18.06L460.85,18.41L456.98,23.63L456.59,24.34L451.95,35.37L451.56,36.5L436.47,96.72L436.09,98.29L431.83,113.56L431.45,114.73L428.35,122.38L427.96,123.12L425.26,126.87L424.87,127.21L422.55,128.24L422.16,128.26L419.45,127.36L419.07,127.1L413.26,120.89L412.88,120.39L396.24,101.22L395.85,100.79L378.45,77.7L378.06,77.16L370.71,67.82L370.32,67.38L364.13,61.4L363.75,61.1L358.33,57.71L357.94,57.53L352.14,55.73L351.75,55.66L327.38,54.92L326.99,54.93L322.74,55.66L322.35,55.8L318.48,58.25L318.1,58.61L314.23,63.54L313.84,64.18L308.81,74.79L308.42,75.79L291.4,132.76L291.02,134.09L285.21,152.36L284.83,153.43L279.8,165.3L279.41,166.05L275.15,172.72L274.77,173.2L268.19,179.61L267.8,179.94L257.36,190.76L256.97,191.19L253.1,194.86L252.72,195.13L250.01,196.15L249.62,196.16L246.91,195.09L246.53,194.76L243.43,190.43L243.04,189.68L238.79,178.3L238.4,177.01L223.31,109.2L222.93,107.42L217.13,83.58L216.74,82.24L212.87,70.93L212.48,70.02L209,63.45L208.61,62.89L205.13,59.21L204.75,58.93L200.49,56.93L200.1,56.83L192.75,55.91L192.37,55.89L184.63,56.39L184.24,56.46L176.5,58.87L176.12,59.03L167.99,63.41L167.61,63.67L161.03,69.19L160.64,69.59L145.17,91.03L144.78,91.59L138.98,99.04L138.59,99.45L133.95,103.52L133.56,103.77L129.69,105.62L129.31,105.74L125.05,106.05L124.67,105.99L120.8,104.6L120.41,104.38L115.77,100.47L115.38,100.05L108.8,90.79L108.42,90.14L79.02,36.03L78.63,35.32L72.44,24.69L72.05,24.1L68.18,19.2L67.8,18.82L64.7,16.69L64.32,16.56L61.61,16.48L61.22,16.6L58.13,18.92L57.74,19.39L53.87,26.19L53.48,27.09L48.84,40.98L48.45,42.38L36.85,95.71L36.46,97.59L31.43,119.92L31.05,121.39L27.56,132.52L27.18,133.5L24.47,138.78L24.08,139.31L21.76,141.34L21.37,141.5L19.05,141.42L18.67,141.24L15.57,138.5L15.18,138.01L9.77,128.62L9.38,127.82L-9.96,79.79L-10.35,78.8L-18.09,60.38L-18.47,59.56L-24.28,48.98L-24.66,48.4L-30.08,41.79L-30.47,41.43L-36.27,37.44L-36.65,37.26L-44.01,35.36L-44.39,35.33L-52.9,36.23L-53.29,36.34L-62.57,40.62L-62.96,40.86L-71.47,47.91L-71.86,48.32L-81.53,62.15L-81.92,62.86L-93.52,89.18L-93.91,90.22L-107.84,133.14L-108.22,134.41L-118.67,165.11L-119.06,166.02L-126.79,179.95L-127.18,180.44L-134.92,187.13L-135.3,187.31L-141.49,188.02L-141.88,187.89L-148.84,180.36L-149.23,179.62L-164.71,127.38L-165.09,125.78L-179.79,70.39L-180.18,69.23L-187.53,52.57L-187.92,52.02L-193.33,48.1Z" style="fill: rgb(207, 184, 124); fill-opacity: 0.2; stroke-width: 0;"/></g></g><g class="errorbars"/><g class="lines"><path class="js-line" d="M-193.33,48.1L-187.92,52.02L-187.53,52.57L-180.18,69.23L-179.79,70.39L-165.09,125.78L-164.71,127.38L-149.23,179.62L-148.84,180.36L-141.88,187.89L-141.49,188.02L-135.3,187.31L-134.92,187.13L-127.18,180.44L-126.79,179.95L-119.06,166.02L-118.67,165.11L-108.22,134.41L-107.84,133.14L-93.91,90.22L-93.52,89.18L-81.92,62.86L-81.53,62.15L-71.86,48.32L-71.47,47.91L-62.96,40.86L-62.57,40.62L-53.29,36.34L-52.9,36.23L-44.39,35.33L-44.01,35.36L-36.65,37.26L-36.27,37.44L-30.47,41.43L-30.08,41.79L-24.66,48.4L-24.28,48.98L-18.47,59.56L-18.09,60.38L-10.35,78.8L-9.96,79.79L9.38,127.82L9.77,128.62L15.18,138.01L15.57,138.5L18.67,141.24L19.05,141.42L21.37,141.5L21.76,141.34L24.08,139.31L24.47,138.78L27.18,133.5L27.56,132.52L31.05,121.39L31.43,119.92L36.46,97.59L36.85,95.71L48.45,42.38L48.84,40.98L53.48,27.09L53.87,26.19L57.74,19.39L58.13,18.92L61.22,16.6L61.61,16.48L64.32,16.56L64.7,16.69L67.8,18.82L68.18,19.2L72.05,24.1L72.44,24.69L78.63,35.32L79.02,36.03L108.42,90.14L108.8,90.79L115.38,100.05L115.77,100.47L120.41,104.38L120.8,104.6L124.67,105.99L125.05,106.05L129.31,105.74L129.69,105.62L133.56,103.77L133.95,103.52L138.59,99.45L138.98,99.04L144.78,91.59L145.17,91.03L160.64,69.59L161.03,69.19L167.61,63.67L167.99,63.41L176.12,59.03L176.5,58.87L184.24,56.46L184.63,56.39L192.37,55.89L192.75,55.91L200.1,56.83L200.49,56.93L204.75,58.93L205.13,59.21L208.61,62.89L209,63.45L212.48,70.02L212.87,70.93L216.74,82.24L217.13,83.58L222.93,107.42L223.31,109.2L238.4,177.01L238.79,178.3L243.04,189.68L243.43,190.43L246.53,194.76L246.91,195.09L249.62,196.16L250.01,196.15L252.72,195.13L253.1,194.86L256.97,191.19L257.36,190.76L267.8,179.94L268.19,179.61L274.77,173.2L275.15,172.72L279.41,166.05L279.8,165.3L284.83,153.43L285.21,152.36L291.02,134.09L291.4,132.76L308.42,75.79L308.81,74.79L313.84,64.18L314.23,63.54L318.1,58.61L318.48,58.25L322.35,55.8L322.74,55.66L326.99,54.93L327.38,54.92L351.75,55.66L352.14,55.73L357.94,57.53L358.33,57.71L363.75,61.1L364.13,61.4L370.32,67.38L370.71,67.82L378.06,77.16L378.45,77.7L395.85,100.79L396.24,101.22L412.88,120.39L413.26,120.89L419.07,127.1L419.45,127.36L422.16,128.26L422.55,128.24L424.87,127.21L425.26,126.87L427.96,123.12L428.35,122.38L431.45,114.73L431.83,113.56L436.09,98.29L436.47,96.72L451.56,36.5L451.95,35.37L456.59,24.34L456.98,23.63L460.85,18.41L461.23,18.06L464.33,16.28L464.72,16.17L467.81,16.19L468.2,16.29L471.68,18.01L472.07,18.28L476.71,22.69L477.1,23.14L483.28,31.94L483.67,32.58L491.02,46.19L491.41,46.95L500.69,63.44L501.08,63.98L505.72,68.97L506.11,69.26L509.98,71.19L510.37,71.29L515.39,71.72L515.78,71.71L525.07,72.12L525.45,72.2L537.06,74.07L537.45,74.04L542.47,72.67L542.86,72.5L550.21,68.13L550.6,67.87L562.2,60.99L562.59,60.81L571.49,57.5L571.88,57.39L578.84,56.28L579.23,56.27L580,56.25" style="vector-effect: none; fill: none; stroke: rgb(99, 110, 250); stroke-opacity: 1; stroke-width: 0px; opacity: 1;"/></g><g class="points"/><g class="text"/></g><g class="trace scatter traced77de9" style="stroke-miterlimit: 2;"><g class="fills"/><g class="errorbars"/><g class="lines"><path class="js-line" d="M-193.33,141.14L-187.92,144.66L-187.53,145.16L-180.95,159.08L-180.57,160.2L-172.06,191.31L-171.67,192.92L-156.97,251.98L-156.58,253.25L-147.3,274.7L-146.91,275.19L-140.33,278.94L-139.95,278.94L-132.98,275.79L-132.6,275.48L-124.47,265.33L-124.09,264.66L-115.96,246.02L-115.57,244.93L-85.01,157.55L-84.63,156.79L-74.95,141.9L-74.57,141.47L-66.44,134.94L-66.06,134.73L-56.77,131.61L-56.38,131.55L-46.71,131.33L-46.33,131.37L-36.65,133.5L-36.27,133.65L-29.69,137.18L-29.3,137.47L-23.5,143.28L-23.11,143.78L-16.93,153.51L-16.54,154.22L-8.41,170.99L-8.03,171.84L8.22,205.21L8.61,205.89L14.02,214.33L14.41,214.81L17.89,217.99L18.28,218.2L20.99,218.6L21.37,218.5L23.7,216.95L24.08,216.53L26.79,212.27L27.18,211.47L31.05,201.06L31.43,199.8L36.85,179.35L37.24,177.76L46.91,140.52L47.29,139.29L52.32,126.07L52.71,125.28L56.58,119.12L56.97,118.68L60.45,116.1L60.83,115.96L63.93,115.81L64.32,115.91L67.8,117.78L68.18,118.09L72.44,122.51L72.83,122.98L81.72,135.62L82.11,136.2L113.83,182.49L114.22,182.91L119.25,187.27L119.64,187.51L123.89,189.31L124.28,189.4L128.53,189.46L128.92,189.39L133.18,187.82L133.56,187.61L138.59,183.8L138.98,183.43L144.78,176.82L145.17,176.32L160.26,157.47L160.64,157.1L166.83,152.3L167.22,152.06L174.18,148.75L174.57,148.61L182.31,146.8L182.69,146.75L191.59,146.56L191.98,146.57L202.04,147.5L202.42,147.61L206.29,149.73L206.68,150.06L209.77,153.78L210.16,154.39L213.64,161.62L214.03,162.63L217.9,174.87L218.29,176.31L224.09,201.44L224.48,203.29L235.69,254.75L236.08,256.21L241.11,271.74L241.5,272.65L244.98,278.94L245.37,279.42L248.07,281.71L248.46,281.88L251.17,282.16L251.56,282.08L254.65,280.56L255.04,280.29L261.61,274.38L262,274.02L275.93,260.67L276.31,260.13L280.57,252.74L280.96,251.93L286.37,238.17L286.76,237.03L293.72,214.01L294.11,212.64L307.26,168.8L307.65,167.74L313.07,155.39L313.45,154.69L317.71,148.7L318.1,148.31L321.96,145.59L322.35,145.43L326.22,144.75L326.61,144.76L331.64,145.62L332.02,145.73L347.5,149.35L347.88,149.42L357.17,151.54L357.56,151.67L363.75,154.7L364.13,154.95L369.93,159.61L370.32,159.98L377.29,167.8L377.67,168.29L394.69,188.95L395.08,189.31L403.2,195.46L403.59,195.73L412.88,203.02L413.26,203.35L419.07,207.55L419.45,207.71L422.55,208.07L422.93,207.97L425.64,206.28L426.03,205.89L428.74,201.96L429.12,201.23L432.61,193L432.99,191.91L438.41,174.13L438.8,172.74L449.24,137.07L449.63,135.97L454.66,123.99L455.04,123.25L459.3,117.01L459.69,116.6L463.17,114.09L463.56,113.92L467.04,113.42L467.42,113.46L471.29,114.75L471.68,114.97L475.93,118.11L476.32,118.47L481.35,124.08L481.74,124.58L489.09,135.81L489.47,136.47L500.69,154.1L501.08,154.55L505.72,158.58L506.11,158.8L509.98,160.06L510.37,160.1L515.78,159.78L516.17,159.72L523.91,159.2L524.29,159.24L533.19,160.67L533.58,160.71L538.61,160.57L538.99,160.49L544.41,158.63L544.8,158.45L560.27,151.38L560.66,151.27L568.39,150.01L568.78,149.98L580,149.79" style="vector-effect: none; fill: none; stroke: rgb(239, 85, 59); stroke-opacity: 1; stroke-width: 0px; opacity: 1;"/></g><g class="points"/><g class="text"/></g><g class="trace scatter trace754c2d" style="stroke-miterlimit: 2; opacity: 1;"><g class="fills"/><g class="errorbars"/><g class="lines"><path class="js-line" d="M-193.33,94.62L-187.92,98.34L-187.53,98.87L-180.57,114.15L-180.18,115.29L-167.8,162L-167.41,163.62L-156.97,204.91L-156.58,206.23L-151.17,221.7L-150.78,222.57L-143.43,232.63L-143.04,232.84L-136.85,233.05L-136.46,232.9L-128.73,226.88L-128.34,226.43L-120.6,213.59L-120.22,212.74L-110.93,187.01L-110.55,185.77L-88.88,121.66L-88.49,120.77L-78.44,101.63L-78.05,101.06L-69.15,91.13L-68.76,90.82L-59.87,85.67L-59.48,85.52L-50.2,83.38L-49.81,83.35L-40.52,84.14L-40.14,84.24L-33.17,87.13L-32.79,87.37L-26.98,92.33L-26.6,92.76L-20.79,100.98L-20.41,101.65L-13.83,114.79L-13.44,115.65L9.77,168.26L10.16,168.99L15.18,176.85L15.57,177.31L19.05,179.96L19.44,180.07L21.76,179.85L22.15,179.65L24.47,177.42L24.86,176.87L27.95,170.61L28.34,169.6L32.59,155.53L32.98,154.02L39.56,125.23L39.94,123.47L48.07,90.37L48.45,89.08L53.1,76.27L53.48,75.44L57.35,69.08L57.74,68.64L60.83,66.36L61.22,66.23L63.93,66.13L64.32,66.23L67.41,67.97L67.8,68.3L72.05,73.07L72.44,73.6L78.63,83.17L79.02,83.81L109.58,134.63L109.96,135.2L116.15,142.86L116.54,143.23L121.18,146.58L121.57,146.77L125.83,147.86L126.21,147.88L130.47,147.17L130.86,147.03L135.11,144.65L135.5,144.36L140.53,139.56L140.91,139.11L147.49,130.41L147.88,129.85L157.94,116.25L158.32,115.81L164.51,109.93L164.9,109.63L171.86,105.38L172.25,105.2L180.37,102.26L180.76,102.17L188.11,101.23L188.5,101.22L198.56,101.69L198.94,101.75L203.59,103.12L203.97,103.33L207.45,106.11L207.84,106.55L210.94,111.23L211.32,111.97L214.8,120.43L215.19,121.57L219.45,136.59L219.83,138.16L226.41,168.31L226.8,170.2L236.08,212.34L236.47,213.8L241.11,228.46L241.5,229.41L244.98,235.96L245.37,236.46L248.07,238.76L248.46,238.92L251.17,239.03L251.56,238.92L255.04,236.75L255.42,236.42L273.22,219.48L273.61,219.05L277.86,213.27L278.25,212.62L282.5,203.93L282.89,202.99L287.92,188.89L288.31,187.67L298.37,152.69L298.75,151.32L307.26,123.85L307.65,122.79L313.07,110.46L313.45,109.77L317.71,103.85L318.1,103.46L321.58,100.95L321.96,100.77L326.22,99.86L326.61,99.85L332.8,100.58L333.18,100.65L345.95,102.19L346.34,102.22L354.85,103.6L355.23,103.71L361.04,106.18L361.42,106.4L367.23,110.68L367.61,111.03L374.19,118.06L374.58,118.53L386.96,135L387.34,135.51L396.24,145.77L396.63,146.15L419.84,167.72L420.23,167.88L422.93,168.08L423.32,167.96L425.64,166.38L426.03,165.97L428.74,161.78L429.12,161L432.61,152.05L432.99,150.86L438.02,132.88L438.41,131.36L450.4,86.97L450.79,85.84L455.82,73.85L456.2,73.14L460.07,67.71L460.46,67.33L463.94,65.1L464.33,64.97L467.81,64.85L468.2,64.94L472.07,66.73L472.45,67L477.1,71.18L477.48,71.6L482.9,78.73L483.28,79.32L490.64,91.94L491.02,92.65L500.31,108.26L500.69,108.77L505.34,113.5L505.72,113.77L509.59,115.53L509.98,115.62L514.62,115.84L515.01,115.81L525.07,115.72L525.45,115.78L537.45,117.38L537.83,117.34L542.86,115.9L543.25,115.73L551.37,111.18L551.76,110.95L560.66,106.51L561.04,106.37L568.78,104.15L569.17,104.08L577.29,103.09L577.68,103.08L580,103.02" style="vector-effect: none; fill: none; stroke: rgb(207, 184, 124); stroke-opacity: 1; stroke-width: 3px; opacity: 1;"/></g><g class="points"/><g class="text"/></g><g class="trace scatter trace6d0f3b" style="stroke-miterlimit: 2;"><g class="fills"><g><path class="js-fill" d="M-193.33,150.55L-189.08,154.28L-188.69,154.95L-182.5,172.28L-182.11,173.72L-175.92,200.33L-175.54,202.14L-154.65,286.54L-154.26,287.53L-146.14,300.72L-145.75,301.01L-138.01,303.25L-137.63,303.28L-123.7,302.22L-123.31,301.89L-118.67,294.73L-118.28,293.84L-112.09,272.79L-111.71,271.08L-100.49,211.35L-100.1,209.23L-88.88,158.41L-88.49,157.13L-81.53,140.14L-81.14,139.51L-75.34,133.23L-74.95,132.98L-68.38,131.04L-67.99,131.02L-59.87,132.29L-59.48,132.44L-51.36,137.25L-50.97,137.54L-40.14,143.87L-39.75,144.01L-30.08,148.1L-29.69,148.4L-24.66,153.88L-24.28,154.42L-10.74,174.13L-10.35,174.55L-3.39,180.46L-3,180.75L3.58,186.69L3.97,187.12L12.09,197.41L12.48,197.89L17.12,202.54L17.51,202.8L20.6,203.85L20.99,203.84L23.31,203.04L23.7,202.78L26.4,199.88L26.79,199.31L30.27,192.54L30.66,191.61L35.3,178.22L35.69,176.95L49.61,131.64L50,130.74L53.87,123.66L54.26,123.15L57.35,120.27L57.74,120.05L60.83,119.28L61.22,119.28L65.48,120.35L65.86,120.5L73.99,124.81L74.37,125.07L79.02,128.99L79.4,129.41L83.66,135.3L84.05,135.95L89.85,147.49L90.24,148.33L97.59,162.98L97.97,163.59L102.23,168.97L102.61,169.34L107.26,172.56L107.64,172.76L116.54,178.05L116.93,178.37L123.12,184.55L123.51,184.97L130.86,192.17L131.24,192.45L135.5,194.41L135.88,194.48L139.37,194.1L139.75,193.95L143.23,191.7L143.62,191.36L148.26,186.29L148.65,185.81L157.94,175.71L158.32,175.4L165.67,170.84L166.06,170.6L171.09,166.43L171.48,166.01L176.5,159.33L176.89,158.74L185.79,146.38L186.18,146.01L189.66,143.78L190.05,143.65L193.14,143.44L193.53,143.5L197.78,145.26L198.17,145.48L218.29,158.72L218.67,159.07L225.64,166.45L226.02,166.88L232.6,172.93L232.99,173.17L236.86,174.76L237.24,174.83L241.88,174.79L242.27,174.73L258.13,172.42L258.52,172.39L265.1,171.03L265.48,170.9L277.86,166.8L278.25,166.8L282.12,167.74L282.5,167.92L287.15,171.08L287.53,171.4L295.66,177.35L296.04,177.5L299.53,177.94L299.91,177.88L303.4,176.44L303.78,176.18L308.42,172.15L308.81,171.77L316.55,164.97L316.94,164.74L320.8,163.34L321.19,163.29L325.06,163.52L325.45,163.61L337.44,166.48L337.83,166.46L342.85,165.36L343.24,165.22L352.53,162.81L352.91,162.81L357.17,163.67L357.56,163.82L363.36,167.06L363.75,167.32L382.7,179.48L383.09,179.69L389.66,182.63L390.05,182.75L395.47,183.37L395.85,183.33L400.5,182.15L400.88,181.98L405.91,179.04L406.3,178.77L421.39,168.12L421.77,167.95L429.12,165.54L429.51,165.43L444.21,162.28L444.6,162.28L450.02,163.09L450.4,163.2L461.62,165.86L462.01,165.86L467.42,164.84L467.81,164.72L479.03,161.56L479.42,161.55L484.83,162.3L485.22,162.41L494.89,166.17L495.28,166.33L505.72,171.7L506.11,171.97L512.3,177.07L512.69,177.44L523.52,186.79L523.91,187.01L528.55,188.88L528.93,188.96L536.67,189.81L537.06,189.86L542.47,191.37L542.86,191.53L552.53,195.27L552.92,195.27L556.01,194.45L556.4,194.23L559.5,191.45L559.88,190.98L563.75,184.89L564.14,184.17L575.74,162.9L576.13,162.49L579.23,160.48L579.61,160.4L580,160.36L580,63.88L578.07,64.62L577.68,64.91L574.58,68.83L574.2,69.49L566.85,86.5L566.46,87.47L561.43,98.98L561.04,99.71L557.56,105.06L557.18,105.5L554.47,107.67L554.08,107.86L550.99,108.34L550.6,108.28L543.25,104.74L542.86,104.5L531.26,99.59L530.87,99.45L525.45,96.7L525.07,96.43L515.39,87.04L515.01,86.62L508.43,80.27L508.04,79.96L490.64,70.66L490.25,70.47L484.06,67.83L483.67,67.71L478.64,67.01L478.26,67.03L468.97,69.19L468.58,69.3L462.78,70.47L462.39,70.49L451.95,68.94L451.56,68.86L446.15,68.34L445.76,68.36L431.83,72.78L431.45,72.91L421.39,76.08L421,76.24L405.91,85.7L405.53,85.96L399.72,89.26L399.34,89.43L394.31,90.84L393.92,90.89L388.89,90.63L388.5,90.55L381.15,87.77L380.77,87.57L361.42,73.9L361.04,73.63L356.39,71.08L356.01,70.95L351.75,70.33L351.37,70.35L343.24,72.73L342.85,72.86L337.83,74.08L337.44,74.11L326.22,71.65L325.83,71.55L321.96,71.22L321.58,71.26L317.71,72.66L317.32,72.89L306.49,84.16L306.1,84.59L302.23,88.1L301.85,88.36L298.75,89.62L298.37,89.67L295.27,89.26L294.88,89.11L286.37,82.68L285.99,82.36L281.73,79.45L281.34,79.27L277.48,78.32L277.09,78.31L265.1,82.18L264.71,82.32L258.13,83.71L257.75,83.75L240.72,87.02L240.34,87.1L236.08,87.17L235.69,87.09L231.83,85.43L231.44,85.17L219.06,71.83L218.67,71.4L211.71,64.72L211.32,64.39L198.56,53.73L198.17,53.44L194.3,51.32L193.91,51.2L190.82,51.09L190.43,51.18L187.34,52.9L186.95,53.23L174.18,72.3L173.8,72.86L169.54,78.03L169.15,78.4L161.8,83.31L161.42,83.54L156.39,87.38L156,87.77L146.72,100.37L146.33,100.92L141.69,106.61L141.3,106.97L138.21,109.03L137.82,109.18L134.72,109.47L134.34,109.4L130.86,107.71L130.47,107.41L119.25,94.22L118.86,93.73L105.32,81.02L104.94,80.66L100.29,74.95L99.91,74.34L94.49,63.49L94.1,62.57L85.59,41.55L85.21,40.68L80.95,32.47L80.56,31.84L75.92,25.79L75.53,25.39L69.73,20.54L69.34,20.29L64.7,17.89L64.32,17.78L61.22,17.56L60.83,17.65L57.74,19.39L57.35,19.76L53.87,24.86L53.48,25.63L49.23,36.72L48.84,37.96L38.4,79.7L38.01,81.34L32.59,102.34L32.21,103.64L28.34,114.58L27.95,115.45L24.86,120.78L24.47,121.24L22.15,123.08L21.76,123.24L19.44,123.33L19.05,123.21L15.57,120.71L15.18,120.29L8.61,110.75L8.22,110.11L-9.96,84.9L-10.35,84.34L-23.11,60.27L-23.5,59.52L-28.92,50.56L-29.3,50.07L-33.95,45.65L-34.33,45.4L-52.13,37.8L-52.52,37.67L-59.48,36.82L-59.87,36.87L-69.15,40.21L-69.54,40.43L-76.89,46.56L-77.28,47.03L-83.85,59.06L-84.24,60.03L-93.14,91.81L-93.52,93.6L-102.81,144.39L-103.19,146.71L-112.48,198.02L-112.87,199.74L-118.28,218.08L-118.67,218.97L-122.92,225.13L-123.31,225.4L-134.92,223.36L-135.3,223.23L-144.98,219.62L-145.36,219.32L-152.71,207.49L-153.1,206.5L-158.52,189.11L-158.9,187.65L-182.5,76.5L-182.89,74.87L-189.08,55.17L-189.46,54.42L-193.33,50.61Z" style="fill: rgb(148, 0, 211); fill-opacity: 0.2; stroke-width: 0;"/></g></g><g class="errorbars"/><g class="lines"><path class="js-line" d="M-193.33,50.61L-189.46,54.42L-189.08,55.17L-182.89,74.87L-182.5,76.5L-158.9,187.65L-158.52,189.11L-153.1,206.5L-152.71,207.49L-145.36,219.32L-144.98,219.62L-135.3,223.23L-134.92,223.36L-123.31,225.4L-122.92,225.13L-118.67,218.97L-118.28,218.08L-112.87,199.74L-112.48,198.02L-103.19,146.71L-102.81,144.39L-93.52,93.6L-93.14,91.81L-84.24,60.03L-83.85,59.06L-77.28,47.03L-76.89,46.56L-69.54,40.43L-69.15,40.21L-59.87,36.87L-59.48,36.82L-52.52,37.67L-52.13,37.8L-34.33,45.4L-33.95,45.65L-29.3,50.07L-28.92,50.56L-23.5,59.52L-23.11,60.27L-10.35,84.34L-9.96,84.9L8.22,110.11L8.61,110.75L15.18,120.29L15.57,120.71L19.05,123.21L19.44,123.33L21.76,123.24L22.15,123.08L24.47,121.24L24.86,120.78L27.95,115.45L28.34,114.58L32.21,103.64L32.59,102.34L38.01,81.34L38.4,79.7L48.84,37.96L49.23,36.72L53.48,25.63L53.87,24.86L57.35,19.76L57.74,19.39L60.83,17.65L61.22,17.56L64.32,17.78L64.7,17.89L69.34,20.29L69.73,20.54L75.53,25.39L75.92,25.79L80.56,31.84L80.95,32.47L85.21,40.68L85.59,41.55L94.1,62.57L94.49,63.49L99.91,74.34L100.29,74.95L104.94,80.66L105.32,81.02L118.86,93.73L119.25,94.22L130.47,107.41L130.86,107.71L134.34,109.4L134.72,109.47L137.82,109.18L138.21,109.03L141.3,106.97L141.69,106.61L146.33,100.92L146.72,100.37L156,87.77L156.39,87.38L161.42,83.54L161.8,83.31L169.15,78.4L169.54,78.03L173.8,72.86L174.18,72.3L186.95,53.23L187.34,52.9L190.43,51.18L190.82,51.09L193.91,51.2L194.3,51.32L198.17,53.44L198.56,53.73L211.32,64.39L211.71,64.72L218.67,71.4L219.06,71.83L231.44,85.17L231.83,85.43L235.69,87.09L236.08,87.17L240.34,87.1L240.72,87.02L257.75,83.75L258.13,83.71L264.71,82.32L265.1,82.18L277.09,78.31L277.48,78.32L281.34,79.27L281.73,79.45L285.99,82.36L286.37,82.68L294.88,89.11L295.27,89.26L298.37,89.67L298.75,89.62L301.85,88.36L302.23,88.1L306.1,84.59L306.49,84.16L317.32,72.89L317.71,72.66L321.58,71.26L321.96,71.22L325.83,71.55L326.22,71.65L337.44,74.11L337.83,74.08L342.85,72.86L343.24,72.73L351.37,70.35L351.75,70.33L356.01,70.95L356.39,71.08L361.04,73.63L361.42,73.9L380.77,87.57L381.15,87.77L388.5,90.55L388.89,90.63L393.92,90.89L394.31,90.84L399.34,89.43L399.72,89.26L405.53,85.96L405.91,85.7L421,76.24L421.39,76.08L431.45,72.91L431.83,72.78L445.76,68.36L446.15,68.34L451.56,68.86L451.95,68.94L462.39,70.49L462.78,70.47L468.58,69.3L468.97,69.19L478.26,67.03L478.64,67.01L483.67,67.71L484.06,67.83L490.25,70.47L490.64,70.66L508.04,79.96L508.43,80.27L515.01,86.62L515.39,87.04L525.07,96.43L525.45,96.7L530.87,99.45L531.26,99.59L542.86,104.5L543.25,104.74L550.6,108.28L550.99,108.34L554.08,107.86L554.47,107.67L557.18,105.5L557.56,105.06L561.04,99.71L561.43,98.98L566.46,87.47L566.85,86.5L574.2,69.49L574.58,68.83L577.68,64.91L578.07,64.62L580,63.88" style="vector-effect: none; fill: none; stroke: rgb(171, 99, 250); stroke-opacity: 1; stroke-width: 0px; opacity: 1;"/></g><g class="points"/><g class="text"/></g><g class="trace scatter trace76e1f0" style="stroke-miterlimit: 2;"><g class="fills"/><g class="errorbars"/><g class="lines"><path class="js-line" d="M-193.33,150.55L-189.08,154.28L-188.69,154.95L-182.5,172.28L-182.11,173.72L-175.92,200.33L-175.54,202.14L-154.65,286.54L-154.26,287.53L-146.14,300.72L-145.75,301.01L-138.01,303.25L-137.63,303.28L-123.7,302.22L-123.31,301.89L-118.67,294.73L-118.28,293.84L-112.09,272.79L-111.71,271.08L-100.49,211.35L-100.1,209.23L-88.88,158.41L-88.49,157.13L-81.53,140.14L-81.14,139.51L-75.34,133.23L-74.95,132.98L-68.38,131.04L-67.99,131.02L-59.87,132.29L-59.48,132.44L-51.36,137.25L-50.97,137.54L-40.14,143.87L-39.75,144.01L-30.08,148.1L-29.69,148.4L-24.66,153.88L-24.28,154.42L-10.74,174.13L-10.35,174.55L-3.39,180.46L-3,180.75L3.58,186.69L3.97,187.12L12.09,197.41L12.48,197.89L17.12,202.54L17.51,202.8L20.6,203.85L20.99,203.84L23.31,203.04L23.7,202.78L26.4,199.88L26.79,199.31L30.27,192.54L30.66,191.61L35.3,178.22L35.69,176.95L49.61,131.64L50,130.74L53.87,123.66L54.26,123.15L57.35,120.27L57.74,120.05L60.83,119.28L61.22,119.28L65.48,120.35L65.86,120.5L73.99,124.81L74.37,125.07L79.02,128.99L79.4,129.41L83.66,135.3L84.05,135.95L89.85,147.49L90.24,148.33L97.59,162.98L97.97,163.59L102.23,168.97L102.61,169.34L107.26,172.56L107.64,172.76L116.54,178.05L116.93,178.37L123.12,184.55L123.51,184.97L130.86,192.17L131.24,192.45L135.5,194.41L135.88,194.48L139.37,194.1L139.75,193.95L143.23,191.7L143.62,191.36L148.26,186.29L148.65,185.81L157.94,175.71L158.32,175.4L165.67,170.84L166.06,170.6L171.09,166.43L171.48,166.01L176.5,159.33L176.89,158.74L185.79,146.38L186.18,146.01L189.66,143.78L190.05,143.65L193.14,143.44L193.53,143.5L197.78,145.26L198.17,145.48L218.29,158.72L218.67,159.07L225.64,166.45L226.02,166.88L232.6,172.93L232.99,173.17L236.86,174.76L237.24,174.83L241.88,174.79L242.27,174.73L258.13,172.42L258.52,172.39L265.1,171.03L265.48,170.9L277.86,166.8L278.25,166.8L282.12,167.74L282.5,167.92L287.15,171.08L287.53,171.4L295.66,177.35L296.04,177.5L299.53,177.94L299.91,177.88L303.4,176.44L303.78,176.18L308.42,172.15L308.81,171.77L316.55,164.97L316.94,164.74L320.8,163.34L321.19,163.29L325.06,163.52L325.45,163.61L337.44,166.48L337.83,166.46L342.85,165.36L343.24,165.22L352.53,162.81L352.91,162.81L357.17,163.67L357.56,163.82L363.36,167.06L363.75,167.32L382.7,179.48L383.09,179.69L389.66,182.63L390.05,182.75L395.47,183.37L395.85,183.33L400.5,182.15L400.88,181.98L405.91,179.04L406.3,178.77L421.39,168.12L421.77,167.95L429.12,165.54L429.51,165.43L444.21,162.28L444.6,162.28L450.02,163.09L450.4,163.2L461.62,165.86L462.01,165.86L467.42,164.84L467.81,164.72L479.03,161.56L479.42,161.55L484.83,162.3L485.22,162.41L494.89,166.17L495.28,166.33L505.72,171.7L506.11,171.97L512.3,177.07L512.69,177.44L523.52,186.79L523.91,187.01L528.55,188.88L528.93,188.96L536.67,189.81L537.06,189.86L542.47,191.37L542.86,191.53L552.53,195.27L552.92,195.27L556.01,194.45L556.4,194.23L559.5,191.45L559.88,190.98L563.75,184.89L564.14,184.17L575.74,162.9L576.13,162.49L579.23,160.48L579.61,160.4L580,160.36" style="vector-effect: none; fill: none; stroke: rgb(255, 161, 90); stroke-opacity: 1; stroke-width: 0px; opacity: 1;"/></g><g class="points"/><g class="text"/></g><g class="trace scatter trace8178d1" style="stroke-miterlimit: 2; opacity: 1;"><g class="fills"/><g class="errorbars"/><g class="lines"><path class="js-line" d="M-193.33,100.58L-189.08,104.72L-188.69,105.47L-182.11,125.94L-181.73,127.53L-168.96,188.02L-168.57,189.84L-160.45,224.92L-160.06,226.39L-150.01,254.78L-149.62,255.42L-142.65,261.75L-142.27,261.89L-125.25,264.7L-124.86,264.55L-120.22,259.88L-119.83,259.2L-114.8,245.54L-114.41,244.11L-106.29,204.45L-105.9,202.24L-93.91,136.77L-93.52,135L-88.11,113.76L-87.72,112.5L-81.92,97.73L-81.53,97.01L-74.95,88.72L-74.57,88.43L-67.22,85.11L-66.83,85.02L-58.71,84.76L-58.32,84.84L-51.36,87.67L-50.97,87.88L-37.04,94.39L-36.65,94.54L-30.85,97.92L-30.47,98.26L-25.82,103.81L-25.44,104.39L-17.7,118.03L-17.31,118.73L-10.74,128.95L-10.35,129.44L-3.39,136.85L-3,137.23L3.97,145.19L4.35,145.7L16.73,162.03L17.12,162.33L20.21,163.64L20.6,163.65L22.92,162.95L23.31,162.7L26.02,159.76L26.4,159.18L29.5,153.01L29.88,152.06L34.14,139.37L34.53,138.04L50.39,81.55L50.78,80.59L54.64,73.06L55.03,72.51L58.13,69.46L58.51,69.23L61.61,68.41L61.99,68.42L65.86,69.42L66.25,69.59L72.44,73.21L72.83,73.49L78.24,78.35L78.63,78.8L82.88,84.98L83.27,85.66L88.3,96.08L88.69,96.98L97.97,117.27L98.36,117.93L103,124.15L103.39,124.53L108.8,128.64L109.19,128.89L116.15,134.14L116.54,134.51L123.12,141.9L123.51,142.36L130.08,149.34L130.47,149.65L134.34,151.75L134.72,151.85L138.21,151.72L138.59,151.6L142.07,149.43L142.46,149.08L146.72,144.25L147.1,143.74L157.16,131.5L157.55,131.16L163.35,127.31L163.74,127.1L169.54,122.99L169.93,122.62L174.18,117.49L174.57,116.93L186.95,99.29L187.34,98.98L190.43,97.36L190.82,97.27L193.91,97.4L194.3,97.51L198.56,99.72L198.94,99.99L215.96,112.68L216.35,113.02L222.93,119.91L223.31,120.36L231.44,128.64L231.83,128.91L235.69,130.77L236.08,130.87L240.34,131.03L240.72,130.98L265.48,126.47L265.87,126.33L277.09,122.57L277.48,122.56L281.34,123.35L281.73,123.51L286.37,126.57L286.76,126.89L295.66,133.37L296.04,133.5L299.14,133.76L299.53,133.69L303.01,132.1L303.4,131.83L308.81,126.62L309.2,126.19L316.16,119.46L316.55,119.2L320.42,117.45L320.8,117.37L325.06,117.46L325.45,117.54L337.83,120.27L338.21,120.23L343.24,118.98L343.63,118.84L351.37,116.61L351.75,116.58L356.01,117.12L356.39,117.25L360.65,119.36L361.04,119.6L382.7,134L383.09,134.19L390.05,136.78L390.44,136.86L395.47,137.01L395.85,136.95L400.5,135.53L400.88,135.35L407.07,131.55L407.46,131.27L420.23,122.63L420.61,122.45L427.58,120.03L427.96,119.92L445.37,115.35L445.76,115.35L451.18,116.1L451.56,116.2L461.23,118.19L461.62,118.19L467.04,117.35L467.42,117.24L479.03,114.29L479.42,114.28L484.45,115.07L484.83,115.19L493.73,118.93L494.12,119.11L506.11,125.26L506.5,125.53L513.46,131.57L513.85,131.96L523.91,141.28L524.29,141.54L529.32,143.94L529.71,144.06L543.25,148.22L543.64,148.43L550.99,151.7L551.37,151.75L554.47,151.37L554.85,151.2L557.56,149.23L557.95,148.83L561.43,143.9L561.82,143.22L567.62,130.85L568.01,129.95L574.2,117.19L574.58,116.58L578.07,112.78L578.45,112.56L580,112.12" style="vector-effect: none; fill: none; stroke: rgb(148, 0, 211); stroke-opacity: 1; stroke-width: 3px; opacity: 1;"/></g><g class="points"/><g class="text"/></g></g></g></g><g class="zerolinelayer-above"/><path class="xlines-above crisp" d="M79,420.5H661M79,99.5H661" style="fill: none; stroke-width: 1px; stroke: rgb(0, 0, 0); stroke-opacity: 1;"/><path class="ylines-above crisp" d="M79.5,100V420M660.5,100V420" style="fill: none; stroke-width: 1px; stroke: rgb(0, 0, 0); stroke-opacity: 1;"/><g class="overlines-above"/><g class="xaxislayer-above"><path class="xtick ticks crisp" d="M0,421v5" transform="translate(118.67,0)" style="stroke: rgb(68, 68, 68); stroke-opacity: 1; stroke-width: 1px;"/><path class="xtick ticks crisp" d="M0,421v5" transform="translate(196,0)" style="stroke: rgb(68, 68, 68); stroke-opacity: 1; stroke-width: 1px;"/><path class="xtick ticks crisp" d="M0,421v5" transform="translate(273.33000000000004,0)" style="stroke: rgb(68, 68, 68); stroke-opacity: 1; stroke-width: 1px;"/><path class="xtick ticks crisp" d="M0,421v5" transform="translate(350.67,0)" style="stroke: rgb(68, 68, 68); stroke-opacity: 1; stroke-width: 1px;"/><path class="xtick ticks crisp" d="M0,421v5" transform="translate(428,0)" style="stroke: rgb(68, 68, 68); stroke-opacity: 1; stroke-width: 1px;"/><path class="xtick ticks crisp" d="M0,421v5" transform="translate(505.33,0)" style="stroke: rgb(68, 68, 68); stroke-opacity: 1; stroke-width: 1px;"/><path class="xtick ticks crisp" d="M0,421v5" transform="translate(582.6700000000001,0)" style="stroke: rgb(68, 68, 68); stroke-opacity: 1; stroke-width: 1px;"/><path class="xtick ticks crisp" d="M0,421v5" transform="translate(660,0)" style="stroke: rgb(68, 68, 68); stroke-opacity: 1; stroke-width: 1px;"/><g class="xtick"><text text-anchor="middle" x="0" y="440.4" transform="translate(118.67,0)" style="font-family: 'Open Sans', verdana, arial, sans-serif; font-size: 12px; fill: rgb(42, 63, 95); fill-opacity: 1; white-space: pre;">−400</text></g><g class="xtick"><text text-anchor="middle" x="0" y="440.4" style="font-family: 'Open Sans', verdana, arial, sans-serif; font-size: 12px; fill: rgb(42, 63, 95); fill-opacity: 1; white-space: pre;" transform="translate(196,0)">−200</text></g><g class="xtick"><text text-anchor="middle" x="0" y="440.4" style="font-family: 'Open Sans', verdana, arial, sans-serif; font-size: 12px; fill: rgb(42, 63, 95); fill-opacity: 1; white-space: pre;" transform="translate(273.33000000000004,0)">0</text></g><g class="xtick"><text text-anchor="middle" x="0" y="440.4" style="font-family: 'Open Sans', verdana, arial, sans-serif; font-size: 12px; fill: rgb(42, 63, 95); fill-opacity: 1; white-space: pre;" transform="translate(350.67,0)">200</text></g><g class="xtick"><text text-anchor="middle" x="0" y="440.4" style="font-family: 'Open Sans', verdana, arial, sans-serif; font-size: 12px; fill: rgb(42, 63, 95); fill-opacity: 1; white-space: pre;" transform="translate(428,0)">400</text></g><g class="xtick"><text text-anchor="middle" x="0" y="440.4" style="font-family: 'Open Sans', verdana, arial, sans-serif; font-size: 12px; fill: rgb(42, 63, 95); fill-opacity: 1; white-space: pre;" transform="translate(505.33,0)">600</text></g><g class="xtick"><text text-anchor="middle" x="0" y="440.4" style="font-family: 'Open Sans', verdana, arial, sans-serif; font-size: 12px; fill: rgb(42, 63, 95); fill-opacity: 1; white-space: pre;" transform="translate(582.6700000000001,0)">800</text></g><g class="xtick"><text text-anchor="middle" x="0" y="440.4" style="font-family: 'Open Sans', verdana, arial, sans-serif; font-size: 12px; fill: rgb(42, 63, 95); fill-opacity: 1; white-space: pre;" transform="translate(660,0)">1000</text></g></g><g class="yaxislayer-above"><path class="ytick ticks crisp" d="M79,0h-5" transform="translate(0,390.69)" style="stroke: rgb(68, 68, 68); stroke-opacity: 1; stroke-width: 1px;"/><path class="ytick ticks crisp" d="M79,0h-5" transform="translate(0,348.37)" style="stroke: rgb(68, 68, 68); stroke-opacity: 1; stroke-width: 1px;"/><path class="ytick ticks crisp" d="M79,0h-5" transform="translate(0,306.05)" style="stroke: rgb(68, 68, 68); stroke-opacity: 1; stroke-width: 1px;"/><path class="ytick ticks crisp" d="M79,0h-5" transform="translate(0,263.73)" style="stroke: rgb(68, 68, 68); stroke-opacity: 1; stroke-width: 1px;"/><path class="ytick ticks crisp" d="M79,0h-5" transform="translate(0,221.41)" style="stroke: rgb(68, 68, 68); stroke-opacity: 1; stroke-width: 1px;"/><path class="ytick ticks crisp" d="M79,0h-5" transform="translate(0,179.1)" style="stroke: rgb(68, 68, 68); stroke-opacity: 1; stroke-width: 1px;"/><path class="ytick ticks crisp" d="M79,0h-5" transform="translate(0,136.78)" style="stroke: rgb(68, 68, 68); stroke-opacity: 1; stroke-width: 1px;"/><g class="ytick"><text text-anchor="end" x="71.6" y="4.199999999999999" transform="translate(0,390.69)" style="font-family: 'Open Sans', verdana, arial, sans-serif; font-size: 12px; fill: rgb(42, 63, 95); fill-opacity: 1; white-space: pre;">4</text></g><g class="ytick"><text text-anchor="end" x="71.6" y="4.199999999999999" style="font-family: 'Open Sans', verdana, arial, sans-serif; font-size: 12px; fill: rgb(42, 63, 95); fill-opacity: 1; white-space: pre;" transform="translate(0,348.37)">4.2</text></g><g class="ytick"><text text-anchor="end" x="71.6" y="4.199999999999999" style="font-family: 'Open Sans', verdana, arial, sans-serif; font-size: 12px; fill: rgb(42, 63, 95); fill-opacity: 1; white-space: pre;" transform="translate(0,306.05)">4.4</text></g><g class="ytick"><text text-anchor="end" x="71.6" y="4.199999999999999" style="font-family: 'Open Sans', verdana, arial, sans-serif; font-size: 12px; fill: rgb(42, 63, 95); fill-opacity: 1; white-space: pre;" transform="translate(0,263.73)">4.6</text></g><g class="ytick"><text text-anchor="end" x="71.6" y="4.199999999999999" style="font-family: 'Open Sans', verdana, arial, sans-serif; font-size: 12px; fill: rgb(42, 63, 95); fill-opacity: 1; white-space: pre;" transform="translate(0,221.41)">4.8</text></g><g class="ytick"><text text-anchor="end" x="71.6" y="4.199999999999999" style="font-family: 'Open Sans', verdana, arial, sans-serif; font-size: 12px; fill: rgb(42, 63, 95); fill-opacity: 1; white-space: pre;" transform="translate(0,179.1)">5</text></g><g class="ytick"><text text-anchor="end" x="71.6" y="4.199999999999999" style="font-family: 'Open Sans', verdana, arial, sans-serif; font-size: 12px; fill: rgb(42, 63, 95); fill-opacity: 1; white-space: pre;" transform="translate(0,136.78)">5.2</text></g></g><g class="overaxes-above"/></g></g><g class="polarlayer"/><g class="smithlayer"/><g class="ternarylayer"/><g class="geolayer"/><g class="funnelarealayer"/><g class="pielayer"/><g class="iciclelayer"/><g class="treemaplayer"/><g class="sunburstlayer"/><g class="glimages"/><defs id="topdefs-3fd6cd"><g class="clips"/><clipPath id="legend3fd6cd"><rect width="296" height="29" x="1" y="1"/></clipPath></defs><g class="layer-above"><g class="imagelayer"/><g class="shapelayer"><g class="shape-group" data-index="0" clip-path="url(#clip3fd6cdx)"><path data-index="0" fill-rule="evenodd" d="M273.33000000000004,420L273.33000000000004,100" style="opacity: 1; stroke: rgb(255, 0, 0); stroke-opacity: 1; fill: rgb(0, 0, 0); fill-opacity: 0; stroke-dasharray: 9px, 9px; stroke-width: 2px;"/></g></g></g><g class="infolayer"><g class="legend" pointer-events="all" transform="translate(362,62.599999999999994)"><rect class="bg" shape-rendering="crispEdges" style="stroke: rgb(0, 0, 0); stroke-opacity: 1; fill: rgb(255, 255, 255); fill-opacity: 0.8; stroke-width: 1px;" width="297" height="30" x="0.5" y="0.5"/><g class="scrollbox" transform="" clip-path="url(#legend3fd6cd)"><g class="groups" transform=""><g class="traces" transform="translate(0,15.5)" style="opacity: 1;"><text class="legendtext" text-anchor="start" x="40" y="4.680000000000001" style="font-family: 'Open Sans', verdana, arial, sans-serif; font-size: 12px; fill: rgb(42, 63, 95); fill-opacity: 1; white-space: pre;">Standard (AAAB)</text><g class="layers" style="opacity: 1;"><g class="legendfill"/><g class="legendlines"><path class="js-line" d="M5,0h30" style="fill: none; stroke: rgb(207, 184, 124); stroke-opacity: 1; stroke-width: 3px;"/></g><g class="legendsymbols"><g class="legendpoints"/></g></g><rect class="legendtoggle" x="0" y="-9.5" width="145.46875" height="19" style="fill: rgb(0, 0, 0); fill-opacity: 0;"/></g></g><g class="groups" transform="translate(147.96875,0)"><g class="traces" transform="translate(0,15.5)" style="opacity: 1;"><text class="legendtext" text-anchor="start" x="40" y="4.680000000000001" style="font-family: 'Open Sans', verdana, arial, sans-serif; font-size: 12px; fill: rgb(42, 63, 95); fill-opacity: 1; white-space: pre;">Omission (AXAB)</text><g class="layers" style="opacity: 1;"><g class="legendfill"/><g class="legendlines"><path class="js-line" d="M5,0h30" style="fill: none; stroke: rgb(148, 0, 211); stroke-opacity: 1; stroke-width: 3px;"/></g><g class="legendsymbols"><g class="legendpoints"/></g></g><rect class="legendtoggle" x="0" y="-9.5" width="145.5546875" height="19" style="fill: rgb(0, 0, 0); fill-opacity: 0;"/></g></g></g><rect class="scrollbar" rx="20" ry="3" width="0" height="0" style="fill: rgb(128, 139, 164); fill-opacity: 1;" x="0" y="0"/></g><g class="g-gtitle"><text class="gtitle" x="350" y="50" text-anchor="middle" dy="0em" style="opacity: 1; font-family: Arial; font-size: 18px; fill: rgb(0, 0, 0); fill-opacity: 1; white-space: pre;"><tspan class="line" dy="0em" x="350" y="50"><tspan style="font-weight:bold">Figure f002: V4 Omission-Local PSTH</tspan></tspan><tspan class="line" dy="1.3em" x="350" y="50">​<tspan style="font-size:70%" dy="-0.6em">n=535 units | Mean ± SEM | 0ms = Omission Onset</tspan><tspan dy="0.42em">​</tspan></tspan></text></g><g class="g-xtitle"><text class="xtitle" x="370" y="467.200390625" text-anchor="middle" style="opacity: 1; font-family: 'Open Sans', verdana, arial, sans-serif; font-size: 14px; fill: rgb(42, 63, 95); fill-opacity: 1; white-space: pre;">Time from Omission (ms)</text></g><g class="g-ytitle"><text class="ytitle" transform="rotate(-90,32.574609375,260)" x="32.574609375" y="260" text-anchor="middle" style="opacity: 1; font-family: 'Open Sans', verdana, arial, sans-serif; font-size: 14px; fill: rgb(42, 63, 95); fill-opacity: 1; white-space: pre;">Firing Rate (Hz)</text></g><g class="annotation" data-index="0" style="opacity: 1;"><g class="annotation-text-g" transform="rotate(0,322.83000000000004,109.5)"><g class="cursor-pointer" transform="translate(273,100)"><rect class="bg" x="0.5" y="0.5" width="98" height="18" style="stroke-width: 1px; stroke: rgb(0, 0, 0); stroke-opacity: 0; fill: rgb(0, 0, 0); fill-opacity: 0;"/><text class="annotation-text" text-anchor="middle" x="49.23828125" y="14" style="font-family: 'Open Sans', verdana, arial, sans-serif; font-size: 12px; fill: rgb(42, 63, 95); fill-opacity: 1; white-space: pre;">Omission Onset</text></g></g></g></g></svg>