<svg class="main-svg" xmlns="http://www.w3.org/2000/svg" xmlns:xlink="http://www.w3.org/1999/xlink" width="700" height="500" style="" viewBox="0 0 700 500"><rect x="0" y="0" width="700" height="500" style="fill: rgb(255, 255, 255); fill-opacity: 1;"/><defs id="defs-9b9953"><g class="clips"><clipPath id="clip9b9953xyplot" class="plotclip"><rect width="580" height="320"/></clipPath><clipPath class="axesclip" id="clip9b9953x"><rect x="80" y="0" width="580" height="500"/></clipPath><clipPath class="axesclip" id="clip9b9953y"><rect x="0" y="100" width="700" height="320"/></clipPath><clipPath class="axesclip" id="clip9b9953xy"><rect x="80" y="100" width="580" height="320"/></clipPath></g><g class="gradients"/><g class="patterns"/></defs><g class="bglayer"/><g class="layer-below"><g class="imagelayer"/><g class="shapelayer"/></g><g class="cartesianlayer"><g class="subplot xy"><g class="layer-subplot"><g class="shapelayer"/><g class="imagelayer"/></g><g class="minor-gridlayer"><g class="x"/><g class="y"/></g><g class="gridlayer"><g class="x"><path class="xgrid crisp" transform="translate(118.67,0)" d="M0,100v320" style="stroke: rgb(211, 211, 211); stroke-opacity: 1; stroke-width: 1px;"/><path class="xgrid crisp" transform="translate(196,0)" d="M0,100v320" style="stroke: rgb(211, 211, 211); stroke-opacity: 1; stroke-width: 1px;"/><path class="xgrid crisp" transform="translate(350.67,0)" d="M0,100v320" style="stroke: rgb(211, 211, 211); stroke-opacity: 1; stroke-width: 1px;"/><path class="xgrid crisp" transform="translate(428,0)" d="M0,100v320" style="stroke: rgb(211, 211, 211); stroke-opacity: 1; stroke-width: 1px;"/><path class="xgrid crisp" transform="translate(505.33,0)" d="M0,100v320" style="stroke: rgb(211, 211, 211); stroke-opacity: 1; stroke-width: 1px;"/><path class="xgrid crisp" transform="translate(582.6700000000001,0)" d="M0,100v320" style="stroke: rgb(211, 211, 211); stroke-opacity: 1; stroke-width: 1px;"/></g><g class="y"><path class="ygrid crisp" transform="translate(0,357.96)" d="M80,0h580" style="stroke: rgb(211, 211, 211); stroke-opacity: 1; stroke-width: 1px;"/><path class="ygrid crisp" transform="translate(0,289.22)" d="M80,0h580" style="stroke: rgb(211, 211, 211); stroke-opacity: 1; stroke-width: 1px;"/><path class="ygrid crisp" transform="translate(0,220.48000000000002)" d="M80,0h580" style="stroke: rgb(211, 211, 211); stroke-opacity: 1; stroke-width: 1px;"/><path class="ygrid crisp" transform="translate(0,151.75)" d="M80,0h580" style="stroke: rgb(211, 211, 211); stroke-opacity: 1; stroke-width: 1px;"/></g></g><g class="zerolinelayer"><path class="xzl zl crisp" transform="translate(273.33000000000004,0)" d="M0,100v320" style="stroke: rgb(235, 240, 248); stroke-opacity: 1; stroke-width: 2px;"/></g><g class="layer-between"><g class="shapelayer"/><g class="imagelayer"/></g><path class="xlines-below"/><path class="ylines-below"/><g class="overlines-below"/><g class="xaxislayer-below"/><g class="yaxislayer-below"/><g class="overaxes-below"/><g class="overplot"><g class="xy" transform="translate(80,100)" clip-path="url(#clip9b9953xyplot)"><g class="scatterlayer mlayer"><g class="trace scatter tracef827c9" style="stroke-miterlimit: 2;"><g class="fills"><g><path class="js-fill" d="M-193.33,143.69L-183.66,146.71L-183.27,147.24L-178.25,159.83L-177.86,161.27L-173.6,181.29L-173.22,183.43L-160.06,256.49L-159.68,257.97L-152.71,273.64L-152.33,273.94L-147.3,273.85L-146.91,273.6L-138.4,263.95L-138.01,263.43L-122.92,247.35L-122.54,247.09L-113.64,243.62L-113.25,243.58L-89.65,241.19L-89.27,240.98L-79.21,233.58L-78.82,233.24L-62.57,220.68L-62.19,220.46L-42.07,211.05L-41.68,210.94L-35.11,210.5L-34.72,210.56L-28.14,212.77L-27.76,212.96L-6.87,222.82L-6.48,222.93L3.58,226.42L3.97,226.68L7.45,229.88L7.83,230.36L11.32,235.9L11.7,236.66L16.34,247.74L16.73,248.79L26.02,272.66L26.4,273.36L29.88,277.89L30.27,278.19L32.98,279.14L33.37,279.13L36.07,278.23L36.46,278L41.88,273.84L42.26,273.55L46.52,271.17L46.91,271.06L50.39,270.91L50.78,270.98L54.64,272.67L55.03,272.91L60.83,277.61L61.22,277.96L79.4,293.48L79.79,293.76L87.91,298.53L88.3,298.71L95.65,300.99L96.04,301.06L103.78,301.75L104.16,301.76L116.15,301.06L116.54,301.01L139.75,297.89L140.14,297.76L147.1,294.52L147.49,294.31L154.84,291.29L155.23,291.23L159.1,291.3L159.48,291.38L163.74,293.22L164.13,293.46L171.48,299.15L171.86,299.46L177.67,303.23L178.05,303.38L181.53,303.98L181.92,303.94L184.63,302.91L185.02,302.64L187.72,299.75L188.11,299.18L191.21,292.96L191.59,291.96L195.07,280.52L195.46,278.97L199.72,258.55L200.1,256.42L212.1,191.64L212.48,190.34L215.19,183.97L215.58,183.47L217.13,182.58L217.51,182.62L219.06,183.9L219.45,184.48L221.77,190.04L222.15,191.29L225.64,205.87L226.02,207.78L238.4,269.5L238.79,270.82L242.27,279.99L242.66,280.7L245.37,284.08L245.75,284.34L248.07,284.9L248.46,284.83L250.78,283.66L251.17,283.35L254.65,279.5L255.04,278.98L268.19,261.71L268.58,261.33L275.54,255.35L275.93,255.05L285.99,247.99L286.37,247.78L291.79,245.77L292.18,245.7L297.21,245.62L297.59,245.67L309.97,247.07L310.36,247.01L315,245.3L315.39,245.08L320.8,240.79L321.19,240.42L333.57,228.96L333.96,228.73L338.21,227L338.6,226.92L343.24,226.64L343.63,226.66L366.07,229.12L366.45,229.18L376.9,231.8L377.29,231.93L392.37,236.52L392.76,236.55L399.34,236.15L399.72,236.11L404.75,236.27L405.14,236.39L408.23,238.19L408.62,238.54L411.72,242.5L412.1,243.14L415.97,251.11L416.36,252.04L426.8,276.11L427.19,276.66L430.29,279.59L430.67,279.77L432.99,279.98L433.38,279.88L436.09,278.35L436.47,278.03L441.89,272.34L442.28,271.92L447.31,267.51L447.69,267.27L451.56,265.93L451.95,265.89L455.82,266.36L456.2,266.48L461.23,268.99L461.62,269.24L468.58,274.53L468.97,274.86L485.99,288.45L486.38,288.68L492.96,291.77L493.34,291.91L501.08,293.92L501.47,293.99L511.14,294.81L511.53,294.79L517.72,293.95L518.1,293.85L526.23,291.04L526.61,290.88L536.67,287.52L537.06,287.45L543.25,287.1L543.64,287.12L550.6,288.35L550.99,288.46L562.2,292.17L562.59,292.32L576.13,296.47L576.52,296.53L580,296.8L580,200.09L576.52,199.84L576.13,199.78L563.37,196.17L562.98,196.04L552.53,192.89L552.15,192.79L544.41,191.48L544.02,191.46L537.83,191.86L537.45,191.93L523.13,197.61L522.74,197.78L515.39,200.19L515.01,200.26L508.04,200.78L507.66,200.77L497.21,199.35L496.83,199.26L489.47,196.84L489.09,196.67L482.9,193L482.51,192.72L468.97,180.17L468.58,179.77L460.07,171.64L459.69,171.33L455.04,168.38L454.66,168.23L451.18,167.67L450.79,167.71L447.31,169.11L446.92,169.38L441.89,174.58L441.5,175.08L436.09,181.64L435.7,182L432.99,183.71L432.61,183.81L430.29,183.58L429.9,183.39L426.8,180.26L426.42,179.68L416.36,155.88L415.97,154.92L412.1,146.66L411.72,145.99L408.62,141.75L408.23,141.36L405.14,139.21L404.75,139.05L399.34,138.26L398.95,138.26L392.37,137.79L391.99,137.71L383.48,134.49L383.09,134.31L373.8,130.21L373.42,130.06L351.75,126.03L351.37,125.97L342.85,124.59L342.47,124.57L337.83,125.06L337.44,125.18L332.8,127.68L332.41,127.98L325.45,135.14L325.06,135.6L318.48,142.87L318.1,143.23L313.84,146.4L313.45,146.6L309.2,147.99L308.81,148.04L298.75,146.85L298.37,146.78L293.34,146.49L292.95,146.52L287.92,147.91L287.53,148.08L277.09,155.01L276.7,155.31L268.96,161.99L268.58,162.39L254.65,182.02L254.26,182.56L250.78,186.55L250.4,186.85L248.07,187.93L247.69,187.97L245.37,187.15L244.98,186.83L241.88,182.13L241.5,181.25L238.02,170.45L237.63,168.92L226.41,106.59L226.02,104.4L222.54,87.54L222.15,86.08L219.83,79.54L219.45,78.86L217.9,77.37L217.51,77.32L215.96,78.4L215.58,78.99L212.87,86.55L212.48,88.08L207.84,113.09L207.45,115.56L199.72,165.45L199.33,167.64L195.46,186.49L195.07,188.05L191.59,199.48L191.21,200.47L188.11,206.57L187.72,207.12L185.02,209.91L184.63,210.16L181.92,211.09L181.53,211.12L178.05,210.37L177.67,210.19L171.09,205.39L170.7,205.05L164.13,199.5L163.74,199.23L159.48,197.14L159.1,197.03L154.84,196.87L154.45,196.94L147.49,199.88L147.1,200.1L138.98,204.18L138.59,204.32L120.41,208.29L120.02,208.36L109.19,209.62L108.8,209.62L100.68,209.09L100.29,209.03L92.94,207.17L92.56,207.03L85.21,203.44L84.82,203.21L74.76,195.82L74.37,195.49L60.83,181.94L60.45,181.51L55.03,176.17L54.64,175.87L51.16,173.86L50.78,173.74L47.68,173.58L47.29,173.67L36.85,181.44L36.46,181.71L33.75,182.88L33.37,182.92L30.66,182.16L30.27,181.88L26.79,177.46L26.4,176.77L20.6,162.59L20.21,161.49L13.64,143.5L13.25,142.59L9.38,134.94L8.99,134.33L5.13,129.58L4.74,129.23L-8.41,122.46L-8.8,122.28L-22.34,113.85L-22.73,113.58L-30.47,108.73L-30.85,108.54L-36.65,106.87L-37.04,106.84L-43.62,107.86L-44.01,108L-60.25,116.33L-60.64,116.57L-82.3,135.91L-82.69,136.27L-91.59,142.8L-91.98,142.99L-113.25,144.43L-113.64,144.45L-122.54,147.51L-122.92,147.77L-136.08,161.87L-136.46,162.4L-145.75,174.33L-146.14,174.68L-150.78,176.36L-151.17,176.24L-157.36,166.59L-157.74,165.43L-169.73,99.27L-170.12,96.58L-177.86,50.62L-178.25,49L-182.89,35.97L-183.27,35.38L-193.33,32.91Z" style="fill: rgb(207, 184, 124); fill-opacity: 0.2; stroke-width: 0;"/></g></g><g class="errorbars"/><g class="lines"><path class="js-line" d="M-193.33,32.91L-183.27,35.38L-182.89,35.97L-178.25,49L-177.86,50.62L-170.12,96.58L-169.73,99.27L-157.74,165.43L-157.36,166.59L-151.17,176.24L-150.78,176.36L-146.14,174.68L-145.75,174.33L-136.46,162.4L-136.08,161.87L-122.92,147.77L-122.54,147.51L-113.64,144.45L-113.25,144.43L-91.98,142.99L-91.59,142.8L-82.69,136.27L-82.3,135.91L-60.64,116.57L-60.25,116.33L-44.01,108L-43.62,107.86L-37.04,106.84L-36.65,106.87L-30.85,108.54L-30.47,108.73L-22.73,113.58L-22.34,113.85L-8.8,122.28L-8.41,122.46L4.74,129.23L5.13,129.58L8.99,134.33L9.38,134.94L13.25,142.59L13.64,143.5L20.21,161.49L20.6,162.59L26.4,176.77L26.79,177.46L30.27,181.88L30.66,182.16L33.37,182.92L33.75,182.88L36.46,181.71L36.85,181.44L47.29,173.67L47.68,173.58L50.78,173.74L51.16,173.86L54.64,175.87L55.03,176.17L60.45,181.51L60.83,181.94L74.37,195.49L74.76,195.82L84.82,203.21L85.21,203.44L92.56,207.03L92.94,207.17L100.29,209.03L100.68,209.09L108.8,209.62L109.19,209.62L120.02,208.36L120.41,208.29L138.59,204.32L138.98,204.18L147.1,200.1L147.49,199.88L154.45,196.94L154.84,196.87L159.1,197.03L159.48,197.14L163.74,199.23L164.13,199.5L170.7,205.05L171.09,205.39L177.67,210.19L178.05,210.37L181.53,211.12L181.92,211.09L184.63,210.16L185.02,209.91L187.72,207.12L188.11,206.57L191.21,200.47L191.59,199.48L195.07,188.05L195.46,186.49L199.33,167.64L199.72,165.45L207.45,115.56L207.84,113.09L212.48,88.08L212.87,86.55L215.58,78.99L215.96,78.4L217.51,77.32L217.9,77.37L219.45,78.86L219.83,79.54L222.15,86.08L222.54,87.54L226.02,104.4L226.41,106.59L237.63,168.92L238.02,170.45L241.5,181.25L241.88,182.13L244.98,186.83L245.37,187.15L247.69,187.97L248.07,187.93L250.4,186.85L250.78,186.55L254.26,182.56L254.65,182.02L268.58,162.39L268.96,161.99L276.7,155.31L277.09,155.01L287.53,148.08L287.92,147.91L292.95,146.52L293.34,146.49L298.37,146.78L298.75,146.85L308.81,148.04L309.2,147.99L313.45,146.6L313.84,146.4L318.1,143.23L318.48,142.87L325.06,135.6L325.45,135.14L332.41,127.98L332.8,127.68L337.44,125.18L337.83,125.06L342.47,124.57L342.85,124.59L351.37,125.97L351.75,126.03L373.42,130.06L373.8,130.21L383.09,134.31L383.48,134.49L391.99,137.71L392.37,137.79L398.95,138.26L399.34,138.26L404.75,139.05L405.14,139.21L408.23,141.36L408.62,141.75L411.72,145.99L412.1,146.66L415.97,154.92L416.36,155.88L426.42,179.68L426.8,180.26L429.9,183.39L430.29,183.58L432.61,183.81L432.99,183.71L435.7,182L436.09,181.64L441.5,175.08L441.89,174.58L446.92,169.38L447.31,169.11L450.79,167.71L451.18,167.67L454.66,168.23L455.04,168.38L459.69,171.33L460.07,171.64L468.58,179.77L468.97,180.17L482.51,192.72L482.9,193L489.09,196.67L489.47,196.84L496.83,199.26L497.21,199.35L507.66,200.77L508.04,200.78L515.01,200.26L515.39,200.19L522.74,197.78L523.13,197.61L537.45,191.93L537.83,191.86L544.02,191.46L544.41,191.48L552.15,192.79L552.53,192.89L562.98,196.04L563.37,196.17L576.13,199.78L576.52,199.84L580,200.09" style="vector-effect: none; fill: none; stroke: rgb(99, 110, 250); stroke-opacity: 1; stroke-width: 0px; opacity: 1;"/></g><g class="points"/><g class="text"/></g><g class="trace scatter tracea57769" style="stroke-miterlimit: 2;"><g class="fills"/><g class="errorbars"/><g class="lines"><path class="js-line" d="M-193.33,143.69L-183.66,146.71L-183.27,147.24L-178.25,159.83L-177.86,161.27L-173.6,181.29L-173.22,183.43L-160.06,256.49L-159.68,257.97L-152.71,273.64L-152.33,273.94L-147.3,273.85L-146.91,273.6L-138.4,263.95L-138.01,263.43L-122.92,247.35L-122.54,247.09L-113.64,243.62L-113.25,243.58L-89.65,241.19L-89.27,240.98L-79.21,233.58L-78.82,233.24L-62.57,220.68L-62.19,220.46L-42.07,211.05L-41.68,210.94L-35.11,210.5L-34.72,210.56L-28.14,212.77L-27.76,212.96L-6.87,222.82L-6.48,222.93L3.58,226.42L3.97,226.68L7.45,229.88L7.83,230.36L11.32,235.9L11.7,236.66L16.34,247.74L16.73,248.79L26.02,272.66L26.4,273.36L29.88,277.89L30.27,278.19L32.98,279.14L33.37,279.13L36.07,278.23L36.46,278L41.88,273.84L42.26,273.55L46.52,271.17L46.91,271.06L50.39,270.91L50.78,270.98L54.64,272.67L55.03,272.91L60.83,277.61L61.22,277.96L79.4,293.48L79.79,293.76L87.91,298.53L88.3,298.71L95.65,300.99L96.04,301.06L103.78,301.75L104.16,301.76L116.15,301.06L116.54,301.01L139.75,297.89L140.14,297.76L147.1,294.52L147.49,294.31L154.84,291.29L155.23,291.23L159.1,291.3L159.48,291.38L163.74,293.22L164.13,293.46L171.48,299.15L171.86,299.46L177.67,303.23L178.05,303.38L181.53,303.98L181.92,303.94L184.63,302.91L185.02,302.64L187.72,299.75L188.11,299.18L191.21,292.96L191.59,291.96L195.07,280.52L195.46,278.97L199.72,258.55L200.1,256.42L212.1,191.64L212.48,190.34L215.19,183.97L215.58,183.47L217.13,182.58L217.51,182.62L219.06,183.9L219.45,184.48L221.77,190.04L222.15,191.29L225.64,205.87L226.02,207.78L238.4,269.5L238.79,270.82L242.27,279.99L242.66,280.7L245.37,284.08L245.75,284.34L248.07,284.9L248.46,284.83L250.78,283.66L251.17,283.35L254.65,279.5L255.04,278.98L268.19,261.71L268.58,261.33L275.54,255.35L275.93,255.05L285.99,247.99L286.37,247.78L291.79,245.77L292.18,245.7L297.21,245.62L297.59,245.67L309.97,247.07L310.36,247.01L315,245.3L315.39,245.08L320.8,240.79L321.19,240.42L333.57,228.96L333.96,228.73L338.21,227L338.6,226.92L343.24,226.64L343.63,226.66L366.07,229.12L366.45,229.18L376.9,231.8L377.29,231.93L392.37,236.52L392.76,236.55L399.34,236.15L399.72,236.11L404.75,236.27L405.14,236.39L408.23,238.19L408.62,238.54L411.72,242.5L412.1,243.14L415.97,251.11L416.36,252.04L426.8,276.11L427.19,276.66L430.29,279.59L430.67,279.77L432.99,279.98L433.38,279.88L436.09,278.35L436.47,278.03L441.89,272.34L442.28,271.92L447.31,267.51L447.69,267.27L451.56,265.93L451.95,265.89L455.82,266.36L456.2,266.48L461.23,268.99L461.62,269.24L468.58,274.53L468.97,274.86L485.99,288.45L486.38,288.68L492.96,291.77L493.34,291.91L501.08,293.92L501.47,293.99L511.14,294.81L511.53,294.79L517.72,293.95L518.1,293.85L526.23,291.04L526.61,290.88L536.67,287.52L537.06,287.45L543.25,287.1L543.64,287.12L550.6,288.35L550.99,288.46L562.2,292.17L562.59,292.32L576.13,296.47L576.52,296.53L580,296.8" style="vector-effect: none; fill: none; stroke: rgb(239, 85, 59); stroke-opacity: 1; stroke-width: 0px; opacity: 1;"/></g><g class="points"/><g class="text"/></g><g class="trace scatter trace7d157a" style="stroke-miterlimit: 2; opacity: 1;"><g class="fills"/><g class="errorbars"/><g class="lines"><path class="js-line" d="M-193.33,88.3L-183.66,90.79L-183.27,91.31L-178.25,104.41L-177.86,105.95L-169.73,151.68L-169.35,154.22L-161.61,199.97L-161.22,201.76L-155.81,219.85L-155.42,220.64L-150.01,225.61L-149.62,225.59L-144.2,221.96L-143.82,221.52L-119.83,195.75L-119.44,195.57L-110.55,193.96L-110.16,193.97L-93.52,193.27L-93.14,193.12L-84.63,187.99L-84.24,187.68L-57.16,166.21L-56.77,166L-40.14,158.79L-39.75,158.74L-33.56,159.14L-33.17,159.25L-26.6,162.24L-26.21,162.47L-7.64,172.71L-7.25,172.85L4.35,177.92L4.74,178.23L8.22,182.02L8.61,182.57L12.48,189.56L12.86,190.41L17.89,203.42L18.28,204.51L26.02,224.34L26.4,225.07L29.88,229.73L30.27,230.03L32.98,231.04L33.37,231.03L36.07,230.09L36.46,229.85L41.49,225.75L41.88,225.43L46.13,222.69L46.52,222.54L50,222.2L50.39,222.27L53.87,223.76L54.26,224L60.06,229L60.45,229.39L75.92,243.83L76.31,244.14L86.37,250.95L86.75,251.16L94.1,254.11L94.49,254.22L102.23,255.5L102.61,255.53L111.51,255.51L111.9,255.49L133.18,252.58L133.56,252.51L140.53,250.58L140.91,250.42L148.65,246.48L149.04,246.27L154.84,244.08L155.23,244.02L159.1,244.17L159.48,244.26L163.74,246.22L164.13,246.48L171.09,252.11L171.48,252.44L177.28,256.53L177.67,256.71L181.53,257.55L181.92,257.52L184.63,256.53L185.02,256.27L187.72,253.44L188.11,252.88L191.21,246.71L191.59,245.72L195.07,234.29L195.46,232.73L199.72,212L200.1,209.82L212.48,139.21L212.87,137.84L215.58,131.23L215.96,130.74L217.51,129.97L217.9,130.07L219.45,131.67L219.83,132.35L222.15,138.69L222.54,140.08L226.02,156.09L226.41,158.17L238.02,219.28L238.4,220.71L241.88,230.67L242.27,231.46L244.98,235.3L245.37,235.62L247.69,236.44L248.07,236.42L250.78,235.1L251.17,234.78L255.04,230.22L255.42,229.67L268.58,211.86L268.96,211.47L277.09,204.58L277.48,204.29L286.37,198.22L286.76,198.02L292.18,196.16L292.56,196.1L297.98,196.22L298.37,196.28L309.2,197.58L309.58,197.53L314.23,195.94L314.61,195.73L319.26,192.17L319.64,191.8L334.34,177.57L334.73,177.35L338.99,175.82L339.37,175.75L344.79,175.78L345.18,175.83L372.26,180.03L372.64,180.15L382.7,184.01L383.09,184.18L391.99,187.09L392.37,187.15L397.79,187.3L398.18,187.28L404.75,187.66L405.14,187.8L408.23,189.78L408.62,190.15L411.72,194.24L412.1,194.9L416.36,203.96L416.75,204.91L426.03,226.97L426.42,227.6L429.51,231.13L429.9,231.38L432.22,231.97L432.61,231.92L435.31,230.63L435.7,230.32L439.96,225.78L440.34,225.32L446.53,218.85L446.92,218.57L450.79,216.88L451.18,216.83L454.66,217.15L455.04,217.27L459.3,219.44L459.69,219.7L466.26,225.03L466.65,225.38L484.83,241.03L485.22,241.27L492.18,244.7L492.57,244.84L500.31,246.86L500.69,246.93L509.59,247.81L509.98,247.81L517.33,246.88L517.72,246.78L525.07,244.12L525.45,243.95L537.45,239.66L537.83,239.59L544.02,239.31L544.41,239.34L551.37,240.58L551.76,240.68L563.75,244.52L564.14,244.66L575.74,248.07L576.13,248.13L580,248.45" style="vector-effect: none; fill: none; stroke: rgb(207, 184, 124); stroke-opacity: 1; stroke-width: 3px; opacity: 1;"/></g><g class="points"/><g class="text"/></g><g class="trace scatter trace4d8c97" style="stroke-miterlimit: 2;"><g class="fills"><g><path class="js-fill" d="M-193.33,141.87L-186.76,137.95L-186.37,137.63L-180.57,136.62L-180.18,136.96L-175.54,146.5L-175.15,147.76L-167.8,181.81L-167.41,183.9L-160.06,220.21L-159.68,221.73L-152.33,239.12L-151.94,239.44L-147.3,239.39L-146.91,239.12L-139.95,229.95L-139.56,229.31L-126.41,212.29L-126.02,212.03L-115.57,208.1L-115.19,207.97L-103.97,201.93L-103.58,201.68L-93.14,197.44L-92.75,197.4L-76.11,195L-75.73,194.77L-69.15,188.78L-68.76,188.32L-57.55,171.77L-57.16,171.2L-49.81,162.89L-49.42,162.62L-44.01,160.71L-43.62,160.7L-37.43,161.91L-37.04,162.03L-27.76,163.74L-27.37,163.73L-18.86,164.29L-18.47,164.46L-14.99,167.11L-14.6,167.55L-10.74,173.52L-10.35,174.28L-5.32,186.08L-4.93,187.09L9.77,224.8L10.16,225.71L19.05,244.84L19.44,245.51L23.31,250.8L23.7,251.15L26.4,252.59L26.79,252.64L29.11,252.16L29.5,251.94L32.21,249.54L32.59,249.08L37.24,242.14L37.62,241.5L44.59,231.41L44.97,231.01L48.45,228.45L48.84,228.29L51.94,227.91L52.32,227.97L55.42,229.26L55.8,229.52L59.67,233.05L60.06,233.48L73.99,249.59L74.37,249.84L78.24,251.43L78.63,251.49L82.88,251.32L83.27,251.25L94.49,249.31L94.88,249.32L108.03,250L108.42,249.9L113.06,247.86L113.45,247.63L130.47,236.78L130.86,236.66L135.5,235.91L135.88,235.92L140.14,236.84L140.53,237L145.17,239.98L145.56,240.32L151.36,246.49L151.75,246.97L164.13,261.36L164.51,261.68L169.15,264.46L169.54,264.6L174.57,265.5L174.96,265.51L183.86,266.4L184.24,266.53L188.88,268.97L189.27,269.23L201.65,277.77L202.04,277.9L206.29,278.53L206.68,278.52L211.32,277.51L211.71,277.36L217.51,274.49L217.9,274.25L224.09,269.62L224.48,269.27L231.83,261.49L232.21,261.03L243.04,249.22L243.43,248.92L247.69,246.71L248.07,246.62L251.56,246.55L251.94,246.63L255.81,248.28L256.2,248.51L263.55,254.23L263.94,254.55L273.99,261.79L274.38,262.05L280.96,267.23L281.34,267.6L287.15,274.43L287.53,274.95L299.53,290.67L299.91,291.01L303.78,293.27L304.17,293.38L307.26,293.49L307.65,293.41L311.52,291.74L311.91,291.5L326.22,282.66L326.61,282.53L341.31,278.29L341.69,278.21L346.34,277.9L346.72,277.95L350.59,279.29L350.98,279.51L355.23,282.81L355.62,283.18L366.84,293.37L367.23,293.57L371.1,294.7L371.48,294.73L375.74,294.29L376.12,294.19L391.6,290.73L391.99,290.69L409.01,288.53L409.39,288.6L413.65,290.17L414.04,290.39L419.84,294.57L420.23,294.88L426.42,299.03L426.8,299.19L430.29,299.89L430.67,299.87L433.77,299.01L434.15,298.82L438.02,295.81L438.41,295.42L443.83,288.71L444.21,288.17L454.27,275.38L454.66,275.02L458.91,272.11L459.3,271.94L463.17,271.19L463.56,271.2L468.2,272.13L468.58,272.26L479.03,275.1L479.42,275.14L491.41,276.59L491.8,276.72L498.76,279.84L499.15,280.03L507.27,283.06L507.66,283.14L513.46,283.65L513.85,283.65L521.2,282.57L521.58,282.47L530.1,279.55L530.48,279.39L556.01,269.27L556.4,269.18L564.14,268.1L564.53,268.09L572.26,268.58L572.65,268.63L580,269.23L580,165.57L573.04,166.01L572.65,166.05L563.37,167.97L562.98,168.08L543.25,176.67L542.86,176.86L533.19,180.87L532.8,181L520.04,184.44L519.65,184.52L511.91,185.46L511.53,185.47L505.72,184.82L505.34,184.72L497.6,181.34L497.21,181.12L490.64,177.92L490.25,177.78L479.03,176.65L478.64,176.63L467.04,173.55L466.65,173.44L462.39,172.85L462.01,172.88L458.53,173.9L458.14,174.1L453.88,177.54L453.5,177.96L444.99,189.8L444.6,190.39L439.18,197.98L438.8,198.44L434.93,202.05L434.54,202.3L431.45,203.5L431.06,203.54L427.58,202.96L427.19,202.79L416.75,193.92L416.36,193.58L412.1,190.55L411.72,190.37L407.85,189.34L407.46,189.32L401.27,190.43L400.88,190.56L389.66,193.58L389.28,193.65L380.38,196.11L379.99,196.24L373.8,198.11L373.42,198.16L369.55,197.91L369.16,197.79L365.29,195.59L364.91,195.27L358.72,188.39L358.33,187.9L352.53,181.25L352.14,180.9L348.27,178.35L347.88,178.2L344.02,177.61L343.63,177.64L335.12,180.04L334.73,180.18L325.83,183.47L325.45,183.66L312.68,193.33L312.29,193.62L308.42,195.81L308.04,195.93L304.94,196.1L304.56,196.02L301.07,194.15L300.69,193.82L285.99,172.65L285.6,172.11L280.57,166.19L280.18,165.82L272.06,159.95L271.67,159.71L262,152.71L261.61,152.39L255.04,147.55L254.65,147.34L250.78,146.03L250.4,145.99L246.91,146.43L246.53,146.57L242.66,148.91L242.27,149.23L231.05,162.29L230.67,162.78L223.7,170.73L223.31,171.11L217.13,176.14L216.74,176.39L211.32,179.11L210.94,179.24L206.68,179.99L206.29,179.98L202.04,179.07L201.65,178.91L191.21,171.38L190.82,171.08L186.18,168.29L185.79,168.13L173.41,167.42L173.02,167.4L168.77,166.35L168.38,166.17L163.74,162.87L163.35,162.51L153.29,149.99L152.91,149.46L146.33,141.17L145.94,140.75L141.3,136.59L140.91,136.32L137.05,134.44L136.66,134.32L132.79,133.98L132.4,134.02L128.15,135.31L127.76,135.5L114.99,145.74L114.61,146.07L109.96,149.2L109.58,149.38L105.71,150.4L105.32,150.43L98.36,149.3L97.97,149.2L92.56,148.39L92.17,148.4L85.59,149.83L85.21,149.96L80.18,151.3L79.79,151.33L76.31,150.93L75.92,150.8L72.05,148.32L71.67,147.97L60.83,133.32L60.45,132.77L56.19,127.53L55.8,127.15L52.71,124.96L52.32,124.8L49.61,124.49L49.23,124.56L46.13,126.29L45.75,126.64L33.75,146.36L33.37,146.98L30.27,150.97L29.88,151.32L27.56,152.64L27.18,152.72L24.47,152.11L24.08,151.86L20.6,147.89L20.21,147.28L14.02,134.39L13.64,133.45L3.58,106.3L3.19,105.16L-6.87,74.55L-7.25,73.47L-11.51,63.21L-11.9,62.45L-15.38,57.1L-15.76,56.67L-19.25,54.1L-19.63,53.95L-26.21,53.37L-26.6,53.38L-38.59,51.33L-38.98,51.23L-44.39,50.86L-44.78,50.93L-50.2,53.9L-50.58,54.26L-62.19,71.51L-62.57,72.18L-70.7,84.58L-71.09,85.05L-77.66,90.85L-78.05,91.07L-89.27,93.28L-89.65,93.29L-99.33,95.52L-99.71,95.71L-123.31,104.82L-123.7,104.97L-144.2,130.51L-144.59,130.96L-149.23,133.93L-149.62,133.91L-155.42,127.2L-155.81,126.27L-167.8,69.58L-168.19,67.23L-175.92,27.36L-176.31,26.03L-180.57,16.94L-180.95,16.61L-187.14,18.95L-187.53,19.34L-193.33,23.27Z" style="fill: rgb(148, 0, 211); fill-opacity: 0.2; stroke-width: 0;"/></g></g><g class="errorbars"/><g class="lines"><path class="js-line" d="M-193.33,23.27L-187.53,19.34L-187.14,18.95L-180.95,16.61L-180.57,16.94L-176.31,26.03L-175.92,27.36L-168.19,67.23L-167.8,69.58L-155.81,126.27L-155.42,127.2L-149.62,133.91L-149.23,133.93L-144.59,130.96L-144.2,130.51L-123.7,104.97L-123.31,104.82L-99.71,95.71L-99.33,95.52L-89.65,93.29L-89.27,93.28L-78.05,91.07L-77.66,90.85L-71.09,85.05L-70.7,84.58L-62.57,72.18L-62.19,71.51L-50.58,54.26L-50.2,53.9L-44.78,50.93L-44.39,50.86L-38.98,51.23L-38.59,51.33L-26.6,53.38L-26.21,53.37L-19.63,53.95L-19.25,54.1L-15.76,56.67L-15.38,57.1L-11.9,62.45L-11.51,63.21L-7.25,73.47L-6.87,74.55L3.19,105.16L3.58,106.3L13.64,133.45L14.02,134.39L20.21,147.28L20.6,147.89L24.08,151.86L24.47,152.11L27.18,152.72L27.56,152.64L29.88,151.32L30.27,150.97L33.37,146.98L33.75,146.36L45.75,126.64L46.13,126.29L49.23,124.56L49.61,124.49L52.32,124.8L52.71,124.96L55.8,127.15L56.19,127.53L60.45,132.77L60.83,133.32L71.67,147.97L72.05,148.32L75.92,150.8L76.31,150.93L79.79,151.33L80.18,151.3L85.21,149.96L85.59,149.83L92.17,148.4L92.56,148.39L97.97,149.2L98.36,149.3L105.32,150.43L105.71,150.4L109.58,149.38L109.96,149.2L114.61,146.07L114.99,145.74L127.76,135.5L128.15,135.31L132.4,134.02L132.79,133.98L136.66,134.32L137.05,134.44L140.91,136.32L141.3,136.59L145.94,140.75L146.33,141.17L152.91,149.46L153.29,149.99L163.35,162.51L163.74,162.87L168.38,166.17L168.77,166.35L173.02,167.4L173.41,167.42L185.79,168.13L186.18,168.29L190.82,171.08L191.21,171.38L201.65,178.91L202.04,179.07L206.29,179.98L206.68,179.99L210.94,179.24L211.32,179.11L216.74,176.39L217.13,176.14L223.31,171.11L223.7,170.73L230.67,162.78L231.05,162.29L242.27,149.23L242.66,148.91L246.53,146.57L246.91,146.43L250.4,145.99L250.78,146.03L254.65,147.34L255.04,147.55L261.61,152.39L262,152.71L271.67,159.71L272.06,159.95L280.18,165.82L280.57,166.19L285.6,172.11L285.99,172.65L300.69,193.82L301.07,194.15L304.56,196.02L304.94,196.1L308.04,195.93L308.42,195.81L312.29,193.62L312.68,193.33L325.45,183.66L325.83,183.47L334.73,180.18L335.12,180.04L343.63,177.64L344.02,177.61L347.88,178.2L348.27,178.35L352.14,180.9L352.53,181.25L358.33,187.9L358.72,188.39L364.91,195.27L365.29,195.59L369.16,197.79L369.55,197.91L373.42,198.16L373.8,198.11L379.99,196.24L380.38,196.11L389.28,193.65L389.66,193.58L400.88,190.56L401.27,190.43L407.46,189.32L407.85,189.34L411.72,190.37L412.1,190.55L416.36,193.58L416.75,193.92L427.19,202.79L427.58,202.96L431.06,203.54L431.45,203.5L434.54,202.3L434.93,202.05L438.8,198.44L439.18,197.98L444.6,190.39L444.99,189.8L453.5,177.96L453.88,177.54L458.14,174.1L458.53,173.9L462.01,172.88L462.39,172.85L466.65,173.44L467.04,173.55L478.64,176.63L479.03,176.65L490.25,177.78L490.64,177.92L497.21,181.12L497.6,181.34L505.34,184.72L505.72,184.82L511.53,185.47L511.91,185.46L519.65,184.52L520.04,184.44L532.8,181L533.19,180.87L542.86,176.86L543.25,176.67L562.98,168.08L563.37,167.97L572.65,166.05L573.04,166.01L580,165.57" style="vector-effect: none; fill: none; stroke: rgb(171, 99, 250); stroke-opacity: 1; stroke-width: 0px; opacity: 1;"/></g><g class="points"/><g class="text"/></g><g class="trace scatter tracee386d2" style="stroke-miterlimit: 2;"><g class="fills"/><g class="errorbars"/><g class="lines"><path class="js-line" d="M-193.33,141.87L-186.76,137.95L-186.37,137.63L-180.57,136.62L-180.18,136.96L-175.54,146.5L-175.15,147.76L-167.8,181.81L-167.41,183.9L-160.06,220.21L-159.68,221.73L-152.33,239.12L-151.94,239.44L-147.3,239.39L-146.91,239.12L-139.95,229.95L-139.56,229.31L-126.41,212.29L-126.02,212.03L-115.57,208.1L-115.19,207.97L-103.97,201.93L-103.58,201.68L-93.14,197.44L-92.75,197.4L-76.11,195L-75.73,194.77L-69.15,188.78L-68.76,188.32L-57.55,171.77L-57.16,171.2L-49.81,162.89L-49.42,162.62L-44.01,160.71L-43.62,160.7L-37.43,161.91L-37.04,162.03L-27.76,163.74L-27.37,163.73L-18.86,164.29L-18.47,164.46L-14.99,167.11L-14.6,167.55L-10.74,173.52L-10.35,174.28L-5.32,186.08L-4.93,187.09L9.77,224.8L10.16,225.71L19.05,244.84L19.44,245.51L23.31,250.8L23.7,251.15L26.4,252.59L26.79,252.64L29.11,252.16L29.5,251.94L32.21,249.54L32.59,249.08L37.24,242.14L37.62,241.5L44.59,231.41L44.97,231.01L48.45,228.45L48.84,228.29L51.94,227.91L52.32,227.97L55.42,229.26L55.8,229.52L59.67,233.05L60.06,233.48L73.99,249.59L74.37,249.84L78.24,251.43L78.63,251.49L82.88,251.32L83.27,251.25L94.49,249.31L94.88,249.32L108.03,250L108.42,249.9L113.06,247.86L113.45,247.63L130.47,236.78L130.86,236.66L135.5,235.91L135.88,235.92L140.14,236.84L140.53,237L145.17,239.98L145.56,240.32L151.36,246.49L151.75,246.97L164.13,261.36L164.51,261.68L169.15,264.46L169.54,264.6L174.57,265.5L174.96,265.51L183.86,266.4L184.24,266.53L188.88,268.97L189.27,269.23L201.65,277.77L202.04,277.9L206.29,278.53L206.68,278.52L211.32,277.51L211.71,277.36L217.51,274.49L217.9,274.25L224.09,269.62L224.48,269.27L231.83,261.49L232.21,261.03L243.04,249.22L243.43,248.92L247.69,246.71L248.07,246.62L251.56,246.55L251.94,246.63L255.81,248.28L256.2,248.51L263.55,254.23L263.94,254.55L273.99,261.79L274.38,262.05L280.96,267.23L281.34,267.6L287.15,274.43L287.53,274.95L299.53,290.67L299.91,291.01L303.78,293.27L304.17,293.38L307.26,293.49L307.65,293.41L311.52,291.74L311.91,291.5L326.22,282.66L326.61,282.53L341.31,278.29L341.69,278.21L346.34,277.9L346.72,277.95L350.59,279.29L350.98,279.51L355.23,282.81L355.62,283.18L366.84,293.37L367.23,293.57L371.1,294.7L371.48,294.73L375.74,294.29L376.12,294.19L391.6,290.73L391.99,290.69L409.01,288.53L409.39,288.6L413.65,290.17L414.04,290.39L419.84,294.57L420.23,294.88L426.42,299.03L426.8,299.19L430.29,299.89L430.67,299.87L433.77,299.01L434.15,298.82L438.02,295.81L438.41,295.42L443.83,288.71L444.21,288.17L454.27,275.38L454.66,275.02L458.91,272.11L459.3,271.94L463.17,271.19L463.56,271.2L468.2,272.13L468.58,272.26L479.03,275.1L479.42,275.14L491.41,276.59L491.8,276.72L498.76,279.84L499.15,280.03L507.27,283.06L507.66,283.14L513.46,283.65L513.85,283.65L521.2,282.57L521.58,282.47L530.1,279.55L530.48,279.39L556.01,269.27L556.4,269.18L564.14,268.1L564.53,268.09L572.26,268.58L572.65,268.63L580,269.23" style="vector-effect: none; fill: none; stroke: rgb(255, 161, 90); stroke-opacity: 1; stroke-width: 0px; opacity: 1;"/></g><g class="points"/><g class="text"/></g><g class="trace scatter trace15794c" style="stroke-miterlimit: 2; opacity: 1;"><g class="fills"/><g class="errorbars"/><g class="lines"><path class="js-line" d="M-193.33,82.57L-187.14,78.61L-186.76,78.25L-180.57,76.78L-180.18,77.15L-175.54,87.64L-175.15,89.02L-167.03,130.13L-166.64,132.35L-155.42,180.84L-155.03,181.67L-149.62,187.08L-149.23,187.07L-144.2,183.41L-143.82,182.92L-124.09,158.03L-123.7,157.86L-89.65,145.29L-89.27,145.28L-78.44,143.7L-78.05,143.52L-71.86,138.83L-71.47,138.42L-63.35,127.12L-62.96,126.49L-50.58,108.88L-50.2,108.54L-44.78,105.86L-44.39,105.8L-38.59,106.44L-38.2,106.55L-27.76,108.57L-27.37,108.56L-18.86,109.29L-18.47,109.47L-14.99,112.34L-14.6,112.8L-10.74,119.18L-10.35,119.98L-5.32,132.56L-4.93,133.64L10.16,175.16L10.54,176.11L18.67,194.35L19.05,195.06L23.31,201.02L23.7,201.36L26.4,202.67L26.79,202.7L29.11,202.04L29.5,201.79L32.59,198.61L32.98,198.08L38.01,189.74L38.4,189.05L44.2,180.09L44.59,179.64L48.07,176.81L48.45,176.63L51.55,176.22L51.94,176.29L55.03,177.74L55.42,178.03L59.67,182.37L60.06,182.86L73.21,199.15L73.6,199.43L77.47,201.24L77.86,201.32L81.72,201.26L82.11,201.19L94.49,198.91L94.88,198.94L107.64,200.08L108.03,199.98L112.29,198.07L112.67,197.82L119.25,192.72L119.64,192.39L126.99,187.11L127.37,186.9L132.79,185.07L133.18,185.02L137.43,185.32L137.82,185.42L142.07,187.47L142.46,187.74L147.1,191.9L147.49,192.32L154.07,200.47L154.45,200.98L163.74,211.95L164.13,212.3L168.38,215.15L168.77,215.32L173.02,216.39L173.41,216.42L185.4,217.49L185.79,217.65L190.43,220.44L190.82,220.73L202.04,228.49L202.42,228.62L206.68,229.25L207.07,229.23L211.71,228.17L212.1,228.02L218.29,224.67L218.67,224.41L224.86,219.23L225.25,218.85L232.6,210.44L232.99,209.96L241.88,199.87L242.27,199.54L246.91,196.69L247.3,196.57L250.78,196.24L251.17,196.29L255.04,197.7L255.42,197.91L261.23,202.19L261.61,202.51L272.45,210.47L272.83,210.72L280.57,216.52L280.96,216.9L286.37,223.3L286.76,223.84L300.3,242.4L300.69,242.72L304.17,244.64L304.56,244.74L307.65,244.72L308.04,244.62L311.91,242.7L312.29,242.44L325.83,233.14L326.22,232.98L335.89,229.8L336.28,229.68L344.02,227.74L344.4,227.72L348.27,228.33L348.66,228.48L352.53,230.89L352.91,231.22L358.33,236.91L358.72,237.36L365.29,244L365.68,244.28L369.55,246.17L369.93,246.27L373.8,246.37L374.19,246.32L380.77,244.4L381.15,244.27L390.44,242.15L390.83,242.09L408.62,238.94L409.01,239L413.26,240.59L413.65,240.82L418.68,244.69L419.07,245.04L426.42,250.71L426.8,250.89L430.29,251.73L430.67,251.72L433.77,250.87L434.15,250.67L437.64,247.95L438.02,247.56L443.05,241.24L443.44,240.69L454.66,225.89L455.04,225.54L459.3,222.74L459.69,222.6L463.56,222.03L463.94,222.05L468.97,223.29L469.36,223.43L477.87,225.77L478.26,225.81L491.02,227.26L491.41,227.4L497.99,230.5L498.37,230.7L506.11,233.84L506.5,233.93L512.3,234.55L512.69,234.55L520.04,233.64L520.42,233.56L531.26,230.29L531.64,230.15L547.89,223.12L548.28,222.95L558.72,219.1L559.11,219L566.85,217.59L567.23,217.55L578.84,217.4L579.23,217.4L580,217.4" style="vector-effect: none; fill: none; stroke: rgb(148, 0, 211); stroke-opacity: 1; stroke-width: 3px; opacity: 1;"/></g><g class="points"/><g class="text"/></g></g></g></g><g class="zerolinelayer-above"/><path class="xlines-above crisp" d="M79,420.5H661M79,99.5H661" style="fill: none; stroke-width: 1px; stroke: rgb(0, 0, 0); stroke-opacity: 1;"/><path class="ylines-above crisp" d="M79.5,100V420M660.5,100V420" style="fill: none; stroke-width: 1px; stroke: rgb(0, 0, 0); stroke-opacity: 1;"/><g class="overlines-above"/><g class="xaxislayer-above"><path class="xtick ticks crisp" d="M0,421v5" transform="translate(118.67,0)" style="stroke: rgb(68, 68, 68); stroke-opacity: 1; stroke-width: 1px;"/><path class="xtick ticks crisp" d="M0,421v5" transform="translate(196,0)" style="stroke: rgb(68, 68, 68); stroke-opacity: 1; stroke-width: 1px;"/><path class="xtick ticks crisp" d="M0,421v5" transform="translate(273.33000000000004,0)" style="stroke: rgb(68, 68, 68); stroke-opacity: 1; stroke-width: 1px;"/><path class="xtick ticks crisp" d="M0,421v5" transform="translate(350.67,0)" style="stroke: rgb(68, 68, 68); stroke-opacity: 1; stroke-width: 1px;"/><path class="xtick ticks crisp" d="M0,421v5" transform="translate(428,0)" style="stroke: rgb(68, 68, 68); stroke-opacity: 1; stroke-width: 1px;"/><path class="xtick ticks crisp" d="M0,421v5" transform="translate(505.33,0)" style="stroke: rgb(68, 68, 68); stroke-opacity: 1; stroke-width: 1px;"/><path class="xtick ticks crisp" d="M0,421v5" transform="translate(582.6700000000001,0)" style="stroke: rgb(68, 68, 68); stroke-opacity: 1; stroke-width: 1px;"/><path class="xtick ticks crisp" d="M0,421v5" transform="translate(660,0)" style="stroke: rgb(68, 68, 68); stroke-opacity: 1; stroke-width: 1px;"/><g class="xtick"><text text-anchor="middle" x="0" y="440.4" transform="translate(118.67,0)" style="font-family: 'Open Sans', verdana, arial, sans-serif; font-size: 12px; fill: rgb(42, 63, 95); fill-opacity: 1; white-space: pre;">−400</text></g><g class="xtick"><text text-anchor="middle" x="0" y="440.4" style="font-family: 'Open Sans', verdana, arial, sans-serif; font-size: 12px; fill: rgb(42, 63, 95); fill-opacity: 1; white-space: pre;" transform="translate(196,0)">−200</text></g><g class="xtick"><text text-anchor="middle" x="0" y="440.4" style="font-family: 'Open Sans', verdana, arial, sans-serif; font-size: 12px; fill: rgb(42, 63, 95); fill-opacity: 1; white-space: pre;" transform="translate(273.33000000000004,0)">0</text></g><g class="xtick"><text text-anchor="middle" x="0" y="440.4" style="font-family: 'Open Sans', verdana, arial, sans-serif; font-size: 12px; fill: rgb(42, 63, 95); fill-opacity: 1; white-space: pre;" transform="translate(350.67,0)">200</text></g><g class="xtick"><text text-anchor="middle" x="0" y="440.4" style="font-family: 'Open Sans', verdana, arial, sans-serif; font-size: 12px; fill: rgb(42, 63, 95); fill-opacity: 1; white-space: pre;" transform="translate(428,0)">400</text></g><g class="xtick"><text text-anchor="middle" x="0" y="440.4" style="font-family: 'Open Sans', verdana, arial, sans-serif; font-size: 12px; fill: rgb(42, 63, 95); fill-opacity: 1; white-space: pre;" transform="translate(505.33,0)">600</text></g><g class="xtick"><text text-anchor="middle" x="0" y="440.4" style="font-family: 'Open Sans', verdana, arial, sans-serif; font-size: 12px; fill: rgb(42, 63, 95); fill-opacity: 1; white-space: pre;" transform="translate(582.6700000000001,0)">800</text></g><g class="xtick"><text text-anchor="middle" x="0" y="440.4" style="font-family: 'Open Sans', verdana, arial, sans-serif; font-size: 12px; fill: rgb(42, 63, 95); fill-opacity: 1; white-space: pre;" transform="translate(660,0)">1000</text></g></g><g class="yaxislayer-above"><path class="ytick ticks crisp" d="M79,0h-5" transform="translate(0,357.96)" style="stroke: rgb(68, 68, 68); stroke-opacity: 1; stroke-width: 1px;"/><path class="ytick ticks crisp" d="M79,0h-5" transform="translate(0,289.22)" style="stroke: rgb(68, 68, 68); stroke-opacity: 1; stroke-width: 1px;"/><path class="ytick ticks crisp" d="M79,0h-5" transform="translate(0,220.48000000000002)" style="stroke: rgb(68, 68, 68); stroke-opacity: 1; stroke-width: 1px;"/><path class="ytick ticks crisp" d="M79,0h-5" transform="translate(0,151.75)" style="stroke: rgb(68, 68, 68); stroke-opacity: 1; stroke-width: 1px;"/><g class="ytick"><text text-anchor="end" x="71.6" y="4.199999999999999" transform="translate(0,357.96)" style="font-family: 'Open Sans', verdana, arial, sans-serif; font-size: 12px; fill: rgb(42, 63, 95); fill-opacity: 1; white-space: pre;">6.5</text></g><g class="ytick"><text text-anchor="end" x="71.6" y="4.199999999999999" style="font-family: 'Open Sans', verdana, arial, sans-serif; font-size: 12px; fill: rgb(42, 63, 95); fill-opacity: 1; white-space: pre;" transform="translate(0,289.22)">7</text></g><g class="ytick"><text text-anchor="end" x="71.6" y="4.199999999999999" style="font-family: 'Open Sans', verdana, arial, sans-serif; font-size: 12px; fill: rgb(42, 63, 95); fill-opacity: 1; white-space: pre;" transform="translate(0,220.48000000000002)">7.5</text></g><g class="ytick"><text text-anchor="end" x="71.6" y="4.199999999999999" style="font-family: 'Open Sans', verdana, arial, sans-serif; font-size: 12px; fill: rgb(42, 63, 95); fill-opacity: 1; white-space: pre;" transform="translate(0,151.75)">8</text></g></g><g class="overaxes-above"/></g></g><g class="polarlayer"/><g class="smithlayer"/><g class="ternarylayer"/><g class="geolayer"/><g class="funnelarealayer"/><g class="pielayer"/><g class="iciclelayer"/><g class="treemaplayer"/><g class="sunburstlayer"/><g class="glimages"/><defs id="topdefs-9b9953"><g class="clips"/><clipPath id="legend9b9953"><rect width="296" height="29" x="1" y="1"/></clipPath></defs><g class="layer-above"><g class="imagelayer"/><g class="shapelayer"><g class="shape-group" data-index="0" clip-path="url(#clip9b9953x)"><path data-index="0" fill-rule="evenodd" d="M273.33000000000004,420L273.33000000000004,100" style="opacity: 1; stroke: rgb(255, 0, 0); stroke-opacity: 1; fill: rgb(0, 0, 0); fill-opacity: 0; stroke-dasharray: 9px, 9px; stroke-width: 2px;"/></g></g></g><g class="infolayer"><g class="legend" pointer-events="all" transform="translate(362,62.599999999999994)"><rect class="bg" shape-rendering="crispEdges" style="stroke: rgb(0, 0, 0); stroke-opacity: 1; fill: rgb(255, 255, 255); fill-opacity: 0.8; stroke-width: 1px;" width="297" height="30" x="0.5" y="0.5"/><g class="scrollbox" transform="" clip-path="url(#legend9b9953)"><g class="groups" transform=""><g class="traces" transform="translate(0,15.5)" style="opacity: 1;"><text class="legendtext" text-anchor="start" x="40" y="4.680000000000001" style="font-family: 'Open Sans', verdana, arial, sans-serif; font-size: 12px; fill: rgb(42, 63, 95); fill-opacity: 1; white-space: pre;">Standard (AAAB)</text><g class="layers" style="opacity: 1;"><g class="legendfill"/><g class="legendlines"><path class="js-line" d="M5,0h30" style="fill: none; stroke: rgb(207, 184, 124); stroke-opacity: 1; stroke-width: 3px;"/></g><g class="legendsymbols"><g class="legendpoints"/></g></g><rect class="legendtoggle" x="0" y="-9.5" width="145.46875" height="19" style="fill: rgb(0, 0, 0); fill-opacity: 0;"/></g></g><g class="groups" transform="translate(147.96875,0)"><g class="traces" transform="translate(0,15.5)" style="opacity: 1;"><text class="legendtext" text-anchor="start" x="40" y="4.680000000000001" style="font-family: 'Open Sans', verdana, arial, sans-serif; font-size: 12px; fill: rgb(42, 63, 95); fill-opacity: 1; white-space: pre;">Omission (AXAB)</text><g class="layers" style="opacity: 1;"><g class="legendfill"/><g class="legendlines"><path class="js-line" d="M5,0h30" style="fill: none; stroke: rgb(148, 0, 211); stroke-opacity: 1; stroke-width: 3px;"/></g><g class="legendsymbols"><g class="legendpoints"/></g></g><rect class="legendtoggle" x="0" y="-9.5" width="145.5546875" height="19" style="fill: rgb(0, 0, 0); fill-opacity: 0;"/></g></g></g><rect class="scrollbar" rx="20" ry="3" width="0" height="0" style="fill: rgb(128, 139, 164); fill-opacity: 1;" x="0" y="0"/></g><g class="g-gtitle"><text class="gtitle" x="350" y="50" text-anchor="middle" dy="0em" style="opacity: 1; font-family: Arial; font-size: 18px; fill: rgb(0, 0, 0); fill-opacity: 1; white-space: pre;"><tspan class="line" dy="0em" x="350" y="50"><tspan style="font-weight:bold">Figure f002: MST Omission-Local PSTH</tspan></tspan><tspan class="line" dy="1.3em" x="350" y="50">​<tspan style="font-size:70%" dy="-0.6em">n=305 units | Mean ± SEM | 0ms = Omission Onset</tspan><tspan dy="0.42em">​</tspan></tspan></text></g><g class="g-xtitle"><text class="xtitle" x="370" y="467.200390625" text-anchor="middle" style="opacity: 1; font-family: 'Open Sans', verdana, arial, sans-serif; font-size: 14px; fill: rgb(42, 63, 95); fill-opacity: 1; white-space: pre;">Time from Omission (ms)</text></g><g class="g-ytitle"><text class="ytitle" transform="rotate(-90,32.574609375,260)" x="32.574609375" y="260" text-anchor="middle" style="opacity: 1; font-family: 'Open Sans', verdana, arial, sans-serif; font-size: 14px; fill: rgb(42, 63, 95); fill-opacity: 1; white-space: pre;">Firing Rate (Hz)</text></g><g class="annotation" data-index="0" style="opacity: 1;"><g class="annotation-text-g" transform="rotate(0,322.83000000000004,109.5)"><g class="cursor-pointer" transform="translate(273,100)"><rect class="bg" x="0.5" y="0.5" width="98" height="18" style="stroke-width: 1px; stroke: rgb(0, 0, 0); stroke-opacity: 0; fill: rgb(0, 0, 0); fill-opacity: 0;"/><text class="annotation-text" text-anchor="middle" x="49.23828125" y="14" style="font-family: 'Open Sans', verdana, arial, sans-serif; font-size: 12px; fill: rgb(42, 63, 95); fill-opacity: 1; white-space: pre;">Omission Onset</text></g></g></g></g></svg>