<svg class="main-svg" xmlns="http://www.w3.org/2000/svg" xmlns:xlink="http://www.w3.org/1999/xlink" width="700" height="500" style="" viewBox="0 0 700 500"><rect x="0" y="0" width="700" height="500" style="fill: rgb(255, 255, 255); fill-opacity: 1;"/><defs id="defs-0fa578"><g class="clips"><clipPath id="clip0fa578xyplot" class="plotclip"><rect width="580" height="320"/></clipPath><clipPath class="axesclip" id="clip0fa578x"><rect x="80" y="0" width="580" height="500"/></clipPath><clipPath class="axesclip" id="clip0fa578y"><rect x="0" y="100" width="700" height="320"/></clipPath><clipPath class="axesclip" id="clip0fa578xy"><rect x="80" y="100" width="580" height="320"/></clipPath></g><g class="gradients"/><g class="patterns"/></defs><g class="bglayer"/><g class="layer-below"><g class="imagelayer"/><g class="shapelayer"/></g><g class="cartesianlayer"><g class="subplot xy"><g class="layer-subplot"><g class="shapelayer"/><g class="imagelayer"/></g><g class="minor-gridlayer"><g class="x"/><g class="y"/></g><g class="gridlayer"><g class="x"><path class="xgrid crisp" transform="translate(118.67,0)" d="M0,100v320" style="stroke: rgb(211, 211, 211); stroke-opacity: 1; stroke-width: 1px;"/><path class="xgrid crisp" transform="translate(196,0)" d="M0,100v320" style="stroke: rgb(211, 211, 211); stroke-opacity: 1; stroke-width: 1px;"/><path class="xgrid crisp" transform="translate(350.67,0)" d="M0,100v320" style="stroke: rgb(211, 211, 211); stroke-opacity: 1; stroke-width: 1px;"/><path class="xgrid crisp" transform="translate(428,0)" d="M0,100v320" style="stroke: rgb(211, 211, 211); stroke-opacity: 1; stroke-width: 1px;"/><path class="xgrid crisp" transform="translate(505.33,0)" d="M0,100v320" style="stroke: rgb(211, 211, 211); stroke-opacity: 1; stroke-width: 1px;"/><path class="xgrid crisp" transform="translate(582.6700000000001,0)" d="M0,100v320" style="stroke: rgb(211, 211, 211); stroke-opacity: 1; stroke-width: 1px;"/></g><g class="y"><path class="ygrid crisp" transform="translate(0,390.42)" d="M80,0h580" style="stroke: rgb(211, 211, 211); stroke-opacity: 1; stroke-width: 1px;"/><path class="ygrid crisp" transform="translate(0,345.47)" d="M80,0h580" style="stroke: rgb(211, 211, 211); stroke-opacity: 1; stroke-width: 1px;"/><path class="ygrid crisp" transform="translate(0,300.52)" d="M80,0h580" style="stroke: rgb(211, 211, 211); stroke-opacity: 1; stroke-width: 1px;"/><path class="ygrid crisp" transform="translate(0,255.57)" d="M80,0h580" style="stroke: rgb(211, 211, 211); stroke-opacity: 1; stroke-width: 1px;"/><path class="ygrid crisp" transform="translate(0,210.62)" d="M80,0h580" style="stroke: rgb(211, 211, 211); stroke-opacity: 1; stroke-width: 1px;"/><path class="ygrid crisp" transform="translate(0,165.66)" d="M80,0h580" style="stroke: rgb(211, 211, 211); stroke-opacity: 1; stroke-width: 1px;"/><path class="ygrid crisp" transform="translate(0,120.71000000000001)" d="M80,0h580" style="stroke: rgb(211, 211, 211); stroke-opacity: 1; stroke-width: 1px;"/></g></g><g class="zerolinelayer"><path class="xzl zl crisp" transform="translate(273.33000000000004,0)" d="M0,100v320" style="stroke: rgb(235, 240, 248); stroke-opacity: 1; stroke-width: 2px;"/></g><g class="layer-between"><g class="shapelayer"/><g class="imagelayer"/></g><path class="xlines-below"/><path class="ylines-below"/><g class="overlines-below"/><g class="xaxislayer-below"/><g class="yaxislayer-below"/><g class="overaxes-below"/><g class="overplot"><g class="xy" transform="translate(80,100)" clip-path="url(#clip0fa578xyplot)"><g class="scatterlayer mlayer"><g class="trace scatter trace9b877b" style="stroke-miterlimit: 2;"><g class="fills"><g><path class="js-fill" d="M-193.33,292.92L-187.53,289.15L-187.14,288.64L-180.18,273.56L-179.79,272.39L-168.96,228.4L-168.57,226.61L-156.19,180.98L-155.81,180.2L-149.62,173.73L-149.23,173.65L-142.65,175.51L-142.27,175.71L-131.82,178.44L-131.44,178.39L-112.48,173.66L-112.09,173.69L-103.97,176.83L-103.58,177.09L-83.08,190.85L-82.69,190.88L-76.11,189.46L-75.73,189.28L-57.55,181.05L-57.16,181.04L-50.58,182.37L-50.2,182.53L-31.63,189.39L-31.24,189.41L-21.18,188.67L-20.79,188.63L-9.96,188.59L-9.57,188.62L10.54,190.85L10.93,190.96L28.34,195.47L28.72,195.52L36.07,197.14L36.46,197.3L41.1,200.04L41.49,200.34L46.52,205.39L46.91,205.85L54.64,216.74L55.03,217.33L68.57,236.84L68.96,237.3L74.37,242.62L74.76,242.92L79.4,245.41L79.79,245.53L84.05,245.96L84.43,245.92L89.07,244.75L89.46,244.6L100.68,239.2L101.07,239.01L112.29,234.19L112.67,234.06L120.02,232.52L120.41,232.49L127.76,232.66L128.15,232.7L141.69,234.85L142.07,234.93L152.13,237.72L152.52,237.86L175.34,246.84L175.73,247L186.56,252.52L186.95,252.73L194.3,255.84L194.69,255.94L199.72,256.42L200.1,256.39L205.13,255.27L205.52,255.12L210.55,252.26L210.94,251.96L215.19,247.67L215.58,247.17L219.83,240.29L220.22,239.52L224.48,229.17L224.86,228.06L229.5,212.35L229.89,210.86L236.47,182.57L236.86,180.81L244.98,146.7L245.37,145.35L249.62,133.07L250.01,132.19L253.88,125.66L254.26,125.22L257.36,122.82L257.75,122.65L261.23,122.14L261.61,122.17L265.87,123.37L266.26,123.54L272.83,127.45L273.22,127.75L278.64,132.86L279.02,133.3L284.05,140.33L284.44,140.97L289.85,151.45L290.24,152.3L298.37,171.96L298.75,172.92L306.88,191.13L307.26,191.85L312.29,199.46L312.68,199.91L317.32,203.94L317.71,204.18L322.35,205.91L322.74,205.99L328.93,206.27L329.31,206.25L338.21,204.85L338.6,204.74L344.79,202.24L345.18,202.03L360.65,193.67L361.04,193.59L365.29,193.65L365.68,193.74L369.93,195.45L370.32,195.67L377.67,200.66L378.06,200.92L383.86,203.92L384.25,204.04L388.5,204.45L388.89,204.41L393.15,203.05L393.53,202.86L399.34,198.94L399.72,198.63L411.72,190.22L412.1,190.04L418.68,187.61L419.07,187.5L428.74,185.68L429.12,185.65L434.54,186.09L434.93,186.2L439.18,188.2L439.57,188.47L443.83,192.32L444.21,192.76L449.63,199.91L450.02,200.47L460.07,214.49L460.46,214.92L465.49,219.35L465.88,219.6L470.91,221.92L471.29,222.05L484.83,226.68L485.22,226.89L500.69,235.06L501.08,235.15L506.5,235.52L506.88,235.5L524.68,234.27L525.07,234.3L543.25,235.5L543.64,235.52L551.37,236.62L551.76,236.71L570.72,241.05L571.1,241.08L580,241.38L580,155.41L570.33,155.21L569.94,155.18L550.99,150.62L550.6,150.53L537.83,149.14L537.45,149.12L522.36,147.99L521.97,147.99L511.53,149.46L511.14,149.54L504.95,150.41L504.56,150.41L499.53,149.61L499.15,149.49L492.18,145.86L491.8,145.61L484.06,140.82L483.67,140.62L474,137.43L473.61,137.33L468.2,135.45L467.81,135.26L462.78,131.49L462.39,131.1L446.53,107.09L446.15,106.51L441.12,100.12L440.73,99.73L436.47,96.38L436.09,96.16L431.45,94.49L431.06,94.42L424.87,94.23L424.48,94.27L416.36,95.8L415.97,95.92L410.17,98.58L409.78,98.81L402.82,104.31L402.43,104.66L395.47,110.7L395.08,110.98L390.83,113.22L390.44,113.34L386.96,113.68L386.57,113.64L382.7,112.34L382.31,112.13L374.58,106.12L374.19,105.79L368.39,101.44L368,101.23L364.13,99.89L363.75,99.83L359.88,100.17L359.49,100.28L354.07,103.07L353.69,103.33L344.02,110.05L343.63,110.27L337.44,112.95L337.05,113.07L328.93,114.63L328.54,114.66L323.12,114.51L322.74,114.44L318.48,112.87L318.1,112.64L313.84,108.92L313.45,108.46L308.81,101.33L308.42,100.6L301.46,84.31L301.07,83.27L290.63,54.46L290.24,53.47L283.67,38.62L283.28,37.88L277.48,28.38L277.09,27.86L271.29,21.38L270.9,21.03L265.87,17.47L265.48,17.27L261.61,16.05L261.23,16.01L258.13,16.54L257.75,16.72L254.65,19.29L254.26,19.77L250.78,25.93L250.4,26.84L246.14,39.77L245.75,41.22L233.37,101.31L232.99,103.27L226.8,131.63L226.41,133.15L221.77,148.64L221.38,149.7L217.51,158.48L217.13,159.19L213.26,164.86L212.87,165.31L208.61,169.02L208.23,169.28L203.2,171.56L202.81,171.67L197.78,172.35L197.4,172.35L192.37,171.47L191.98,171.35L181.15,165.85L180.76,165.62L162.96,156.6L162.58,156.41L152.52,152.04L152.13,151.89L134.34,146.97L133.95,146.89L125.05,145.26L124.67,145.22L118.09,145.21L117.7,145.26L110.74,147.01L110.35,147.15L97.59,153.04L97.2,153.24L89.07,157.14L88.69,157.28L84.05,158.33L83.66,158.35L79.79,157.84L79.4,157.72L74.76,155.18L74.37,154.88L68.96,149.51L68.57,149.05L51.55,122.91L51.16,122.29L44.59,112.87L44.2,112.4L39.17,107.33L38.78,107.02L33.75,104L33.37,103.84L10.54,96.04L10.16,95.93L-11.12,93.59L-11.51,93.57L-23.89,93.96L-24.28,93.99L-32.01,94.01L-32.4,93.96L-49.42,85.93L-49.81,85.74L-56.38,83.67L-56.77,83.64L-75.73,91.36L-76.11,91.52L-82.3,92.51L-82.69,92.46L-103.97,75.84L-104.36,75.54L-112.48,71.38L-112.87,71.29L-131.05,75.07L-131.44,75.18L-146.14,72.18L-146.52,72.06L-152.33,73.4L-152.71,73.78L-160.45,91.98L-160.84,93.43L-170.9,142.35L-171.28,144.38L-180.95,186.89L-181.34,188.12L-187.53,202.11L-187.92,202.65L-193.33,206.32Z" style="fill: rgb(207, 184, 124); fill-opacity: 0.2; stroke-width: 0;"/></g></g><g class="errorbars"/><g class="lines"><path class="js-line" d="M-193.33,206.32L-187.92,202.65L-187.53,202.11L-181.34,188.12L-180.95,186.89L-171.28,144.38L-170.9,142.35L-160.84,93.43L-160.45,91.98L-152.71,73.78L-152.33,73.4L-146.52,72.06L-146.14,72.18L-131.44,75.18L-131.05,75.07L-112.87,71.29L-112.48,71.38L-104.36,75.54L-103.97,75.84L-82.69,92.46L-82.3,92.51L-76.11,91.52L-75.73,91.36L-56.77,83.64L-56.38,83.67L-49.81,85.74L-49.42,85.93L-32.4,93.96L-32.01,94.01L-24.28,93.99L-23.89,93.96L-11.51,93.57L-11.12,93.59L10.16,95.93L10.54,96.04L33.37,103.84L33.75,104L38.78,107.02L39.17,107.33L44.2,112.4L44.59,112.87L51.16,122.29L51.55,122.91L68.57,149.05L68.96,149.51L74.37,154.88L74.76,155.18L79.4,157.72L79.79,157.84L83.66,158.35L84.05,158.33L88.69,157.28L89.07,157.14L97.2,153.24L97.59,153.04L110.35,147.15L110.74,147.01L117.7,145.26L118.09,145.21L124.67,145.22L125.05,145.26L133.95,146.89L134.34,146.97L152.13,151.89L152.52,152.04L162.58,156.41L162.96,156.6L180.76,165.62L181.15,165.85L191.98,171.35L192.37,171.47L197.4,172.35L197.78,172.35L202.81,171.67L203.2,171.56L208.23,169.28L208.61,169.02L212.87,165.31L213.26,164.86L217.13,159.19L217.51,158.48L221.38,149.7L221.77,148.64L226.41,133.15L226.8,131.63L232.99,103.27L233.37,101.31L245.75,41.22L246.14,39.77L250.4,26.84L250.78,25.93L254.26,19.77L254.65,19.29L257.75,16.72L258.13,16.54L261.23,16.01L261.61,16.05L265.48,17.27L265.87,17.47L270.9,21.03L271.29,21.38L277.09,27.86L277.48,28.38L283.28,37.88L283.67,38.62L290.24,53.47L290.63,54.46L301.07,83.27L301.46,84.31L308.42,100.6L308.81,101.33L313.45,108.46L313.84,108.92L318.1,112.64L318.48,112.87L322.74,114.44L323.12,114.51L328.54,114.66L328.93,114.63L337.05,113.07L337.44,112.95L343.63,110.27L344.02,110.05L353.69,103.33L354.07,103.07L359.49,100.28L359.88,100.17L363.75,99.83L364.13,99.89L368,101.23L368.39,101.44L374.19,105.79L374.58,106.12L382.31,112.13L382.7,112.34L386.57,113.64L386.96,113.68L390.44,113.34L390.83,113.22L395.08,110.98L395.47,110.7L402.43,104.66L402.82,104.31L409.78,98.81L410.17,98.58L415.97,95.92L416.36,95.8L424.48,94.27L424.87,94.23L431.06,94.42L431.45,94.49L436.09,96.16L436.47,96.38L440.73,99.73L441.12,100.12L446.15,106.51L446.53,107.09L462.39,131.1L462.78,131.49L467.81,135.26L468.2,135.45L473.61,137.33L474,137.43L483.67,140.62L484.06,140.82L491.8,145.61L492.18,145.86L499.15,149.49L499.53,149.61L504.56,150.41L504.95,150.41L511.14,149.54L511.53,149.46L521.97,147.99L522.36,147.99L537.45,149.12L537.83,149.14L550.6,150.53L550.99,150.62L569.94,155.18L570.33,155.21L580,155.41" style="vector-effect: none; fill: none; stroke: rgb(99, 110, 250); stroke-opacity: 1; stroke-width: 0px; opacity: 1;"/></g><g class="points"/><g class="text"/></g><g class="trace scatter trace78a393" style="stroke-miterlimit: 2;"><g class="fills"/><g class="errorbars"/><g class="lines"><path class="js-line" d="M-193.33,292.92L-187.53,289.15L-187.14,288.64L-180.18,273.56L-179.79,272.39L-168.96,228.4L-168.57,226.61L-156.19,180.98L-155.81,180.2L-149.62,173.73L-149.23,173.65L-142.65,175.51L-142.27,175.71L-131.82,178.44L-131.44,178.39L-112.48,173.66L-112.09,173.69L-103.97,176.83L-103.58,177.09L-83.08,190.85L-82.69,190.88L-76.11,189.46L-75.73,189.28L-57.55,181.05L-57.16,181.04L-50.58,182.37L-50.2,182.53L-31.63,189.39L-31.24,189.41L-21.18,188.67L-20.79,188.63L-9.96,188.59L-9.57,188.62L10.54,190.85L10.93,190.96L28.34,195.47L28.72,195.52L36.07,197.14L36.46,197.3L41.1,200.04L41.49,200.34L46.52,205.39L46.91,205.85L54.64,216.74L55.03,217.33L68.57,236.84L68.96,237.3L74.37,242.62L74.76,242.92L79.4,245.41L79.79,245.53L84.05,245.96L84.43,245.92L89.07,244.75L89.46,244.6L100.68,239.2L101.07,239.01L112.29,234.19L112.67,234.06L120.02,232.52L120.41,232.49L127.76,232.66L128.15,232.7L141.69,234.85L142.07,234.93L152.13,237.72L152.52,237.86L175.34,246.84L175.73,247L186.56,252.52L186.95,252.73L194.3,255.84L194.69,255.94L199.72,256.42L200.1,256.39L205.13,255.27L205.52,255.12L210.55,252.26L210.94,251.96L215.19,247.67L215.58,247.17L219.83,240.29L220.22,239.52L224.48,229.17L224.86,228.06L229.5,212.35L229.89,210.86L236.47,182.57L236.86,180.81L244.98,146.7L245.37,145.35L249.62,133.07L250.01,132.19L253.88,125.66L254.26,125.22L257.36,122.82L257.75,122.65L261.23,122.14L261.61,122.17L265.87,123.37L266.26,123.54L272.83,127.45L273.22,127.75L278.64,132.86L279.02,133.3L284.05,140.33L284.44,140.97L289.85,151.45L290.24,152.3L298.37,171.96L298.75,172.92L306.88,191.13L307.26,191.85L312.29,199.46L312.68,199.91L317.32,203.94L317.71,204.18L322.35,205.91L322.74,205.99L328.93,206.27L329.31,206.25L338.21,204.85L338.6,204.74L344.79,202.24L345.18,202.03L360.65,193.67L361.04,193.59L365.29,193.65L365.68,193.74L369.93,195.45L370.32,195.67L377.67,200.66L378.06,200.92L383.86,203.92L384.25,204.04L388.5,204.45L388.89,204.41L393.15,203.05L393.53,202.86L399.34,198.94L399.72,198.63L411.72,190.22L412.1,190.04L418.68,187.61L419.07,187.5L428.74,185.68L429.12,185.65L434.54,186.09L434.93,186.2L439.18,188.2L439.57,188.47L443.83,192.32L444.21,192.76L449.63,199.91L450.02,200.47L460.07,214.49L460.46,214.92L465.49,219.35L465.88,219.6L470.91,221.92L471.29,222.05L484.83,226.68L485.22,226.89L500.69,235.06L501.08,235.15L506.5,235.52L506.88,235.5L524.68,234.27L525.07,234.3L543.25,235.5L543.64,235.52L551.37,236.62L551.76,236.71L570.72,241.05L571.1,241.08L580,241.38" style="vector-effect: none; fill: none; stroke: rgb(239, 85, 59); stroke-opacity: 1; stroke-width: 0px; opacity: 1;"/></g><g class="points"/><g class="text"/></g><g class="trace scatter traceee8edd" style="stroke-miterlimit: 2; opacity: 1;"><g class="fills"/><g class="errorbars"/><g class="lines"><path class="js-line" d="M-193.33,249.62L-187.92,246.14L-187.53,245.63L-180.95,231.35L-180.57,230.16L-171.28,191.73L-170.9,189.83L-155.81,129.38L-155.42,128.62L-149.23,122.74L-148.84,122.69L-141.49,125.15L-141.11,125.33L-131.82,126.86L-131.44,126.79L-110.55,122.95L-110.16,123.06L-101.65,128.17L-101.26,128.5L-84.24,141.41L-83.85,141.49L-77.66,141.07L-77.28,140.94L-67.99,135.94L-67.6,135.71L-59.09,132.43L-58.71,132.39L-52.13,133.27L-51.74,133.41L-39.36,139.63L-38.98,139.8L-31.24,141.76L-30.85,141.78L-21.95,141.26L-21.57,141.22L-9.57,141.16L-9.19,141.19L10.16,143.34L10.54,143.45L36.85,151.56L37.24,151.77L42.26,155.6L42.65,155.98L48.07,162.44L48.45,162.97L56.58,175.46L56.97,176.08L66.64,190.52L67.02,191.02L73.6,198.12L73.99,198.44L78.63,201.28L79.02,201.43L82.88,202.17L83.27,202.18L87.91,201.35L88.3,201.22L94.88,198.27L95.26,198.08L111.13,190.73L111.51,190.6L118.86,188.89L119.25,188.85L126.6,189.01L126.99,189.05L140.91,191.61L141.3,191.69L152.91,195.09L153.29,195.24L165.67,200.47L166.06,200.64L183.47,209.01L183.86,209.23L192.37,213.35L192.75,213.48L198.17,214.39L198.56,214.39L203.59,213.61L203.97,213.49L209,211.05L209.39,210.79L214.03,206.48L214.42,206.01L218.67,199.31L219.06,198.55L222.93,189.29L223.31,188.2L227.96,172.46L228.34,170.95L234.53,143.31L234.92,141.44L245.75,92.63L246.14,91.27L250.4,79.1L250.78,78.25L254.26,72.49L254.65,72.05L257.75,69.69L258.13,69.52L261.61,69.11L262,69.16L266.26,70.61L266.64,70.81L272.06,74.5L272.45,74.82L278.25,80.95L278.64,81.45L284.05,89.86L284.44,90.57L289.85,101.97L290.24,102.88L299.53,126.93L299.91,127.94L307.26,145.06L307.65,145.81L312.68,153.7L313.07,154.16L317.32,158.04L317.71,158.28L321.96,160.05L322.35,160.14L327.77,160.52L328.15,160.5L335.89,159.4L336.28,159.3L342.47,157.12L342.85,156.94L350.59,152.14L350.98,151.87L358.72,147.38L359.1,147.24L363.36,146.61L363.75,146.64L367.61,147.69L368,147.87L373.03,151.09L373.42,151.39L383.09,158.09L383.48,158.26L387.73,159.11L388.12,159.1L391.99,158.17L392.37,158L397.02,155.09L397.4,154.8L411.72,143.96L412.1,143.77L418.68,141.39L419.07,141.3L426.8,140.01L427.19,139.98L432.99,140.33L433.38,140.42L437.64,142.2L438.02,142.44L442.28,146.06L442.66,146.47L447.69,153.02L448.08,153.59L461.62,173.2L462.01,173.6L466.65,177.33L467.04,177.55L472.07,179.6L472.45,179.71L484.06,183.55L484.45,183.75L493.73,189.46L494.12,189.69L499.92,192.3L500.31,192.4L505.34,192.98L505.72,192.97L513.07,191.89L513.46,191.82L521.97,191.03L522.36,191.04L549.05,193.17L549.44,193.24L560.66,196.34L561.04,196.45L570.33,198.11L570.72,198.15L580,198.4" style="vector-effect: none; fill: none; stroke: rgb(207, 184, 124); stroke-opacity: 1; stroke-width: 3px; opacity: 1;"/></g><g class="points"/><g class="text"/></g><g class="trace scatter traced45240" style="stroke-miterlimit: 2;"><g class="fills"><g><path class="js-fill" d="M-193.33,304L-187.14,300.42L-186.76,299.98L-179.02,285.84L-178.63,284.9L-160.84,231.85L-160.45,230.76L-148.46,205.26L-148.07,204.71L-137.63,194.3L-137.24,194.05L-128.73,191.53L-128.34,191.58L-120.99,195.36L-120.6,195.68L-95.84,219.74L-95.46,220.17L-85.4,228.53L-85.01,228.65L-79.6,228.26L-79.21,228.09L-72.63,223.16L-72.25,222.78L-47.49,197.47L-47.1,196.99L-35.11,183.95L-34.72,183.72L-30.47,182.68L-30.08,182.73L-26.21,184.52L-25.82,184.82L-20.79,190.49L-20.41,191.04L-11.9,204.54L-11.51,205.16L-4.16,215.17L-3.77,215.57L0.1,218.51L0.48,218.69L3.97,219.42L4.35,219.39L7.83,218.33L8.22,218.12L12.86,214.83L13.25,214.52L19.83,209.95L20.21,209.78L24.08,209.15L24.47,209.2L27.56,210.3L27.95,210.52L31.82,213.75L32.21,214.16L38.4,222L38.78,222.54L47.29,233.13L47.68,233.49L51.94,236.21L52.32,236.35L56.19,236.68L56.58,236.62L61.61,235.02L61.99,234.87L67.02,233.78L67.41,233.8L70.51,234.79L70.89,235.02L74.37,238.14L74.76,238.6L80.56,246.75L80.95,247.31L85.98,253.17L86.37,253.46L89.46,254.75L89.85,254.77L92.56,254.11L92.94,253.91L96.42,251.11L96.81,250.72L106.87,241.01L107.26,240.81L110.74,239.87L111.13,239.87L114.61,240.7L114.99,240.88L119.25,243.78L119.64,244.11L126.21,250.9L126.6,251.35L134.72,261.81L135.11,262.35L151.36,283.89L151.75,284.28L156.39,288.02L156.78,288.23L160.26,289.43L160.64,289.47L163.74,289.01L164.13,288.86L167.61,286.55L167.99,286.2L173.02,280.56L173.41,280.09L179.6,273.73L179.99,273.48L183.08,272.32L183.47,272.29L186.56,272.94L186.95,273.12L191.21,276.14L191.59,276.47L198.94,281.85L199.33,282.01L202.81,282.62L203.2,282.6L207.07,281.55L207.45,281.38L215.58,276.82L215.96,276.61L222.93,273.95L223.31,273.86L229.89,273.04L230.28,273.03L236.47,273.7L236.86,273.79L244.59,276.37L244.98,276.5L251.17,278.01L251.56,278.05L256.97,277.62L257.36,277.52L263.16,275.34L263.55,275.15L269.35,271.42L269.74,271.11L274.77,266.03L275.15,265.55L280.96,257.05L281.34,256.41L292.95,238.51L293.34,238.09L297.59,234.67L297.98,234.47L301.85,233.5L302.23,233.5L306.49,234.45L306.88,234.61L315.77,239.63L316.16,239.83L321.19,241.67L321.58,241.74L325.83,241.73L326.22,241.67L332.41,239.85L332.8,239.72L338.21,238.69L338.6,238.7L342.47,239.71L342.85,239.91L346.72,242.79L347.11,243.16L353.3,250.21L353.69,250.67L360.65,257.95L361.04,258.28L368.77,263.82L369.16,264.09L376.51,270.43L376.9,270.81L385.41,278.26L385.8,278.48L389.66,279.76L390.05,279.79L393.92,279.24L394.31,279.1L398.95,276.67L399.34,276.41L408.62,269.18L409.01,268.86L417.91,262.26L418.29,262.05L422.93,260.51L423.32,260.47L427.58,260.96L427.96,261.08L434.54,264.22L434.93,264.42L440.34,266.42L440.73,266.48L444.6,266.32L444.99,266.22L449.63,264.26L450.02,264.04L459.69,259.21L460.07,259.13L463.94,259.21L464.33,259.32L467.81,261.13L468.2,261.43L472.45,265.84L472.84,266.33L484.06,280.42L484.45,280.68L487.15,281.71L487.54,281.72L490.25,280.93L490.64,280.68L493.73,277.55L494.12,277.03L498.37,269.75L498.76,268.98L518.1,230.55L518.49,229.93L525.07,220.91L525.45,220.49L529.71,216.94L530.1,216.72L533.96,215.53L534.35,215.5L538.61,216.06L538.99,216.17L549.44,218.58L549.82,218.57L555.24,217.48L555.63,217.35L565.3,214.99L565.69,214.99L571.1,215.73L571.49,215.82L580,217.41L580,115.6L576.52,115.75L576.13,115.78L569.55,117.02L569.17,117.14L557.56,123.04L557.18,123.26L552.15,125.34L551.76,125.42L547.89,125.41L547.5,125.33L541.31,122.58L540.93,122.36L535.9,120.05L535.51,119.96L532.03,119.92L531.64,120.02L528.16,121.94L527.77,122.26L522.74,128.29L522.36,128.87L514.62,142.87L514.23,143.67L504.18,166.61L503.79,167.56L497.21,182.74L496.83,183.51L492.96,189.92L492.57,190.4L489.86,192.8L489.47,192.99L487.15,193.38L486.77,193.32L483.67,191.52L483.28,191.15L478.26,184.12L477.87,183.46L471.29,172.37L470.91,171.81L467.04,167.35L466.65,167.04L463.56,165.44L463.17,165.36L459.69,165.64L459.3,165.78L451.56,170.93L451.18,171.22L446.53,174.08L446.15,174.23L442.66,174.94L442.28,174.93L430.29,170.19L429.9,170.05L426.03,169.3L425.64,169.3L421.77,170.19L421.39,170.36L408.62,180.14L408.23,180.45L400.5,186L400.11,186.24L394.69,188.82L394.31,188.94L390.05,189.42L389.66,189.37L385.41,187.83L385.02,187.59L361.81,167.15L361.42,166.78L352.14,155.49L351.75,154.97L346.72,148.81L346.34,148.41L342.85,145.64L342.47,145.42L338.99,144.3L338.6,144.26L327.77,146.78L327.38,146.87L322.35,147.35L321.96,147.32L315.39,145.5L315,145.34L308.81,143.15L308.42,143.06L304.17,142.81L303.78,142.86L299.53,144.33L299.14,144.56L294.5,148.39L294.11,148.8L280.18,169.31L279.8,169.91L272.45,179.88L272.06,180.33L265.1,187.32L264.71,187.65L259.29,191.54L258.91,191.76L254.65,193.39L254.26,193.47L250.4,193.51L250.01,193.45L235.69,186.34L235.31,186.15L229.89,184.23L229.5,184.15L224.48,183.85L224.09,183.88L219.06,185.26L218.67,185.44L212.48,189.5L212.1,189.81L206.29,194.2L205.91,194.43L202.42,195.8L202.04,195.85L198.56,195.42L198.17,195.27L192.75,191.42L192.37,191.06L187.34,186.86L186.95,186.61L183.86,185.5L183.47,185.47L180.37,186.27L179.99,186.49L168.77,199.39L168.38,199.83L164.9,202.88L164.51,203.11L161.42,204.11L161.03,204.12L157.55,203.26L157.16,203.07L152.52,199.35L152.13,198.95L135.88,176.34L135.5,175.77L126.21,163.15L125.83,162.67L119.64,156L119.25,155.65L114.99,152.76L114.61,152.59L111.13,151.97L110.74,152.01L107.26,153.31L106.87,153.56L97.97,162.99L97.59,163.44L93.72,167.11L93.33,167.36L90.62,168.36L90.24,168.37L87.14,167.34L86.75,167.06L75.53,151.35L75.15,150.83L71.67,147.18L71.28,146.91L68.18,145.71L67.8,145.68L58.9,148.79L58.51,148.94L55.03,149.65L54.64,149.65L51.16,148.64L50.78,148.42L46.91,145.11L46.52,144.68L38.78,133.5L38.4,132.88L31.82,122.92L31.43,122.41L27.18,117.91L26.79,117.61L23.31,115.87L22.92,115.79L19.44,116.01L19.05,116.13L11.7,120.94L11.32,121.24L7.06,123.96L6.67,124.12L3.58,124.69L3.19,124.66L-0.29,123.3L-0.68,123.03L-4.93,118.58L-5.32,118.05L-16.15,98.79L-16.54,98.04L-23.11,86.61L-23.5,86.07L-27.37,81.84L-27.76,81.55L-31.24,80.25L-31.63,80.25L-35.88,82.07L-36.27,82.39L-50.2,101.47L-50.58,102.02L-69.92,123.85L-70.31,124.24L-77.66,130.28L-78.05,130.47L-83.08,131.3L-83.47,131.21L-119.83,93.51L-120.22,93.1L-127.18,87.79L-127.57,87.65L-134.92,88.38L-135.3,88.58L-145.75,98.19L-146.14,98.71L-156.19,119.05L-156.58,120.12L-166.25,152.54L-166.64,153.98L-178.63,194.95L-179.02,195.97L-186.37,209.62L-186.76,210.05L-193.33,213.5Z" style="fill: rgb(148, 0, 211); fill-opacity: 0.2; stroke-width: 0;"/></g></g><g class="errorbars"/><g class="lines"><path class="js-line" d="M-193.33,213.5L-186.76,210.05L-186.37,209.62L-179.02,195.97L-178.63,194.95L-166.64,153.98L-166.25,152.54L-156.58,120.12L-156.19,119.05L-146.14,98.71L-145.75,98.19L-135.3,88.58L-134.92,88.38L-127.57,87.65L-127.18,87.79L-120.22,93.1L-119.83,93.51L-83.47,131.21L-83.08,131.3L-78.05,130.47L-77.66,130.28L-70.31,124.24L-69.92,123.85L-50.58,102.02L-50.2,101.47L-36.27,82.39L-35.88,82.07L-31.63,80.25L-31.24,80.25L-27.76,81.55L-27.37,81.84L-23.5,86.07L-23.11,86.61L-16.54,98.04L-16.15,98.79L-5.32,118.05L-4.93,118.58L-0.68,123.03L-0.29,123.3L3.19,124.66L3.58,124.69L6.67,124.12L7.06,123.96L11.32,121.24L11.7,120.94L19.05,116.13L19.44,116.01L22.92,115.79L23.31,115.87L26.79,117.61L27.18,117.91L31.43,122.41L31.82,122.92L38.4,132.88L38.78,133.5L46.52,144.68L46.91,145.11L50.78,148.42L51.16,148.64L54.64,149.65L55.03,149.65L58.51,148.94L58.9,148.79L67.8,145.68L68.18,145.71L71.28,146.91L71.67,147.18L75.15,150.83L75.53,151.35L86.75,167.06L87.14,167.34L90.24,168.37L90.62,168.36L93.33,167.36L93.72,167.11L97.59,163.44L97.97,162.99L106.87,153.56L107.26,153.31L110.74,152.01L111.13,151.97L114.61,152.59L114.99,152.76L119.25,155.65L119.64,156L125.83,162.67L126.21,163.15L135.5,175.77L135.88,176.34L152.13,198.95L152.52,199.35L157.16,203.07L157.55,203.26L161.03,204.12L161.42,204.11L164.51,203.11L164.9,202.88L168.38,199.83L168.77,199.39L179.99,186.49L180.37,186.27L183.47,185.47L183.86,185.5L186.95,186.61L187.34,186.86L192.37,191.06L192.75,191.42L198.17,195.27L198.56,195.42L202.04,195.85L202.42,195.8L205.91,194.43L206.29,194.2L212.1,189.81L212.48,189.5L218.67,185.44L219.06,185.26L224.09,183.88L224.48,183.85L229.5,184.15L229.89,184.23L235.31,186.15L235.69,186.34L250.01,193.45L250.4,193.51L254.26,193.47L254.65,193.39L258.91,191.76L259.29,191.54L264.71,187.65L265.1,187.32L272.06,180.33L272.45,179.88L279.8,169.91L280.18,169.31L294.11,148.8L294.5,148.39L299.14,144.56L299.53,144.33L303.78,142.86L304.17,142.81L308.42,143.06L308.81,143.15L315,145.34L315.39,145.5L321.96,147.32L322.35,147.35L327.38,146.87L327.77,146.78L338.6,144.26L338.99,144.3L342.47,145.42L342.85,145.64L346.34,148.41L346.72,148.81L351.75,154.97L352.14,155.49L361.42,166.78L361.81,167.15L385.02,187.59L385.41,187.83L389.66,189.37L390.05,189.42L394.31,188.94L394.69,188.82L400.11,186.24L400.5,186L408.23,180.45L408.62,180.14L421.39,170.36L421.77,170.19L425.64,169.3L426.03,169.3L429.9,170.05L430.29,170.19L442.28,174.93L442.66,174.94L446.15,174.23L446.53,174.08L451.18,171.22L451.56,170.93L459.3,165.78L459.69,165.64L463.17,165.36L463.56,165.44L466.65,167.04L467.04,167.35L470.91,171.81L471.29,172.37L477.87,183.46L478.26,184.12L483.28,191.15L483.67,191.52L486.77,193.32L487.15,193.38L489.47,192.99L489.86,192.8L492.57,190.4L492.96,189.92L496.83,183.51L497.21,182.74L503.79,167.56L504.18,166.61L514.23,143.67L514.62,142.87L522.36,128.87L522.74,128.29L527.77,122.26L528.16,121.94L531.64,120.02L532.03,119.92L535.51,119.96L535.9,120.05L540.93,122.36L541.31,122.58L547.5,125.33L547.89,125.41L551.76,125.42L552.15,125.34L557.18,123.26L557.56,123.04L569.17,117.14L569.55,117.02L576.13,115.78L576.52,115.75L580,115.6" style="vector-effect: none; fill: none; stroke: rgb(171, 99, 250); stroke-opacity: 1; stroke-width: 0px; opacity: 1;"/></g><g class="points"/><g class="text"/></g><g class="trace scatter trace77d99e" style="stroke-miterlimit: 2;"><g class="fills"/><g class="errorbars"/><g class="lines"><path class="js-line" d="M-193.33,304L-187.14,300.42L-186.76,299.98L-179.02,285.84L-178.63,284.9L-160.84,231.85L-160.45,230.76L-148.46,205.26L-148.07,204.71L-137.63,194.3L-137.24,194.05L-128.73,191.53L-128.34,191.58L-120.99,195.36L-120.6,195.68L-95.84,219.74L-95.46,220.17L-85.4,228.53L-85.01,228.65L-79.6,228.26L-79.21,228.09L-72.63,223.16L-72.25,222.78L-47.49,197.47L-47.1,196.99L-35.11,183.95L-34.72,183.72L-30.47,182.68L-30.08,182.73L-26.21,184.52L-25.82,184.82L-20.79,190.49L-20.41,191.04L-11.9,204.54L-11.51,205.16L-4.16,215.17L-3.77,215.57L0.1,218.51L0.48,218.69L3.97,219.42L4.35,219.39L7.83,218.33L8.22,218.12L12.86,214.83L13.25,214.52L19.83,209.95L20.21,209.78L24.08,209.15L24.47,209.2L27.56,210.3L27.95,210.52L31.82,213.75L32.21,214.16L38.4,222L38.78,222.54L47.29,233.13L47.68,233.49L51.94,236.21L52.32,236.35L56.19,236.68L56.58,236.62L61.61,235.02L61.99,234.87L67.02,233.78L67.41,233.8L70.51,234.79L70.89,235.02L74.37,238.14L74.76,238.6L80.56,246.75L80.95,247.31L85.98,253.17L86.37,253.46L89.46,254.75L89.85,254.77L92.56,254.11L92.94,253.91L96.42,251.11L96.81,250.72L106.87,241.01L107.26,240.81L110.74,239.87L111.13,239.87L114.61,240.7L114.99,240.88L119.25,243.78L119.64,244.11L126.21,250.9L126.6,251.35L134.72,261.81L135.11,262.35L151.36,283.89L151.75,284.28L156.39,288.02L156.78,288.23L160.26,289.43L160.64,289.47L163.74,289.01L164.13,288.86L167.61,286.55L167.99,286.2L173.02,280.56L173.41,280.09L179.6,273.73L179.99,273.48L183.08,272.32L183.47,272.29L186.56,272.94L186.95,273.12L191.21,276.14L191.59,276.47L198.94,281.85L199.33,282.01L202.81,282.62L203.2,282.6L207.07,281.55L207.45,281.38L215.58,276.82L215.96,276.61L222.93,273.95L223.31,273.86L229.89,273.04L230.28,273.03L236.47,273.7L236.86,273.79L244.59,276.37L244.98,276.5L251.17,278.01L251.56,278.05L256.97,277.62L257.36,277.52L263.16,275.34L263.55,275.15L269.35,271.42L269.74,271.11L274.77,266.03L275.15,265.55L280.96,257.05L281.34,256.41L292.95,238.51L293.34,238.09L297.59,234.67L297.98,234.47L301.85,233.5L302.23,233.5L306.49,234.45L306.88,234.61L315.77,239.63L316.16,239.83L321.19,241.67L321.58,241.74L325.83,241.73L326.22,241.67L332.41,239.85L332.8,239.72L338.21,238.69L338.6,238.7L342.47,239.71L342.85,239.91L346.72,242.79L347.11,243.16L353.3,250.21L353.69,250.67L360.65,257.95L361.04,258.28L368.77,263.82L369.16,264.09L376.51,270.43L376.9,270.81L385.41,278.26L385.8,278.48L389.66,279.76L390.05,279.79L393.92,279.24L394.31,279.1L398.95,276.67L399.34,276.41L408.62,269.18L409.01,268.86L417.91,262.26L418.29,262.05L422.93,260.51L423.32,260.47L427.58,260.96L427.96,261.08L434.54,264.22L434.93,264.42L440.34,266.42L440.73,266.48L444.6,266.32L444.99,266.22L449.63,264.26L450.02,264.04L459.69,259.21L460.07,259.13L463.94,259.21L464.33,259.32L467.81,261.13L468.2,261.43L472.45,265.84L472.84,266.33L484.06,280.42L484.45,280.68L487.15,281.71L487.54,281.72L490.25,280.93L490.64,280.68L493.73,277.55L494.12,277.03L498.37,269.75L498.76,268.98L518.1,230.55L518.49,229.93L525.07,220.91L525.45,220.49L529.71,216.94L530.1,216.72L533.96,215.53L534.35,215.5L538.61,216.06L538.99,216.17L549.44,218.58L549.82,218.57L555.24,217.48L555.63,217.35L565.3,214.99L565.69,214.99L571.1,215.73L571.49,215.82L580,217.41" style="vector-effect: none; fill: none; stroke: rgb(255, 161, 90); stroke-opacity: 1; stroke-width: 0px; opacity: 1;"/></g><g class="points"/><g class="text"/></g><g class="trace scatter tracee0676a" style="stroke-miterlimit: 2; opacity: 1;"><g class="fills"/><g class="errorbars"/><g class="lines"><path class="js-line" d="M-193.33,258.75L-186.76,255.01L-186.37,254.56L-178.63,239.92L-178.25,238.92L-164.71,195.06L-164.32,193.76L-150.39,156.94L-150.01,156.26L-139.95,143.92L-139.56,143.6L-130.28,139.33L-129.89,139.33L-123.31,141.91L-122.92,142.2L-109,155.91L-108.61,156.27L-83.47,180.07L-83.08,180.12L-78.05,178.98L-77.66,178.77L-69.54,171.76L-69.15,171.37L-47.1,146.95L-46.71,146.42L-35.88,133.27L-35.49,132.99L-31.24,131.46L-30.85,131.47L-27.37,132.79L-26.98,133.06L-22.73,137.58L-22.34,138.11L-16.15,148.19L-15.76,148.88L-5.71,165.47L-5.32,165.97L-0.68,170.55L-0.29,170.8L3.19,172.03L3.58,172.06L7.06,171.32L7.45,171.15L12.48,167.74L12.86,167.43L19.44,163.07L19.83,162.92L23.31,162.5L23.7,162.55L27.18,164L27.56,164.26L31.82,168.34L32.21,168.8L39.17,178.6L39.56,179.18L46.52,188.53L46.91,188.93L50.78,192.06L51.16,192.27L54.64,193.2L55.03,193.21L58.9,192.41L59.29,192.26L67.41,189.74L67.8,189.76L70.89,190.84L71.28,191.09L74.76,194.46L75.15,194.95L86.75,210.39L87.14,210.65L89.85,211.57L90.24,211.57L92.94,210.75L93.33,210.52L96.81,207.51L97.2,207.1L106.87,197.28L107.26,197.06L110.74,195.94L111.13,195.92L114.61,196.65L114.99,196.82L119.25,199.72L119.64,200.05L126.21,207.02L126.6,207.49L135.5,219.33L135.88,219.88L151.36,241L151.75,241.41L156.78,245.54L157.16,245.75L160.64,246.79L161.03,246.8L164.13,246.09L164.51,245.89L167.99,243.22L168.38,242.83L174.96,234.83L175.34,234.36L179.99,229.98L180.37,229.76L183.47,228.88L183.86,228.89L186.95,229.87L187.34,230.09L192.37,234.1L192.75,234.45L198.56,238.55L198.94,238.7L202.42,239.21L202.81,239.17L206.68,237.84L207.07,237.63L221.77,229.28L222.15,229.18L227.96,228.52L228.34,228.53L234.53,229.56L234.92,229.68L242.66,232.99L243.04,233.18L250.01,235.66L250.4,235.72L255.04,235.63L255.42,235.55L260.07,233.88L260.45,233.69L266.26,229.96L266.64,229.66L272.83,223.82L273.22,223.38L279.02,215.61L279.41,215.02L294.11,193.05L294.5,192.66L298.75,189.46L299.14,189.27L303.01,188.27L303.4,188.26L307.26,188.82L307.65,188.94L314.23,191.9L314.61,192.09L321.58,194.51L321.96,194.56L326.61,194.32L326.99,194.24L339.37,191.56L339.76,191.63L343.24,193L343.63,193.24L347.5,196.59L347.88,197L356.39,207.47L356.78,207.93L363.36,214.31L363.75,214.62L377.29,225.97L377.67,226.36L385.02,232.81L385.41,233.04L389.28,234.51L389.66,234.56L393.53,234.25L393.92,234.14L398.56,232.02L398.95,231.79L407.07,225.92L407.46,225.61L420.61,215.89L421,215.73L425.26,214.91L425.64,214.92L429.9,215.94L430.29,216.1L441.5,220.72L441.89,220.75L445.76,220.19L446.15,220.05L451.18,217.29L451.56,217.03L459.69,212.43L460.07,212.33L463.56,212.28L463.94,212.38L467.04,213.98L467.42,214.27L471.29,218.41L471.68,218.92L479.03,230.17L479.42,230.74L483.67,235.82L484.06,236.14L487.15,237.54L487.54,237.57L489.86,236.97L490.25,236.74L492.96,234.22L493.34,233.73L497.21,227.36L497.6,226.59L504.18,212L504.56,211.11L514.62,189.66L515.01,188.92L522.36,176.55L522.74,176.01L527.77,170.28L528.16,169.96L532.03,167.91L532.42,167.82L535.9,167.8L536.28,167.87L542.09,170.09L542.47,170.26L548.28,172.02L548.66,172.05L552.92,171.63L553.31,171.52L559.5,168.98L559.88,168.81L566.85,166.5L567.23,166.44L573.42,166.23L573.81,166.24L580,166.5" style="vector-effect: none; fill: none; stroke: rgb(148, 0, 211); stroke-opacity: 1; stroke-width: 3px; opacity: 1;"/></g><g class="points"/><g class="text"/></g></g></g></g><g class="zerolinelayer-above"/><path class="xlines-above crisp" d="M79,420.5H661M79,99.5H661" style="fill: none; stroke-width: 1px; stroke: rgb(0, 0, 0); stroke-opacity: 1;"/><path class="ylines-above crisp" d="M79.5,100V420M660.5,100V420" style="fill: none; stroke-width: 1px; stroke: rgb(0, 0, 0); stroke-opacity: 1;"/><g class="overlines-above"/><g class="xaxislayer-above"><path class="xtick ticks crisp" d="M0,421v5" transform="translate(118.67,0)" style="stroke: rgb(68, 68, 68); stroke-opacity: 1; stroke-width: 1px;"/><path class="xtick ticks crisp" d="M0,421v5" transform="translate(196,0)" style="stroke: rgb(68, 68, 68); stroke-opacity: 1; stroke-width: 1px;"/><path class="xtick ticks crisp" d="M0,421v5" transform="translate(273.33000000000004,0)" style="stroke: rgb(68, 68, 68); stroke-opacity: 1; stroke-width: 1px;"/><path class="xtick ticks crisp" d="M0,421v5" transform="translate(350.67,0)" style="stroke: rgb(68, 68, 68); stroke-opacity: 1; stroke-width: 1px;"/><path class="xtick ticks crisp" d="M0,421v5" transform="translate(428,0)" style="stroke: rgb(68, 68, 68); stroke-opacity: 1; stroke-width: 1px;"/><path class="xtick ticks crisp" d="M0,421v5" transform="translate(505.33,0)" style="stroke: rgb(68, 68, 68); stroke-opacity: 1; stroke-width: 1px;"/><path class="xtick ticks crisp" d="M0,421v5" transform="translate(582.6700000000001,0)" style="stroke: rgb(68, 68, 68); stroke-opacity: 1; stroke-width: 1px;"/><path class="xtick ticks crisp" d="M0,421v5" transform="translate(660,0)" style="stroke: rgb(68, 68, 68); stroke-opacity: 1; stroke-width: 1px;"/><g class="xtick"><text text-anchor="middle" x="0" y="440.4" transform="translate(118.67,0)" style="font-family: 'Open Sans', verdana, arial, sans-serif; font-size: 12px; fill: rgb(42, 63, 95); fill-opacity: 1; white-space: pre;">−400</text></g><g class="xtick"><text text-anchor="middle" x="0" y="440.4" style="font-family: 'Open Sans', verdana, arial, sans-serif; font-size: 12px; fill: rgb(42, 63, 95); fill-opacity: 1; white-space: pre;" transform="translate(196,0)">−200</text></g><g class="xtick"><text text-anchor="middle" x="0" y="440.4" style="font-family: 'Open Sans', verdana, arial, sans-serif; font-size: 12px; fill: rgb(42, 63, 95); fill-opacity: 1; white-space: pre;" transform="translate(273.33000000000004,0)">0</text></g><g class="xtick"><text text-anchor="middle" x="0" y="440.4" style="font-family: 'Open Sans', verdana, arial, sans-serif; font-size: 12px; fill: rgb(42, 63, 95); fill-opacity: 1; white-space: pre;" transform="translate(350.67,0)">200</text></g><g class="xtick"><text text-anchor="middle" x="0" y="440.4" style="font-family: 'Open Sans', verdana, arial, sans-serif; font-size: 12px; fill: rgb(42, 63, 95); fill-opacity: 1; white-space: pre;" transform="translate(428,0)">400</text></g><g class="xtick"><text text-anchor="middle" x="0" y="440.4" style="font-family: 'Open Sans', verdana, arial, sans-serif; font-size: 12px; fill: rgb(42, 63, 95); fill-opacity: 1; white-space: pre;" transform="translate(505.33,0)">600</text></g><g class="xtick"><text text-anchor="middle" x="0" y="440.4" style="font-family: 'Open Sans', verdana, arial, sans-serif; font-size: 12px; fill: rgb(42, 63, 95); fill-opacity: 1; white-space: pre;" transform="translate(582.6700000000001,0)">800</text></g><g class="xtick"><text text-anchor="middle" x="0" y="440.4" style="font-family: 'Open Sans', verdana, arial, sans-serif; font-size: 12px; fill: rgb(42, 63, 95); fill-opacity: 1; white-space: pre;" transform="translate(660,0)">1000</text></g></g><g class="yaxislayer-above"><path class="ytick ticks crisp" d="M79,0h-5" transform="translate(0,390.42)" style="stroke: rgb(68, 68, 68); stroke-opacity: 1; stroke-width: 1px;"/><path class="ytick ticks crisp" d="M79,0h-5" transform="translate(0,345.47)" style="stroke: rgb(68, 68, 68); stroke-opacity: 1; stroke-width: 1px;"/><path class="ytick ticks crisp" d="M79,0h-5" transform="translate(0,300.52)" style="stroke: rgb(68, 68, 68); stroke-opacity: 1; stroke-width: 1px;"/><path class="ytick ticks crisp" d="M79,0h-5" transform="translate(0,255.57)" style="stroke: rgb(68, 68, 68); stroke-opacity: 1; stroke-width: 1px;"/><path class="ytick ticks crisp" d="M79,0h-5" transform="translate(0,210.62)" style="stroke: rgb(68, 68, 68); stroke-opacity: 1; stroke-width: 1px;"/><path class="ytick ticks crisp" d="M79,0h-5" transform="translate(0,165.66)" style="stroke: rgb(68, 68, 68); stroke-opacity: 1; stroke-width: 1px;"/><path class="ytick ticks crisp" d="M79,0h-5" transform="translate(0,120.71000000000001)" style="stroke: rgb(68, 68, 68); stroke-opacity: 1; stroke-width: 1px;"/><g class="ytick"><text text-anchor="end" x="71.6" y="4.199999999999999" transform="translate(0,390.42)" style="font-family: 'Open Sans', verdana, arial, sans-serif; font-size: 12px; fill: rgb(42, 63, 95); fill-opacity: 1; white-space: pre;">5.6</text></g><g class="ytick"><text text-anchor="end" x="71.6" y="4.199999999999999" style="font-family: 'Open Sans', verdana, arial, sans-serif; font-size: 12px; fill: rgb(42, 63, 95); fill-opacity: 1; white-space: pre;" transform="translate(0,345.47)">5.8</text></g><g class="ytick"><text text-anchor="end" x="71.6" y="4.199999999999999" style="font-family: 'Open Sans', verdana, arial, sans-serif; font-size: 12px; fill: rgb(42, 63, 95); fill-opacity: 1; white-space: pre;" transform="translate(0,300.52)">6</text></g><g class="ytick"><text text-anchor="end" x="71.6" y="4.199999999999999" style="font-family: 'Open Sans', verdana, arial, sans-serif; font-size: 12px; fill: rgb(42, 63, 95); fill-opacity: 1; white-space: pre;" transform="translate(0,255.57)">6.2</text></g><g class="ytick"><text text-anchor="end" x="71.6" y="4.199999999999999" style="font-family: 'Open Sans', verdana, arial, sans-serif; font-size: 12px; fill: rgb(42, 63, 95); fill-opacity: 1; white-space: pre;" transform="translate(0,210.62)">6.4</text></g><g class="ytick"><text text-anchor="end" x="71.6" y="4.199999999999999" style="font-family: 'Open Sans', verdana, arial, sans-serif; font-size: 12px; fill: rgb(42, 63, 95); fill-opacity: 1; white-space: pre;" transform="translate(0,165.66)">6.6</text></g><g class="ytick"><text text-anchor="end" x="71.6" y="4.199999999999999" style="font-family: 'Open Sans', verdana, arial, sans-serif; font-size: 12px; fill: rgb(42, 63, 95); fill-opacity: 1; white-space: pre;" transform="translate(0,120.71000000000001)">6.8</text></g></g><g class="overaxes-above"/></g></g><g class="polarlayer"/><g class="smithlayer"/><g class="ternarylayer"/><g class="geolayer"/><g class="funnelarealayer"/><g class="pielayer"/><g class="iciclelayer"/><g class="treemaplayer"/><g class="sunburstlayer"/><g class="glimages"/><defs id="topdefs-0fa578"><g class="clips"/><clipPath id="legend0fa578"><rect width="296" height="29" x="1" y="1"/></clipPath></defs><g class="layer-above"><g class="imagelayer"/><g class="shapelayer"><g class="shape-group" data-index="0" clip-path="url(#clip0fa578x)"><path data-index="0" fill-rule="evenodd" d="M273.33000000000004,420L273.33000000000004,100" style="opacity: 1; stroke: rgb(255, 0, 0); stroke-opacity: 1; fill: rgb(0, 0, 0); fill-opacity: 0; stroke-dasharray: 9px, 9px; stroke-width: 2px;"/></g></g></g><g class="infolayer"><g class="legend" pointer-events="all" transform="translate(362,62.599999999999994)"><rect class="bg" shape-rendering="crispEdges" style="stroke: rgb(0, 0, 0); stroke-opacity: 1; fill: rgb(255, 255, 255); fill-opacity: 0.8; stroke-width: 1px;" width="297" height="30" x="0.5" y="0.5"/><g class="scrollbox" transform="" clip-path="url(#legend0fa578)"><g class="groups" transform=""><g class="traces" transform="translate(0,15.5)" style="opacity: 1;"><text class="legendtext" text-anchor="start" x="40" y="4.680000000000001" style="font-family: 'Open Sans', verdana, arial, sans-serif; font-size: 12px; fill: rgb(42, 63, 95); fill-opacity: 1; white-space: pre;">Standard (AAAB)</text><g class="layers" style="opacity: 1;"><g class="legendfill"/><g class="legendlines"><path class="js-line" d="M5,0h30" style="fill: none; stroke: rgb(207, 184, 124); stroke-opacity: 1; stroke-width: 3px;"/></g><g class="legendsymbols"><g class="legendpoints"/></g></g><rect class="legendtoggle" x="0" y="-9.5" width="145.46875" height="19" style="fill: rgb(0, 0, 0); fill-opacity: 0;"/></g></g><g class="groups" transform="translate(147.96875,0)"><g class="traces" transform="translate(0,15.5)" style="opacity: 1;"><text class="legendtext" text-anchor="start" x="40" y="4.680000000000001" style="font-family: 'Open Sans', verdana, arial, sans-serif; font-size: 12px; fill: rgb(42, 63, 95); fill-opacity: 1; white-space: pre;">Omission (AXAB)</text><g class="layers" style="opacity: 1;"><g class="legendfill"/><g class="legendlines"><path class="js-line" d="M5,0h30" style="fill: none; stroke: rgb(148, 0, 211); stroke-opacity: 1; stroke-width: 3px;"/></g><g class="legendsymbols"><g class="legendpoints"/></g></g><rect class="legendtoggle" x="0" y="-9.5" width="145.5546875" height="19" style="fill: rgb(0, 0, 0); fill-opacity: 0;"/></g></g></g><rect class="scrollbar" rx="20" ry="3" width="0" height="0" style="fill: rgb(128, 139, 164); fill-opacity: 1;" x="0" y="0"/></g><g class="g-gtitle"><text class="gtitle" x="350" y="50" text-anchor="middle" dy="0em" style="opacity: 1; font-family: Arial; font-size: 18px; fill: rgb(0, 0, 0); fill-opacity: 1; white-space: pre;"><tspan class="line" dy="0em" x="350" y="50"><tspan style="font-weight:bold">Figure f002: PFC Omission-Local PSTH</tspan></tspan><tspan class="line" dy="1.3em" x="350" y="50">​<tspan style="font-size:70%" dy="-0.6em">n=632 units | Mean ± SEM | 0ms = Omission Onset</tspan><tspan dy="0.42em">​</tspan></tspan></text></g><g class="g-xtitle"><text class="xtitle" x="370" y="467.200390625" text-anchor="middle" style="opacity: 1; font-family: 'Open Sans', verdana, arial, sans-serif; font-size: 14px; fill: rgb(42, 63, 95); fill-opacity: 1; white-space: pre;">Time from Omission (ms)</text></g><g class="g-ytitle"><text class="ytitle" transform="rotate(-90,32.574609375,260)" x="32.574609375" y="260" text-anchor="middle" style="opacity: 1; font-family: 'Open Sans', verdana, arial, sans-serif; font-size: 14px; fill: rgb(42, 63, 95); fill-opacity: 1; white-space: pre;">Firing Rate (Hz)</text></g><g class="annotation" data-index="0" style="opacity: 1;"><g class="annotation-text-g" transform="rotate(0,322.83000000000004,109.5)"><g class="cursor-pointer" transform="translate(273,100)"><rect class="bg" x="0.5" y="0.5" width="98" height="18" style="stroke-width: 1px; stroke: rgb(0, 0, 0); stroke-opacity: 0; fill: rgb(0, 0, 0); fill-opacity: 0;"/><text class="annotation-text" text-anchor="middle" x="49.23828125" y="14" style="font-family: 'Open Sans', verdana, arial, sans-serif; font-size: 12px; fill: rgb(42, 63, 95); fill-opacity: 1; white-space: pre;">Omission Onset</text></g></g></g></g></svg>