<svg class="main-svg" xmlns="http://www.w3.org/2000/svg" xmlns:xlink="http://www.w3.org/1999/xlink" width="700" height="500" style="" viewBox="0 0 700 500"><rect x="0" y="0" width="700" height="500" style="fill: rgb(255, 255, 255); fill-opacity: 1;"/><defs id="defs-e3c942"><g class="clips"><clipPath id="clipe3c942xyplot" class="plotclip"><rect width="580" height="320"/></clipPath><clipPath class="axesclip" id="clipe3c942x"><rect x="80" y="0" width="580" height="500"/></clipPath><clipPath class="axesclip" id="clipe3c942y"><rect x="0" y="100" width="700" height="320"/></clipPath><clipPath class="axesclip" id="clipe3c942xy"><rect x="80" y="100" width="580" height="320"/></clipPath></g><g class="gradients"/><g class="patterns"/></defs><g class="bglayer"/><g class="layer-below"><g class="imagelayer"/><g class="shapelayer"/></g><g class="cartesianlayer"><g class="subplot xy"><g class="layer-subplot"><g class="shapelayer"/><g class="imagelayer"/></g><g class="minor-gridlayer"><g class="x"/><g class="y"/></g><g class="gridlayer"><g class="x"><path class="xgrid crisp" transform="translate(118.67,0)" d="M0,100v320" style="stroke: rgb(211, 211, 211); stroke-opacity: 1; stroke-width: 1px;"/><path class="xgrid crisp" transform="translate(196,0)" d="M0,100v320" style="stroke: rgb(211, 211, 211); stroke-opacity: 1; stroke-width: 1px;"/><path class="xgrid crisp" transform="translate(350.67,0)" d="M0,100v320" style="stroke: rgb(211, 211, 211); stroke-opacity: 1; stroke-width: 1px;"/><path class="xgrid crisp" transform="translate(428,0)" d="M0,100v320" style="stroke: rgb(211, 211, 211); stroke-opacity: 1; stroke-width: 1px;"/><path class="xgrid crisp" transform="translate(505.33,0)" d="M0,100v320" style="stroke: rgb(211, 211, 211); stroke-opacity: 1; stroke-width: 1px;"/><path class="xgrid crisp" transform="translate(582.6700000000001,0)" d="M0,100v320" style="stroke: rgb(211, 211, 211); stroke-opacity: 1; stroke-width: 1px;"/></g><g class="y"><path class="ygrid crisp" transform="translate(0,394.84)" d="M80,0h580" style="stroke: rgb(211, 211, 211); stroke-opacity: 1; stroke-width: 1px;"/><path class="ygrid crisp" transform="translate(0,354.7)" d="M80,0h580" style="stroke: rgb(211, 211, 211); stroke-opacity: 1; stroke-width: 1px;"/><path class="ygrid crisp" transform="translate(0,314.57)" d="M80,0h580" style="stroke: rgb(211, 211, 211); stroke-opacity: 1; stroke-width: 1px;"/><path class="ygrid crisp" transform="translate(0,274.44)" d="M80,0h580" style="stroke: rgb(211, 211, 211); stroke-opacity: 1; stroke-width: 1px;"/><path class="ygrid crisp" transform="translate(0,234.31)" d="M80,0h580" style="stroke: rgb(211, 211, 211); stroke-opacity: 1; stroke-width: 1px;"/><path class="ygrid crisp" transform="translate(0,194.17000000000002)" d="M80,0h580" style="stroke: rgb(211, 211, 211); stroke-opacity: 1; stroke-width: 1px;"/><path class="ygrid crisp" transform="translate(0,154.04)" d="M80,0h580" style="stroke: rgb(211, 211, 211); stroke-opacity: 1; stroke-width: 1px;"/><path class="ygrid crisp" transform="translate(0,113.91)" d="M80,0h580" style="stroke: rgb(211, 211, 211); stroke-opacity: 1; stroke-width: 1px;"/></g></g><g class="zerolinelayer"><path class="xzl zl crisp" transform="translate(273.33000000000004,0)" d="M0,100v320" style="stroke: rgb(235, 240, 248); stroke-opacity: 1; stroke-width: 2px;"/></g><g class="layer-between"><g class="shapelayer"/><g class="imagelayer"/></g><path class="xlines-below"/><path class="ylines-below"/><g class="overlines-below"/><g class="xaxislayer-below"/><g class="yaxislayer-below"/><g class="overaxes-below"/><g class="overplot"><g class="xy" transform="translate(80,100)" clip-path="url(#clipe3c942xyplot)"><g class="scatterlayer mlayer"><g class="trace scatter trace044b99" style="stroke-miterlimit: 2;"><g class="fills"><g><path class="js-fill" d="M-193.33,171.26L-186.76,167.28L-186.37,166.94L-180.18,165.31L-179.79,165.62L-175.15,174.92L-174.76,176.18L-170.9,192.37L-170.51,194.29L-155.03,261.82L-154.65,262.25L-150.78,261.92L-150.39,261.45L-145.36,249.61L-144.98,248.36L-128.73,201.25L-128.34,200.77L-122.54,197.63L-122.15,197.66L-116.35,200.59L-115.96,200.93L-107.45,211.6L-107.06,212.2L-87.72,242.41L-87.33,242.86L-78.44,250.69L-78.05,250.92L-70.31,253.54L-69.92,253.57L-62.19,252.65L-61.8,252.54L-49.03,247.25L-48.65,247.05L-38.98,241L-38.59,240.71L-23.11,230.19L-22.73,230.05L-15.76,228.72L-15.38,228.7L5.9,227.58L6.29,227.49L22.53,223.74L22.92,223.74L28.34,224.33L28.72,224.42L41.49,227.31L41.88,227.27L45.36,226.17L45.75,225.96L49.61,222.84L50,222.43L55.03,215.83L55.42,215.25L64.7,202.37L65.09,201.99L68.57,199.52L68.96,199.36L72.05,199L72.44,199.07L75.53,200.46L75.92,200.73L79.79,204.45L80.18,204.91L95.65,223.81L96.04,224.12L100.68,226.85L101.07,227.01L106.87,228.5L107.26,228.56L118.86,229.33L119.25,229.33L135.5,229.94L135.88,230.01L156.39,233.49L156.78,233.49L164.9,232.75L165.29,232.66L171.09,230.74L171.48,230.56L180.37,225.55L180.76,225.33L187.72,222.16L188.11,222.04L198.17,218.46L198.56,218.2L202.81,214.3L203.2,213.85L214.03,201.12L214.42,200.95L216.74,200.89L217.13,201.06L219.06,202.71L219.45,203.22L222.15,208.41L222.54,209.39L226.02,220.59L226.41,222.07L232.99,250.65L233.37,252.34L238.79,272.41L239.18,273.48L242.27,279.64L242.66,280.11L244.98,281.45L245.37,281.43L247.3,280.4L247.69,280.01L250.4,275.8L250.78,275.01L255.04,264.39L255.42,263.32L263.94,241.66L264.32,240.91L268.58,234.42L268.96,233.99L273.22,230.46L273.61,230.23L280.18,227.24L280.57,227.09L291.79,223.21L292.18,223.15L297.21,223.17L297.59,223.24L303.01,224.91L303.4,225.08L311.52,229.3L311.91,229.53L323.51,237.41L323.9,237.7L333.18,243.56L333.57,243.73L339.37,245.51L339.76,245.57L345.18,245.68L345.56,245.64L350.98,244.26L351.37,244.11L358.33,240.62L358.72,240.4L367.61,236.29L368,236.18L373.42,235.52L373.8,235.53L379.61,236.55L379.99,236.66L390.44,240.9L390.83,241.06L397.4,243.11L397.79,243.17L403.2,243.32L403.59,243.28L420.61,241.13L421,241.17L437.64,242.81L438.02,242.79L447.31,241.6L447.69,241.51L453.5,239.61L453.88,239.43L459.3,236.05L459.69,235.75L467.81,228.17L468.2,227.79L475.16,221.84L475.55,221.6L479.8,219.89L480.19,219.83L484.06,220.05L484.45,220.16L489.09,222.32L489.47,222.56L507.27,233.05L507.66,233.25L515.78,238.33L516.17,238.61L527,246L527.39,246.19L532.8,247.97L533.19,248.03L538.99,248.05L539.38,248.01L549.82,245.65L550.21,245.55L569.17,239.94L569.55,239.81L578.07,237.67L578.45,237.63L580,237.56L580,101L579.23,101.03L578.84,101.06L549.44,111.7L549.05,111.84L540.54,114.57L540.15,114.65L534.74,115.09L534.35,115.06L529.71,113.85L529.32,113.69L513.85,101.96L513.46,101.66L504.18,96L503.79,95.8L495.66,90.82L495.28,90.54L487.54,84.92L487.15,84.7L483.28,83.14L482.9,83.07L479.42,83.22L479.03,83.33L474.77,85.72L474.39,86.03L465.1,96.44L464.72,96.92L457.37,105.1L456.98,105.45L451.18,109.73L450.79,109.95L442.28,113.38L441.89,113.49L434.54,114.98L434.15,115.02L426.8,114.75L426.42,114.69L417.91,113.52L417.52,113.51L409.39,114.46L409.01,114.55L402.04,115.78L401.66,115.81L396.24,115.32L395.85,115.23L386.57,111.3L386.18,111.1L379.22,108L378.83,107.88L373.8,106.97L373.42,106.96L368.39,107.77L368,107.9L361.42,111.33L361.04,111.58L352.53,116.88L352.14,117.06L347.11,118.68L346.72,118.74L342.08,118.69L341.69,118.62L336.28,116.72L335.89,116.52L319.26,103.1L318.87,102.78L311.52,97.45L311.13,97.2L303.78,93.18L303.4,93.01L297.98,91.42L297.59,91.37L292.56,91.64L292.18,91.73L283.67,95.23L283.28,95.42L273.99,100.04L273.61,100.29L269.35,104.05L268.96,104.52L265.1,110.73L264.71,111.52L253.49,143.69L253.1,144.83L249.62,153.58L249.23,154.33L246.91,157.65L246.53,157.99L244.59,158.6L244.21,158.51L241.88,156.36L241.5,155.74L238.4,148.15L238.02,146.9L232.99,125.95L232.6,124.09L226.02,92.69L225.64,91.07L222.15,78.79L221.77,77.72L219.06,72.09L218.67,71.55L216.74,69.82L216.35,69.65L214.03,69.81L213.64,70.01L203.59,82.15L203.2,82.6L199.33,86.15L198.94,86.41L193.91,88.47L193.53,88.56L186.95,90.16L186.56,90.29L175.34,96.95L174.96,97.21L168.77,100.57L168.38,100.72L162.58,102.14L162.19,102.18L154.84,101.96L154.45,101.9L143.23,98.93L142.85,98.81L134.72,96.63L134.34,96.56L124.67,96.14L124.28,96.15L111.13,95.85L110.74,95.82L103.39,94.7L103,94.59L98.36,92.49L97.97,92.24L93.33,87.99L92.94,87.54L85.21,75.98L84.82,75.33L79.4,66.92L79.02,66.4L75.53,62.69L75.15,62.39L72.44,61.08L72.05,61.01L69.34,61.34L68.96,61.51L65.48,64.31L65.09,64.75L53.1,85.4L52.71,86.08L48.07,92.96L47.68,93.41L44.2,96.51L43.81,96.75L40.33,98L39.94,98.05L26.02,94.69L25.63,94.61L20.21,94.07L19.83,94.08L8.22,96.62L7.83,96.73L0.48,98.21L0.1,98.25L-9.96,98.17L-10.35,98.15L-18.47,98.17L-18.86,98.23L-24.66,100.09L-25.05,100.28L-36.27,109.07L-36.65,109.41L-45.17,115.98L-45.55,116.22L-56.77,121.28L-57.16,121.4L-66.44,123.05L-66.83,123.04L-74.57,121.17L-74.95,120.98L-83.47,114.26L-83.85,113.84L-94.68,98.1L-95.07,97.42L-109.38,72.06L-109.77,71.5L-116.74,63.87L-117.12,63.61L-122.54,62.31L-122.92,62.41L-129.11,68.41L-129.5,69.1L-142.27,110.67L-142.65,112.21L-146.91,127.37L-147.3,128.5L-151.17,136.13L-151.55,136.46L-155.42,134.74L-155.81,134.04L-168.19,72.72L-168.57,70.29L-175.54,34.61L-175.92,33.29L-180.18,24.38L-180.57,24.05L-186.76,25.86L-187.14,26.22L-193.33,30.01Z" style="fill: rgb(207, 184, 124); fill-opacity: 0.2; stroke-width: 0;"/></g></g><g class="errorbars"/><g class="lines"><path class="js-line" d="M-193.33,30.01L-187.14,26.22L-186.76,25.86L-180.57,24.05L-180.18,24.38L-175.92,33.29L-175.54,34.61L-168.57,70.29L-168.19,72.72L-155.81,134.04L-155.42,134.74L-151.55,136.46L-151.17,136.13L-147.3,128.5L-146.91,127.37L-142.65,112.21L-142.27,110.67L-129.5,69.1L-129.11,68.41L-122.92,62.41L-122.54,62.31L-117.12,63.61L-116.74,63.87L-109.77,71.5L-109.38,72.06L-95.07,97.42L-94.68,98.1L-83.85,113.84L-83.47,114.26L-74.95,120.98L-74.57,121.17L-66.83,123.04L-66.44,123.05L-57.16,121.4L-56.77,121.28L-45.55,116.22L-45.17,115.98L-36.65,109.41L-36.27,109.07L-25.05,100.28L-24.66,100.09L-18.86,98.23L-18.47,98.17L-10.35,98.15L-9.96,98.17L0.1,98.25L0.48,98.21L7.83,96.73L8.22,96.62L19.83,94.08L20.21,94.07L25.63,94.61L26.02,94.69L39.94,98.05L40.33,98L43.81,96.75L44.2,96.51L47.68,93.41L48.07,92.96L52.71,86.08L53.1,85.4L65.09,64.75L65.48,64.31L68.96,61.51L69.34,61.34L72.05,61.01L72.44,61.08L75.15,62.39L75.53,62.69L79.02,66.4L79.4,66.92L84.82,75.33L85.21,75.98L92.94,87.54L93.33,87.99L97.97,92.24L98.36,92.49L103,94.59L103.39,94.7L110.74,95.82L111.13,95.85L124.28,96.15L124.67,96.14L134.34,96.56L134.72,96.63L142.85,98.81L143.23,98.93L154.45,101.9L154.84,101.96L162.19,102.18L162.58,102.14L168.38,100.72L168.77,100.57L174.96,97.21L175.34,96.95L186.56,90.29L186.95,90.16L193.53,88.56L193.91,88.47L198.94,86.41L199.33,86.15L203.2,82.6L203.59,82.15L213.64,70.01L214.03,69.81L216.35,69.65L216.74,69.82L218.67,71.55L219.06,72.09L221.77,77.72L222.15,78.79L225.64,91.07L226.02,92.69L232.6,124.09L232.99,125.95L238.02,146.9L238.4,148.15L241.5,155.74L241.88,156.36L244.21,158.51L244.59,158.6L246.53,157.99L246.91,157.65L249.23,154.33L249.62,153.58L253.1,144.83L253.49,143.69L264.71,111.52L265.1,110.73L268.96,104.52L269.35,104.05L273.61,100.29L273.99,100.04L283.28,95.42L283.67,95.23L292.18,91.73L292.56,91.64L297.59,91.37L297.98,91.42L303.4,93.01L303.78,93.18L311.13,97.2L311.52,97.45L318.87,102.78L319.26,103.1L335.89,116.52L336.28,116.72L341.69,118.62L342.08,118.69L346.72,118.74L347.11,118.68L352.14,117.06L352.53,116.88L361.04,111.58L361.42,111.33L368,107.9L368.39,107.77L373.42,106.96L373.8,106.97L378.83,107.88L379.22,108L386.18,111.1L386.57,111.3L395.85,115.23L396.24,115.32L401.66,115.81L402.04,115.78L409.01,114.55L409.39,114.46L417.52,113.51L417.91,113.52L426.42,114.69L426.8,114.75L434.15,115.02L434.54,114.98L441.89,113.49L442.28,113.38L450.79,109.95L451.18,109.73L456.98,105.45L457.37,105.1L464.72,96.92L465.1,96.44L474.39,86.03L474.77,85.72L479.03,83.33L479.42,83.22L482.9,83.07L483.28,83.14L487.15,84.7L487.54,84.92L495.28,90.54L495.66,90.82L503.79,95.8L504.18,96L513.46,101.66L513.85,101.96L529.32,113.69L529.71,113.85L534.35,115.06L534.74,115.09L540.15,114.65L540.54,114.57L549.05,111.84L549.44,111.7L578.84,101.06L579.23,101.03L580,101" style="vector-effect: none; fill: none; stroke: rgb(99, 110, 250); stroke-opacity: 1; stroke-width: 0px; opacity: 1;"/></g><g class="points"/><g class="text"/></g><g class="trace scatter trace3405af" style="stroke-miterlimit: 2;"><g class="fills"/><g class="errorbars"/><g class="lines"><path class="js-line" d="M-193.33,171.26L-186.76,167.28L-186.37,166.94L-180.18,165.31L-179.79,165.62L-175.15,174.92L-174.76,176.18L-170.9,192.37L-170.51,194.29L-155.03,261.82L-154.65,262.25L-150.78,261.92L-150.39,261.45L-145.36,249.61L-144.98,248.36L-128.73,201.25L-128.34,200.77L-122.54,197.63L-122.15,197.66L-116.35,200.59L-115.96,200.93L-107.45,211.6L-107.06,212.2L-87.72,242.41L-87.33,242.86L-78.44,250.69L-78.05,250.92L-70.31,253.54L-69.92,253.57L-62.19,252.65L-61.8,252.54L-49.03,247.25L-48.65,247.05L-38.98,241L-38.59,240.71L-23.11,230.19L-22.73,230.05L-15.76,228.72L-15.38,228.7L5.9,227.58L6.29,227.49L22.53,223.74L22.92,223.74L28.34,224.33L28.72,224.42L41.49,227.31L41.88,227.27L45.36,226.17L45.75,225.96L49.61,222.84L50,222.43L55.03,215.83L55.42,215.25L64.7,202.37L65.09,201.99L68.57,199.52L68.96,199.36L72.05,199L72.44,199.07L75.53,200.46L75.92,200.73L79.79,204.45L80.18,204.91L95.65,223.81L96.04,224.12L100.68,226.85L101.07,227.01L106.87,228.5L107.26,228.56L118.86,229.33L119.25,229.33L135.5,229.94L135.88,230.01L156.39,233.49L156.78,233.49L164.9,232.75L165.29,232.66L171.09,230.74L171.48,230.56L180.37,225.55L180.76,225.33L187.72,222.16L188.11,222.04L198.17,218.46L198.56,218.2L202.81,214.3L203.2,213.85L214.03,201.12L214.42,200.95L216.74,200.89L217.13,201.06L219.06,202.71L219.45,203.22L222.15,208.41L222.54,209.39L226.02,220.59L226.41,222.07L232.99,250.65L233.37,252.34L238.79,272.41L239.18,273.48L242.27,279.64L242.66,280.11L244.98,281.45L245.37,281.43L247.3,280.4L247.69,280.01L250.4,275.8L250.78,275.01L255.04,264.39L255.42,263.32L263.94,241.66L264.32,240.91L268.58,234.42L268.96,233.99L273.22,230.46L273.61,230.23L280.18,227.24L280.57,227.09L291.79,223.21L292.18,223.15L297.21,223.17L297.59,223.24L303.01,224.91L303.4,225.08L311.52,229.3L311.91,229.53L323.51,237.41L323.9,237.7L333.18,243.56L333.57,243.73L339.37,245.51L339.76,245.57L345.18,245.68L345.56,245.64L350.98,244.26L351.37,244.11L358.33,240.62L358.72,240.4L367.61,236.29L368,236.18L373.42,235.52L373.8,235.53L379.61,236.55L379.99,236.66L390.44,240.9L390.83,241.06L397.4,243.11L397.79,243.17L403.2,243.32L403.59,243.28L420.61,241.13L421,241.17L437.64,242.81L438.02,242.79L447.31,241.6L447.69,241.51L453.5,239.61L453.88,239.43L459.3,236.05L459.69,235.75L467.81,228.17L468.2,227.79L475.16,221.84L475.55,221.6L479.8,219.89L480.19,219.83L484.06,220.05L484.45,220.16L489.09,222.32L489.47,222.56L507.27,233.05L507.66,233.25L515.78,238.33L516.17,238.61L527,246L527.39,246.19L532.8,247.97L533.19,248.03L538.99,248.05L539.38,248.01L549.82,245.65L550.21,245.55L569.17,239.94L569.55,239.81L578.07,237.67L578.45,237.63L580,237.56" style="vector-effect: none; fill: none; stroke: rgb(239, 85, 59); stroke-opacity: 1; stroke-width: 0px; opacity: 1;"/></g><g class="points"/><g class="text"/></g><g class="trace scatter tracec8af44" style="stroke-miterlimit: 2; opacity: 1;"><g class="fills"/><g class="errorbars"/><g class="lines"><path class="js-line" d="M-193.33,100.64L-187.14,96.92L-186.76,96.57L-180.18,94.84L-179.79,95.2L-175.15,105.46L-174.76,106.83L-166.64,148.92L-166.25,151.24L-159.68,185.91L-159.29,187.43L-153.1,200.02L-152.71,200.03L-149.23,196.41L-148.84,195.63L-142.27,174.82L-141.88,173.34L-129.5,135.7L-129.11,135.08L-123.31,130.1L-122.92,130.02L-117.51,131.52L-117.12,131.79L-109.77,139.84L-109.38,140.39L-83.08,180.95L-82.69,181.32L-74.18,187.02L-73.79,187.17L-66.44,188.28L-66.06,188.26L-57.16,186.15L-56.77,186.01L-43.62,179.6L-43.23,179.34L-32.4,170.72L-32.01,170.4L-23.89,165.11L-23.5,164.95L-17.31,163.45L-16.93,163.41L-8.03,163.53L-7.64,163.55L2.42,163.11L2.8,163.05L12.48,160.57L12.86,160.46L20.6,158.97L20.99,158.95L26.79,159.46L27.18,159.54L40.33,162.68L40.72,162.64L44.2,161.6L44.59,161.4L48.45,158.22L48.84,157.8L53.48,151.39L53.87,150.77L65.48,132.97L65.86,132.58L69.34,130.28L69.73,130.16L72.83,130.17L73.21,130.29L76.31,132.19L76.7,132.53L80.95,137.49L81.34,138.03L94.49,156.04L94.88,156.41L99.52,159.75L99.91,159.94L105.32,161.69L105.71,161.76L114.99,162.67L115.38,162.69L136.66,163.59L137.05,163.67L156.39,167.82L156.78,167.84L164.51,167.33L164.9,167.25L170.7,165.3L171.09,165.12L178.83,160.52L179.21,160.27L186.56,156.43L186.95,156.29L199.33,151.9L199.72,151.61L203.97,147.3L204.36,146.81L213.64,135.66L214.03,135.46L216.35,135.22L216.74,135.35L218.67,136.91L219.06,137.4L221.38,141.68L221.77,142.61L225.25,153.62L225.64,155.11L231.83,182.9L232.21,184.71L238.02,208.5L238.4,209.72L241.88,217.73L242.27,218.27L244.59,220L244.98,220.04L246.91,219.19L247.3,218.82L249.62,215.41L250.01,214.66L253.88,205.04L254.26,203.93L264.32,176.62L264.71,175.85L268.96,169.25L269.35,168.81L273.99,165.02L274.38,164.8L284.83,160.01L285.21,159.84L292.56,157.37L292.95,157.31L297.59,157.3L297.98,157.36L303.4,159.04L303.78,159.21L312.68,164.1L313.07,164.34L323.51,172.1L323.9,172.42L333.57,179.43L333.96,179.64L339.76,181.86L340.15,181.94L345.18,182.28L345.56,182.25L350.59,181.06L350.98,180.92L357.56,177.48L357.94,177.24L367.23,172.3L367.61,172.17L372.64,171.25L373.03,171.24L378.45,171.99L378.83,172.1L386.57,175.26L386.96,175.44L395.47,178.9L395.85,179L401.27,179.63L401.66,179.61L408.23,178.57L408.62,178.48L417.13,177.24L417.52,177.24L425.26,178.17L425.64,178.23L433.77,178.95L434.15,178.94L441.5,178.05L441.89,177.97L450.4,175.48L450.79,175.31L456.59,171.87L456.98,171.57L462.78,166.18L463.17,165.77L475.16,153.63L475.55,153.37L479.42,151.6L479.8,151.51L483.28,151.51L483.67,151.6L487.54,153.18L487.93,153.4L516.94,171.83L517.33,172.14L528.16,179.83L528.55,180.02L533.58,181.52L533.96,181.57L539.38,181.41L539.77,181.34L548.66,178.97L549.05,178.85L570.33,171.54L570.72,171.39L578.07,169.4L578.45,169.36L580,169.28" style="vector-effect: none; fill: none; stroke: rgb(207, 184, 124); stroke-opacity: 1; stroke-width: 3px; opacity: 1;"/></g><g class="points"/><g class="text"/></g><g class="trace scatter trace675116" style="stroke-miterlimit: 2;"><g class="fills"><g><path class="js-fill" d="M-193.33,165.9L-185.98,162.14L-185.6,161.9L-179.79,161.79L-179.41,162.16L-174.76,171.55L-174.38,172.77L-170.51,188.05L-170.12,189.83L-159.68,237.09L-159.29,238.25L-155.03,245.84L-154.65,246.06L-151.17,244.61L-150.78,244.11L-145.36,232.23L-144.98,231.15L-132.21,201.88L-131.82,201.5L-126.79,200.02L-126.41,200.16L-120.99,205.17L-120.6,205.71L-114.03,217.58L-113.64,218.38L-98.55,248.7L-98.17,249.3L-92.36,256.61L-91.98,256.99L-84.24,262.01L-83.85,262.13L-78.05,262.13L-77.66,262.01L-71.86,258.3L-71.47,257.94L-50.58,238.58L-50.2,238.38L-42.46,235.79L-42.07,235.75L-36.65,236.47L-36.27,236.62L-30.85,240.21L-30.47,240.57L-22.34,249.29L-21.95,249.69L-16.93,253.43L-16.54,253.58L-13.06,253.79L-12.67,253.68L-9.57,251.86L-9.19,251.51L-5.32,246.9L-4.93,246.34L9.38,224.93L9.77,224.56L13.64,222.04L14.02,221.91L17.51,221.51L17.89,221.55L22.15,222.92L22.53,223.11L32.98,227.61L33.37,227.64L36.85,227.2L37.24,227.06L41.1,224.85L41.49,224.56L54.26,214.43L54.64,214.31L57.74,214.15L58.13,214.23L61.22,215.73L61.61,216.02L65.48,220L65.86,220.5L78.63,237.18L79.02,237.41L81.72,238.13L82.11,238.09L84.43,237.07L84.82,236.76L87.53,233.61L87.91,233.02L91.78,225.47L92.17,224.58L105.32,194.52L105.71,193.98L108.8,191L109.19,190.8L111.9,190.46L112.29,190.55L114.99,192.18L115.38,192.54L119.25,197.33L119.64,197.91L129.69,212.12L130.08,212.49L134.34,215.51L134.72,215.69L146.72,220.9L147.1,221.21L152.13,226.34L152.52,226.78L160.64,235.17L161.03,235.44L165.29,237.39L165.67,237.47L169.93,237.56L170.32,237.51L178.44,235.5L178.83,235.38L186.56,231.98L186.95,231.75L197.4,225.82L197.78,225.75L200.88,226.1L201.26,226.27L204.36,228.7L204.75,229.15L208.23,234.33L208.61,235.02L220.61,257.01L220.99,257.42L224.09,259.48L224.48,259.57L226.8,259.31L227.18,259.14L229.89,256.97L230.28,256.53L233.76,251.46L234.15,250.8L243.04,236.19L243.43,235.79L246.14,234.18L246.53,234.12L248.85,234.85L249.23,235.15L251.56,237.98L251.94,238.62L255.04,245.22L255.42,246.21L267.42,276.98L267.8,277.58L270.9,280.89L271.29,281.12L273.99,281.78L274.38,281.75L277.48,280.69L277.86,280.48L287.92,275.33L288.31,275.27L292.56,275.25L292.95,275.3L304.17,276.48L304.56,276.43L310.36,274.97L310.75,274.82L316.94,271.66L317.32,271.4L323.12,266.7L323.51,266.33L335.89,254.87L336.28,254.66L339.76,253.67L340.15,253.66L343.24,254.38L343.63,254.57L347.11,257.18L347.5,257.57L352.53,263.87L352.91,264.42L365.29,281.56L365.68,281.94L369.93,285.09L370.32,285.27L374.58,286.31L374.96,286.33L380.38,285.45L380.77,285.34L392.37,282.56L392.76,282.55L397.4,283.33L397.79,283.46L402.43,286L402.82,286.28L415.97,295.81L416.36,295.94L420.23,296.47L420.61,296.44L424.87,295.14L425.26,294.94L429.9,291.55L430.29,291.19L435.7,284.93L436.09,284.4L443.05,273.04L443.44,272.33L453.5,255.34L453.88,254.9L456.98,252.49L457.37,252.35L459.69,252.27L460.07,252.4L462.39,253.98L462.78,254.38L465.88,258.79L466.26,259.48L471.68,270.82L472.07,271.67L477.48,282.21L477.87,282.8L481.35,286.8L481.74,287.09L484.83,288.33L485.22,288.36L488.31,287.68L488.7,287.5L492.96,284.47L493.34,284.13L504.18,275.16L504.56,275L507.66,274.55L508.04,274.61L510.75,275.8L511.14,276.08L514.23,279.38L514.62,279.91L518.88,287.03L519.26,287.76L527,300.89L527.39,301.33L530.48,303.69L530.87,303.82L533.19,303.84L533.58,303.71L536.28,301.91L536.67,301.54L540.93,296.1L541.31,295.54L548.66,286.1L549.05,285.75L553.31,283.11L553.69,282.96L563.75,279.01L564.14,278.72L568.78,274.25L569.17,273.82L576.52,266.63L576.91,266.4L580,265.45L580,134.42L577.68,135.22L577.29,135.48L566.85,149.57L566.46,150.09L562.59,154.31L562.2,154.62L557.95,156.9L557.56,157.03L552.15,158.95L551.76,159.16L547.89,162.36L547.5,162.8L540.93,173.04L540.54,173.71L536.28,180.38L535.9,180.86L533.19,183.24L532.8,183.43L530.48,183.65L530.1,183.54L527.39,181.51L527,181.06L516.17,159.72L515.78,158.95L511.91,152.5L511.53,152L508.43,149.13L508.04,148.91L504.95,148.24L504.56,148.29L501.08,149.82L500.69,150.1L492.18,159.35L491.8,159.81L487.54,164.16L487.15,164.45L484.45,165.76L484.06,165.82L481.35,165.3L480.96,165.07L477.48,161.3L477.1,160.7L468.97,142.48L468.58,141.53L464.33,132.23L463.94,131.55L461.23,127.84L460.85,127.47L458.53,126.21L458.14,126.15L455.82,126.73L455.43,126.97L452.34,130.21L451.95,130.76L446.15,141.43L445.76,142.24L438.41,157.1L438.02,157.81L432.61,166.35L432.22,166.86L427.96,171.45L427.58,171.77L424.1,173.9L423.71,174.05L420.23,174.52L419.84,174.48L415.97,172.98L415.58,172.73L402.82,158.98L402.43,158.56L397.79,154.33L397.4,154.06L393.15,151.98L392.76,151.88L388.5,151.61L388.12,151.66L378.83,155.24L378.45,155.42L373.8,156.88L373.42,156.91L369.93,156.45L369.55,156.3L365.68,153.67L365.29,153.3L352.91,135.96L352.53,135.4L347.5,129.11L347.11,128.73L343.63,126.12L343.24,125.94L339.76,125.28L339.37,125.33L335.89,126.7L335.5,126.96L326.22,136.52L325.83,136.96L320.42,142.23L320.03,142.53L315,145.36L314.61,145.5L308.81,146.62L308.42,146.64L298.37,145.8L297.98,145.74L292.56,145.3L292.18,145.31L287.92,146.33L287.53,146.5L282.5,149.92L282.12,150.25L277.09,154.29L276.7,154.52L273.99,155.42L273.61,155.42L270.9,154.34L270.51,154.01L267.42,149.63L267.03,148.87L255.42,112.6L255.04,111.41L251.56,102.56L251.17,101.83L248.85,98.68L248.46,98.36L246.53,97.7L246.14,97.75L243.43,99.56L243.04,100.01L238.02,108.8L237.63,109.61L232.21,120.4L231.83,121.04L228.73,125.11L228.34,125.47L226.02,126.76L225.64,126.83L223.31,126.39L222.93,126.17L219.83,122.98L219.45,122.41L211.32,105.37L210.94,104.47L206.29,94.84L205.91,94.18L202.81,90.01L202.42,89.63L199.72,87.91L199.33,87.79L196.23,87.85L195.85,87.97L180.37,99.75L179.99,100.05L173.02,104.83L172.64,105.05L168.77,106.61L168.38,106.69L164.9,106.52L164.51,106.39L160.64,103.79L160.26,103.4L154.07,94.96L153.68,94.36L148.26,86.66L147.88,86.21L144.01,82.72L143.62,82.47L137.82,80.17L137.43,80.05L133.18,78.26L132.79,78.02L128.53,74.01L128.15,73.52L121.57,62.49L121.18,61.76L115.77,52.2L115.38,51.65L112.29,48.29L111.9,48.02L109.58,47.27L109.19,47.29L106.87,48.34L106.48,48.66L103,53.49L102.61,54.22L94.1,76.18L93.72,77.27L89.07,89.05L88.69,89.86L85.59,95.11L85.21,95.58L82.88,97.56L82.5,97.74L80.18,97.94L79.79,97.83L76.7,95.66L76.31,95.25L68.96,84.19L68.57,83.56L63.93,76.87L63.54,76.43L60.45,73.75L60.06,73.53L57.35,72.79L56.97,72.8L53.48,74.07L53.1,74.33L47.29,80.26L46.91,80.72L41.49,86.84L41.1,87.19L37.24,89.8L36.85,89.96L33.37,90.5L32.98,90.46L26.4,88.2L26.02,88.01L20.99,85.99L20.6,85.89L17.12,85.63L16.73,85.68L12.86,87.17L12.48,87.43L8.22,91.5L7.83,91.98L-0.68,105.86L-1.06,106.56L-6.48,115.51L-6.87,116.04L-10.35,119.78L-10.74,120.07L-13.83,121.32L-14.22,121.35L-17.7,120.34L-18.09,120.11L-26.21,111.51L-26.6,111.03L-32.79,104.36L-33.17,104.04L-38.2,101.36L-38.59,101.26L-44.39,101.54L-44.78,101.66L-54.06,106.43L-54.45,106.69L-65.28,115.99L-65.67,116.38L-73.41,123.38L-73.79,123.62L-79.21,125.3L-79.6,125.29L-87.33,122.52L-87.72,122.29L-96.62,114.55L-97.01,114.09L-107.84,94.98L-108.22,94.11L-119.06,70.62L-119.44,69.95L-124.86,63.45L-125.25,63.23L-129.89,63.61L-130.28,63.91L-147.3,108.24L-147.68,109.28L-151.94,117.24L-152.33,117.56L-156.19,116.16L-156.58,115.53L-165.09,81.77L-165.48,79.59L-174.38,32.71L-174.76,31.23L-179.41,19.05L-179.79,18.49L-193.33,18.76Z" style="fill: rgb(148, 0, 211); fill-opacity: 0.2; stroke-width: 0;"/></g></g><g class="errorbars"/><g class="lines"><path class="js-line" d="M-193.33,18.76L-179.79,18.49L-179.41,19.05L-174.76,31.23L-174.38,32.71L-165.48,79.59L-165.09,81.77L-156.58,115.53L-156.19,116.16L-152.33,117.56L-151.94,117.24L-147.68,109.28L-147.3,108.24L-130.28,63.91L-129.89,63.61L-125.25,63.23L-124.86,63.45L-119.44,69.95L-119.06,70.62L-108.22,94.11L-107.84,94.98L-97.01,114.09L-96.62,114.55L-87.72,122.29L-87.33,122.52L-79.6,125.29L-79.21,125.3L-73.79,123.62L-73.41,123.38L-65.67,116.38L-65.28,115.99L-54.45,106.69L-54.06,106.43L-44.78,101.66L-44.39,101.54L-38.59,101.26L-38.2,101.36L-33.17,104.04L-32.79,104.36L-26.6,111.03L-26.21,111.51L-18.09,120.11L-17.7,120.34L-14.22,121.35L-13.83,121.32L-10.74,120.07L-10.35,119.78L-6.87,116.04L-6.48,115.51L-1.06,106.56L-0.68,105.86L7.83,91.98L8.22,91.5L12.48,87.43L12.86,87.17L16.73,85.68L17.12,85.63L20.6,85.89L20.99,85.99L26.02,88.01L26.4,88.2L32.98,90.46L33.37,90.5L36.85,89.96L37.24,89.8L41.1,87.19L41.49,86.84L46.91,80.72L47.29,80.26L53.1,74.33L53.48,74.07L56.97,72.8L57.35,72.79L60.06,73.53L60.45,73.75L63.54,76.43L63.93,76.87L68.57,83.56L68.96,84.19L76.31,95.25L76.7,95.66L79.79,97.83L80.18,97.94L82.5,97.74L82.88,97.56L85.21,95.58L85.59,95.11L88.69,89.86L89.07,89.05L93.72,77.27L94.1,76.18L102.61,54.22L103,53.49L106.48,48.66L106.87,48.34L109.19,47.29L109.58,47.27L111.9,48.02L112.29,48.29L115.38,51.65L115.77,52.2L121.18,61.76L121.57,62.49L128.15,73.52L128.53,74.01L132.79,78.02L133.18,78.26L137.43,80.05L137.82,80.17L143.62,82.47L144.01,82.72L147.88,86.21L148.26,86.66L153.68,94.36L154.07,94.96L160.26,103.4L160.64,103.79L164.51,106.39L164.9,106.52L168.38,106.69L168.77,106.61L172.64,105.05L173.02,104.83L179.99,100.05L180.37,99.75L195.85,87.97L196.23,87.85L199.33,87.79L199.72,87.91L202.42,89.63L202.81,90.01L205.91,94.18L206.29,94.84L210.94,104.47L211.32,105.37L219.45,122.41L219.83,122.98L222.93,126.17L223.31,126.39L225.64,126.83L226.02,126.76L228.34,125.47L228.73,125.11L231.83,121.04L232.21,120.4L237.63,109.61L238.02,108.8L243.04,100.01L243.43,99.56L246.14,97.75L246.53,97.7L248.46,98.36L248.85,98.68L251.17,101.83L251.56,102.56L255.04,111.41L255.42,112.6L267.03,148.87L267.42,149.63L270.51,154.01L270.9,154.34L273.61,155.42L273.99,155.42L276.7,154.52L277.09,154.29L282.12,150.25L282.5,149.92L287.53,146.5L287.92,146.33L292.18,145.31L292.56,145.3L297.98,145.74L298.37,145.8L308.42,146.64L308.81,146.62L314.61,145.5L315,145.36L320.03,142.53L320.42,142.23L325.83,136.96L326.22,136.52L335.5,126.96L335.89,126.7L339.37,125.33L339.76,125.28L343.24,125.94L343.63,126.12L347.11,128.73L347.5,129.11L352.53,135.4L352.91,135.96L365.29,153.3L365.68,153.67L369.55,156.3L369.93,156.45L373.42,156.91L373.8,156.88L378.45,155.42L378.83,155.24L388.12,151.66L388.5,151.61L392.76,151.88L393.15,151.98L397.4,154.06L397.79,154.33L402.43,158.56L402.82,158.98L415.58,172.73L415.97,172.98L419.84,174.48L420.23,174.52L423.71,174.05L424.1,173.9L427.58,171.77L427.96,171.45L432.22,166.86L432.61,166.35L438.02,157.81L438.41,157.1L445.76,142.24L446.15,141.43L451.95,130.76L452.34,130.21L455.43,126.97L455.82,126.73L458.14,126.15L458.53,126.21L460.85,127.47L461.23,127.84L463.94,131.55L464.33,132.23L468.58,141.53L468.97,142.48L477.1,160.7L477.48,161.3L480.96,165.07L481.35,165.3L484.06,165.82L484.45,165.76L487.15,164.45L487.54,164.16L491.8,159.81L492.18,159.35L500.69,150.1L501.08,149.82L504.56,148.29L504.95,148.24L508.04,148.91L508.43,149.13L511.53,152L511.91,152.5L515.78,158.95L516.17,159.72L527,181.06L527.39,181.51L530.1,183.54L530.48,183.65L532.8,183.43L533.19,183.24L535.9,180.86L536.28,180.38L540.54,173.71L540.93,173.04L547.5,162.8L547.89,162.36L551.76,159.16L552.15,158.95L557.56,157.03L557.95,156.9L562.2,154.62L562.59,154.31L566.46,150.09L566.85,149.57L577.29,135.48L577.68,135.22L580,134.42" style="vector-effect: none; fill: none; stroke: rgb(171, 99, 250); stroke-opacity: 1; stroke-width: 0px; opacity: 1;"/></g><g class="points"/><g class="text"/></g><g class="trace scatter trace9fd5a6" style="stroke-miterlimit: 2;"><g class="fills"/><g class="errorbars"/><g class="lines"><path class="js-line" d="M-193.33,165.9L-185.98,162.14L-185.6,161.9L-179.79,161.79L-179.41,162.16L-174.76,171.55L-174.38,172.77L-170.51,188.05L-170.12,189.83L-159.68,237.09L-159.29,238.25L-155.03,245.84L-154.65,246.06L-151.17,244.61L-150.78,244.11L-145.36,232.23L-144.98,231.15L-132.21,201.88L-131.82,201.5L-126.79,200.02L-126.41,200.16L-120.99,205.17L-120.6,205.71L-114.03,217.58L-113.64,218.38L-98.55,248.7L-98.17,249.3L-92.36,256.61L-91.98,256.99L-84.24,262.01L-83.85,262.13L-78.05,262.13L-77.66,262.01L-71.86,258.3L-71.47,257.94L-50.58,238.58L-50.2,238.38L-42.46,235.79L-42.07,235.75L-36.65,236.47L-36.27,236.62L-30.85,240.21L-30.47,240.57L-22.34,249.29L-21.95,249.69L-16.93,253.43L-16.54,253.58L-13.06,253.79L-12.67,253.68L-9.57,251.86L-9.19,251.51L-5.32,246.9L-4.93,246.34L9.38,224.93L9.77,224.56L13.64,222.04L14.02,221.91L17.51,221.51L17.89,221.55L22.15,222.92L22.53,223.11L32.98,227.61L33.37,227.64L36.85,227.2L37.24,227.06L41.1,224.85L41.49,224.56L54.26,214.43L54.64,214.31L57.74,214.15L58.13,214.23L61.22,215.73L61.61,216.02L65.48,220L65.86,220.5L78.63,237.18L79.02,237.41L81.72,238.13L82.11,238.09L84.43,237.07L84.82,236.76L87.53,233.61L87.91,233.02L91.78,225.47L92.17,224.58L105.32,194.52L105.71,193.98L108.8,191L109.19,190.8L111.9,190.46L112.29,190.55L114.99,192.18L115.38,192.54L119.25,197.33L119.64,197.91L129.69,212.12L130.08,212.49L134.34,215.51L134.72,215.69L146.72,220.9L147.1,221.21L152.13,226.34L152.52,226.78L160.64,235.17L161.03,235.44L165.29,237.39L165.67,237.47L169.93,237.56L170.32,237.51L178.44,235.5L178.83,235.38L186.56,231.98L186.95,231.75L197.4,225.82L197.78,225.75L200.88,226.1L201.26,226.27L204.36,228.7L204.75,229.15L208.23,234.33L208.61,235.02L220.61,257.01L220.99,257.42L224.09,259.48L224.48,259.57L226.8,259.31L227.18,259.14L229.89,256.97L230.28,256.53L233.76,251.46L234.15,250.8L243.04,236.19L243.43,235.79L246.14,234.18L246.53,234.12L248.85,234.85L249.23,235.15L251.56,237.98L251.94,238.62L255.04,245.22L255.42,246.21L267.42,276.98L267.8,277.58L270.9,280.89L271.29,281.12L273.99,281.78L274.38,281.75L277.48,280.69L277.86,280.48L287.92,275.33L288.31,275.27L292.56,275.25L292.95,275.3L304.17,276.48L304.56,276.43L310.36,274.97L310.75,274.82L316.94,271.66L317.32,271.4L323.12,266.7L323.51,266.33L335.89,254.87L336.28,254.66L339.76,253.67L340.15,253.66L343.24,254.38L343.63,254.57L347.11,257.18L347.5,257.57L352.53,263.87L352.91,264.42L365.29,281.56L365.68,281.94L369.93,285.09L370.32,285.27L374.58,286.31L374.96,286.33L380.38,285.45L380.77,285.34L392.37,282.56L392.76,282.55L397.4,283.33L397.79,283.46L402.43,286L402.82,286.28L415.97,295.81L416.36,295.94L420.23,296.47L420.61,296.44L424.87,295.14L425.26,294.94L429.9,291.55L430.29,291.19L435.7,284.93L436.09,284.4L443.05,273.04L443.44,272.33L453.5,255.34L453.88,254.9L456.98,252.49L457.37,252.35L459.69,252.27L460.07,252.4L462.39,253.98L462.78,254.38L465.88,258.79L466.26,259.48L471.68,270.82L472.07,271.67L477.48,282.21L477.87,282.8L481.35,286.8L481.74,287.09L484.83,288.33L485.22,288.36L488.31,287.68L488.7,287.5L492.96,284.47L493.34,284.13L504.18,275.16L504.56,275L507.66,274.55L508.04,274.61L510.75,275.8L511.14,276.08L514.23,279.38L514.62,279.91L518.88,287.03L519.26,287.76L527,300.89L527.39,301.33L530.48,303.69L530.87,303.82L533.19,303.84L533.58,303.71L536.28,301.91L536.67,301.54L540.93,296.1L541.31,295.54L548.66,286.1L549.05,285.75L553.31,283.11L553.69,282.96L563.75,279.01L564.14,278.72L568.78,274.25L569.17,273.82L576.52,266.63L576.91,266.4L580,265.45" style="vector-effect: none; fill: none; stroke: rgb(255, 161, 90); stroke-opacity: 1; stroke-width: 0px; opacity: 1;"/></g><g class="points"/><g class="text"/></g><g class="trace scatter tracec484b4" style="stroke-miterlimit: 2; opacity: 1;"><g class="fills"/><g class="errorbars"/><g class="lines"><path class="js-line" d="M-193.33,92.33L-181.73,88.7L-181.34,88.88L-177.09,94.75L-176.7,95.68L-170.51,119.5L-170.12,121.44L-156.19,180.45L-155.81,180.94L-151.94,181.33L-151.55,180.94L-146.91,171.74L-146.52,170.69L-131.44,133.12L-131.05,132.75L-126.02,131.61L-125.63,131.79L-120.22,137.49L-119.83,138.09L-110.16,157.78L-109.77,158.65L-97.01,182.55L-96.62,183.05L-87.72,191.32L-87.33,191.56L-80.37,193.89L-79.98,193.9L-74.18,192.01L-73.79,191.76L-65.67,184.09L-65.28,183.67L-54.06,173.58L-53.68,173.32L-44.78,168.95L-44.39,168.84L-38.59,168.59L-38.2,168.68L-33.17,171.19L-32.79,171.49L-26.98,177.36L-26.6,177.82L-17.7,186.7L-17.31,186.91L-13.83,187.62L-13.44,187.57L-10.35,186.12L-9.96,185.82L-6.09,181.47L-5.71,180.92L0.48,170.64L0.87,169.96L7.83,159.28L8.22,158.82L12.48,155.01L12.86,154.78L16.34,153.61L16.73,153.57L20.6,154.07L20.99,154.2L27.18,157.07L27.56,157.26L32.59,158.99L32.98,159.04L36.46,158.7L36.85,158.58L40.72,156.34L41.1,156.02L46.13,151.02L46.52,150.6L52.71,144.86L53.1,144.62L56.19,143.48L56.58,143.44L59.67,144.07L60.06,144.26L63.15,146.69L63.54,147.1L68.18,153.33L68.57,153.93L77.08,165.99L77.47,166.35L80.56,168.02L80.95,168.07L83.27,167.55L83.66,167.32L86.37,164.6L86.75,164.06L90.24,157.61L90.62,156.74L96.42,141.76L96.81,140.71L103.39,125.25L103.78,124.57L106.87,120.46L107.26,120.12L109.96,118.9L110.35,118.89L112.67,119.64L113.06,119.89L116.15,123.05L116.54,123.57L121.57,131.69L121.96,132.36L128.53,142.44L128.92,142.9L133.18,146.57L133.56,146.8L138.59,148.72L138.98,148.83L144.4,151.15L144.78,151.4L149.04,155.3L149.42,155.74L162.19,170.64L162.58,170.88L166.06,172.15L166.45,172.2L170.32,171.82L170.7,171.72L177.28,168.95L177.67,168.75L185.79,163.87L186.18,163.6L196.23,157L196.62,156.88L199.72,156.84L200.1,156.96L202.81,158.63L203.2,158.99L206.29,163.02L206.68,163.65L211.32,172.84L211.71,173.69L219.45,188.99L219.83,189.53L223.31,192.79L223.7,192.96L226.02,193.15L226.41,193.05L229.12,191.24L229.5,190.84L232.99,185.89L233.37,185.22L243.82,167.29L244.21,166.96L246.53,165.91L246.91,165.92L248.85,166.76L249.23,167.1L251.56,170.27L251.94,170.99L255.04,178.32L255.42,179.4L267.03,212.61L267.42,213.31L270.51,217.31L270.9,217.62L273.61,218.61L273.99,218.6L276.7,217.79L277.09,217.59L289.08,210.53L289.47,210.46L294.11,210.4L294.5,210.45L307.26,211.3L307.65,211.25L313.84,209.6L314.23,209.44L319.64,206.27L320.03,205.97L325.83,200.48L326.22,200.06L335.5,191.02L335.89,190.79L339.37,189.51L339.76,189.48L342.85,189.99L343.24,190.16L346.72,192.59L347.11,192.96L351.37,198.01L351.75,198.54L366.07,218.16L366.45,218.51L370.71,221.07L371.1,221.19L374.96,221.5L375.35,221.45L380.38,219.98L380.77,219.83L389.28,217.22L389.66,217.18L393.92,217.42L394.31,217.51L398.56,219.34L398.95,219.59L403.59,223.35L403.98,223.72L415.2,233.98L415.58,234.19L419.45,235.45L419.84,235.48L423.71,234.86L424.1,234.7L428.35,231.99L428.74,231.66L433.77,226.08L434.15,225.56L439.57,217.01L439.96,216.32L453.5,192.04L453.88,191.61L456.98,189.37L457.37,189.26L459.69,189.46L460.07,189.64L462.39,191.58L462.78,192.05L465.88,197.03L466.26,197.79L473.23,213.57L473.61,214.43L478.64,223.4L479.03,223.89L482.12,226.49L482.51,226.66L485.22,226.94L485.61,226.86L488.7,225.33L489.09,225.04L494.89,219.38L495.28,218.96L501.85,212.91L502.24,212.67L505.72,211.45L506.11,211.43L508.82,212.09L509.2,212.3L512.3,215.07L512.69,215.55L516.55,221.7L516.94,222.43L527.39,241.42L527.77,241.84L530.48,243.67L530.87,243.78L533.19,243.54L533.58,243.37L536.28,241.15L536.67,240.71L541.31,233.95L541.7,233.32L548.28,224.2L548.66,223.82L552.53,221.1L552.92,220.92L563.37,216.46L563.75,216.13L568.01,211.51L568.39,211.01L576.52,201.36L576.91,201.08L580,199.94" style="vector-effect: none; fill: none; stroke: rgb(148, 0, 211); stroke-opacity: 1; stroke-width: 3px; opacity: 1;"/></g><g class="points"/><g class="text"/></g></g></g></g><g class="zerolinelayer-above"/><path class="xlines-above crisp" d="M79,420.5H661M79,99.5H661" style="fill: none; stroke-width: 1px; stroke: rgb(0, 0, 0); stroke-opacity: 1;"/><path class="ylines-above crisp" d="M79.5,100V420M660.5,100V420" style="fill: none; stroke-width: 1px; stroke: rgb(0, 0, 0); stroke-opacity: 1;"/><g class="overlines-above"/><g class="xaxislayer-above"><path class="xtick ticks crisp" d="M0,421v5" transform="translate(118.67,0)" style="stroke: rgb(68, 68, 68); stroke-opacity: 1; stroke-width: 1px;"/><path class="xtick ticks crisp" d="M0,421v5" transform="translate(196,0)" style="stroke: rgb(68, 68, 68); stroke-opacity: 1; stroke-width: 1px;"/><path class="xtick ticks crisp" d="M0,421v5" transform="translate(273.33000000000004,0)" style="stroke: rgb(68, 68, 68); stroke-opacity: 1; stroke-width: 1px;"/><path class="xtick ticks crisp" d="M0,421v5" transform="translate(350.67,0)" style="stroke: rgb(68, 68, 68); stroke-opacity: 1; stroke-width: 1px;"/><path class="xtick ticks crisp" d="M0,421v5" transform="translate(428,0)" style="stroke: rgb(68, 68, 68); stroke-opacity: 1; stroke-width: 1px;"/><path class="xtick ticks crisp" d="M0,421v5" transform="translate(505.33,0)" style="stroke: rgb(68, 68, 68); stroke-opacity: 1; stroke-width: 1px;"/><path class="xtick ticks crisp" d="M0,421v5" transform="translate(582.6700000000001,0)" style="stroke: rgb(68, 68, 68); stroke-opacity: 1; stroke-width: 1px;"/><path class="xtick ticks crisp" d="M0,421v5" transform="translate(660,0)" style="stroke: rgb(68, 68, 68); stroke-opacity: 1; stroke-width: 1px;"/><g class="xtick"><text text-anchor="middle" x="0" y="440.4" transform="translate(118.67,0)" style="font-family: 'Open Sans', verdana, arial, sans-serif; font-size: 12px; fill: rgb(42, 63, 95); fill-opacity: 1; white-space: pre;">−400</text></g><g class="xtick"><text text-anchor="middle" x="0" y="440.4" style="font-family: 'Open Sans', verdana, arial, sans-serif; font-size: 12px; fill: rgb(42, 63, 95); fill-opacity: 1; white-space: pre;" transform="translate(196,0)">−200</text></g><g class="xtick"><text text-anchor="middle" x="0" y="440.4" style="font-family: 'Open Sans', verdana, arial, sans-serif; font-size: 12px; fill: rgb(42, 63, 95); fill-opacity: 1; white-space: pre;" transform="translate(273.33000000000004,0)">0</text></g><g class="xtick"><text text-anchor="middle" x="0" y="440.4" style="font-family: 'Open Sans', verdana, arial, sans-serif; font-size: 12px; fill: rgb(42, 63, 95); fill-opacity: 1; white-space: pre;" transform="translate(350.67,0)">200</text></g><g class="xtick"><text text-anchor="middle" x="0" y="440.4" style="font-family: 'Open Sans', verdana, arial, sans-serif; font-size: 12px; fill: rgb(42, 63, 95); fill-opacity: 1; white-space: pre;" transform="translate(428,0)">400</text></g><g class="xtick"><text text-anchor="middle" x="0" y="440.4" style="font-family: 'Open Sans', verdana, arial, sans-serif; font-size: 12px; fill: rgb(42, 63, 95); fill-opacity: 1; white-space: pre;" transform="translate(505.33,0)">600</text></g><g class="xtick"><text text-anchor="middle" x="0" y="440.4" style="font-family: 'Open Sans', verdana, arial, sans-serif; font-size: 12px; fill: rgb(42, 63, 95); fill-opacity: 1; white-space: pre;" transform="translate(582.6700000000001,0)">800</text></g><g class="xtick"><text text-anchor="middle" x="0" y="440.4" style="font-family: 'Open Sans', verdana, arial, sans-serif; font-size: 12px; fill: rgb(42, 63, 95); fill-opacity: 1; white-space: pre;" transform="translate(660,0)">1000</text></g></g><g class="yaxislayer-above"><path class="ytick ticks crisp" d="M79,0h-5" transform="translate(0,394.84)" style="stroke: rgb(68, 68, 68); stroke-opacity: 1; stroke-width: 1px;"/><path class="ytick ticks crisp" d="M79,0h-5" transform="translate(0,354.7)" style="stroke: rgb(68, 68, 68); stroke-opacity: 1; stroke-width: 1px;"/><path class="ytick ticks crisp" d="M79,0h-5" transform="translate(0,314.57)" style="stroke: rgb(68, 68, 68); stroke-opacity: 1; stroke-width: 1px;"/><path class="ytick ticks crisp" d="M79,0h-5" transform="translate(0,274.44)" style="stroke: rgb(68, 68, 68); stroke-opacity: 1; stroke-width: 1px;"/><path class="ytick ticks crisp" d="M79,0h-5" transform="translate(0,234.31)" style="stroke: rgb(68, 68, 68); stroke-opacity: 1; stroke-width: 1px;"/><path class="ytick ticks crisp" d="M79,0h-5" transform="translate(0,194.17000000000002)" style="stroke: rgb(68, 68, 68); stroke-opacity: 1; stroke-width: 1px;"/><path class="ytick ticks crisp" d="M79,0h-5" transform="translate(0,154.04)" style="stroke: rgb(68, 68, 68); stroke-opacity: 1; stroke-width: 1px;"/><path class="ytick ticks crisp" d="M79,0h-5" transform="translate(0,113.91)" style="stroke: rgb(68, 68, 68); stroke-opacity: 1; stroke-width: 1px;"/><g class="ytick"><text text-anchor="end" x="71.6" y="4.199999999999999" transform="translate(0,394.84)" style="font-family: 'Open Sans', verdana, arial, sans-serif; font-size: 12px; fill: rgb(42, 63, 95); fill-opacity: 1; white-space: pre;">3.4</text></g><g class="ytick"><text text-anchor="end" x="71.6" y="4.199999999999999" style="font-family: 'Open Sans', verdana, arial, sans-serif; font-size: 12px; fill: rgb(42, 63, 95); fill-opacity: 1; white-space: pre;" transform="translate(0,354.7)">3.6</text></g><g class="ytick"><text text-anchor="end" x="71.6" y="4.199999999999999" style="font-family: 'Open Sans', verdana, arial, sans-serif; font-size: 12px; fill: rgb(42, 63, 95); fill-opacity: 1; white-space: pre;" transform="translate(0,314.57)">3.8</text></g><g class="ytick"><text text-anchor="end" x="71.6" y="4.199999999999999" style="font-family: 'Open Sans', verdana, arial, sans-serif; font-size: 12px; fill: rgb(42, 63, 95); fill-opacity: 1; white-space: pre;" transform="translate(0,274.44)">4</text></g><g class="ytick"><text text-anchor="end" x="71.6" y="4.199999999999999" style="font-family: 'Open Sans', verdana, arial, sans-serif; font-size: 12px; fill: rgb(42, 63, 95); fill-opacity: 1; white-space: pre;" transform="translate(0,234.31)">4.2</text></g><g class="ytick"><text text-anchor="end" x="71.6" y="4.199999999999999" style="font-family: 'Open Sans', verdana, arial, sans-serif; font-size: 12px; fill: rgb(42, 63, 95); fill-opacity: 1; white-space: pre;" transform="translate(0,194.17000000000002)">4.4</text></g><g class="ytick"><text text-anchor="end" x="71.6" y="4.199999999999999" style="font-family: 'Open Sans', verdana, arial, sans-serif; font-size: 12px; fill: rgb(42, 63, 95); fill-opacity: 1; white-space: pre;" transform="translate(0,154.04)">4.6</text></g><g class="ytick"><text text-anchor="end" x="71.6" y="4.199999999999999" style="font-family: 'Open Sans', verdana, arial, sans-serif; font-size: 12px; fill: rgb(42, 63, 95); fill-opacity: 1; white-space: pre;" transform="translate(0,113.91)">4.8</text></g></g><g class="overaxes-above"/></g></g><g class="polarlayer"/><g class="smithlayer"/><g class="ternarylayer"/><g class="geolayer"/><g class="funnelarealayer"/><g class="pielayer"/><g class="iciclelayer"/><g class="treemaplayer"/><g class="sunburstlayer"/><g class="glimages"/><defs id="topdefs-e3c942"><g class="clips"/><clipPath id="legende3c942"><rect width="296" height="29" x="1" y="1"/></clipPath></defs><g class="layer-above"><g class="imagelayer"/><g class="shapelayer"><g class="shape-group" data-index="0" clip-path="url(#clipe3c942x)"><path data-index="0" fill-rule="evenodd" d="M273.33000000000004,420L273.33000000000004,100" style="opacity: 1; stroke: rgb(255, 0, 0); stroke-opacity: 1; fill: rgb(0, 0, 0); fill-opacity: 0; stroke-dasharray: 9px, 9px; stroke-width: 2px;"/></g></g></g><g class="infolayer"><g class="legend" pointer-events="all" transform="translate(362,62.599999999999994)"><rect class="bg" shape-rendering="crispEdges" style="stroke: rgb(0, 0, 0); stroke-opacity: 1; fill: rgb(255, 255, 255); fill-opacity: 0.8; stroke-width: 1px;" width="297" height="30" x="0.5" y="0.5"/><g class="scrollbox" transform="" clip-path="url(#legende3c942)"><g class="groups" transform=""><g class="traces" transform="translate(0,15.5)" style="opacity: 1;"><text class="legendtext" text-anchor="start" x="40" y="4.680000000000001" style="font-family: 'Open Sans', verdana, arial, sans-serif; font-size: 12px; fill: rgb(42, 63, 95); fill-opacity: 1; white-space: pre;">Standard (AAAB)</text><g class="layers" style="opacity: 1;"><g class="legendfill"/><g class="legendlines"><path class="js-line" d="M5,0h30" style="fill: none; stroke: rgb(207, 184, 124); stroke-opacity: 1; stroke-width: 3px;"/></g><g class="legendsymbols"><g class="legendpoints"/></g></g><rect class="legendtoggle" x="0" y="-9.5" width="145.46875" height="19" style="fill: rgb(0, 0, 0); fill-opacity: 0;"/></g></g><g class="groups" transform="translate(147.96875,0)"><g class="traces" transform="translate(0,15.5)" style="opacity: 1;"><text class="legendtext" text-anchor="start" x="40" y="4.680000000000001" style="font-family: 'Open Sans', verdana, arial, sans-serif; font-size: 12px; fill: rgb(42, 63, 95); fill-opacity: 1; white-space: pre;">Omission (AXAB)</text><g class="layers" style="opacity: 1;"><g class="legendfill"/><g class="legendlines"><path class="js-line" d="M5,0h30" style="fill: none; stroke: rgb(148, 0, 211); stroke-opacity: 1; stroke-width: 3px;"/></g><g class="legendsymbols"><g class="legendpoints"/></g></g><rect class="legendtoggle" x="0" y="-9.5" width="145.5546875" height="19" style="fill: rgb(0, 0, 0); fill-opacity: 0;"/></g></g></g><rect class="scrollbar" rx="20" ry="3" width="0" height="0" style="fill: rgb(128, 139, 164); fill-opacity: 1;" x="0" y="0"/></g><g class="g-gtitle"><text class="gtitle" x="350" y="50" text-anchor="middle" dy="0em" style="opacity: 1; font-family: Arial; font-size: 18px; fill: rgb(0, 0, 0); fill-opacity: 1; white-space: pre;"><tspan class="line" dy="0em" x="350" y="50"><tspan style="font-weight:bold">Figure f002: V3d Omission-Local PSTH</tspan></tspan><tspan class="line" dy="1.3em" x="350" y="50">​<tspan style="font-size:70%" dy="-0.6em">n=379 units | Mean ± SEM | 0ms = Omission Onset</tspan><tspan dy="0.42em">​</tspan></tspan></text></g><g class="g-xtitle"><text class="xtitle" x="370" y="467.200390625" text-anchor="middle" style="opacity: 1; font-family: 'Open Sans', verdana, arial, sans-serif; font-size: 14px; fill: rgb(42, 63, 95); fill-opacity: 1; white-space: pre;">Time from Omission (ms)</text></g><g class="g-ytitle"><text class="ytitle" transform="rotate(-90,32.574609375,260)" x="32.574609375" y="260" text-anchor="middle" style="opacity: 1; font-family: 'Open Sans', verdana, arial, sans-serif; font-size: 14px; fill: rgb(42, 63, 95); fill-opacity: 1; white-space: pre;">Firing Rate (Hz)</text></g><g class="annotation" data-index="0" style="opacity: 1;"><g class="annotation-text-g" transform="rotate(0,322.83000000000004,109.5)"><g class="cursor-pointer" transform="translate(273,100)"><rect class="bg" x="0.5" y="0.5" width="98" height="18" style="stroke-width: 1px; stroke: rgb(0, 0, 0); stroke-opacity: 0; fill: rgb(0, 0, 0); fill-opacity: 0;"/><text class="annotation-text" text-anchor="middle" x="49.23828125" y="14" style="font-family: 'Open Sans', verdana, arial, sans-serif; font-size: 12px; fill: rgb(42, 63, 95); fill-opacity: 1; white-space: pre;">Omission Onset</text></g></g></g></g></svg>