<svg class="main-svg" xmlns="http://www.w3.org/2000/svg" xmlns:xlink="http://www.w3.org/1999/xlink" width="700" height="500" style="" viewBox="0 0 700 500"><rect x="0" y="0" width="700" height="500" style="fill: rgb(255, 255, 255); fill-opacity: 1;"/><defs id="defs-209bac"><g class="clips"><clipPath id="clip209bacxyplot" class="plotclip"><rect width="580" height="320"/></clipPath><clipPath class="axesclip" id="clip209bacx"><rect x="80" y="0" width="580" height="500"/></clipPath><clipPath class="axesclip" id="clip209bacy"><rect x="0" y="100" width="700" height="320"/></clipPath><clipPath class="axesclip" id="clip209bacxy"><rect x="80" y="100" width="580" height="320"/></clipPath></g><g class="gradients"/><g class="patterns"/></defs><g class="bglayer"/><g class="layer-below"><g class="imagelayer"/><g class="shapelayer"/></g><g class="cartesianlayer"><g class="subplot xy"><g class="layer-subplot"><g class="shapelayer"/><g class="imagelayer"/></g><g class="minor-gridlayer"><g class="x"/><g class="y"/></g><g class="gridlayer"><g class="x"><path class="xgrid crisp" transform="translate(118.67,0)" d="M0,100v320" style="stroke: rgb(211, 211, 211); stroke-opacity: 1; stroke-width: 1px;"/><path class="xgrid crisp" transform="translate(196,0)" d="M0,100v320" style="stroke: rgb(211, 211, 211); stroke-opacity: 1; stroke-width: 1px;"/><path class="xgrid crisp" transform="translate(350.67,0)" d="M0,100v320" style="stroke: rgb(211, 211, 211); stroke-opacity: 1; stroke-width: 1px;"/><path class="xgrid crisp" transform="translate(428,0)" d="M0,100v320" style="stroke: rgb(211, 211, 211); stroke-opacity: 1; stroke-width: 1px;"/><path class="xgrid crisp" transform="translate(505.33,0)" d="M0,100v320" style="stroke: rgb(211, 211, 211); stroke-opacity: 1; stroke-width: 1px;"/><path class="xgrid crisp" transform="translate(582.6700000000001,0)" d="M0,100v320" style="stroke: rgb(211, 211, 211); stroke-opacity: 1; stroke-width: 1px;"/></g><g class="y"><path class="ygrid crisp" transform="translate(0,411.82)" d="M80,0h580" style="stroke: rgb(211, 211, 211); stroke-opacity: 1; stroke-width: 1px;"/><path class="ygrid crisp" transform="translate(0,361.13)" d="M80,0h580" style="stroke: rgb(211, 211, 211); stroke-opacity: 1; stroke-width: 1px;"/><path class="ygrid crisp" transform="translate(0,310.44)" d="M80,0h580" style="stroke: rgb(211, 211, 211); stroke-opacity: 1; stroke-width: 1px;"/><path class="ygrid crisp" transform="translate(0,259.75)" d="M80,0h580" style="stroke: rgb(211, 211, 211); stroke-opacity: 1; stroke-width: 1px;"/><path class="ygrid crisp" transform="translate(0,209.06)" d="M80,0h580" style="stroke: rgb(211, 211, 211); stroke-opacity: 1; stroke-width: 1px;"/><path class="ygrid crisp" transform="translate(0,158.38)" d="M80,0h580" style="stroke: rgb(211, 211, 211); stroke-opacity: 1; stroke-width: 1px;"/><path class="ygrid crisp" transform="translate(0,107.69)" d="M80,0h580" style="stroke: rgb(211, 211, 211); stroke-opacity: 1; stroke-width: 1px;"/></g></g><g class="zerolinelayer"><path class="xzl zl crisp" transform="translate(273.33000000000004,0)" d="M0,100v320" style="stroke: rgb(235, 240, 248); stroke-opacity: 1; stroke-width: 2px;"/></g><g class="layer-between"><g class="shapelayer"/><g class="imagelayer"/></g><path class="xlines-below"/><path class="ylines-below"/><g class="overlines-below"/><g class="xaxislayer-below"/><g class="yaxislayer-below"/><g class="overaxes-below"/><g class="overplot"><g class="xy" transform="translate(80,100)" clip-path="url(#clip209bacxyplot)"><g class="scatterlayer mlayer"><g class="trace scatter trace18243c" style="stroke-miterlimit: 2;"><g class="fills"><g><path class="js-fill" d="M-193.33,235.21L-184.44,238.66L-184.05,239L-176.31,250.15L-175.92,250.92L-158.9,281L-158.52,281.09L-153.87,278.89L-153.49,278.45L-146.52,266.06L-146.14,265.23L-134.53,246.14L-134.14,245.84L-127.57,243.99L-127.18,244.04L-117.9,247.63L-117.51,247.85L-86.17,265.23L-85.79,265.32L-76.89,265.52L-76.5,265.43L-69.54,261.92L-69.15,261.63L-49.42,247.57L-49.03,247.43L-39.75,245.28L-39.36,245.23L-20.02,243.69L-19.63,243.62L-11.9,241.5L-11.51,241.35L-0.29,236.25L0.1,236.07L10.54,231.94L10.93,231.83L19.05,230.31L19.44,230.28L39.56,228.64L39.94,228.72L44.2,230.66L44.59,230.94L48.84,234.95L49.23,235.4L63.15,251.71L63.54,251.97L67.41,253.5L67.8,253.55L71.67,253.16L72.05,253.05L77.47,250.49L77.86,250.27L87.14,245.75L87.53,245.62L93.72,244.39L94.1,244.36L100.29,244.77L100.68,244.86L105.71,246.77L106.1,246.97L113.83,252.29L114.22,252.58L121.96,257.24L122.34,257.39L127.76,258.74L128.15,258.79L141.69,260.82L142.07,260.95L151.75,264.95L152.13,265.12L159.48,267.38L159.87,267.44L164.9,267.37L165.29,267.31L171.48,265.42L171.86,265.26L188.11,258.28L188.5,258.03L193.91,253.65L194.3,253.28L203.97,244.45L204.36,244.26L207.45,243.65L207.84,243.71L210.55,244.95L210.94,245.25L214.03,248.84L214.42,249.42L218.67,257.61L219.06,258.48L233.37,291.74L233.76,292.31L237.24,295.94L237.63,296.16L240.34,296.64L240.72,296.56L243.43,295.02L243.82,294.67L247.3,290.31L247.69,289.72L260.45,269.79L260.84,269.39L265.48,265.97L265.87,265.78L271.29,264.04L271.67,263.95L287.53,260.95L287.92,260.97L292.95,262.08L293.34,262.23L307.26,267.51L307.65,267.54L312.29,267.07L312.68,266.97L319.64,264.27L320.03,264.1L327.77,261.68L328.15,261.62L336.28,261.31L336.66,261.32L358.72,261.99L359.1,262.08L367.23,264.91L367.61,265.07L390.44,274.88L390.83,275.13L403.2,282.6L403.59,282.71L407.46,283.16L407.85,283.12L411.72,282.01L412.1,281.82L416.75,278.69L417.13,278.37L432.99,264.88L433.38,264.7L437.64,263.64L438.02,263.63L442.28,264.48L442.66,264.64L447.31,267.37L447.69,267.66L463.56,279.23L463.94,279.38L468.2,280.14L468.58,280.13L472.45,279.07L472.84,278.87L477.1,275.79L477.48,275.44L489.86,263.93L490.25,263.75L493.34,263.05L493.73,263.07L496.83,264.13L497.21,264.38L500.31,267.27L500.69,267.75L504.95,274.25L505.34,274.94L517.33,296.15L517.72,296.61L521.2,299.68L521.58,299.89L524.68,300.72L525.07,300.72L528.93,299.78L529.32,299.61L543.25,293.41L543.64,293.35L548.66,293.36L549.05,293.42L555.24,295.25L555.63,295.42L574.58,303.45L574.97,303.52L580,304L580,173.41L578.07,173.35L577.68,173.33L571.1,172.23L570.72,172.12L561.82,168.24L561.43,168.04L554.08,164.65L553.69,164.51L548.66,163.46L548.28,163.43L543.64,163.83L543.25,163.92L529.32,172.08L528.93,172.3L525.45,173.55L525.07,173.59L521.97,172.96L521.58,172.76L518.1,169.52L517.72,169.01L504.18,141.13L503.79,140.35L499.92,133.79L499.53,133.27L496.44,130.12L496.05,129.86L493.34,128.84L492.96,128.8L489.47,129.69L489.09,129.91L483.67,134.7L483.28,135.13L476.71,142.21L476.32,142.57L472.45,145.36L472.07,145.55L468.2,146.62L467.81,146.64L463.56,145.95L463.17,145.81L446.53,134.78L446.15,134.51L441.12,131.79L440.73,131.65L436.47,130.93L436.09,130.95L431.83,132.06L431.45,132.25L417.13,144.34L416.75,144.67L412.1,147.89L411.72,148.08L407.85,149.11L407.46,149.12L403.59,148.38L403.2,148.23L392.37,140.45L391.99,140.14L385.41,135.61L385.02,135.38L365.68,126.14L365.29,125.97L358.33,123.66L357.94,123.58L350.21,122.83L349.82,122.82L335.5,122.47L335.12,122.45L327.77,122.47L327.38,122.51L319.26,124.74L318.87,124.89L312.68,126.87L312.29,126.95L307.65,127.12L307.26,127.07L292.95,120.71L292.56,120.54L287.15,118.95L286.76,118.9L274.38,119.8L273.99,119.85L268.19,121.04L267.8,121.17L263.94,123.29L263.55,123.6L259.29,128.43L258.91,129.01L248.85,149.36L248.46,150.18L244.21,157.92L243.82,158.46L241.11,161.3L240.72,161.55L238.4,162.2L238.02,162.16L235.31,160.68L234.92,160.31L231.05,154.4L230.67,153.62L224.48,137.94L224.09,136.85L217.9,119.98L217.51,119.07L214.03,112.18L213.64,111.58L210.94,108.51L210.55,108.23L208.23,107.37L207.84,107.36L205.13,108.21L204.75,108.45L196.62,117.06L196.23,117.52L190.82,122.98L190.43,123.29L183.08,127.59L182.69,127.77L174.96,132.01L174.57,132.26L167.22,136.83L166.83,137.02L162.19,138.55L161.8,138.6L157.16,138.38L156.78,138.29L147.1,134.14L146.72,133.94L140.14,131.01L139.75,130.87L129.69,129.11L129.31,129.07L123.51,127.97L123.12,127.84L116.93,124.55L116.54,124.27L106.1,116.24L105.71,116L99.91,113.24L99.52,113.11L92.94,111.92L92.56,111.89L85.98,112.23L85.59,112.3L79.02,114.33L78.63,114.49L72.05,116.95L71.67,117.04L67.8,117.27L67.41,117.21L63.54,115.65L63.15,115.4L48.84,98.86L48.45,98.43L44.2,94.58L43.81,94.32L39.94,92.61L39.56,92.52L25.63,93.41L25.24,93.45L15.18,94.76L14.8,94.84L-2.61,100.75L-3,100.9L-13.44,104.44L-13.83,104.53L-32.01,105.65L-32.4,105.66L-42.46,106.83L-42.84,106.91L-51.36,110.13L-51.74,110.35L-64.12,120.49L-64.51,120.85L-72.25,126.8L-72.63,126.99L-79.21,128.51L-79.6,128.5L-89.65,125.38L-90.04,125.17L-105.9,112.75L-106.29,112.4L-119.06,102.63L-119.44,102.4L-128.34,99.05L-128.73,99.02L-134.92,101.33L-135.3,101.69L-147.68,125.92L-148.07,126.86L-154.65,139.76L-155.03,140.23L-159.68,142.4L-160.06,142.29L-175.92,114.19L-176.31,113.4L-184.44,101.26L-184.82,100.9L-193.33,97.32Z" style="fill: rgb(207, 184, 124); fill-opacity: 0.2; stroke-width: 0;"/></g></g><g class="errorbars"/><g class="lines"><path class="js-line" d="M-193.33,97.32L-184.82,100.9L-184.44,101.26L-176.31,113.4L-175.92,114.19L-160.06,142.29L-159.68,142.4L-155.03,140.23L-154.65,139.76L-148.07,126.86L-147.68,125.92L-135.3,101.69L-134.92,101.33L-128.73,99.02L-128.34,99.05L-119.44,102.4L-119.06,102.63L-106.29,112.4L-105.9,112.75L-90.04,125.17L-89.65,125.38L-79.6,128.5L-79.21,128.51L-72.63,126.99L-72.25,126.8L-64.51,120.85L-64.12,120.49L-51.74,110.35L-51.36,110.13L-42.84,106.91L-42.46,106.83L-32.4,105.66L-32.01,105.65L-13.83,104.53L-13.44,104.44L-3,100.9L-2.61,100.75L14.8,94.84L15.18,94.76L25.24,93.45L25.63,93.41L39.56,92.52L39.94,92.61L43.81,94.32L44.2,94.58L48.45,98.43L48.84,98.86L63.15,115.4L63.54,115.65L67.41,117.21L67.8,117.27L71.67,117.04L72.05,116.95L78.63,114.49L79.02,114.33L85.59,112.3L85.98,112.23L92.56,111.89L92.94,111.92L99.52,113.11L99.91,113.24L105.71,116L106.1,116.24L116.54,124.27L116.93,124.55L123.12,127.84L123.51,127.97L129.31,129.07L129.69,129.11L139.75,130.87L140.14,131.01L146.72,133.94L147.1,134.14L156.78,138.29L157.16,138.38L161.8,138.6L162.19,138.55L166.83,137.02L167.22,136.83L174.57,132.26L174.96,132.01L182.69,127.77L183.08,127.59L190.43,123.29L190.82,122.98L196.23,117.52L196.62,117.06L204.75,108.45L205.13,108.21L207.84,107.36L208.23,107.37L210.55,108.23L210.94,108.51L213.64,111.58L214.03,112.18L217.51,119.07L217.9,119.98L224.09,136.85L224.48,137.94L230.67,153.62L231.05,154.4L234.92,160.31L235.31,160.68L238.02,162.16L238.4,162.2L240.72,161.55L241.11,161.3L243.82,158.46L244.21,157.92L248.46,150.18L248.85,149.36L258.91,129.01L259.29,128.43L263.55,123.6L263.94,123.29L267.8,121.17L268.19,121.04L273.99,119.85L274.38,119.8L286.76,118.9L287.15,118.95L292.56,120.54L292.95,120.71L307.26,127.07L307.65,127.12L312.29,126.95L312.68,126.87L318.87,124.89L319.26,124.74L327.38,122.51L327.77,122.47L335.12,122.45L335.5,122.47L349.82,122.82L350.21,122.83L357.94,123.58L358.33,123.66L365.29,125.97L365.68,126.14L385.02,135.38L385.41,135.61L391.99,140.14L392.37,140.45L403.2,148.23L403.59,148.38L407.46,149.12L407.85,149.11L411.72,148.08L412.1,147.89L416.75,144.67L417.13,144.34L431.45,132.25L431.83,132.06L436.09,130.95L436.47,130.93L440.73,131.65L441.12,131.79L446.15,134.51L446.53,134.78L463.17,145.81L463.56,145.95L467.81,146.64L468.2,146.62L472.07,145.55L472.45,145.36L476.32,142.57L476.71,142.21L483.28,135.13L483.67,134.7L489.09,129.91L489.47,129.69L492.96,128.8L493.34,128.84L496.05,129.86L496.44,130.12L499.53,133.27L499.92,133.79L503.79,140.35L504.18,141.13L517.72,169.01L518.1,169.52L521.58,172.76L521.97,172.96L525.07,173.59L525.45,173.55L528.93,172.3L529.32,172.08L543.25,163.92L543.64,163.83L548.28,163.43L548.66,163.46L553.69,164.51L554.08,164.65L561.43,168.04L561.82,168.24L570.72,172.12L571.1,172.23L577.68,173.33L578.07,173.35L580,173.41" style="vector-effect: none; fill: none; stroke: rgb(99, 110, 250); stroke-opacity: 1; stroke-width: 0px; opacity: 1;"/></g><g class="points"/><g class="text"/></g><g class="trace scatter trace07d919" style="stroke-miterlimit: 2;"><g class="fills"/><g class="errorbars"/><g class="lines"><path class="js-line" d="M-193.33,235.21L-184.44,238.66L-184.05,239L-176.31,250.15L-175.92,250.92L-158.9,281L-158.52,281.09L-153.87,278.89L-153.49,278.45L-146.52,266.06L-146.14,265.23L-134.53,246.14L-134.14,245.84L-127.57,243.99L-127.18,244.04L-117.9,247.63L-117.51,247.85L-86.17,265.23L-85.79,265.32L-76.89,265.52L-76.5,265.43L-69.54,261.92L-69.15,261.63L-49.42,247.57L-49.03,247.43L-39.75,245.28L-39.36,245.23L-20.02,243.69L-19.63,243.62L-11.9,241.5L-11.51,241.35L-0.29,236.25L0.1,236.07L10.54,231.94L10.93,231.83L19.05,230.31L19.44,230.28L39.56,228.64L39.94,228.72L44.2,230.66L44.59,230.94L48.84,234.95L49.23,235.4L63.15,251.71L63.54,251.97L67.41,253.5L67.8,253.55L71.67,253.16L72.05,253.05L77.47,250.49L77.86,250.27L87.14,245.75L87.53,245.62L93.72,244.39L94.1,244.36L100.29,244.77L100.68,244.86L105.71,246.77L106.1,246.97L113.83,252.29L114.22,252.58L121.96,257.24L122.34,257.39L127.76,258.74L128.15,258.79L141.69,260.82L142.07,260.95L151.75,264.95L152.13,265.12L159.48,267.38L159.87,267.44L164.9,267.37L165.29,267.31L171.48,265.42L171.86,265.26L188.11,258.28L188.5,258.03L193.91,253.65L194.3,253.28L203.97,244.45L204.36,244.26L207.45,243.65L207.84,243.71L210.55,244.95L210.94,245.25L214.03,248.84L214.42,249.42L218.67,257.61L219.06,258.48L233.37,291.74L233.76,292.31L237.24,295.94L237.63,296.16L240.34,296.64L240.72,296.56L243.43,295.02L243.82,294.67L247.3,290.31L247.69,289.72L260.45,269.79L260.84,269.39L265.48,265.97L265.87,265.78L271.29,264.04L271.67,263.95L287.53,260.95L287.92,260.97L292.95,262.08L293.34,262.23L307.26,267.51L307.65,267.54L312.29,267.07L312.68,266.97L319.64,264.27L320.03,264.1L327.77,261.68L328.15,261.62L336.28,261.31L336.66,261.32L358.72,261.99L359.1,262.08L367.23,264.91L367.61,265.07L390.44,274.88L390.83,275.13L403.2,282.6L403.59,282.71L407.46,283.16L407.85,283.12L411.72,282.01L412.1,281.82L416.75,278.69L417.13,278.37L432.99,264.88L433.38,264.7L437.64,263.64L438.02,263.63L442.28,264.48L442.66,264.64L447.31,267.37L447.69,267.66L463.56,279.23L463.94,279.38L468.2,280.14L468.58,280.13L472.45,279.07L472.84,278.87L477.1,275.79L477.48,275.44L489.86,263.93L490.25,263.75L493.34,263.05L493.73,263.07L496.83,264.13L497.21,264.38L500.31,267.27L500.69,267.75L504.95,274.25L505.34,274.94L517.33,296.15L517.72,296.61L521.2,299.68L521.58,299.89L524.68,300.72L525.07,300.72L528.93,299.78L529.32,299.61L543.25,293.41L543.64,293.35L548.66,293.36L549.05,293.42L555.24,295.25L555.63,295.42L574.58,303.45L574.97,303.52L580,304" style="vector-effect: none; fill: none; stroke: rgb(239, 85, 59); stroke-opacity: 1; stroke-width: 0px; opacity: 1;"/></g><g class="points"/><g class="text"/></g><g class="trace scatter trace43b6c3" style="stroke-miterlimit: 2; opacity: 1;"><g class="fills"/><g class="errorbars"/><g class="lines"><path class="js-line" d="M-193.33,166.26L-184.82,169.62L-184.44,169.96L-176.7,181.02L-176.31,181.78L-159.29,211.67L-158.9,211.75L-154.26,209.27L-153.87,208.8L-146.52,194.55L-146.14,193.66L-134.92,173.9L-134.53,173.57L-127.95,171.53L-127.57,171.57L-118.28,175.25L-117.9,175.47L-102.42,186.94L-102.03,187.24L-89.27,194.97L-88.88,195.13L-78.82,197.18L-78.44,197.16L-71.47,194.79L-71.09,194.55L-62.57,187.56L-62.19,187.21L-50.58,178.87L-50.2,178.69L-40.91,175.98L-40.52,175.92L-29.69,175.03L-29.3,175.02L-15.38,173.77L-14.99,173.67L-6.48,170.69L-6.09,170.53L12.86,163.32L13.25,163.22L22.15,161.9L22.53,161.86L39.94,160.67L40.33,160.77L44.2,162.62L44.59,162.9L48.84,166.91L49.23,167.35L62.77,183.28L63.15,183.55L67.02,185.28L67.41,185.35L71.28,185.2L71.67,185.1L77.08,182.92L77.47,182.73L86.75,179L87.14,178.9L94.1,178.19L94.49,178.2L100.68,179.18L101.07,179.3L106.48,181.84L106.87,182.08L115.38,188.41L115.77,188.7L121.57,192.16L121.96,192.32L127.76,193.81L128.15,193.86L141.3,196.07L141.69,196.21L151.75,200.71L152.13,200.88L158.71,202.94L159.1,202.99L163.74,202.87L164.13,202.79L169.54,200.83L169.93,200.64L190.82,189.68L191.21,189.36L197.01,183.56L197.4,183.13L203.59,176.99L203.97,176.73L207.07,175.53L207.45,175.52L210.16,176.33L210.55,176.59L213.26,179.39L213.64,179.93L217.13,186.24L217.51,187.08L222.93,200.78L223.31,201.83L231.44,221.78L231.83,222.5L235.31,227.48L235.69,227.86L238.4,229.35L238.79,229.4L241.11,228.87L241.5,228.65L244.21,226.1L244.59,225.61L248.46,219.33L248.85,218.61L259.29,199.76L259.68,199.26L263.94,195.07L264.32,194.81L268.96,192.71L269.35,192.61L281.34,190.27L281.73,190.21L287.53,189.98L287.92,190.02L293.34,191.56L293.72,191.72L306.88,197.24L307.26,197.29L311.91,197.09L312.29,197.01L318.87,194.74L319.26,194.59L326.61,192.26L326.99,192.19L333.96,191.83L334.34,191.84L359.49,193.06L359.88,193.16L368.39,196.39L368.77,196.56L389.28,206.13L389.66,206.39L403.98,215.67L404.37,215.78L408.23,216.08L408.62,216.02L412.49,214.66L412.88,214.44L417.91,210.68L418.29,210.33L431.83,198.78L432.22,198.59L436.47,197.34L436.86,197.31L441.12,197.94L441.5,198.07L446.53,200.8L446.92,201.07L463.56,212.59L463.94,212.73L468.2,213.38L468.58,213.35L472.45,212.21L472.84,212.01L477.1,208.82L477.48,208.46L489.86,196.71L490.25,196.54L493.34,195.94L493.73,195.98L496.83,197.27L497.21,197.56L500.31,200.81L500.69,201.33L504.95,208.49L505.34,209.24L517.33,232.31L517.72,232.81L521.2,236.1L521.58,236.32L524.68,237.16L525.07,237.15L528.55,236.22L528.93,236.04L543.25,228.67L543.64,228.59L548.66,228.41L549.05,228.46L554.47,229.86L554.85,230.01L565.3,235.09L565.69,235.27L572.65,237.81L573.04,237.91L580,238.71" style="vector-effect: none; fill: none; stroke: rgb(207, 184, 124); stroke-opacity: 1; stroke-width: 3px; opacity: 1;"/></g><g class="points"/><g class="text"/></g><g class="trace scatter trace1f1467" style="stroke-miterlimit: 2;"><g class="fills"><g><path class="js-fill" d="M-193.33,209.03L-180.95,205.54L-180.57,205.43L-172.83,206.38L-172.44,206.65L-165.09,216.12L-164.71,216.79L-151.55,234.57L-151.17,234.75L-144.59,234.34L-144.2,234.14L-135.3,226.22L-134.92,225.78L-121.76,214.03L-121.38,213.97L-116.35,215.62L-115.96,215.95L-110.16,224.02L-109.77,224.73L-93.52,255.5L-93.14,255.91L-87.72,258.86L-87.33,258.88L-82.3,257.23L-81.92,256.98L-72.63,248.81L-72.25,248.45L-57.55,233.83L-57.16,233.25L-48.65,217.69L-48.26,216.97L-41.3,206.71L-40.91,206.34L-36.27,203.72L-35.88,203.63L-30.47,203.8L-30.08,203.89L-23.89,206.57L-23.5,206.82L-18.47,211.47L-18.09,211.94L-11.9,220.97L-11.51,221.59L-5.32,230.05L-4.93,230.4L-2.22,231.97L-1.84,232.04L0.48,231.66L0.87,231.45L3.19,229.31L3.58,228.81L6.67,223.45L7.06,222.63L12.09,209.85L12.48,208.78L20.6,187.96L20.99,187.17L25.24,180.14L25.63,179.65L29.88,175.6L30.27,175.33L36.46,172.03L36.85,171.85L51.94,165.04L52.32,164.99L56.58,165.3L56.97,165.4L61.61,167.72L61.99,167.99L66.25,171.99L66.64,172.44L71.67,179.81L72.05,180.48L79.79,195.89L80.18,196.66L84.82,204.4L85.21,204.88L88.3,207.38L88.69,207.52L91.01,207.49L91.4,207.34L94.1,205.23L94.49,204.78L97.97,199.54L98.36,198.86L108.03,182.5L108.42,182.09L111.51,179.86L111.9,179.72L114.61,179.6L114.99,179.7L118.48,181.62L118.86,181.93L130.86,191.76L131.24,191.92L136.66,193.27L137.05,193.35L141.3,195.01L141.69,195.26L145.17,198.77L145.56,199.31L149.42,206.07L149.81,206.87L161.03,229.55L161.42,230.04L164.51,232.67L164.9,232.85L167.99,233.25L168.38,233.18L172.25,231.67L172.64,231.47L178.44,229.22L178.83,229.19L181.92,229.61L182.31,229.76L186.18,232.14L186.56,232.44L193.91,237.52L194.3,237.64L197.4,237.62L197.78,237.5L200.88,235.65L201.26,235.32L207.45,228.93L207.84,228.54L212.1,225.38L212.48,225.21L215.96,224.59L216.35,224.62L220.61,225.79L220.99,225.96L230.28,230.53L230.67,230.75L236.47,235.11L236.86,235.49L241.88,241.77L242.27,242.34L249.62,254.8L250.01,255.5L260.45,272.63L260.84,273.15L266.64,279.58L267.03,279.9L271.29,282.48L271.67,282.63L275.54,283.16L275.93,283.13L279.8,282.06L280.18,281.88L285.21,278.76L285.6,278.46L292.18,272.48L292.56,272.06L297.98,265.01L298.37,264.41L304.94,252.58L305.33,251.82L321.96,220.57L322.35,219.84L332.02,202.82L332.41,202.36L335.5,199.9L335.89,199.78L338.21,199.96L338.6,200.16L340.92,202.29L341.31,202.8L344.79,209.19L345.18,210.07L351.75,227.71L352.14,228.8L359.88,248.15L360.26,248.96L367.61,262.18L368,262.83L376.51,278.45L376.9,279.23L385.02,293.82L385.41,294.32L388.89,297.37L389.28,297.54L391.99,297.79L392.37,297.68L395.08,296.11L395.47,295.77L399.34,291.14L399.72,290.58L407.07,278.57L407.46,277.93L415.58,265.88L415.97,265.41L421.39,260.13L421.77,259.86L426.42,257.6L426.8,257.49L432.22,256.99L432.61,257.01L439.96,258.32L440.34,258.44L445.37,260.9L445.76,261.17L449.63,264.84L450.02,265.31L454.66,272.23L455.04,272.9L464.72,288.67L465.1,289.05L467.81,290.72L468.2,290.79L470.52,290.34L470.91,290.11L473.61,287.32L474,286.76L477.48,280.19L477.87,279.32L490.25,251.5L490.64,250.94L494.12,247.33L494.5,247.09L497.6,246.17L497.99,246.18L501.08,247.05L501.47,247.25L506.11,250.66L506.5,251.01L518.88,261.51L519.26,261.75L527.39,265.72L527.77,265.89L535.9,270.2L536.28,270.44L549.05,277.9L549.44,278.02L553.31,278.42L553.69,278.37L557.18,277.05L557.56,276.79L561.04,273.51L561.43,273.04L565.69,266.52L566.07,265.84L575.74,249.59L576.13,249.18L579.23,247.19L579.61,247.11L580,247.07L580,112.63L577.29,113.94L576.91,114.31L565.3,135.22L564.91,135.9L561.04,141.56L560.66,142L557.56,144.61L557.18,144.84L554.08,145.78L553.69,145.81L550.21,145.2L549.82,145.06L535.51,134.12L535.12,133.82L523.52,127.17L523.13,126.97L517.72,123.44L517.33,123.13L508.82,114.41L508.43,113.97L503.4,108.89L503.01,108.58L499.53,106.66L499.15,106.57L496.44,106.71L496.05,106.86L492.96,109.3L492.57,109.76L488.7,116.44L488.31,117.3L481.74,135.57L481.35,136.76L475.93,152.37L475.55,153.31L472.45,159.46L472.07,160.03L469.74,162.41L469.36,162.63L467.42,162.94L467.04,162.85L464.33,160.91L463.94,160.46L457.75,149.56L457.37,148.76L451.95,138.35L451.56,137.72L447.31,132.16L446.92,131.78L442.66,128.64L442.28,128.44L435.31,125.88L434.93,125.78L429.51,124.98L429.12,124.98L424.87,125.72L424.48,125.87L420.23,128.49L419.84,128.82L414.81,134.57L414.42,135.12L404.75,151.73L404.37,152.45L398.56,162.57L398.18,163.15L394.69,167.39L394.31,167.72L391.6,169.15L391.21,169.21L388.89,168.74L388.5,168.52L385.41,165.38L385.02,164.83L376.12,146.19L375.74,145.3L368,129.31L367.61,128.59L361.04,115.65L360.65,114.79L348.27,79.58L347.88,78.43L343.63,67.33L343.24,66.51L340.15,61.47L339.76,61.05L337.44,59.52L337.05,59.43L334.73,59.88L334.34,60.1L330.86,63.67L330.48,64.21L313.45,91.58L313.07,92.26L304.94,108.97L304.56,109.86L296.43,127.96L296.04,128.74L289.47,140.39L289.08,140.98L284.05,147.58L283.67,148L279.41,151.6L279.02,151.82L275.54,152.99L275.15,153.02L271.67,152.39L271.29,152.21L267.03,149.03L266.64,148.63L261.61,141.95L261.23,141.34L253.88,127.58L253.49,126.79L244.98,109.28L244.59,108.56L239.95,101.14L239.56,100.64L235.69,96.72L235.31,96.43L230.67,94.03L230.28,93.89L219.06,89.97L218.67,89.88L215.19,89.66L214.8,89.73L211.32,91.45L210.94,91.77L204.75,99.19L204.36,99.71L200.49,104.25L200.1,104.59L197.4,106.1L197.01,106.18L194.3,105.77L193.91,105.58L185.4,96.59L185.02,96.15L181.15,92.66L180.76,92.43L177.67,91.4L177.28,91.37L171.09,92.72L170.7,92.83L167.22,93.32L166.83,93.28L163.74,91.95L163.35,91.64L160.26,87.94L159.87,87.33L155.23,77.86L154.84,76.95L148.65,62.56L148.26,61.79L144.78,56.03L144.4,55.54L141.3,52.61L140.91,52.36L135.88,50.43L135.5,50.32L130.86,48.49L130.47,48.26L125.05,43.63L124.67,43.22L118.86,37.35L118.48,37.05L115.38,35.44L114.99,35.36L112.29,35.69L111.9,35.88L108.8,38.56L108.42,39.04L103.78,46.93L103.39,47.71L97.2,60.32L96.81,61L93.72,65.35L93.33,65.73L91.01,67.16L90.62,67.24L88.3,66.8L87.91,66.57L84.82,63.21L84.43,62.62L75.53,43.32L75.15,42.42L69.73,31.03L69.34,30.33L64.7,23.32L64.32,22.85L60.06,18.7L59.67,18.42L55.42,16.32L55.03,16.23L51.16,16.17L50.78,16.25L44.97,18.87L44.59,19.12L31.82,27.71L31.43,28L26.79,32.47L26.4,32.95L22.15,39.72L21.76,40.48L15.18,56.83L14.8,57.94L8.22,76.56L7.83,77.54L3.97,85.58L3.58,86.18L0.87,89.23L0.48,89.49L-1.84,90.13L-2.22,90.09L-4.93,88.69L-5.32,88.36L-11.12,80.62L-11.51,80L-17.7,70.91L-18.09,70.44L-23.11,65.71L-23.5,65.44L-29.3,62.85L-29.69,62.75L-34.72,62.48L-35.11,62.55L-39.75,64.95L-40.14,65.29L-46.33,74.04L-46.71,74.76L-56,92.79L-56.38,93.42L-73.79,110.08L-74.18,110.44L-83.08,118.64L-83.47,118.89L-88.11,120.17L-88.49,120.1L-93.91,115.95L-94.3,115.42L-111.71,75.94L-112.09,75.16L-117.51,67.05L-117.9,66.7L-122.54,65.2L-122.92,65.29L-136.85,81.04L-137.24,81.58L-145.75,90.96L-146.14,91.22L-151.94,92.35L-152.33,92.22L-164.71,75.47L-165.09,74.79L-172.83,64.44L-173.22,64.14L-193.33,61.45Z" style="fill: rgb(148, 0, 211); fill-opacity: 0.2; stroke-width: 0;"/></g></g><g class="errorbars"/><g class="lines"><path class="js-line" d="M-193.33,61.45L-173.22,64.14L-172.83,64.44L-165.09,74.79L-164.71,75.47L-152.33,92.22L-151.94,92.35L-146.14,91.22L-145.75,90.96L-137.24,81.58L-136.85,81.04L-122.92,65.29L-122.54,65.2L-117.9,66.7L-117.51,67.05L-112.09,75.16L-111.71,75.94L-94.3,115.42L-93.91,115.95L-88.49,120.1L-88.11,120.17L-83.47,118.89L-83.08,118.64L-74.18,110.44L-73.79,110.08L-56.38,93.42L-56,92.79L-46.71,74.76L-46.33,74.04L-40.14,65.29L-39.75,64.95L-35.11,62.55L-34.72,62.48L-29.69,62.75L-29.3,62.85L-23.5,65.44L-23.11,65.71L-18.09,70.44L-17.7,70.91L-11.51,80L-11.12,80.62L-5.32,88.36L-4.93,88.69L-2.22,90.09L-1.84,90.13L0.48,89.49L0.87,89.23L3.58,86.18L3.97,85.58L7.83,77.54L8.22,76.56L14.8,57.94L15.18,56.83L21.76,40.48L22.15,39.72L26.4,32.95L26.79,32.47L31.43,28L31.82,27.71L44.59,19.12L44.97,18.87L50.78,16.25L51.16,16.17L55.03,16.23L55.42,16.32L59.67,18.42L60.06,18.7L64.32,22.85L64.7,23.32L69.34,30.33L69.73,31.03L75.15,42.42L75.53,43.32L84.43,62.62L84.82,63.21L87.91,66.57L88.3,66.8L90.62,67.24L91.01,67.16L93.33,65.73L93.72,65.35L96.81,61L97.2,60.32L103.39,47.71L103.78,46.93L108.42,39.04L108.8,38.56L111.9,35.88L112.29,35.69L114.99,35.36L115.38,35.44L118.48,37.05L118.86,37.35L124.67,43.22L125.05,43.63L130.47,48.26L130.86,48.49L135.5,50.32L135.88,50.43L140.91,52.36L141.3,52.61L144.4,55.54L144.78,56.03L148.26,61.79L148.65,62.56L154.84,76.95L155.23,77.86L159.87,87.33L160.26,87.94L163.35,91.64L163.74,91.95L166.83,93.28L167.22,93.32L170.7,92.83L171.09,92.72L177.28,91.37L177.67,91.4L180.76,92.43L181.15,92.66L185.02,96.15L185.4,96.59L193.91,105.58L194.3,105.77L197.01,106.18L197.4,106.1L200.1,104.59L200.49,104.25L204.36,99.71L204.75,99.19L210.94,91.77L211.32,91.45L214.8,89.73L215.19,89.66L218.67,89.88L219.06,89.97L230.28,93.89L230.67,94.03L235.31,96.43L235.69,96.72L239.56,100.64L239.95,101.14L244.59,108.56L244.98,109.28L253.49,126.79L253.88,127.58L261.23,141.34L261.61,141.95L266.64,148.63L267.03,149.03L271.29,152.21L271.67,152.39L275.15,153.02L275.54,152.99L279.02,151.82L279.41,151.6L283.67,148L284.05,147.58L289.08,140.98L289.47,140.39L296.04,128.74L296.43,127.96L304.56,109.86L304.94,108.97L313.07,92.26L313.45,91.58L330.48,64.21L330.86,63.67L334.34,60.1L334.73,59.88L337.05,59.43L337.44,59.52L339.76,61.05L340.15,61.47L343.24,66.51L343.63,67.33L347.88,78.43L348.27,79.58L360.65,114.79L361.04,115.65L367.61,128.59L368,129.31L375.74,145.3L376.12,146.19L385.02,164.83L385.41,165.38L388.5,168.52L388.89,168.74L391.21,169.21L391.6,169.15L394.31,167.72L394.69,167.39L398.18,163.15L398.56,162.57L404.37,152.45L404.75,151.73L414.42,135.12L414.81,134.57L419.84,128.82L420.23,128.49L424.48,125.87L424.87,125.72L429.12,124.98L429.51,124.98L434.93,125.78L435.31,125.88L442.28,128.44L442.66,128.64L446.92,131.78L447.31,132.16L451.56,137.72L451.95,138.35L457.37,148.76L457.75,149.56L463.94,160.46L464.33,160.91L467.04,162.85L467.42,162.94L469.36,162.63L469.74,162.41L472.07,160.03L472.45,159.46L475.55,153.31L475.93,152.37L481.35,136.76L481.74,135.57L488.31,117.3L488.7,116.44L492.57,109.76L492.96,109.3L496.05,106.86L496.44,106.71L499.15,106.57L499.53,106.66L503.01,108.58L503.4,108.89L508.43,113.97L508.82,114.41L517.33,123.13L517.72,123.44L523.13,126.97L523.52,127.17L535.12,133.82L535.51,134.12L549.82,145.06L550.21,145.2L553.69,145.81L554.08,145.78L557.18,144.84L557.56,144.61L560.66,142L561.04,141.56L564.91,135.9L565.3,135.22L576.91,114.31L577.29,113.94L580,112.63" style="vector-effect: none; fill: none; stroke: rgb(171, 99, 250); stroke-opacity: 1; stroke-width: 0px; opacity: 1;"/></g><g class="points"/><g class="text"/></g><g class="trace scatter trace3e4846" style="stroke-miterlimit: 2;"><g class="fills"/><g class="errorbars"/><g class="lines"><path class="js-line" d="M-193.33,209.03L-180.95,205.54L-180.57,205.43L-172.83,206.38L-172.44,206.65L-165.09,216.12L-164.71,216.79L-151.55,234.57L-151.17,234.75L-144.59,234.34L-144.2,234.14L-135.3,226.22L-134.92,225.78L-121.76,214.03L-121.38,213.97L-116.35,215.62L-115.96,215.95L-110.16,224.02L-109.77,224.73L-93.52,255.5L-93.14,255.91L-87.72,258.86L-87.33,258.88L-82.3,257.23L-81.92,256.98L-72.63,248.81L-72.25,248.45L-57.55,233.83L-57.16,233.25L-48.65,217.69L-48.26,216.97L-41.3,206.71L-40.91,206.34L-36.27,203.72L-35.88,203.63L-30.47,203.8L-30.08,203.89L-23.89,206.57L-23.5,206.82L-18.47,211.47L-18.09,211.94L-11.9,220.97L-11.51,221.59L-5.32,230.05L-4.93,230.4L-2.22,231.97L-1.84,232.04L0.48,231.66L0.87,231.45L3.19,229.31L3.58,228.81L6.67,223.45L7.06,222.63L12.09,209.85L12.48,208.78L20.6,187.96L20.99,187.17L25.24,180.14L25.63,179.65L29.88,175.6L30.27,175.33L36.46,172.03L36.85,171.85L51.94,165.04L52.32,164.99L56.58,165.3L56.97,165.4L61.61,167.72L61.99,167.99L66.25,171.99L66.64,172.44L71.67,179.81L72.05,180.48L79.79,195.89L80.18,196.66L84.82,204.4L85.21,204.88L88.3,207.38L88.69,207.52L91.01,207.49L91.4,207.34L94.1,205.23L94.49,204.78L97.97,199.54L98.36,198.86L108.03,182.5L108.42,182.09L111.51,179.86L111.9,179.72L114.61,179.6L114.99,179.7L118.48,181.62L118.86,181.93L130.86,191.76L131.24,191.92L136.66,193.27L137.05,193.35L141.3,195.01L141.69,195.26L145.17,198.77L145.56,199.31L149.42,206.07L149.81,206.87L161.03,229.55L161.42,230.04L164.51,232.67L164.9,232.85L167.99,233.25L168.38,233.18L172.25,231.67L172.64,231.47L178.44,229.22L178.83,229.19L181.92,229.61L182.31,229.76L186.18,232.14L186.56,232.44L193.91,237.52L194.3,237.64L197.4,237.62L197.78,237.5L200.88,235.65L201.26,235.32L207.45,228.93L207.84,228.54L212.1,225.38L212.48,225.21L215.96,224.59L216.35,224.62L220.61,225.79L220.99,225.96L230.28,230.53L230.67,230.75L236.47,235.11L236.86,235.49L241.88,241.77L242.27,242.34L249.62,254.8L250.01,255.5L260.45,272.63L260.84,273.15L266.64,279.58L267.03,279.9L271.29,282.48L271.67,282.63L275.54,283.16L275.93,283.13L279.8,282.06L280.18,281.88L285.21,278.76L285.6,278.46L292.18,272.48L292.56,272.06L297.98,265.01L298.37,264.41L304.94,252.58L305.33,251.82L321.96,220.57L322.35,219.84L332.02,202.82L332.41,202.36L335.5,199.9L335.89,199.78L338.21,199.96L338.6,200.16L340.92,202.29L341.31,202.8L344.79,209.19L345.18,210.07L351.75,227.71L352.14,228.8L359.88,248.15L360.26,248.96L367.61,262.18L368,262.83L376.51,278.45L376.9,279.23L385.02,293.82L385.41,294.32L388.89,297.37L389.28,297.54L391.99,297.79L392.37,297.68L395.08,296.11L395.47,295.77L399.34,291.14L399.72,290.58L407.07,278.57L407.46,277.93L415.58,265.88L415.97,265.41L421.39,260.13L421.77,259.86L426.42,257.6L426.8,257.49L432.22,256.99L432.61,257.01L439.96,258.32L440.34,258.44L445.37,260.9L445.76,261.17L449.63,264.84L450.02,265.31L454.66,272.23L455.04,272.9L464.72,288.67L465.1,289.05L467.81,290.72L468.2,290.79L470.52,290.34L470.91,290.11L473.61,287.32L474,286.76L477.48,280.19L477.87,279.32L490.25,251.5L490.64,250.94L494.12,247.33L494.5,247.09L497.6,246.17L497.99,246.18L501.08,247.05L501.47,247.25L506.11,250.66L506.5,251.01L518.88,261.51L519.26,261.75L527.39,265.72L527.77,265.89L535.9,270.2L536.28,270.44L549.05,277.9L549.44,278.02L553.31,278.42L553.69,278.37L557.18,277.05L557.56,276.79L561.04,273.51L561.43,273.04L565.69,266.52L566.07,265.84L575.74,249.59L576.13,249.18L579.23,247.19L579.61,247.11L580,247.07" style="vector-effect: none; fill: none; stroke: rgb(255, 161, 90); stroke-opacity: 1; stroke-width: 0px; opacity: 1;"/></g><g class="points"/><g class="text"/></g><g class="trace scatter trace5564b6" style="stroke-miterlimit: 2; opacity: 1;"><g class="fills"/><g class="errorbars"/><g class="lines"><path class="js-line" d="M-193.33,135.24L-172.06,136.02L-171.67,136.37L-163.55,148.19L-163.16,148.89L-151.94,163.36L-151.55,163.52L-145.36,162.68L-144.98,162.45L-136.46,154.01L-136.08,153.52L-122.54,139.72L-122.15,139.63L-117.12,141.24L-116.74,141.58L-111.32,149.36L-110.93,150.11L-91.59,187.88L-91.2,188.17L-86.56,189.5L-86.17,189.44L-80.76,186.49L-80.37,186.17L-57.55,164.52L-57.16,163.94L-49.42,149.64L-49.03,148.87L-41.68,137.01L-41.3,136.59L-36.65,133.42L-36.27,133.3L-31.24,133.05L-30.85,133.12L-25.05,135.19L-24.66,135.41L-19.63,139.44L-19.25,139.86L-14.22,146.54L-13.83,147.13L-5.32,159.2L-4.93,159.55L-1.84,161.09L-1.45,161.11L0.87,160.34L1.26,160.06L3.97,156.93L4.35,156.31L7.83,149.21L8.22,148.27L14.8,130.13L15.18,129.04L21.76,113.07L22.15,112.33L26.4,105.84L26.79,105.39L31.43,101.3L31.82,101.03L46.91,92.2L47.29,92.01L52.32,90.51L52.71,90.48L56.58,91L56.97,91.13L61.22,93.55L61.61,93.86L65.86,98.2L66.25,98.69L70.51,105.17L70.89,105.86L76.7,117.8L77.08,118.67L84.43,133.26L84.82,133.81L87.91,136.88L88.3,137.09L90.62,137.42L91.01,137.32L93.33,135.87L93.72,135.49L96.81,131.25L97.2,130.59L103.78,117.85L104.16,117.12L108.8,110.13L109.19,109.72L112.29,107.65L112.67,107.54L115.38,107.63L115.77,107.76L119.25,109.97L119.64,110.3L130.86,120.13L131.24,120.31L136.27,121.86L136.66,121.96L140.91,123.56L141.3,123.81L144.4,126.67L144.78,127.15L148.26,132.79L148.65,133.54L155.61,149.32L156,150.18L161.03,159.31L161.42,159.81L164.51,162.57L164.9,162.77L167.99,163.29L168.38,163.25L173.02,161.68L173.41,161.52L178.44,160.37L178.83,160.4L181.92,161.4L182.31,161.63L186.18,164.82L186.56,165.21L193.53,171.37L193.91,171.55L196.62,172.01L197.01,171.95L199.72,170.71L200.1,170.42L204.36,165.97L204.75,165.5L210.55,159.19L210.94,158.89L214.42,157.25L214.8,157.17L218.29,157.39L218.67,157.48L225.25,160.08L225.64,160.24L234.92,164.93L235.31,165.23L239.95,170.11L240.34,170.63L245.75,179.36L246.14,180.07L262.39,209.14L262.77,209.66L267.8,215.14L268.19,215.46L272.45,217.77L272.83,217.87L276.7,217.9L277.09,217.81L280.96,216.01L281.34,215.75L286.37,211.32L286.76,210.91L292.56,203.68L292.95,203.12L298.75,193.43L299.14,192.7L308.04,174.25L308.42,173.45L316.94,157.84L317.32,157.19L333.18,131.26L333.57,130.91L336.28,129.55L336.66,129.53L338.99,130.37L339.37,130.68L341.69,133.5L342.08,134.12L345.56,141.47L345.95,142.44L353.3,163.55L353.69,164.67L360.26,181.43L360.65,182.27L368,196.07L368.39,196.76L377.29,214.45L377.67,215.28L384.64,228.77L385.02,229.33L388.5,232.84L388.89,233.06L391.6,233.5L391.99,233.42L394.69,231.9L395.08,231.56L398.56,227.4L398.95,226.83L405.53,215.73L405.91,215.04L415.2,200.2L415.58,199.7L421,194.15L421.39,193.86L425.64,191.66L426.03,191.55L430.67,191L431.06,191.02L437.25,192.03L437.64,192.13L443.83,194.63L444.21,194.87L448.47,198.49L448.85,198.93L453.11,205.01L453.5,205.67L464.72,224.99L465.1,225.37L467.81,226.85L468.2,226.88L470.52,226.08L470.91,225.78L473.61,222.4L474,221.74L477.87,213.26L478.26,212.27L489.47,183.77L489.86,183.08L493.34,178.39L493.73,178.04L496.83,176.41L497.21,176.35L500.31,176.82L500.69,176.99L504.18,179.3L504.56,179.63L512.3,187.36L512.69,187.74L518.88,192.92L519.26,193.18L526.61,197.04L527,197.22L535.12,201.77L535.51,202.04L549.82,211.59L550.21,211.71L554.08,212.04L554.47,211.98L557.95,210.45L558.34,210.16L561.82,206.57L562.2,206.06L566.46,199.1L566.85,198.37L575.74,182.61L576.13,182.17L579.23,179.98L579.61,179.9L580,179.85" style="vector-effect: none; fill: none; stroke: rgb(148, 0, 211); stroke-opacity: 1; stroke-width: 3px; opacity: 1;"/></g><g class="points"/><g class="text"/></g></g></g></g><g class="zerolinelayer-above"/><path class="xlines-above crisp" d="M79,420.5H661M79,99.5H661" style="fill: none; stroke-width: 1px; stroke: rgb(0, 0, 0); stroke-opacity: 1;"/><path class="ylines-above crisp" d="M79.5,100V420M660.5,100V420" style="fill: none; stroke-width: 1px; stroke: rgb(0, 0, 0); stroke-opacity: 1;"/><g class="overlines-above"/><g class="xaxislayer-above"><path class="xtick ticks crisp" d="M0,421v5" transform="translate(118.67,0)" style="stroke: rgb(68, 68, 68); stroke-opacity: 1; stroke-width: 1px;"/><path class="xtick ticks crisp" d="M0,421v5" transform="translate(196,0)" style="stroke: rgb(68, 68, 68); stroke-opacity: 1; stroke-width: 1px;"/><path class="xtick ticks crisp" d="M0,421v5" transform="translate(273.33000000000004,0)" style="stroke: rgb(68, 68, 68); stroke-opacity: 1; stroke-width: 1px;"/><path class="xtick ticks crisp" d="M0,421v5" transform="translate(350.67,0)" style="stroke: rgb(68, 68, 68); stroke-opacity: 1; stroke-width: 1px;"/><path class="xtick ticks crisp" d="M0,421v5" transform="translate(428,0)" style="stroke: rgb(68, 68, 68); stroke-opacity: 1; stroke-width: 1px;"/><path class="xtick ticks crisp" d="M0,421v5" transform="translate(505.33,0)" style="stroke: rgb(68, 68, 68); stroke-opacity: 1; stroke-width: 1px;"/><path class="xtick ticks crisp" d="M0,421v5" transform="translate(582.6700000000001,0)" style="stroke: rgb(68, 68, 68); stroke-opacity: 1; stroke-width: 1px;"/><path class="xtick ticks crisp" d="M0,421v5" transform="translate(660,0)" style="stroke: rgb(68, 68, 68); stroke-opacity: 1; stroke-width: 1px;"/><g class="xtick"><text text-anchor="middle" x="0" y="440.4" transform="translate(118.67,0)" style="font-family: 'Open Sans', verdana, arial, sans-serif; font-size: 12px; fill: rgb(42, 63, 95); fill-opacity: 1; white-space: pre;">−400</text></g><g class="xtick"><text text-anchor="middle" x="0" y="440.4" style="font-family: 'Open Sans', verdana, arial, sans-serif; font-size: 12px; fill: rgb(42, 63, 95); fill-opacity: 1; white-space: pre;" transform="translate(196,0)">−200</text></g><g class="xtick"><text text-anchor="middle" x="0" y="440.4" style="font-family: 'Open Sans', verdana, arial, sans-serif; font-size: 12px; fill: rgb(42, 63, 95); fill-opacity: 1; white-space: pre;" transform="translate(273.33000000000004,0)">0</text></g><g class="xtick"><text text-anchor="middle" x="0" y="440.4" style="font-family: 'Open Sans', verdana, arial, sans-serif; font-size: 12px; fill: rgb(42, 63, 95); fill-opacity: 1; white-space: pre;" transform="translate(350.67,0)">200</text></g><g class="xtick"><text text-anchor="middle" x="0" y="440.4" style="font-family: 'Open Sans', verdana, arial, sans-serif; font-size: 12px; fill: rgb(42, 63, 95); fill-opacity: 1; white-space: pre;" transform="translate(428,0)">400</text></g><g class="xtick"><text text-anchor="middle" x="0" y="440.4" style="font-family: 'Open Sans', verdana, arial, sans-serif; font-size: 12px; fill: rgb(42, 63, 95); fill-opacity: 1; white-space: pre;" transform="translate(505.33,0)">600</text></g><g class="xtick"><text text-anchor="middle" x="0" y="440.4" style="font-family: 'Open Sans', verdana, arial, sans-serif; font-size: 12px; fill: rgb(42, 63, 95); fill-opacity: 1; white-space: pre;" transform="translate(582.6700000000001,0)">800</text></g><g class="xtick"><text text-anchor="middle" x="0" y="440.4" style="font-family: 'Open Sans', verdana, arial, sans-serif; font-size: 12px; fill: rgb(42, 63, 95); fill-opacity: 1; white-space: pre;" transform="translate(660,0)">1000</text></g></g><g class="yaxislayer-above"><path class="ytick ticks crisp" d="M79,0h-5" transform="translate(0,411.82)" style="stroke: rgb(68, 68, 68); stroke-opacity: 1; stroke-width: 1px;"/><path class="ytick ticks crisp" d="M79,0h-5" transform="translate(0,361.13)" style="stroke: rgb(68, 68, 68); stroke-opacity: 1; stroke-width: 1px;"/><path class="ytick ticks crisp" d="M79,0h-5" transform="translate(0,310.44)" style="stroke: rgb(68, 68, 68); stroke-opacity: 1; stroke-width: 1px;"/><path class="ytick ticks crisp" d="M79,0h-5" transform="translate(0,259.75)" style="stroke: rgb(68, 68, 68); stroke-opacity: 1; stroke-width: 1px;"/><path class="ytick ticks crisp" d="M79,0h-5" transform="translate(0,209.06)" style="stroke: rgb(68, 68, 68); stroke-opacity: 1; stroke-width: 1px;"/><path class="ytick ticks crisp" d="M79,0h-5" transform="translate(0,158.38)" style="stroke: rgb(68, 68, 68); stroke-opacity: 1; stroke-width: 1px;"/><path class="ytick ticks crisp" d="M79,0h-5" transform="translate(0,107.69)" style="stroke: rgb(68, 68, 68); stroke-opacity: 1; stroke-width: 1px;"/><g class="ytick"><text text-anchor="end" x="71.6" y="4.199999999999999" transform="translate(0,411.82)" style="font-family: 'Open Sans', verdana, arial, sans-serif; font-size: 12px; fill: rgb(42, 63, 95); fill-opacity: 1; white-space: pre;">3.2</text></g><g class="ytick"><text text-anchor="end" x="71.6" y="4.199999999999999" style="font-family: 'Open Sans', verdana, arial, sans-serif; font-size: 12px; fill: rgb(42, 63, 95); fill-opacity: 1; white-space: pre;" transform="translate(0,361.13)">3.4</text></g><g class="ytick"><text text-anchor="end" x="71.6" y="4.199999999999999" style="font-family: 'Open Sans', verdana, arial, sans-serif; font-size: 12px; fill: rgb(42, 63, 95); fill-opacity: 1; white-space: pre;" transform="translate(0,310.44)">3.6</text></g><g class="ytick"><text text-anchor="end" x="71.6" y="4.199999999999999" style="font-family: 'Open Sans', verdana, arial, sans-serif; font-size: 12px; fill: rgb(42, 63, 95); fill-opacity: 1; white-space: pre;" transform="translate(0,259.75)">3.8</text></g><g class="ytick"><text text-anchor="end" x="71.6" y="4.199999999999999" style="font-family: 'Open Sans', verdana, arial, sans-serif; font-size: 12px; fill: rgb(42, 63, 95); fill-opacity: 1; white-space: pre;" transform="translate(0,209.06)">4</text></g><g class="ytick"><text text-anchor="end" x="71.6" y="4.199999999999999" style="font-family: 'Open Sans', verdana, arial, sans-serif; font-size: 12px; fill: rgb(42, 63, 95); fill-opacity: 1; white-space: pre;" transform="translate(0,158.38)">4.2</text></g><g class="ytick"><text text-anchor="end" x="71.6" y="4.199999999999999" style="font-family: 'Open Sans', verdana, arial, sans-serif; font-size: 12px; fill: rgb(42, 63, 95); fill-opacity: 1; white-space: pre;" transform="translate(0,107.69)">4.4</text></g></g><g class="overaxes-above"/></g></g><g class="polarlayer"/><g class="smithlayer"/><g class="ternarylayer"/><g class="geolayer"/><g class="funnelarealayer"/><g class="pielayer"/><g class="iciclelayer"/><g class="treemaplayer"/><g class="sunburstlayer"/><g class="glimages"/><defs id="topdefs-209bac"><g class="clips"/><clipPath id="legend209bac"><rect width="296" height="29" x="1" y="1"/></clipPath></defs><g class="layer-above"><g class="imagelayer"/><g class="shapelayer"><g class="shape-group" data-index="0" clip-path="url(#clip209bacx)"><path data-index="0" fill-rule="evenodd" d="M273.33000000000004,420L273.33000000000004,100" style="opacity: 1; stroke: rgb(255, 0, 0); stroke-opacity: 1; fill: rgb(0, 0, 0); fill-opacity: 0; stroke-dasharray: 9px, 9px; stroke-width: 2px;"/></g></g></g><g class="infolayer"><g class="legend" pointer-events="all" transform="translate(362,62.599999999999994)"><rect class="bg" shape-rendering="crispEdges" style="stroke: rgb(0, 0, 0); stroke-opacity: 1; fill: rgb(255, 255, 255); fill-opacity: 0.8; stroke-width: 1px;" width="297" height="30" x="0.5" y="0.5"/><g class="scrollbox" transform="" clip-path="url(#legend209bac)"><g class="groups" transform=""><g class="traces" transform="translate(0,15.5)" style="opacity: 1;"><text class="legendtext" text-anchor="start" x="40" y="4.680000000000001" style="font-family: 'Open Sans', verdana, arial, sans-serif; font-size: 12px; fill: rgb(42, 63, 95); fill-opacity: 1; white-space: pre;">Standard (AAAB)</text><g class="layers" style="opacity: 1;"><g class="legendfill"/><g class="legendlines"><path class="js-line" d="M5,0h30" style="fill: none; stroke: rgb(207, 184, 124); stroke-opacity: 1; stroke-width: 3px;"/></g><g class="legendsymbols"><g class="legendpoints"/></g></g><rect class="legendtoggle" x="0" y="-9.5" width="145.46875" height="19" style="fill: rgb(0, 0, 0); fill-opacity: 0;"/></g></g><g class="groups" transform="translate(147.96875,0)"><g class="traces" transform="translate(0,15.5)" style="opacity: 1;"><text class="legendtext" text-anchor="start" x="40" y="4.680000000000001" style="font-family: 'Open Sans', verdana, arial, sans-serif; font-size: 12px; fill: rgb(42, 63, 95); fill-opacity: 1; white-space: pre;">Omission (AXAB)</text><g class="layers" style="opacity: 1;"><g class="legendfill"/><g class="legendlines"><path class="js-line" d="M5,0h30" style="fill: none; stroke: rgb(148, 0, 211); stroke-opacity: 1; stroke-width: 3px;"/></g><g class="legendsymbols"><g class="legendpoints"/></g></g><rect class="legendtoggle" x="0" y="-9.5" width="145.5546875" height="19" style="fill: rgb(0, 0, 0); fill-opacity: 0;"/></g></g></g><rect class="scrollbar" rx="20" ry="3" width="0" height="0" style="fill: rgb(128, 139, 164); fill-opacity: 1;" x="0" y="0"/></g><g class="g-gtitle"><text class="gtitle" x="350" y="50" text-anchor="middle" dy="0em" style="opacity: 1; font-family: Arial; font-size: 18px; fill: rgb(0, 0, 0); fill-opacity: 1; white-space: pre;"><tspan class="line" dy="0em" x="350" y="50"><tspan style="font-weight:bold">Figure f002: V3a Omission-Local PSTH</tspan></tspan><tspan class="line" dy="1.3em" x="350" y="50">​<tspan style="font-size:70%" dy="-0.6em">n=380 units | Mean ± SEM | 0ms = Omission Onset</tspan><tspan dy="0.42em">​</tspan></tspan></text></g><g class="g-xtitle"><text class="xtitle" x="370" y="467.200390625" text-anchor="middle" style="opacity: 1; font-family: 'Open Sans', verdana, arial, sans-serif; font-size: 14px; fill: rgb(42, 63, 95); fill-opacity: 1; white-space: pre;">Time from Omission (ms)</text></g><g class="g-ytitle"><text class="ytitle" transform="rotate(-90,32.574609375,260)" x="32.574609375" y="260" text-anchor="middle" style="opacity: 1; font-family: 'Open Sans', verdana, arial, sans-serif; font-size: 14px; fill: rgb(42, 63, 95); fill-opacity: 1; white-space: pre;">Firing Rate (Hz)</text></g><g class="annotation" data-index="0" style="opacity: 1;"><g class="annotation-text-g" transform="rotate(0,322.83000000000004,109.5)"><g class="cursor-pointer" transform="translate(273,100)"><rect class="bg" x="0.5" y="0.5" width="98" height="18" style="stroke-width: 1px; stroke: rgb(0, 0, 0); stroke-opacity: 0; fill: rgb(0, 0, 0); fill-opacity: 0;"/><text class="annotation-text" text-anchor="middle" x="49.23828125" y="14" style="font-family: 'Open Sans', verdana, arial, sans-serif; font-size: 12px; fill: rgb(42, 63, 95); fill-opacity: 1; white-space: pre;">Omission Onset</text></g></g></g></g></svg>