<svg class="main-svg" xmlns="http://www.w3.org/2000/svg" xmlns:xlink="http://www.w3.org/1999/xlink" width="700" height="500" style="" viewBox="0 0 700 500"><rect x="0" y="0" width="700" height="500" style="fill: rgb(255, 255, 255); fill-opacity: 1;"/><defs id="defs-2b2d11"><g class="clips"><clipPath id="clip2b2d11xyplot" class="plotclip"><rect width="580" height="320"/></clipPath><clipPath class="axesclip" id="clip2b2d11x"><rect x="80" y="0" width="580" height="500"/></clipPath><clipPath class="axesclip" id="clip2b2d11y"><rect x="0" y="100" width="700" height="320"/></clipPath><clipPath class="axesclip" id="clip2b2d11xy"><rect x="80" y="100" width="580" height="320"/></clipPath></g><g class="gradients"/><g class="patterns"/></defs><g class="bglayer"/><g class="layer-below"><g class="imagelayer"/><g class="shapelayer"/></g><g class="cartesianlayer"><g class="subplot xy"><g class="layer-subplot"><g class="shapelayer"/><g class="imagelayer"/></g><g class="minor-gridlayer"><g class="x"/><g class="y"/></g><g class="gridlayer"><g class="x"><path class="xgrid crisp" transform="translate(118.67,0)" d="M0,100v320" style="stroke: rgb(211, 211, 211); stroke-opacity: 1; stroke-width: 1px;"/><path class="xgrid crisp" transform="translate(196,0)" d="M0,100v320" style="stroke: rgb(211, 211, 211); stroke-opacity: 1; stroke-width: 1px;"/><path class="xgrid crisp" transform="translate(350.67,0)" d="M0,100v320" style="stroke: rgb(211, 211, 211); stroke-opacity: 1; stroke-width: 1px;"/><path class="xgrid crisp" transform="translate(428,0)" d="M0,100v320" style="stroke: rgb(211, 211, 211); stroke-opacity: 1; stroke-width: 1px;"/><path class="xgrid crisp" transform="translate(505.33,0)" d="M0,100v320" style="stroke: rgb(211, 211, 211); stroke-opacity: 1; stroke-width: 1px;"/><path class="xgrid crisp" transform="translate(582.6700000000001,0)" d="M0,100v320" style="stroke: rgb(211, 211, 211); stroke-opacity: 1; stroke-width: 1px;"/></g><g class="y"><path class="ygrid crisp" transform="translate(0,383.37)" d="M80,0h580" style="stroke: rgb(211, 211, 211); stroke-opacity: 1; stroke-width: 1px;"/><path class="ygrid crisp" transform="translate(0,331.44)" d="M80,0h580" style="stroke: rgb(211, 211, 211); stroke-opacity: 1; stroke-width: 1px;"/><path class="ygrid crisp" transform="translate(0,279.51)" d="M80,0h580" style="stroke: rgb(211, 211, 211); stroke-opacity: 1; stroke-width: 1px;"/><path class="ygrid crisp" transform="translate(0,227.57999999999998)" d="M80,0h580" style="stroke: rgb(211, 211, 211); stroke-opacity: 1; stroke-width: 1px;"/><path class="ygrid crisp" transform="translate(0,175.65)" d="M80,0h580" style="stroke: rgb(211, 211, 211); stroke-opacity: 1; stroke-width: 1px;"/><path class="ygrid crisp" transform="translate(0,123.72)" d="M80,0h580" style="stroke: rgb(211, 211, 211); stroke-opacity: 1; stroke-width: 1px;"/></g></g><g class="zerolinelayer"><path class="xzl zl crisp" transform="translate(273.33000000000004,0)" d="M0,100v320" style="stroke: rgb(235, 240, 248); stroke-opacity: 1; stroke-width: 2px;"/></g><g class="layer-between"><g class="shapelayer"/><g class="imagelayer"/></g><path class="xlines-below"/><path class="ylines-below"/><g class="overlines-below"/><g class="xaxislayer-below"/><g class="yaxislayer-below"/><g class="overaxes-below"/><g class="overplot"><g class="xy" transform="translate(80,100)" clip-path="url(#clip2b2d11xyplot)"><g class="scatterlayer mlayer"><g class="trace scatter trace7daea4" style="stroke-miterlimit: 2;"><g class="fills"><g><path class="js-fill" d="M-193.33,232.1L-188.69,236.13L-188.3,236.78L-180.57,256.98L-180.18,258.2L-167.03,289.89L-166.64,290.31L-159.68,293.37L-159.29,293.36L-148.46,289.87L-148.07,289.65L-138.4,280.93L-138.01,280.42L-129.5,264.45L-129.11,263.47L-119.83,232.48L-119.44,230.93L-104.36,177.54L-103.97,176.75L-98.17,169.81L-97.78,169.66L-93.14,170.37L-92.75,170.62L-86.95,176.68L-86.56,177.21L-65.67,207.94L-65.28,208.34L-56.77,214.78L-56.38,214.99L-43.23,220.81L-42.84,220.98L-29.3,228.22L-28.92,228.48L-19.25,235.78L-18.86,236.11L-9.19,245.43L-8.8,245.85L2.03,258.58L2.42,259.05L10.16,267.62L10.54,267.96L14.8,270.52L15.18,270.63L17.89,270.56L18.28,270.42L20.99,268.45L21.37,268.01L24.08,263.72L24.47,262.92L27.56,254.86L27.95,253.64L31.82,238.89L32.21,237.17L38.4,205.23L38.78,203.04L50.78,138.83L51.16,137.23L55.42,122.87L55.8,121.88L58.9,116.08L59.29,115.61L61.61,114L61.99,113.92L63.93,114.33L64.32,114.57L66.64,116.96L67.02,117.51L70.51,124.13L70.89,125.02L76.31,139.62L76.7,140.75L87.53,170.94L87.91,171.87L94.88,186.49L95.26,187.2L103.39,200.21L103.78,200.75L111.13,210.1L111.51,210.54L118.48,217.19L118.86,217.48L124.28,220.66L124.67,220.81L128.92,221.7L129.31,221.7L133.56,220.96L133.95,220.81L138.59,218.27L138.98,218L154.84,206.55L155.23,206.4L159.87,205.46L160.26,205.45L165.67,206.2L166.06,206.31L173.02,209.16L173.41,209.36L183.47,215.33L183.86,215.59L194.69,224.16L195.07,224.52L201.26,231.58L201.65,232.12L206.68,240.46L207.07,241.22L212.87,254.68L213.26,255.7L226.41,289.87L226.8,290.61L230.67,296.5L231.05,296.93L234.53,299.68L234.92,299.87L238.4,300.59L238.79,300.58L242.66,299.66L243.04,299.5L247.69,296.74L248.07,296.45L254.26,290.83L254.65,290.44L266.26,277.54L266.64,277.04L271.67,269.23L272.06,268.49L276.31,258.62L276.7,257.55L281.34,242.65L281.73,241.26L296.43,188.65L296.82,187.66L301.07,179.25L301.46,178.71L304.56,175.76L304.94,175.55L307.65,175.14L308.04,175.22L310.75,176.65L311.13,176.98L314.61,181.1L315,181.67L320.03,190.69L320.42,191.46L331.64,213.19L332.02,213.79L337.44,220.51L337.83,220.88L342.85,224.37L343.24,224.56L350.21,226.85L350.59,226.95L361.42,230.19L361.81,230.35L370.71,234.55L371.1,234.76L382.31,241.77L382.7,242.06L397.02,253.25L397.4,253.54L407.07,259.62L407.46,259.82L412.88,261.7L413.26,261.74L416.75,261.31L417.13,261.15L419.84,259.18L420.23,258.77L423.32,254.07L423.71,253.29L427.19,244.29L427.58,243.06L431.83,226.62L432.22,224.88L438.02,195.14L438.41,193L449.63,134.25L450.02,132.63L454.27,117.91L454.66,116.88L457.75,110.56L458.14,110.02L460.85,107.74L461.23,107.62L463.56,107.98L463.94,108.21L466.65,110.98L467.04,111.54L470.91,118.76L471.29,119.63L477.48,135.31L477.87,136.35L489.86,166.3L490.25,167.13L497.6,181.04L497.99,181.67L504.18,190.37L504.56,190.84L511.53,197.76L511.91,198.07L518.88,202.73L519.26,202.94L526.23,205.59L526.61,205.67L532.42,206.11L532.8,206.09L539.77,204.63L540.15,204.51L577.29,193.23L577.68,193.19L580,193.07L580,114.35L579.61,114.35L572.65,115.44L572.26,115.54L555.63,120.89L555.24,121.04L543.64,126.35L543.25,126.54L535.9,129.62L535.51,129.73L530.48,130.51L530.1,130.51L524.68,129.73L524.29,129.62L518.1,126.9L517.72,126.68L511.53,122.24L511.14,121.91L504.56,114.94L504.18,114.45L497.6,104.42L497.21,103.73L490.64,90.24L490.25,89.34L475.16,47.66L474.77,46.54L469.74,33.49L469.36,32.65L466.26,27.13L465.88,26.62L463.56,24.53L463.17,24.35L461.23,24.31L460.85,24.48L458.53,26.72L458.14,27.31L454.66,35.39L454.27,36.6L450.02,53.58L449.63,55.44L442.28,97.24L441.89,99.64L434.54,143.72L434.15,145.82L429.51,167.81L429.12,169.35L425.26,182.05L424.87,183.05L421.77,189.38L421.39,189.98L418.68,193.04L418.29,193.33L415.2,194.65L414.81,194.7L410.94,194.21L410.56,194.08L403.98,190.66L403.59,190.41L386.96,176.84L386.57,176.51L378.06,170L377.67,169.74L364.13,162.32L363.75,162.14L349.04,156.48L348.66,156.34L342.85,153.62L342.47,153.38L337.83,149.45L337.44,149.03L332.8,142.63L332.41,141.98L324.67,125.97L324.29,125.07L316.94,108.55L316.55,107.79L312.68,101.43L312.29,100.94L309.58,98.36L309.2,98.13L306.88,97.48L306.49,97.5L303.78,98.81L303.4,99.16L299.91,104.24L299.53,105.02L295.27,116.27L294.88,117.52L284.83,157.77L284.44,159.39L278.64,181.41L278.25,182.67L273.99,194.36L273.61,195.23L269.74,202.44L269.35,203.03L256.2,217.77L255.81,218.16L248.07,225.47L247.69,225.79L241.88,229.7L241.5,229.89L237.63,231.12L237.24,231.16L233.76,230.6L233.37,230.42L229.89,227.51L229.5,227.04L225.64,220.49L225.25,219.65L214.03,187.2L213.64,186L207.84,169.82L207.45,168.88L202.42,158.43L202.04,157.76L196.62,149.77L196.23,149.29L189.27,141.92L188.88,141.57L179.99,134.62L179.6,134.36L171.86,130L171.48,129.82L165.29,127.63L164.9,127.54L159.87,127.18L159.48,127.21L154.84,128.53L154.45,128.71L148.65,132.69L148.26,133.02L138.59,141.92L138.21,142.22L133.56,145.11L133.18,145.27L129.31,146.14L128.92,146.15L124.67,145.37L124.28,145.22L118.86,141.91L118.48,141.59L111.9,134.9L111.51,134.44L103.39,123.24L103,122.64L96.04,110.59L95.65,109.84L88.3,93.35L87.91,92.34L80.18,69.52L79.79,68.28L72.44,45.22L72.05,44.14L68.18,34.96L67.8,34.24L65.09,30.5L64.7,30.17L62.77,29.34L62.38,29.35L60.06,30.71L59.67,31.16L56.97,36.14L56.58,37.11L52.32,51.94L51.94,53.65L38.01,135.83L37.62,138.17L32.21,167.48L31.82,169.28L27.95,184.55L27.56,185.8L24.47,194.05L24.08,194.86L21.37,199.26L20.99,199.71L18.28,201.79L17.89,201.94L15.18,202.11L14.8,202.02L10.93,199.91L10.54,199.6L-8.41,176.9L-8.8,176.43L-18.09,166.19L-18.47,165.8L-28.92,156.82L-29.3,156.54L-43.23,148.54L-43.62,148.35L-56.38,141.79L-56.77,141.55L-65.28,134.32L-65.67,133.88L-83.85,103.34L-84.24,102.64L-90.82,92.68L-91.2,92.25L-95.84,89.27L-96.23,89.23L-100.87,91.86L-101.26,92.36L-107.45,106.66L-107.84,107.93L-114.41,134.23L-114.8,135.96L-125.63,180.34L-126.02,181.59L-133.37,199.96L-133.76,200.68L-142.27,211.96L-142.65,212.32L-158.52,222.59L-158.9,222.76L-165.09,223.22L-165.48,223.03L-173.22,211.13L-173.6,210.11L-180.95,185.9L-181.34,184.53L-188.69,163.17L-189.08,162.46L-193.33,158.42Z" style="fill: rgb(207, 184, 124); fill-opacity: 0.2; stroke-width: 0;"/></g></g><g class="errorbars"/><g class="lines"><path class="js-line" d="M-193.33,158.42L-189.08,162.46L-188.69,163.17L-181.34,184.53L-180.95,185.9L-173.6,210.11L-173.22,211.13L-165.48,223.03L-165.09,223.22L-158.9,222.76L-158.52,222.59L-142.65,212.32L-142.27,211.96L-133.76,200.68L-133.37,199.96L-126.02,181.59L-125.63,180.34L-114.8,135.96L-114.41,134.23L-107.84,107.93L-107.45,106.66L-101.26,92.36L-100.87,91.86L-96.23,89.23L-95.84,89.27L-91.2,92.25L-90.82,92.68L-84.24,102.64L-83.85,103.34L-65.67,133.88L-65.28,134.32L-56.77,141.55L-56.38,141.79L-43.62,148.35L-43.23,148.54L-29.3,156.54L-28.92,156.82L-18.47,165.8L-18.09,166.19L-8.8,176.43L-8.41,176.9L10.54,199.6L10.93,199.91L14.8,202.02L15.18,202.11L17.89,201.94L18.28,201.79L20.99,199.71L21.37,199.26L24.08,194.86L24.47,194.05L27.56,185.8L27.95,184.55L31.82,169.28L32.21,167.48L37.62,138.17L38.01,135.83L51.94,53.65L52.32,51.94L56.58,37.11L56.97,36.14L59.67,31.16L60.06,30.71L62.38,29.35L62.77,29.34L64.7,30.17L65.09,30.5L67.8,34.24L68.18,34.96L72.05,44.14L72.44,45.22L79.79,68.28L80.18,69.52L87.91,92.34L88.3,93.35L95.65,109.84L96.04,110.59L103,122.64L103.39,123.24L111.51,134.44L111.9,134.9L118.48,141.59L118.86,141.91L124.28,145.22L124.67,145.37L128.92,146.15L129.31,146.14L133.18,145.27L133.56,145.11L138.21,142.22L138.59,141.92L148.26,133.02L148.65,132.69L154.45,128.71L154.84,128.53L159.48,127.21L159.87,127.18L164.9,127.54L165.29,127.63L171.48,129.82L171.86,130L179.6,134.36L179.99,134.62L188.88,141.57L189.27,141.92L196.23,149.29L196.62,149.77L202.04,157.76L202.42,158.43L207.45,168.88L207.84,169.82L213.64,186L214.03,187.2L225.25,219.65L225.64,220.49L229.5,227.04L229.89,227.51L233.37,230.42L233.76,230.6L237.24,231.16L237.63,231.12L241.5,229.89L241.88,229.7L247.69,225.79L248.07,225.47L255.81,218.16L256.2,217.77L269.35,203.03L269.74,202.44L273.61,195.23L273.99,194.36L278.25,182.67L278.64,181.41L284.44,159.39L284.83,157.77L294.88,117.52L295.27,116.27L299.53,105.02L299.91,104.24L303.4,99.16L303.78,98.81L306.49,97.5L306.88,97.48L309.2,98.13L309.58,98.36L312.29,100.94L312.68,101.43L316.55,107.79L316.94,108.55L324.29,125.07L324.67,125.97L332.41,141.98L332.8,142.63L337.44,149.03L337.83,149.45L342.47,153.38L342.85,153.62L348.66,156.34L349.04,156.48L363.75,162.14L364.13,162.32L377.67,169.74L378.06,170L386.57,176.51L386.96,176.84L403.59,190.41L403.98,190.66L410.56,194.08L410.94,194.21L414.81,194.7L415.2,194.65L418.29,193.33L418.68,193.04L421.39,189.98L421.77,189.38L424.87,183.05L425.26,182.05L429.12,169.35L429.51,167.81L434.15,145.82L434.54,143.72L441.89,99.64L442.28,97.24L449.63,55.44L450.02,53.58L454.27,36.6L454.66,35.39L458.14,27.31L458.53,26.72L460.85,24.48L461.23,24.31L463.17,24.35L463.56,24.53L465.88,26.62L466.26,27.13L469.36,32.65L469.74,33.49L474.77,46.54L475.16,47.66L490.25,89.34L490.64,90.24L497.21,103.73L497.6,104.42L504.18,114.45L504.56,114.94L511.14,121.91L511.53,122.24L517.72,126.68L518.1,126.9L524.29,129.62L524.68,129.73L530.1,130.51L530.48,130.51L535.51,129.73L535.9,129.62L543.25,126.54L543.64,126.35L555.24,121.04L555.63,120.89L572.26,115.54L572.65,115.44L579.61,114.35L580,114.35" style="vector-effect: none; fill: none; stroke: rgb(99, 110, 250); stroke-opacity: 1; stroke-width: 0px; opacity: 1;"/></g><g class="points"/><g class="text"/></g><g class="trace scatter trace9495c1" style="stroke-miterlimit: 2;"><g class="fills"/><g class="errorbars"/><g class="lines"><path class="js-line" d="M-193.33,232.1L-188.69,236.13L-188.3,236.78L-180.57,256.98L-180.18,258.2L-167.03,289.89L-166.64,290.31L-159.68,293.37L-159.29,293.36L-148.46,289.87L-148.07,289.65L-138.4,280.93L-138.01,280.42L-129.5,264.45L-129.11,263.47L-119.83,232.48L-119.44,230.93L-104.36,177.54L-103.97,176.75L-98.17,169.81L-97.78,169.66L-93.14,170.37L-92.75,170.62L-86.95,176.68L-86.56,177.21L-65.67,207.94L-65.28,208.34L-56.77,214.78L-56.38,214.99L-43.23,220.81L-42.84,220.98L-29.3,228.22L-28.92,228.48L-19.25,235.78L-18.86,236.11L-9.19,245.43L-8.8,245.85L2.03,258.58L2.42,259.05L10.16,267.62L10.54,267.96L14.8,270.52L15.18,270.63L17.89,270.56L18.28,270.42L20.99,268.45L21.37,268.01L24.08,263.72L24.47,262.92L27.56,254.86L27.95,253.64L31.82,238.89L32.21,237.17L38.4,205.23L38.78,203.04L50.78,138.83L51.16,137.23L55.42,122.87L55.8,121.88L58.9,116.08L59.29,115.61L61.61,114L61.99,113.92L63.93,114.33L64.32,114.57L66.64,116.96L67.02,117.51L70.51,124.13L70.89,125.02L76.31,139.62L76.7,140.75L87.53,170.94L87.91,171.87L94.88,186.49L95.26,187.2L103.39,200.21L103.78,200.75L111.13,210.1L111.51,210.54L118.48,217.19L118.86,217.48L124.28,220.66L124.67,220.81L128.92,221.7L129.31,221.7L133.56,220.96L133.95,220.81L138.59,218.27L138.98,218L154.84,206.55L155.23,206.4L159.87,205.46L160.26,205.45L165.67,206.2L166.06,206.31L173.02,209.16L173.41,209.36L183.47,215.33L183.86,215.59L194.69,224.16L195.07,224.52L201.26,231.58L201.65,232.12L206.68,240.46L207.07,241.22L212.87,254.68L213.26,255.7L226.41,289.87L226.8,290.61L230.67,296.5L231.05,296.93L234.53,299.68L234.92,299.87L238.4,300.59L238.79,300.58L242.66,299.66L243.04,299.5L247.69,296.74L248.07,296.45L254.26,290.83L254.65,290.44L266.26,277.54L266.64,277.04L271.67,269.23L272.06,268.49L276.31,258.62L276.7,257.55L281.34,242.65L281.73,241.26L296.43,188.65L296.82,187.66L301.07,179.25L301.46,178.71L304.56,175.76L304.94,175.55L307.65,175.14L308.04,175.22L310.75,176.65L311.13,176.98L314.61,181.1L315,181.67L320.03,190.69L320.42,191.46L331.64,213.19L332.02,213.79L337.44,220.51L337.83,220.88L342.85,224.37L343.24,224.56L350.21,226.85L350.59,226.95L361.42,230.19L361.81,230.35L370.71,234.55L371.1,234.76L382.31,241.77L382.7,242.06L397.02,253.25L397.4,253.54L407.07,259.62L407.46,259.82L412.88,261.7L413.26,261.74L416.75,261.31L417.13,261.15L419.84,259.18L420.23,258.77L423.32,254.07L423.71,253.29L427.19,244.29L427.58,243.06L431.83,226.62L432.22,224.88L438.02,195.14L438.41,193L449.63,134.25L450.02,132.63L454.27,117.91L454.66,116.88L457.75,110.56L458.14,110.02L460.85,107.74L461.23,107.62L463.56,107.98L463.94,108.21L466.65,110.98L467.04,111.54L470.91,118.76L471.29,119.63L477.48,135.31L477.87,136.35L489.86,166.3L490.25,167.13L497.6,181.04L497.99,181.67L504.18,190.37L504.56,190.84L511.53,197.76L511.91,198.07L518.88,202.73L519.26,202.94L526.23,205.59L526.61,205.67L532.42,206.11L532.8,206.09L539.77,204.63L540.15,204.51L577.29,193.23L577.68,193.19L580,193.07" style="vector-effect: none; fill: none; stroke: rgb(239, 85, 59); stroke-opacity: 1; stroke-width: 0px; opacity: 1;"/></g><g class="points"/><g class="text"/></g><g class="trace scatter tracef1f916" style="stroke-miterlimit: 2; opacity: 1;"><g class="fills"/><g class="errorbars"/><g class="lines"><path class="js-line" d="M-193.33,195.26L-189.08,198.99L-188.69,199.65L-185.21,207.63L-184.82,208.71L-170.9,250.16L-170.51,250.91L-163.55,258.12L-163.16,258.22L-155.42,256.83L-155.03,256.66L-141.49,247.87L-141.11,247.47L-132.98,235.7L-132.6,234.94L-124.86,214.36L-124.47,213.05L-102.03,133.46L-101.65,132.9L-96.62,129.32L-96.23,129.31L-91.59,131.67L-91.2,132.04L-84.24,141.62L-83.85,142.27L-65.28,171.33L-64.9,171.73L-56.38,178.39L-56,178.61L-39.75,186.33L-39.36,186.52L-27.76,193.47L-27.37,193.75L-17.7,201.85L-17.31,202.21L-6.48,213.84L-6.09,214.3L10.54,233.78L10.93,234.09L14.8,236.27L15.18,236.37L17.89,236.25L18.28,236.11L20.99,234.08L21.37,233.64L24.08,229.29L24.47,228.49L27.56,220.33L27.95,219.09L31.82,204.08L32.21,202.33L38.01,171.62L38.4,169.35L50.78,98.95L51.16,97.22L55.42,81.64L55.8,80.57L58.9,74.17L59.29,73.65L61.61,71.78L61.99,71.67L63.93,72L64.32,72.23L66.64,74.65L67.02,75.22L70.12,81.2L70.51,82.1L76.31,98.31L76.7,99.5L87.14,130.14L87.53,131.13L93.72,145.12L94.1,145.89L101.84,159.38L102.23,159.97L109.96,170.64L110.35,171.11L117.32,178.42L117.7,178.75L123.51,182.61L123.89,182.78L128.53,183.91L128.92,183.93L133.18,183.18L133.56,183.03L138.21,180.38L138.59,180.1L154.84,167.54L155.23,167.38L159.87,166.32L160.26,166.3L165.29,166.87L165.67,166.96L172.64,169.67L173.02,169.86L182.69,175.66L183.08,175.93L192.37,183.5L192.75,183.87L198.94,190.76L199.33,191.27L204.75,199.89L205.13,200.63L210.16,211.89L210.55,212.88L217.9,233.96L218.29,235.11L224.86,252.73L225.25,253.58L229.5,261.03L229.89,261.53L233.37,264.7L233.76,264.92L237.24,265.84L237.63,265.84L241.5,264.98L241.88,264.82L246.91,261.85L247.3,261.56L254.26,255.28L254.65,254.88L266.64,241.87L267.03,241.37L271.29,234.91L271.67,234.2L275.93,224.59L276.31,223.54L280.96,208.64L281.34,207.22L289.85,173.2L290.24,171.68L296.43,150.69L296.82,149.65L301.07,140.7L301.46,140.13L304.56,136.99L304.94,136.78L307.65,136.34L308.04,136.43L310.75,137.96L311.13,138.31L314.61,142.7L315,143.32L319.64,152.1L320.03,152.92L332.8,178.78L333.18,179.37L338.21,185.54L338.6,185.9L343.63,189.41L344.02,189.6L350.21,191.87L350.59,191.98L362.58,196.13L362.97,196.3L373.8,201.82L374.19,202.04L383.86,208.59L384.25,208.89L405.14,224.99L405.53,225.21L411.72,227.95L412.1,228.04L415.58,228.11L415.97,228.02L419.07,226.31L419.45,225.95L422.16,222.44L422.55,221.78L426.03,213.8L426.42,212.69L430.67,197.26L431.06,195.58L436.09,170.34L436.47,168.19L451.18,88.17L451.56,86.63L455.82,73.12L456.2,72.23L459.3,67.22L459.69,66.86L462.01,65.86L462.39,65.88L464.33,66.75L464.72,67.08L467.42,70.52L467.81,71.17L471.68,79.31L472.07,80.26L482.51,108.94L482.9,109.99L490.64,129.1L491.02,129.95L498.37,144.03L498.76,144.66L505.34,153.82L505.72,154.27L512.3,160.64L512.69,160.95L519.26,165.23L519.65,165.43L525.45,167.66L525.84,167.76L531.26,168.31L531.64,168.3L537.83,167.08L538.22,166.96L571.49,155.07L571.88,154.96L579.23,153.72L579.61,153.71L580,153.71" style="vector-effect: none; fill: none; stroke: rgb(207, 184, 124); stroke-opacity: 1; stroke-width: 3px; opacity: 1;"/></g><g class="points"/><g class="text"/></g><g class="trace scatter trace7cc192" style="stroke-miterlimit: 2;"><g class="fills"><g><path class="js-fill" d="M-193.33,229.42L-188.3,233.41L-187.92,234.01L-180.57,251.8L-180.18,252.99L-162.38,299.27L-162,299.76L-155.03,304L-154.65,304L-148.46,300.66L-148.07,300.26L-139.56,287.1L-139.17,286.36L-124.09,251.6L-123.7,250.5L-107.06,196.73L-106.68,195.6L-97.78,175.91L-97.39,175.38L-91.98,170.97L-91.59,170.88L-86.95,171.81L-86.56,172.05L-80.37,178.13L-79.98,178.6L-67.99,191.13L-67.6,191.36L-59.48,194.6L-59.09,194.73L-51.36,198.74L-50.97,199.03L-32.4,212.76L-32.01,212.88L-25.44,213.54L-25.05,213.52L-12.28,213.12L-11.9,213.23L-7.64,215.52L-7.25,215.83L-3.39,220.04L-3,220.57L1.64,228.47L2.03,229.25L8.22,243.17L8.61,244.09L15.18,258.27L15.57,258.93L19.05,263.29L19.44,263.57L21.76,264.17L22.15,264.08L24.08,262.72L24.47,262.26L26.79,258.08L27.18,257.14L30.27,247.16L30.66,245.61L34.53,226.64L34.91,224.44L41.1,184.28L41.49,181.61L50,128.22L50.39,126.3L54.26,110.92L54.64,109.79L57.35,104.18L57.74,103.7L59.67,102.53L60.06,102.54L61.99,103.69L62.38,104.14L64.7,108.21L65.09,109.1L68.57,119.27L68.96,120.6L84.05,173.93L84.43,174.92L89.07,184.61L89.46,185.24L93.72,190.71L94.1,191.09L98.75,194.43L99.13,194.63L106.87,197.59L107.26,197.73L114.22,201.03L114.61,201.26L130.08,210.87L130.47,210.97L134.34,211.29L134.72,211.24L138.59,209.97L138.98,209.77L143.62,206.29L144.01,205.92L151.75,197.58L152.13,197.15L158.71,191.04L159.1,190.77L163.74,188.31L164.13,188.17L169.54,187.21L169.93,187.21L175.34,187.9L175.73,188L181.53,190.56L181.92,190.79L188.11,195.46L188.5,195.8L204.36,209.18L204.75,209.4L209.39,211.19L209.77,211.27L214.42,211.26L214.8,211.19L220.22,209.32L220.61,209.14L239.56,199.38L239.95,199.12L246.91,193.42L247.3,193.05L267.42,173.96L267.8,173.75L271.67,172.51L272.06,172.49L275.54,173.15L275.93,173.32L279.8,175.99L280.18,176.35L286.37,183.03L286.76,183.46L293.34,189.62L293.72,189.87L297.98,191.65L298.37,191.72L302.23,191.57L302.62,191.48L307.26,189.42L307.65,189.18L313.07,184.85L313.45,184.48L322.35,174.81L322.74,174.38L329.31,168.03L329.7,167.74L334.34,165.36L334.73,165.25L338.99,165.03L339.37,165.09L343.63,166.52L344.02,166.71L349.82,170.52L350.21,170.83L367.23,184.2L367.61,184.37L371.87,185.26L372.26,185.25L376.12,184.24L376.51,184.05L380.38,181.26L380.77,180.9L387.34,173.28L387.73,172.78L395.47,164.23L395.85,163.94L399.72,162.12L400.11,162.05L403.59,162.33L403.98,162.46L408.23,164.77L408.62,165.05L422.55,174.54L422.93,174.7L429.9,176.79L430.29,176.86L436.86,177.37L437.25,177.35L442.28,176.43L442.66,176.3L448.08,173.76L448.47,173.53L460.46,166.82L460.85,166.72L464.72,166.53L465.1,166.61L468.58,168.05L468.97,168.3L472.84,171.68L473.23,172.1L486.38,186.82L486.77,187.04L489.86,187.97L490.25,187.98L493.34,187.23L493.73,187.04L497.6,184.32L497.99,183.98L506.5,177.22L506.88,177.03L510.75,176.13L511.14,176.14L514.62,177.06L515.01,177.25L519.65,180.46L520.04,180.78L529.32,187.96L529.71,188.15L533.96,189.21L534.35,189.22L538.61,188.5L538.99,188.37L557.56,182.33L557.95,182.25L566.46,179.58L566.85,179.42L577.29,175.75L577.68,175.68L580,175.5L580,96.56L578.84,96.63L578.45,96.68L566.07,102.19L565.69,102.39L540.15,111.01L539.77,111.14L535.51,111.88L535.12,111.87L530.87,110.9L530.48,110.73L523.13,105.46L522.74,105.13L517.33,101.09L516.94,100.88L513.46,99.63L513.07,99.58L509.2,100.08L508.82,100.24L497.21,110.06L496.83,110.39L493.34,112.7L492.96,112.86L489.86,113.27L489.47,113.21L486.38,111.75L485.99,111.46L480.96,105.77L480.58,105.23L472.84,94.09L472.45,93.62L468.2,89.44L467.81,89.17L464.33,87.65L463.94,87.58L460.07,87.83L459.69,87.95L448.47,94.45L448.08,94.68L442.28,97.55L441.89,97.69L436.09,98.83L435.7,98.85L428.74,98.45L428.35,98.39L421.77,96.45L421.39,96.27L407.85,86.34L407.46,86.06L403.59,83.99L403.2,83.87L400.11,83.68L399.72,83.75L396.24,85.42L395.85,85.71L383.86,100.54L383.48,101.03L378.83,106.07L378.45,106.4L374.96,108.53L374.58,108.68L370.71,109.12L370.32,109.06L366.07,107.41L365.68,107.18L358.72,101.52L358.33,101.16L347.5,91.37L347.11,91.07L341.69,87.52L341.31,87.33L337.44,86.08L337.05,86.02L333.57,86.27L333.18,86.37L328.93,88.65L328.54,88.95L320.03,98.14L319.64,98.62L312.29,107.03L311.91,107.41L306.88,111.45L306.49,111.69L302.23,113.44L301.85,113.52L297.98,113.48L297.59,113.38L293.34,111.35L292.95,111.08L284.05,101.95L283.67,101.5L278.64,96.4L278.25,96.09L274.38,93.92L273.99,93.81L270.51,93.7L270.13,93.78L265.87,95.86L265.48,96.13L257.36,104.05L256.97,104.49L247.3,115.2L246.91,115.59L240.34,121.33L239.95,121.61L222.15,131.1L221.77,131.28L216.35,133.24L215.96,133.31L211.71,133.33L211.32,133.25L206.68,131.3L206.29,131.06L197.01,123L196.62,122.61L187.34,113.6L186.95,113.27L181.15,109.25L180.76,109.04L175.34,107.07L174.96,106.99L169.15,106.58L168.77,106.61L164.13,107.59L163.74,107.73L158.71,110.6L158.32,110.91L147.49,122.77L147.1,123.23L141.69,128.85L141.3,129.17L137.43,131.58L137.05,131.74L133.18,132.42L132.79,132.4L128.53,131.21L128.15,131.03L120.8,125.89L120.41,125.58L114.22,121.13L113.83,120.91L101.45,117.02L101.07,116.91L96.42,114.66L96.04,114.38L91.78,109.98L91.4,109.44L87.53,102.6L87.14,101.76L82.5,89.24L82.11,87.99L71.67,46.23L71.28,44.6L66.64,27.18L66.25,25.99L63.54,19.32L63.15,18.64L61.22,16.37L60.83,16.16L58.9,16.41L58.51,16.73L56.19,20.56L55.8,21.53L52.32,34.16L51.94,35.99L37.62,134.25L37.24,136.94L32.59,165.25L32.21,167.22L28.72,181.78L28.34,183.03L25.63,189.71L25.24,190.37L23.31,192.64L22.92,192.89L20.99,193.23L20.6,193.13L17.89,190.96L17.51,190.47L3.58,160.29L3.19,159.46L-1.45,150.75L-1.84,150.14L-6.09,144.82L-6.48,144.45L-10.74,141.57L-11.12,141.4L-26.6,140.24L-26.98,140.21L-33.56,138.62L-33.95,138.44L-50.58,124.07L-50.97,123.72L-58.71,118.62L-59.09,118.44L-67.6,114.16L-67.99,113.88L-80.37,98.8L-80.76,98.25L-86.95,91.1L-87.33,90.81L-91.59,89.49L-91.98,89.55L-97.78,94.41L-98.17,95L-102.42,103.6L-102.81,104.56L-109.77,125.85L-110.16,127.2L-121.38,166.48L-121.76,167.7L-135.69,203.44L-136.08,204.28L-146.14,223.09L-146.52,223.63L-153.1,229.63L-153.49,229.78L-160.06,228.72L-160.45,228.43L-168.96,215.02L-169.35,214.07L-180.57,177.87L-180.95,176.56L-188.3,156.76L-188.69,156.1L-193.33,152.04Z" style="fill: rgb(148, 0, 211); fill-opacity: 0.2; stroke-width: 0;"/></g></g><g class="errorbars"/><g class="lines"><path class="js-line" d="M-193.33,152.04L-188.69,156.1L-188.3,156.76L-180.95,176.56L-180.57,177.87L-169.35,214.07L-168.96,215.02L-160.45,228.43L-160.06,228.72L-153.49,229.78L-153.1,229.63L-146.52,223.63L-146.14,223.09L-136.08,204.28L-135.69,203.44L-121.76,167.7L-121.38,166.48L-110.16,127.2L-109.77,125.85L-102.81,104.56L-102.42,103.6L-98.17,95L-97.78,94.41L-91.98,89.55L-91.59,89.49L-87.33,90.81L-86.95,91.1L-80.76,98.25L-80.37,98.8L-67.99,113.88L-67.6,114.16L-59.09,118.44L-58.71,118.62L-50.97,123.72L-50.58,124.07L-33.95,138.44L-33.56,138.62L-26.98,140.21L-26.6,140.24L-11.12,141.4L-10.74,141.57L-6.48,144.45L-6.09,144.82L-1.84,150.14L-1.45,150.75L3.19,159.46L3.58,160.29L17.51,190.47L17.89,190.96L20.6,193.13L20.99,193.23L22.92,192.89L23.31,192.64L25.24,190.37L25.63,189.71L28.34,183.03L28.72,181.78L32.21,167.22L32.59,165.25L37.24,136.94L37.62,134.25L51.94,35.99L52.32,34.16L55.8,21.53L56.19,20.56L58.51,16.73L58.9,16.41L60.83,16.16L61.22,16.37L63.15,18.64L63.54,19.32L66.25,25.99L66.64,27.18L71.28,44.6L71.67,46.23L82.11,87.99L82.5,89.24L87.14,101.76L87.53,102.6L91.4,109.44L91.78,109.98L96.04,114.38L96.42,114.66L101.07,116.91L101.45,117.02L113.83,120.91L114.22,121.13L120.41,125.58L120.8,125.89L128.15,131.03L128.53,131.21L132.79,132.4L133.18,132.42L137.05,131.74L137.43,131.58L141.3,129.17L141.69,128.85L147.1,123.23L147.49,122.77L158.32,110.91L158.71,110.6L163.74,107.73L164.13,107.59L168.77,106.61L169.15,106.58L174.96,106.99L175.34,107.07L180.76,109.04L181.15,109.25L186.95,113.27L187.34,113.6L196.62,122.61L197.01,123L206.29,131.06L206.68,131.3L211.32,133.25L211.71,133.33L215.96,133.31L216.35,133.24L221.77,131.28L222.15,131.1L239.95,121.61L240.34,121.33L246.91,115.59L247.3,115.2L256.97,104.49L257.36,104.05L265.48,96.13L265.87,95.86L270.13,93.78L270.51,93.7L273.99,93.81L274.38,93.92L278.25,96.09L278.64,96.4L283.67,101.5L284.05,101.95L292.95,111.08L293.34,111.35L297.59,113.38L297.98,113.48L301.85,113.52L302.23,113.44L306.49,111.69L306.88,111.45L311.91,107.41L312.29,107.03L319.64,98.62L320.03,98.14L328.54,88.95L328.93,88.65L333.18,86.37L333.57,86.27L337.05,86.02L337.44,86.08L341.31,87.33L341.69,87.52L347.11,91.07L347.5,91.37L358.33,101.16L358.72,101.52L365.68,107.18L366.07,107.41L370.32,109.06L370.71,109.12L374.58,108.68L374.96,108.53L378.45,106.4L378.83,106.07L383.48,101.03L383.86,100.54L395.85,85.71L396.24,85.42L399.72,83.75L400.11,83.68L403.2,83.87L403.59,83.99L407.46,86.06L407.85,86.34L421.39,96.27L421.77,96.45L428.35,98.39L428.74,98.45L435.7,98.85L436.09,98.83L441.89,97.69L442.28,97.55L448.08,94.68L448.47,94.45L459.69,87.95L460.07,87.83L463.94,87.58L464.33,87.65L467.81,89.17L468.2,89.44L472.45,93.62L472.84,94.09L480.58,105.23L480.96,105.77L485.99,111.46L486.38,111.75L489.47,113.21L489.86,113.27L492.96,112.86L493.34,112.7L496.83,110.39L497.21,110.06L508.82,100.24L509.2,100.08L513.07,99.58L513.46,99.63L516.94,100.88L517.33,101.09L522.74,105.13L523.13,105.46L530.48,110.73L530.87,110.9L535.12,111.87L535.51,111.88L539.77,111.14L540.15,111.01L565.69,102.39L566.07,102.19L578.45,96.68L578.84,96.63L580,96.56" style="vector-effect: none; fill: none; stroke: rgb(171, 99, 250); stroke-opacity: 1; stroke-width: 0px; opacity: 1;"/></g><g class="points"/><g class="text"/></g><g class="trace scatter trace04ed0a" style="stroke-miterlimit: 2;"><g class="fills"/><g class="errorbars"/><g class="lines"><path class="js-line" d="M-193.33,229.42L-188.3,233.41L-187.92,234.01L-180.57,251.8L-180.18,252.99L-162.38,299.27L-162,299.76L-155.03,304L-154.65,304L-148.46,300.66L-148.07,300.26L-139.56,287.1L-139.17,286.36L-124.09,251.6L-123.7,250.5L-107.06,196.73L-106.68,195.6L-97.78,175.91L-97.39,175.38L-91.98,170.97L-91.59,170.88L-86.95,171.81L-86.56,172.05L-80.37,178.13L-79.98,178.6L-67.99,191.13L-67.6,191.36L-59.48,194.6L-59.09,194.73L-51.36,198.74L-50.97,199.03L-32.4,212.76L-32.01,212.88L-25.44,213.54L-25.05,213.52L-12.28,213.12L-11.9,213.23L-7.64,215.52L-7.25,215.83L-3.39,220.04L-3,220.57L1.64,228.47L2.03,229.25L8.22,243.17L8.61,244.09L15.18,258.27L15.57,258.93L19.05,263.29L19.44,263.57L21.76,264.17L22.15,264.08L24.08,262.72L24.47,262.26L26.79,258.08L27.18,257.14L30.27,247.16L30.66,245.61L34.53,226.64L34.91,224.44L41.1,184.28L41.49,181.61L50,128.22L50.39,126.3L54.26,110.92L54.64,109.79L57.35,104.18L57.74,103.7L59.67,102.53L60.06,102.54L61.99,103.69L62.38,104.14L64.7,108.21L65.09,109.1L68.57,119.27L68.96,120.6L84.05,173.93L84.43,174.92L89.07,184.61L89.46,185.24L93.72,190.71L94.1,191.09L98.75,194.43L99.13,194.63L106.87,197.59L107.26,197.73L114.22,201.03L114.61,201.26L130.08,210.87L130.47,210.97L134.34,211.29L134.72,211.24L138.59,209.97L138.98,209.77L143.62,206.29L144.01,205.92L151.75,197.58L152.13,197.15L158.71,191.04L159.1,190.77L163.74,188.31L164.13,188.17L169.54,187.21L169.93,187.21L175.34,187.9L175.73,188L181.53,190.56L181.92,190.79L188.11,195.46L188.5,195.8L204.36,209.18L204.75,209.4L209.39,211.19L209.77,211.27L214.42,211.26L214.8,211.19L220.22,209.32L220.61,209.14L239.56,199.38L239.95,199.12L246.91,193.42L247.3,193.05L267.42,173.96L267.8,173.75L271.67,172.51L272.06,172.49L275.54,173.15L275.93,173.32L279.8,175.99L280.18,176.35L286.37,183.03L286.76,183.46L293.34,189.62L293.72,189.87L297.98,191.65L298.37,191.72L302.23,191.57L302.62,191.48L307.26,189.42L307.65,189.18L313.07,184.85L313.45,184.48L322.35,174.81L322.74,174.38L329.31,168.03L329.7,167.74L334.34,165.36L334.73,165.25L338.99,165.03L339.37,165.09L343.63,166.52L344.02,166.71L349.82,170.52L350.21,170.83L367.23,184.2L367.61,184.37L371.87,185.26L372.26,185.25L376.12,184.24L376.51,184.05L380.38,181.26L380.77,180.9L387.34,173.28L387.73,172.78L395.47,164.23L395.85,163.94L399.72,162.12L400.11,162.05L403.59,162.33L403.98,162.46L408.23,164.77L408.62,165.05L422.55,174.54L422.93,174.7L429.9,176.79L430.29,176.86L436.86,177.37L437.25,177.35L442.28,176.43L442.66,176.3L448.08,173.76L448.47,173.53L460.46,166.82L460.85,166.72L464.72,166.53L465.1,166.61L468.58,168.05L468.97,168.3L472.84,171.68L473.23,172.1L486.38,186.82L486.77,187.04L489.86,187.97L490.25,187.98L493.34,187.23L493.73,187.04L497.6,184.32L497.99,183.98L506.5,177.22L506.88,177.03L510.75,176.13L511.14,176.14L514.62,177.06L515.01,177.25L519.65,180.46L520.04,180.78L529.32,187.96L529.71,188.15L533.96,189.21L534.35,189.22L538.61,188.5L538.99,188.37L557.56,182.33L557.95,182.25L566.46,179.58L566.85,179.42L577.29,175.75L577.68,175.68L580,175.5" style="vector-effect: none; fill: none; stroke: rgb(255, 161, 90); stroke-opacity: 1; stroke-width: 0px; opacity: 1;"/></g><g class="points"/><g class="text"/></g><g class="trace scatter tracea7a65c" style="stroke-miterlimit: 2; opacity: 1;"><g class="fills"/><g class="errorbars"/><g class="lines"><path class="js-line" d="M-193.33,190.73L-188.69,194.47L-188.3,195.08L-180.95,213.6L-180.57,214.84L-163.16,261.96L-162.77,262.46L-155.81,267.07L-155.42,267.08L-149.23,264.13L-148.84,263.75L-140.72,251.57L-140.33,250.83L-125.25,216.42L-124.86,215.35L-112.09,173.43L-111.71,172.08L-100.1,139.08L-99.71,138.36L-93.52,130.88L-93.14,130.68L-88.49,130.6L-88.11,130.78L-82.69,135.53L-82.3,135.99L-67.22,153.01L-66.83,153.24L-53.29,159.63L-52.9,159.9L-42.84,168.91L-42.46,169.27L-34.72,174.95L-34.33,175.13L-28.53,176.78L-28.14,176.82L-19.63,176.54L-19.25,176.51L-12.28,177.05L-11.9,177.17L-8.03,179.19L-7.64,179.49L-3.77,183.48L-3.39,183.99L0.87,190.88L1.26,191.62L7.83,206.22L8.22,207.14L15.96,223.85L16.34,224.47L19.44,228.03L19.83,228.28L22.15,228.65L22.53,228.51L24.47,226.87L24.86,226.34L27.18,221.74L27.56,220.72L30.66,210.01L31.05,208.35L35.3,185.93L35.69,183.56L43.81,127.01L44.2,124.26L50.78,83.18L51.16,81.26L55.03,66.23L55.42,65.18L58.13,60.22L58.51,59.86L60.45,59.33L60.83,59.47L62.77,61.34L63.15,61.94L65.86,67.94L66.25,69.04L70.51,83.78L70.89,85.3L82.88,130.62L83.27,131.75L88.3,143.73L88.69,144.45L92.94,150.67L93.33,151.1L97.59,154.58L97.97,154.81L103.39,156.95L103.78,157.06L113.06,160.42L113.45,160.63L120.8,165.73L121.18,166.02L128.53,170.77L128.92,170.93L133.18,171.88L133.56,171.88L137.43,171.04L137.82,170.88L142.07,168.08L142.46,167.74L147.88,162.1L148.26,161.66L157.55,151.74L157.94,151.42L162.96,148.33L163.35,148.17L168.38,146.96L168.77,146.93L174.18,147.23L174.57,147.31L179.99,149.18L180.37,149.38L185.79,152.93L186.18,153.24L195.07,161.44L195.46,161.82L204.75,169.69L205.13,169.94L209.77,172.04L210.16,172.13L214.42,172.38L214.8,172.33L219.83,170.81L220.22,170.65L238.02,161.64L238.4,161.4L244.98,156.32L245.37,155.97L255.81,145.1L256.2,144.68L264.71,136.27L265.1,135.97L269.35,133.53L269.74,133.4L273.22,133.09L273.61,133.15L277.09,134.6L277.48,134.85L282.12,139.02L282.5,139.44L293.72,150.74L294.11,150.99L298.37,152.63L298.75,152.69L302.62,152.41L303.01,152.31L307.26,150.31L307.65,150.06L313.07,145.55L313.45,145.16L321.58,135.97L321.96,135.52L328.93,128.49L329.31,128.2L333.57,125.94L333.96,125.83L337.83,125.53L338.21,125.58L342.85,127.15L343.24,127.35L349.04,131.28L349.43,131.59L359.1,140.21L359.49,140.56L366.45,145.74L366.84,145.93L371.1,147.19L371.48,147.21L374.96,146.62L375.35,146.47L379.22,143.99L379.61,143.65L384.64,138.1L385.02,137.6L395.47,125.13L395.85,124.83L399.34,123.03L399.72,122.93L403.2,123.05L403.59,123.16L407.46,125.15L407.85,125.42L422.16,135.49L422.55,135.66L429.51,137.64L429.9,137.71L436.86,138.07L437.25,138.04L443.05,136.72L443.44,136.57L449.63,133.26L450.02,133.01L459.69,127.5L460.07,127.38L464.33,127.06L464.72,127.14L468.2,128.63L468.58,128.89L472.45,132.45L472.84,132.89L479.03,141.13L479.42,141.67L485.22,148.41L485.61,148.72L488.7,150.4L489.09,150.5L492.18,150.39L492.57,150.27L496.05,148.29L496.44,147.99L508.43,138.43L508.82,138.29L512.3,137.91L512.69,137.96L516.55,139.4L516.94,139.63L522.36,143.81L522.74,144.14L530.1,149.43L530.48,149.6L534.74,150.54L535.12,150.54L539.77,149.62L540.15,149.49L556.4,144.12L556.79,144.03L565.3,141.31L565.69,141.14L578.07,136.19L578.45,136.14L580,136.03" style="vector-effect: none; fill: none; stroke: rgb(148, 0, 211); stroke-opacity: 1; stroke-width: 3px; opacity: 1;"/></g><g class="points"/><g class="text"/></g></g></g></g><g class="zerolinelayer-above"/><path class="xlines-above crisp" d="M79,420.5H661M79,99.5H661" style="fill: none; stroke-width: 1px; stroke: rgb(0, 0, 0); stroke-opacity: 1;"/><path class="ylines-above crisp" d="M79.5,100V420M660.5,100V420" style="fill: none; stroke-width: 1px; stroke: rgb(0, 0, 0); stroke-opacity: 1;"/><g class="overlines-above"/><g class="xaxislayer-above"><path class="xtick ticks crisp" d="M0,421v5" transform="translate(118.67,0)" style="stroke: rgb(68, 68, 68); stroke-opacity: 1; stroke-width: 1px;"/><path class="xtick ticks crisp" d="M0,421v5" transform="translate(196,0)" style="stroke: rgb(68, 68, 68); stroke-opacity: 1; stroke-width: 1px;"/><path class="xtick ticks crisp" d="M0,421v5" transform="translate(273.33000000000004,0)" style="stroke: rgb(68, 68, 68); stroke-opacity: 1; stroke-width: 1px;"/><path class="xtick ticks crisp" d="M0,421v5" transform="translate(350.67,0)" style="stroke: rgb(68, 68, 68); stroke-opacity: 1; stroke-width: 1px;"/><path class="xtick ticks crisp" d="M0,421v5" transform="translate(428,0)" style="stroke: rgb(68, 68, 68); stroke-opacity: 1; stroke-width: 1px;"/><path class="xtick ticks crisp" d="M0,421v5" transform="translate(505.33,0)" style="stroke: rgb(68, 68, 68); stroke-opacity: 1; stroke-width: 1px;"/><path class="xtick ticks crisp" d="M0,421v5" transform="translate(582.6700000000001,0)" style="stroke: rgb(68, 68, 68); stroke-opacity: 1; stroke-width: 1px;"/><path class="xtick ticks crisp" d="M0,421v5" transform="translate(660,0)" style="stroke: rgb(68, 68, 68); stroke-opacity: 1; stroke-width: 1px;"/><g class="xtick"><text text-anchor="middle" x="0" y="440.4" transform="translate(118.67,0)" style="font-family: 'Open Sans', verdana, arial, sans-serif; font-size: 12px; fill: rgb(42, 63, 95); fill-opacity: 1; white-space: pre;">−400</text></g><g class="xtick"><text text-anchor="middle" x="0" y="440.4" style="font-family: 'Open Sans', verdana, arial, sans-serif; font-size: 12px; fill: rgb(42, 63, 95); fill-opacity: 1; white-space: pre;" transform="translate(196,0)">−200</text></g><g class="xtick"><text text-anchor="middle" x="0" y="440.4" style="font-family: 'Open Sans', verdana, arial, sans-serif; font-size: 12px; fill: rgb(42, 63, 95); fill-opacity: 1; white-space: pre;" transform="translate(273.33000000000004,0)">0</text></g><g class="xtick"><text text-anchor="middle" x="0" y="440.4" style="font-family: 'Open Sans', verdana, arial, sans-serif; font-size: 12px; fill: rgb(42, 63, 95); fill-opacity: 1; white-space: pre;" transform="translate(350.67,0)">200</text></g><g class="xtick"><text text-anchor="middle" x="0" y="440.4" style="font-family: 'Open Sans', verdana, arial, sans-serif; font-size: 12px; fill: rgb(42, 63, 95); fill-opacity: 1; white-space: pre;" transform="translate(428,0)">400</text></g><g class="xtick"><text text-anchor="middle" x="0" y="440.4" style="font-family: 'Open Sans', verdana, arial, sans-serif; font-size: 12px; fill: rgb(42, 63, 95); fill-opacity: 1; white-space: pre;" transform="translate(505.33,0)">600</text></g><g class="xtick"><text text-anchor="middle" x="0" y="440.4" style="font-family: 'Open Sans', verdana, arial, sans-serif; font-size: 12px; fill: rgb(42, 63, 95); fill-opacity: 1; white-space: pre;" transform="translate(582.6700000000001,0)">800</text></g><g class="xtick"><text text-anchor="middle" x="0" y="440.4" style="font-family: 'Open Sans', verdana, arial, sans-serif; font-size: 12px; fill: rgb(42, 63, 95); fill-opacity: 1; white-space: pre;" transform="translate(660,0)">1000</text></g></g><g class="yaxislayer-above"><path class="ytick ticks crisp" d="M79,0h-5" transform="translate(0,383.37)" style="stroke: rgb(68, 68, 68); stroke-opacity: 1; stroke-width: 1px;"/><path class="ytick ticks crisp" d="M79,0h-5" transform="translate(0,331.44)" style="stroke: rgb(68, 68, 68); stroke-opacity: 1; stroke-width: 1px;"/><path class="ytick ticks crisp" d="M79,0h-5" transform="translate(0,279.51)" style="stroke: rgb(68, 68, 68); stroke-opacity: 1; stroke-width: 1px;"/><path class="ytick ticks crisp" d="M79,0h-5" transform="translate(0,227.57999999999998)" style="stroke: rgb(68, 68, 68); stroke-opacity: 1; stroke-width: 1px;"/><path class="ytick ticks crisp" d="M79,0h-5" transform="translate(0,175.65)" style="stroke: rgb(68, 68, 68); stroke-opacity: 1; stroke-width: 1px;"/><path class="ytick ticks crisp" d="M79,0h-5" transform="translate(0,123.72)" style="stroke: rgb(68, 68, 68); stroke-opacity: 1; stroke-width: 1px;"/><g class="ytick"><text text-anchor="end" x="71.6" y="4.199999999999999" transform="translate(0,383.37)" style="font-family: 'Open Sans', verdana, arial, sans-serif; font-size: 12px; fill: rgb(42, 63, 95); fill-opacity: 1; white-space: pre;">4.5</text></g><g class="ytick"><text text-anchor="end" x="71.6" y="4.199999999999999" style="font-family: 'Open Sans', verdana, arial, sans-serif; font-size: 12px; fill: rgb(42, 63, 95); fill-opacity: 1; white-space: pre;" transform="translate(0,331.44)">5</text></g><g class="ytick"><text text-anchor="end" x="71.6" y="4.199999999999999" style="font-family: 'Open Sans', verdana, arial, sans-serif; font-size: 12px; fill: rgb(42, 63, 95); fill-opacity: 1; white-space: pre;" transform="translate(0,279.51)">5.5</text></g><g class="ytick"><text text-anchor="end" x="71.6" y="4.199999999999999" style="font-family: 'Open Sans', verdana, arial, sans-serif; font-size: 12px; fill: rgb(42, 63, 95); fill-opacity: 1; white-space: pre;" transform="translate(0,227.57999999999998)">6</text></g><g class="ytick"><text text-anchor="end" x="71.6" y="4.199999999999999" style="font-family: 'Open Sans', verdana, arial, sans-serif; font-size: 12px; fill: rgb(42, 63, 95); fill-opacity: 1; white-space: pre;" transform="translate(0,175.65)">6.5</text></g><g class="ytick"><text text-anchor="end" x="71.6" y="4.199999999999999" style="font-family: 'Open Sans', verdana, arial, sans-serif; font-size: 12px; fill: rgb(42, 63, 95); fill-opacity: 1; white-space: pre;" transform="translate(0,123.72)">7</text></g></g><g class="overaxes-above"/></g></g><g class="polarlayer"/><g class="smithlayer"/><g class="ternarylayer"/><g class="geolayer"/><g class="funnelarealayer"/><g class="pielayer"/><g class="iciclelayer"/><g class="treemaplayer"/><g class="sunburstlayer"/><g class="glimages"/><defs id="topdefs-2b2d11"><g class="clips"/><clipPath id="legend2b2d11"><rect width="296" height="29" x="1" y="1"/></clipPath></defs><g class="layer-above"><g class="imagelayer"/><g class="shapelayer"><g class="shape-group" data-index="0" clip-path="url(#clip2b2d11x)"><path data-index="0" fill-rule="evenodd" d="M273.33000000000004,420L273.33000000000004,100" style="opacity: 1; stroke: rgb(255, 0, 0); stroke-opacity: 1; fill: rgb(0, 0, 0); fill-opacity: 0; stroke-dasharray: 9px, 9px; stroke-width: 2px;"/></g></g></g><g class="infolayer"><g class="legend" pointer-events="all" transform="translate(362,62.599999999999994)"><rect class="bg" shape-rendering="crispEdges" style="stroke: rgb(0, 0, 0); stroke-opacity: 1; fill: rgb(255, 255, 255); fill-opacity: 0.8; stroke-width: 1px;" width="297" height="30" x="0.5" y="0.5"/><g class="scrollbox" transform="" clip-path="url(#legend2b2d11)"><g class="groups" transform=""><g class="traces" transform="translate(0,15.5)" style="opacity: 1;"><text class="legendtext" text-anchor="start" x="40" y="4.680000000000001" style="font-family: 'Open Sans', verdana, arial, sans-serif; font-size: 12px; fill: rgb(42, 63, 95); fill-opacity: 1; white-space: pre;">Standard (AAAB)</text><g class="layers" style="opacity: 1;"><g class="legendfill"/><g class="legendlines"><path class="js-line" d="M5,0h30" style="fill: none; stroke: rgb(207, 184, 124); stroke-opacity: 1; stroke-width: 3px;"/></g><g class="legendsymbols"><g class="legendpoints"/></g></g><rect class="legendtoggle" x="0" y="-9.5" width="145.46875" height="19" style="fill: rgb(0, 0, 0); fill-opacity: 0;"/></g></g><g class="groups" transform="translate(147.96875,0)"><g class="traces" transform="translate(0,15.5)" style="opacity: 1;"><text class="legendtext" text-anchor="start" x="40" y="4.680000000000001" style="font-family: 'Open Sans', verdana, arial, sans-serif; font-size: 12px; fill: rgb(42, 63, 95); fill-opacity: 1; white-space: pre;">Omission (AXAB)</text><g class="layers" style="opacity: 1;"><g class="legendfill"/><g class="legendlines"><path class="js-line" d="M5,0h30" style="fill: none; stroke: rgb(148, 0, 211); stroke-opacity: 1; stroke-width: 3px;"/></g><g class="legendsymbols"><g class="legendpoints"/></g></g><rect class="legendtoggle" x="0" y="-9.5" width="145.5546875" height="19" style="fill: rgb(0, 0, 0); fill-opacity: 0;"/></g></g></g><rect class="scrollbar" rx="20" ry="3" width="0" height="0" style="fill: rgb(128, 139, 164); fill-opacity: 1;" x="0" y="0"/></g><g class="g-gtitle"><text class="gtitle" x="350" y="50" text-anchor="middle" dy="0em" style="opacity: 1; font-family: Arial; font-size: 18px; fill: rgb(0, 0, 0); fill-opacity: 1; white-space: pre;"><tspan class="line" dy="0em" x="350" y="50"><tspan style="font-weight:bold">Figure f002: TEO Omission-Local PSTH</tspan></tspan><tspan class="line" dy="1.3em" x="350" y="50">​<tspan style="font-size:70%" dy="-0.6em">n=263 units | Mean ± SEM | 0ms = Omission Onset</tspan><tspan dy="0.42em">​</tspan></tspan></text></g><g class="g-xtitle"><text class="xtitle" x="370" y="467.200390625" text-anchor="middle" style="opacity: 1; font-family: 'Open Sans', verdana, arial, sans-serif; font-size: 14px; fill: rgb(42, 63, 95); fill-opacity: 1; white-space: pre;">Time from Omission (ms)</text></g><g class="g-ytitle"><text class="ytitle" transform="rotate(-90,32.574609375,260)" x="32.574609375" y="260" text-anchor="middle" style="opacity: 1; font-family: 'Open Sans', verdana, arial, sans-serif; font-size: 14px; fill: rgb(42, 63, 95); fill-opacity: 1; white-space: pre;">Firing Rate (Hz)</text></g><g class="annotation" data-index="0" style="opacity: 1;"><g class="annotation-text-g" transform="rotate(0,322.83000000000004,109.5)"><g class="cursor-pointer" transform="translate(273,100)"><rect class="bg" x="0.5" y="0.5" width="98" height="18" style="stroke-width: 1px; stroke: rgb(0, 0, 0); stroke-opacity: 0; fill: rgb(0, 0, 0); fill-opacity: 0;"/><text class="annotation-text" text-anchor="middle" x="49.23828125" y="14" style="font-family: 'Open Sans', verdana, arial, sans-serif; font-size: 12px; fill: rgb(42, 63, 95); fill-opacity: 1; white-space: pre;">Omission Onset</text></g></g></g></g></svg>