<svg class="main-svg" xmlns="http://www.w3.org/2000/svg" xmlns:xlink="http://www.w3.org/1999/xlink" width="700" height="500" style="" viewBox="0 0 700 500"><rect x="0" y="0" width="700" height="500" style="fill: rgb(255, 255, 255); fill-opacity: 1;"/><defs id="defs-0bd6c5"><g class="clips"><clipPath id="clip0bd6c5xyplot" class="plotclip"><rect width="580" height="320"/></clipPath><clipPath class="axesclip" id="clip0bd6c5x"><rect x="80" y="0" width="580" height="500"/></clipPath><clipPath class="axesclip" id="clip0bd6c5y"><rect x="0" y="100" width="700" height="320"/></clipPath><clipPath class="axesclip" id="clip0bd6c5xy"><rect x="80" y="100" width="580" height="320"/></clipPath></g><g class="gradients"/><g class="patterns"/></defs><g class="bglayer"/><g class="layer-below"><g class="imagelayer"/><g class="shapelayer"/></g><g class="cartesianlayer"><g class="subplot xy"><g class="layer-subplot"><g class="shapelayer"/><g class="imagelayer"/></g><g class="minor-gridlayer"><g class="x"/><g class="y"/></g><g class="gridlayer"><g class="x"><path class="xgrid crisp" transform="translate(118.67,0)" d="M0,100v320" style="stroke: rgb(211, 211, 211); stroke-opacity: 1; stroke-width: 1px;"/><path class="xgrid crisp" transform="translate(196,0)" d="M0,100v320" style="stroke: rgb(211, 211, 211); stroke-opacity: 1; stroke-width: 1px;"/><path class="xgrid crisp" transform="translate(350.67,0)" d="M0,100v320" style="stroke: rgb(211, 211, 211); stroke-opacity: 1; stroke-width: 1px;"/><path class="xgrid crisp" transform="translate(428,0)" d="M0,100v320" style="stroke: rgb(211, 211, 211); stroke-opacity: 1; stroke-width: 1px;"/><path class="xgrid crisp" transform="translate(505.33,0)" d="M0,100v320" style="stroke: rgb(211, 211, 211); stroke-opacity: 1; stroke-width: 1px;"/><path class="xgrid crisp" transform="translate(582.6700000000001,0)" d="M0,100v320" style="stroke: rgb(211, 211, 211); stroke-opacity: 1; stroke-width: 1px;"/></g><g class="y"><path class="ygrid crisp" transform="translate(0,401.32)" d="M80,0h580" style="stroke: rgb(211, 211, 211); stroke-opacity: 1; stroke-width: 1px;"/><path class="ygrid crisp" transform="translate(0,360.14)" d="M80,0h580" style="stroke: rgb(211, 211, 211); stroke-opacity: 1; stroke-width: 1px;"/><path class="ygrid crisp" transform="translate(0,318.96000000000004)" d="M80,0h580" style="stroke: rgb(211, 211, 211); stroke-opacity: 1; stroke-width: 1px;"/><path class="ygrid crisp" transform="translate(0,277.78)" d="M80,0h580" style="stroke: rgb(211, 211, 211); stroke-opacity: 1; stroke-width: 1px;"/><path class="ygrid crisp" transform="translate(0,236.6)" d="M80,0h580" style="stroke: rgb(211, 211, 211); stroke-opacity: 1; stroke-width: 1px;"/><path class="ygrid crisp" transform="translate(0,195.42000000000002)" d="M80,0h580" style="stroke: rgb(211, 211, 211); stroke-opacity: 1; stroke-width: 1px;"/><path class="ygrid crisp" transform="translate(0,154.24)" d="M80,0h580" style="stroke: rgb(211, 211, 211); stroke-opacity: 1; stroke-width: 1px;"/><path class="ygrid crisp" transform="translate(0,113.06)" d="M80,0h580" style="stroke: rgb(211, 211, 211); stroke-opacity: 1; stroke-width: 1px;"/></g></g><g class="zerolinelayer"><path class="xzl zl crisp" transform="translate(273.33000000000004,0)" d="M0,100v320" style="stroke: rgb(235, 240, 248); stroke-opacity: 1; stroke-width: 2px;"/></g><g class="layer-between"><g class="shapelayer"/><g class="imagelayer"/></g><path class="xlines-below"/><path class="ylines-below"/><g class="overlines-below"/><g class="xaxislayer-below"/><g class="yaxislayer-below"/><g class="overaxes-below"/><g class="overplot"><g class="xy" transform="translate(80,100)" clip-path="url(#clip0bd6c5xyplot)"><g class="scatterlayer mlayer"><g class="trace scatter trace14a38d" style="stroke-miterlimit: 2;"><g class="fills"><g><path class="js-fill" d="M-193.33,70.9L-182.5,71.07L-182.11,71.74L-177.47,87.71L-177.09,89.73L-168.96,150.41L-168.57,153.75L-161.61,209.07L-161.22,211.63L-153.1,248.1L-152.71,249.07L-147.68,256.81L-147.3,257.1L-140.72,258.47L-140.33,258.42L-104.36,254.1L-103.97,254.05L-59.09,247.14L-58.71,247.06L-45.55,245.68L-45.17,245.68L-34.33,247.14L-33.95,247.23L-17.7,252.4L-17.31,252.52L-0.68,258.42L-0.29,258.63L5.51,262.72L5.9,263.06L11.32,268.7L11.7,269.16L19.44,279.62L19.83,280.17L28.34,291.21L28.72,291.63L34.91,297.13L35.3,297.39L41.1,300.56L41.49,300.72L48.84,302.76L49.23,302.82L55.8,302.94L56.19,302.9L63.15,301.26L63.54,301.13L73.99,296.63L74.37,296.44L95.26,287.45L95.65,287.33L112.67,281.36L113.06,281.18L127.37,275.29L127.76,275.19L137.05,273.55L137.43,273.5L149.04,271.28L149.42,271.19L168.77,267L169.15,266.94L181.15,264.11L181.53,263.93L185.4,261.33L185.79,260.96L188.88,256.95L189.27,256.29L192.37,249.46L192.75,248.38L196.23,236.22L196.62,234.58L200.88,212.89L201.26,210.63L212.48,146.15L212.87,144.74L215.58,138.01L215.96,137.53L217.51,136.87L217.9,137.03L219.45,138.92L219.83,139.7L222.15,146.84L222.54,148.41L226.02,166.4L226.41,168.74L239.56,248.35L239.95,250.02L244.21,264.64L244.59,265.64L248.46,273.1L248.85,273.62L251.94,276.5L252.33,276.73L255.81,277.71L256.2,277.72L260.45,276.96L260.84,276.82L267.03,273.88L267.42,273.66L280.96,264.62L281.34,264.33L303.01,248.3L303.4,248.08L313.07,243.55L313.45,243.39L330.48,237.56L330.86,237.46L345.56,234.83L345.95,234.78L355.62,234.52L356.01,234.57L362.58,236.33L362.97,236.49L371.1,240.6L371.48,240.82L400.5,257.79L400.88,258.09L407.07,263.55L407.46,263.95L413.65,271.3L414.04,271.82L431.45,295.2L431.83,295.57L437.64,299.81L438.02,300.02L443.83,302.24L444.21,302.34L453.88,303.82L454.27,303.84L463.17,303.82L463.56,303.78L470.52,302.52L470.91,302.41L479.42,298.98L479.8,298.78L499.92,289.05L500.31,288.92L512.3,285.59L512.69,285.48L523.91,281.8L524.29,281.65L543.64,274.35L544.02,274.26L552.92,273.14L553.31,273.12L573.04,270.88L573.42,270.83L580,270.35L580,241.89L567.62,243.27L567.23,243.32L551.76,244.43L551.37,244.45L543.64,245.33L543.25,245.41L523.91,253L523.52,253.15L506.5,257.86L506.11,257.95L497.21,260.57L496.83,260.72L485.99,266.03L485.61,266.24L476.71,270.93L476.32,271.1L469.36,273.46L468.97,273.55L461.62,274.46L461.23,274.48L450.4,273.79L450.02,273.73L442.28,271.87L441.89,271.73L435.7,268.63L435.31,268.36L429.51,263.17L429.12,262.74L419.45,249.57L419.07,249L410.94,237.66L410.56,237.17L403.59,229.43L403.2,229.05L370.32,203.68L369.93,203.37L361.81,197.53L361.42,197.3L355.62,194.6L355.23,194.47L348.66,193.21L348.27,193.18L332.8,193.29L332.41,193.32L322.35,194.88L321.96,194.98L313.07,197.92L312.68,198.09L305.72,201.82L305.33,202.07L298.37,207.64L297.98,208L280.18,228.48L279.8,228.95L271.67,237.91L271.29,238.27L265.48,242.97L265.1,243.23L260.07,245.8L259.68,245.93L255.81,246.57L255.42,246.55L251.94,245.44L251.56,245.19L248.07,241.51L247.69,240.91L244.21,233.46L243.82,232.38L239.56,216.6L239.18,214.8L226.41,131.49L226.02,128.95L222.54,109.36L222.15,107.66L219.83,99.92L219.45,99.09L217.9,97.11L217.51,96.97L215.96,97.83L215.58,98.4L212.87,106.09L212.48,107.68L202.42,171.41L202.04,173.98L197.78,199.07L197.4,201L193.91,215.48L193.53,216.77L190.43,225.08L190.05,225.89L186.95,230.86L186.56,231.32L182.69,234.57L182.31,234.78L150.2,242.37L149.81,242.46L135.5,244.72L135.11,244.76L126.99,246.15L126.6,246.25L113.45,251.74L113.06,251.92L95.65,257.88L95.26,258L79.79,264.36L79.4,264.54L66.64,270.36L66.25,270.52L58.9,272.74L58.51,272.81L52.32,273.18L51.94,273.16L44.2,271.56L43.81,271.42L37.24,268.44L36.85,268.21L31.05,263.87L30.66,263.51L12.09,239.33L11.7,238.83L5.13,231.47L4.74,231.1L-2.22,225.71L-2.61,225.47L-16.15,219.09L-16.54,218.92L-37.82,208.08L-38.2,207.9L-48.65,204.26L-49.03,204.18L-73.79,203.84L-74.18,203.85L-91.98,204.43L-92.36,204.49L-107.06,209.58L-107.45,209.78L-137.63,223.25L-138.01,223.39L-145.36,224.4L-145.75,224.29L-151.55,218.22L-151.94,217.43L-155.81,205.95L-156.19,204.41L-160.45,181.95L-160.84,179.41L-170.9,92.76L-171.28,89.2L-178.25,36.89L-178.63,34.94L-182.89,21L-183.27,20.37L-193.33,19.98Z" style="fill: rgb(207, 184, 124); fill-opacity: 0.2; stroke-width: 0;"/></g></g><g class="errorbars"/><g class="lines"><path class="js-line" d="M-193.33,19.98L-183.27,20.37L-182.89,21L-178.63,34.94L-178.25,36.89L-171.28,89.2L-170.9,92.76L-160.84,179.41L-160.45,181.95L-156.19,204.41L-155.81,205.95L-151.94,217.43L-151.55,218.22L-145.75,224.29L-145.36,224.4L-138.01,223.39L-137.63,223.25L-107.45,209.78L-107.06,209.58L-92.36,204.49L-91.98,204.43L-74.18,203.85L-73.79,203.84L-49.03,204.18L-48.65,204.26L-38.2,207.9L-37.82,208.08L-16.54,218.92L-16.15,219.09L-2.61,225.47L-2.22,225.71L4.74,231.1L5.13,231.47L11.7,238.83L12.09,239.33L30.66,263.51L31.05,263.87L36.85,268.21L37.24,268.44L43.81,271.42L44.2,271.56L51.94,273.16L52.32,273.18L58.51,272.81L58.9,272.74L66.25,270.52L66.64,270.36L79.4,264.54L79.79,264.36L95.26,258L95.65,257.88L113.06,251.92L113.45,251.74L126.6,246.25L126.99,246.15L135.11,244.76L135.5,244.72L149.81,242.46L150.2,242.37L182.31,234.78L182.69,234.57L186.56,231.32L186.95,230.86L190.05,225.89L190.43,225.08L193.53,216.77L193.91,215.48L197.4,201L197.78,199.07L202.04,173.98L202.42,171.41L212.48,107.68L212.87,106.09L215.58,98.4L215.96,97.83L217.51,96.97L217.9,97.11L219.45,99.09L219.83,99.92L222.15,107.66L222.54,109.36L226.02,128.95L226.41,131.49L239.18,214.8L239.56,216.6L243.82,232.38L244.21,233.46L247.69,240.91L248.07,241.51L251.56,245.19L251.94,245.44L255.42,246.55L255.81,246.57L259.68,245.93L260.07,245.8L265.1,243.23L265.48,242.97L271.29,238.27L271.67,237.91L279.8,228.95L280.18,228.48L297.98,208L298.37,207.64L305.33,202.07L305.72,201.82L312.68,198.09L313.07,197.92L321.96,194.98L322.35,194.88L332.41,193.32L332.8,193.29L348.27,193.18L348.66,193.21L355.23,194.47L355.62,194.6L361.42,197.3L361.81,197.53L369.93,203.37L370.32,203.68L403.2,229.05L403.59,229.43L410.56,237.17L410.94,237.66L419.07,249L419.45,249.57L429.12,262.74L429.51,263.17L435.31,268.36L435.7,268.63L441.89,271.73L442.28,271.87L450.02,273.73L450.4,273.79L461.23,274.48L461.62,274.46L468.97,273.55L469.36,273.46L476.32,271.1L476.71,270.93L485.61,266.24L485.99,266.03L496.83,260.72L497.21,260.57L506.11,257.95L506.5,257.86L523.52,253.15L523.91,253L543.25,245.41L543.64,245.33L551.37,244.45L551.76,244.43L567.23,243.32L567.62,243.27L580,241.89" style="vector-effect: none; fill: none; stroke: rgb(99, 110, 250); stroke-opacity: 1; stroke-width: 0px; opacity: 1;"/></g><g class="points"/><g class="text"/></g><g class="trace scatter trace13f376" style="stroke-miterlimit: 2;"><g class="fills"/><g class="errorbars"/><g class="lines"><path class="js-line" d="M-193.33,70.9L-182.5,71.07L-182.11,71.74L-177.47,87.71L-177.09,89.73L-168.96,150.41L-168.57,153.75L-161.61,209.07L-161.22,211.63L-153.1,248.1L-152.71,249.07L-147.68,256.81L-147.3,257.1L-140.72,258.47L-140.33,258.42L-104.36,254.1L-103.97,254.05L-59.09,247.14L-58.71,247.06L-45.55,245.68L-45.17,245.68L-34.33,247.14L-33.95,247.23L-17.7,252.4L-17.31,252.52L-0.68,258.42L-0.29,258.63L5.51,262.72L5.9,263.06L11.32,268.7L11.7,269.16L19.44,279.62L19.83,280.17L28.34,291.21L28.72,291.63L34.91,297.13L35.3,297.39L41.1,300.56L41.49,300.72L48.84,302.76L49.23,302.82L55.8,302.94L56.19,302.9L63.15,301.26L63.54,301.13L73.99,296.63L74.37,296.44L95.26,287.45L95.65,287.33L112.67,281.36L113.06,281.18L127.37,275.29L127.76,275.19L137.05,273.55L137.43,273.5L149.04,271.28L149.42,271.19L168.77,267L169.15,266.94L181.15,264.11L181.53,263.93L185.4,261.33L185.79,260.96L188.88,256.95L189.27,256.29L192.37,249.46L192.75,248.38L196.23,236.22L196.62,234.58L200.88,212.89L201.26,210.63L212.48,146.15L212.87,144.74L215.58,138.01L215.96,137.53L217.51,136.87L217.9,137.03L219.45,138.92L219.83,139.7L222.15,146.84L222.54,148.41L226.02,166.4L226.41,168.74L239.56,248.35L239.95,250.02L244.21,264.64L244.59,265.64L248.46,273.1L248.85,273.62L251.94,276.5L252.33,276.73L255.81,277.71L256.2,277.72L260.45,276.96L260.84,276.82L267.03,273.88L267.42,273.66L280.96,264.62L281.34,264.33L303.01,248.3L303.4,248.08L313.07,243.55L313.45,243.39L330.48,237.56L330.86,237.46L345.56,234.83L345.95,234.78L355.62,234.52L356.01,234.57L362.58,236.33L362.97,236.49L371.1,240.6L371.48,240.82L400.5,257.79L400.88,258.09L407.07,263.55L407.46,263.95L413.65,271.3L414.04,271.82L431.45,295.2L431.83,295.57L437.64,299.81L438.02,300.02L443.83,302.24L444.21,302.34L453.88,303.82L454.27,303.84L463.17,303.82L463.56,303.78L470.52,302.52L470.91,302.41L479.42,298.98L479.8,298.78L499.92,289.05L500.31,288.92L512.3,285.59L512.69,285.48L523.91,281.8L524.29,281.65L543.64,274.35L544.02,274.26L552.92,273.14L553.31,273.12L573.04,270.88L573.42,270.83L580,270.35" style="vector-effect: none; fill: none; stroke: rgb(239, 85, 59); stroke-opacity: 1; stroke-width: 0px; opacity: 1;"/></g><g class="points"/><g class="text"/></g><g class="trace scatter trace43355b" style="stroke-miterlimit: 2; opacity: 1;"><g class="fills"/><g class="errorbars"/><g class="lines"><path class="js-line" d="M-193.33,45.44L-182.89,45.74L-182.5,46.4L-178.25,60.44L-177.86,62.38L-170.51,116.74L-170.12,120.2L-160.84,196.76L-160.45,199.24L-152.33,233.28L-151.94,234.12L-145.75,241.14L-145.36,241.27L-138.01,240.68L-137.63,240.57L-90.43,228.52L-90.04,228.49L-45.55,225.37L-45.17,225.44L-35.11,228.18L-34.72,228.33L-14.22,236.68L-13.83,236.82L-3,241.25L-2.61,241.46L3.58,245.6L3.97,245.92L10.54,252.59L10.93,253.05L18.67,263.5L19.05,264.05L29.11,277.01L29.5,277.41L35.3,282.31L35.69,282.57L41.88,285.79L42.26,285.94L49.23,287.82L49.61,287.88L56.19,288.01L56.58,287.97L63.15,286.45L63.54,286.32L74.76,281.5L75.15,281.32L94.1,273.1L94.49,272.97L112.67,266.73L113.06,266.55L127.37,260.67L127.76,260.57L138.21,258.91L138.59,258.86L150.59,256.59L150.97,256.49L182.31,249.16L182.69,248.95L186.56,245.73L186.95,245.27L190.05,240.37L190.43,239.58L193.53,231.42L193.91,230.16L197.4,216.06L197.78,214.19L202.42,187.52L202.81,185.02L212.1,128.52L212.48,126.91L215.19,118.86L215.58,118.21L217.13,116.91L217.51,116.92L218.67,117.77L219.06,118.32L220.99,123L221.38,124.3L224.09,136.42L224.48,138.52L229.89,173.74L230.28,176.45L238.02,225.07L238.4,227.01L242.66,244.44L243.04,245.68L246.91,255.12L247.3,255.8L250.78,260.13L251.17,260.44L254.26,261.93L254.65,262.01L258.52,261.87L258.91,261.78L263.94,259.73L264.32,259.52L271.29,254.79L271.67,254.49L281.73,245.31L282.12,244.93L297.59,230.05L297.98,229.73L305.72,224.34L306.1,224.11L316.16,219.52L316.55,219.37L328.15,215.97L328.54,215.89L342.47,214.13L342.85,214.1L353.69,214.19L354.07,214.26L359.49,215.76L359.88,215.92L366.84,219.63L367.23,219.88L401.66,243.13L402.04,243.47L409.01,250.45L409.39,250.9L416.36,260.04L416.75,260.6L429.51,278.18L429.9,278.6L435.7,283.64L436.09,283.89L441.5,286.56L441.89,286.69L449.63,288.52L450.02,288.57L458.91,289.25L459.3,289.25L467.42,288.55L467.81,288.48L475.16,286.26L475.55,286.1L484.83,281.38L485.22,281.17L496.83,275.45L497.21,275.3L506.5,272.48L506.88,272.39L524.29,267.24L524.68,267.09L543.64,259.84L544.02,259.76L552.15,258.81L552.53,258.79L569.17,257.24L569.55,257.18L580,256.12" style="vector-effect: none; fill: none; stroke: rgb(207, 184, 124); stroke-opacity: 1; stroke-width: 3px; opacity: 1;"/></g><g class="points"/><g class="text"/></g><g class="trace scatter trace915de5" style="stroke-miterlimit: 2;"><g class="fills"><g><path class="js-fill" d="M-193.33,70.62L-182.11,70.29L-181.73,70.98L-177.47,85.32L-177.09,87.26L-169.35,142.58L-168.96,145.81L-160.84,207.4L-160.45,209.73L-151.94,243.38L-151.55,244.19L-148.46,249.03L-148.07,249.46L-141.49,252.79L-141.11,252.83L-129.11,251.29L-128.73,251.2L-94.68,244.97L-94.3,245L-73.41,245.99L-73.02,245.95L-54.45,242.63L-54.06,242.53L-38.59,239.26L-38.2,239.27L-32.4,240.64L-32.01,240.81L-25.82,245.02L-25.44,245.35L-6.09,262L-5.71,262.23L11.32,272.87L11.7,273.22L17.51,279.35L17.89,279.82L32.21,296.21L32.59,296.52L37.62,299.44L38.01,299.59L43.43,300.67L43.81,300.69L50,300.3L50.39,300.24L82.5,294.58L82.88,294.46L92.56,290.7L92.94,290.52L103.39,284.9L103.78,284.68L121.18,273.28L121.57,273L133.18,265.57L133.56,265.4L139.75,263.46L140.14,263.39L155.23,260.22L155.61,260.08L167.22,256.32L167.61,256.28L172.64,256.55L173.02,256.64L178.44,258.74L178.83,258.94L191.59,265.31L191.98,265.4L196.62,265.5L197.01,265.43L201.26,263.91L201.65,263.71L208.23,259.32L208.61,259.03L217.13,253.6L217.51,253.45L221.77,252.56L222.15,252.56L226.02,253.38L226.41,253.54L230.67,256.1L231.05,256.39L246.14,268.14L246.53,268.3L251.17,269.43L251.56,269.45L257.36,269.04L257.75,268.97L273.22,266.77L273.61,266.76L282.5,267.49L282.89,267.56L292.56,270.27L292.95,270.39L300.3,271.91L300.69,271.93L306.49,271.18L306.88,271.07L320.03,267.32L320.42,267.31L325.45,267.98L325.83,268.08L334.73,271.34L335.12,271.48L342.08,273.27L342.47,273.33L349.43,273.52L349.82,273.49L368.77,272.41L369.16,272.45L387.34,273.86L387.73,273.83L402.04,273.76L402.43,273.81L419.07,275.63L419.45,275.59L425.64,274.09L426.03,273.94L432.22,270.63L432.61,270.37L439.96,264.31L440.34,263.94L456.59,249.01L456.98,248.77L462.01,246.6L462.39,246.51L467.04,246.16L467.42,246.19L472.84,247.41L473.23,247.54L482.51,251.71L482.9,251.9L491.41,255.37L491.8,255.47L496.83,256.06L497.21,256.05L503.01,255.07L503.4,254.96L514.62,252.48L515.01,252.47L521.58,253.04L521.97,253.1L534.35,254.63L534.74,254.63L547.12,255.68L547.5,255.77L558.72,259.4L559.11,259.53L574.58,263.97L574.97,264.04L580,264.51L580,234.89L576.13,234.71L575.74,234.67L566.46,233.03L566.07,232.94L555.63,229.62L555.24,229.48L546.34,226.44L545.96,226.34L536.28,225.16L535.9,225.15L521.2,223.13L520.81,223.07L515.01,222.8L514.62,222.84L504.18,225.89L503.79,226.02L497.99,227.33L497.6,227.35L492.18,226.73L491.8,226.61L479.03,220.12L478.64,219.9L472.07,216.72L471.68,216.59L467.04,215.68L466.65,215.67L462.01,216.47L461.62,216.61L456.2,219.86L455.82,220.17L448.47,227.45L448.08,227.87L438.8,237.66L438.41,238.02L432.22,242.97L431.83,243.23L426.03,246.23L425.64,246.38L420.23,247.65L419.84,247.69L401.27,244.92L400.88,244.87L393.53,244.87L393.15,244.92L383.48,246.16L383.09,246.18L371.48,245.06L371.1,245L349.82,244.85L349.43,244.84L342.47,243.9L342.08,243.8L334.34,240.79L333.96,240.6L326.22,237.06L325.83,236.93L321.19,236.1L320.8,236.09L306.49,240.7L306.1,240.82L300.69,241.68L300.3,241.67L292.56,240.17L292.18,240.05L284.05,237.88L283.67,237.81L275.15,237.3L274.77,237.32L257.36,240.27L256.97,240.34L251.17,240.75L250.78,240.71L245.75,239.3L245.37,239.11L231.83,228.15L231.44,227.84L227.18,225.05L226.8,224.87L222.93,223.83L222.54,223.8L218.29,224.45L217.9,224.58L210.94,228.45L210.55,228.71L203.2,233.49L202.81,233.7L197.78,235.6L197.4,235.67L193.14,235.72L192.75,235.66L177.67,227.89L177.28,227.69L172.64,226.04L172.25,225.97L167.61,225.92L167.22,225.98L159.1,228.87L158.71,229.05L151.75,231.63L151.36,231.72L144.4,232.39L144.01,232.4L137.43,232.82L137.05,232.89L132.02,234.69L131.63,234.89L123.89,240.5L123.51,240.83L113.83,248.94L113.45,249.24L102.61,256.47L102.23,256.7L91.4,262.32L91.01,262.49L80.95,266.06L80.56,266.16L70.89,267.87L70.51,267.9L51.55,269.61L51.16,269.65L44.2,269.84L43.81,269.8L38.4,268.46L38.01,268.29L32.59,265L32.21,264.69L19.44,250.81L19.05,250.35L11.7,242.56L11.32,242.21L3.19,235.91L2.8,235.65L-6.87,228.88L-7.25,228.57L-24.66,210.16L-25.05,209.74L-32.01,203.5L-32.4,203.24L-38.59,200.38L-38.98,200.28L-52.9,199.87L-53.29,199.89L-67.22,198.8L-67.6,198.72L-86.95,195.12L-87.33,195.09L-97.78,195.65L-98.17,195.74L-111.71,202.45L-112.09,202.71L-127.95,212.75L-128.34,212.93L-140.33,216.27L-140.72,216.28L-147.68,213.95L-148.07,213.6L-155.03,199.37L-155.42,198.02L-159.68,178.15L-160.06,175.87L-170.12,94.4L-170.51,90.89L-177.86,35.33L-178.25,33.34L-182.5,18.98L-182.89,18.32L-193.33,18.32Z" style="fill: rgb(148, 0, 211); fill-opacity: 0.2; stroke-width: 0;"/></g></g><g class="errorbars"/><g class="lines"><path class="js-line" d="M-193.33,18.32L-182.89,18.32L-182.5,18.98L-178.25,33.34L-177.86,35.33L-170.51,90.89L-170.12,94.4L-160.06,175.87L-159.68,178.15L-155.42,198.02L-155.03,199.37L-148.07,213.6L-147.68,213.95L-140.72,216.28L-140.33,216.27L-128.34,212.93L-127.95,212.75L-112.09,202.71L-111.71,202.45L-98.17,195.74L-97.78,195.65L-87.33,195.09L-86.95,195.12L-67.6,198.72L-67.22,198.8L-53.29,199.89L-52.9,199.87L-38.98,200.28L-38.59,200.38L-32.4,203.24L-32.01,203.5L-25.05,209.74L-24.66,210.16L-7.25,228.57L-6.87,228.88L2.8,235.65L3.19,235.91L11.32,242.21L11.7,242.56L19.05,250.35L19.44,250.81L32.21,264.69L32.59,265L38.01,268.29L38.4,268.46L43.81,269.8L44.2,269.84L51.16,269.65L51.55,269.61L70.51,267.9L70.89,267.87L80.56,266.16L80.95,266.06L91.01,262.49L91.4,262.32L102.23,256.7L102.61,256.47L113.45,249.24L113.83,248.94L123.51,240.83L123.89,240.5L131.63,234.89L132.02,234.69L137.05,232.89L137.43,232.82L144.01,232.4L144.4,232.39L151.36,231.72L151.75,231.63L158.71,229.05L159.1,228.87L167.22,225.98L167.61,225.92L172.25,225.97L172.64,226.04L177.28,227.69L177.67,227.89L192.75,235.66L193.14,235.72L197.4,235.67L197.78,235.6L202.81,233.7L203.2,233.49L210.55,228.71L210.94,228.45L217.9,224.58L218.29,224.45L222.54,223.8L222.93,223.83L226.8,224.87L227.18,225.05L231.44,227.84L231.83,228.15L245.37,239.11L245.75,239.3L250.78,240.71L251.17,240.75L256.97,240.34L257.36,240.27L274.77,237.32L275.15,237.3L283.67,237.81L284.05,237.88L292.18,240.05L292.56,240.17L300.3,241.67L300.69,241.68L306.1,240.82L306.49,240.7L320.8,236.09L321.19,236.1L325.83,236.93L326.22,237.06L333.96,240.6L334.34,240.79L342.08,243.8L342.47,243.9L349.43,244.84L349.82,244.85L371.1,245L371.48,245.06L383.09,246.18L383.48,246.16L393.15,244.92L393.53,244.87L400.88,244.87L401.27,244.92L419.84,247.69L420.23,247.65L425.64,246.38L426.03,246.23L431.83,243.23L432.22,242.97L438.41,238.02L438.8,237.66L448.08,227.87L448.47,227.45L455.82,220.17L456.2,219.86L461.62,216.61L462.01,216.47L466.65,215.67L467.04,215.68L471.68,216.59L472.07,216.72L478.64,219.9L479.03,220.12L491.8,226.61L492.18,226.73L497.6,227.35L497.99,227.33L503.79,226.02L504.18,225.89L514.62,222.84L515.01,222.8L520.81,223.07L521.2,223.13L535.9,225.15L536.28,225.16L545.96,226.34L546.34,226.44L555.24,229.48L555.63,229.62L566.07,232.94L566.46,233.03L575.74,234.67L576.13,234.71L580,234.89" style="vector-effect: none; fill: none; stroke: rgb(171, 99, 250); stroke-opacity: 1; stroke-width: 0px; opacity: 1;"/></g><g class="points"/><g class="text"/></g><g class="trace scatter trace0fae42" style="stroke-miterlimit: 2;"><g class="fills"/><g class="errorbars"/><g class="lines"><path class="js-line" d="M-193.33,70.62L-182.11,70.29L-181.73,70.98L-177.47,85.32L-177.09,87.26L-169.35,142.58L-168.96,145.81L-160.84,207.4L-160.45,209.73L-151.94,243.38L-151.55,244.19L-148.46,249.03L-148.07,249.46L-141.49,252.79L-141.11,252.83L-129.11,251.29L-128.73,251.2L-94.68,244.97L-94.3,245L-73.41,245.99L-73.02,245.95L-54.45,242.63L-54.06,242.53L-38.59,239.26L-38.2,239.27L-32.4,240.64L-32.01,240.81L-25.82,245.02L-25.44,245.35L-6.09,262L-5.71,262.23L11.32,272.87L11.7,273.22L17.51,279.35L17.89,279.82L32.21,296.21L32.59,296.52L37.62,299.44L38.01,299.59L43.43,300.67L43.81,300.69L50,300.3L50.39,300.24L82.5,294.58L82.88,294.46L92.56,290.7L92.94,290.52L103.39,284.9L103.78,284.68L121.18,273.28L121.57,273L133.18,265.57L133.56,265.4L139.75,263.46L140.14,263.39L155.23,260.22L155.61,260.08L167.22,256.32L167.61,256.28L172.64,256.55L173.02,256.64L178.44,258.74L178.83,258.94L191.59,265.31L191.98,265.4L196.62,265.5L197.01,265.43L201.26,263.91L201.65,263.71L208.23,259.32L208.61,259.03L217.13,253.6L217.51,253.45L221.77,252.56L222.15,252.56L226.02,253.38L226.41,253.54L230.67,256.1L231.05,256.39L246.14,268.14L246.53,268.3L251.17,269.43L251.56,269.45L257.36,269.04L257.75,268.97L273.22,266.77L273.61,266.76L282.5,267.49L282.89,267.56L292.56,270.27L292.95,270.39L300.3,271.91L300.69,271.93L306.49,271.18L306.88,271.07L320.03,267.32L320.42,267.31L325.45,267.98L325.83,268.08L334.73,271.34L335.12,271.48L342.08,273.27L342.47,273.33L349.43,273.52L349.82,273.49L368.77,272.41L369.16,272.45L387.34,273.86L387.73,273.83L402.04,273.76L402.43,273.81L419.07,275.63L419.45,275.59L425.64,274.09L426.03,273.94L432.22,270.63L432.61,270.37L439.96,264.31L440.34,263.94L456.59,249.01L456.98,248.77L462.01,246.6L462.39,246.51L467.04,246.16L467.42,246.19L472.84,247.41L473.23,247.54L482.51,251.71L482.9,251.9L491.41,255.37L491.8,255.47L496.83,256.06L497.21,256.05L503.01,255.07L503.4,254.96L514.62,252.48L515.01,252.47L521.58,253.04L521.97,253.1L534.35,254.63L534.74,254.63L547.12,255.68L547.5,255.77L558.72,259.4L559.11,259.53L574.58,263.97L574.97,264.04L580,264.51" style="vector-effect: none; fill: none; stroke: rgb(255, 161, 90); stroke-opacity: 1; stroke-width: 0px; opacity: 1;"/></g><g class="points"/><g class="text"/></g><g class="trace scatter trace7514ee" style="stroke-miterlimit: 2; opacity: 1;"><g class="fills"/><g class="errorbars"/><g class="lines"><path class="js-line" d="M-193.33,44.47L-182.5,44.33L-182.11,45.01L-177.47,61.38L-177.09,63.46L-168.96,125.4L-168.57,128.79L-161.61,184.23L-161.22,186.77L-156.19,212.87L-155.81,214.36L-150.01,229.11L-149.62,229.67L-143.04,234.33L-142.65,234.4L-132.98,233.42L-132.6,233.31L-115.19,226.35L-114.8,226.16L-98.55,220.3L-98.17,220.25L-85.01,220.75L-84.63,220.8L-59.48,221.86L-59.09,221.83L-37.04,220.12L-36.65,220.21L-30.47,223.13L-30.08,223.4L-23.11,229.68L-22.73,230.08L-8.41,244.05L-8.03,244.34L1.26,250.36L1.64,250.59L9.77,256.2L10.16,256.53L17.12,263.51L17.51,263.96L32.21,280.45L32.59,280.76L38.01,283.94L38.4,284.09L43.43,285.22L43.81,285.25L51.16,284.89L51.55,284.83L81.34,280.44L81.72,280.32L91.01,276.95L91.4,276.78L104.55,269.76L104.94,269.52L118.86,259.89L119.25,259.59L132.4,250.22L132.79,250.03L138.59,248.17L138.98,248.11L155.23,245.37L155.61,245.23L167.99,241.06L168.38,241.02L173.41,241.48L173.8,241.58L179.6,244.15L179.99,244.38L191.21,250.25L191.59,250.35L196.23,250.69L196.62,250.64L201.26,249.18L201.65,249L208.23,244.82L208.61,244.54L217.13,239.24L217.51,239.09L221.77,238.18L222.15,238.18L226.02,238.96L226.41,239.12L231.05,241.96L231.44,242.27L246.14,253.81L246.53,253.97L251.17,255.09L251.56,255.11L256.97,254.72L257.36,254.65L274.77,252.04L275.15,252.03L283.67,252.77L284.05,252.84L293.72,255.57L294.11,255.68L300.69,256.8L301.07,256.8L306.1,256.05L306.49,255.94L320.8,251.7L321.19,251.71L325.83,252.51L326.22,252.63L333.57,255.66L333.96,255.83L341.31,258.37L341.69,258.45L347.88,259.17L348.27,259.18L359.1,258.44L359.49,258.41L368,258.46L368.39,258.5L385.8,259.95L386.18,259.92L401.27,259.29L401.66,259.34L419.07,261.69L419.45,261.66L425.26,260.37L425.64,260.23L431.06,257.55L431.45,257.31L438.41,251.88L438.8,251.53L458.14,233.28L458.53,233.06L463.17,231.23L463.56,231.15L468.2,231.03L468.58,231.08L474.39,232.82L474.77,232.99L485.22,238.36L485.61,238.56L492.57,241.24L492.96,241.33L498.37,241.63L498.76,241.59L504.95,240.06L505.34,239.94L514.23,237.69L514.62,237.66L521.2,238.05L521.58,238.12L537.06,239.94L537.45,239.95L547.12,241.17L547.5,241.27L557.18,244.52L557.56,244.66L569.94,248.36L570.33,248.44L578.84,249.67L579.23,249.69L580,249.7" style="vector-effect: none; fill: none; stroke: rgb(148, 0, 211); stroke-opacity: 1; stroke-width: 3px; opacity: 1;"/></g><g class="points"/><g class="text"/></g></g></g></g><g class="zerolinelayer-above"/><path class="xlines-above crisp" d="M79,420.5H661M79,99.5H661" style="fill: none; stroke-width: 1px; stroke: rgb(0, 0, 0); stroke-opacity: 1;"/><path class="ylines-above crisp" d="M79.5,100V420M660.5,100V420" style="fill: none; stroke-width: 1px; stroke: rgb(0, 0, 0); stroke-opacity: 1;"/><g class="overlines-above"/><g class="xaxislayer-above"><path class="xtick ticks crisp" d="M0,421v5" transform="translate(118.67,0)" style="stroke: rgb(68, 68, 68); stroke-opacity: 1; stroke-width: 1px;"/><path class="xtick ticks crisp" d="M0,421v5" transform="translate(196,0)" style="stroke: rgb(68, 68, 68); stroke-opacity: 1; stroke-width: 1px;"/><path class="xtick ticks crisp" d="M0,421v5" transform="translate(273.33000000000004,0)" style="stroke: rgb(68, 68, 68); stroke-opacity: 1; stroke-width: 1px;"/><path class="xtick ticks crisp" d="M0,421v5" transform="translate(350.67,0)" style="stroke: rgb(68, 68, 68); stroke-opacity: 1; stroke-width: 1px;"/><path class="xtick ticks crisp" d="M0,421v5" transform="translate(428,0)" style="stroke: rgb(68, 68, 68); stroke-opacity: 1; stroke-width: 1px;"/><path class="xtick ticks crisp" d="M0,421v5" transform="translate(505.33,0)" style="stroke: rgb(68, 68, 68); stroke-opacity: 1; stroke-width: 1px;"/><path class="xtick ticks crisp" d="M0,421v5" transform="translate(582.6700000000001,0)" style="stroke: rgb(68, 68, 68); stroke-opacity: 1; stroke-width: 1px;"/><path class="xtick ticks crisp" d="M0,421v5" transform="translate(660,0)" style="stroke: rgb(68, 68, 68); stroke-opacity: 1; stroke-width: 1px;"/><g class="xtick"><text text-anchor="middle" x="0" y="440.4" transform="translate(118.67,0)" style="font-family: 'Open Sans', verdana, arial, sans-serif; font-size: 12px; fill: rgb(42, 63, 95); fill-opacity: 1; white-space: pre;">−400</text></g><g class="xtick"><text text-anchor="middle" x="0" y="440.4" style="font-family: 'Open Sans', verdana, arial, sans-serif; font-size: 12px; fill: rgb(42, 63, 95); fill-opacity: 1; white-space: pre;" transform="translate(196,0)">−200</text></g><g class="xtick"><text text-anchor="middle" x="0" y="440.4" style="font-family: 'Open Sans', verdana, arial, sans-serif; font-size: 12px; fill: rgb(42, 63, 95); fill-opacity: 1; white-space: pre;" transform="translate(273.33000000000004,0)">0</text></g><g class="xtick"><text text-anchor="middle" x="0" y="440.4" style="font-family: 'Open Sans', verdana, arial, sans-serif; font-size: 12px; fill: rgb(42, 63, 95); fill-opacity: 1; white-space: pre;" transform="translate(350.67,0)">200</text></g><g class="xtick"><text text-anchor="middle" x="0" y="440.4" style="font-family: 'Open Sans', verdana, arial, sans-serif; font-size: 12px; fill: rgb(42, 63, 95); fill-opacity: 1; white-space: pre;" transform="translate(428,0)">400</text></g><g class="xtick"><text text-anchor="middle" x="0" y="440.4" style="font-family: 'Open Sans', verdana, arial, sans-serif; font-size: 12px; fill: rgb(42, 63, 95); fill-opacity: 1; white-space: pre;" transform="translate(505.33,0)">600</text></g><g class="xtick"><text text-anchor="middle" x="0" y="440.4" style="font-family: 'Open Sans', verdana, arial, sans-serif; font-size: 12px; fill: rgb(42, 63, 95); fill-opacity: 1; white-space: pre;" transform="translate(582.6700000000001,0)">800</text></g><g class="xtick"><text text-anchor="middle" x="0" y="440.4" style="font-family: 'Open Sans', verdana, arial, sans-serif; font-size: 12px; fill: rgb(42, 63, 95); fill-opacity: 1; white-space: pre;" transform="translate(660,0)">1000</text></g></g><g class="yaxislayer-above"><path class="ytick ticks crisp" d="M79,0h-5" transform="translate(0,401.32)" style="stroke: rgb(68, 68, 68); stroke-opacity: 1; stroke-width: 1px;"/><path class="ytick ticks crisp" d="M79,0h-5" transform="translate(0,360.14)" style="stroke: rgb(68, 68, 68); stroke-opacity: 1; stroke-width: 1px;"/><path class="ytick ticks crisp" d="M79,0h-5" transform="translate(0,318.96000000000004)" style="stroke: rgb(68, 68, 68); stroke-opacity: 1; stroke-width: 1px;"/><path class="ytick ticks crisp" d="M79,0h-5" transform="translate(0,277.78)" style="stroke: rgb(68, 68, 68); stroke-opacity: 1; stroke-width: 1px;"/><path class="ytick ticks crisp" d="M79,0h-5" transform="translate(0,236.6)" style="stroke: rgb(68, 68, 68); stroke-opacity: 1; stroke-width: 1px;"/><path class="ytick ticks crisp" d="M79,0h-5" transform="translate(0,195.42000000000002)" style="stroke: rgb(68, 68, 68); stroke-opacity: 1; stroke-width: 1px;"/><path class="ytick ticks crisp" d="M79,0h-5" transform="translate(0,154.24)" style="stroke: rgb(68, 68, 68); stroke-opacity: 1; stroke-width: 1px;"/><path class="ytick ticks crisp" d="M79,0h-5" transform="translate(0,113.06)" style="stroke: rgb(68, 68, 68); stroke-opacity: 1; stroke-width: 1px;"/><g class="ytick"><text text-anchor="end" x="71.6" y="4.199999999999999" transform="translate(0,401.32)" style="font-family: 'Open Sans', verdana, arial, sans-serif; font-size: 12px; fill: rgb(42, 63, 95); fill-opacity: 1; white-space: pre;">2</text></g><g class="ytick"><text text-anchor="end" x="71.6" y="4.199999999999999" style="font-family: 'Open Sans', verdana, arial, sans-serif; font-size: 12px; fill: rgb(42, 63, 95); fill-opacity: 1; white-space: pre;" transform="translate(0,360.14)">2.5</text></g><g class="ytick"><text text-anchor="end" x="71.6" y="4.199999999999999" style="font-family: 'Open Sans', verdana, arial, sans-serif; font-size: 12px; fill: rgb(42, 63, 95); fill-opacity: 1; white-space: pre;" transform="translate(0,318.96000000000004)">3</text></g><g class="ytick"><text text-anchor="end" x="71.6" y="4.199999999999999" style="font-family: 'Open Sans', verdana, arial, sans-serif; font-size: 12px; fill: rgb(42, 63, 95); fill-opacity: 1; white-space: pre;" transform="translate(0,277.78)">3.5</text></g><g class="ytick"><text text-anchor="end" x="71.6" y="4.199999999999999" style="font-family: 'Open Sans', verdana, arial, sans-serif; font-size: 12px; fill: rgb(42, 63, 95); fill-opacity: 1; white-space: pre;" transform="translate(0,236.6)">4</text></g><g class="ytick"><text text-anchor="end" x="71.6" y="4.199999999999999" style="font-family: 'Open Sans', verdana, arial, sans-serif; font-size: 12px; fill: rgb(42, 63, 95); fill-opacity: 1; white-space: pre;" transform="translate(0,195.42000000000002)">4.5</text></g><g class="ytick"><text text-anchor="end" x="71.6" y="4.199999999999999" style="font-family: 'Open Sans', verdana, arial, sans-serif; font-size: 12px; fill: rgb(42, 63, 95); fill-opacity: 1; white-space: pre;" transform="translate(0,154.24)">5</text></g><g class="ytick"><text text-anchor="end" x="71.6" y="4.199999999999999" style="font-family: 'Open Sans', verdana, arial, sans-serif; font-size: 12px; fill: rgb(42, 63, 95); fill-opacity: 1; white-space: pre;" transform="translate(0,113.06)">5.5</text></g></g><g class="overaxes-above"/></g></g><g class="polarlayer"/><g class="smithlayer"/><g class="ternarylayer"/><g class="geolayer"/><g class="funnelarealayer"/><g class="pielayer"/><g class="iciclelayer"/><g class="treemaplayer"/><g class="sunburstlayer"/><g class="glimages"/><defs id="topdefs-0bd6c5"><g class="clips"/><clipPath id="legend0bd6c5"><rect width="296" height="29" x="1" y="1"/></clipPath></defs><g class="layer-above"><g class="imagelayer"/><g class="shapelayer"><g class="shape-group" data-index="0" clip-path="url(#clip0bd6c5x)"><path data-index="0" fill-rule="evenodd" d="M273.33000000000004,420L273.33000000000004,100" style="opacity: 1; stroke: rgb(255, 0, 0); stroke-opacity: 1; fill: rgb(0, 0, 0); fill-opacity: 0; stroke-dasharray: 9px, 9px; stroke-width: 2px;"/></g></g></g><g class="infolayer"><g class="legend" pointer-events="all" transform="translate(362,62.599999999999994)"><rect class="bg" shape-rendering="crispEdges" style="stroke: rgb(0, 0, 0); stroke-opacity: 1; fill: rgb(255, 255, 255); fill-opacity: 0.8; stroke-width: 1px;" width="297" height="30" x="0.5" y="0.5"/><g class="scrollbox" transform="" clip-path="url(#legend0bd6c5)"><g class="groups" transform=""><g class="traces" transform="translate(0,15.5)" style="opacity: 1;"><text class="legendtext" text-anchor="start" x="40" y="4.680000000000001" style="font-family: 'Open Sans', verdana, arial, sans-serif; font-size: 12px; fill: rgb(42, 63, 95); fill-opacity: 1; white-space: pre;">Standard (AAAB)</text><g class="layers" style="opacity: 1;"><g class="legendfill"/><g class="legendlines"><path class="js-line" d="M5,0h30" style="fill: none; stroke: rgb(207, 184, 124); stroke-opacity: 1; stroke-width: 3px;"/></g><g class="legendsymbols"><g class="legendpoints"/></g></g><rect class="legendtoggle" x="0" y="-9.5" width="145.46875" height="19" style="fill: rgb(0, 0, 0); fill-opacity: 0;"/></g></g><g class="groups" transform="translate(147.96875,0)"><g class="traces" transform="translate(0,15.5)" style="opacity: 1;"><text class="legendtext" text-anchor="start" x="40" y="4.680000000000001" style="font-family: 'Open Sans', verdana, arial, sans-serif; font-size: 12px; fill: rgb(42, 63, 95); fill-opacity: 1; white-space: pre;">Omission (AXAB)</text><g class="layers" style="opacity: 1;"><g class="legendfill"/><g class="legendlines"><path class="js-line" d="M5,0h30" style="fill: none; stroke: rgb(148, 0, 211); stroke-opacity: 1; stroke-width: 3px;"/></g><g class="legendsymbols"><g class="legendpoints"/></g></g><rect class="legendtoggle" x="0" y="-9.5" width="145.5546875" height="19" style="fill: rgb(0, 0, 0); fill-opacity: 0;"/></g></g></g><rect class="scrollbar" rx="20" ry="3" width="0" height="0" style="fill: rgb(128, 139, 164); fill-opacity: 1;" x="0" y="0"/></g><g class="g-gtitle"><text class="gtitle" x="350" y="50" text-anchor="middle" dy="0em" style="opacity: 1; font-family: Arial; font-size: 18px; fill: rgb(0, 0, 0); fill-opacity: 1; white-space: pre;"><tspan class="line" dy="0em" x="350" y="50"><tspan style="font-weight:bold">Figure f002: V2 Omission-Local PSTH</tspan></tspan><tspan class="line" dy="1.3em" x="350" y="50">​<tspan style="font-size:70%" dy="-0.6em">n=718 units | Mean ± SEM | 0ms = Omission Onset</tspan><tspan dy="0.42em">​</tspan></tspan></text></g><g class="g-xtitle"><text class="xtitle" x="370" y="467.200390625" text-anchor="middle" style="opacity: 1; font-family: 'Open Sans', verdana, arial, sans-serif; font-size: 14px; fill: rgb(42, 63, 95); fill-opacity: 1; white-space: pre;">Time from Omission (ms)</text></g><g class="g-ytitle"><text class="ytitle" transform="rotate(-90,32.574609375,260)" x="32.574609375" y="260" text-anchor="middle" style="opacity: 1; font-family: 'Open Sans', verdana, arial, sans-serif; font-size: 14px; fill: rgb(42, 63, 95); fill-opacity: 1; white-space: pre;">Firing Rate (Hz)</text></g><g class="annotation" data-index="0" style="opacity: 1;"><g class="annotation-text-g" transform="rotate(0,322.83000000000004,109.5)"><g class="cursor-pointer" transform="translate(273,100)"><rect class="bg" x="0.5" y="0.5" width="98" height="18" style="stroke-width: 1px; stroke: rgb(0, 0, 0); stroke-opacity: 0; fill: rgb(0, 0, 0); fill-opacity: 0;"/><text class="annotation-text" text-anchor="middle" x="49.23828125" y="14" style="font-family: 'Open Sans', verdana, arial, sans-serif; font-size: 12px; fill: rgb(42, 63, 95); fill-opacity: 1; white-space: pre;">Omission Onset</text></g></g></g></g></svg>