<svg class="main-svg" xmlns="http://www.w3.org/2000/svg" xmlns:xlink="http://www.w3.org/1999/xlink" width="700" height="500" style="" viewBox="0 0 700 500"><rect x="0" y="0" width="700" height="500" style="fill: rgb(255, 255, 255); fill-opacity: 1;"/><defs id="defs-68d074"><g class="clips"><clipPath id="clip68d074xyplot" class="plotclip"><rect width="580" height="320"/></clipPath><clipPath class="axesclip" id="clip68d074x"><rect x="80" y="0" width="580" height="500"/></clipPath><clipPath class="axesclip" id="clip68d074y"><rect x="0" y="100" width="700" height="320"/></clipPath><clipPath class="axesclip" id="clip68d074xy"><rect x="80" y="100" width="580" height="320"/></clipPath></g><g class="gradients"/><g class="patterns"/></defs><g class="bglayer"/><g class="layer-below"><g class="imagelayer"/><g class="shapelayer"/></g><g class="cartesianlayer"><g class="subplot xy"><g class="layer-subplot"><g class="shapelayer"/><g class="imagelayer"/></g><g class="minor-gridlayer"><g class="x"/><g class="y"/></g><g class="gridlayer"><g class="x"><path class="xgrid crisp" transform="translate(118.67,0)" d="M0,100v320" style="stroke: rgb(211, 211, 211); stroke-opacity: 1; stroke-width: 1px;"/><path class="xgrid crisp" transform="translate(196,0)" d="M0,100v320" style="stroke: rgb(211, 211, 211); stroke-opacity: 1; stroke-width: 1px;"/><path class="xgrid crisp" transform="translate(350.67,0)" d="M0,100v320" style="stroke: rgb(211, 211, 211); stroke-opacity: 1; stroke-width: 1px;"/><path class="xgrid crisp" transform="translate(428,0)" d="M0,100v320" style="stroke: rgb(211, 211, 211); stroke-opacity: 1; stroke-width: 1px;"/><path class="xgrid crisp" transform="translate(505.33,0)" d="M0,100v320" style="stroke: rgb(211, 211, 211); stroke-opacity: 1; stroke-width: 1px;"/><path class="xgrid crisp" transform="translate(582.6700000000001,0)" d="M0,100v320" style="stroke: rgb(211, 211, 211); stroke-opacity: 1; stroke-width: 1px;"/></g><g class="y"><path class="ygrid crisp" transform="translate(0,376.25)" d="M80,0h580" style="stroke: rgb(211, 211, 211); stroke-opacity: 1; stroke-width: 1px;"/><path class="ygrid crisp" transform="translate(0,332.98)" d="M80,0h580" style="stroke: rgb(211, 211, 211); stroke-opacity: 1; stroke-width: 1px;"/><path class="ygrid crisp" transform="translate(0,289.72)" d="M80,0h580" style="stroke: rgb(211, 211, 211); stroke-opacity: 1; stroke-width: 1px;"/><path class="ygrid crisp" transform="translate(0,246.45)" d="M80,0h580" style="stroke: rgb(211, 211, 211); stroke-opacity: 1; stroke-width: 1px;"/><path class="ygrid crisp" transform="translate(0,203.18)" d="M80,0h580" style="stroke: rgb(211, 211, 211); stroke-opacity: 1; stroke-width: 1px;"/><path class="ygrid crisp" transform="translate(0,159.92000000000002)" d="M80,0h580" style="stroke: rgb(211, 211, 211); stroke-opacity: 1; stroke-width: 1px;"/><path class="ygrid crisp" transform="translate(0,116.65)" d="M80,0h580" style="stroke: rgb(211, 211, 211); stroke-opacity: 1; stroke-width: 1px;"/></g></g><g class="zerolinelayer"><path class="xzl zl crisp" transform="translate(273.33000000000004,0)" d="M0,100v320" style="stroke: rgb(235, 240, 248); stroke-opacity: 1; stroke-width: 2px;"/></g><g class="layer-between"><g class="shapelayer"/><g class="imagelayer"/></g><path class="xlines-below"/><path class="ylines-below"/><g class="overlines-below"/><g class="xaxislayer-below"/><g class="yaxislayer-below"/><g class="overaxes-below"/><g class="overplot"><g class="xy" transform="translate(80,100)" clip-path="url(#clip68d074xyplot)"><g class="scatterlayer mlayer"><g class="trace scatter traced091a6" style="stroke-miterlimit: 2;"><g class="fills"><g><path class="js-fill" d="M-193.33,253.85L-187.92,257.45L-187.53,257.95L-179.41,273.83L-179.02,274.75L-164.71,301.61L-164.32,301.94L-157.74,303.82L-157.36,303.72L-150.78,298.88L-150.39,298.42L-141.49,283.61L-141.11,282.78L-132.21,257.77L-131.82,256.36L-123.31,215.43L-122.92,213.1L-113.25,146.41L-112.87,143.66L-105.9,100.08L-105.52,98.16L-99.33,77.73L-98.94,77.14L-95.46,75.37L-95.07,75.55L-91.98,79.42L-91.59,80.17L-86.17,95.67L-85.79,97.05L-63.35,181.8L-62.96,182.91L-55.22,202.01L-54.84,202.83L-46.71,218.03L-46.33,218.67L-37.82,231.08L-37.43,231.58L-26.6,244.01L-26.21,244.43L3.97,277.13L4.35,277.6L12.48,286.36L12.86,286.64L16.34,288.2L16.73,288.23L19.44,287.5L19.83,287.25L22.53,284.26L22.92,283.66L26.02,277.13L26.4,276.1L30.27,263.37L30.66,261.87L36.07,237.73L36.46,235.85L48.07,182.9L48.45,181.53L52.71,169.3L53.1,168.47L56.19,163.53L56.58,163.13L58.9,161.72L59.29,161.65L61.61,162.13L61.99,162.35L64.7,164.95L65.09,165.45L68.96,171.93L69.34,172.69L76.31,188.3L76.7,189.22L90.24,220.08L90.62,220.91L101.84,243.12L102.23,243.79L108.42,253.16L108.8,253.66L114.99,260.09L115.38,260.4L121.18,264.04L121.57,264.22L127.37,266.16L127.76,266.24L133.95,266.76L134.34,266.74L140.14,265.77L140.53,265.66L149.04,262.25L149.42,262.07L164.13,255.71L164.51,255.57L177.28,250.21L177.67,250.01L192.75,242.3L193.14,242.2L197.78,241.98L198.17,242.05L201.65,243.38L202.04,243.61L205.91,246.98L206.29,247.43L210.16,252.98L210.55,253.64L215.58,263.72L215.96,264.59L229.5,293.83L229.89,294.44L234.53,300.24L234.92,300.59L238.79,303.03L239.18,303.17L243.04,303.63L243.43,303.59L247.3,302.37L247.69,302.17L252.33,298.85L252.72,298.5L258.52,291.82L258.91,291.28L264.32,282.02L264.71,281.22L268.96,270.7L269.35,269.57L273.61,254.67L273.99,253.08L278.64,230.51L279.02,228.35L284.83,191.38L285.21,188.69L296.43,114.89L296.82,112.95L300.69,97.62L301.07,96.53L303.78,91.25L304.17,90.84L306.1,90.03L306.49,90.11L308.42,91.68L308.81,92.21L311.52,97.81L311.91,98.85L315.77,111.85L316.16,113.36L323.12,143.79L323.51,145.55L333.96,189.33L334.34,190.74L342.08,215.57L342.47,216.66L349.43,234.08L349.82,234.95L358.72,252.58L359.1,253.26L367.61,266.7L368,267.24L375.74,276.74L376.12,277.15L383.86,284.03L384.25,284.31L392.37,289.28L392.76,289.48L406.69,295.81L407.07,295.94L412.1,297L412.49,297L415.97,296.12L416.36,295.91L419.45,293.14L419.84,292.64L422.93,287.29L423.32,286.44L426.8,276.86L427.19,275.58L431.83,257.28L432.22,255.54L442.28,206.41L442.66,204.62L448.47,181.51L448.85,180.28L452.72,170.47L453.11,169.75L456.2,165.67L456.59,165.36L459.3,164.48L459.69,164.52L462.39,165.85L462.78,166.18L465.88,169.89L466.26,170.47L470.91,178.93L471.29,179.73L481.74,203.13L482.12,203.99L493.34,226.96L493.73,227.67L502.24,241.64L502.63,242.19L509.2,250.46L509.59,250.87L515.39,256L515.78,256.27L521.2,259.06L521.58,259.19L527,260.14L527.39,260.15L534.74,259.43L535.12,259.36L549.82,257.76L550.21,257.75L569.55,257.01L569.94,256.98L580,256.62L580,218.91L568.01,219.44L567.62,219.46L549.82,219.21L549.44,219.19L530.1,220.96L529.71,220.99L523.91,220.82L523.52,220.76L518.1,218.95L517.72,218.76L512.69,215.4L512.3,215.08L506.11,208.69L505.72,208.21L498.37,197.5L497.99,196.85L490.64,183.02L490.25,182.22L478.64,155.18L478.26,154.2L469.74,133.17L469.36,132.3L464.72,123.44L464.33,122.87L461.62,119.81L461.23,119.52L458.91,118.7L458.53,118.72L456.2,119.9L455.82,120.28L452.72,125.22L452.34,126.08L448.08,139.06L447.69,140.54L435.31,203.29L434.93,205.35L429.9,229.61L429.51,231.23L425.26,246.06L424.87,247.13L421.77,254L421.39,254.66L418.68,258.14L418.29,258.49L415.58,260.06L415.2,260.17L411.33,260.2L410.94,260.12L396.63,253.88L396.24,253.68L388.12,248.99L387.73,248.72L380.77,243.07L380.38,242.7L371.87,233.33L371.48,232.84L363.75,221.82L363.36,221.2L356.01,208.16L355.62,207.4L348.66,192.04L348.27,191.09L340.92,170.45L340.53,169.22L333.96,145.42L333.57,143.84L321.19,85L320.8,83.04L315,55.66L314.61,54.07L311.13,42.02L310.75,40.98L308.42,36.27L308.04,35.76L306.49,34.59L306.1,34.52L304.17,35.6L303.78,36.1L301.07,42.4L300.69,43.69L297.21,59.42L296.82,61.59L288.69,119.55L288.31,122.59L281.73,171.29L281.34,173.84L276.7,200.69L276.31,202.6L272.06,220.52L271.67,221.88L267.42,234.43L267.03,235.38L262.77,244.12L262.39,244.79L257.36,251.99L256.97,252.44L251.56,257.64L251.17,257.92L246.53,260.52L246.14,260.67L242.27,261.39L241.88,261.39L238.02,260.55L237.63,260.38L233.76,257.67L233.37,257.3L228.73,251.24L228.34,250.61L216.35,224.52L215.96,223.62L210.55,212.22L210.16,211.52L206.29,205.66L205.91,205.19L202.42,201.93L202.04,201.67L198.56,200.21L198.17,200.14L193.91,200.38L193.53,200.48L177.67,209.59L177.28,209.81L167.22,214.47L166.83,214.62L153.29,220.73L152.91,220.93L143.23,225.41L142.85,225.54L136.66,227.02L136.27,227.07L129.31,227.04L128.92,227L121.57,225.24L121.18,225.09L115.77,222.33L115.38,222.08L109.96,217.31L109.58,216.89L103.39,208.32L103,207.68L94.49,191.09L94.1,190.25L82.11,161.42L81.72,160.41L70.89,131.76L70.51,130.82L66.25,121.76L65.86,121.08L62.77,116.97L62.38,116.63L60.06,115.55L59.67,115.53L57.35,116.53L56.97,116.88L54.26,120.88L53.87,121.67L49.61,133.88L49.23,135.3L35.3,204.43L34.91,206.39L30.27,227.43L29.88,228.93L26.02,241.3L25.63,242.26L22.92,247.58L22.53,248.14L20.21,250.52L19.83,250.76L17.51,251.35L17.12,251.32L14.02,249.98L13.64,249.7L0.48,233.93L0.1,233.45L-17.7,214.14L-18.09,213.75L-32.4,198.37L-32.79,197.9L-41.68,185.38L-42.07,184.75L-51.74,166.04L-52.13,165.18L-62.19,138.74L-62.57,137.52L-83.47,49.74L-83.85,48.04L-90.04,24.94L-90.43,23.87L-93.91,17.12L-94.3,16.73L-97.39,16.65L-97.78,17.04L-103.58,34.14L-103.97,36.01L-119.06,144.06L-119.44,146.84L-125.25,183.59L-125.63,185.68L-134.14,221.35L-134.53,222.58L-143.82,245.47L-144.2,246.21L-151.94,257.55L-152.33,257.94L-158.9,261.54L-159.29,261.56L-166.25,257.9L-166.64,257.46L-180.18,229.07L-180.57,228.09L-187.92,212.68L-188.3,212.14L-193.33,208.48Z" style="fill: rgb(207, 184, 124); fill-opacity: 0.2; stroke-width: 0;"/></g></g><g class="errorbars"/><g class="lines"><path class="js-line" d="M-193.33,208.48L-188.3,212.14L-187.92,212.68L-180.57,228.09L-180.18,229.07L-166.64,257.46L-166.25,257.9L-159.29,261.56L-158.9,261.54L-152.33,257.94L-151.94,257.55L-144.2,246.21L-143.82,245.47L-134.53,222.58L-134.14,221.35L-125.63,185.68L-125.25,183.59L-119.44,146.84L-119.06,144.06L-103.97,36.01L-103.58,34.14L-97.78,17.04L-97.39,16.65L-94.3,16.73L-93.91,17.12L-90.43,23.87L-90.04,24.94L-83.85,48.04L-83.47,49.74L-62.57,137.52L-62.19,138.74L-52.13,165.18L-51.74,166.04L-42.07,184.75L-41.68,185.38L-32.79,197.9L-32.4,198.37L-18.09,213.75L-17.7,214.14L0.1,233.45L0.48,233.93L13.64,249.7L14.02,249.98L17.12,251.32L17.51,251.35L19.83,250.76L20.21,250.52L22.53,248.14L22.92,247.58L25.63,242.26L26.02,241.3L29.88,228.93L30.27,227.43L34.91,206.39L35.3,204.43L49.23,135.3L49.61,133.88L53.87,121.67L54.26,120.88L56.97,116.88L57.35,116.53L59.67,115.53L60.06,115.55L62.38,116.63L62.77,116.97L65.86,121.08L66.25,121.76L70.51,130.82L70.89,131.76L81.72,160.41L82.11,161.42L94.1,190.25L94.49,191.09L103,207.68L103.39,208.32L109.58,216.89L109.96,217.31L115.38,222.08L115.77,222.33L121.18,225.09L121.57,225.24L128.92,227L129.31,227.04L136.27,227.07L136.66,227.02L142.85,225.54L143.23,225.41L152.91,220.93L153.29,220.73L166.83,214.62L167.22,214.47L177.28,209.81L177.67,209.59L193.53,200.48L193.91,200.38L198.17,200.14L198.56,200.21L202.04,201.67L202.42,201.93L205.91,205.19L206.29,205.66L210.16,211.52L210.55,212.22L215.96,223.62L216.35,224.52L228.34,250.61L228.73,251.24L233.37,257.3L233.76,257.67L237.63,260.38L238.02,260.55L241.88,261.39L242.27,261.39L246.14,260.67L246.53,260.52L251.17,257.92L251.56,257.64L256.97,252.44L257.36,251.99L262.39,244.79L262.77,244.12L267.03,235.38L267.42,234.43L271.67,221.88L272.06,220.52L276.31,202.6L276.7,200.69L281.34,173.84L281.73,171.29L288.31,122.59L288.69,119.55L296.82,61.59L297.21,59.42L300.69,43.69L301.07,42.4L303.78,36.1L304.17,35.6L306.1,34.52L306.49,34.59L308.04,35.76L308.42,36.27L310.75,40.98L311.13,42.02L314.61,54.07L315,55.66L320.8,83.04L321.19,85L333.57,143.84L333.96,145.42L340.53,169.22L340.92,170.45L348.27,191.09L348.66,192.04L355.62,207.4L356.01,208.16L363.36,221.2L363.75,221.82L371.48,232.84L371.87,233.33L380.38,242.7L380.77,243.07L387.73,248.72L388.12,248.99L396.24,253.68L396.63,253.88L410.94,260.12L411.33,260.2L415.2,260.17L415.58,260.06L418.29,258.49L418.68,258.14L421.39,254.66L421.77,254L424.87,247.13L425.26,246.06L429.51,231.23L429.9,229.61L434.93,205.35L435.31,203.29L447.69,140.54L448.08,139.06L452.34,126.08L452.72,125.22L455.82,120.28L456.2,119.9L458.53,118.72L458.91,118.7L461.23,119.52L461.62,119.81L464.33,122.87L464.72,123.44L469.36,132.3L469.74,133.17L478.26,154.2L478.64,155.18L490.25,182.22L490.64,183.02L497.99,196.85L498.37,197.5L505.72,208.21L506.11,208.69L512.3,215.08L512.69,215.4L517.72,218.76L518.1,218.95L523.52,220.76L523.91,220.82L529.71,220.99L530.1,220.96L549.44,219.19L549.82,219.21L567.62,219.46L568.01,219.44L580,218.91" style="vector-effect: none; fill: none; stroke: rgb(99, 110, 250); stroke-opacity: 1; stroke-width: 0px; opacity: 1;"/></g><g class="points"/><g class="text"/></g><g class="trace scatter tracefd96da" style="stroke-miterlimit: 2;"><g class="fills"/><g class="errorbars"/><g class="lines"><path class="js-line" d="M-193.33,253.85L-187.92,257.45L-187.53,257.95L-179.41,273.83L-179.02,274.75L-164.71,301.61L-164.32,301.94L-157.74,303.82L-157.36,303.72L-150.78,298.88L-150.39,298.42L-141.49,283.61L-141.11,282.78L-132.21,257.77L-131.82,256.36L-123.31,215.43L-122.92,213.1L-113.25,146.41L-112.87,143.66L-105.9,100.08L-105.52,98.16L-99.33,77.73L-98.94,77.14L-95.46,75.37L-95.07,75.55L-91.98,79.42L-91.59,80.17L-86.17,95.67L-85.79,97.05L-63.35,181.8L-62.96,182.91L-55.22,202.01L-54.84,202.83L-46.71,218.03L-46.33,218.67L-37.82,231.08L-37.43,231.58L-26.6,244.01L-26.21,244.43L3.97,277.13L4.35,277.6L12.48,286.36L12.86,286.64L16.34,288.2L16.73,288.23L19.44,287.5L19.83,287.25L22.53,284.26L22.92,283.66L26.02,277.13L26.4,276.1L30.27,263.37L30.66,261.87L36.07,237.73L36.46,235.85L48.07,182.9L48.45,181.53L52.71,169.3L53.1,168.47L56.19,163.53L56.58,163.13L58.9,161.72L59.29,161.65L61.61,162.13L61.99,162.35L64.7,164.95L65.09,165.45L68.96,171.93L69.34,172.69L76.31,188.3L76.7,189.22L90.24,220.08L90.62,220.91L101.84,243.12L102.23,243.79L108.42,253.16L108.8,253.66L114.99,260.09L115.38,260.4L121.18,264.04L121.57,264.22L127.37,266.16L127.76,266.24L133.95,266.76L134.34,266.74L140.14,265.77L140.53,265.66L149.04,262.25L149.42,262.07L164.13,255.71L164.51,255.57L177.28,250.21L177.67,250.01L192.75,242.3L193.14,242.2L197.78,241.98L198.17,242.05L201.65,243.38L202.04,243.61L205.91,246.98L206.29,247.43L210.16,252.98L210.55,253.64L215.58,263.72L215.96,264.59L229.5,293.83L229.89,294.44L234.53,300.24L234.92,300.59L238.79,303.03L239.18,303.17L243.04,303.63L243.43,303.59L247.3,302.37L247.69,302.17L252.33,298.85L252.72,298.5L258.52,291.82L258.91,291.28L264.32,282.02L264.71,281.22L268.96,270.7L269.35,269.57L273.61,254.67L273.99,253.08L278.64,230.51L279.02,228.35L284.83,191.38L285.21,188.69L296.43,114.89L296.82,112.95L300.69,97.62L301.07,96.53L303.78,91.25L304.17,90.84L306.1,90.03L306.49,90.11L308.42,91.68L308.81,92.21L311.52,97.81L311.91,98.85L315.77,111.85L316.16,113.36L323.12,143.79L323.51,145.55L333.96,189.33L334.34,190.74L342.08,215.57L342.47,216.66L349.43,234.08L349.82,234.95L358.72,252.58L359.1,253.26L367.61,266.7L368,267.24L375.74,276.74L376.12,277.15L383.86,284.03L384.25,284.31L392.37,289.28L392.76,289.48L406.69,295.81L407.07,295.94L412.1,297L412.49,297L415.97,296.12L416.36,295.91L419.45,293.14L419.84,292.64L422.93,287.29L423.32,286.44L426.8,276.86L427.19,275.58L431.83,257.28L432.22,255.54L442.28,206.41L442.66,204.62L448.47,181.51L448.85,180.28L452.72,170.47L453.11,169.75L456.2,165.67L456.59,165.36L459.3,164.48L459.69,164.52L462.39,165.85L462.78,166.18L465.88,169.89L466.26,170.47L470.91,178.93L471.29,179.73L481.74,203.13L482.12,203.99L493.34,226.96L493.73,227.67L502.24,241.64L502.63,242.19L509.2,250.46L509.59,250.87L515.39,256L515.78,256.27L521.2,259.06L521.58,259.19L527,260.14L527.39,260.15L534.74,259.43L535.12,259.36L549.82,257.76L550.21,257.75L569.55,257.01L569.94,256.98L580,256.62" style="vector-effect: none; fill: none; stroke: rgb(239, 85, 59); stroke-opacity: 1; stroke-width: 0px; opacity: 1;"/></g><g class="points"/><g class="text"/></g><g class="trace scatter trace2b3efe" style="stroke-miterlimit: 2; opacity: 1;"><g class="fills"/><g class="errorbars"/><g class="lines"><path class="js-line" d="M-193.33,231.17L-187.92,235.07L-187.53,235.61L-183.66,242.56L-183.27,243.38L-163.93,281.13L-163.55,281.4L-156.97,282.35L-156.58,282.2L-149.62,276.16L-149.23,275.65L-140.33,259.6L-139.95,258.71L-131.05,231.94L-130.66,230.42L-122.15,186.77L-121.76,184.3L-113.64,125.83L-113.25,122.92L-102.81,58.7L-102.42,57.24L-97.39,46.11L-97.01,45.87L-94.3,46.43L-93.91,46.82L-90.04,54.34L-89.65,55.41L-82.3,82.7L-81.92,84.36L-63.35,158.42L-62.96,159.6L-52.9,185.11L-52.52,185.93L-41.68,205.6L-41.3,206.19L-30.85,219.77L-30.47,220.21L-12.28,239.38L-11.9,239.77L0.87,253.9L1.26,254.38L12.86,267.85L13.25,268.15L16.73,269.75L17.12,269.78L19.44,269.23L19.83,269L22.53,266.2L22.92,265.62L26.02,259.21L26.4,258.19L30.27,245.4L30.66,243.88L35.69,221.02L36.07,219.09L48.45,159.9L48.84,158.48L53.1,145.94L53.48,145.1L56.58,140.21L56.97,139.83L59.29,138.61L59.67,138.58L61.99,139.34L62.38,139.62L65.09,142.65L65.48,143.21L69.73,151.23L70.12,152.08L78.24,172.02L78.63,173L92.94,206.76L93.33,207.59L102.61,225.74L103,226.39L109.58,235.75L109.96,236.2L115.77,241.52L116.15,241.79L122.34,245.04L122.73,245.18L129.31,246.78L129.69,246.83L136.27,246.81L136.66,246.76L142.85,245.22L143.23,245.08L151.75,241.24L152.13,241.05L166.83,234.68L167.22,234.53L176.5,230.44L176.89,230.23L193.53,221.3L193.91,221.21L198.17,221.1L198.56,221.17L202.42,222.89L202.81,223.17L206.29,226.54L206.68,227.02L210.94,233.63L211.32,234.34L217.51,247.69L217.9,248.61L228.34,271.24L228.73,271.89L233.37,278.18L233.76,278.57L237.63,281.44L238.02,281.62L241.88,282.53L242.27,282.53L246.14,281.77L246.53,281.62L251.17,278.88L251.56,278.58L256.97,273.15L257.36,272.68L262.39,265.26L262.77,264.57L267.03,255.64L267.42,254.68L272.06,240.58L272.45,239.16L277.09,218.74L277.48,216.73L282.89,183.94L283.28,181.29L297.98,81.43L298.37,79.64L301.85,67.35L302.23,66.43L304.56,62.85L304.94,62.57L306.49,62.35L306.88,62.51L308.81,64.54L309.2,65.17L311.91,71.57L312.29,72.74L316.16,87.01L316.55,88.65L324.29,124.9L324.67,126.75L333.96,167.37L334.34,168.85L341.69,193.68L342.08,194.82L349.43,214L349.82,214.89L357.94,231.53L358.33,232.23L366.84,246.06L367.23,246.62L374.58,256.04L374.96,256.47L382.7,263.98L383.09,264.29L391.21,269.81L391.6,270.03L405.91,276.91L406.3,277.07L412.49,278.69L412.88,278.69L415.97,278.02L416.36,277.83L419.07,275.68L419.45,275.24L422.55,270.33L422.93,269.53L426.42,260.33L426.8,259.09L431.06,242.6L431.45,240.87L439.57,199.76L439.96,197.75L446.53,166.78L446.92,165.25L451.56,150.45L451.95,149.53L455.43,143.56L455.82,143.15L458.14,141.7L458.53,141.62L460.85,142.07L461.23,142.29L463.94,144.84L464.33,145.34L468.2,151.75L468.58,152.51L474.77,166.34L475.16,167.26L490.64,202.43L491.02,203.21L499.92,219.08L500.31,219.68L506.88,228.71L507.27,229.17L513.85,235.57L514.23,235.87L520.04,239.2L520.42,239.35L525.84,240.55L526.23,240.58L532.8,240.18L533.19,240.12L548.28,238.47L548.66,238.47L573.81,237.92L574.2,237.91L580,237.76" style="vector-effect: none; fill: none; stroke: rgb(207, 184, 124); stroke-opacity: 1; stroke-width: 3px; opacity: 1;"/></g><g class="points"/><g class="text"/></g><g class="trace scatter trace440417" style="stroke-miterlimit: 2;"><g class="fills"><g><path class="js-fill" d="M-193.33,257.25L-187.92,260.78L-187.53,261.26L-178.63,278.05L-178.25,278.9L-165.87,299.37L-165.48,299.66L-159.29,300.63L-158.9,300.48L-152.33,294.22L-151.94,293.66L-142.27,274.82L-141.88,273.93L-129.11,238.87L-128.73,237.5L-120.6,199.92L-120.22,197.67L-112.48,146.99L-112.09,144.36L-105.52,104.06L-105.13,102.13L-98.94,81.53L-98.55,80.94L-95.07,79.35L-94.68,79.58L-91.59,84.03L-91.2,84.89L-85.79,102.57L-85.4,104.15L-66.83,184.2L-66.44,185.38L-60.25,199.29L-59.87,199.86L-54.84,204.26L-54.45,204.4L-49.42,204.54L-49.03,204.46L-38.59,203.11L-38.2,203.2L-33.17,205.74L-32.79,206.04L-26.6,212.47L-26.21,212.96L-17.31,225.37L-16.93,225.95L-7.25,242.02L-6.87,242.75L0.87,259.12L1.26,260.01L11.7,282.75L12.09,283.41L15.96,288.51L16.34,288.84L19.05,290.05L19.44,290.05L21.76,289.06L22.15,288.73L24.86,284.96L25.24,284.21L28.34,276.41L28.72,275.21L32.98,259.17L33.37,257.49L44.59,203.28L44.97,201.53L50.78,179.19L51.16,178L55.42,167.78L55.8,167.11L58.9,163.25L59.29,162.95L61.99,161.88L62.38,161.86L65.09,162.61L65.48,162.83L68.96,165.78L69.34,166.2L74.76,173.34L75.15,173.91L105.32,219.14L105.71,219.83L125.05,253.4L125.44,253.98L133.56,264.56L133.95,264.96L138.59,268.48L138.98,268.66L142.46,269.48L142.85,269.49L146.72,268.64L147.1,268.49L153.29,265.02L153.68,264.78L161.03,261.11L161.42,260.97L167.99,259.45L168.38,259.39L180.76,258.21L181.15,258.21L200.88,258.19L201.26,258.11L227.57,251.28L227.96,251.13L239.56,247.33L239.95,247.26L252.72,244.11L253.1,243.93L258.91,240.44L259.29,240.17L273.22,230.96L273.61,230.78L282.5,227.35L282.89,227.22L294.11,223.94L294.5,223.88L300.69,223.63L301.07,223.66L309.58,225.28L309.97,225.38L328.54,229.45L328.93,229.51L337.83,231.59L338.21,231.74L345.56,235.36L345.95,235.57L352.91,238.54L353.3,238.63L357.56,238.8L357.94,238.74L362.58,237.06L362.97,236.85L369.93,232.28L370.32,232.03L375.74,229.34L376.12,229.23L380.38,229.01L380.77,229.08L385.02,230.8L385.41,231.04L390.83,235.25L391.21,235.6L402.43,244.74L402.82,244.98L409.01,247.76L409.39,247.88L417.13,249.52L417.52,249.58L429.9,250.46L430.29,250.46L443.05,249.76L443.44,249.7L450.4,247.92L450.79,247.78L458.53,244.05L458.91,243.84L470.91,238.15L471.29,238.02L479.03,236.39L479.42,236.35L487.15,236.44L487.54,236.5L492.57,237.97L492.96,238.15L497.6,241.32L497.99,241.67L503.01,247.41L503.4,247.93L515.39,263.55L515.78,263.87L519.26,265.75L519.65,265.84L522.74,265.76L523.13,265.64L526.61,263.74L527,263.44L531.64,258.78L532.03,258.33L542.09,245.34L542.47,244.84L557.95,225.82L558.34,225.36L568.01,214.98L568.39,214.63L574.2,210.49L574.58,210.3L579.23,208.97L579.61,208.94L580,208.93L580,155.12L576.91,155.74L576.52,155.89L571.49,159.17L571.1,159.51L557.95,174.36L557.56,174.84L532.42,204.37L532.03,204.79L526.61,210.01L526.23,210.3L522.74,212.2L522.36,212.32L518.88,212.44L518.49,212.34L514.62,210.18L514.23,209.85L505.34,199.12L504.95,198.6L499.53,192.22L499.15,191.84L494.12,187.99L493.73,187.77L487.93,185.56L487.54,185.47L480.58,184.55L480.19,184.53L473.23,185.06L472.84,185.14L459.69,189.92L459.3,190.08L451.95,192.49L451.56,192.57L443.83,193.25L443.44,193.25L425.26,192.09L424.87,192.06L412.1,192.01L411.72,192.02L405.91,191.57L405.53,191.48L400.88,189.54L400.5,189.3L393.92,183.61L393.53,183.2L386.57,175.96L386.18,175.61L382.31,172.96L381.93,172.78L378.45,172.07L378.06,172.1L374.58,173.15L374.19,173.36L366.84,179.51L366.45,179.89L361.04,184.72L360.65,185L356.78,186.98L356.39,187.09L352.53,187.28L352.14,187.21L337.44,178.85L337.05,178.64L331.25,176.38L330.86,176.29L321.19,175.61L320.8,175.61L298.75,173.5L298.37,173.47L291.79,173.62L291.4,173.68L282.5,176.1L282.12,176.24L274.38,179.79L273.99,180.02L256.97,194.66L256.58,195L251.17,198.83L250.78,199.04L227.18,207L226.8,207.11L216.74,208.87L216.35,208.92L198.56,213.9L198.17,214.01L189.27,215.42L188.88,215.46L178.05,217.22L177.67,217.3L165.67,219.28L165.29,219.32L158.71,220.59L158.32,220.72L151.75,223.86L151.36,224.08L145.56,227.01L145.17,227.14L141.69,227.63L141.3,227.6L137.82,226.43L137.43,226.2L133.18,222.37L132.79,221.91L126.99,213.45L126.6,212.8L113.45,187.84L113.06,187.07L104.16,170.09L103.78,169.41L95.65,156.5L95.26,155.93L79.79,132.67L79.4,132.05L72.44,121.39L72.05,120.86L67.8,116.11L67.41,115.79L64.32,114.16L63.93,114.09L61.22,114.5L60.83,114.71L58.13,117.26L57.74,117.79L53.87,125.57L53.48,126.6L48.84,142.46L48.45,144.06L40.72,182.08L40.33,184.15L33.37,219.31L32.98,221.02L29.11,235.75L28.72,236.96L25.63,244.8L25.24,245.54L22.92,248.87L22.53,249.24L20.21,250.41L19.83,250.43L17.51,249.62L17.12,249.34L13.25,244.51L12.86,243.85L2.8,221.02L2.42,220.06L-5.32,202.11L-5.71,201.29L-16.15,182.01L-16.54,181.36L-28.14,162.89L-28.53,162.35L-34.33,155.67L-34.72,155.34L-39.36,152.75L-39.75,152.65L-50.58,154.16L-50.97,154.23L-55.61,153.85L-56,153.67L-60.64,149.15L-61.03,148.54L-67.22,133.53L-67.6,132.26L-82.3,64.18L-82.69,62.22L-89.27,33.41L-89.65,32.12L-93.52,23.02L-93.91,22.53L-96.62,21.59L-97.01,21.83L-102.03,33.5L-102.42,35.05L-118.67,140.79L-119.06,143.21L-124.09,170.3L-124.47,172.05L-133.37,202.66L-133.76,203.71L-148.84,239.28L-149.23,240.01L-156.97,251.26L-157.36,251.61L-163.55,254.22L-163.93,254.17L-171.67,247.71L-172.06,247.11L-179.41,232.46L-179.79,231.59L-187.53,216.27L-187.92,215.73L-193.33,211.75Z" style="fill: rgb(148, 0, 211); fill-opacity: 0.2; stroke-width: 0;"/></g></g><g class="errorbars"/><g class="lines"><path class="js-line" d="M-193.33,211.75L-187.92,215.73L-187.53,216.27L-179.79,231.59L-179.41,232.46L-172.06,247.11L-171.67,247.71L-163.93,254.17L-163.55,254.22L-157.36,251.61L-156.97,251.26L-149.23,240.01L-148.84,239.28L-133.76,203.71L-133.37,202.66L-124.47,172.05L-124.09,170.3L-119.06,143.21L-118.67,140.79L-102.42,35.05L-102.03,33.5L-97.01,21.83L-96.62,21.59L-93.91,22.53L-93.52,23.02L-89.65,32.12L-89.27,33.41L-82.69,62.22L-82.3,64.18L-67.6,132.26L-67.22,133.53L-61.03,148.54L-60.64,149.15L-56,153.67L-55.61,153.85L-50.97,154.23L-50.58,154.16L-39.75,152.65L-39.36,152.75L-34.72,155.34L-34.33,155.67L-28.53,162.35L-28.14,162.89L-16.54,181.36L-16.15,182.01L-5.71,201.29L-5.32,202.11L2.42,220.06L2.8,221.02L12.86,243.85L13.25,244.51L17.12,249.34L17.51,249.62L19.83,250.43L20.21,250.41L22.53,249.24L22.92,248.87L25.24,245.54L25.63,244.8L28.72,236.96L29.11,235.75L32.98,221.02L33.37,219.31L40.33,184.15L40.72,182.08L48.45,144.06L48.84,142.46L53.48,126.6L53.87,125.57L57.74,117.79L58.13,117.26L60.83,114.71L61.22,114.5L63.93,114.09L64.32,114.16L67.41,115.79L67.8,116.11L72.05,120.86L72.44,121.39L79.4,132.05L79.79,132.67L95.26,155.93L95.65,156.5L103.78,169.41L104.16,170.09L113.06,187.07L113.45,187.84L126.6,212.8L126.99,213.45L132.79,221.91L133.18,222.37L137.43,226.2L137.82,226.43L141.3,227.6L141.69,227.63L145.17,227.14L145.56,227.01L151.36,224.08L151.75,223.86L158.32,220.72L158.71,220.59L165.29,219.32L165.67,219.28L177.67,217.3L178.05,217.22L188.88,215.46L189.27,215.42L198.17,214.01L198.56,213.9L216.35,208.92L216.74,208.87L226.8,207.11L227.18,207L250.78,199.04L251.17,198.83L256.58,195L256.97,194.66L273.99,180.02L274.38,179.79L282.12,176.24L282.5,176.1L291.4,173.68L291.79,173.62L298.37,173.47L298.75,173.5L320.8,175.61L321.19,175.61L330.86,176.29L331.25,176.38L337.05,178.64L337.44,178.85L352.14,187.21L352.53,187.28L356.39,187.09L356.78,186.98L360.65,185L361.04,184.72L366.45,179.89L366.84,179.51L374.19,173.36L374.58,173.15L378.06,172.1L378.45,172.07L381.93,172.78L382.31,172.96L386.18,175.61L386.57,175.96L393.53,183.2L393.92,183.61L400.5,189.3L400.88,189.54L405.53,191.48L405.91,191.57L411.72,192.02L412.1,192.01L424.87,192.06L425.26,192.09L443.44,193.25L443.83,193.25L451.56,192.57L451.95,192.49L459.3,190.08L459.69,189.92L472.84,185.14L473.23,185.06L480.19,184.53L480.58,184.55L487.54,185.47L487.93,185.56L493.73,187.77L494.12,187.99L499.15,191.84L499.53,192.22L504.95,198.6L505.34,199.12L514.23,209.85L514.62,210.18L518.49,212.34L518.88,212.44L522.36,212.32L522.74,212.2L526.23,210.3L526.61,210.01L532.03,204.79L532.42,204.37L557.56,174.84L557.95,174.36L571.1,159.51L571.49,159.17L576.52,155.89L576.91,155.74L580,155.12" style="vector-effect: none; fill: none; stroke: rgb(171, 99, 250); stroke-opacity: 1; stroke-width: 0px; opacity: 1;"/></g><g class="points"/><g class="text"/></g><g class="trace scatter tracee82e62" style="stroke-miterlimit: 2;"><g class="fills"/><g class="errorbars"/><g class="lines"><path class="js-line" d="M-193.33,257.25L-187.92,260.78L-187.53,261.26L-178.63,278.05L-178.25,278.9L-165.87,299.37L-165.48,299.66L-159.29,300.63L-158.9,300.48L-152.33,294.22L-151.94,293.66L-142.27,274.82L-141.88,273.93L-129.11,238.87L-128.73,237.5L-120.6,199.92L-120.22,197.67L-112.48,146.99L-112.09,144.36L-105.52,104.06L-105.13,102.13L-98.94,81.53L-98.55,80.94L-95.07,79.35L-94.68,79.58L-91.59,84.03L-91.2,84.89L-85.79,102.57L-85.4,104.15L-66.83,184.2L-66.44,185.38L-60.25,199.29L-59.87,199.86L-54.84,204.26L-54.45,204.4L-49.42,204.54L-49.03,204.46L-38.59,203.11L-38.2,203.2L-33.17,205.74L-32.79,206.04L-26.6,212.47L-26.21,212.96L-17.31,225.37L-16.93,225.95L-7.25,242.02L-6.87,242.75L0.87,259.12L1.26,260.01L11.7,282.75L12.09,283.41L15.96,288.51L16.34,288.84L19.05,290.05L19.44,290.05L21.76,289.06L22.15,288.73L24.86,284.96L25.24,284.21L28.34,276.41L28.72,275.21L32.98,259.17L33.37,257.49L44.59,203.28L44.97,201.53L50.78,179.19L51.16,178L55.42,167.78L55.8,167.11L58.9,163.25L59.29,162.95L61.99,161.88L62.38,161.86L65.09,162.61L65.48,162.83L68.96,165.78L69.34,166.2L74.76,173.34L75.15,173.91L105.32,219.14L105.71,219.83L125.05,253.4L125.44,253.98L133.56,264.56L133.95,264.96L138.59,268.48L138.98,268.66L142.46,269.48L142.85,269.49L146.72,268.64L147.1,268.49L153.29,265.02L153.68,264.78L161.03,261.11L161.42,260.97L167.99,259.45L168.38,259.39L180.76,258.21L181.15,258.21L200.88,258.19L201.26,258.11L227.57,251.28L227.96,251.13L239.56,247.33L239.95,247.26L252.72,244.11L253.1,243.93L258.91,240.44L259.29,240.17L273.22,230.96L273.61,230.78L282.5,227.35L282.89,227.22L294.11,223.94L294.5,223.88L300.69,223.63L301.07,223.66L309.58,225.28L309.97,225.38L328.54,229.45L328.93,229.51L337.83,231.59L338.21,231.74L345.56,235.36L345.95,235.57L352.91,238.54L353.3,238.63L357.56,238.8L357.94,238.74L362.58,237.06L362.97,236.85L369.93,232.28L370.32,232.03L375.74,229.34L376.12,229.23L380.38,229.01L380.77,229.08L385.02,230.8L385.41,231.04L390.83,235.25L391.21,235.6L402.43,244.74L402.82,244.98L409.01,247.76L409.39,247.88L417.13,249.52L417.52,249.58L429.9,250.46L430.29,250.46L443.05,249.76L443.44,249.7L450.4,247.92L450.79,247.78L458.53,244.05L458.91,243.84L470.91,238.15L471.29,238.02L479.03,236.39L479.42,236.35L487.15,236.44L487.54,236.5L492.57,237.97L492.96,238.15L497.6,241.32L497.99,241.67L503.01,247.41L503.4,247.93L515.39,263.55L515.78,263.87L519.26,265.75L519.65,265.84L522.74,265.76L523.13,265.64L526.61,263.74L527,263.44L531.64,258.78L532.03,258.33L542.09,245.34L542.47,244.84L557.95,225.82L558.34,225.36L568.01,214.98L568.39,214.63L574.2,210.49L574.58,210.3L579.23,208.97L579.61,208.94L580,208.93" style="vector-effect: none; fill: none; stroke: rgb(255, 161, 90); stroke-opacity: 1; stroke-width: 0px; opacity: 1;"/></g><g class="points"/><g class="text"/></g><g class="trace scatter trace170e0c" style="stroke-miterlimit: 2; opacity: 1;"><g class="fills"/><g class="errorbars"/><g class="lines"><path class="js-line" d="M-193.33,234.5L-187.92,238.25L-187.53,238.77L-183.66,245.33L-183.27,246.1L-165.87,276.46L-165.48,276.69L-159.29,276.85L-158.9,276.65L-152.33,269.8L-151.94,269.21L-141.88,249L-141.49,248.09L-127.57,208.87L-127.18,207.4L-119.44,169.32L-119.06,166.96L-112.09,119.62L-111.71,116.89L-101.65,60.04L-101.26,58.76L-96.62,50.42L-96.23,50.3L-93.52,51.87L-93.14,52.41L-89.27,61.75L-88.88,63.02L-81.92,92.86L-81.53,94.76L-66.83,159.48L-66.44,160.67L-60.64,173.92L-60.25,174.51L-55.61,178.87L-55.22,179.04L-50.58,179.44L-50.2,179.37L-38.59,178.06L-38.2,178.18L-33.17,181.25L-32.79,181.59L-26.98,188.28L-26.6,188.81L-16.15,204.57L-15.76,205.19L-6.09,222.37L-5.71,223.15L2.03,240.45L2.42,241.38L11.7,262.24L12.09,262.94L15.96,268.39L16.34,268.75L19.05,270.19L19.44,270.23L21.76,269.45L22.15,269.15L24.86,265.59L25.24,264.88L28.34,257.27L28.72,256.09L32.59,241.75L32.98,240.09L39.17,209.98L39.56,207.98L48.07,167.15L48.45,165.6L53.1,150.2L53.48,149.19L57.35,141.61L57.74,141.09L60.83,138.42L61.22,138.26L63.93,138.1L64.32,138.21L67.41,140.03L67.8,140.36L72.44,145.72L72.83,146.25L101.45,188.94L101.84,189.58L111.13,206.52L111.51,207.26L126.21,233.63L126.6,234.24L133.18,243.26L133.56,243.69L138.21,247.46L138.59,247.65L142.07,248.56L142.46,248.56L146.33,247.76L146.72,247.6L154.45,243.34L154.84,243.13L161.42,240.43L161.8,240.33L169.93,238.98L170.32,238.93L189.27,237.04L189.66,237.04L198.17,236.33L198.56,236.25L230.67,227.93L231.05,227.79L241.11,224.71L241.5,224.62L250.78,221.97L251.17,221.8L256.97,218.21L257.36,217.91L274.38,205.11L274.77,204.91L283.28,201.45L283.67,201.32L293.34,198.76L293.72,198.71L300.69,198.68L301.07,198.73L311.13,200.51L311.52,200.59L325.06,202.28L325.45,202.32L334.34,203.94L334.73,204.07L340.53,206.74L340.92,206.96L352.14,212.77L352.53,212.86L356.39,212.99L356.78,212.93L360.65,211.48L361.04,211.26L366.84,206.96L367.23,206.63L374.19,201.63L374.58,201.44L378.45,200.48L378.83,200.48L382.31,201.23L382.7,201.4L386.96,204.2L387.34,204.52L402.43,217.56L402.82,217.76L407.85,219.62L408.23,219.71L416.36,220.62L416.75,220.65L443.44,221.48L443.83,221.45L451.95,219.9L452.34,219.78L460.85,216.11L461.23,215.92L471.68,211.65L472.07,211.54L479.03,210.46L479.42,210.44L486.38,210.78L486.77,210.84L492.57,212.57L492.96,212.76L497.6,215.88L497.99,216.22L503.4,222.27L503.79,222.78L515.01,236.85L515.39,237.16L518.88,239.03L519.26,239.13L522.36,239.08L522.74,238.98L526.23,237.16L526.61,236.87L531.26,232.43L531.64,232L544.41,216.48L544.8,216.01L566.85,189.92L567.23,189.53L573.42,184.28L573.81,184.04L578.07,182.26L578.45,182.18L580,182.03" style="vector-effect: none; fill: none; stroke: rgb(148, 0, 211); stroke-opacity: 1; stroke-width: 3px; opacity: 1;"/></g><g class="points"/><g class="text"/></g></g></g></g><g class="zerolinelayer-above"/><path class="xlines-above crisp" d="M79,420.5H661M79,99.5H661" style="fill: none; stroke-width: 1px; stroke: rgb(0, 0, 0); stroke-opacity: 1;"/><path class="ylines-above crisp" d="M79.5,100V420M660.5,100V420" style="fill: none; stroke-width: 1px; stroke: rgb(0, 0, 0); stroke-opacity: 1;"/><g class="overlines-above"/><g class="xaxislayer-above"><path class="xtick ticks crisp" d="M0,421v5" transform="translate(118.67,0)" style="stroke: rgb(68, 68, 68); stroke-opacity: 1; stroke-width: 1px;"/><path class="xtick ticks crisp" d="M0,421v5" transform="translate(196,0)" style="stroke: rgb(68, 68, 68); stroke-opacity: 1; stroke-width: 1px;"/><path class="xtick ticks crisp" d="M0,421v5" transform="translate(273.33000000000004,0)" style="stroke: rgb(68, 68, 68); stroke-opacity: 1; stroke-width: 1px;"/><path class="xtick ticks crisp" d="M0,421v5" transform="translate(350.67,0)" style="stroke: rgb(68, 68, 68); stroke-opacity: 1; stroke-width: 1px;"/><path class="xtick ticks crisp" d="M0,421v5" transform="translate(428,0)" style="stroke: rgb(68, 68, 68); stroke-opacity: 1; stroke-width: 1px;"/><path class="xtick ticks crisp" d="M0,421v5" transform="translate(505.33,0)" style="stroke: rgb(68, 68, 68); stroke-opacity: 1; stroke-width: 1px;"/><path class="xtick ticks crisp" d="M0,421v5" transform="translate(582.6700000000001,0)" style="stroke: rgb(68, 68, 68); stroke-opacity: 1; stroke-width: 1px;"/><path class="xtick ticks crisp" d="M0,421v5" transform="translate(660,0)" style="stroke: rgb(68, 68, 68); stroke-opacity: 1; stroke-width: 1px;"/><g class="xtick"><text text-anchor="middle" x="0" y="440.4" transform="translate(118.67,0)" style="font-family: 'Open Sans', verdana, arial, sans-serif; font-size: 12px; fill: rgb(42, 63, 95); fill-opacity: 1; white-space: pre;">−400</text></g><g class="xtick"><text text-anchor="middle" x="0" y="440.4" style="font-family: 'Open Sans', verdana, arial, sans-serif; font-size: 12px; fill: rgb(42, 63, 95); fill-opacity: 1; white-space: pre;" transform="translate(196,0)">−200</text></g><g class="xtick"><text text-anchor="middle" x="0" y="440.4" style="font-family: 'Open Sans', verdana, arial, sans-serif; font-size: 12px; fill: rgb(42, 63, 95); fill-opacity: 1; white-space: pre;" transform="translate(273.33000000000004,0)">0</text></g><g class="xtick"><text text-anchor="middle" x="0" y="440.4" style="font-family: 'Open Sans', verdana, arial, sans-serif; font-size: 12px; fill: rgb(42, 63, 95); fill-opacity: 1; white-space: pre;" transform="translate(350.67,0)">200</text></g><g class="xtick"><text text-anchor="middle" x="0" y="440.4" style="font-family: 'Open Sans', verdana, arial, sans-serif; font-size: 12px; fill: rgb(42, 63, 95); fill-opacity: 1; white-space: pre;" transform="translate(428,0)">400</text></g><g class="xtick"><text text-anchor="middle" x="0" y="440.4" style="font-family: 'Open Sans', verdana, arial, sans-serif; font-size: 12px; fill: rgb(42, 63, 95); fill-opacity: 1; white-space: pre;" transform="translate(505.33,0)">600</text></g><g class="xtick"><text text-anchor="middle" x="0" y="440.4" style="font-family: 'Open Sans', verdana, arial, sans-serif; font-size: 12px; fill: rgb(42, 63, 95); fill-opacity: 1; white-space: pre;" transform="translate(582.6700000000001,0)">800</text></g><g class="xtick"><text text-anchor="middle" x="0" y="440.4" style="font-family: 'Open Sans', verdana, arial, sans-serif; font-size: 12px; fill: rgb(42, 63, 95); fill-opacity: 1; white-space: pre;" transform="translate(660,0)">1000</text></g></g><g class="yaxislayer-above"><path class="ytick ticks crisp" d="M79,0h-5" transform="translate(0,419.52)" style="stroke: rgb(68, 68, 68); stroke-opacity: 1; stroke-width: 1px;"/><path class="ytick ticks crisp" d="M79,0h-5" transform="translate(0,376.25)" style="stroke: rgb(68, 68, 68); stroke-opacity: 1; stroke-width: 1px;"/><path class="ytick ticks crisp" d="M79,0h-5" transform="translate(0,332.98)" style="stroke: rgb(68, 68, 68); stroke-opacity: 1; stroke-width: 1px;"/><path class="ytick ticks crisp" d="M79,0h-5" transform="translate(0,289.72)" style="stroke: rgb(68, 68, 68); stroke-opacity: 1; stroke-width: 1px;"/><path class="ytick ticks crisp" d="M79,0h-5" transform="translate(0,246.45)" style="stroke: rgb(68, 68, 68); stroke-opacity: 1; stroke-width: 1px;"/><path class="ytick ticks crisp" d="M79,0h-5" transform="translate(0,203.18)" style="stroke: rgb(68, 68, 68); stroke-opacity: 1; stroke-width: 1px;"/><path class="ytick ticks crisp" d="M79,0h-5" transform="translate(0,159.92000000000002)" style="stroke: rgb(68, 68, 68); stroke-opacity: 1; stroke-width: 1px;"/><path class="ytick ticks crisp" d="M79,0h-5" transform="translate(0,116.65)" style="stroke: rgb(68, 68, 68); stroke-opacity: 1; stroke-width: 1px;"/><g class="ytick"><text text-anchor="end" x="71.6" y="4.199999999999999" transform="translate(0,419.52)" style="font-family: 'Open Sans', verdana, arial, sans-serif; font-size: 12px; fill: rgb(42, 63, 95); fill-opacity: 1; white-space: pre;">4</text></g><g class="ytick"><text text-anchor="end" x="71.6" y="4.199999999999999" style="font-family: 'Open Sans', verdana, arial, sans-serif; font-size: 12px; fill: rgb(42, 63, 95); fill-opacity: 1; white-space: pre;" transform="translate(0,376.25)">5</text></g><g class="ytick"><text text-anchor="end" x="71.6" y="4.199999999999999" style="font-family: 'Open Sans', verdana, arial, sans-serif; font-size: 12px; fill: rgb(42, 63, 95); fill-opacity: 1; white-space: pre;" transform="translate(0,332.98)">6</text></g><g class="ytick"><text text-anchor="end" x="71.6" y="4.199999999999999" style="font-family: 'Open Sans', verdana, arial, sans-serif; font-size: 12px; fill: rgb(42, 63, 95); fill-opacity: 1; white-space: pre;" transform="translate(0,289.72)">7</text></g><g class="ytick"><text text-anchor="end" x="71.6" y="4.199999999999999" style="font-family: 'Open Sans', verdana, arial, sans-serif; font-size: 12px; fill: rgb(42, 63, 95); fill-opacity: 1; white-space: pre;" transform="translate(0,246.45)">8</text></g><g class="ytick"><text text-anchor="end" x="71.6" y="4.199999999999999" style="font-family: 'Open Sans', verdana, arial, sans-serif; font-size: 12px; fill: rgb(42, 63, 95); fill-opacity: 1; white-space: pre;" transform="translate(0,203.18)">9</text></g><g class="ytick"><text text-anchor="end" x="71.6" y="4.199999999999999" style="font-family: 'Open Sans', verdana, arial, sans-serif; font-size: 12px; fill: rgb(42, 63, 95); fill-opacity: 1; white-space: pre;" transform="translate(0,159.92000000000002)">10</text></g><g class="ytick"><text text-anchor="end" x="71.6" y="4.199999999999999" style="font-family: 'Open Sans', verdana, arial, sans-serif; font-size: 12px; fill: rgb(42, 63, 95); fill-opacity: 1; white-space: pre;" transform="translate(0,116.65)">11</text></g></g><g class="overaxes-above"/></g></g><g class="polarlayer"/><g class="smithlayer"/><g class="ternarylayer"/><g class="geolayer"/><g class="funnelarealayer"/><g class="pielayer"/><g class="iciclelayer"/><g class="treemaplayer"/><g class="sunburstlayer"/><g class="glimages"/><defs id="topdefs-68d074"><g class="clips"/><clipPath id="legend68d074"><rect width="296" height="29" x="1" y="1"/></clipPath></defs><g class="layer-above"><g class="imagelayer"/><g class="shapelayer"><g class="shape-group" data-index="0" clip-path="url(#clip68d074x)"><path data-index="0" fill-rule="evenodd" d="M273.33000000000004,420L273.33000000000004,100" style="opacity: 1; stroke: rgb(255, 0, 0); stroke-opacity: 1; fill: rgb(0, 0, 0); fill-opacity: 0; stroke-dasharray: 9px, 9px; stroke-width: 2px;"/></g></g></g><g class="infolayer"><g class="legend" pointer-events="all" transform="translate(362,62.599999999999994)"><rect class="bg" shape-rendering="crispEdges" style="stroke: rgb(0, 0, 0); stroke-opacity: 1; fill: rgb(255, 255, 255); fill-opacity: 0.8; stroke-width: 1px;" width="297" height="30" x="0.5" y="0.5"/><g class="scrollbox" transform="" clip-path="url(#legend68d074)"><g class="groups" transform=""><g class="traces" transform="translate(0,15.5)" style="opacity: 1;"><text class="legendtext" text-anchor="start" x="40" y="4.680000000000001" style="font-family: 'Open Sans', verdana, arial, sans-serif; font-size: 12px; fill: rgb(42, 63, 95); fill-opacity: 1; white-space: pre;">Standard (AAAB)</text><g class="layers" style="opacity: 1;"><g class="legendfill"/><g class="legendlines"><path class="js-line" d="M5,0h30" style="fill: none; stroke: rgb(207, 184, 124); stroke-opacity: 1; stroke-width: 3px;"/></g><g class="legendsymbols"><g class="legendpoints"/></g></g><rect class="legendtoggle" x="0" y="-9.5" width="145.46875" height="19" style="fill: rgb(0, 0, 0); fill-opacity: 0;"/></g></g><g class="groups" transform="translate(147.96875,0)"><g class="traces" transform="translate(0,15.5)" style="opacity: 1;"><text class="legendtext" text-anchor="start" x="40" y="4.680000000000001" style="font-family: 'Open Sans', verdana, arial, sans-serif; font-size: 12px; fill: rgb(42, 63, 95); fill-opacity: 1; white-space: pre;">Omission (AXAB)</text><g class="layers" style="opacity: 1;"><g class="legendfill"/><g class="legendlines"><path class="js-line" d="M5,0h30" style="fill: none; stroke: rgb(148, 0, 211); stroke-opacity: 1; stroke-width: 3px;"/></g><g class="legendsymbols"><g class="legendpoints"/></g></g><rect class="legendtoggle" x="0" y="-9.5" width="145.5546875" height="19" style="fill: rgb(0, 0, 0); fill-opacity: 0;"/></g></g></g><rect class="scrollbar" rx="20" ry="3" width="0" height="0" style="fill: rgb(128, 139, 164); fill-opacity: 1;" x="0" y="0"/></g><g class="g-gtitle"><text class="gtitle" x="350" y="50" text-anchor="middle" dy="0em" style="opacity: 1; font-family: Arial; font-size: 18px; fill: rgb(0, 0, 0); fill-opacity: 1; white-space: pre;"><tspan class="line" dy="0em" x="350" y="50"><tspan style="font-weight:bold">Figure f002: FST Omission-Local PSTH</tspan></tspan><tspan class="line" dy="1.3em" x="350" y="50">​<tspan style="font-size:70%" dy="-0.6em">n=85 units | Mean ± SEM | 0ms = Omission Onset</tspan><tspan dy="0.42em">​</tspan></tspan></text></g><g class="g-xtitle"><text class="xtitle" x="370" y="467.200390625" text-anchor="middle" style="opacity: 1; font-family: 'Open Sans', verdana, arial, sans-serif; font-size: 14px; fill: rgb(42, 63, 95); fill-opacity: 1; white-space: pre;">Time from Omission (ms)</text></g><g class="g-ytitle"><text class="ytitle" transform="rotate(-90,36.941796875,260)" x="36.941796875" y="260" text-anchor="middle" style="opacity: 1; font-family: 'Open Sans', verdana, arial, sans-serif; font-size: 14px; fill: rgb(42, 63, 95); fill-opacity: 1; white-space: pre;">Firing Rate (Hz)</text></g><g class="annotation" data-index="0" style="opacity: 1;"><g class="annotation-text-g" transform="rotate(0,322.83000000000004,109.5)"><g class="cursor-pointer" transform="translate(273,100)"><rect class="bg" x="0.5" y="0.5" width="98" height="18" style="stroke-width: 1px; stroke: rgb(0, 0, 0); stroke-opacity: 0; fill: rgb(0, 0, 0); fill-opacity: 0;"/><text class="annotation-text" text-anchor="middle" x="49.23828125" y="14" style="font-family: 'Open Sans', verdana, arial, sans-serif; font-size: 12px; fill: rgb(42, 63, 95); fill-opacity: 1; white-space: pre;">Omission Onset</text></g></g></g></g></svg>