<svg class="main-svg" xmlns="http://www.w3.org/2000/svg" xmlns:xlink="http://www.w3.org/1999/xlink" width="700" height="500" style="" viewBox="0 0 700 500"><rect x="0" y="0" width="700" height="500" style="fill: rgb(255, 255, 255); fill-opacity: 1;"/><defs id="defs-94d3c8"><g class="clips"><clipPath id="clip94d3c8xyplot" class="plotclip"><rect width="580" height="320"/></clipPath><clipPath class="axesclip" id="clip94d3c8x"><rect x="80" y="0" width="580" height="500"/></clipPath><clipPath class="axesclip" id="clip94d3c8y"><rect x="0" y="100" width="700" height="320"/></clipPath><clipPath class="axesclip" id="clip94d3c8xy"><rect x="80" y="100" width="580" height="320"/></clipPath></g><g class="gradients"/><g class="patterns"/></defs><g class="bglayer"/><g class="layer-below"><g class="imagelayer"/><g class="shapelayer"/></g><g class="cartesianlayer"><g class="subplot xy"><g class="layer-subplot"><g class="shapelayer"/><g class="imagelayer"/></g><g class="minor-gridlayer"><g class="x"/><g class="y"/></g><g class="gridlayer"><g class="x"><path class="xgrid crisp" transform="translate(141.05,0)" d="M0,100v320" style="stroke: rgb(211, 211, 211); stroke-opacity: 1; stroke-width: 1px;"/><path class="xgrid crisp" transform="translate(217.37,0)" d="M0,100v320" style="stroke: rgb(211, 211, 211); stroke-opacity: 1; stroke-width: 1px;"/><path class="xgrid crisp" transform="translate(293.68,0)" d="M0,100v320" style="stroke: rgb(211, 211, 211); stroke-opacity: 1; stroke-width: 1px;"/><path class="xgrid crisp" transform="translate(446.32,0)" d="M0,100v320" style="stroke: rgb(211, 211, 211); stroke-opacity: 1; stroke-width: 1px;"/><path class="xgrid crisp" transform="translate(522.63,0)" d="M0,100v320" style="stroke: rgb(211, 211, 211); stroke-opacity: 1; stroke-width: 1px;"/><path class="xgrid crisp" transform="translate(598.95,0)" d="M0,100v320" style="stroke: rgb(211, 211, 211); stroke-opacity: 1; stroke-width: 1px;"/></g><g class="y"><path class="ygrid crisp" transform="translate(0,385.14)" d="M80,0h580" style="stroke: rgb(211, 211, 211); stroke-opacity: 1; stroke-width: 1px;"/><path class="ygrid crisp" transform="translate(0,349.35)" d="M80,0h580" style="stroke: rgb(211, 211, 211); stroke-opacity: 1; stroke-width: 1px;"/><path class="ygrid crisp" transform="translate(0,313.56)" d="M80,0h580" style="stroke: rgb(211, 211, 211); stroke-opacity: 1; stroke-width: 1px;"/><path class="ygrid crisp" transform="translate(0,277.77)" d="M80,0h580" style="stroke: rgb(211, 211, 211); stroke-opacity: 1; stroke-width: 1px;"/><path class="ygrid crisp" transform="translate(0,241.98)" d="M80,0h580" style="stroke: rgb(211, 211, 211); stroke-opacity: 1; stroke-width: 1px;"/><path class="ygrid crisp" transform="translate(0,206.19)" d="M80,0h580" style="stroke: rgb(211, 211, 211); stroke-opacity: 1; stroke-width: 1px;"/><path class="ygrid crisp" transform="translate(0,170.39)" d="M80,0h580" style="stroke: rgb(211, 211, 211); stroke-opacity: 1; stroke-width: 1px;"/><path class="ygrid crisp" transform="translate(0,134.6)" d="M80,0h580" style="stroke: rgb(211, 211, 211); stroke-opacity: 1; stroke-width: 1px;"/></g></g><g class="zerolinelayer"><path class="xzl zl crisp" transform="translate(370,0)" d="M0,100v320" style="stroke: rgb(235, 240, 248); stroke-opacity: 1; stroke-width: 2px;"/></g><g class="layer-between"><g class="shapelayer"/><g class="imagelayer"/></g><path class="xlines-below"/><path class="ylines-below"/><g class="overlines-below"/><g class="xaxislayer-below"/><g class="yaxislayer-below"/><g class="overaxes-below"/><g class="overplot"><g class="xy" transform="translate(80,100)" clip-path="url(#clip94d3c8xyplot)"><g class="scatterlayer mlayer"><g class="trace scatter tracea0c3d8" style="stroke-miterlimit: 2;"><g class="fills"><g><path class="js-fill" d="M0,226.97L7.63,217.64L15.26,216.2L22.89,210.06L30.53,201.21L38.16,194.9L45.79,193.16L53.42,195.58L61.05,201.33L68.68,211.29L76.32,218.07L83.95,223.78L91.58,219.91L99.21,218.16L106.84,222.16L122.11,214.53L129.74,214.21L137.37,222.97L145,224.74L152.63,228.58L160.26,233.62L167.89,225.87L175.53,214.22L183.16,209.34L190.79,208.26L198.42,200.63L206.05,203L213.68,212.45L221.32,225.8L228.95,233.86L236.58,229.52L251.84,219.83L259.47,211.21L267.11,211L274.74,205.96L290,210.83L297.63,221.94L305.26,235.56L312.89,253.71L320.53,262.39L328.16,238.46L335.79,235.03L343.42,261.67L351.05,293.73L358.68,294.63L366.32,275.21L373.95,266.33L381.58,261.28L389.21,263.62L396.84,259.89L404.47,263.5L412.11,268.02L419.74,274.07L427.37,278.63L435,279.03L442.63,275.44L450.26,270.98L465.53,275.92L473.16,277.89L488.42,282.01L496.05,281.47L503.68,274.96L511.32,277.62L518.95,279.5L526.58,280.14L534.21,281.21L541.84,285.8L549.47,292.64L557.11,292.64L564.74,293.67L572.37,304L580,303.69L580,293.06L572.37,293.02L564.74,282.38L557.11,281.39L549.47,282.26L541.84,274.98L534.21,270.09L526.58,269.59L518.95,268.85L511.32,266.99L503.68,263.93L496.05,271.37L488.42,272.04L480.79,269.74L473.16,268.15L457.89,263.92L450.26,260.53L442.63,264.98L435,268.23L427.37,268.7L419.74,264.45L412.11,257.99L404.47,252.76L396.84,248.88L389.21,252.8L381.58,250.83L373.95,255.99L366.32,265.16L358.68,285.86L351.05,285.47L343.42,254.12L335.79,227.44L328.16,228.83L320.53,251.61L312.89,244.66L305.26,228.07L297.63,214.04L290,201.49L282.37,198.1L274.74,195.94L267.11,201.21L259.47,202.16L251.84,211.26L228.95,226.5L221.32,217.93L213.68,203.12L206.05,193.64L198.42,191.31L190.79,199.53L183.16,200.97L175.53,205.94L167.89,217.76L160.26,225.41L152.63,220.69L145,216.76L137.37,214.31L129.74,205.24L122.11,205.61L114.47,208.77L106.84,213.13L99.21,209.79L91.58,212.25L83.95,215.98L76.32,210.09L68.68,203L61.05,193.08L53.42,186.65L45.79,184L38.16,185.27L30.53,191.97L22.89,200.91L15.26,207.47L7.63,209.65L0,218.8Z" style="fill: rgb(143, 0, 255); fill-opacity: 0.2; stroke-width: 0;"/></g></g><g class="errorbars"/><g class="lines"><path class="js-line" d="M0,218.8L7.63,209.65L15.26,207.47L22.89,200.91L30.53,191.97L38.16,185.27L45.79,184L53.42,186.65L61.05,193.08L68.68,203L76.32,210.09L83.95,215.98L91.58,212.25L99.21,209.79L106.84,213.13L114.47,208.77L122.11,205.61L129.74,205.24L137.37,214.31L145,216.76L152.63,220.69L160.26,225.41L167.89,217.76L175.53,205.94L183.16,200.97L190.79,199.53L198.42,191.31L206.05,193.64L213.68,203.12L221.32,217.93L228.95,226.5L251.84,211.26L259.47,202.16L267.11,201.21L274.74,195.94L282.37,198.1L290,201.49L297.63,214.04L305.26,228.07L312.89,244.66L320.53,251.61L328.16,228.83L335.79,227.44L343.42,254.12L351.05,285.47L358.68,285.86L366.32,265.16L373.95,255.99L381.58,250.83L389.21,252.8L396.84,248.88L404.47,252.76L412.11,257.99L419.74,264.45L427.37,268.7L435,268.23L442.63,264.98L450.26,260.53L457.89,263.92L473.16,268.15L480.79,269.74L488.42,272.04L496.05,271.37L503.68,263.93L511.32,266.99L518.95,268.85L526.58,269.59L534.21,270.09L541.84,274.98L549.47,282.26L557.11,281.39L564.74,282.38L572.37,293.02L580,293.06" style="vector-effect: none; fill: none; stroke: rgb(99, 110, 250); stroke-opacity: 1; stroke-width: 0px; opacity: 1;"/></g><g class="points"/><g class="text"/></g><g class="trace scatter trace102542" style="stroke-miterlimit: 2;"><g class="fills"/><g class="errorbars"/><g class="lines"><path class="js-line" d="M0,226.97L7.63,217.64L15.26,216.2L22.89,210.06L30.53,201.21L38.16,194.9L45.79,193.16L53.42,195.58L61.05,201.33L68.68,211.29L76.32,218.07L83.95,223.78L91.58,219.91L99.21,218.16L106.84,222.16L122.11,214.53L129.74,214.21L137.37,222.97L145,224.74L152.63,228.58L160.26,233.62L167.89,225.87L175.53,214.22L183.16,209.34L190.79,208.26L198.42,200.63L206.05,203L213.68,212.45L221.32,225.8L228.95,233.86L236.58,229.52L251.84,219.83L259.47,211.21L267.11,211L274.74,205.96L290,210.83L297.63,221.94L305.26,235.56L312.89,253.71L320.53,262.39L328.16,238.46L335.79,235.03L343.42,261.67L351.05,293.73L358.68,294.63L366.32,275.21L373.95,266.33L381.58,261.28L389.21,263.62L396.84,259.89L404.47,263.5L412.11,268.02L419.74,274.07L427.37,278.63L435,279.03L442.63,275.44L450.26,270.98L465.53,275.92L473.16,277.89L488.42,282.01L496.05,281.47L503.68,274.96L511.32,277.62L518.95,279.5L526.58,280.14L534.21,281.21L541.84,285.8L549.47,292.64L557.11,292.64L564.74,293.67L572.37,304L580,303.69" style="vector-effect: none; fill: none; stroke: rgb(239, 85, 59); stroke-opacity: 1; stroke-width: 0px; opacity: 1;"/></g><g class="points"/><g class="text"/></g><g class="trace scatter trace5be85a" style="stroke-miterlimit: 2; opacity: 1;"><g class="fills"/><g class="errorbars"/><g class="lines"><path class="js-line" d="M0,222.88L7.63,213.64L15.26,211.84L22.89,205.49L30.53,196.59L38.16,190.08L45.79,188.58L53.42,191.12L61.05,197.2L68.68,207.15L76.32,214.08L83.95,219.88L91.58,216.08L99.21,213.97L106.84,217.64L114.47,213.4L122.11,210.07L129.74,209.72L137.37,218.64L145,220.75L152.63,224.63L160.26,229.51L167.89,221.81L175.53,210.08L183.16,205.16L190.79,203.89L198.42,195.97L206.05,198.32L213.68,207.79L221.32,221.87L228.95,230.18L251.84,215.54L259.47,206.69L267.11,206.11L274.74,200.95L282.37,203.09L290,206.16L297.63,217.99L305.26,231.81L312.89,249.19L320.53,257L328.16,233.64L335.79,231.23L343.42,257.89L351.05,289.6L358.68,290.24L366.32,270.19L373.95,261.16L381.58,256.06L389.21,258.21L396.84,254.38L404.47,258.13L412.11,263.01L419.74,269.26L427.37,273.66L435,273.63L442.63,270.21L450.26,265.75L457.89,268.84L488.42,277.03L496.05,276.42L503.68,269.45L511.32,272.31L518.95,274.18L526.58,274.87L534.21,275.65L541.84,280.39L549.47,287.45L557.11,287.02L564.74,288.02L572.37,298.51L580,298.38" style="vector-effect: none; fill: none; stroke: rgb(143, 0, 255); stroke-opacity: 1; stroke-width: 3px; opacity: 1;"/></g><g class="points"/><g class="text"/></g><g class="trace scatter trace0d9344" style="stroke-miterlimit: 2;"><g class="fills"><g><path class="js-fill" d="M0,75.47L7.63,65.31L15.26,78.42L22.89,71.84L30.53,49.92L38.16,36.35L45.79,39.37L53.42,37.95L61.05,49.11L68.68,65.23L76.32,60.94L91.58,67.39L99.21,58.46L106.84,53.66L114.47,54.14L122.11,54.45L129.74,44.06L137.37,51.94L145,53.46L152.63,57.05L160.26,49.38L167.89,41.37L175.53,49.55L183.16,67.23L190.79,69.87L198.42,69.07L206.05,52.78L213.68,47.62L221.32,44.99L228.95,49.06L236.58,61.07L251.84,67.8L259.47,60.27L267.11,43.02L274.74,38.43L282.37,43.21L290,36.91L297.63,36.69L305.26,53.56L312.89,85.86L320.53,108.95L328.16,68.7L335.79,35.2L343.42,50.97L351.05,78.23L358.68,99.86L366.32,91.41L373.95,98.4L381.58,108.63L389.21,119.19L396.84,110.4L404.47,102.22L412.11,86.04L419.74,95.31L427.37,105.86L435,119.12L442.63,112.38L450.26,106.63L457.89,119.68L465.53,120.69L473.16,129.01L480.79,128.45L488.42,130.45L496.05,124.53L503.68,131.07L511.32,133.72L518.95,120.77L526.58,123.74L534.21,118.84L541.84,103.01L549.47,106.73L557.11,108.65L564.74,115.18L572.37,104.66L580,122.13L580,99.17L572.37,81.82L564.74,92.57L557.11,85.67L541.84,79.87L534.21,97.05L526.58,101.99L518.95,97.99L511.32,110.73L503.68,109.21L496.05,101.44L488.42,106.79L473.16,106.95L465.53,100.03L457.89,99.37L450.26,84.17L442.63,89.82L435,97.44L427.37,82.71L419.74,70.92L412.11,63.05L404.47,79.27L396.84,87.15L389.21,96.73L381.58,86.88L373.95,77.34L366.32,69.45L358.68,78.33L351.05,55.63L343.42,30.84L335.79,16L328.16,47.96L320.53,87.03L312.89,64.48L305.26,34.92L297.63,17.99L290,18.32L282.37,24.85L274.74,19.22L267.11,23.12L259.47,41.06L251.84,49.1L236.58,41.77L228.95,31.12L221.32,27.04L213.68,29.47L206.05,34.57L198.42,50.6L190.79,51.48L183.16,49.43L175.53,31.21L167.89,22.94L160.26,30.82L152.63,38.76L145,34.6L137.37,32.75L129.74,25.29L122.11,37.02L114.47,36.15L106.84,35.82L99.21,41.3L91.58,50.59L76.32,43.77L68.68,47.39L61.05,30.94L53.42,18.97L45.79,21.41L38.16,18.68L30.53,32.18L22.89,55.13L15.26,62.13L7.63,49.49L0,59.06Z" style="fill: rgb(255, 20, 147); fill-opacity: 0.2; stroke-width: 0;"/></g></g><g class="errorbars"/><g class="lines"><path class="js-line" d="M0,59.06L7.63,49.49L15.26,62.13L22.89,55.13L30.53,32.18L38.16,18.68L45.79,21.41L53.42,18.97L61.05,30.94L68.68,47.39L76.32,43.77L91.58,50.59L99.21,41.3L106.84,35.82L114.47,36.15L122.11,37.02L129.74,25.29L137.37,32.75L145,34.6L152.63,38.76L160.26,30.82L167.89,22.94L175.53,31.21L183.16,49.43L190.79,51.48L198.42,50.6L206.05,34.57L213.68,29.47L221.32,27.04L228.95,31.12L236.58,41.77L251.84,49.1L259.47,41.06L267.11,23.12L274.74,19.22L282.37,24.85L290,18.32L297.63,17.99L305.26,34.92L312.89,64.48L320.53,87.03L328.16,47.96L335.79,16L343.42,30.84L351.05,55.63L358.68,78.33L366.32,69.45L373.95,77.34L381.58,86.88L389.21,96.73L396.84,87.15L404.47,79.27L412.11,63.05L419.74,70.92L427.37,82.71L435,97.44L442.63,89.82L450.26,84.17L457.89,99.37L465.53,100.03L473.16,106.95L488.42,106.79L496.05,101.44L503.68,109.21L511.32,110.73L518.95,97.99L526.58,101.99L534.21,97.05L541.84,79.87L557.11,85.67L564.74,92.57L572.37,81.82L580,99.17" style="vector-effect: none; fill: none; stroke: rgb(171, 99, 250); stroke-opacity: 1; stroke-width: 0px; opacity: 1;"/></g><g class="points"/><g class="text"/></g><g class="trace scatter trace0d350a" style="stroke-miterlimit: 2;"><g class="fills"/><g class="errorbars"/><g class="lines"><path class="js-line" d="M0,75.47L7.63,65.31L15.26,78.42L22.89,71.84L30.53,49.92L38.16,36.35L45.79,39.37L53.42,37.95L61.05,49.11L68.68,65.23L76.32,60.94L91.58,67.39L99.21,58.46L106.84,53.66L114.47,54.14L122.11,54.45L129.74,44.06L137.37,51.94L145,53.46L152.63,57.05L160.26,49.38L167.89,41.37L175.53,49.55L183.16,67.23L190.79,69.87L198.42,69.07L206.05,52.78L213.68,47.62L221.32,44.99L228.95,49.06L236.58,61.07L251.84,67.8L259.47,60.27L267.11,43.02L274.74,38.43L282.37,43.21L290,36.91L297.63,36.69L305.26,53.56L312.89,85.86L320.53,108.95L328.16,68.7L335.79,35.2L343.42,50.97L351.05,78.23L358.68,99.86L366.32,91.41L373.95,98.4L381.58,108.63L389.21,119.19L396.84,110.4L404.47,102.22L412.11,86.04L419.74,95.31L427.37,105.86L435,119.12L442.63,112.38L450.26,106.63L457.89,119.68L465.53,120.69L473.16,129.01L480.79,128.45L488.42,130.45L496.05,124.53L503.68,131.07L511.32,133.72L518.95,120.77L526.58,123.74L534.21,118.84L541.84,103.01L549.47,106.73L557.11,108.65L564.74,115.18L572.37,104.66L580,122.13" style="vector-effect: none; fill: none; stroke: rgb(255, 161, 90); stroke-opacity: 1; stroke-width: 0px; opacity: 1;"/></g><g class="points"/><g class="text"/></g><g class="trace scatter trace0068d3" style="stroke-miterlimit: 2; opacity: 1;"><g class="fills"/><g class="errorbars"/><g class="lines"><path class="js-line" d="M0,67.26L7.63,57.4L15.26,70.27L22.89,63.48L30.53,41.05L38.16,27.52L45.79,30.39L53.42,28.46L61.05,40.02L68.68,56.31L76.32,52.36L91.58,58.99L99.21,49.88L106.84,44.74L114.47,45.15L122.11,45.73L129.74,34.67L137.37,42.35L145,44.03L152.63,47.9L160.26,40.1L167.89,32.16L175.53,40.38L183.16,58.33L190.79,60.68L198.42,59.83L206.05,43.67L213.68,38.54L221.32,36.02L228.95,40.09L236.58,51.42L251.84,58.45L259.47,50.67L267.11,33.07L274.74,28.83L282.37,34.03L290,27.61L297.63,27.34L305.26,44.24L312.89,75.17L320.53,97.99L328.16,58.33L335.79,25.6L343.42,40.9L351.05,66.93L358.68,89.1L366.32,80.43L373.95,87.87L381.58,97.76L389.21,107.96L396.84,98.77L404.47,90.75L412.11,74.54L419.74,83.11L427.37,94.28L435,108.28L442.63,101.1L450.26,95.4L457.89,109.53L465.53,110.36L473.16,117.98L480.79,117.49L488.42,118.62L496.05,112.99L503.68,120.14L511.32,122.23L518.95,109.38L526.58,112.87L534.21,107.95L541.84,91.44L549.47,94.93L557.11,97.16L564.74,103.87L572.37,93.24L580,110.65" style="vector-effect: none; fill: none; stroke: rgb(255, 20, 147); stroke-opacity: 1; stroke-width: 3px; opacity: 1;"/></g><g class="points"/><g class="text"/></g></g></g></g><g class="zerolinelayer-above"/><path class="xlines-above crisp" d="M79,420.5H661M79,99.5H661" style="fill: none; stroke-width: 1px; stroke: rgb(0, 0, 0); stroke-opacity: 1;"/><path class="ylines-above crisp" d="M79.5,100V420M660.5,100V420" style="fill: none; stroke-width: 1px; stroke: rgb(0, 0, 0); stroke-opacity: 1;"/><g class="overlines-above"/><g class="xaxislayer-above"><path class="xtick ticks crisp" d="M0,421v5" transform="translate(141.05,0)" style="stroke: rgb(68, 68, 68); stroke-opacity: 1; stroke-width: 1px;"/><path class="xtick ticks crisp" d="M0,421v5" transform="translate(217.37,0)" style="stroke: rgb(68, 68, 68); stroke-opacity: 1; stroke-width: 1px;"/><path class="xtick ticks crisp" d="M0,421v5" transform="translate(293.68,0)" style="stroke: rgb(68, 68, 68); stroke-opacity: 1; stroke-width: 1px;"/><path class="xtick ticks crisp" d="M0,421v5" transform="translate(370,0)" style="stroke: rgb(68, 68, 68); stroke-opacity: 1; stroke-width: 1px;"/><path class="xtick ticks crisp" d="M0,421v5" transform="translate(446.32,0)" style="stroke: rgb(68, 68, 68); stroke-opacity: 1; stroke-width: 1px;"/><path class="xtick ticks crisp" d="M0,421v5" transform="translate(522.63,0)" style="stroke: rgb(68, 68, 68); stroke-opacity: 1; stroke-width: 1px;"/><path class="xtick ticks crisp" d="M0,421v5" transform="translate(598.95,0)" style="stroke: rgb(68, 68, 68); stroke-opacity: 1; stroke-width: 1px;"/><g class="xtick"><text text-anchor="middle" x="0" y="440.4" transform="translate(141.05,0)" style="font-family: 'Open Sans', verdana, arial, sans-serif; font-size: 12px; fill: rgb(42, 63, 95); fill-opacity: 1; white-space: pre;">−1500</text></g><g class="xtick"><text text-anchor="middle" x="0" y="440.4" style="font-family: 'Open Sans', verdana, arial, sans-serif; font-size: 12px; fill: rgb(42, 63, 95); fill-opacity: 1; white-space: pre;" transform="translate(217.37,0)">−1000</text></g><g class="xtick"><text text-anchor="middle" x="0" y="440.4" style="font-family: 'Open Sans', verdana, arial, sans-serif; font-size: 12px; fill: rgb(42, 63, 95); fill-opacity: 1; white-space: pre;" transform="translate(293.68,0)">−500</text></g><g class="xtick"><text text-anchor="middle" x="0" y="440.4" style="font-family: 'Open Sans', verdana, arial, sans-serif; font-size: 12px; fill: rgb(42, 63, 95); fill-opacity: 1; white-space: pre;" transform="translate(370,0)">0</text></g><g class="xtick"><text text-anchor="middle" x="0" y="440.4" style="font-family: 'Open Sans', verdana, arial, sans-serif; font-size: 12px; fill: rgb(42, 63, 95); fill-opacity: 1; white-space: pre;" transform="translate(446.32,0)">500</text></g><g class="xtick"><text text-anchor="middle" x="0" y="440.4" style="font-family: 'Open Sans', verdana, arial, sans-serif; font-size: 12px; fill: rgb(42, 63, 95); fill-opacity: 1; white-space: pre;" transform="translate(522.63,0)">1000</text></g><g class="xtick"><text text-anchor="middle" x="0" y="440.4" style="font-family: 'Open Sans', verdana, arial, sans-serif; font-size: 12px; fill: rgb(42, 63, 95); fill-opacity: 1; white-space: pre;" transform="translate(598.95,0)">1500</text></g></g><g class="yaxislayer-above"><path class="ytick ticks crisp" d="M79,0h-5" transform="translate(0,385.14)" style="stroke: rgb(68, 68, 68); stroke-opacity: 1; stroke-width: 1px;"/><path class="ytick ticks crisp" d="M79,0h-5" transform="translate(0,349.35)" style="stroke: rgb(68, 68, 68); stroke-opacity: 1; stroke-width: 1px;"/><path class="ytick ticks crisp" d="M79,0h-5" transform="translate(0,313.56)" style="stroke: rgb(68, 68, 68); stroke-opacity: 1; stroke-width: 1px;"/><path class="ytick ticks crisp" d="M79,0h-5" transform="translate(0,277.77)" style="stroke: rgb(68, 68, 68); stroke-opacity: 1; stroke-width: 1px;"/><path class="ytick ticks crisp" d="M79,0h-5" transform="translate(0,241.98)" style="stroke: rgb(68, 68, 68); stroke-opacity: 1; stroke-width: 1px;"/><path class="ytick ticks crisp" d="M79,0h-5" transform="translate(0,206.19)" style="stroke: rgb(68, 68, 68); stroke-opacity: 1; stroke-width: 1px;"/><path class="ytick ticks crisp" d="M79,0h-5" transform="translate(0,170.39)" style="stroke: rgb(68, 68, 68); stroke-opacity: 1; stroke-width: 1px;"/><path class="ytick ticks crisp" d="M79,0h-5" transform="translate(0,134.6)" style="stroke: rgb(68, 68, 68); stroke-opacity: 1; stroke-width: 1px;"/><g class="ytick"><text text-anchor="end" x="71.6" y="4.199999999999999" transform="translate(0,385.14)" style="font-family: 'Open Sans', verdana, arial, sans-serif; font-size: 12px; fill: rgb(42, 63, 95); fill-opacity: 1; white-space: pre;">0.08</text></g><g class="ytick"><text text-anchor="end" x="71.6" y="4.199999999999999" style="font-family: 'Open Sans', verdana, arial, sans-serif; font-size: 12px; fill: rgb(42, 63, 95); fill-opacity: 1; white-space: pre;" transform="translate(0,349.35)">0.1</text></g><g class="ytick"><text text-anchor="end" x="71.6" y="4.199999999999999" style="font-family: 'Open Sans', verdana, arial, sans-serif; font-size: 12px; fill: rgb(42, 63, 95); fill-opacity: 1; white-space: pre;" transform="translate(0,313.56)">0.12</text></g><g class="ytick"><text text-anchor="end" x="71.6" y="4.199999999999999" style="font-family: 'Open Sans', verdana, arial, sans-serif; font-size: 12px; fill: rgb(42, 63, 95); fill-opacity: 1; white-space: pre;" transform="translate(0,277.77)">0.14</text></g><g class="ytick"><text text-anchor="end" x="71.6" y="4.199999999999999" style="font-family: 'Open Sans', verdana, arial, sans-serif; font-size: 12px; fill: rgb(42, 63, 95); fill-opacity: 1; white-space: pre;" transform="translate(0,241.98)">0.16</text></g><g class="ytick"><text text-anchor="end" x="71.6" y="4.199999999999999" style="font-family: 'Open Sans', verdana, arial, sans-serif; font-size: 12px; fill: rgb(42, 63, 95); fill-opacity: 1; white-space: pre;" transform="translate(0,206.19)">0.18</text></g><g class="ytick"><text text-anchor="end" x="71.6" y="4.199999999999999" style="font-family: 'Open Sans', verdana, arial, sans-serif; font-size: 12px; fill: rgb(42, 63, 95); fill-opacity: 1; white-space: pre;" transform="translate(0,170.39)">0.2</text></g><g class="ytick"><text text-anchor="end" x="71.6" y="4.199999999999999" style="font-family: 'Open Sans', verdana, arial, sans-serif; font-size: 12px; fill: rgb(42, 63, 95); fill-opacity: 1; white-space: pre;" transform="translate(0,134.6)">0.22</text></g></g><g class="overaxes-above"/></g></g><g class="polarlayer"/><g class="smithlayer"/><g class="ternarylayer"/><g class="geolayer"/><g class="funnelarealayer"/><g class="pielayer"/><g class="iciclelayer"/><g class="treemaplayer"/><g class="sunburstlayer"/><g class="glimages"/><defs id="topdefs-94d3c8"><g class="clips"/><clipPath id="legend94d3c8"><rect width="296" height="29" x="1" y="1"/></clipPath></defs><g class="layer-above"><g class="imagelayer"/><g class="shapelayer"><g class="shape-group" data-index="0" clip-path="url(#clip94d3c8x)"><path data-index="0" fill-rule="evenodd" d="M370,420L370,100" style="opacity: 1; stroke: rgb(0, 0, 0); stroke-opacity: 1; fill: rgb(0, 0, 0); fill-opacity: 0; stroke-dasharray: 9px, 9px; stroke-width: 2px;"/></g><g class="shape-group" data-index="1" clip-path="url(#clip94d3c8x)"><path data-index="1" fill-rule="evenodd" d="M212.64,420L212.64,100" style="opacity: 1; stroke: rgb(128, 128, 128); stroke-opacity: 1; fill: rgb(0, 0, 0); fill-opacity: 0; stroke-dasharray: 3px, 3px; stroke-width: 2px;"/></g></g></g><g class="infolayer"><g class="legend" pointer-events="all" transform="translate(362,62.599999999999994)"><rect class="bg" shape-rendering="crispEdges" style="stroke: rgb(0, 0, 0); stroke-opacity: 1; fill: rgb(255, 255, 255); fill-opacity: 0.8; stroke-width: 1px;" width="297" height="30" x="0.5" y="0.5"/><g class="scrollbox" transform="" clip-path="url(#legend94d3c8)"><g class="groups" transform=""><g class="traces" transform="translate(0,15.5)" style="opacity: 1;"><text class="legendtext" text-anchor="start" x="40" y="4.680000000000001" style="font-family: 'Open Sans', verdana, arial, sans-serif; font-size: 12px; fill: rgb(42, 63, 95); fill-opacity: 1; white-space: pre;">Standard (AAAB)</text><g class="layers" style="opacity: 1;"><g class="legendfill"/><g class="legendlines"><path class="js-line" d="M5,0h30" style="fill: none; stroke: rgb(143, 0, 255); stroke-opacity: 1; stroke-width: 3px;"/></g><g class="legendsymbols"><g class="legendpoints"/></g></g><rect class="legendtoggle" x="0" y="-9.5" width="145.46875" height="19" style="fill: rgb(0, 0, 0); fill-opacity: 0;"/></g></g><g class="groups" transform="translate(147.96875,0)"><g class="traces" transform="translate(0,15.5)" style="opacity: 1;"><text class="legendtext" text-anchor="start" x="40" y="4.680000000000001" style="font-family: 'Open Sans', verdana, arial, sans-serif; font-size: 12px; fill: rgb(42, 63, 95); fill-opacity: 1; white-space: pre;">Omission (AXAB)</text><g class="layers" style="opacity: 1;"><g class="legendfill"/><g class="legendlines"><path class="js-line" d="M5,0h30" style="fill: none; stroke: rgb(255, 20, 147); stroke-opacity: 1; stroke-width: 3px;"/></g><g class="legendsymbols"><g class="legendpoints"/></g></g><rect class="legendtoggle" x="0" y="-9.5" width="145.5546875" height="19" style="fill: rgb(0, 0, 0); fill-opacity: 0;"/></g></g></g><rect class="scrollbar" rx="20" ry="3" width="0" height="0" style="fill: rgb(128, 139, 164); fill-opacity: 1;" x="0" y="0"/></g><g class="g-gtitle"><text class="gtitle" x="350" y="50" text-anchor="middle" dy="0em" style="opacity: 1; font-family: Arial; font-size: 18px; fill: rgb(0, 0, 0); fill-opacity: 1; white-space: pre;"><tspan class="line" dy="0em" x="350" y="50"><tspan style="font-weight:bold">Figure f010: PFC Delta SFC</tspan></tspan><tspan class="line" dy="1.3em" x="350" y="50">​<tspan style="font-size:70%" dy="-0.6em">Continuous 2-4 Hz Phase-Locking Value | N=560 units</tspan><tspan dy="0.42em">​</tspan></tspan></text></g><g class="g-xtitle"><text class="xtitle" x="370" y="467.200390625" text-anchor="middle" style="opacity: 1; font-family: 'Open Sans', verdana, arial, sans-serif; font-size: 14px; fill: rgb(42, 63, 95); fill-opacity: 1; white-space: pre;">Time from Omission (ms)</text></g><g class="g-ytitle"><text class="ytitle" transform="rotate(-90,24.941796875,260)" x="24.941796875" y="260" text-anchor="middle" style="opacity: 1; font-family: 'Open Sans', verdana, arial, sans-serif; font-size: 14px; fill: rgb(42, 63, 95); fill-opacity: 1; white-space: pre;">Delta SFC (PLV)</text></g><g class="annotation" data-index="0" style="opacity: 1;"><g class="annotation-text-g" transform="rotate(0,419.5,109.5)"><g class="cursor-pointer" transform="translate(370,100)"><rect class="bg" x="0.5" y="0.5" width="98" height="18" style="stroke-width: 1px; stroke: rgb(0, 0, 0); stroke-opacity: 0; fill: rgb(0, 0, 0); fill-opacity: 0;"/><text class="annotation-text" text-anchor="middle" x="49.23828125" y="14" style="font-family: 'Open Sans', verdana, arial, sans-serif; font-size: 12px; fill: rgb(42, 63, 95); fill-opacity: 1; white-space: pre;">Omission Onset</text></g></g></g><g class="annotation" data-index="1" style="opacity: 1;"><g class="annotation-text-g" transform="rotate(0,242.14,109.5)"><g class="cursor-pointer" transform="translate(213,100)"><rect class="bg" x="0.5" y="0.5" width="58" height="18" style="stroke-width: 1px; stroke: rgb(0, 0, 0); stroke-opacity: 0; fill: rgb(0, 0, 0); fill-opacity: 0;"/><text class="annotation-text" text-anchor="middle" x="29.12890625" y="14" style="font-family: 'Open Sans', verdana, arial, sans-serif; font-size: 12px; fill: rgb(42, 63, 95); fill-opacity: 1; white-space: pre;">P1 Onset</text></g></g></g></g></svg>