<svg class="main-svg" xmlns="http://www.w3.org/2000/svg" xmlns:xlink="http://www.w3.org/1999/xlink" width="700" height="500" style="" viewBox="0 0 700 500"><rect x="0" y="0" width="700" height="500" style="fill: rgb(255, 255, 255); fill-opacity: 1;"/><defs id="defs-270e0b"><g class="clips"><clipPath id="clip270e0bxyplot" class="plotclip"><rect width="580" height="320"/></clipPath><clipPath class="axesclip" id="clip270e0bx"><rect x="80" y="0" width="580" height="500"/></clipPath><clipPath class="axesclip" id="clip270e0by"><rect x="0" y="100" width="700" height="320"/></clipPath><clipPath class="axesclip" id="clip270e0bxy"><rect x="80" y="100" width="580" height="320"/></clipPath></g><g class="gradients"/><g class="patterns"/></defs><g class="bglayer"/><g class="layer-below"><g class="imagelayer"/><g class="shapelayer"/></g><g class="cartesianlayer"><g class="subplot xy"><g class="layer-subplot"><g class="shapelayer"/><g class="imagelayer"/></g><g class="minor-gridlayer"><g class="x"/><g class="y"/></g><g class="gridlayer"><g class="x"><path class="xgrid crisp" transform="translate(141.05,0)" d="M0,100v320" style="stroke: rgb(211, 211, 211); stroke-opacity: 1; stroke-width: 1px;"/><path class="xgrid crisp" transform="translate(217.37,0)" d="M0,100v320" style="stroke: rgb(211, 211, 211); stroke-opacity: 1; stroke-width: 1px;"/><path class="xgrid crisp" transform="translate(293.68,0)" d="M0,100v320" style="stroke: rgb(211, 211, 211); stroke-opacity: 1; stroke-width: 1px;"/><path class="xgrid crisp" transform="translate(446.32,0)" d="M0,100v320" style="stroke: rgb(211, 211, 211); stroke-opacity: 1; stroke-width: 1px;"/><path class="xgrid crisp" transform="translate(522.63,0)" d="M0,100v320" style="stroke: rgb(211, 211, 211); stroke-opacity: 1; stroke-width: 1px;"/><path class="xgrid crisp" transform="translate(598.95,0)" d="M0,100v320" style="stroke: rgb(211, 211, 211); stroke-opacity: 1; stroke-width: 1px;"/></g><g class="y"><path class="ygrid crisp" transform="translate(0,398.04)" d="M80,0h580" style="stroke: rgb(211, 211, 211); stroke-opacity: 1; stroke-width: 1px;"/><path class="ygrid crisp" transform="translate(0,357.76)" d="M80,0h580" style="stroke: rgb(211, 211, 211); stroke-opacity: 1; stroke-width: 1px;"/><path class="ygrid crisp" transform="translate(0,317.48)" d="M80,0h580" style="stroke: rgb(211, 211, 211); stroke-opacity: 1; stroke-width: 1px;"/><path class="ygrid crisp" transform="translate(0,277.2)" d="M80,0h580" style="stroke: rgb(211, 211, 211); stroke-opacity: 1; stroke-width: 1px;"/><path class="ygrid crisp" transform="translate(0,236.92)" d="M80,0h580" style="stroke: rgb(211, 211, 211); stroke-opacity: 1; stroke-width: 1px;"/><path class="ygrid crisp" transform="translate(0,196.64)" d="M80,0h580" style="stroke: rgb(211, 211, 211); stroke-opacity: 1; stroke-width: 1px;"/><path class="ygrid crisp" transform="translate(0,156.36)" d="M80,0h580" style="stroke: rgb(211, 211, 211); stroke-opacity: 1; stroke-width: 1px;"/><path class="ygrid crisp" transform="translate(0,116.08)" d="M80,0h580" style="stroke: rgb(211, 211, 211); stroke-opacity: 1; stroke-width: 1px;"/></g></g><g class="zerolinelayer"><path class="xzl zl crisp" transform="translate(370,0)" d="M0,100v320" style="stroke: rgb(235, 240, 248); stroke-opacity: 1; stroke-width: 2px;"/></g><g class="layer-between"><g class="shapelayer"/><g class="imagelayer"/></g><path class="xlines-below"/><path class="ylines-below"/><g class="overlines-below"/><g class="xaxislayer-below"/><g class="yaxislayer-below"/><g class="overaxes-below"/><g class="overplot"><g class="xy" transform="translate(80,100)" clip-path="url(#clip270e0bxyplot)"><g class="scatterlayer mlayer"><g class="trace scatter trace72c3a0" style="stroke-miterlimit: 2;"><g class="fills"><g><path class="js-fill" d="M0,271.42L22.89,197.91L30.53,193.6L38.16,199.96L45.79,212.12L53.42,228.87L61.05,228.57L68.68,234.73L76.32,232.72L83.95,221.97L91.58,214.07L99.21,214.75L106.84,214.51L114.47,214.69L122.11,220.11L129.74,247.3L137.37,245.81L145,244.19L152.63,247.98L160.26,235.04L167.89,226.89L175.53,225.74L183.16,231.67L190.79,228.52L198.42,221.15L206.05,226.94L213.68,242.61L221.32,266.16L228.95,276.85L236.58,268.01L244.21,248.3L251.84,224.23L259.47,219.11L267.11,211.38L274.74,217.96L290,231.13L297.63,227.64L305.26,228.41L312.89,234.63L320.53,240.94L328.16,224.72L335.79,225.63L343.42,253.96L351.05,285.14L358.68,287.62L366.32,279.9L373.95,278.4L381.58,264.92L389.21,267.45L396.84,256.28L404.47,263.42L412.11,275.13L419.74,269.29L427.37,268.36L435,268.61L442.63,279.35L450.26,283.49L457.89,282.72L465.53,273.04L473.16,256.01L480.79,263.4L488.42,261.55L496.05,265.01L503.68,252.24L511.32,252.94L518.95,243.91L526.58,252.93L534.21,269.48L541.84,281.19L549.47,303.21L557.11,304L564.74,299.47L572.37,283.6L580,279.94L580,256.22L572.37,255.4L564.74,273.69L557.11,278.05L549.47,276.93L541.84,253.8L534.21,241.2L526.58,222.25L518.95,209.48L511.32,221.63L503.68,221.99L496.05,234.93L488.42,230.31L480.79,231.23L473.16,225.85L465.53,247.28L457.89,258.39L450.26,260.79L442.63,256.3L435,242.27L427.37,240.61L419.74,244.9L412.11,248.41L404.47,238.89L396.84,231.82L389.21,244.52L381.58,240.45L373.95,256.84L366.32,253.17L358.68,264.08L351.05,263.13L343.42,231.56L335.79,204.02L328.16,199.96L320.53,214.6L305.26,208.84L297.63,208.36L290,213.71L282.37,207.5L274.74,198.49L267.11,191.28L259.47,200.28L251.84,202.9L244.21,228.96L236.58,249.69L228.95,259.86L221.32,248.45L213.68,224.59L206.05,208.76L198.42,202.7L190.79,210.98L183.16,214.05L175.53,206.28L167.89,206.23L160.26,213.81L152.63,228.81L145,226.25L137.37,228.5L129.74,229.97L122.11,197.41L114.47,193.89L99.21,193.64L91.58,193.26L83.95,202.64L76.32,215.94L68.68,217.27L61.05,209.39L53.42,209.53L45.79,193.62L38.16,180.64L30.53,173.92L22.89,178.47L15.26,203.61L0,255.8Z" style="fill: rgb(143, 0, 255); fill-opacity: 0.2; stroke-width: 0;"/></g></g><g class="errorbars"/><g class="lines"><path class="js-line" d="M0,255.8L15.26,203.61L22.89,178.47L30.53,173.92L38.16,180.64L45.79,193.62L53.42,209.53L61.05,209.39L68.68,217.27L76.32,215.94L83.95,202.64L91.58,193.26L99.21,193.64L114.47,193.89L122.11,197.41L129.74,229.97L137.37,228.5L145,226.25L152.63,228.81L160.26,213.81L167.89,206.23L175.53,206.28L183.16,214.05L190.79,210.98L198.42,202.7L206.05,208.76L213.68,224.59L221.32,248.45L228.95,259.86L236.58,249.69L244.21,228.96L251.84,202.9L259.47,200.28L267.11,191.28L274.74,198.49L282.37,207.5L290,213.71L297.63,208.36L305.26,208.84L320.53,214.6L328.16,199.96L335.79,204.02L343.42,231.56L351.05,263.13L358.68,264.08L366.32,253.17L373.95,256.84L381.58,240.45L389.21,244.52L396.84,231.82L404.47,238.89L412.11,248.41L419.74,244.9L427.37,240.61L435,242.27L442.63,256.3L450.26,260.79L457.89,258.39L465.53,247.28L473.16,225.85L480.79,231.23L488.42,230.31L496.05,234.93L503.68,221.99L511.32,221.63L518.95,209.48L526.58,222.25L534.21,241.2L541.84,253.8L549.47,276.93L557.11,278.05L564.74,273.69L572.37,255.4L580,256.22" style="vector-effect: none; fill: none; stroke: rgb(99, 110, 250); stroke-opacity: 1; stroke-width: 0px; opacity: 1;"/></g><g class="points"/><g class="text"/></g><g class="trace scatter trace83455d" style="stroke-miterlimit: 2;"><g class="fills"/><g class="errorbars"/><g class="lines"><path class="js-line" d="M0,271.42L22.89,197.91L30.53,193.6L38.16,199.96L45.79,212.12L53.42,228.87L61.05,228.57L68.68,234.73L76.32,232.72L83.95,221.97L91.58,214.07L99.21,214.75L106.84,214.51L114.47,214.69L122.11,220.11L129.74,247.3L137.37,245.81L145,244.19L152.63,247.98L160.26,235.04L167.89,226.89L175.53,225.74L183.16,231.67L190.79,228.52L198.42,221.15L206.05,226.94L213.68,242.61L221.32,266.16L228.95,276.85L236.58,268.01L244.21,248.3L251.84,224.23L259.47,219.11L267.11,211.38L274.74,217.96L290,231.13L297.63,227.64L305.26,228.41L312.89,234.63L320.53,240.94L328.16,224.72L335.79,225.63L343.42,253.96L351.05,285.14L358.68,287.62L366.32,279.9L373.95,278.4L381.58,264.92L389.21,267.45L396.84,256.28L404.47,263.42L412.11,275.13L419.74,269.29L427.37,268.36L435,268.61L442.63,279.35L450.26,283.49L457.89,282.72L465.53,273.04L473.16,256.01L480.79,263.4L488.42,261.55L496.05,265.01L503.68,252.24L511.32,252.94L518.95,243.91L526.58,252.93L534.21,269.48L541.84,281.19L549.47,303.21L557.11,304L564.74,299.47L572.37,283.6L580,279.94" style="vector-effect: none; fill: none; stroke: rgb(239, 85, 59); stroke-opacity: 1; stroke-width: 0px; opacity: 1;"/></g><g class="points"/><g class="text"/></g><g class="trace scatter trace75c456" style="stroke-miterlimit: 2; opacity: 1;"><g class="fills"/><g class="errorbars"/><g class="lines"><path class="js-line" d="M0,263.61L22.89,188.19L30.53,183.76L38.16,190.3L45.79,202.87L53.42,219.2L61.05,218.98L68.68,226L76.32,224.33L83.95,212.31L91.58,203.66L106.84,204.2L114.47,204.29L122.11,208.76L129.74,238.63L145,235.22L152.63,238.39L160.26,224.43L167.89,216.56L175.53,216.01L183.16,222.86L190.79,219.75L198.42,211.92L206.05,217.85L213.68,233.6L221.32,257.31L228.95,268.36L236.58,258.85L244.21,238.63L251.84,213.57L259.47,209.69L267.11,201.33L274.74,208.23L282.37,216.21L290,222.42L297.63,218L305.26,218.62L320.53,227.77L328.16,212.34L335.79,214.83L343.42,242.76L351.05,274.13L358.68,275.85L366.32,266.54L373.95,267.62L381.58,252.69L389.21,255.99L396.84,244.05L404.47,251.16L412.11,261.77L419.74,257.1L427.37,254.49L435,255.44L442.63,267.83L450.26,272.14L457.89,270.55L465.53,260.16L473.16,240.93L480.79,247.31L488.42,245.93L496.05,249.97L503.68,237.11L511.32,237.29L518.95,226.69L526.58,237.59L534.21,255.34L541.84,267.49L549.47,290.07L557.11,291.03L564.74,286.58L572.37,269.5L580,268.08" style="vector-effect: none; fill: none; stroke: rgb(143, 0, 255); stroke-opacity: 1; stroke-width: 3px; opacity: 1;"/></g><g class="points"/><g class="text"/></g><g class="trace scatter tracefbff66" style="stroke-miterlimit: 2;"><g class="fills"><g><path class="js-fill" d="M0,119.05L7.63,104.4L15.26,69.27L22.89,55.36L30.53,68.44L38.16,83.39L45.79,101.44L53.42,97.08L61.05,122.24L68.68,137.97L76.32,109.91L83.95,98.13L91.58,110.16L106.84,127.68L114.47,116.79L122.11,134.04L129.74,131.45L137.37,117.48L145,123.96L152.63,125.33L160.26,138.77L167.89,139.06L175.53,116.34L183.16,92.55L190.79,103.1L198.42,125.69L206.05,126.13L213.68,133.18L221.32,148.66L228.95,161.11L236.58,146.18L244.21,136.42L251.84,135.42L259.47,114.81L267.11,99.31L274.74,100.33L282.37,103.61L290,103.94L297.63,125.77L305.26,123.87L312.89,108.74L320.53,137.44L328.16,139.14L335.79,140.06L343.42,135.15L351.05,134.11L358.68,143.39L366.32,126.44L373.95,131.24L381.58,140.4L389.21,138.84L396.84,137.49L404.47,168.75L412.11,154.14L419.74,143.34L427.37,128.85L435,146.2L442.63,135.37L450.26,160.44L457.89,167.84L465.53,183.52L473.16,158.19L480.79,177.82L496.05,191.85L503.68,151.15L511.32,139.47L518.95,145.12L526.58,172.63L534.21,177.05L541.84,158.61L549.47,152.55L557.11,123.58L564.74,116.67L572.37,117.6L580,131L580,91.32L572.37,71.85L564.74,71.02L557.11,82.86L549.47,114.62L541.84,119.46L534.21,141.19L526.58,135.41L518.95,104.42L511.32,98.35L503.68,109.35L496.05,152.32L488.42,146.23L480.79,136.55L473.16,116.16L465.53,145.03L457.89,131.2L450.26,123.11L442.63,93.82L435,101.9L427.37,85.8L419.74,97.8L404.47,128.1L396.84,92.79L389.21,93.85L381.58,97.99L373.95,92.6L366.32,85.53L358.68,103.43L351.05,92.03L343.42,100.53L335.79,103.82L328.16,98.65L320.53,94.54L312.89,68.38L305.26,89.4L297.63,92.83L290,70.39L274.74,61.93L267.11,58.38L259.47,74.16L251.84,99.18L244.21,101.57L236.58,111.48L228.95,127.94L221.32,117.48L213.68,99.9L206.05,92.27L198.42,90.59L190.79,64.87L183.16,54.21L175.53,81.73L167.89,103.91L160.26,103.5L152.63,87.89L145,90.94L137.37,84.01L129.74,100.75L122.11,100.91L114.47,83.75L106.84,92.47L99.21,81.38L91.58,74.6L83.95,64.44L76.32,75.47L68.68,105.32L61.05,89.33L53.42,60.77L45.79,65.32L38.16,46.23L30.53,29.66L22.89,16L15.26,29.2L7.63,69.3L0,84.79Z" style="fill: rgb(255, 20, 147); fill-opacity: 0.2; stroke-width: 0;"/></g></g><g class="errorbars"/><g class="lines"><path class="js-line" d="M0,84.79L7.63,69.3L15.26,29.2L22.89,16L30.53,29.66L38.16,46.23L45.79,65.32L53.42,60.77L61.05,89.33L68.68,105.32L76.32,75.47L83.95,64.44L91.58,74.6L99.21,81.38L106.84,92.47L114.47,83.75L122.11,100.91L129.74,100.75L137.37,84.01L145,90.94L152.63,87.89L160.26,103.5L167.89,103.91L175.53,81.73L183.16,54.21L190.79,64.87L198.42,90.59L206.05,92.27L213.68,99.9L221.32,117.48L228.95,127.94L236.58,111.48L244.21,101.57L251.84,99.18L259.47,74.16L267.11,58.38L274.74,61.93L290,70.39L297.63,92.83L305.26,89.4L312.89,68.38L320.53,94.54L328.16,98.65L335.79,103.82L343.42,100.53L351.05,92.03L358.68,103.43L366.32,85.53L373.95,92.6L381.58,97.99L389.21,93.85L396.84,92.79L404.47,128.1L419.74,97.8L427.37,85.8L435,101.9L442.63,93.82L450.26,123.11L457.89,131.2L465.53,145.03L473.16,116.16L480.79,136.55L488.42,146.23L496.05,152.32L503.68,109.35L511.32,98.35L518.95,104.42L526.58,135.41L534.21,141.19L541.84,119.46L549.47,114.62L557.11,82.86L564.74,71.02L572.37,71.85L580,91.32" style="vector-effect: none; fill: none; stroke: rgb(171, 99, 250); stroke-opacity: 1; stroke-width: 0px; opacity: 1;"/></g><g class="points"/><g class="text"/></g><g class="trace scatter trace7a3be0" style="stroke-miterlimit: 2;"><g class="fills"/><g class="errorbars"/><g class="lines"><path class="js-line" d="M0,119.05L7.63,104.4L15.26,69.27L22.89,55.36L30.53,68.44L38.16,83.39L45.79,101.44L53.42,97.08L61.05,122.24L68.68,137.97L76.32,109.91L83.95,98.13L91.58,110.16L106.84,127.68L114.47,116.79L122.11,134.04L129.74,131.45L137.37,117.48L145,123.96L152.63,125.33L160.26,138.77L167.89,139.06L175.53,116.34L183.16,92.55L190.79,103.1L198.42,125.69L206.05,126.13L213.68,133.18L221.32,148.66L228.95,161.11L236.58,146.18L244.21,136.42L251.84,135.42L259.47,114.81L267.11,99.31L274.74,100.33L282.37,103.61L290,103.94L297.63,125.77L305.26,123.87L312.89,108.74L320.53,137.44L328.16,139.14L335.79,140.06L343.42,135.15L351.05,134.11L358.68,143.39L366.32,126.44L373.95,131.24L381.58,140.4L389.21,138.84L396.84,137.49L404.47,168.75L412.11,154.14L419.74,143.34L427.37,128.85L435,146.2L442.63,135.37L450.26,160.44L457.89,167.84L465.53,183.52L473.16,158.19L480.79,177.82L496.05,191.85L503.68,151.15L511.32,139.47L518.95,145.12L526.58,172.63L534.21,177.05L541.84,158.61L549.47,152.55L557.11,123.58L564.74,116.67L572.37,117.6L580,131" style="vector-effect: none; fill: none; stroke: rgb(255, 161, 90); stroke-opacity: 1; stroke-width: 0px; opacity: 1;"/></g><g class="points"/><g class="text"/></g><g class="trace scatter traceeb2479" style="stroke-miterlimit: 2; opacity: 1;"><g class="fills"/><g class="errorbars"/><g class="lines"><path class="js-line" d="M0,101.92L7.63,86.85L15.26,49.24L22.89,35.68L30.53,49.05L38.16,64.81L45.79,83.38L53.42,78.93L61.05,105.79L68.68,121.65L76.32,92.69L83.95,81.29L91.58,92.38L99.21,99.94L106.84,110.07L114.47,100.27L122.11,117.47L129.74,116.1L137.37,100.74L145,107.45L152.63,106.61L160.26,121.14L167.89,121.48L175.53,99.04L183.16,73.38L190.79,83.98L198.42,108.14L206.05,109.2L213.68,116.54L221.32,133.07L228.95,144.53L236.58,128.83L244.21,118.99L251.84,117.3L259.47,94.48L267.11,78.85L274.74,81.13L282.37,85.07L290,87.16L297.63,109.3L305.26,106.63L312.89,88.56L320.53,115.99L335.79,121.94L343.42,117.84L351.05,113.07L358.68,123.41L366.32,105.98L373.95,111.92L381.58,119.2L389.21,116.35L396.84,115.14L404.47,148.42L412.11,133.56L419.74,120.57L427.37,107.32L435,124.05L442.63,114.59L450.26,141.77L457.89,149.52L465.53,164.28L473.16,137.17L480.79,157.18L488.42,165.79L496.05,172.08L503.68,130.25L511.32,118.91L518.95,124.77L526.58,154.02L534.21,159.12L541.84,139.04L549.47,133.58L557.11,103.22L564.74,93.84L572.37,94.72L580,111.16" style="vector-effect: none; fill: none; stroke: rgb(255, 20, 147); stroke-opacity: 1; stroke-width: 3px; opacity: 1;"/></g><g class="points"/><g class="text"/></g></g></g></g><g class="zerolinelayer-above"/><path class="xlines-above crisp" d="M79,420.5H661M79,99.5H661" style="fill: none; stroke-width: 1px; stroke: rgb(0, 0, 0); stroke-opacity: 1;"/><path class="ylines-above crisp" d="M79.5,100V420M660.5,100V420" style="fill: none; stroke-width: 1px; stroke: rgb(0, 0, 0); stroke-opacity: 1;"/><g class="overlines-above"/><g class="xaxislayer-above"><path class="xtick ticks crisp" d="M0,421v5" transform="translate(141.05,0)" style="stroke: rgb(68, 68, 68); stroke-opacity: 1; stroke-width: 1px;"/><path class="xtick ticks crisp" d="M0,421v5" transform="translate(217.37,0)" style="stroke: rgb(68, 68, 68); stroke-opacity: 1; stroke-width: 1px;"/><path class="xtick ticks crisp" d="M0,421v5" transform="translate(293.68,0)" style="stroke: rgb(68, 68, 68); stroke-opacity: 1; stroke-width: 1px;"/><path class="xtick ticks crisp" d="M0,421v5" transform="translate(370,0)" style="stroke: rgb(68, 68, 68); stroke-opacity: 1; stroke-width: 1px;"/><path class="xtick ticks crisp" d="M0,421v5" transform="translate(446.32,0)" style="stroke: rgb(68, 68, 68); stroke-opacity: 1; stroke-width: 1px;"/><path class="xtick ticks crisp" d="M0,421v5" transform="translate(522.63,0)" style="stroke: rgb(68, 68, 68); stroke-opacity: 1; stroke-width: 1px;"/><path class="xtick ticks crisp" d="M0,421v5" transform="translate(598.95,0)" style="stroke: rgb(68, 68, 68); stroke-opacity: 1; stroke-width: 1px;"/><g class="xtick"><text text-anchor="middle" x="0" y="440.4" transform="translate(141.05,0)" style="font-family: 'Open Sans', verdana, arial, sans-serif; font-size: 12px; fill: rgb(42, 63, 95); fill-opacity: 1; white-space: pre;">−1500</text></g><g class="xtick"><text text-anchor="middle" x="0" y="440.4" style="font-family: 'Open Sans', verdana, arial, sans-serif; font-size: 12px; fill: rgb(42, 63, 95); fill-opacity: 1; white-space: pre;" transform="translate(217.37,0)">−1000</text></g><g class="xtick"><text text-anchor="middle" x="0" y="440.4" style="font-family: 'Open Sans', verdana, arial, sans-serif; font-size: 12px; fill: rgb(42, 63, 95); fill-opacity: 1; white-space: pre;" transform="translate(293.68,0)">−500</text></g><g class="xtick"><text text-anchor="middle" x="0" y="440.4" style="font-family: 'Open Sans', verdana, arial, sans-serif; font-size: 12px; fill: rgb(42, 63, 95); fill-opacity: 1; white-space: pre;" transform="translate(370,0)">0</text></g><g class="xtick"><text text-anchor="middle" x="0" y="440.4" style="font-family: 'Open Sans', verdana, arial, sans-serif; font-size: 12px; fill: rgb(42, 63, 95); fill-opacity: 1; white-space: pre;" transform="translate(446.32,0)">500</text></g><g class="xtick"><text text-anchor="middle" x="0" y="440.4" style="font-family: 'Open Sans', verdana, arial, sans-serif; font-size: 12px; fill: rgb(42, 63, 95); fill-opacity: 1; white-space: pre;" transform="translate(522.63,0)">1000</text></g><g class="xtick"><text text-anchor="middle" x="0" y="440.4" style="font-family: 'Open Sans', verdana, arial, sans-serif; font-size: 12px; fill: rgb(42, 63, 95); fill-opacity: 1; white-space: pre;" transform="translate(598.95,0)">1500</text></g></g><g class="yaxislayer-above"><path class="ytick ticks crisp" d="M79,0h-5" transform="translate(0,398.04)" style="stroke: rgb(68, 68, 68); stroke-opacity: 1; stroke-width: 1px;"/><path class="ytick ticks crisp" d="M79,0h-5" transform="translate(0,357.76)" style="stroke: rgb(68, 68, 68); stroke-opacity: 1; stroke-width: 1px;"/><path class="ytick ticks crisp" d="M79,0h-5" transform="translate(0,317.48)" style="stroke: rgb(68, 68, 68); stroke-opacity: 1; stroke-width: 1px;"/><path class="ytick ticks crisp" d="M79,0h-5" transform="translate(0,277.2)" style="stroke: rgb(68, 68, 68); stroke-opacity: 1; stroke-width: 1px;"/><path class="ytick ticks crisp" d="M79,0h-5" transform="translate(0,236.92)" style="stroke: rgb(68, 68, 68); stroke-opacity: 1; stroke-width: 1px;"/><path class="ytick ticks crisp" d="M79,0h-5" transform="translate(0,196.64)" style="stroke: rgb(68, 68, 68); stroke-opacity: 1; stroke-width: 1px;"/><path class="ytick ticks crisp" d="M79,0h-5" transform="translate(0,156.36)" style="stroke: rgb(68, 68, 68); stroke-opacity: 1; stroke-width: 1px;"/><path class="ytick ticks crisp" d="M79,0h-5" transform="translate(0,116.08)" style="stroke: rgb(68, 68, 68); stroke-opacity: 1; stroke-width: 1px;"/><g class="ytick"><text text-anchor="end" x="71.6" y="4.199999999999999" transform="translate(0,398.04)" style="font-family: 'Open Sans', verdana, arial, sans-serif; font-size: 12px; fill: rgb(42, 63, 95); fill-opacity: 1; white-space: pre;">0.1</text></g><g class="ytick"><text text-anchor="end" x="71.6" y="4.199999999999999" style="font-family: 'Open Sans', verdana, arial, sans-serif; font-size: 12px; fill: rgb(42, 63, 95); fill-opacity: 1; white-space: pre;" transform="translate(0,357.76)">0.12</text></g><g class="ytick"><text text-anchor="end" x="71.6" y="4.199999999999999" style="font-family: 'Open Sans', verdana, arial, sans-serif; font-size: 12px; fill: rgb(42, 63, 95); fill-opacity: 1; white-space: pre;" transform="translate(0,317.48)">0.14</text></g><g class="ytick"><text text-anchor="end" x="71.6" y="4.199999999999999" style="font-family: 'Open Sans', verdana, arial, sans-serif; font-size: 12px; fill: rgb(42, 63, 95); fill-opacity: 1; white-space: pre;" transform="translate(0,277.2)">0.16</text></g><g class="ytick"><text text-anchor="end" x="71.6" y="4.199999999999999" style="font-family: 'Open Sans', verdana, arial, sans-serif; font-size: 12px; fill: rgb(42, 63, 95); fill-opacity: 1; white-space: pre;" transform="translate(0,236.92)">0.18</text></g><g class="ytick"><text text-anchor="end" x="71.6" y="4.199999999999999" style="font-family: 'Open Sans', verdana, arial, sans-serif; font-size: 12px; fill: rgb(42, 63, 95); fill-opacity: 1; white-space: pre;" transform="translate(0,196.64)">0.2</text></g><g class="ytick"><text text-anchor="end" x="71.6" y="4.199999999999999" style="font-family: 'Open Sans', verdana, arial, sans-serif; font-size: 12px; fill: rgb(42, 63, 95); fill-opacity: 1; white-space: pre;" transform="translate(0,156.36)">0.22</text></g><g class="ytick"><text text-anchor="end" x="71.6" y="4.199999999999999" style="font-family: 'Open Sans', verdana, arial, sans-serif; font-size: 12px; fill: rgb(42, 63, 95); fill-opacity: 1; white-space: pre;" transform="translate(0,116.08)">0.24</text></g></g><g class="overaxes-above"/></g></g><g class="polarlayer"/><g class="smithlayer"/><g class="ternarylayer"/><g class="geolayer"/><g class="funnelarealayer"/><g class="pielayer"/><g class="iciclelayer"/><g class="treemaplayer"/><g class="sunburstlayer"/><g class="glimages"/><defs id="topdefs-270e0b"><g class="clips"/><clipPath id="legend270e0b"><rect width="296" height="29" x="1" y="1"/></clipPath></defs><g class="layer-above"><g class="imagelayer"/><g class="shapelayer"><g class="shape-group" data-index="0" clip-path="url(#clip270e0bx)"><path data-index="0" fill-rule="evenodd" d="M370,420L370,100" style="opacity: 1; stroke: rgb(0, 0, 0); stroke-opacity: 1; fill: rgb(0, 0, 0); fill-opacity: 0; stroke-dasharray: 9px, 9px; stroke-width: 2px;"/></g><g class="shape-group" data-index="1" clip-path="url(#clip270e0bx)"><path data-index="1" fill-rule="evenodd" d="M212.64,420L212.64,100" style="opacity: 1; stroke: rgb(128, 128, 128); stroke-opacity: 1; fill: rgb(0, 0, 0); fill-opacity: 0; stroke-dasharray: 3px, 3px; stroke-width: 2px;"/></g></g></g><g class="infolayer"><g class="legend" pointer-events="all" transform="translate(362,62.599999999999994)"><rect class="bg" shape-rendering="crispEdges" style="stroke: rgb(0, 0, 0); stroke-opacity: 1; fill: rgb(255, 255, 255); fill-opacity: 0.8; stroke-width: 1px;" width="297" height="30" x="0.5" y="0.5"/><g class="scrollbox" transform="" clip-path="url(#legend270e0b)"><g class="groups" transform=""><g class="traces" transform="translate(0,15.5)" style="opacity: 1;"><text class="legendtext" text-anchor="start" x="40" y="4.680000000000001" style="font-family: 'Open Sans', verdana, arial, sans-serif; font-size: 12px; fill: rgb(42, 63, 95); fill-opacity: 1; white-space: pre;">Standard (AAAB)</text><g class="layers" style="opacity: 1;"><g class="legendfill"/><g class="legendlines"><path class="js-line" d="M5,0h30" style="fill: none; stroke: rgb(143, 0, 255); stroke-opacity: 1; stroke-width: 3px;"/></g><g class="legendsymbols"><g class="legendpoints"/></g></g><rect class="legendtoggle" x="0" y="-9.5" width="145.46875" height="19" style="fill: rgb(0, 0, 0); fill-opacity: 0;"/></g></g><g class="groups" transform="translate(147.96875,0)"><g class="traces" transform="translate(0,15.5)" style="opacity: 1;"><text class="legendtext" text-anchor="start" x="40" y="4.680000000000001" style="font-family: 'Open Sans', verdana, arial, sans-serif; font-size: 12px; fill: rgb(42, 63, 95); fill-opacity: 1; white-space: pre;">Omission (AXAB)</text><g class="layers" style="opacity: 1;"><g class="legendfill"/><g class="legendlines"><path class="js-line" d="M5,0h30" style="fill: none; stroke: rgb(255, 20, 147); stroke-opacity: 1; stroke-width: 3px;"/></g><g class="legendsymbols"><g class="legendpoints"/></g></g><rect class="legendtoggle" x="0" y="-9.5" width="145.5546875" height="19" style="fill: rgb(0, 0, 0); fill-opacity: 0;"/></g></g></g><rect class="scrollbar" rx="20" ry="3" width="0" height="0" style="fill: rgb(128, 139, 164); fill-opacity: 1;" x="0" y="0"/></g><g class="g-gtitle"><text class="gtitle" x="350" y="50" text-anchor="middle" dy="0em" style="opacity: 1; font-family: Arial; font-size: 18px; fill: rgb(0, 0, 0); fill-opacity: 1; white-space: pre;"><tspan class="line" dy="0em" x="350" y="50"><tspan style="font-weight:bold">Figure f010: MST Delta SFC</tspan></tspan><tspan class="line" dy="1.3em" x="350" y="50">​<tspan style="font-size:70%" dy="-0.6em">Continuous 2-4 Hz Phase-Locking Value | N=247 units</tspan><tspan dy="0.42em">​</tspan></tspan></text></g><g class="g-xtitle"><text class="xtitle" x="370" y="467.200390625" text-anchor="middle" style="opacity: 1; font-family: 'Open Sans', verdana, arial, sans-serif; font-size: 14px; fill: rgb(42, 63, 95); fill-opacity: 1; white-space: pre;">Time from Omission (ms)</text></g><g class="g-ytitle"><text class="ytitle" transform="rotate(-90,24.941796875,260)" x="24.941796875" y="260" text-anchor="middle" style="opacity: 1; font-family: 'Open Sans', verdana, arial, sans-serif; font-size: 14px; fill: rgb(42, 63, 95); fill-opacity: 1; white-space: pre;">Delta SFC (PLV)</text></g><g class="annotation" data-index="0" style="opacity: 1;"><g class="annotation-text-g" transform="rotate(0,419.5,109.5)"><g class="cursor-pointer" transform="translate(370,100)"><rect class="bg" x="0.5" y="0.5" width="98" height="18" style="stroke-width: 1px; stroke: rgb(0, 0, 0); stroke-opacity: 0; fill: rgb(0, 0, 0); fill-opacity: 0;"/><text class="annotation-text" text-anchor="middle" x="49.23828125" y="14" style="font-family: 'Open Sans', verdana, arial, sans-serif; font-size: 12px; fill: rgb(42, 63, 95); fill-opacity: 1; white-space: pre;">Omission Onset</text></g></g></g><g class="annotation" data-index="1" style="opacity: 1;"><g class="annotation-text-g" transform="rotate(0,242.14,109.5)"><g class="cursor-pointer" transform="translate(213,100)"><rect class="bg" x="0.5" y="0.5" width="58" height="18" style="stroke-width: 1px; stroke: rgb(0, 0, 0); stroke-opacity: 0; fill: rgb(0, 0, 0); fill-opacity: 0;"/><text class="annotation-text" text-anchor="middle" x="29.12890625" y="14" style="font-family: 'Open Sans', verdana, arial, sans-serif; font-size: 12px; fill: rgb(42, 63, 95); fill-opacity: 1; white-space: pre;">P1 Onset</text></g></g></g></g></svg>