<svg class="main-svg" xmlns="http://www.w3.org/2000/svg" xmlns:xlink="http://www.w3.org/1999/xlink" width="700" height="500" style="" viewBox="0 0 700 500"><rect x="0" y="0" width="700" height="500" style="fill: rgb(255, 255, 255); fill-opacity: 1;"/><defs id="defs-03ed2e"><g class="clips"><clipPath id="clip03ed2exyplot" class="plotclip"><rect width="580" height="320"/></clipPath><clipPath class="axesclip" id="clip03ed2ex"><rect x="80" y="0" width="580" height="500"/></clipPath><clipPath class="axesclip" id="clip03ed2ey"><rect x="0" y="100" width="700" height="320"/></clipPath><clipPath class="axesclip" id="clip03ed2exy"><rect x="80" y="100" width="580" height="320"/></clipPath></g><g class="gradients"/><g class="patterns"/></defs><g class="bglayer"/><g class="layer-below"><g class="imagelayer"/><g class="shapelayer"/></g><g class="cartesianlayer"><g class="subplot xy"><g class="layer-subplot"><g class="shapelayer"/><g class="imagelayer"/></g><g class="minor-gridlayer"><g class="x"/><g class="y"/></g><g class="gridlayer"><g class="x"><path class="xgrid crisp" transform="translate(141.05,0)" d="M0,100v320" style="stroke: rgb(211, 211, 211); stroke-opacity: 1; stroke-width: 1px;"/><path class="xgrid crisp" transform="translate(217.37,0)" d="M0,100v320" style="stroke: rgb(211, 211, 211); stroke-opacity: 1; stroke-width: 1px;"/><path class="xgrid crisp" transform="translate(293.68,0)" d="M0,100v320" style="stroke: rgb(211, 211, 211); stroke-opacity: 1; stroke-width: 1px;"/><path class="xgrid crisp" transform="translate(446.32,0)" d="M0,100v320" style="stroke: rgb(211, 211, 211); stroke-opacity: 1; stroke-width: 1px;"/><path class="xgrid crisp" transform="translate(522.63,0)" d="M0,100v320" style="stroke: rgb(211, 211, 211); stroke-opacity: 1; stroke-width: 1px;"/><path class="xgrid crisp" transform="translate(598.95,0)" d="M0,100v320" style="stroke: rgb(211, 211, 211); stroke-opacity: 1; stroke-width: 1px;"/></g><g class="y"><path class="ygrid crisp" transform="translate(0,402.22)" d="M80,0h580" style="stroke: rgb(211, 211, 211); stroke-opacity: 1; stroke-width: 1px;"/><path class="ygrid crisp" transform="translate(0,350.47)" d="M80,0h580" style="stroke: rgb(211, 211, 211); stroke-opacity: 1; stroke-width: 1px;"/><path class="ygrid crisp" transform="translate(0,298.72)" d="M80,0h580" style="stroke: rgb(211, 211, 211); stroke-opacity: 1; stroke-width: 1px;"/><path class="ygrid crisp" transform="translate(0,246.96)" d="M80,0h580" style="stroke: rgb(211, 211, 211); stroke-opacity: 1; stroke-width: 1px;"/><path class="ygrid crisp" transform="translate(0,195.20999999999998)" d="M80,0h580" style="stroke: rgb(211, 211, 211); stroke-opacity: 1; stroke-width: 1px;"/><path class="ygrid crisp" transform="translate(0,143.46)" d="M80,0h580" style="stroke: rgb(211, 211, 211); stroke-opacity: 1; stroke-width: 1px;"/></g></g><g class="zerolinelayer"><path class="xzl zl crisp" transform="translate(370,0)" d="M0,100v320" style="stroke: rgb(235, 240, 248); stroke-opacity: 1; stroke-width: 2px;"/></g><g class="layer-between"><g class="shapelayer"/><g class="imagelayer"/></g><path class="xlines-below"/><path class="ylines-below"/><g class="overlines-below"/><g class="xaxislayer-below"/><g class="yaxislayer-below"/><g class="overaxes-below"/><g class="overplot"><g class="xy" transform="translate(80,100)" clip-path="url(#clip03ed2exyplot)"><g class="scatterlayer mlayer"><g class="trace scatter traceb35596" style="stroke-miterlimit: 2;"><g class="fills"><g><path class="js-fill" d="M0,203.1L7.63,215.51L15.26,226.39L22.89,235.69L30.53,234.62L38.16,236L45.79,230.04L53.42,222.45L61.05,229.3L68.68,233.82L76.32,243.09L83.95,244.67L91.58,244.41L99.21,242.18L106.84,244.18L114.47,246L122.11,244.09L129.74,269.98L137.37,272.04L145,273.64L152.63,282.06L160.26,253.65L167.89,250.18L175.53,246.47L183.16,247.7L190.79,258.72L198.42,262.99L206.05,268.92L213.68,258.24L221.32,242.85L228.95,233.77L236.58,220.18L244.21,204.19L251.84,208.92L259.47,219.75L267.11,243.02L274.74,249.11L282.37,256.03L290,277.32L305.26,274.26L312.89,281.54L320.53,269.92L328.16,267.68L335.79,257.32L343.42,254.95L351.05,266.78L358.68,267.91L373.95,263.53L381.58,264.44L389.21,253.97L396.84,252.07L404.47,219.24L412.11,221.55L427.37,265.9L435,263.29L442.63,291.67L450.26,302.71L457.89,301.7L465.53,304L473.16,296.02L480.79,280.95L488.42,272.54L496.05,275.43L503.68,288.99L511.32,284.15L518.95,283.02L526.58,276.76L534.21,266.98L541.84,254.94L549.47,242.51L557.11,236.6L564.74,232.47L572.37,247.94L580,239.59L580,222.5L572.37,229.96L564.74,211.12L557.11,215.87L549.47,223.44L541.84,238.5L534.21,250.75L526.58,261.32L518.95,268.46L511.32,269.86L503.68,275.35L496.05,262.09L488.42,258.02L480.79,267.82L473.16,283.66L465.53,293.3L457.89,289.97L450.26,291.61L442.63,280.33L435,247.16L427.37,249.38L419.74,224.21L412.11,198.26L404.47,194.67L396.84,232.34L389.21,235.46L381.58,248.11L373.95,248.65L366.32,251.32L358.68,253.19L351.05,252.65L343.42,241.42L335.79,243.95L328.16,255.13L320.53,256.36L312.89,270.55L305.26,263.44L290,267.04L282.37,243.68L274.74,236.76L267.11,229.59L259.47,203.39L251.84,190.49L244.21,183.74L236.58,202.6L228.95,218.54L221.32,226.04L213.68,243.94L206.05,255.8L198.42,249.11L190.79,244.25L183.16,232.7L175.53,232.02L167.89,237.11L160.26,240.98L152.63,273.68L145,263.19L137.37,261.43L129.74,259.06L122.11,230.98L114.47,232.39L106.84,229.55L99.21,227.99L91.58,230.53L83.95,231.27L76.32,229.42L68.68,220.3L61.05,215.74L53.42,207.56L45.79,215.81L38.16,222.84L30.53,221.48L22.89,222.79L15.26,213.9L7.63,203.1L0,189.98Z" style="fill: rgb(143, 0, 255); fill-opacity: 0.2; stroke-width: 0;"/></g></g><g class="errorbars"/><g class="lines"><path class="js-line" d="M0,189.98L7.63,203.1L15.26,213.9L22.89,222.79L30.53,221.48L38.16,222.84L45.79,215.81L53.42,207.56L61.05,215.74L68.68,220.3L76.32,229.42L83.95,231.27L91.58,230.53L99.21,227.99L106.84,229.55L114.47,232.39L122.11,230.98L129.74,259.06L137.37,261.43L145,263.19L152.63,273.68L160.26,240.98L167.89,237.11L175.53,232.02L183.16,232.7L190.79,244.25L198.42,249.11L206.05,255.8L213.68,243.94L221.32,226.04L228.95,218.54L236.58,202.6L244.21,183.74L251.84,190.49L259.47,203.39L267.11,229.59L274.74,236.76L282.37,243.68L290,267.04L305.26,263.44L312.89,270.55L320.53,256.36L328.16,255.13L335.79,243.95L343.42,241.42L351.05,252.65L358.68,253.19L366.32,251.32L373.95,248.65L381.58,248.11L389.21,235.46L396.84,232.34L404.47,194.67L412.11,198.26L419.74,224.21L427.37,249.38L435,247.16L442.63,280.33L450.26,291.61L457.89,289.97L465.53,293.3L473.16,283.66L480.79,267.82L488.42,258.02L496.05,262.09L503.68,275.35L511.32,269.86L518.95,268.46L526.58,261.32L534.21,250.75L541.84,238.5L549.47,223.44L557.11,215.87L564.74,211.12L572.37,229.96L580,222.5" style="vector-effect: none; fill: none; stroke: rgb(99, 110, 250); stroke-opacity: 1; stroke-width: 0px; opacity: 1;"/></g><g class="points"/><g class="text"/></g><g class="trace scatter trace01ef7d" style="stroke-miterlimit: 2;"><g class="fills"/><g class="errorbars"/><g class="lines"><path class="js-line" d="M0,203.1L7.63,215.51L15.26,226.39L22.89,235.69L30.53,234.62L38.16,236L45.79,230.04L53.42,222.45L61.05,229.3L68.68,233.82L76.32,243.09L83.95,244.67L91.58,244.41L99.21,242.18L106.84,244.18L114.47,246L122.11,244.09L129.74,269.98L137.37,272.04L145,273.64L152.63,282.06L160.26,253.65L167.89,250.18L175.53,246.47L183.16,247.7L190.79,258.72L198.42,262.99L206.05,268.92L213.68,258.24L221.32,242.85L228.95,233.77L236.58,220.18L244.21,204.19L251.84,208.92L259.47,219.75L267.11,243.02L274.74,249.11L282.37,256.03L290,277.32L305.26,274.26L312.89,281.54L320.53,269.92L328.16,267.68L335.79,257.32L343.42,254.95L351.05,266.78L358.68,267.91L373.95,263.53L381.58,264.44L389.21,253.97L396.84,252.07L404.47,219.24L412.11,221.55L427.37,265.9L435,263.29L442.63,291.67L450.26,302.71L457.89,301.7L465.53,304L473.16,296.02L480.79,280.95L488.42,272.54L496.05,275.43L503.68,288.99L511.32,284.15L518.95,283.02L526.58,276.76L534.21,266.98L541.84,254.94L549.47,242.51L557.11,236.6L564.74,232.47L572.37,247.94L580,239.59" style="vector-effect: none; fill: none; stroke: rgb(239, 85, 59); stroke-opacity: 1; stroke-width: 0px; opacity: 1;"/></g><g class="points"/><g class="text"/></g><g class="trace scatter trace1b39e6" style="stroke-miterlimit: 2; opacity: 1;"><g class="fills"/><g class="errorbars"/><g class="lines"><path class="js-line" d="M0,196.54L7.63,209.3L15.26,220.15L22.89,229.24L30.53,228.05L38.16,229.42L45.79,222.93L53.42,215.01L61.05,222.52L68.68,227.06L76.32,236.25L83.95,237.97L91.58,237.47L99.21,235.08L106.84,236.87L114.47,239.2L122.11,237.53L129.74,264.52L137.37,266.73L145,268.42L152.63,277.87L160.26,247.32L167.89,243.65L175.53,239.24L183.16,240.2L190.79,251.48L198.42,256.05L206.05,262.36L213.68,251.09L221.32,234.44L228.95,226.15L236.58,211.39L244.21,193.97L251.84,199.71L259.47,211.57L267.11,236.3L274.74,242.94L282.37,249.85L290,272.18L305.26,268.85L312.89,276.04L320.53,263.14L328.16,261.41L335.79,250.63L343.42,248.19L351.05,259.71L358.68,260.55L373.95,256.09L381.58,256.28L389.21,244.71L396.84,242.2L404.47,206.95L412.11,209.9L427.37,257.64L435,255.23L442.63,286L450.26,297.16L457.89,295.83L465.53,298.65L473.16,289.84L480.79,274.38L488.42,265.28L496.05,268.76L503.68,282.17L511.32,277L518.95,275.74L526.58,269.04L534.21,258.86L541.84,246.72L549.47,232.98L557.11,226.24L564.74,221.8L572.37,238.95L580,231.05" style="vector-effect: none; fill: none; stroke: rgb(143, 0, 255); stroke-opacity: 1; stroke-width: 3px; opacity: 1;"/></g><g class="points"/><g class="text"/></g><g class="trace scatter traceaac845" style="stroke-miterlimit: 2;"><g class="fills"><g><path class="js-fill" d="M0,47.93L7.63,41.47L15.26,41.34L22.89,49.86L30.53,50.81L38.16,58.9L45.79,68.71L53.42,70.76L61.05,71.17L68.68,91.84L76.32,96.94L83.95,79.02L91.58,71.48L99.21,96.96L106.84,93.56L114.47,102.66L122.11,110.24L129.74,134.39L137.37,138.83L145,137.18L152.63,145.38L160.26,103.22L167.89,78.63L175.53,67.14L183.16,70.7L198.42,122.74L206.05,140.71L213.68,131.16L221.32,139.01L228.95,112.67L236.58,79.2L244.21,53.54L251.84,64.09L259.47,66.28L267.11,65.91L274.74,105.68L282.37,117.98L290,115.22L297.63,79.44L305.26,62.33L312.89,58.49L320.53,81.17L328.16,63.26L335.79,61.52L343.42,58.79L351.05,65.49L358.68,78.51L366.32,70.8L373.95,67.17L381.58,84.34L389.21,82.41L396.84,94.35L404.47,79.45L412.11,74.59L419.74,54.39L427.37,66.02L435,58.53L442.63,93.32L450.26,117.14L457.89,104.84L465.53,107.89L473.16,110.25L480.79,91.89L488.42,103.99L496.05,112.03L503.68,106.43L511.32,129.95L518.95,112.16L526.58,115.03L534.21,103.01L541.84,100.5L549.47,101.25L557.11,70.32L564.74,63.27L572.37,51.69L580,51.61L580,19.1L572.37,16L564.74,27.02L557.11,31.62L549.47,66.57L541.84,68.96L534.21,74.79L526.58,88.04L518.95,83.98L511.32,103.25L503.68,78.4L496.05,82.42L488.42,74.15L480.79,62.19L473.16,83.51L465.53,82.67L457.89,80.45L450.26,92.64L442.63,67.38L435,28.71L427.37,37.09L419.74,26.45L412.11,45.85L404.47,51.75L396.84,65.66L389.21,52.81L381.58,57.09L373.95,40.72L366.32,43.19L358.68,52.86L351.05,38.56L343.42,32.89L335.79,36.23L328.16,37.21L320.53,56.22L312.89,33.53L305.26,37.79L297.63,57.37L290,95.66L282.37,97.81L274.74,83.9L267.11,43.06L259.47,42.24L251.84,37.81L244.21,24.24L236.58,53.81L228.95,89.85L221.32,117.11L213.68,110.04L206.05,118.45L198.42,98.89L183.16,45.44L175.53,43.02L167.89,55.46L160.26,82.18L152.63,127.57L145,118.31L137.37,121.05L129.74,116.88L122.11,90.5L114.47,82.61L106.84,71.95L99.21,76.03L91.58,49.76L83.95,57.72L76.32,76.41L68.68,71.93L61.05,49.45L53.42,49.36L45.79,46.32L38.16,35.57L30.53,26.2L22.89,25.31L15.26,17.34L7.63,18.41L0,25.53Z" style="fill: rgb(255, 20, 147); fill-opacity: 0.2; stroke-width: 0;"/></g></g><g class="errorbars"/><g class="lines"><path class="js-line" d="M0,25.53L7.63,18.41L15.26,17.34L22.89,25.31L30.53,26.2L38.16,35.57L45.79,46.32L53.42,49.36L61.05,49.45L68.68,71.93L76.32,76.41L83.95,57.72L91.58,49.76L99.21,76.03L106.84,71.95L114.47,82.61L122.11,90.5L129.74,116.88L137.37,121.05L145,118.31L152.63,127.57L160.26,82.18L167.89,55.46L175.53,43.02L183.16,45.44L198.42,98.89L206.05,118.45L213.68,110.04L221.32,117.11L228.95,89.85L236.58,53.81L244.21,24.24L251.84,37.81L259.47,42.24L267.11,43.06L274.74,83.9L282.37,97.81L290,95.66L297.63,57.37L305.26,37.79L312.89,33.53L320.53,56.22L328.16,37.21L335.79,36.23L343.42,32.89L351.05,38.56L358.68,52.86L366.32,43.19L373.95,40.72L381.58,57.09L389.21,52.81L396.84,65.66L404.47,51.75L412.11,45.85L419.74,26.45L427.37,37.09L435,28.71L442.63,67.38L450.26,92.64L457.89,80.45L465.53,82.67L473.16,83.51L480.79,62.19L488.42,74.15L496.05,82.42L503.68,78.4L511.32,103.25L518.95,83.98L526.58,88.04L534.21,74.79L541.84,68.96L549.47,66.57L557.11,31.62L564.74,27.02L572.37,16L580,19.1" style="vector-effect: none; fill: none; stroke: rgb(171, 99, 250); stroke-opacity: 1; stroke-width: 0px; opacity: 1;"/></g><g class="points"/><g class="text"/></g><g class="trace scatter trace7c4232" style="stroke-miterlimit: 2;"><g class="fills"/><g class="errorbars"/><g class="lines"><path class="js-line" d="M0,47.93L7.63,41.47L15.26,41.34L22.89,49.86L30.53,50.81L38.16,58.9L45.79,68.71L53.42,70.76L61.05,71.17L68.68,91.84L76.32,96.94L83.95,79.02L91.58,71.48L99.21,96.96L106.84,93.56L114.47,102.66L122.11,110.24L129.74,134.39L137.37,138.83L145,137.18L152.63,145.38L160.26,103.22L167.89,78.63L175.53,67.14L183.16,70.7L198.42,122.74L206.05,140.71L213.68,131.16L221.32,139.01L228.95,112.67L236.58,79.2L244.21,53.54L251.84,64.09L259.47,66.28L267.11,65.91L274.74,105.68L282.37,117.98L290,115.22L297.63,79.44L305.26,62.33L312.89,58.49L320.53,81.17L328.16,63.26L335.79,61.52L343.42,58.79L351.05,65.49L358.68,78.51L366.32,70.8L373.95,67.17L381.58,84.34L389.21,82.41L396.84,94.35L404.47,79.45L412.11,74.59L419.74,54.39L427.37,66.02L435,58.53L442.63,93.32L450.26,117.14L457.89,104.84L465.53,107.89L473.16,110.25L480.79,91.89L488.42,103.99L496.05,112.03L503.68,106.43L511.32,129.95L518.95,112.16L526.58,115.03L534.21,103.01L541.84,100.5L549.47,101.25L557.11,70.32L564.74,63.27L572.37,51.69L580,51.61" style="vector-effect: none; fill: none; stroke: rgb(255, 161, 90); stroke-opacity: 1; stroke-width: 0px; opacity: 1;"/></g><g class="points"/><g class="text"/></g><g class="trace scatter trace7d985d" style="stroke-miterlimit: 2; opacity: 1;"><g class="fills"/><g class="errorbars"/><g class="lines"><path class="js-line" d="M0,36.73L7.63,29.94L15.26,29.34L22.89,37.58L30.53,38.51L38.16,47.24L45.79,57.52L53.42,60.06L61.05,60.31L68.68,81.88L76.32,86.68L83.95,68.37L91.58,60.62L99.21,86.49L106.84,82.75L114.47,92.63L122.11,100.37L129.74,125.63L137.37,129.94L145,127.74L152.63,136.48L160.26,92.7L167.89,67.05L175.53,55.08L183.16,58.07L198.42,110.82L206.05,129.58L213.68,120.6L221.32,128.06L228.95,101.26L236.58,66.51L244.21,38.89L251.84,50.95L259.47,54.26L267.11,54.48L274.74,94.79L282.37,107.89L290,105.44L297.63,68.41L305.26,50.06L312.89,46.01L320.53,68.69L328.16,50.23L335.79,48.88L343.42,45.84L351.05,52.03L358.68,65.69L366.32,56.99L373.95,53.94L381.58,70.72L389.21,67.61L396.84,80.01L404.47,65.6L412.11,60.22L419.74,40.42L427.37,51.55L435,43.62L442.63,80.35L450.26,104.89L457.89,92.64L465.53,95.28L473.16,96.88L480.79,77.04L488.42,89.07L496.05,97.22L503.68,92.41L511.32,116.6L518.95,98.07L526.58,101.53L534.21,88.9L541.84,84.73L549.47,83.91L557.11,50.97L564.74,45.14L572.37,33.85L580,35.36" style="vector-effect: none; fill: none; stroke: rgb(255, 20, 147); stroke-opacity: 1; stroke-width: 3px; opacity: 1;"/></g><g class="points"/><g class="text"/></g></g></g></g><g class="zerolinelayer-above"/><path class="xlines-above crisp" d="M79,420.5H661M79,99.5H661" style="fill: none; stroke-width: 1px; stroke: rgb(0, 0, 0); stroke-opacity: 1;"/><path class="ylines-above crisp" d="M79.5,100V420M660.5,100V420" style="fill: none; stroke-width: 1px; stroke: rgb(0, 0, 0); stroke-opacity: 1;"/><g class="overlines-above"/><g class="xaxislayer-above"><path class="xtick ticks crisp" d="M0,421v5" transform="translate(141.05,0)" style="stroke: rgb(68, 68, 68); stroke-opacity: 1; stroke-width: 1px;"/><path class="xtick ticks crisp" d="M0,421v5" transform="translate(217.37,0)" style="stroke: rgb(68, 68, 68); stroke-opacity: 1; stroke-width: 1px;"/><path class="xtick ticks crisp" d="M0,421v5" transform="translate(293.68,0)" style="stroke: rgb(68, 68, 68); stroke-opacity: 1; stroke-width: 1px;"/><path class="xtick ticks crisp" d="M0,421v5" transform="translate(370,0)" style="stroke: rgb(68, 68, 68); stroke-opacity: 1; stroke-width: 1px;"/><path class="xtick ticks crisp" d="M0,421v5" transform="translate(446.32,0)" style="stroke: rgb(68, 68, 68); stroke-opacity: 1; stroke-width: 1px;"/><path class="xtick ticks crisp" d="M0,421v5" transform="translate(522.63,0)" style="stroke: rgb(68, 68, 68); stroke-opacity: 1; stroke-width: 1px;"/><path class="xtick ticks crisp" d="M0,421v5" transform="translate(598.95,0)" style="stroke: rgb(68, 68, 68); stroke-opacity: 1; stroke-width: 1px;"/><g class="xtick"><text text-anchor="middle" x="0" y="440.4" transform="translate(141.05,0)" style="font-family: 'Open Sans', verdana, arial, sans-serif; font-size: 12px; fill: rgb(42, 63, 95); fill-opacity: 1; white-space: pre;">−1500</text></g><g class="xtick"><text text-anchor="middle" x="0" y="440.4" style="font-family: 'Open Sans', verdana, arial, sans-serif; font-size: 12px; fill: rgb(42, 63, 95); fill-opacity: 1; white-space: pre;" transform="translate(217.37,0)">−1000</text></g><g class="xtick"><text text-anchor="middle" x="0" y="440.4" style="font-family: 'Open Sans', verdana, arial, sans-serif; font-size: 12px; fill: rgb(42, 63, 95); fill-opacity: 1; white-space: pre;" transform="translate(293.68,0)">−500</text></g><g class="xtick"><text text-anchor="middle" x="0" y="440.4" style="font-family: 'Open Sans', verdana, arial, sans-serif; font-size: 12px; fill: rgb(42, 63, 95); fill-opacity: 1; white-space: pre;" transform="translate(370,0)">0</text></g><g class="xtick"><text text-anchor="middle" x="0" y="440.4" style="font-family: 'Open Sans', verdana, arial, sans-serif; font-size: 12px; fill: rgb(42, 63, 95); fill-opacity: 1; white-space: pre;" transform="translate(446.32,0)">500</text></g><g class="xtick"><text text-anchor="middle" x="0" y="440.4" style="font-family: 'Open Sans', verdana, arial, sans-serif; font-size: 12px; fill: rgb(42, 63, 95); fill-opacity: 1; white-space: pre;" transform="translate(522.63,0)">1000</text></g><g class="xtick"><text text-anchor="middle" x="0" y="440.4" style="font-family: 'Open Sans', verdana, arial, sans-serif; font-size: 12px; fill: rgb(42, 63, 95); fill-opacity: 1; white-space: pre;" transform="translate(598.95,0)">1500</text></g></g><g class="yaxislayer-above"><path class="ytick ticks crisp" d="M79,0h-5" transform="translate(0,402.22)" style="stroke: rgb(68, 68, 68); stroke-opacity: 1; stroke-width: 1px;"/><path class="ytick ticks crisp" d="M79,0h-5" transform="translate(0,350.47)" style="stroke: rgb(68, 68, 68); stroke-opacity: 1; stroke-width: 1px;"/><path class="ytick ticks crisp" d="M79,0h-5" transform="translate(0,298.72)" style="stroke: rgb(68, 68, 68); stroke-opacity: 1; stroke-width: 1px;"/><path class="ytick ticks crisp" d="M79,0h-5" transform="translate(0,246.96)" style="stroke: rgb(68, 68, 68); stroke-opacity: 1; stroke-width: 1px;"/><path class="ytick ticks crisp" d="M79,0h-5" transform="translate(0,195.20999999999998)" style="stroke: rgb(68, 68, 68); stroke-opacity: 1; stroke-width: 1px;"/><path class="ytick ticks crisp" d="M79,0h-5" transform="translate(0,143.46)" style="stroke: rgb(68, 68, 68); stroke-opacity: 1; stroke-width: 1px;"/><g class="ytick"><text text-anchor="end" x="71.6" y="4.199999999999999" transform="translate(0,402.22)" style="font-family: 'Open Sans', verdana, arial, sans-serif; font-size: 12px; fill: rgb(42, 63, 95); fill-opacity: 1; white-space: pre;">0.1</text></g><g class="ytick"><text text-anchor="end" x="71.6" y="4.199999999999999" style="font-family: 'Open Sans', verdana, arial, sans-serif; font-size: 12px; fill: rgb(42, 63, 95); fill-opacity: 1; white-space: pre;" transform="translate(0,350.47)">0.15</text></g><g class="ytick"><text text-anchor="end" x="71.6" y="4.199999999999999" style="font-family: 'Open Sans', verdana, arial, sans-serif; font-size: 12px; fill: rgb(42, 63, 95); fill-opacity: 1; white-space: pre;" transform="translate(0,298.72)">0.2</text></g><g class="ytick"><text text-anchor="end" x="71.6" y="4.199999999999999" style="font-family: 'Open Sans', verdana, arial, sans-serif; font-size: 12px; fill: rgb(42, 63, 95); fill-opacity: 1; white-space: pre;" transform="translate(0,246.96)">0.25</text></g><g class="ytick"><text text-anchor="end" x="71.6" y="4.199999999999999" style="font-family: 'Open Sans', verdana, arial, sans-serif; font-size: 12px; fill: rgb(42, 63, 95); fill-opacity: 1; white-space: pre;" transform="translate(0,195.20999999999998)">0.3</text></g><g class="ytick"><text text-anchor="end" x="71.6" y="4.199999999999999" style="font-family: 'Open Sans', verdana, arial, sans-serif; font-size: 12px; fill: rgb(42, 63, 95); fill-opacity: 1; white-space: pre;" transform="translate(0,143.46)">0.35</text></g></g><g class="overaxes-above"/></g></g><g class="polarlayer"/><g class="smithlayer"/><g class="ternarylayer"/><g class="geolayer"/><g class="funnelarealayer"/><g class="pielayer"/><g class="iciclelayer"/><g class="treemaplayer"/><g class="sunburstlayer"/><g class="glimages"/><defs id="topdefs-03ed2e"><g class="clips"/><clipPath id="legend03ed2e"><rect width="296" height="29" x="1" y="1"/></clipPath></defs><g class="layer-above"><g class="imagelayer"/><g class="shapelayer"><g class="shape-group" data-index="0" clip-path="url(#clip03ed2ex)"><path data-index="0" fill-rule="evenodd" d="M370,420L370,100" style="opacity: 1; stroke: rgb(0, 0, 0); stroke-opacity: 1; fill: rgb(0, 0, 0); fill-opacity: 0; stroke-dasharray: 9px, 9px; stroke-width: 2px;"/></g><g class="shape-group" data-index="1" clip-path="url(#clip03ed2ex)"><path data-index="1" fill-rule="evenodd" d="M212.64,420L212.64,100" style="opacity: 1; stroke: rgb(128, 128, 128); stroke-opacity: 1; fill: rgb(0, 0, 0); fill-opacity: 0; stroke-dasharray: 3px, 3px; stroke-width: 2px;"/></g></g></g><g class="infolayer"><g class="legend" pointer-events="all" transform="translate(362,62.599999999999994)"><rect class="bg" shape-rendering="crispEdges" style="stroke: rgb(0, 0, 0); stroke-opacity: 1; fill: rgb(255, 255, 255); fill-opacity: 0.8; stroke-width: 1px;" width="297" height="30" x="0.5" y="0.5"/><g class="scrollbox" transform="" clip-path="url(#legend03ed2e)"><g class="groups" transform=""><g class="traces" transform="translate(0,15.5)" style="opacity: 1;"><text class="legendtext" text-anchor="start" x="40" y="4.680000000000001" style="font-family: 'Open Sans', verdana, arial, sans-serif; font-size: 12px; fill: rgb(42, 63, 95); fill-opacity: 1; white-space: pre;">Standard (AAAB)</text><g class="layers" style="opacity: 1;"><g class="legendfill"/><g class="legendlines"><path class="js-line" d="M5,0h30" style="fill: none; stroke: rgb(143, 0, 255); stroke-opacity: 1; stroke-width: 3px;"/></g><g class="legendsymbols"><g class="legendpoints"/></g></g><rect class="legendtoggle" x="0" y="-9.5" width="145.46875" height="19" style="fill: rgb(0, 0, 0); fill-opacity: 0;"/></g></g><g class="groups" transform="translate(147.96875,0)"><g class="traces" transform="translate(0,15.5)" style="opacity: 1;"><text class="legendtext" text-anchor="start" x="40" y="4.680000000000001" style="font-family: 'Open Sans', verdana, arial, sans-serif; font-size: 12px; fill: rgb(42, 63, 95); fill-opacity: 1; white-space: pre;">Omission (AXAB)</text><g class="layers" style="opacity: 1;"><g class="legendfill"/><g class="legendlines"><path class="js-line" d="M5,0h30" style="fill: none; stroke: rgb(255, 20, 147); stroke-opacity: 1; stroke-width: 3px;"/></g><g class="legendsymbols"><g class="legendpoints"/></g></g><rect class="legendtoggle" x="0" y="-9.5" width="145.5546875" height="19" style="fill: rgb(0, 0, 0); fill-opacity: 0;"/></g></g></g><rect class="scrollbar" rx="20" ry="3" width="0" height="0" style="fill: rgb(128, 139, 164); fill-opacity: 1;" x="0" y="0"/></g><g class="g-gtitle"><text class="gtitle" x="350" y="50" text-anchor="middle" dy="0em" style="opacity: 1; font-family: Arial; font-size: 18px; fill: rgb(0, 0, 0); fill-opacity: 1; white-space: pre;"><tspan class="line" dy="0em" x="350" y="50"><tspan style="font-weight:bold">Figure f010: V2 Delta SFC</tspan></tspan><tspan class="line" dy="1.3em" x="350" y="50">​<tspan style="font-size:70%" dy="-0.6em">Continuous 2-4 Hz Phase-Locking Value | N=419 units</tspan><tspan dy="0.42em">​</tspan></tspan></text></g><g class="g-xtitle"><text class="xtitle" x="370" y="467.200390625" text-anchor="middle" style="opacity: 1; font-family: 'Open Sans', verdana, arial, sans-serif; font-size: 14px; fill: rgb(42, 63, 95); fill-opacity: 1; white-space: pre;">Time from Omission (ms)</text></g><g class="g-ytitle"><text class="ytitle" transform="rotate(-90,24.941796875,260)" x="24.941796875" y="260" text-anchor="middle" style="opacity: 1; font-family: 'Open Sans', verdana, arial, sans-serif; font-size: 14px; fill: rgb(42, 63, 95); fill-opacity: 1; white-space: pre;">Delta SFC (PLV)</text></g><g class="annotation" data-index="0" style="opacity: 1;"><g class="annotation-text-g" transform="rotate(0,419.5,109.5)"><g class="cursor-pointer" transform="translate(370,100)"><rect class="bg" x="0.5" y="0.5" width="98" height="18" style="stroke-width: 1px; stroke: rgb(0, 0, 0); stroke-opacity: 0; fill: rgb(0, 0, 0); fill-opacity: 0;"/><text class="annotation-text" text-anchor="middle" x="49.23828125" y="14" style="font-family: 'Open Sans', verdana, arial, sans-serif; font-size: 12px; fill: rgb(42, 63, 95); fill-opacity: 1; white-space: pre;">Omission Onset</text></g></g></g><g class="annotation" data-index="1" style="opacity: 1;"><g class="annotation-text-g" transform="rotate(0,242.14,109.5)"><g class="cursor-pointer" transform="translate(213,100)"><rect class="bg" x="0.5" y="0.5" width="58" height="18" style="stroke-width: 1px; stroke: rgb(0, 0, 0); stroke-opacity: 0; fill: rgb(0, 0, 0); fill-opacity: 0;"/><text class="annotation-text" text-anchor="middle" x="29.12890625" y="14" style="font-family: 'Open Sans', verdana, arial, sans-serif; font-size: 12px; fill: rgb(42, 63, 95); fill-opacity: 1; white-space: pre;">P1 Onset</text></g></g></g></g></svg>