<svg class="main-svg" xmlns="http://www.w3.org/2000/svg" xmlns:xlink="http://www.w3.org/1999/xlink" width="700" height="500" style="" viewBox="0 0 700 500"><rect x="0" y="0" width="700" height="500" style="fill: rgb(255, 255, 255); fill-opacity: 1;"/><defs id="defs-4db68d"><g class="clips"><clipPath id="clip4db68dxyplot" class="plotclip"><rect width="580" height="320"/></clipPath><clipPath class="axesclip" id="clip4db68dx"><rect x="80" y="0" width="580" height="500"/></clipPath><clipPath class="axesclip" id="clip4db68dy"><rect x="0" y="100" width="700" height="320"/></clipPath><clipPath class="axesclip" id="clip4db68dxy"><rect x="80" y="100" width="580" height="320"/></clipPath></g><g class="gradients"/><g class="patterns"/></defs><g class="bglayer"/><g class="layer-below"><g class="imagelayer"/><g class="shapelayer"/></g><g class="cartesianlayer"><g class="subplot xy"><g class="layer-subplot"><g class="shapelayer"/><g class="imagelayer"/></g><g class="minor-gridlayer"><g class="x"/><g class="y"/></g><g class="gridlayer"><g class="x"><path class="xgrid crisp" transform="translate(141.05,0)" d="M0,100v320" style="stroke: rgb(211, 211, 211); stroke-opacity: 1; stroke-width: 1px;"/><path class="xgrid crisp" transform="translate(217.37,0)" d="M0,100v320" style="stroke: rgb(211, 211, 211); stroke-opacity: 1; stroke-width: 1px;"/><path class="xgrid crisp" transform="translate(293.68,0)" d="M0,100v320" style="stroke: rgb(211, 211, 211); stroke-opacity: 1; stroke-width: 1px;"/><path class="xgrid crisp" transform="translate(446.32,0)" d="M0,100v320" style="stroke: rgb(211, 211, 211); stroke-opacity: 1; stroke-width: 1px;"/><path class="xgrid crisp" transform="translate(522.63,0)" d="M0,100v320" style="stroke: rgb(211, 211, 211); stroke-opacity: 1; stroke-width: 1px;"/><path class="xgrid crisp" transform="translate(598.95,0)" d="M0,100v320" style="stroke: rgb(211, 211, 211); stroke-opacity: 1; stroke-width: 1px;"/></g><g class="y"><path class="ygrid crisp" transform="translate(0,379.41)" d="M80,0h580" style="stroke: rgb(211, 211, 211); stroke-opacity: 1; stroke-width: 1px;"/><path class="ygrid crisp" transform="translate(0,333.77)" d="M80,0h580" style="stroke: rgb(211, 211, 211); stroke-opacity: 1; stroke-width: 1px;"/><path class="ygrid crisp" transform="translate(0,288.13)" d="M80,0h580" style="stroke: rgb(211, 211, 211); stroke-opacity: 1; stroke-width: 1px;"/><path class="ygrid crisp" transform="translate(0,242.49)" d="M80,0h580" style="stroke: rgb(211, 211, 211); stroke-opacity: 1; stroke-width: 1px;"/><path class="ygrid crisp" transform="translate(0,196.85)" d="M80,0h580" style="stroke: rgb(211, 211, 211); stroke-opacity: 1; stroke-width: 1px;"/><path class="ygrid crisp" transform="translate(0,151.21)" d="M80,0h580" style="stroke: rgb(211, 211, 211); stroke-opacity: 1; stroke-width: 1px;"/><path class="ygrid crisp" transform="translate(0,105.57)" d="M80,0h580" style="stroke: rgb(211, 211, 211); stroke-opacity: 1; stroke-width: 1px;"/></g></g><g class="zerolinelayer"><path class="xzl zl crisp" transform="translate(370,0)" d="M0,100v320" style="stroke: rgb(235, 240, 248); stroke-opacity: 1; stroke-width: 2px;"/></g><g class="layer-between"><g class="shapelayer"/><g class="imagelayer"/></g><path class="xlines-below"/><path class="ylines-below"/><g class="overlines-below"/><g class="xaxislayer-below"/><g class="yaxislayer-below"/><g class="overaxes-below"/><g class="overplot"><g class="xy" transform="translate(80,100)" clip-path="url(#clip4db68dxyplot)"><g class="scatterlayer mlayer"><g class="trace scatter trace172197" style="stroke-miterlimit: 2;"><g class="fills"><g><path class="js-fill" d="M0,192.78L7.63,193.64L15.26,207.63L22.89,218.48L30.53,231.11L38.16,254.86L45.79,258.99L53.42,257.61L61.05,245.44L68.68,242.65L76.32,238.41L83.95,242.63L91.58,248.42L99.21,261.4L106.84,264.3L114.47,262.61L122.11,250.95L129.74,297.35L137.37,297.57L145,299.6L152.63,300.5L167.89,272.62L175.53,270.62L183.16,272.94L190.79,279.17L198.42,274.93L206.05,279.87L221.32,254.88L228.95,245.28L236.58,217.32L244.21,210.82L251.84,229.05L259.47,239.01L267.11,249.09L274.74,256.31L282.37,254.54L290,278.14L297.63,282.13L305.26,288.54L312.89,295.93L320.53,283.49L328.16,274.56L335.79,269.01L343.42,252.02L351.05,262.73L358.68,269.46L366.32,273.27L373.95,270.09L381.58,260.66L389.21,253.26L396.84,234.86L404.47,240.76L412.11,240.79L419.74,241.64L427.37,234.73L435,237.61L442.63,288.05L450.26,298.52L457.89,302.77L465.53,304L473.16,301.55L480.79,290.68L488.42,283.09L496.05,277.31L503.68,276.59L511.32,277.13L518.95,272.5L526.58,270.15L534.21,251.95L541.84,247.7L549.47,240.31L557.11,251.59L564.74,259.12L572.37,258.4L580,252.7L580,238L572.37,243.94L564.74,242.78L557.11,235.84L549.47,225.28L541.84,233.39L534.21,237.73L526.58,257.47L518.95,260.42L511.32,265.29L503.68,264.59L496.05,266.74L488.42,273.34L480.79,281.98L473.16,294.06L465.53,296.74L457.89,295.39L450.26,290.46L442.63,278.83L435,222.14L427.37,218.84L419.74,227.03L412.11,224.62L404.47,223.2L396.84,216.92L389.21,240.24L381.58,248.49L373.95,259.01L366.32,263.24L358.68,258.46L351.05,252.18L343.42,240.7L335.79,258.76L328.16,264.11L320.53,274.34L312.89,289.04L305.26,282.21L297.63,275.38L290,270.64L282.37,243.87L274.74,245.59L267.11,237.83L259.47,226.23L251.84,215.09L244.21,195.24L236.58,203.3L228.95,234.06L221.32,244.13L206.05,270.69L198.42,264.44L190.79,269.6L183.16,263.57L175.53,261.28L167.89,263.8L152.63,294.29L145,293.91L137.37,291.39L129.74,291.04L122.11,240.76L114.47,253.45L106.84,254.94L99.21,251.47L91.58,238.34L83.95,232.22L76.32,227.83L68.68,232.18L61.05,235.06L53.42,247.72L45.79,249.6L38.16,245.75L30.53,220.81L22.89,207.37L15.26,195.38L7.63,180.28L0,179.04Z" style="fill: rgb(143, 0, 255); fill-opacity: 0.2; stroke-width: 0;"/></g></g><g class="errorbars"/><g class="lines"><path class="js-line" d="M0,179.04L7.63,180.28L15.26,195.38L22.89,207.37L30.53,220.81L38.16,245.75L45.79,249.6L53.42,247.72L61.05,235.06L68.68,232.18L76.32,227.83L83.95,232.22L91.58,238.34L99.21,251.47L106.84,254.94L114.47,253.45L122.11,240.76L129.74,291.04L137.37,291.39L145,293.91L152.63,294.29L167.89,263.8L175.53,261.28L183.16,263.57L190.79,269.6L198.42,264.44L206.05,270.69L221.32,244.13L228.95,234.06L236.58,203.3L244.21,195.24L251.84,215.09L259.47,226.23L267.11,237.83L274.74,245.59L282.37,243.87L290,270.64L297.63,275.38L305.26,282.21L312.89,289.04L320.53,274.34L328.16,264.11L335.79,258.76L343.42,240.7L351.05,252.18L358.68,258.46L366.32,263.24L373.95,259.01L381.58,248.49L389.21,240.24L396.84,216.92L404.47,223.2L412.11,224.62L419.74,227.03L427.37,218.84L435,222.14L442.63,278.83L450.26,290.46L457.89,295.39L465.53,296.74L473.16,294.06L480.79,281.98L488.42,273.34L496.05,266.74L503.68,264.59L511.32,265.29L518.95,260.42L526.58,257.47L534.21,237.73L541.84,233.39L549.47,225.28L557.11,235.84L564.74,242.78L572.37,243.94L580,238" style="vector-effect: none; fill: none; stroke: rgb(99, 110, 250); stroke-opacity: 1; stroke-width: 0px; opacity: 1;"/></g><g class="points"/><g class="text"/></g><g class="trace scatter trace50df28" style="stroke-miterlimit: 2;"><g class="fills"/><g class="errorbars"/><g class="lines"><path class="js-line" d="M0,192.78L7.63,193.64L15.26,207.63L22.89,218.48L30.53,231.11L38.16,254.86L45.79,258.99L53.42,257.61L61.05,245.44L68.68,242.65L76.32,238.41L83.95,242.63L91.58,248.42L99.21,261.4L106.84,264.3L114.47,262.61L122.11,250.95L129.74,297.35L137.37,297.57L145,299.6L152.63,300.5L167.89,272.62L175.53,270.62L183.16,272.94L190.79,279.17L198.42,274.93L206.05,279.87L221.32,254.88L228.95,245.28L236.58,217.32L244.21,210.82L251.84,229.05L259.47,239.01L267.11,249.09L274.74,256.31L282.37,254.54L290,278.14L297.63,282.13L305.26,288.54L312.89,295.93L320.53,283.49L328.16,274.56L335.79,269.01L343.42,252.02L351.05,262.73L358.68,269.46L366.32,273.27L373.95,270.09L381.58,260.66L389.21,253.26L396.84,234.86L404.47,240.76L412.11,240.79L419.74,241.64L427.37,234.73L435,237.61L442.63,288.05L450.26,298.52L457.89,302.77L465.53,304L473.16,301.55L480.79,290.68L488.42,283.09L496.05,277.31L503.68,276.59L511.32,277.13L518.95,272.5L526.58,270.15L534.21,251.95L541.84,247.7L549.47,240.31L557.11,251.59L564.74,259.12L572.37,258.4L580,252.7" style="vector-effect: none; fill: none; stroke: rgb(239, 85, 59); stroke-opacity: 1; stroke-width: 0px; opacity: 1;"/></g><g class="points"/><g class="text"/></g><g class="trace scatter trace8fa721" style="stroke-miterlimit: 2; opacity: 1;"><g class="fills"/><g class="errorbars"/><g class="lines"><path class="js-line" d="M0,185.91L7.63,186.96L15.26,201.51L22.89,212.92L30.53,225.96L38.16,250.3L45.79,254.29L53.42,252.66L61.05,240.25L68.68,237.41L76.32,233.12L83.95,237.43L91.58,243.38L99.21,256.43L106.84,259.62L114.47,258.03L122.11,245.86L129.74,294.2L137.37,294.48L145,296.75L152.63,297.4L167.89,268.21L175.53,265.95L183.16,268.25L190.79,274.38L198.42,269.69L206.05,275.28L221.32,249.51L228.95,239.67L236.58,210.31L244.21,203.03L251.84,222.07L259.47,232.62L267.11,243.46L274.74,250.95L282.37,249.21L290,274.39L297.63,278.76L305.26,285.37L312.89,292.49L320.53,278.91L328.16,269.33L335.79,263.89L343.42,246.36L351.05,257.46L358.68,263.96L366.32,268.26L373.95,264.55L381.58,254.58L389.21,246.75L396.84,225.89L404.47,231.98L412.11,232.71L419.74,234.34L427.37,226.78L435,229.88L442.63,283.44L450.26,294.49L457.89,299.08L465.53,300.37L473.16,297.8L480.79,286.33L488.42,278.21L496.05,272.03L503.68,270.59L511.32,271.21L518.95,266.46L526.58,263.81L534.21,244.84L541.84,240.55L549.47,232.79L557.11,243.71L564.74,250.95L572.37,251.17L580,245.35" style="vector-effect: none; fill: none; stroke: rgb(143, 0, 255); stroke-opacity: 1; stroke-width: 3px; opacity: 1;"/></g><g class="points"/><g class="text"/></g><g class="trace scatter trace2e843f" style="stroke-miterlimit: 2;"><g class="fills"><g><path class="js-fill" d="M0,78.59L7.63,82.32L15.26,60.59L22.89,50.73L30.53,53.04L38.16,71.11L45.79,93.06L53.42,93.93L61.05,105.41L68.68,116.7L76.32,104.93L83.95,89.32L91.58,75.82L99.21,101.82L106.84,85.9L114.47,71.44L122.11,69.48L129.74,148.93L137.37,166.78L145,173.15L152.63,175.42L160.26,170.48L167.89,144.61L175.53,121.29L183.16,122.26L190.79,128.74L198.42,124.07L206.05,146.14L213.68,156.79L221.32,166.56L228.95,160.57L236.58,136.15L244.21,120.19L251.84,109.31L259.47,113.73L267.11,104.76L274.74,110.28L282.37,110.77L290,95.58L297.63,75.48L305.26,42.26L312.89,36.88L320.53,60L328.16,60.16L335.79,56.11L343.42,67.92L351.05,88.01L358.68,104.9L366.32,101.73L373.95,107.46L381.58,96.22L389.21,86.66L396.84,100.39L404.47,111.16L412.11,125.27L419.74,105.78L427.37,89.35L435,77.6L442.63,133.35L450.26,166.21L457.89,181.68L465.53,185.28L473.16,172.13L480.79,166.08L488.42,145.01L496.05,133.54L503.68,137.01L511.32,154.81L518.95,137.51L526.58,134.33L534.21,122.52L541.84,108.05L549.47,116.06L557.11,102.51L564.74,95.85L572.37,107.01L580,116.22L580,91.05L564.74,68.33L557.11,72.66L549.47,88.83L541.84,83.08L534.21,100.12L526.58,113.09L518.95,116.6L511.32,133.74L503.68,115.93L496.05,111.69L488.42,124.89L480.79,146.73L473.16,153.91L465.53,167.88L457.89,164.37L450.26,148.68L442.63,113.38L435,53.67L427.37,66.1L419.74,84.02L412.11,104.67L404.47,90.13L396.84,78.5L389.21,63.78L381.58,74.64L373.95,85.89L366.32,78.37L358.68,80.67L351.05,65.24L343.42,46.26L335.79,34.15L328.16,36.6L320.53,36.08L312.89,16L305.26,23.53L297.63,58.46L290,78.49L282.37,93.94L274.74,92.76L267.11,85.38L259.47,93.81L251.84,88.42L244.21,99.36L236.58,115.18L228.95,142.56L221.32,150.53L213.68,140.7L206.05,130.22L198.42,107.01L190.79,112.24L183.16,105.51L175.53,104.44L167.89,129.81L160.26,157.65L152.63,163.81L145,160.94L137.37,154.43L129.74,136.8L122.11,49.63L114.47,52.22L106.84,67.04L99.21,84.31L91.58,57.83L83.95,72.16L76.32,88.37L68.68,100.38L61.05,88.59L53.42,76.13L45.79,75.98L38.16,53.31L30.53,35.23L22.89,32.76L15.26,42.14L7.63,64.81L0,60.69Z" style="fill: rgb(255, 20, 147); fill-opacity: 0.2; stroke-width: 0;"/></g></g><g class="errorbars"/><g class="lines"><path class="js-line" d="M0,60.69L7.63,64.81L15.26,42.14L22.89,32.76L30.53,35.23L38.16,53.31L45.79,75.98L53.42,76.13L61.05,88.59L68.68,100.38L76.32,88.37L83.95,72.16L91.58,57.83L99.21,84.31L106.84,67.04L114.47,52.22L122.11,49.63L129.74,136.8L137.37,154.43L145,160.94L152.63,163.81L160.26,157.65L167.89,129.81L175.53,104.44L183.16,105.51L190.79,112.24L198.42,107.01L206.05,130.22L213.68,140.7L221.32,150.53L228.95,142.56L236.58,115.18L244.21,99.36L251.84,88.42L259.47,93.81L267.11,85.38L274.74,92.76L282.37,93.94L290,78.49L297.63,58.46L305.26,23.53L312.89,16L320.53,36.08L328.16,36.6L335.79,34.15L343.42,46.26L351.05,65.24L358.68,80.67L366.32,78.37L373.95,85.89L381.58,74.64L389.21,63.78L396.84,78.5L404.47,90.13L412.11,104.67L419.74,84.02L427.37,66.1L435,53.67L442.63,113.38L450.26,148.68L457.89,164.37L465.53,167.88L473.16,153.91L480.79,146.73L488.42,124.89L496.05,111.69L503.68,115.93L511.32,133.74L518.95,116.6L526.58,113.09L534.21,100.12L541.84,83.08L549.47,88.83L557.11,72.66L564.74,68.33L580,91.05" style="vector-effect: none; fill: none; stroke: rgb(171, 99, 250); stroke-opacity: 1; stroke-width: 0px; opacity: 1;"/></g><g class="points"/><g class="text"/></g><g class="trace scatter trace90d0fd" style="stroke-miterlimit: 2;"><g class="fills"/><g class="errorbars"/><g class="lines"><path class="js-line" d="M0,78.59L7.63,82.32L15.26,60.59L22.89,50.73L30.53,53.04L38.16,71.11L45.79,93.06L53.42,93.93L61.05,105.41L68.68,116.7L76.32,104.93L83.95,89.32L91.58,75.82L99.21,101.82L106.84,85.9L114.47,71.44L122.11,69.48L129.74,148.93L137.37,166.78L145,173.15L152.63,175.42L160.26,170.48L167.89,144.61L175.53,121.29L183.16,122.26L190.79,128.74L198.42,124.07L206.05,146.14L213.68,156.79L221.32,166.56L228.95,160.57L236.58,136.15L244.21,120.19L251.84,109.31L259.47,113.73L267.11,104.76L274.74,110.28L282.37,110.77L290,95.58L297.63,75.48L305.26,42.26L312.89,36.88L320.53,60L328.16,60.16L335.79,56.11L343.42,67.92L351.05,88.01L358.68,104.9L366.32,101.73L373.95,107.46L381.58,96.22L389.21,86.66L396.84,100.39L404.47,111.16L412.11,125.27L419.74,105.78L427.37,89.35L435,77.6L442.63,133.35L450.26,166.21L457.89,181.68L465.53,185.28L473.16,172.13L480.79,166.08L488.42,145.01L496.05,133.54L503.68,137.01L511.32,154.81L518.95,137.51L526.58,134.33L534.21,122.52L541.84,108.05L549.47,116.06L557.11,102.51L564.74,95.85L572.37,107.01L580,116.22" style="vector-effect: none; fill: none; stroke: rgb(255, 161, 90); stroke-opacity: 1; stroke-width: 0px; opacity: 1;"/></g><g class="points"/><g class="text"/></g><g class="trace scatter trace720e5d" style="stroke-miterlimit: 2; opacity: 1;"><g class="fills"/><g class="errorbars"/><g class="lines"><path class="js-line" d="M0,69.64L7.63,73.56L15.26,51.36L22.89,41.74L30.53,44.13L38.16,62.21L45.79,84.52L53.42,85.03L61.05,97L68.68,108.54L76.32,96.65L83.95,80.74L91.58,66.82L99.21,93.06L106.84,76.47L114.47,61.83L122.11,59.55L129.74,142.86L137.37,160.61L145,167.05L152.63,169.62L160.26,164.07L167.89,137.21L175.53,112.87L183.16,113.88L190.79,120.49L198.42,115.54L206.05,138.18L213.68,148.74L221.32,158.55L228.95,151.56L236.58,125.66L244.21,109.78L251.84,98.86L259.47,103.77L267.11,95.07L274.74,101.52L282.37,102.36L290,87.04L297.63,66.97L305.26,32.9L312.89,26.44L320.53,48.04L328.16,48.38L335.79,45.13L343.42,57.09L351.05,76.63L358.68,92.79L366.32,90.05L373.95,96.67L381.58,85.43L389.21,75.22L396.84,89.44L404.47,100.64L412.11,114.97L419.74,94.9L427.37,77.72L435,65.63L442.63,123.36L450.26,157.45L457.89,173.03L465.53,176.58L473.16,163.02L480.79,156.41L488.42,134.95L496.05,122.61L503.68,126.47L511.32,144.27L518.95,127.06L526.58,123.71L534.21,111.32L541.84,95.56L549.47,102.44L557.11,87.58L564.74,82.09L572.37,93.6L580,103.64" style="vector-effect: none; fill: none; stroke: rgb(255, 20, 147); stroke-opacity: 1; stroke-width: 3px; opacity: 1;"/></g><g class="points"/><g class="text"/></g></g></g></g><g class="zerolinelayer-above"/><path class="xlines-above crisp" d="M79,420.5H661M79,99.5H661" style="fill: none; stroke-width: 1px; stroke: rgb(0, 0, 0); stroke-opacity: 1;"/><path class="ylines-above crisp" d="M79.5,100V420M660.5,100V420" style="fill: none; stroke-width: 1px; stroke: rgb(0, 0, 0); stroke-opacity: 1;"/><g class="overlines-above"/><g class="xaxislayer-above"><path class="xtick ticks crisp" d="M0,421v5" transform="translate(141.05,0)" style="stroke: rgb(68, 68, 68); stroke-opacity: 1; stroke-width: 1px;"/><path class="xtick ticks crisp" d="M0,421v5" transform="translate(217.37,0)" style="stroke: rgb(68, 68, 68); stroke-opacity: 1; stroke-width: 1px;"/><path class="xtick ticks crisp" d="M0,421v5" transform="translate(293.68,0)" style="stroke: rgb(68, 68, 68); stroke-opacity: 1; stroke-width: 1px;"/><path class="xtick ticks crisp" d="M0,421v5" transform="translate(370,0)" style="stroke: rgb(68, 68, 68); stroke-opacity: 1; stroke-width: 1px;"/><path class="xtick ticks crisp" d="M0,421v5" transform="translate(446.32,0)" style="stroke: rgb(68, 68, 68); stroke-opacity: 1; stroke-width: 1px;"/><path class="xtick ticks crisp" d="M0,421v5" transform="translate(522.63,0)" style="stroke: rgb(68, 68, 68); stroke-opacity: 1; stroke-width: 1px;"/><path class="xtick ticks crisp" d="M0,421v5" transform="translate(598.95,0)" style="stroke: rgb(68, 68, 68); stroke-opacity: 1; stroke-width: 1px;"/><g class="xtick"><text text-anchor="middle" x="0" y="440.4" transform="translate(141.05,0)" style="font-family: 'Open Sans', verdana, arial, sans-serif; font-size: 12px; fill: rgb(42, 63, 95); fill-opacity: 1; white-space: pre;">−1500</text></g><g class="xtick"><text text-anchor="middle" x="0" y="440.4" style="font-family: 'Open Sans', verdana, arial, sans-serif; font-size: 12px; fill: rgb(42, 63, 95); fill-opacity: 1; white-space: pre;" transform="translate(217.37,0)">−1000</text></g><g class="xtick"><text text-anchor="middle" x="0" y="440.4" style="font-family: 'Open Sans', verdana, arial, sans-serif; font-size: 12px; fill: rgb(42, 63, 95); fill-opacity: 1; white-space: pre;" transform="translate(293.68,0)">−500</text></g><g class="xtick"><text text-anchor="middle" x="0" y="440.4" style="font-family: 'Open Sans', verdana, arial, sans-serif; font-size: 12px; fill: rgb(42, 63, 95); fill-opacity: 1; white-space: pre;" transform="translate(370,0)">0</text></g><g class="xtick"><text text-anchor="middle" x="0" y="440.4" style="font-family: 'Open Sans', verdana, arial, sans-serif; font-size: 12px; fill: rgb(42, 63, 95); fill-opacity: 1; white-space: pre;" transform="translate(446.32,0)">500</text></g><g class="xtick"><text text-anchor="middle" x="0" y="440.4" style="font-family: 'Open Sans', verdana, arial, sans-serif; font-size: 12px; fill: rgb(42, 63, 95); fill-opacity: 1; white-space: pre;" transform="translate(522.63,0)">1000</text></g><g class="xtick"><text text-anchor="middle" x="0" y="440.4" style="font-family: 'Open Sans', verdana, arial, sans-serif; font-size: 12px; fill: rgb(42, 63, 95); fill-opacity: 1; white-space: pre;" transform="translate(598.95,0)">1500</text></g></g><g class="yaxislayer-above"><path class="ytick ticks crisp" d="M79,0h-5" transform="translate(0,379.41)" style="stroke: rgb(68, 68, 68); stroke-opacity: 1; stroke-width: 1px;"/><path class="ytick ticks crisp" d="M79,0h-5" transform="translate(0,333.77)" style="stroke: rgb(68, 68, 68); stroke-opacity: 1; stroke-width: 1px;"/><path class="ytick ticks crisp" d="M79,0h-5" transform="translate(0,288.13)" style="stroke: rgb(68, 68, 68); stroke-opacity: 1; stroke-width: 1px;"/><path class="ytick ticks crisp" d="M79,0h-5" transform="translate(0,242.49)" style="stroke: rgb(68, 68, 68); stroke-opacity: 1; stroke-width: 1px;"/><path class="ytick ticks crisp" d="M79,0h-5" transform="translate(0,196.85)" style="stroke: rgb(68, 68, 68); stroke-opacity: 1; stroke-width: 1px;"/><path class="ytick ticks crisp" d="M79,0h-5" transform="translate(0,151.21)" style="stroke: rgb(68, 68, 68); stroke-opacity: 1; stroke-width: 1px;"/><path class="ytick ticks crisp" d="M79,0h-5" transform="translate(0,105.57)" style="stroke: rgb(68, 68, 68); stroke-opacity: 1; stroke-width: 1px;"/><g class="ytick"><text text-anchor="end" x="71.6" y="4.199999999999999" transform="translate(0,379.41)" style="font-family: 'Open Sans', verdana, arial, sans-serif; font-size: 12px; fill: rgb(42, 63, 95); fill-opacity: 1; white-space: pre;">0.15</text></g><g class="ytick"><text text-anchor="end" x="71.6" y="4.199999999999999" style="font-family: 'Open Sans', verdana, arial, sans-serif; font-size: 12px; fill: rgb(42, 63, 95); fill-opacity: 1; white-space: pre;" transform="translate(0,333.77)">0.2</text></g><g class="ytick"><text text-anchor="end" x="71.6" y="4.199999999999999" style="font-family: 'Open Sans', verdana, arial, sans-serif; font-size: 12px; fill: rgb(42, 63, 95); fill-opacity: 1; white-space: pre;" transform="translate(0,288.13)">0.25</text></g><g class="ytick"><text text-anchor="end" x="71.6" y="4.199999999999999" style="font-family: 'Open Sans', verdana, arial, sans-serif; font-size: 12px; fill: rgb(42, 63, 95); fill-opacity: 1; white-space: pre;" transform="translate(0,242.49)">0.3</text></g><g class="ytick"><text text-anchor="end" x="71.6" y="4.199999999999999" style="font-family: 'Open Sans', verdana, arial, sans-serif; font-size: 12px; fill: rgb(42, 63, 95); fill-opacity: 1; white-space: pre;" transform="translate(0,196.85)">0.35</text></g><g class="ytick"><text text-anchor="end" x="71.6" y="4.199999999999999" style="font-family: 'Open Sans', verdana, arial, sans-serif; font-size: 12px; fill: rgb(42, 63, 95); fill-opacity: 1; white-space: pre;" transform="translate(0,151.21)">0.4</text></g><g class="ytick"><text text-anchor="end" x="71.6" y="4.199999999999999" style="font-family: 'Open Sans', verdana, arial, sans-serif; font-size: 12px; fill: rgb(42, 63, 95); fill-opacity: 1; white-space: pre;" transform="translate(0,105.57)">0.45</text></g></g><g class="overaxes-above"/></g></g><g class="polarlayer"/><g class="smithlayer"/><g class="ternarylayer"/><g class="geolayer"/><g class="funnelarealayer"/><g class="pielayer"/><g class="iciclelayer"/><g class="treemaplayer"/><g class="sunburstlayer"/><g class="glimages"/><defs id="topdefs-4db68d"><g class="clips"/><clipPath id="legend4db68d"><rect width="296" height="29" x="1" y="1"/></clipPath></defs><g class="layer-above"><g class="imagelayer"/><g class="shapelayer"><g class="shape-group" data-index="0" clip-path="url(#clip4db68dx)"><path data-index="0" fill-rule="evenodd" d="M370,420L370,100" style="opacity: 1; stroke: rgb(0, 0, 0); stroke-opacity: 1; fill: rgb(0, 0, 0); fill-opacity: 0; stroke-dasharray: 9px, 9px; stroke-width: 2px;"/></g><g class="shape-group" data-index="1" clip-path="url(#clip4db68dx)"><path data-index="1" fill-rule="evenodd" d="M212.64,420L212.64,100" style="opacity: 1; stroke: rgb(128, 128, 128); stroke-opacity: 1; fill: rgb(0, 0, 0); fill-opacity: 0; stroke-dasharray: 3px, 3px; stroke-width: 2px;"/></g></g></g><g class="infolayer"><g class="legend" pointer-events="all" transform="translate(362,62.599999999999994)"><rect class="bg" shape-rendering="crispEdges" style="stroke: rgb(0, 0, 0); stroke-opacity: 1; fill: rgb(255, 255, 255); fill-opacity: 0.8; stroke-width: 1px;" width="297" height="30" x="0.5" y="0.5"/><g class="scrollbox" transform="" clip-path="url(#legend4db68d)"><g class="groups" transform=""><g class="traces" transform="translate(0,15.5)" style="opacity: 1;"><text class="legendtext" text-anchor="start" x="40" y="4.680000000000001" style="font-family: 'Open Sans', verdana, arial, sans-serif; font-size: 12px; fill: rgb(42, 63, 95); fill-opacity: 1; white-space: pre;">Standard (AAAB)</text><g class="layers" style="opacity: 1;"><g class="legendfill"/><g class="legendlines"><path class="js-line" d="M5,0h30" style="fill: none; stroke: rgb(143, 0, 255); stroke-opacity: 1; stroke-width: 3px;"/></g><g class="legendsymbols"><g class="legendpoints"/></g></g><rect class="legendtoggle" x="0" y="-9.5" width="145.46875" height="19" style="fill: rgb(0, 0, 0); fill-opacity: 0;"/></g></g><g class="groups" transform="translate(147.96875,0)"><g class="traces" transform="translate(0,15.5)" style="opacity: 1;"><text class="legendtext" text-anchor="start" x="40" y="4.680000000000001" style="font-family: 'Open Sans', verdana, arial, sans-serif; font-size: 12px; fill: rgb(42, 63, 95); fill-opacity: 1; white-space: pre;">Omission (AXAB)</text><g class="layers" style="opacity: 1;"><g class="legendfill"/><g class="legendlines"><path class="js-line" d="M5,0h30" style="fill: none; stroke: rgb(255, 20, 147); stroke-opacity: 1; stroke-width: 3px;"/></g><g class="legendsymbols"><g class="legendpoints"/></g></g><rect class="legendtoggle" x="0" y="-9.5" width="145.5546875" height="19" style="fill: rgb(0, 0, 0); fill-opacity: 0;"/></g></g></g><rect class="scrollbar" rx="20" ry="3" width="0" height="0" style="fill: rgb(128, 139, 164); fill-opacity: 1;" x="0" y="0"/></g><g class="g-gtitle"><text class="gtitle" x="350" y="50" text-anchor="middle" dy="0em" style="opacity: 1; font-family: Arial; font-size: 18px; fill: rgb(0, 0, 0); fill-opacity: 1; white-space: pre;"><tspan class="line" dy="0em" x="350" y="50"><tspan style="font-weight:bold">Figure f010: V1 Delta SFC</tspan></tspan><tspan class="line" dy="1.3em" x="350" y="50">​<tspan style="font-size:70%" dy="-0.6em">Continuous 2-4 Hz Phase-Locking Value | N=655 units</tspan><tspan dy="0.42em">​</tspan></tspan></text></g><g class="g-xtitle"><text class="xtitle" x="370" y="467.200390625" text-anchor="middle" style="opacity: 1; font-family: 'Open Sans', verdana, arial, sans-serif; font-size: 14px; fill: rgb(42, 63, 95); fill-opacity: 1; white-space: pre;">Time from Omission (ms)</text></g><g class="g-ytitle"><text class="ytitle" transform="rotate(-90,24.941796875,260)" x="24.941796875" y="260" text-anchor="middle" style="opacity: 1; font-family: 'Open Sans', verdana, arial, sans-serif; font-size: 14px; fill: rgb(42, 63, 95); fill-opacity: 1; white-space: pre;">Delta SFC (PLV)</text></g><g class="annotation" data-index="0" style="opacity: 1;"><g class="annotation-text-g" transform="rotate(0,419.5,109.5)"><g class="cursor-pointer" transform="translate(370,100)"><rect class="bg" x="0.5" y="0.5" width="98" height="18" style="stroke-width: 1px; stroke: rgb(0, 0, 0); stroke-opacity: 0; fill: rgb(0, 0, 0); fill-opacity: 0;"/><text class="annotation-text" text-anchor="middle" x="49.23828125" y="14" style="font-family: 'Open Sans', verdana, arial, sans-serif; font-size: 12px; fill: rgb(42, 63, 95); fill-opacity: 1; white-space: pre;">Omission Onset</text></g></g></g><g class="annotation" data-index="1" style="opacity: 1;"><g class="annotation-text-g" transform="rotate(0,242.14,109.5)"><g class="cursor-pointer" transform="translate(213,100)"><rect class="bg" x="0.5" y="0.5" width="58" height="18" style="stroke-width: 1px; stroke: rgb(0, 0, 0); stroke-opacity: 0; fill: rgb(0, 0, 0); fill-opacity: 0;"/><text class="annotation-text" text-anchor="middle" x="29.12890625" y="14" style="font-family: 'Open Sans', verdana, arial, sans-serif; font-size: 12px; fill: rgb(42, 63, 95); fill-opacity: 1; white-space: pre;">P1 Onset</text></g></g></g></g></svg>