<svg class="main-svg" xmlns="http://www.w3.org/2000/svg" xmlns:xlink="http://www.w3.org/1999/xlink" width="700" height="500" style="" viewBox="0 0 700 500"><rect x="0" y="0" width="700" height="500" style="fill: rgb(255, 255, 255); fill-opacity: 1;"/><defs id="defs-8cb412"><g class="clips"><clipPath id="clip8cb412xyplot" class="plotclip"><rect width="580" height="320"/></clipPath><clipPath class="axesclip" id="clip8cb412x"><rect x="80" y="0" width="580" height="500"/></clipPath><clipPath class="axesclip" id="clip8cb412y"><rect x="0" y="100" width="700" height="320"/></clipPath><clipPath class="axesclip" id="clip8cb412xy"><rect x="80" y="100" width="580" height="320"/></clipPath></g><g class="gradients"/><g class="patterns"/></defs><g class="bglayer"/><g class="layer-below"><g class="imagelayer"/><g class="shapelayer"/></g><g class="cartesianlayer"><g class="subplot xy"><g class="layer-subplot"><g class="shapelayer"/><g class="imagelayer"/></g><g class="minor-gridlayer"><g class="x"/><g class="y"/></g><g class="gridlayer"><g class="x"><path class="xgrid crisp" transform="translate(141.05,0)" d="M0,100v320" style="stroke: rgb(211, 211, 211); stroke-opacity: 1; stroke-width: 1px;"/><path class="xgrid crisp" transform="translate(217.37,0)" d="M0,100v320" style="stroke: rgb(211, 211, 211); stroke-opacity: 1; stroke-width: 1px;"/><path class="xgrid crisp" transform="translate(293.68,0)" d="M0,100v320" style="stroke: rgb(211, 211, 211); stroke-opacity: 1; stroke-width: 1px;"/><path class="xgrid crisp" transform="translate(446.32,0)" d="M0,100v320" style="stroke: rgb(211, 211, 211); stroke-opacity: 1; stroke-width: 1px;"/><path class="xgrid crisp" transform="translate(522.63,0)" d="M0,100v320" style="stroke: rgb(211, 211, 211); stroke-opacity: 1; stroke-width: 1px;"/><path class="xgrid crisp" transform="translate(598.95,0)" d="M0,100v320" style="stroke: rgb(211, 211, 211); stroke-opacity: 1; stroke-width: 1px;"/></g><g class="y"><path class="ygrid crisp" transform="translate(0,394.62)" d="M80,0h580" style="stroke: rgb(211, 211, 211); stroke-opacity: 1; stroke-width: 1px;"/><path class="ygrid crisp" transform="translate(0,355.56)" d="M80,0h580" style="stroke: rgb(211, 211, 211); stroke-opacity: 1; stroke-width: 1px;"/><path class="ygrid crisp" transform="translate(0,316.51)" d="M80,0h580" style="stroke: rgb(211, 211, 211); stroke-opacity: 1; stroke-width: 1px;"/><path class="ygrid crisp" transform="translate(0,277.46000000000004)" d="M80,0h580" style="stroke: rgb(211, 211, 211); stroke-opacity: 1; stroke-width: 1px;"/><path class="ygrid crisp" transform="translate(0,238.41)" d="M80,0h580" style="stroke: rgb(211, 211, 211); stroke-opacity: 1; stroke-width: 1px;"/><path class="ygrid crisp" transform="translate(0,199.36)" d="M80,0h580" style="stroke: rgb(211, 211, 211); stroke-opacity: 1; stroke-width: 1px;"/><path class="ygrid crisp" transform="translate(0,160.31)" d="M80,0h580" style="stroke: rgb(211, 211, 211); stroke-opacity: 1; stroke-width: 1px;"/><path class="ygrid crisp" transform="translate(0,121.26)" d="M80,0h580" style="stroke: rgb(211, 211, 211); stroke-opacity: 1; stroke-width: 1px;"/></g></g><g class="zerolinelayer"><path class="xzl zl crisp" transform="translate(370,0)" d="M0,100v320" style="stroke: rgb(235, 240, 248); stroke-opacity: 1; stroke-width: 2px;"/></g><g class="layer-between"><g class="shapelayer"/><g class="imagelayer"/></g><path class="xlines-below"/><path class="ylines-below"/><g class="overlines-below"/><g class="xaxislayer-below"/><g class="yaxislayer-below"/><g class="overaxes-below"/><g class="overplot"><g class="xy" transform="translate(80,100)" clip-path="url(#clip8cb412xyplot)"><g class="scatterlayer mlayer"><g class="trace scatter tracef63fa2" style="stroke-miterlimit: 2;"><g class="fills"><g><path class="js-fill" d="M0,198.17L7.63,187.91L15.26,187.6L22.89,183.71L30.53,171.63L38.16,161.34L45.79,158.5L53.42,158.79L61.05,176.12L68.68,185.84L76.32,187.35L83.95,194.75L91.58,192.89L99.21,180.75L106.84,182.7L114.47,175.55L122.11,166.84L137.37,187.26L145,202.51L152.63,221.84L160.26,216.61L167.89,202.14L175.53,197.66L183.16,192.25L190.79,184.44L206.05,171.16L213.68,174.11L228.95,212.9L236.58,215.73L244.21,199.86L251.84,176.27L259.47,171.07L267.11,170.73L274.74,168L282.37,171.39L290,181.49L297.63,199.75L305.26,222.72L312.89,239.5L320.53,231.56L328.16,202.64L335.79,211.21L343.42,262.4L351.05,304L358.68,288.21L366.32,259.87L373.95,250.41L381.58,254.52L389.21,247.08L396.84,242.48L404.47,245.81L412.11,243.89L419.74,258.99L427.37,261.76L435,260.14L442.63,278.9L450.26,277.86L457.89,285.27L465.53,278.5L480.79,266.3L488.42,271.75L496.05,272.98L503.68,271.81L511.32,282.41L518.95,285.31L526.58,285.13L534.21,290.44L541.84,290.92L549.47,292.63L557.11,284.98L564.74,279.58L572.37,279.68L580,297.43L580,282.85L572.37,266.11L564.74,264.41L557.11,271.51L549.47,281.32L541.84,279.91L534.21,279.95L526.58,273.75L518.95,273.03L511.32,270.09L503.68,258.59L496.05,260.47L488.42,259.35L480.79,253.02L473.16,259.79L465.53,267.66L457.89,275.57L450.26,268.16L442.63,268.34L435,246.79L427.37,247.95L419.74,245.42L412.11,229.11L404.47,232.77L396.84,228.83L389.21,234.98L381.58,245.33L373.95,240.61L366.32,250.63L358.68,278.26L351.05,294.22L343.42,253.57L335.79,200.68L328.16,191.43L320.53,220.07L312.89,229.1L305.26,213.21L297.63,189.53L290,170.6L282.37,158.63L274.74,154.73L267.11,157.49L259.47,157.82L251.84,163.09L244.21,188.26L236.58,204.14L228.95,200.73L221.32,179.17L213.68,160.83L206.05,157.94L198.42,164.91L175.53,186.96L167.89,191.25L160.26,205.98L152.63,211.37L145,191.4L137.37,175.64L129.74,165.08L122.11,152.29L106.84,168.35L99.21,166.47L91.58,179.99L83.95,183.38L76.32,174.34L68.68,173.5L61.05,162.89L53.42,143.64L45.79,144.33L38.16,146.9L30.53,158.58L22.89,171.6L15.26,176.21L7.63,176.19L0,185.18Z" style="fill: rgb(143, 0, 255); fill-opacity: 0.2; stroke-width: 0;"/></g></g><g class="errorbars"/><g class="lines"><path class="js-line" d="M0,185.18L7.63,176.19L15.26,176.21L22.89,171.6L30.53,158.58L38.16,146.9L45.79,144.33L53.42,143.64L61.05,162.89L68.68,173.5L76.32,174.34L83.95,183.38L91.58,179.99L99.21,166.47L106.84,168.35L122.11,152.29L129.74,165.08L137.37,175.64L145,191.4L152.63,211.37L160.26,205.98L167.89,191.25L175.53,186.96L198.42,164.91L206.05,157.94L213.68,160.83L221.32,179.17L228.95,200.73L236.58,204.14L244.21,188.26L251.84,163.09L259.47,157.82L267.11,157.49L274.74,154.73L282.37,158.63L290,170.6L297.63,189.53L305.26,213.21L312.89,229.1L320.53,220.07L328.16,191.43L335.79,200.68L343.42,253.57L351.05,294.22L358.68,278.26L366.32,250.63L373.95,240.61L381.58,245.33L389.21,234.98L396.84,228.83L404.47,232.77L412.11,229.11L419.74,245.42L427.37,247.95L435,246.79L442.63,268.34L450.26,268.16L457.89,275.57L465.53,267.66L473.16,259.79L480.79,253.02L488.42,259.35L496.05,260.47L503.68,258.59L511.32,270.09L518.95,273.03L526.58,273.75L534.21,279.95L541.84,279.91L549.47,281.32L557.11,271.51L564.74,264.41L572.37,266.11L580,282.85" style="vector-effect: none; fill: none; stroke: rgb(99, 110, 250); stroke-opacity: 1; stroke-width: 0px; opacity: 1;"/></g><g class="points"/><g class="text"/></g><g class="trace scatter tracebea406" style="stroke-miterlimit: 2;"><g class="fills"/><g class="errorbars"/><g class="lines"><path class="js-line" d="M0,198.17L7.63,187.91L15.26,187.6L22.89,183.71L30.53,171.63L38.16,161.34L45.79,158.5L53.42,158.79L61.05,176.12L68.68,185.84L76.32,187.35L83.95,194.75L91.58,192.89L99.21,180.75L106.84,182.7L114.47,175.55L122.11,166.84L137.37,187.26L145,202.51L152.63,221.84L160.26,216.61L167.89,202.14L175.53,197.66L183.16,192.25L190.79,184.44L206.05,171.16L213.68,174.11L228.95,212.9L236.58,215.73L244.21,199.86L251.84,176.27L259.47,171.07L267.11,170.73L274.74,168L282.37,171.39L290,181.49L297.63,199.75L305.26,222.72L312.89,239.5L320.53,231.56L328.16,202.64L335.79,211.21L343.42,262.4L351.05,304L358.68,288.21L366.32,259.87L373.95,250.41L381.58,254.52L389.21,247.08L396.84,242.48L404.47,245.81L412.11,243.89L419.74,258.99L427.37,261.76L435,260.14L442.63,278.9L450.26,277.86L457.89,285.27L465.53,278.5L480.79,266.3L488.42,271.75L496.05,272.98L503.68,271.81L511.32,282.41L518.95,285.31L526.58,285.13L534.21,290.44L541.84,290.92L549.47,292.63L557.11,284.98L564.74,279.58L572.37,279.68L580,297.43" style="vector-effect: none; fill: none; stroke: rgb(239, 85, 59); stroke-opacity: 1; stroke-width: 0px; opacity: 1;"/></g><g class="points"/><g class="text"/></g><g class="trace scatter tracea49bb0" style="stroke-miterlimit: 2; opacity: 1;"><g class="fills"/><g class="errorbars"/><g class="lines"><path class="js-line" d="M0,191.67L7.63,182.05L15.26,181.9L22.89,177.65L30.53,165.1L38.16,154.12L45.79,151.41L53.42,151.21L61.05,169.5L68.68,179.67L76.32,180.84L83.95,189.07L91.58,186.44L99.21,173.61L106.84,175.52L114.47,168.17L122.11,159.57L137.37,181.45L145,196.96L152.63,216.61L160.26,211.29L167.89,196.7L175.53,192.31L183.16,185.81L190.79,177.97L206.05,164.55L213.68,167.47L221.32,185.86L228.95,206.81L236.58,209.93L244.21,194.06L251.84,169.68L259.47,164.44L267.11,164.11L274.74,161.36L282.37,165.01L290,176.04L297.63,194.64L305.26,217.97L312.89,234.3L320.53,225.81L328.16,197.03L335.79,205.94L343.42,257.98L351.05,299.11L358.68,283.23L366.32,255.25L373.95,245.51L381.58,249.92L389.21,241.03L396.84,235.66L404.47,239.29L412.11,236.5L419.74,252.21L427.37,254.85L435,253.46L442.63,273.62L450.26,273.01L457.89,280.42L473.16,266.23L480.79,259.66L488.42,265.55L496.05,266.73L503.68,265.2L511.32,276.25L518.95,279.17L526.58,279.44L534.21,285.2L541.84,285.42L549.47,286.98L557.11,278.24L564.74,271.99L572.37,272.9L580,290.14" style="vector-effect: none; fill: none; stroke: rgb(143, 0, 255); stroke-opacity: 1; stroke-width: 3px; opacity: 1;"/></g><g class="points"/><g class="text"/></g><g class="trace scatter trace5cc672" style="stroke-miterlimit: 2;"><g class="fills"><g><path class="js-fill" d="M0,69.33L7.63,66.33L15.26,67.65L22.89,69.18L30.53,51.16L38.16,39.25L45.79,49.47L53.42,68.56L61.05,79.06L68.68,80.29L76.32,67.38L83.95,73.72L91.58,81.07L99.21,97.4L106.84,100.6L114.47,90.46L122.11,88.35L129.74,107.2L137.37,112.7L145,112.7L152.63,102.73L160.26,94.21L167.89,75.65L175.53,74.57L183.16,71.18L190.79,66.52L198.42,68.16L206.05,87.16L213.68,93.42L221.32,100.32L228.95,94.09L236.58,82.32L244.21,80.38L251.84,85.76L259.47,81.71L267.11,89.72L274.74,92.05L282.37,81.35L290,81.19L297.63,72.88L305.26,61.47L312.89,65.22L320.53,84.19L328.16,72.14L335.79,69.58L351.05,85.63L358.68,97.93L366.32,101L373.95,84.59L381.58,91.65L389.21,73.82L396.84,87.74L404.47,107.52L412.11,138.15L419.74,133.17L427.37,115.25L435,139.82L442.63,153.98L450.26,152.43L457.89,138.19L465.53,131.57L473.16,125.94L480.79,133.28L488.42,130L496.05,122.42L503.68,102.56L511.32,107.06L518.95,111.43L526.58,114.69L534.21,118.1L541.84,99.53L549.47,113.36L557.11,109.68L564.74,113.31L572.37,103.77L580,117.76L580,94.59L572.37,79.76L564.74,89.18L557.11,84.6L549.47,88.82L541.84,73.84L534.21,92.62L526.58,88.6L511.32,82.43L503.68,76.18L496.05,98.07L488.42,105.56L480.79,108.72L473.16,102.8L465.53,106.95L457.89,114.12L450.26,130.5L442.63,131.7L435,113.69L427.37,89.46L419.74,108.61L412.11,115.88L404.47,80.03L396.84,57.7L389.21,44.95L381.58,67.11L373.95,60.99L366.32,78.57L358.68,74.26L351.05,62.37L343.42,55.16L335.79,48.23L328.16,49.67L320.53,60.69L312.89,42.14L305.26,39.35L297.63,53.01L290,60.85L282.37,60.68L274.74,72.48L267.11,69.37L259.47,60.24L251.84,64.75L244.21,58.89L236.58,61.2L228.95,75.75L221.32,81.9L213.68,74.35L206.05,68.3L198.42,47.03L190.79,45.78L183.16,51.08L175.53,55.14L167.89,55.23L160.26,74.95L152.63,83.6L145,94.3L137.37,93.67L129.74,89.5L122.11,67.29L114.47,70.42L106.84,81.19L99.21,77.8L91.58,61.16L76.32,46.81L68.68,60.9L61.05,59.97L53.42,49.17L45.79,27.66L38.16,16L30.53,29.08L22.89,46.79L15.26,46.4L7.63,45L0,48.55Z" style="fill: rgb(255, 20, 147); fill-opacity: 0.2; stroke-width: 0;"/></g></g><g class="errorbars"/><g class="lines"><path class="js-line" d="M0,48.55L7.63,45L15.26,46.4L22.89,46.79L30.53,29.08L38.16,16L45.79,27.66L53.42,49.17L61.05,59.97L68.68,60.9L76.32,46.81L91.58,61.16L99.21,77.8L106.84,81.19L114.47,70.42L122.11,67.29L129.74,89.5L137.37,93.67L145,94.3L152.63,83.6L160.26,74.95L167.89,55.23L175.53,55.14L183.16,51.08L190.79,45.78L198.42,47.03L206.05,68.3L213.68,74.35L221.32,81.9L228.95,75.75L236.58,61.2L244.21,58.89L251.84,64.75L259.47,60.24L267.11,69.37L274.74,72.48L282.37,60.68L290,60.85L297.63,53.01L305.26,39.35L312.89,42.14L320.53,60.69L328.16,49.67L335.79,48.23L343.42,55.16L351.05,62.37L358.68,74.26L366.32,78.57L373.95,60.99L381.58,67.11L389.21,44.95L396.84,57.7L404.47,80.03L412.11,115.88L419.74,108.61L427.37,89.46L435,113.69L442.63,131.7L450.26,130.5L457.89,114.12L465.53,106.95L473.16,102.8L480.79,108.72L488.42,105.56L496.05,98.07L503.68,76.18L511.32,82.43L526.58,88.6L534.21,92.62L541.84,73.84L549.47,88.82L557.11,84.6L564.74,89.18L572.37,79.76L580,94.59" style="vector-effect: none; fill: none; stroke: rgb(171, 99, 250); stroke-opacity: 1; stroke-width: 0px; opacity: 1;"/></g><g class="points"/><g class="text"/></g><g class="trace scatter traced5b61f" style="stroke-miterlimit: 2;"><g class="fills"/><g class="errorbars"/><g class="lines"><path class="js-line" d="M0,69.33L7.63,66.33L15.26,67.65L22.89,69.18L30.53,51.16L38.16,39.25L45.79,49.47L53.42,68.56L61.05,79.06L68.68,80.29L76.32,67.38L83.95,73.72L91.58,81.07L99.21,97.4L106.84,100.6L114.47,90.46L122.11,88.35L129.74,107.2L137.37,112.7L145,112.7L152.63,102.73L160.26,94.21L167.89,75.65L175.53,74.57L183.16,71.18L190.79,66.52L198.42,68.16L206.05,87.16L213.68,93.42L221.32,100.32L228.95,94.09L236.58,82.32L244.21,80.38L251.84,85.76L259.47,81.71L267.11,89.72L274.74,92.05L282.37,81.35L290,81.19L297.63,72.88L305.26,61.47L312.89,65.22L320.53,84.19L328.16,72.14L335.79,69.58L351.05,85.63L358.68,97.93L366.32,101L373.95,84.59L381.58,91.65L389.21,73.82L396.84,87.74L404.47,107.52L412.11,138.15L419.74,133.17L427.37,115.25L435,139.82L442.63,153.98L450.26,152.43L457.89,138.19L465.53,131.57L473.16,125.94L480.79,133.28L488.42,130L496.05,122.42L503.68,102.56L511.32,107.06L518.95,111.43L526.58,114.69L534.21,118.1L541.84,99.53L549.47,113.36L557.11,109.68L564.74,113.31L572.37,103.77L580,117.76" style="vector-effect: none; fill: none; stroke: rgb(255, 161, 90); stroke-opacity: 1; stroke-width: 0px; opacity: 1;"/></g><g class="points"/><g class="text"/></g><g class="trace scatter tracebe6b4d" style="stroke-miterlimit: 2; opacity: 1;"><g class="fills"/><g class="errorbars"/><g class="lines"><path class="js-line" d="M0,58.94L7.63,55.66L15.26,57.02L22.89,57.99L30.53,40.12L38.16,27.63L45.79,38.56L53.42,58.86L61.05,69.52L68.68,70.6L76.32,57.09L91.58,71.11L99.21,87.6L106.84,90.9L114.47,80.44L122.11,77.82L129.74,98.35L137.37,103.18L145,103.5L152.63,93.16L160.26,84.58L167.89,65.44L175.53,64.85L183.16,61.13L190.79,56.15L198.42,57.59L206.05,77.73L213.68,83.88L221.32,91.11L228.95,84.92L236.58,71.76L244.21,69.63L251.84,75.26L259.47,70.98L267.11,79.54L274.74,82.26L282.37,71.01L290,71.02L297.63,62.95L305.26,50.41L312.89,53.68L320.53,72.44L328.16,60.9L335.79,58.9L343.42,66.35L351.05,74L358.68,86.1L366.32,89.79L373.95,72.79L381.58,79.38L389.21,59.38L396.84,72.72L404.47,93.78L412.11,127.01L419.74,120.89L427.37,102.35L435,126.75L442.63,142.84L450.26,141.47L457.89,126.16L465.53,119.26L473.16,114.37L480.79,121L488.42,117.78L496.05,110.24L503.68,89.37L511.32,94.75L534.21,105.36L541.84,86.68L549.47,101.09L557.11,97.14L564.74,101.25L572.37,91.77L580,106.17" style="vector-effect: none; fill: none; stroke: rgb(255, 20, 147); stroke-opacity: 1; stroke-width: 3px; opacity: 1;"/></g><g class="points"/><g class="text"/></g></g></g></g><g class="zerolinelayer-above"/><path class="xlines-above crisp" d="M79,420.5H661M79,99.5H661" style="fill: none; stroke-width: 1px; stroke: rgb(0, 0, 0); stroke-opacity: 1;"/><path class="ylines-above crisp" d="M79.5,100V420M660.5,100V420" style="fill: none; stroke-width: 1px; stroke: rgb(0, 0, 0); stroke-opacity: 1;"/><g class="overlines-above"/><g class="xaxislayer-above"><path class="xtick ticks crisp" d="M0,421v5" transform="translate(141.05,0)" style="stroke: rgb(68, 68, 68); stroke-opacity: 1; stroke-width: 1px;"/><path class="xtick ticks crisp" d="M0,421v5" transform="translate(217.37,0)" style="stroke: rgb(68, 68, 68); stroke-opacity: 1; stroke-width: 1px;"/><path class="xtick ticks crisp" d="M0,421v5" transform="translate(293.68,0)" style="stroke: rgb(68, 68, 68); stroke-opacity: 1; stroke-width: 1px;"/><path class="xtick ticks crisp" d="M0,421v5" transform="translate(370,0)" style="stroke: rgb(68, 68, 68); stroke-opacity: 1; stroke-width: 1px;"/><path class="xtick ticks crisp" d="M0,421v5" transform="translate(446.32,0)" style="stroke: rgb(68, 68, 68); stroke-opacity: 1; stroke-width: 1px;"/><path class="xtick ticks crisp" d="M0,421v5" transform="translate(522.63,0)" style="stroke: rgb(68, 68, 68); stroke-opacity: 1; stroke-width: 1px;"/><path class="xtick ticks crisp" d="M0,421v5" transform="translate(598.95,0)" style="stroke: rgb(68, 68, 68); stroke-opacity: 1; stroke-width: 1px;"/><g class="xtick"><text text-anchor="middle" x="0" y="440.4" transform="translate(141.05,0)" style="font-family: 'Open Sans', verdana, arial, sans-serif; font-size: 12px; fill: rgb(42, 63, 95); fill-opacity: 1; white-space: pre;">−1500</text></g><g class="xtick"><text text-anchor="middle" x="0" y="440.4" style="font-family: 'Open Sans', verdana, arial, sans-serif; font-size: 12px; fill: rgb(42, 63, 95); fill-opacity: 1; white-space: pre;" transform="translate(217.37,0)">−1000</text></g><g class="xtick"><text text-anchor="middle" x="0" y="440.4" style="font-family: 'Open Sans', verdana, arial, sans-serif; font-size: 12px; fill: rgb(42, 63, 95); fill-opacity: 1; white-space: pre;" transform="translate(293.68,0)">−500</text></g><g class="xtick"><text text-anchor="middle" x="0" y="440.4" style="font-family: 'Open Sans', verdana, arial, sans-serif; font-size: 12px; fill: rgb(42, 63, 95); fill-opacity: 1; white-space: pre;" transform="translate(370,0)">0</text></g><g class="xtick"><text text-anchor="middle" x="0" y="440.4" style="font-family: 'Open Sans', verdana, arial, sans-serif; font-size: 12px; fill: rgb(42, 63, 95); fill-opacity: 1; white-space: pre;" transform="translate(446.32,0)">500</text></g><g class="xtick"><text text-anchor="middle" x="0" y="440.4" style="font-family: 'Open Sans', verdana, arial, sans-serif; font-size: 12px; fill: rgb(42, 63, 95); fill-opacity: 1; white-space: pre;" transform="translate(522.63,0)">1000</text></g><g class="xtick"><text text-anchor="middle" x="0" y="440.4" style="font-family: 'Open Sans', verdana, arial, sans-serif; font-size: 12px; fill: rgb(42, 63, 95); fill-opacity: 1; white-space: pre;" transform="translate(598.95,0)">1500</text></g></g><g class="yaxislayer-above"><path class="ytick ticks crisp" d="M79,0h-5" transform="translate(0,394.62)" style="stroke: rgb(68, 68, 68); stroke-opacity: 1; stroke-width: 1px;"/><path class="ytick ticks crisp" d="M79,0h-5" transform="translate(0,355.56)" style="stroke: rgb(68, 68, 68); stroke-opacity: 1; stroke-width: 1px;"/><path class="ytick ticks crisp" d="M79,0h-5" transform="translate(0,316.51)" style="stroke: rgb(68, 68, 68); stroke-opacity: 1; stroke-width: 1px;"/><path class="ytick ticks crisp" d="M79,0h-5" transform="translate(0,277.46000000000004)" style="stroke: rgb(68, 68, 68); stroke-opacity: 1; stroke-width: 1px;"/><path class="ytick ticks crisp" d="M79,0h-5" transform="translate(0,238.41)" style="stroke: rgb(68, 68, 68); stroke-opacity: 1; stroke-width: 1px;"/><path class="ytick ticks crisp" d="M79,0h-5" transform="translate(0,199.36)" style="stroke: rgb(68, 68, 68); stroke-opacity: 1; stroke-width: 1px;"/><path class="ytick ticks crisp" d="M79,0h-5" transform="translate(0,160.31)" style="stroke: rgb(68, 68, 68); stroke-opacity: 1; stroke-width: 1px;"/><path class="ytick ticks crisp" d="M79,0h-5" transform="translate(0,121.26)" style="stroke: rgb(68, 68, 68); stroke-opacity: 1; stroke-width: 1px;"/><g class="ytick"><text text-anchor="end" x="71.6" y="4.199999999999999" transform="translate(0,394.62)" style="font-family: 'Open Sans', verdana, arial, sans-serif; font-size: 12px; fill: rgb(42, 63, 95); fill-opacity: 1; white-space: pre;">0.08</text></g><g class="ytick"><text text-anchor="end" x="71.6" y="4.199999999999999" style="font-family: 'Open Sans', verdana, arial, sans-serif; font-size: 12px; fill: rgb(42, 63, 95); fill-opacity: 1; white-space: pre;" transform="translate(0,355.56)">0.1</text></g><g class="ytick"><text text-anchor="end" x="71.6" y="4.199999999999999" style="font-family: 'Open Sans', verdana, arial, sans-serif; font-size: 12px; fill: rgb(42, 63, 95); fill-opacity: 1; white-space: pre;" transform="translate(0,316.51)">0.12</text></g><g class="ytick"><text text-anchor="end" x="71.6" y="4.199999999999999" style="font-family: 'Open Sans', verdana, arial, sans-serif; font-size: 12px; fill: rgb(42, 63, 95); fill-opacity: 1; white-space: pre;" transform="translate(0,277.46000000000004)">0.14</text></g><g class="ytick"><text text-anchor="end" x="71.6" y="4.199999999999999" style="font-family: 'Open Sans', verdana, arial, sans-serif; font-size: 12px; fill: rgb(42, 63, 95); fill-opacity: 1; white-space: pre;" transform="translate(0,238.41)">0.16</text></g><g class="ytick"><text text-anchor="end" x="71.6" y="4.199999999999999" style="font-family: 'Open Sans', verdana, arial, sans-serif; font-size: 12px; fill: rgb(42, 63, 95); fill-opacity: 1; white-space: pre;" transform="translate(0,199.36)">0.18</text></g><g class="ytick"><text text-anchor="end" x="71.6" y="4.199999999999999" style="font-family: 'Open Sans', verdana, arial, sans-serif; font-size: 12px; fill: rgb(42, 63, 95); fill-opacity: 1; white-space: pre;" transform="translate(0,160.31)">0.2</text></g><g class="ytick"><text text-anchor="end" x="71.6" y="4.199999999999999" style="font-family: 'Open Sans', verdana, arial, sans-serif; font-size: 12px; fill: rgb(42, 63, 95); fill-opacity: 1; white-space: pre;" transform="translate(0,121.26)">0.22</text></g></g><g class="overaxes-above"/></g></g><g class="polarlayer"/><g class="smithlayer"/><g class="ternarylayer"/><g class="geolayer"/><g class="funnelarealayer"/><g class="pielayer"/><g class="iciclelayer"/><g class="treemaplayer"/><g class="sunburstlayer"/><g class="glimages"/><defs id="topdefs-8cb412"><g class="clips"/><clipPath id="legend8cb412"><rect width="296" height="29" x="1" y="1"/></clipPath></defs><g class="layer-above"><g class="imagelayer"/><g class="shapelayer"><g class="shape-group" data-index="0" clip-path="url(#clip8cb412x)"><path data-index="0" fill-rule="evenodd" d="M370,420L370,100" style="opacity: 1; stroke: rgb(0, 0, 0); stroke-opacity: 1; fill: rgb(0, 0, 0); fill-opacity: 0; stroke-dasharray: 9px, 9px; stroke-width: 2px;"/></g><g class="shape-group" data-index="1" clip-path="url(#clip8cb412x)"><path data-index="1" fill-rule="evenodd" d="M212.64,420L212.64,100" style="opacity: 1; stroke: rgb(128, 128, 128); stroke-opacity: 1; fill: rgb(0, 0, 0); fill-opacity: 0; stroke-dasharray: 3px, 3px; stroke-width: 2px;"/></g></g></g><g class="infolayer"><g class="legend" pointer-events="all" transform="translate(362,62.599999999999994)"><rect class="bg" shape-rendering="crispEdges" style="stroke: rgb(0, 0, 0); stroke-opacity: 1; fill: rgb(255, 255, 255); fill-opacity: 0.8; stroke-width: 1px;" width="297" height="30" x="0.5" y="0.5"/><g class="scrollbox" transform="" clip-path="url(#legend8cb412)"><g class="groups" transform=""><g class="traces" transform="translate(0,15.5)" style="opacity: 1;"><text class="legendtext" text-anchor="start" x="40" y="4.680000000000001" style="font-family: 'Open Sans', verdana, arial, sans-serif; font-size: 12px; fill: rgb(42, 63, 95); fill-opacity: 1; white-space: pre;">Standard (AAAB)</text><g class="layers" style="opacity: 1;"><g class="legendfill"/><g class="legendlines"><path class="js-line" d="M5,0h30" style="fill: none; stroke: rgb(143, 0, 255); stroke-opacity: 1; stroke-width: 3px;"/></g><g class="legendsymbols"><g class="legendpoints"/></g></g><rect class="legendtoggle" x="0" y="-9.5" width="145.46875" height="19" style="fill: rgb(0, 0, 0); fill-opacity: 0;"/></g></g><g class="groups" transform="translate(147.96875,0)"><g class="traces" transform="translate(0,15.5)" style="opacity: 1;"><text class="legendtext" text-anchor="start" x="40" y="4.680000000000001" style="font-family: 'Open Sans', verdana, arial, sans-serif; font-size: 12px; fill: rgb(42, 63, 95); fill-opacity: 1; white-space: pre;">Omission (AXAB)</text><g class="layers" style="opacity: 1;"><g class="legendfill"/><g class="legendlines"><path class="js-line" d="M5,0h30" style="fill: none; stroke: rgb(255, 20, 147); stroke-opacity: 1; stroke-width: 3px;"/></g><g class="legendsymbols"><g class="legendpoints"/></g></g><rect class="legendtoggle" x="0" y="-9.5" width="145.5546875" height="19" style="fill: rgb(0, 0, 0); fill-opacity: 0;"/></g></g></g><rect class="scrollbar" rx="20" ry="3" width="0" height="0" style="fill: rgb(128, 139, 164); fill-opacity: 1;" x="0" y="0"/></g><g class="g-gtitle"><text class="gtitle" x="350" y="50" text-anchor="middle" dy="0em" style="opacity: 1; font-family: Arial; font-size: 18px; fill: rgb(0, 0, 0); fill-opacity: 1; white-space: pre;"><tspan class="line" dy="0em" x="350" y="50"><tspan style="font-weight:bold">Figure f010: MT Delta SFC</tspan></tspan><tspan class="line" dy="1.3em" x="350" y="50">​<tspan style="font-size:70%" dy="-0.6em">Continuous 2-4 Hz Phase-Locking Value | N=603 units</tspan><tspan dy="0.42em">​</tspan></tspan></text></g><g class="g-xtitle"><text class="xtitle" x="370" y="467.200390625" text-anchor="middle" style="opacity: 1; font-family: 'Open Sans', verdana, arial, sans-serif; font-size: 14px; fill: rgb(42, 63, 95); fill-opacity: 1; white-space: pre;">Time from Omission (ms)</text></g><g class="g-ytitle"><text class="ytitle" transform="rotate(-90,24.941796875,260)" x="24.941796875" y="260" text-anchor="middle" style="opacity: 1; font-family: 'Open Sans', verdana, arial, sans-serif; font-size: 14px; fill: rgb(42, 63, 95); fill-opacity: 1; white-space: pre;">Delta SFC (PLV)</text></g><g class="annotation" data-index="0" style="opacity: 1;"><g class="annotation-text-g" transform="rotate(0,419.5,109.5)"><g class="cursor-pointer" transform="translate(370,100)"><rect class="bg" x="0.5" y="0.5" width="98" height="18" style="stroke-width: 1px; stroke: rgb(0, 0, 0); stroke-opacity: 0; fill: rgb(0, 0, 0); fill-opacity: 0;"/><text class="annotation-text" text-anchor="middle" x="49.23828125" y="14" style="font-family: 'Open Sans', verdana, arial, sans-serif; font-size: 12px; fill: rgb(42, 63, 95); fill-opacity: 1; white-space: pre;">Omission Onset</text></g></g></g><g class="annotation" data-index="1" style="opacity: 1;"><g class="annotation-text-g" transform="rotate(0,242.14,109.5)"><g class="cursor-pointer" transform="translate(213,100)"><rect class="bg" x="0.5" y="0.5" width="58" height="18" style="stroke-width: 1px; stroke: rgb(0, 0, 0); stroke-opacity: 0; fill: rgb(0, 0, 0); fill-opacity: 0;"/><text class="annotation-text" text-anchor="middle" x="29.12890625" y="14" style="font-family: 'Open Sans', verdana, arial, sans-serif; font-size: 12px; fill: rgb(42, 63, 95); fill-opacity: 1; white-space: pre;">P1 Onset</text></g></g></g></g></svg>