<svg class="main-svg" xmlns="http://www.w3.org/2000/svg" xmlns:xlink="http://www.w3.org/1999/xlink" width="700" height="500" style="" viewBox="0 0 700 500"><rect x="0" y="0" width="700" height="500" style="fill: rgb(255, 255, 255); fill-opacity: 1;"/><defs id="defs-c54995"><g class="clips"><clipPath id="clipc54995xyplot" class="plotclip"><rect width="580" height="320"/></clipPath><clipPath class="axesclip" id="clipc54995x"><rect x="80" y="0" width="580" height="500"/></clipPath><clipPath class="axesclip" id="clipc54995y"><rect x="0" y="100" width="700" height="320"/></clipPath><clipPath class="axesclip" id="clipc54995xy"><rect x="80" y="100" width="580" height="320"/></clipPath></g><g class="gradients"/><g class="patterns"/></defs><g class="bglayer"/><g class="layer-below"><g class="imagelayer"/><g class="shapelayer"/></g><g class="cartesianlayer"><g class="subplot xy"><g class="layer-subplot"><g class="shapelayer"/><g class="imagelayer"/></g><g class="minor-gridlayer"><g class="x"/><g class="y"/></g><g class="gridlayer"><g class="x"><path class="xgrid crisp" transform="translate(141.05,0)" d="M0,100v320" style="stroke: rgb(211, 211, 211); stroke-opacity: 1; stroke-width: 1px;"/><path class="xgrid crisp" transform="translate(217.37,0)" d="M0,100v320" style="stroke: rgb(211, 211, 211); stroke-opacity: 1; stroke-width: 1px;"/><path class="xgrid crisp" transform="translate(293.68,0)" d="M0,100v320" style="stroke: rgb(211, 211, 211); stroke-opacity: 1; stroke-width: 1px;"/><path class="xgrid crisp" transform="translate(446.32,0)" d="M0,100v320" style="stroke: rgb(211, 211, 211); stroke-opacity: 1; stroke-width: 1px;"/><path class="xgrid crisp" transform="translate(522.63,0)" d="M0,100v320" style="stroke: rgb(211, 211, 211); stroke-opacity: 1; stroke-width: 1px;"/><path class="xgrid crisp" transform="translate(598.95,0)" d="M0,100v320" style="stroke: rgb(211, 211, 211); stroke-opacity: 1; stroke-width: 1px;"/></g><g class="y"><path class="ygrid crisp" transform="translate(0,393.81)" d="M80,0h580" style="stroke: rgb(211, 211, 211); stroke-opacity: 1; stroke-width: 1px;"/><path class="ygrid crisp" transform="translate(0,338.56)" d="M80,0h580" style="stroke: rgb(211, 211, 211); stroke-opacity: 1; stroke-width: 1px;"/><path class="ygrid crisp" transform="translate(0,283.31)" d="M80,0h580" style="stroke: rgb(211, 211, 211); stroke-opacity: 1; stroke-width: 1px;"/><path class="ygrid crisp" transform="translate(0,228.06)" d="M80,0h580" style="stroke: rgb(211, 211, 211); stroke-opacity: 1; stroke-width: 1px;"/><path class="ygrid crisp" transform="translate(0,172.81)" d="M80,0h580" style="stroke: rgb(211, 211, 211); stroke-opacity: 1; stroke-width: 1px;"/><path class="ygrid crisp" transform="translate(0,117.56)" d="M80,0h580" style="stroke: rgb(211, 211, 211); stroke-opacity: 1; stroke-width: 1px;"/></g></g><g class="zerolinelayer"><path class="xzl zl crisp" transform="translate(370,0)" d="M0,100v320" style="stroke: rgb(235, 240, 248); stroke-opacity: 1; stroke-width: 2px;"/></g><g class="layer-between"><g class="shapelayer"/><g class="imagelayer"/></g><path class="xlines-below"/><path class="ylines-below"/><g class="overlines-below"/><g class="xaxislayer-below"/><g class="yaxislayer-below"/><g class="overaxes-below"/><g class="overplot"><g class="xy" transform="translate(80,100)" clip-path="url(#clipc54995xyplot)"><g class="scatterlayer mlayer"><g class="trace scatter trace21dbe6" style="stroke-miterlimit: 2;"><g class="fills"><g><path class="js-fill" d="M0,270.55L7.63,269.95L15.26,272L22.89,272.55L30.53,284.76L38.16,291.95L45.79,290.41L53.42,297.71L61.05,296.66L76.32,285.93L83.95,284.75L91.58,288.35L99.21,287.89L106.84,288.13L114.47,286.39L122.11,280.18L129.74,287.23L137.37,292.68L145,289.74L152.63,295.7L160.26,288.35L167.89,280.47L175.53,276.04L183.16,264.4L190.79,268.19L206.05,286.95L213.68,294.84L221.32,301.01L228.95,304L251.84,278.93L259.47,274.45L267.11,275.48L274.74,286.36L290,292.6L297.63,292.4L305.26,281.88L312.89,285.9L320.53,287.12L328.16,286.55L335.79,290.36L343.42,289.39L351.05,287.99L358.68,290.92L366.32,279.53L373.95,273.43L381.58,271.59L389.21,268.09L396.84,279.34L404.47,283L412.11,283.39L419.74,281.61L427.37,276.47L435,282.62L442.63,282.76L450.26,284.69L457.89,284.14L465.53,281.83L473.16,279.77L480.79,271.35L488.42,277.93L496.05,275.88L503.68,274.58L511.32,274.87L526.58,283.9L534.21,289.78L541.84,292.61L549.47,294.23L564.74,290.43L572.37,295.61L580,294.48L580,282.76L572.37,282.54L564.74,276.07L557.11,279.44L549.47,281.79L534.21,275.31L526.58,268.41L518.95,264.29L511.32,257.66L503.68,257.61L496.05,261.38L488.42,263.03L480.79,255L473.16,265.25L465.53,264.69L457.89,268.59L450.26,270.68L442.63,267.36L435,268L427.37,261.63L419.74,266.54L412.11,268.37L404.47,268.38L396.84,262.69L389.21,250.46L381.58,254.93L373.95,257.64L366.32,263.97L358.68,275.52L351.05,273.06L343.42,277.14L335.79,279.55L328.16,273.52L320.53,273.61L312.89,273.99L305.26,270.58L297.63,281.22L290,280.74L282.37,276.41L274.74,273.19L267.11,262.1L259.47,259.65L251.84,264L244.21,273.63L236.58,282.22L228.95,293.58L221.32,289.02L206.05,275.11L198.42,265.77L190.79,254.54L183.16,249.51L175.53,262.04L167.89,267.87L160.26,276.98L152.63,285.55L145,278.12L137.37,280.18L129.74,275.4L122.11,266.8L114.47,274.7L106.84,277.2L99.21,276.68L91.58,276.3L83.95,271.9L76.32,274.17L61.05,286.38L53.42,287.36L45.79,279.55L38.16,281.41L30.53,273.58L22.89,259.39L15.26,257.8L7.63,254.79L0,255.55Z" style="fill: rgb(143, 0, 255); fill-opacity: 0.2; stroke-width: 0;"/></g></g><g class="errorbars"/><g class="lines"><path class="js-line" d="M0,255.55L7.63,254.79L15.26,257.8L22.89,259.39L30.53,273.58L38.16,281.41L45.79,279.55L53.42,287.36L61.05,286.38L76.32,274.17L83.95,271.9L91.58,276.3L99.21,276.68L106.84,277.2L114.47,274.7L122.11,266.8L129.74,275.4L137.37,280.18L145,278.12L152.63,285.55L160.26,276.98L167.89,267.87L175.53,262.04L183.16,249.51L190.79,254.54L198.42,265.77L206.05,275.11L221.32,289.02L228.95,293.58L236.58,282.22L244.21,273.63L251.84,264L259.47,259.65L267.11,262.1L274.74,273.19L282.37,276.41L290,280.74L297.63,281.22L305.26,270.58L312.89,273.99L320.53,273.61L328.16,273.52L335.79,279.55L343.42,277.14L351.05,273.06L358.68,275.52L366.32,263.97L373.95,257.64L381.58,254.93L389.21,250.46L396.84,262.69L404.47,268.38L412.11,268.37L419.74,266.54L427.37,261.63L435,268L442.63,267.36L450.26,270.68L457.89,268.59L465.53,264.69L473.16,265.25L480.79,255L488.42,263.03L496.05,261.38L503.68,257.61L511.32,257.66L518.95,264.29L526.58,268.41L534.21,275.31L549.47,281.79L557.11,279.44L564.74,276.07L572.37,282.54L580,282.76" style="vector-effect: none; fill: none; stroke: rgb(99, 110, 250); stroke-opacity: 1; stroke-width: 0px; opacity: 1;"/></g><g class="points"/><g class="text"/></g><g class="trace scatter tracedcea0e" style="stroke-miterlimit: 2;"><g class="fills"/><g class="errorbars"/><g class="lines"><path class="js-line" d="M0,270.55L7.63,269.95L15.26,272L22.89,272.55L30.53,284.76L38.16,291.95L45.79,290.41L53.42,297.71L61.05,296.66L76.32,285.93L83.95,284.75L91.58,288.35L99.21,287.89L106.84,288.13L114.47,286.39L122.11,280.18L129.74,287.23L137.37,292.68L145,289.74L152.63,295.7L160.26,288.35L167.89,280.47L175.53,276.04L183.16,264.4L190.79,268.19L206.05,286.95L213.68,294.84L221.32,301.01L228.95,304L251.84,278.93L259.47,274.45L267.11,275.48L274.74,286.36L290,292.6L297.63,292.4L305.26,281.88L312.89,285.9L320.53,287.12L328.16,286.55L335.79,290.36L343.42,289.39L351.05,287.99L358.68,290.92L366.32,279.53L373.95,273.43L381.58,271.59L389.21,268.09L396.84,279.34L404.47,283L412.11,283.39L419.74,281.61L427.37,276.47L435,282.62L442.63,282.76L450.26,284.69L457.89,284.14L465.53,281.83L473.16,279.77L480.79,271.35L488.42,277.93L496.05,275.88L503.68,274.58L511.32,274.87L526.58,283.9L534.21,289.78L541.84,292.61L549.47,294.23L564.74,290.43L572.37,295.61L580,294.48" style="vector-effect: none; fill: none; stroke: rgb(239, 85, 59); stroke-opacity: 1; stroke-width: 0px; opacity: 1;"/></g><g class="points"/><g class="text"/></g><g class="trace scatter traceb3e95f" style="stroke-miterlimit: 2; opacity: 1;"><g class="fills"/><g class="errorbars"/><g class="lines"><path class="js-line" d="M0,263.05L7.63,262.37L15.26,264.9L22.89,265.97L30.53,279.17L38.16,286.68L45.79,284.98L53.42,292.53L61.05,291.52L76.32,280.05L83.95,278.33L91.58,282.32L99.21,282.28L106.84,282.66L114.47,280.55L122.11,273.49L129.74,281.32L137.37,286.43L145,283.93L152.63,290.62L160.26,282.67L167.89,274.17L175.53,269.04L183.16,256.95L190.79,261.36L198.42,271.89L206.05,281.03L213.68,288.68L221.32,295.01L228.95,298.79L236.58,288.85L244.21,280.75L251.84,271.46L259.47,267.05L267.11,268.79L274.74,279.78L282.37,282.85L290,286.67L297.63,286.81L305.26,276.23L312.89,279.95L328.16,280.04L335.79,284.95L343.42,283.27L351.05,280.53L358.68,283.22L366.32,271.75L373.95,265.53L381.58,263.26L389.21,259.28L396.84,271.01L404.47,275.69L412.11,275.88L419.74,274.07L427.37,269.05L435,275.31L442.63,275.06L450.26,277.69L457.89,276.36L465.53,273.26L473.16,272.51L480.79,263.18L488.42,270.48L503.68,266.1L511.32,266.27L518.95,272.02L526.58,276.15L534.21,282.55L541.84,285.68L549.47,288.01L557.11,286.02L564.74,283.25L572.37,289.07L580,288.62" style="vector-effect: none; fill: none; stroke: rgb(143, 0, 255); stroke-opacity: 1; stroke-width: 3px; opacity: 1;"/></g><g class="points"/><g class="text"/></g><g class="trace scatter trace018bc7" style="stroke-miterlimit: 2;"><g class="fills"><g><path class="js-fill" d="M0,90.49L7.63,91.58L15.26,94.63L22.89,93.94L30.53,86.95L38.16,92.23L45.79,101.58L53.42,111.36L61.05,100.39L68.68,90.38L76.32,92.29L83.95,105.82L91.58,92.31L99.21,92.46L106.84,101.6L114.47,120.34L122.11,105.74L129.74,113.01L137.37,110.4L152.63,128.72L160.26,96.06L167.89,85.41L175.53,79.39L183.16,62.04L190.79,72.89L198.42,79.48L206.05,103.45L213.68,122.71L221.32,126.46L228.95,129.72L236.58,116.55L244.21,112.34L251.84,113.48L259.47,106.34L267.11,116.54L274.74,89.99L282.37,92.33L290,112.22L297.63,128.18L305.26,104.57L312.89,104.41L320.53,112.72L328.16,103.24L335.79,92.7L343.42,84.05L351.05,92.76L358.68,109.78L366.32,78.54L373.95,87.52L381.58,75.91L389.21,101.83L396.84,108.33L404.47,89.16L412.11,97.08L419.74,112.29L427.37,97.13L435,98.34L442.63,88.36L450.26,84.16L457.89,93.82L465.53,86.32L473.16,100.06L480.79,118.85L488.42,122.11L496.05,96.85L503.68,95.65L511.32,96.01L518.95,104.57L526.58,98.84L534.21,96.03L541.84,70.53L549.47,59.11L557.11,54.75L564.74,59.62L572.37,56.27L580,81.13L580,44.98L572.37,19.28L564.74,21.05L557.11,16L549.47,20.35L541.84,32L534.21,61.49L526.58,63.54L518.95,68.34L511.32,59.81L503.68,61.22L496.05,61.9L488.42,87.75L480.79,83.34L473.16,64.81L465.53,49.96L457.89,58.56L450.26,47.45L442.63,51.68L435,62.83L427.37,63.3L419.74,80.28L412.11,67.04L404.47,56.96L396.84,74.91L389.21,67.39L381.58,40.37L373.95,52.84L366.32,42.82L358.68,77.15L351.05,61.51L343.42,54.79L328.16,75.89L320.53,83.58L312.89,75.64L305.26,79.05L297.63,105.3L290,89.71L282.37,66.82L274.74,62.09L267.11,89.12L259.47,77.46L251.84,86.77L244.21,87.78L236.58,93.08L228.95,108.25L213.68,97.32L206.05,78.11L198.42,52.24L190.79,43.52L183.16,31.3L175.53,50.75L167.89,56.9L160.26,70.18L152.63,106.02L145,95.01L137.37,86.5L129.74,88.73L122.11,81.75L114.47,96.86L106.84,77.62L99.21,67.33L91.58,66.44L83.95,80.2L76.32,66.46L68.68,64.49L61.05,75.23L53.42,86.62L45.79,77.95L38.16,65.9L30.53,60.48L22.89,67.52L15.26,68.34L7.63,63.59L0,62.06Z" style="fill: rgb(255, 20, 147); fill-opacity: 0.2; stroke-width: 0;"/></g></g><g class="errorbars"/><g class="lines"><path class="js-line" d="M0,62.06L7.63,63.59L15.26,68.34L22.89,67.52L30.53,60.48L38.16,65.9L45.79,77.95L53.42,86.62L61.05,75.23L68.68,64.49L76.32,66.46L83.95,80.2L91.58,66.44L99.21,67.33L106.84,77.62L114.47,96.86L122.11,81.75L129.74,88.73L137.37,86.5L145,95.01L152.63,106.02L160.26,70.18L167.89,56.9L175.53,50.75L183.16,31.3L190.79,43.52L198.42,52.24L206.05,78.11L213.68,97.32L228.95,108.25L236.58,93.08L244.21,87.78L251.84,86.77L259.47,77.46L267.11,89.12L274.74,62.09L282.37,66.82L290,89.71L297.63,105.3L305.26,79.05L312.89,75.64L320.53,83.58L328.16,75.89L343.42,54.79L351.05,61.51L358.68,77.15L366.32,42.82L373.95,52.84L381.58,40.37L389.21,67.39L396.84,74.91L404.47,56.96L412.11,67.04L419.74,80.28L427.37,63.3L435,62.83L442.63,51.68L450.26,47.45L457.89,58.56L465.53,49.96L473.16,64.81L480.79,83.34L488.42,87.75L496.05,61.9L503.68,61.22L511.32,59.81L518.95,68.34L526.58,63.54L534.21,61.49L541.84,32L549.47,20.35L557.11,16L564.74,21.05L572.37,19.28L580,44.98" style="vector-effect: none; fill: none; stroke: rgb(171, 99, 250); stroke-opacity: 1; stroke-width: 0px; opacity: 1;"/></g><g class="points"/><g class="text"/></g><g class="trace scatter trace3615bc" style="stroke-miterlimit: 2;"><g class="fills"/><g class="errorbars"/><g class="lines"><path class="js-line" d="M0,90.49L7.63,91.58L15.26,94.63L22.89,93.94L30.53,86.95L38.16,92.23L45.79,101.58L53.42,111.36L61.05,100.39L68.68,90.38L76.32,92.29L83.95,105.82L91.58,92.31L99.21,92.46L106.84,101.6L114.47,120.34L122.11,105.74L129.74,113.01L137.37,110.4L152.63,128.72L160.26,96.06L167.89,85.41L175.53,79.39L183.16,62.04L190.79,72.89L198.42,79.48L206.05,103.45L213.68,122.71L221.32,126.46L228.95,129.72L236.58,116.55L244.21,112.34L251.84,113.48L259.47,106.34L267.11,116.54L274.74,89.99L282.37,92.33L290,112.22L297.63,128.18L305.26,104.57L312.89,104.41L320.53,112.72L328.16,103.24L335.79,92.7L343.42,84.05L351.05,92.76L358.68,109.78L366.32,78.54L373.95,87.52L381.58,75.91L389.21,101.83L396.84,108.33L404.47,89.16L412.11,97.08L419.74,112.29L427.37,97.13L435,98.34L442.63,88.36L450.26,84.16L457.89,93.82L465.53,86.32L473.16,100.06L480.79,118.85L488.42,122.11L496.05,96.85L503.68,95.65L511.32,96.01L518.95,104.57L526.58,98.84L534.21,96.03L541.84,70.53L549.47,59.11L557.11,54.75L564.74,59.62L572.37,56.27L580,81.13" style="vector-effect: none; fill: none; stroke: rgb(255, 161, 90); stroke-opacity: 1; stroke-width: 0px; opacity: 1;"/></g><g class="points"/><g class="text"/></g><g class="trace scatter trace12b25c" style="stroke-miterlimit: 2; opacity: 1;"><g class="fills"/><g class="errorbars"/><g class="lines"><path class="js-line" d="M0,76.27L7.63,77.58L15.26,81.49L22.89,80.73L30.53,73.71L38.16,79.06L45.79,89.77L53.42,98.99L61.05,87.81L68.68,77.44L76.32,79.38L83.95,93.01L91.58,79.37L99.21,79.89L106.84,89.61L114.47,108.6L122.11,93.75L129.74,100.87L137.37,98.45L145,107.1L152.63,117.37L160.26,83.12L167.89,71.16L175.53,65.07L183.16,46.67L190.79,58.2L198.42,65.86L206.05,90.78L213.68,110.01L228.95,118.99L236.58,104.82L244.21,100.06L251.84,100.13L259.47,91.9L267.11,102.83L274.74,76.04L282.37,79.57L290,100.96L297.63,116.74L305.26,91.81L312.89,90.02L320.53,98.15L328.16,89.56L343.42,69.42L351.05,77.14L358.68,93.47L366.32,60.68L373.95,70.18L381.58,58.14L389.21,84.61L396.84,91.62L404.47,73.06L412.11,82.06L419.74,96.28L427.37,80.21L435,80.58L442.63,70.02L450.26,65.8L457.89,76.19L465.53,68.14L473.16,82.43L480.79,101.09L488.42,104.93L496.05,79.38L503.68,78.44L511.32,77.91L518.95,86.46L526.58,81.19L534.21,78.76L541.84,51.26L549.47,39.73L557.11,35.37L564.74,40.33L572.37,37.77L580,63.05" style="vector-effect: none; fill: none; stroke: rgb(255, 20, 147); stroke-opacity: 1; stroke-width: 3px; opacity: 1;"/></g><g class="points"/><g class="text"/></g></g></g></g><g class="zerolinelayer-above"/><path class="xlines-above crisp" d="M79,420.5H661M79,99.5H661" style="fill: none; stroke-width: 1px; stroke: rgb(0, 0, 0); stroke-opacity: 1;"/><path class="ylines-above crisp" d="M79.5,100V420M660.5,100V420" style="fill: none; stroke-width: 1px; stroke: rgb(0, 0, 0); stroke-opacity: 1;"/><g class="overlines-above"/><g class="xaxislayer-above"><path class="xtick ticks crisp" d="M0,421v5" transform="translate(141.05,0)" style="stroke: rgb(68, 68, 68); stroke-opacity: 1; stroke-width: 1px;"/><path class="xtick ticks crisp" d="M0,421v5" transform="translate(217.37,0)" style="stroke: rgb(68, 68, 68); stroke-opacity: 1; stroke-width: 1px;"/><path class="xtick ticks crisp" d="M0,421v5" transform="translate(293.68,0)" style="stroke: rgb(68, 68, 68); stroke-opacity: 1; stroke-width: 1px;"/><path class="xtick ticks crisp" d="M0,421v5" transform="translate(370,0)" style="stroke: rgb(68, 68, 68); stroke-opacity: 1; stroke-width: 1px;"/><path class="xtick ticks crisp" d="M0,421v5" transform="translate(446.32,0)" style="stroke: rgb(68, 68, 68); stroke-opacity: 1; stroke-width: 1px;"/><path class="xtick ticks crisp" d="M0,421v5" transform="translate(522.63,0)" style="stroke: rgb(68, 68, 68); stroke-opacity: 1; stroke-width: 1px;"/><path class="xtick ticks crisp" d="M0,421v5" transform="translate(598.95,0)" style="stroke: rgb(68, 68, 68); stroke-opacity: 1; stroke-width: 1px;"/><g class="xtick"><text text-anchor="middle" x="0" y="440.4" transform="translate(141.05,0)" style="font-family: 'Open Sans', verdana, arial, sans-serif; font-size: 12px; fill: rgb(42, 63, 95); fill-opacity: 1; white-space: pre;">−1500</text></g><g class="xtick"><text text-anchor="middle" x="0" y="440.4" style="font-family: 'Open Sans', verdana, arial, sans-serif; font-size: 12px; fill: rgb(42, 63, 95); fill-opacity: 1; white-space: pre;" transform="translate(217.37,0)">−1000</text></g><g class="xtick"><text text-anchor="middle" x="0" y="440.4" style="font-family: 'Open Sans', verdana, arial, sans-serif; font-size: 12px; fill: rgb(42, 63, 95); fill-opacity: 1; white-space: pre;" transform="translate(293.68,0)">−500</text></g><g class="xtick"><text text-anchor="middle" x="0" y="440.4" style="font-family: 'Open Sans', verdana, arial, sans-serif; font-size: 12px; fill: rgb(42, 63, 95); fill-opacity: 1; white-space: pre;" transform="translate(370,0)">0</text></g><g class="xtick"><text text-anchor="middle" x="0" y="440.4" style="font-family: 'Open Sans', verdana, arial, sans-serif; font-size: 12px; fill: rgb(42, 63, 95); fill-opacity: 1; white-space: pre;" transform="translate(446.32,0)">500</text></g><g class="xtick"><text text-anchor="middle" x="0" y="440.4" style="font-family: 'Open Sans', verdana, arial, sans-serif; font-size: 12px; fill: rgb(42, 63, 95); fill-opacity: 1; white-space: pre;" transform="translate(522.63,0)">1000</text></g><g class="xtick"><text text-anchor="middle" x="0" y="440.4" style="font-family: 'Open Sans', verdana, arial, sans-serif; font-size: 12px; fill: rgb(42, 63, 95); fill-opacity: 1; white-space: pre;" transform="translate(598.95,0)">1500</text></g></g><g class="yaxislayer-above"><path class="ytick ticks crisp" d="M79,0h-5" transform="translate(0,393.81)" style="stroke: rgb(68, 68, 68); stroke-opacity: 1; stroke-width: 1px;"/><path class="ytick ticks crisp" d="M79,0h-5" transform="translate(0,338.56)" style="stroke: rgb(68, 68, 68); stroke-opacity: 1; stroke-width: 1px;"/><path class="ytick ticks crisp" d="M79,0h-5" transform="translate(0,283.31)" style="stroke: rgb(68, 68, 68); stroke-opacity: 1; stroke-width: 1px;"/><path class="ytick ticks crisp" d="M79,0h-5" transform="translate(0,228.06)" style="stroke: rgb(68, 68, 68); stroke-opacity: 1; stroke-width: 1px;"/><path class="ytick ticks crisp" d="M79,0h-5" transform="translate(0,172.81)" style="stroke: rgb(68, 68, 68); stroke-opacity: 1; stroke-width: 1px;"/><path class="ytick ticks crisp" d="M79,0h-5" transform="translate(0,117.56)" style="stroke: rgb(68, 68, 68); stroke-opacity: 1; stroke-width: 1px;"/><g class="ytick"><text text-anchor="end" x="71.6" y="4.199999999999999" transform="translate(0,393.81)" style="font-family: 'Open Sans', verdana, arial, sans-serif; font-size: 12px; fill: rgb(42, 63, 95); fill-opacity: 1; white-space: pre;">0.1</text></g><g class="ytick"><text text-anchor="end" x="71.6" y="4.199999999999999" style="font-family: 'Open Sans', verdana, arial, sans-serif; font-size: 12px; fill: rgb(42, 63, 95); fill-opacity: 1; white-space: pre;" transform="translate(0,338.56)">0.15</text></g><g class="ytick"><text text-anchor="end" x="71.6" y="4.199999999999999" style="font-family: 'Open Sans', verdana, arial, sans-serif; font-size: 12px; fill: rgb(42, 63, 95); fill-opacity: 1; white-space: pre;" transform="translate(0,283.31)">0.2</text></g><g class="ytick"><text text-anchor="end" x="71.6" y="4.199999999999999" style="font-family: 'Open Sans', verdana, arial, sans-serif; font-size: 12px; fill: rgb(42, 63, 95); fill-opacity: 1; white-space: pre;" transform="translate(0,228.06)">0.25</text></g><g class="ytick"><text text-anchor="end" x="71.6" y="4.199999999999999" style="font-family: 'Open Sans', verdana, arial, sans-serif; font-size: 12px; fill: rgb(42, 63, 95); fill-opacity: 1; white-space: pre;" transform="translate(0,172.81)">0.3</text></g><g class="ytick"><text text-anchor="end" x="71.6" y="4.199999999999999" style="font-family: 'Open Sans', verdana, arial, sans-serif; font-size: 12px; fill: rgb(42, 63, 95); fill-opacity: 1; white-space: pre;" transform="translate(0,117.56)">0.35</text></g></g><g class="overaxes-above"/></g></g><g class="polarlayer"/><g class="smithlayer"/><g class="ternarylayer"/><g class="geolayer"/><g class="funnelarealayer"/><g class="pielayer"/><g class="iciclelayer"/><g class="treemaplayer"/><g class="sunburstlayer"/><g class="glimages"/><defs id="topdefs-c54995"><g class="clips"/><clipPath id="legendc54995"><rect width="296" height="29" x="1" y="1"/></clipPath></defs><g class="layer-above"><g class="imagelayer"/><g class="shapelayer"><g class="shape-group" data-index="0" clip-path="url(#clipc54995x)"><path data-index="0" fill-rule="evenodd" d="M370,420L370,100" style="opacity: 1; stroke: rgb(0, 0, 0); stroke-opacity: 1; fill: rgb(0, 0, 0); fill-opacity: 0; stroke-dasharray: 9px, 9px; stroke-width: 2px;"/></g><g class="shape-group" data-index="1" clip-path="url(#clipc54995x)"><path data-index="1" fill-rule="evenodd" d="M212.64,420L212.64,100" style="opacity: 1; stroke: rgb(128, 128, 128); stroke-opacity: 1; fill: rgb(0, 0, 0); fill-opacity: 0; stroke-dasharray: 3px, 3px; stroke-width: 2px;"/></g></g></g><g class="infolayer"><g class="legend" pointer-events="all" transform="translate(362,62.599999999999994)"><rect class="bg" shape-rendering="crispEdges" style="stroke: rgb(0, 0, 0); stroke-opacity: 1; fill: rgb(255, 255, 255); fill-opacity: 0.8; stroke-width: 1px;" width="297" height="30" x="0.5" y="0.5"/><g class="scrollbox" transform="" clip-path="url(#legendc54995)"><g class="groups" transform=""><g class="traces" transform="translate(0,15.5)" style="opacity: 1;"><text class="legendtext" text-anchor="start" x="40" y="4.680000000000001" style="font-family: 'Open Sans', verdana, arial, sans-serif; font-size: 12px; fill: rgb(42, 63, 95); fill-opacity: 1; white-space: pre;">Standard (AAAB)</text><g class="layers" style="opacity: 1;"><g class="legendfill"/><g class="legendlines"><path class="js-line" d="M5,0h30" style="fill: none; stroke: rgb(143, 0, 255); stroke-opacity: 1; stroke-width: 3px;"/></g><g class="legendsymbols"><g class="legendpoints"/></g></g><rect class="legendtoggle" x="0" y="-9.5" width="145.46875" height="19" style="fill: rgb(0, 0, 0); fill-opacity: 0;"/></g></g><g class="groups" transform="translate(147.96875,0)"><g class="traces" transform="translate(0,15.5)" style="opacity: 1;"><text class="legendtext" text-anchor="start" x="40" y="4.680000000000001" style="font-family: 'Open Sans', verdana, arial, sans-serif; font-size: 12px; fill: rgb(42, 63, 95); fill-opacity: 1; white-space: pre;">Omission (AXAB)</text><g class="layers" style="opacity: 1;"><g class="legendfill"/><g class="legendlines"><path class="js-line" d="M5,0h30" style="fill: none; stroke: rgb(255, 20, 147); stroke-opacity: 1; stroke-width: 3px;"/></g><g class="legendsymbols"><g class="legendpoints"/></g></g><rect class="legendtoggle" x="0" y="-9.5" width="145.5546875" height="19" style="fill: rgb(0, 0, 0); fill-opacity: 0;"/></g></g></g><rect class="scrollbar" rx="20" ry="3" width="0" height="0" style="fill: rgb(128, 139, 164); fill-opacity: 1;" x="0" y="0"/></g><g class="g-gtitle"><text class="gtitle" x="350" y="50" text-anchor="middle" dy="0em" style="opacity: 1; font-family: Arial; font-size: 18px; fill: rgb(0, 0, 0); fill-opacity: 1; white-space: pre;"><tspan class="line" dy="0em" x="350" y="50"><tspan style="font-weight:bold">Figure f010: V3d Delta SFC</tspan></tspan><tspan class="line" dy="1.3em" x="350" y="50">​<tspan style="font-size:70%" dy="-0.6em">Continuous 2-4 Hz Phase-Locking Value | N=240 units</tspan><tspan dy="0.42em">​</tspan></tspan></text></g><g class="g-xtitle"><text class="xtitle" x="370" y="467.200390625" text-anchor="middle" style="opacity: 1; font-family: 'Open Sans', verdana, arial, sans-serif; font-size: 14px; fill: rgb(42, 63, 95); fill-opacity: 1; white-space: pre;">Time from Omission (ms)</text></g><g class="g-ytitle"><text class="ytitle" transform="rotate(-90,24.941796875,260)" x="24.941796875" y="260" text-anchor="middle" style="opacity: 1; font-family: 'Open Sans', verdana, arial, sans-serif; font-size: 14px; fill: rgb(42, 63, 95); fill-opacity: 1; white-space: pre;">Delta SFC (PLV)</text></g><g class="annotation" data-index="0" style="opacity: 1;"><g class="annotation-text-g" transform="rotate(0,419.5,109.5)"><g class="cursor-pointer" transform="translate(370,100)"><rect class="bg" x="0.5" y="0.5" width="98" height="18" style="stroke-width: 1px; stroke: rgb(0, 0, 0); stroke-opacity: 0; fill: rgb(0, 0, 0); fill-opacity: 0;"/><text class="annotation-text" text-anchor="middle" x="49.23828125" y="14" style="font-family: 'Open Sans', verdana, arial, sans-serif; font-size: 12px; fill: rgb(42, 63, 95); fill-opacity: 1; white-space: pre;">Omission Onset</text></g></g></g><g class="annotation" data-index="1" style="opacity: 1;"><g class="annotation-text-g" transform="rotate(0,242.14,109.5)"><g class="cursor-pointer" transform="translate(213,100)"><rect class="bg" x="0.5" y="0.5" width="58" height="18" style="stroke-width: 1px; stroke: rgb(0, 0, 0); stroke-opacity: 0; fill: rgb(0, 0, 0); fill-opacity: 0;"/><text class="annotation-text" text-anchor="middle" x="29.12890625" y="14" style="font-family: 'Open Sans', verdana, arial, sans-serif; font-size: 12px; fill: rgb(42, 63, 95); fill-opacity: 1; white-space: pre;">P1 Onset</text></g></g></g></g></svg>