<svg class="main-svg" xmlns="http://www.w3.org/2000/svg" xmlns:xlink="http://www.w3.org/1999/xlink" width="700" height="500" style="" viewBox="0 0 700 500"><rect x="0" y="0" width="700" height="500" style="fill: rgb(255, 255, 255); fill-opacity: 1;"/><defs id="defs-817d6d"><g class="clips"><clipPath id="clip817d6dxyplot" class="plotclip"><rect width="580" height="320"/></clipPath><clipPath class="axesclip" id="clip817d6dx"><rect x="80" y="0" width="580" height="500"/></clipPath><clipPath class="axesclip" id="clip817d6dy"><rect x="0" y="100" width="700" height="320"/></clipPath><clipPath class="axesclip" id="clip817d6dxy"><rect x="80" y="100" width="580" height="320"/></clipPath></g><g class="gradients"/><g class="patterns"/></defs><g class="bglayer"/><g class="layer-below"><g class="imagelayer"/><g class="shapelayer"/></g><g class="cartesianlayer"><g class="subplot xy"><g class="layer-subplot"><g class="shapelayer"/><g class="imagelayer"/></g><g class="minor-gridlayer"><g class="x"/><g class="y"/></g><g class="gridlayer"><g class="x"><path class="xgrid crisp" transform="translate(141.05,0)" d="M0,100v320" style="stroke: rgb(211, 211, 211); stroke-opacity: 1; stroke-width: 1px;"/><path class="xgrid crisp" transform="translate(217.37,0)" d="M0,100v320" style="stroke: rgb(211, 211, 211); stroke-opacity: 1; stroke-width: 1px;"/><path class="xgrid crisp" transform="translate(293.68,0)" d="M0,100v320" style="stroke: rgb(211, 211, 211); stroke-opacity: 1; stroke-width: 1px;"/><path class="xgrid crisp" transform="translate(446.32,0)" d="M0,100v320" style="stroke: rgb(211, 211, 211); stroke-opacity: 1; stroke-width: 1px;"/><path class="xgrid crisp" transform="translate(522.63,0)" d="M0,100v320" style="stroke: rgb(211, 211, 211); stroke-opacity: 1; stroke-width: 1px;"/><path class="xgrid crisp" transform="translate(598.95,0)" d="M0,100v320" style="stroke: rgb(211, 211, 211); stroke-opacity: 1; stroke-width: 1px;"/></g><g class="y"><path class="ygrid crisp" transform="translate(0,385.58)" d="M80,0h580" style="stroke: rgb(211, 211, 211); stroke-opacity: 1; stroke-width: 1px;"/><path class="ygrid crisp" transform="translate(0,324.22)" d="M80,0h580" style="stroke: rgb(211, 211, 211); stroke-opacity: 1; stroke-width: 1px;"/><path class="ygrid crisp" transform="translate(0,262.86)" d="M80,0h580" style="stroke: rgb(211, 211, 211); stroke-opacity: 1; stroke-width: 1px;"/><path class="ygrid crisp" transform="translate(0,201.5)" d="M80,0h580" style="stroke: rgb(211, 211, 211); stroke-opacity: 1; stroke-width: 1px;"/><path class="ygrid crisp" transform="translate(0,140.14)" d="M80,0h580" style="stroke: rgb(211, 211, 211); stroke-opacity: 1; stroke-width: 1px;"/></g></g><g class="zerolinelayer"><path class="xzl zl crisp" transform="translate(370,0)" d="M0,100v320" style="stroke: rgb(235, 240, 248); stroke-opacity: 1; stroke-width: 2px;"/></g><g class="layer-between"><g class="shapelayer"/><g class="imagelayer"/></g><path class="xlines-below"/><path class="ylines-below"/><g class="overlines-below"/><g class="xaxislayer-below"/><g class="yaxislayer-below"/><g class="overaxes-below"/><g class="overplot"><g class="xy" transform="translate(80,100)" clip-path="url(#clip817d6dxyplot)"><g class="scatterlayer mlayer"><g class="trace scatter trace92d20d" style="stroke-miterlimit: 2;"><g class="fills"><g><path class="js-fill" d="M0,280.26L7.63,268.52L15.26,266.22L22.89,261.31L30.53,266.47L38.16,271.51L45.79,268.84L53.42,271.99L61.05,271.29L76.32,281.74L83.95,277.45L91.58,275.19L99.21,273.99L106.84,267.52L114.47,279.84L122.11,287.01L129.74,290.65L137.37,287.28L145,287.94L152.63,282.16L160.26,281.45L167.89,266.77L175.53,263.06L190.79,274.08L198.42,271.16L206.05,272.79L213.68,280.7L221.32,293.22L228.95,295.78L236.58,292.89L244.21,287.15L251.84,279.88L259.47,276.21L267.11,271.05L274.74,269.99L282.37,270.92L290,274.52L297.63,283.26L305.26,282.81L312.89,280.94L320.53,274.48L328.16,264.28L335.79,262.81L343.42,272.79L351.05,270.41L358.68,276.78L366.32,276.61L373.95,277.24L381.58,276.79L389.21,285.71L396.84,281.81L404.47,282.01L412.11,286.16L419.74,287.15L427.37,284.02L435,280.72L442.63,274.79L450.26,283.45L457.89,289.58L465.53,285.76L473.16,286.29L480.79,288.7L488.42,289.22L496.05,277.04L503.68,280.91L511.32,274.57L518.95,272.35L526.58,268.88L534.21,289.01L541.84,289.06L549.47,284.09L564.74,297.66L572.37,296.97L580,304L580,286L572.37,277.68L564.74,280.34L557.11,271.73L549.47,266.63L541.84,270.83L534.21,270.54L526.58,248.09L518.95,251.49L511.32,254.3L503.68,261.71L496.05,258.26L488.42,272.8L480.79,272.17L473.16,270.63L465.53,269.83L457.89,274.27L450.26,267.43L442.63,256.83L435,262.9L427.37,266.91L419.74,272.03L412.11,266.9L404.47,261.46L396.84,265.46L389.21,270.12L381.58,260.36L373.95,261.72L366.32,258.34L358.68,256.26L351.05,247.75L343.42,254.58L335.79,246.3L328.16,247.65L320.53,257.88L312.89,265.95L305.26,270.47L297.63,270.29L290,261.39L282.37,257.68L274.74,256.5L267.11,257.24L251.84,266.04L244.21,273.79L236.58,278.55L228.95,283.91L221.32,281.13L213.68,268.65L206.05,258.55L198.42,255.34L190.79,257.69L183.16,252.55L175.53,243L167.89,248.16L160.26,266.43L152.63,267.57L145,274.5L137.37,274.95L129.74,278.13L122.11,272.64L114.47,265.82L106.84,252.45L99.21,260.13L91.58,260.15L83.95,262.88L76.32,267.83L61.05,255.26L53.42,256.58L45.79,251.93L38.16,255.71L30.53,250.93L22.89,246.15L15.26,249.88L7.63,252.23L0,266.33Z" style="fill: rgb(143, 0, 255); fill-opacity: 0.2; stroke-width: 0;"/></g></g><g class="errorbars"/><g class="lines"><path class="js-line" d="M0,266.33L7.63,252.23L15.26,249.88L22.89,246.15L30.53,250.93L38.16,255.71L45.79,251.93L53.42,256.58L61.05,255.26L76.32,267.83L83.95,262.88L91.58,260.15L99.21,260.13L106.84,252.45L114.47,265.82L122.11,272.64L129.74,278.13L137.37,274.95L145,274.5L152.63,267.57L160.26,266.43L167.89,248.16L175.53,243L183.16,252.55L190.79,257.69L198.42,255.34L206.05,258.55L213.68,268.65L221.32,281.13L228.95,283.91L236.58,278.55L244.21,273.79L251.84,266.04L267.11,257.24L274.74,256.5L282.37,257.68L290,261.39L297.63,270.29L305.26,270.47L312.89,265.95L320.53,257.88L328.16,247.65L335.79,246.3L343.42,254.58L351.05,247.75L358.68,256.26L366.32,258.34L373.95,261.72L381.58,260.36L389.21,270.12L396.84,265.46L404.47,261.46L412.11,266.9L419.74,272.03L427.37,266.91L435,262.9L442.63,256.83L450.26,267.43L457.89,274.27L465.53,269.83L473.16,270.63L480.79,272.17L488.42,272.8L496.05,258.26L503.68,261.71L511.32,254.3L518.95,251.49L526.58,248.09L534.21,270.54L541.84,270.83L549.47,266.63L557.11,271.73L564.74,280.34L572.37,277.68L580,286" style="vector-effect: none; fill: none; stroke: rgb(99, 110, 250); stroke-opacity: 1; stroke-width: 0px; opacity: 1;"/></g><g class="points"/><g class="text"/></g><g class="trace scatter trace509bb5" style="stroke-miterlimit: 2;"><g class="fills"/><g class="errorbars"/><g class="lines"><path class="js-line" d="M0,280.26L7.63,268.52L15.26,266.22L22.89,261.31L30.53,266.47L38.16,271.51L45.79,268.84L53.42,271.99L61.05,271.29L76.32,281.74L83.95,277.45L91.58,275.19L99.21,273.99L106.84,267.52L114.47,279.84L122.11,287.01L129.74,290.65L137.37,287.28L145,287.94L152.63,282.16L160.26,281.45L167.89,266.77L175.53,263.06L190.79,274.08L198.42,271.16L206.05,272.79L213.68,280.7L221.32,293.22L228.95,295.78L236.58,292.89L244.21,287.15L251.84,279.88L259.47,276.21L267.11,271.05L274.74,269.99L282.37,270.92L290,274.52L297.63,283.26L305.26,282.81L312.89,280.94L320.53,274.48L328.16,264.28L335.79,262.81L343.42,272.79L351.05,270.41L358.68,276.78L366.32,276.61L373.95,277.24L381.58,276.79L389.21,285.71L396.84,281.81L404.47,282.01L412.11,286.16L419.74,287.15L427.37,284.02L435,280.72L442.63,274.79L450.26,283.45L457.89,289.58L465.53,285.76L473.16,286.29L480.79,288.7L488.42,289.22L496.05,277.04L503.68,280.91L511.32,274.57L518.95,272.35L526.58,268.88L534.21,289.01L541.84,289.06L549.47,284.09L564.74,297.66L572.37,296.97L580,304" style="vector-effect: none; fill: none; stroke: rgb(239, 85, 59); stroke-opacity: 1; stroke-width: 0px; opacity: 1;"/></g><g class="points"/><g class="text"/></g><g class="trace scatter tracecabcb3" style="stroke-miterlimit: 2; opacity: 1;"><g class="fills"/><g class="errorbars"/><g class="lines"><path class="js-line" d="M0,273.29L7.63,260.37L15.26,258.05L22.89,253.73L30.53,258.7L38.16,263.61L45.79,260.39L53.42,264.29L61.05,263.28L76.32,274.79L83.95,270.16L91.58,267.67L99.21,267.06L106.84,259.98L114.47,272.83L122.11,279.83L129.74,284.39L137.37,281.12L145,281.22L152.63,274.87L160.26,273.94L167.89,257.46L175.53,253.03L183.16,260.35L190.79,265.89L198.42,263.25L206.05,265.67L213.68,274.67L221.32,287.17L228.95,289.85L236.58,285.72L244.21,280.47L251.84,272.96L267.11,264.15L274.74,263.24L282.37,264.3L290,267.96L297.63,276.77L305.26,276.64L312.89,273.45L320.53,266.18L328.16,255.97L335.79,254.56L343.42,263.69L351.05,259.08L358.68,266.52L366.32,267.47L373.95,269.48L381.58,268.58L389.21,277.91L396.84,273.63L404.47,271.73L412.11,276.53L419.74,279.59L427.37,275.46L435,271.81L442.63,265.81L450.26,275.44L457.89,281.92L465.53,277.8L473.16,278.46L480.79,280.44L488.42,281.01L496.05,267.65L503.68,271.31L511.32,264.44L518.95,261.92L526.58,258.48L534.21,279.77L541.84,279.94L549.47,275.36L557.11,281.15L564.74,289L572.37,287.33L580,295" style="vector-effect: none; fill: none; stroke: rgb(143, 0, 255); stroke-opacity: 1; stroke-width: 3px; opacity: 1;"/></g><g class="points"/><g class="text"/></g><g class="trace scatter tracecd8374" style="stroke-miterlimit: 2;"><g class="fills"><g><path class="js-fill" d="M0,78.04L7.63,84.01L15.26,69.7L22.89,65.67L30.53,57.37L38.16,59.15L45.79,69.01L53.42,90.53L61.05,102.93L68.68,87.64L76.32,69.5L83.95,79.57L91.58,75.36L99.21,50.73L106.84,55.12L114.47,74.71L122.11,75.34L129.74,78.83L137.37,69.26L145,92.79L152.63,97.42L160.26,92.38L167.89,69.85L175.53,87.72L183.16,93.44L190.79,99.74L198.42,111.36L206.05,83.14L213.68,93.3L221.32,89.7L228.95,77.3L236.58,88.59L244.21,88.79L251.84,79.92L259.47,98.47L274.74,103.56L282.37,101.89L290,98.57L297.63,98.95L305.26,75.44L312.89,103.59L320.53,127.66L328.16,108.39L335.79,99.25L343.42,84.6L351.05,119.45L358.68,123.62L366.32,143.7L373.95,160.83L381.58,142.57L389.21,129.39L396.84,142.21L404.47,135.45L412.11,146.24L419.74,155.68L427.37,139.06L435,119.5L442.63,130.01L450.26,133.78L457.89,140.75L465.53,134.21L473.16,119.39L480.79,127.83L488.42,129.6L496.05,128.03L503.68,168.19L511.32,150.77L518.95,81.64L526.58,67.69L534.21,89.75L541.84,91.67L549.47,124.08L557.11,124.96L564.74,136.12L572.37,136.48L580,104.21L580,60.6L572.37,96.17L564.74,95.11L557.11,82.9L549.47,80.94L541.84,45.82L534.21,41.2L526.58,16.04L518.95,33.07L511.32,110.29L503.68,129.63L496.05,84.65L488.42,84.23L480.79,83.25L473.16,74.81L465.53,92.64L457.89,99.58L450.26,92.44L442.63,89.62L435,77.05L419.74,117.32L412.11,105.75L404.47,92.1L396.84,101.35L389.21,87.1L381.58,104.82L373.95,128.55L366.32,110.23L358.68,87.17L351.05,82.17L343.42,50.05L335.79,69.37L328.16,77.28L320.53,92.78L305.26,41.07L297.63,69.99L290,69.58L282.37,74.98L274.74,77.19L267.11,73.85L259.47,68.87L251.84,49.57L244.21,55.5L236.58,57.61L228.95,47.53L221.32,57.36L213.68,63.14L206.05,52.5L198.42,84.16L190.79,73.48L183.16,64.27L175.53,60.88L167.89,40.17L160.26,63.29L152.63,72.36L145,66.84L137.37,39.85L129.74,49.39L122.11,45.64L114.47,43.07L106.84,17.67L99.21,16L91.58,41.43L83.95,47.32L76.32,36.87L68.68,60.09L61.05,76.66L53.42,63.08L45.79,38.45L38.16,27.18L30.53,24.6L22.89,37.1L15.26,39.54L7.63,54.62L0,47.98Z" style="fill: rgb(255, 20, 147); fill-opacity: 0.2; stroke-width: 0;"/></g></g><g class="errorbars"/><g class="lines"><path class="js-line" d="M0,47.98L7.63,54.62L15.26,39.54L22.89,37.1L30.53,24.6L38.16,27.18L45.79,38.45L53.42,63.08L61.05,76.66L68.68,60.09L76.32,36.87L83.95,47.32L91.58,41.43L99.21,16L106.84,17.67L114.47,43.07L122.11,45.64L129.74,49.39L137.37,39.85L145,66.84L152.63,72.36L160.26,63.29L167.89,40.17L175.53,60.88L183.16,64.27L190.79,73.48L198.42,84.16L206.05,52.5L213.68,63.14L221.32,57.36L228.95,47.53L236.58,57.61L244.21,55.5L251.84,49.57L259.47,68.87L267.11,73.85L274.74,77.19L282.37,74.98L290,69.58L297.63,69.99L305.26,41.07L320.53,92.78L328.16,77.28L335.79,69.37L343.42,50.05L351.05,82.17L358.68,87.17L366.32,110.23L373.95,128.55L381.58,104.82L389.21,87.1L396.84,101.35L404.47,92.1L412.11,105.75L419.74,117.32L435,77.05L442.63,89.62L450.26,92.44L457.89,99.58L465.53,92.64L473.16,74.81L480.79,83.25L488.42,84.23L496.05,84.65L503.68,129.63L511.32,110.29L518.95,33.07L526.58,16.04L534.21,41.2L541.84,45.82L549.47,80.94L557.11,82.9L564.74,95.11L572.37,96.17L580,60.6" style="vector-effect: none; fill: none; stroke: rgb(171, 99, 250); stroke-opacity: 1; stroke-width: 0px; opacity: 1;"/></g><g class="points"/><g class="text"/></g><g class="trace scatter tracecabf8c" style="stroke-miterlimit: 2;"><g class="fills"/><g class="errorbars"/><g class="lines"><path class="js-line" d="M0,78.04L7.63,84.01L15.26,69.7L22.89,65.67L30.53,57.37L38.16,59.15L45.79,69.01L53.42,90.53L61.05,102.93L68.68,87.64L76.32,69.5L83.95,79.57L91.58,75.36L99.21,50.73L106.84,55.12L114.47,74.71L122.11,75.34L129.74,78.83L137.37,69.26L145,92.79L152.63,97.42L160.26,92.38L167.89,69.85L175.53,87.72L183.16,93.44L190.79,99.74L198.42,111.36L206.05,83.14L213.68,93.3L221.32,89.7L228.95,77.3L236.58,88.59L244.21,88.79L251.84,79.92L259.47,98.47L274.74,103.56L282.37,101.89L290,98.57L297.63,98.95L305.26,75.44L312.89,103.59L320.53,127.66L328.16,108.39L335.79,99.25L343.42,84.6L351.05,119.45L358.68,123.62L366.32,143.7L373.95,160.83L381.58,142.57L389.21,129.39L396.84,142.21L404.47,135.45L412.11,146.24L419.74,155.68L427.37,139.06L435,119.5L442.63,130.01L450.26,133.78L457.89,140.75L465.53,134.21L473.16,119.39L480.79,127.83L488.42,129.6L496.05,128.03L503.68,168.19L511.32,150.77L518.95,81.64L526.58,67.69L534.21,89.75L541.84,91.67L549.47,124.08L557.11,124.96L564.74,136.12L572.37,136.48L580,104.21" style="vector-effect: none; fill: none; stroke: rgb(255, 161, 90); stroke-opacity: 1; stroke-width: 0px; opacity: 1;"/></g><g class="points"/><g class="text"/></g><g class="trace scatter trace09437b" style="stroke-miterlimit: 2; opacity: 1;"><g class="fills"/><g class="errorbars"/><g class="lines"><path class="js-line" d="M0,63.01L7.63,69.31L15.26,54.62L22.89,51.38L30.53,40.99L38.16,43.16L45.79,53.73L53.42,76.81L61.05,89.8L68.68,73.86L76.32,53.18L83.95,63.45L91.58,58.4L99.21,33.36L106.84,36.4L114.47,58.89L122.11,60.49L129.74,64.11L137.37,54.55L145,79.82L152.63,84.89L160.26,77.84L167.89,55.01L175.53,74.3L183.16,78.85L190.79,86.61L198.42,97.76L206.05,67.82L213.68,78.22L221.32,73.53L228.95,62.42L236.58,73.1L244.21,72.14L251.84,64.74L259.47,83.67L267.11,87.52L274.74,90.37L282.37,88.44L290,84.07L297.63,84.47L305.26,58.25L320.53,110.22L328.16,92.84L335.79,84.31L343.42,67.33L351.05,100.81L358.68,105.39L366.32,126.96L373.95,144.69L381.58,123.7L389.21,108.24L396.84,121.78L404.47,113.77L412.11,126L419.74,136.5L427.37,118.36L435,98.28L442.63,109.81L450.26,113.11L457.89,120.17L465.53,113.43L473.16,97.1L480.79,105.54L488.42,106.91L496.05,106.34L503.68,148.91L511.32,130.53L518.95,57.36L526.58,41.87L534.21,65.48L541.84,68.75L549.47,102.51L557.11,103.93L564.74,115.62L572.37,116.32L580,82.4" style="vector-effect: none; fill: none; stroke: rgb(255, 20, 147); stroke-opacity: 1; stroke-width: 3px; opacity: 1;"/></g><g class="points"/><g class="text"/></g></g></g></g><g class="zerolinelayer-above"/><path class="xlines-above crisp" d="M79,420.5H661M79,99.5H661" style="fill: none; stroke-width: 1px; stroke: rgb(0, 0, 0); stroke-opacity: 1;"/><path class="ylines-above crisp" d="M79.5,100V420M660.5,100V420" style="fill: none; stroke-width: 1px; stroke: rgb(0, 0, 0); stroke-opacity: 1;"/><g class="overlines-above"/><g class="xaxislayer-above"><path class="xtick ticks crisp" d="M0,421v5" transform="translate(141.05,0)" style="stroke: rgb(68, 68, 68); stroke-opacity: 1; stroke-width: 1px;"/><path class="xtick ticks crisp" d="M0,421v5" transform="translate(217.37,0)" style="stroke: rgb(68, 68, 68); stroke-opacity: 1; stroke-width: 1px;"/><path class="xtick ticks crisp" d="M0,421v5" transform="translate(293.68,0)" style="stroke: rgb(68, 68, 68); stroke-opacity: 1; stroke-width: 1px;"/><path class="xtick ticks crisp" d="M0,421v5" transform="translate(370,0)" style="stroke: rgb(68, 68, 68); stroke-opacity: 1; stroke-width: 1px;"/><path class="xtick ticks crisp" d="M0,421v5" transform="translate(446.32,0)" style="stroke: rgb(68, 68, 68); stroke-opacity: 1; stroke-width: 1px;"/><path class="xtick ticks crisp" d="M0,421v5" transform="translate(522.63,0)" style="stroke: rgb(68, 68, 68); stroke-opacity: 1; stroke-width: 1px;"/><path class="xtick ticks crisp" d="M0,421v5" transform="translate(598.95,0)" style="stroke: rgb(68, 68, 68); stroke-opacity: 1; stroke-width: 1px;"/><g class="xtick"><text text-anchor="middle" x="0" y="440.4" transform="translate(141.05,0)" style="font-family: 'Open Sans', verdana, arial, sans-serif; font-size: 12px; fill: rgb(42, 63, 95); fill-opacity: 1; white-space: pre;">−1500</text></g><g class="xtick"><text text-anchor="middle" x="0" y="440.4" style="font-family: 'Open Sans', verdana, arial, sans-serif; font-size: 12px; fill: rgb(42, 63, 95); fill-opacity: 1; white-space: pre;" transform="translate(217.37,0)">−1000</text></g><g class="xtick"><text text-anchor="middle" x="0" y="440.4" style="font-family: 'Open Sans', verdana, arial, sans-serif; font-size: 12px; fill: rgb(42, 63, 95); fill-opacity: 1; white-space: pre;" transform="translate(293.68,0)">−500</text></g><g class="xtick"><text text-anchor="middle" x="0" y="440.4" style="font-family: 'Open Sans', verdana, arial, sans-serif; font-size: 12px; fill: rgb(42, 63, 95); fill-opacity: 1; white-space: pre;" transform="translate(370,0)">0</text></g><g class="xtick"><text text-anchor="middle" x="0" y="440.4" style="font-family: 'Open Sans', verdana, arial, sans-serif; font-size: 12px; fill: rgb(42, 63, 95); fill-opacity: 1; white-space: pre;" transform="translate(446.32,0)">500</text></g><g class="xtick"><text text-anchor="middle" x="0" y="440.4" style="font-family: 'Open Sans', verdana, arial, sans-serif; font-size: 12px; fill: rgb(42, 63, 95); fill-opacity: 1; white-space: pre;" transform="translate(522.63,0)">1000</text></g><g class="xtick"><text text-anchor="middle" x="0" y="440.4" style="font-family: 'Open Sans', verdana, arial, sans-serif; font-size: 12px; fill: rgb(42, 63, 95); fill-opacity: 1; white-space: pre;" transform="translate(598.95,0)">1500</text></g></g><g class="yaxislayer-above"><path class="ytick ticks crisp" d="M79,0h-5" transform="translate(0,385.58)" style="stroke: rgb(68, 68, 68); stroke-opacity: 1; stroke-width: 1px;"/><path class="ytick ticks crisp" d="M79,0h-5" transform="translate(0,324.22)" style="stroke: rgb(68, 68, 68); stroke-opacity: 1; stroke-width: 1px;"/><path class="ytick ticks crisp" d="M79,0h-5" transform="translate(0,262.86)" style="stroke: rgb(68, 68, 68); stroke-opacity: 1; stroke-width: 1px;"/><path class="ytick ticks crisp" d="M79,0h-5" transform="translate(0,201.5)" style="stroke: rgb(68, 68, 68); stroke-opacity: 1; stroke-width: 1px;"/><path class="ytick ticks crisp" d="M79,0h-5" transform="translate(0,140.14)" style="stroke: rgb(68, 68, 68); stroke-opacity: 1; stroke-width: 1px;"/><g class="ytick"><text text-anchor="end" x="71.6" y="4.199999999999999" transform="translate(0,385.58)" style="font-family: 'Open Sans', verdana, arial, sans-serif; font-size: 12px; fill: rgb(42, 63, 95); fill-opacity: 1; white-space: pre;">0.1</text></g><g class="ytick"><text text-anchor="end" x="71.6" y="4.199999999999999" style="font-family: 'Open Sans', verdana, arial, sans-serif; font-size: 12px; fill: rgb(42, 63, 95); fill-opacity: 1; white-space: pre;" transform="translate(0,324.22)">0.15</text></g><g class="ytick"><text text-anchor="end" x="71.6" y="4.199999999999999" style="font-family: 'Open Sans', verdana, arial, sans-serif; font-size: 12px; fill: rgb(42, 63, 95); fill-opacity: 1; white-space: pre;" transform="translate(0,262.86)">0.2</text></g><g class="ytick"><text text-anchor="end" x="71.6" y="4.199999999999999" style="font-family: 'Open Sans', verdana, arial, sans-serif; font-size: 12px; fill: rgb(42, 63, 95); fill-opacity: 1; white-space: pre;" transform="translate(0,201.5)">0.25</text></g><g class="ytick"><text text-anchor="end" x="71.6" y="4.199999999999999" style="font-family: 'Open Sans', verdana, arial, sans-serif; font-size: 12px; fill: rgb(42, 63, 95); fill-opacity: 1; white-space: pre;" transform="translate(0,140.14)">0.3</text></g></g><g class="overaxes-above"/></g></g><g class="polarlayer"/><g class="smithlayer"/><g class="ternarylayer"/><g class="geolayer"/><g class="funnelarealayer"/><g class="pielayer"/><g class="iciclelayer"/><g class="treemaplayer"/><g class="sunburstlayer"/><g class="glimages"/><defs id="topdefs-817d6d"><g class="clips"/><clipPath id="legend817d6d"><rect width="296" height="29" x="1" y="1"/></clipPath></defs><g class="layer-above"><g class="imagelayer"/><g class="shapelayer"><g class="shape-group" data-index="0" clip-path="url(#clip817d6dx)"><path data-index="0" fill-rule="evenodd" d="M370,420L370,100" style="opacity: 1; stroke: rgb(0, 0, 0); stroke-opacity: 1; fill: rgb(0, 0, 0); fill-opacity: 0; stroke-dasharray: 9px, 9px; stroke-width: 2px;"/></g><g class="shape-group" data-index="1" clip-path="url(#clip817d6dx)"><path data-index="1" fill-rule="evenodd" d="M212.64,420L212.64,100" style="opacity: 1; stroke: rgb(128, 128, 128); stroke-opacity: 1; fill: rgb(0, 0, 0); fill-opacity: 0; stroke-dasharray: 3px, 3px; stroke-width: 2px;"/></g></g></g><g class="infolayer"><g class="legend" pointer-events="all" transform="translate(362,62.599999999999994)"><rect class="bg" shape-rendering="crispEdges" style="stroke: rgb(0, 0, 0); stroke-opacity: 1; fill: rgb(255, 255, 255); fill-opacity: 0.8; stroke-width: 1px;" width="297" height="30" x="0.5" y="0.5"/><g class="scrollbox" transform="" clip-path="url(#legend817d6d)"><g class="groups" transform=""><g class="traces" transform="translate(0,15.5)" style="opacity: 1;"><text class="legendtext" text-anchor="start" x="40" y="4.680000000000001" style="font-family: 'Open Sans', verdana, arial, sans-serif; font-size: 12px; fill: rgb(42, 63, 95); fill-opacity: 1; white-space: pre;">Standard (AAAB)</text><g class="layers" style="opacity: 1;"><g class="legendfill"/><g class="legendlines"><path class="js-line" d="M5,0h30" style="fill: none; stroke: rgb(143, 0, 255); stroke-opacity: 1; stroke-width: 3px;"/></g><g class="legendsymbols"><g class="legendpoints"/></g></g><rect class="legendtoggle" x="0" y="-9.5" width="145.46875" height="19" style="fill: rgb(0, 0, 0); fill-opacity: 0;"/></g></g><g class="groups" transform="translate(147.96875,0)"><g class="traces" transform="translate(0,15.5)" style="opacity: 1;"><text class="legendtext" text-anchor="start" x="40" y="4.680000000000001" style="font-family: 'Open Sans', verdana, arial, sans-serif; font-size: 12px; fill: rgb(42, 63, 95); fill-opacity: 1; white-space: pre;">Omission (AXAB)</text><g class="layers" style="opacity: 1;"><g class="legendfill"/><g class="legendlines"><path class="js-line" d="M5,0h30" style="fill: none; stroke: rgb(255, 20, 147); stroke-opacity: 1; stroke-width: 3px;"/></g><g class="legendsymbols"><g class="legendpoints"/></g></g><rect class="legendtoggle" x="0" y="-9.5" width="145.5546875" height="19" style="fill: rgb(0, 0, 0); fill-opacity: 0;"/></g></g></g><rect class="scrollbar" rx="20" ry="3" width="0" height="0" style="fill: rgb(128, 139, 164); fill-opacity: 1;" x="0" y="0"/></g><g class="g-gtitle"><text class="gtitle" x="350" y="50" text-anchor="middle" dy="0em" style="opacity: 1; font-family: Arial; font-size: 18px; fill: rgb(0, 0, 0); fill-opacity: 1; white-space: pre;"><tspan class="line" dy="0em" x="350" y="50"><tspan style="font-weight:bold">Figure f010: V3a Delta SFC</tspan></tspan><tspan class="line" dy="1.3em" x="350" y="50">​<tspan style="font-size:70%" dy="-0.6em">Continuous 2-4 Hz Phase-Locking Value | N=219 units</tspan><tspan dy="0.42em">​</tspan></tspan></text></g><g class="g-xtitle"><text class="xtitle" x="370" y="467.200390625" text-anchor="middle" style="opacity: 1; font-family: 'Open Sans', verdana, arial, sans-serif; font-size: 14px; fill: rgb(42, 63, 95); fill-opacity: 1; white-space: pre;">Time from Omission (ms)</text></g><g class="g-ytitle"><text class="ytitle" transform="rotate(-90,24.941796875,260)" x="24.941796875" y="260" text-anchor="middle" style="opacity: 1; font-family: 'Open Sans', verdana, arial, sans-serif; font-size: 14px; fill: rgb(42, 63, 95); fill-opacity: 1; white-space: pre;">Delta SFC (PLV)</text></g><g class="annotation" data-index="0" style="opacity: 1;"><g class="annotation-text-g" transform="rotate(0,419.5,109.5)"><g class="cursor-pointer" transform="translate(370,100)"><rect class="bg" x="0.5" y="0.5" width="98" height="18" style="stroke-width: 1px; stroke: rgb(0, 0, 0); stroke-opacity: 0; fill: rgb(0, 0, 0); fill-opacity: 0;"/><text class="annotation-text" text-anchor="middle" x="49.23828125" y="14" style="font-family: 'Open Sans', verdana, arial, sans-serif; font-size: 12px; fill: rgb(42, 63, 95); fill-opacity: 1; white-space: pre;">Omission Onset</text></g></g></g><g class="annotation" data-index="1" style="opacity: 1;"><g class="annotation-text-g" transform="rotate(0,242.14,109.5)"><g class="cursor-pointer" transform="translate(213,100)"><rect class="bg" x="0.5" y="0.5" width="58" height="18" style="stroke-width: 1px; stroke: rgb(0, 0, 0); stroke-opacity: 0; fill: rgb(0, 0, 0); fill-opacity: 0;"/><text class="annotation-text" text-anchor="middle" x="29.12890625" y="14" style="font-family: 'Open Sans', verdana, arial, sans-serif; font-size: 12px; fill: rgb(42, 63, 95); fill-opacity: 1; white-space: pre;">P1 Onset</text></g></g></g></g></svg>