<svg class="main-svg" xmlns="http://www.w3.org/2000/svg" xmlns:xlink="http://www.w3.org/1999/xlink" width="700" height="500" style="" viewBox="0 0 700 500"><rect x="0" y="0" width="700" height="500" style="fill: rgb(255, 255, 255); fill-opacity: 1;"/><defs id="defs-72d5e3"><g class="clips"><clipPath id="clip72d5e3xyplot" class="plotclip"><rect width="580" height="320"/></clipPath><clipPath class="axesclip" id="clip72d5e3x"><rect x="80" y="0" width="580" height="500"/></clipPath><clipPath class="axesclip" id="clip72d5e3y"><rect x="0" y="100" width="700" height="320"/></clipPath><clipPath class="axesclip" id="clip72d5e3xy"><rect x="80" y="100" width="580" height="320"/></clipPath></g><g class="gradients"/><g class="patterns"/></defs><g class="bglayer"/><g class="layer-below"><g class="imagelayer"/><g class="shapelayer"/></g><g class="cartesianlayer"><g class="subplot xy"><g class="layer-subplot"><g class="shapelayer"/><g class="imagelayer"/></g><g class="minor-gridlayer"><g class="x"/><g class="y"/></g><g class="gridlayer"><g class="x"><path class="xgrid crisp" transform="translate(141.05,0)" d="M0,100v320" style="stroke: rgb(211, 211, 211); stroke-opacity: 1; stroke-width: 1px;"/><path class="xgrid crisp" transform="translate(217.37,0)" d="M0,100v320" style="stroke: rgb(211, 211, 211); stroke-opacity: 1; stroke-width: 1px;"/><path class="xgrid crisp" transform="translate(293.68,0)" d="M0,100v320" style="stroke: rgb(211, 211, 211); stroke-opacity: 1; stroke-width: 1px;"/><path class="xgrid crisp" transform="translate(446.32,0)" d="M0,100v320" style="stroke: rgb(211, 211, 211); stroke-opacity: 1; stroke-width: 1px;"/><path class="xgrid crisp" transform="translate(522.63,0)" d="M0,100v320" style="stroke: rgb(211, 211, 211); stroke-opacity: 1; stroke-width: 1px;"/><path class="xgrid crisp" transform="translate(598.95,0)" d="M0,100v320" style="stroke: rgb(211, 211, 211); stroke-opacity: 1; stroke-width: 1px;"/></g><g class="y"><path class="ygrid crisp" transform="translate(0,359.78)" d="M80,0h580" style="stroke: rgb(211, 211, 211); stroke-opacity: 1; stroke-width: 1px;"/><path class="ygrid crisp" transform="translate(0,288.7)" d="M80,0h580" style="stroke: rgb(211, 211, 211); stroke-opacity: 1; stroke-width: 1px;"/><path class="ygrid crisp" transform="translate(0,217.61)" d="M80,0h580" style="stroke: rgb(211, 211, 211); stroke-opacity: 1; stroke-width: 1px;"/><path class="ygrid crisp" transform="translate(0,146.52)" d="M80,0h580" style="stroke: rgb(211, 211, 211); stroke-opacity: 1; stroke-width: 1px;"/></g></g><g class="zerolinelayer"><path class="xzl zl crisp" transform="translate(370,0)" d="M0,100v320" style="stroke: rgb(235, 240, 248); stroke-opacity: 1; stroke-width: 2px;"/></g><g class="layer-between"><g class="shapelayer"/><g class="imagelayer"/></g><path class="xlines-below"/><path class="ylines-below"/><g class="overlines-below"/><g class="xaxislayer-below"/><g class="yaxislayer-below"/><g class="overaxes-below"/><g class="overplot"><g class="xy" transform="translate(80,100)" clip-path="url(#clip72d5e3xyplot)"><g class="scatterlayer mlayer"><g class="trace scatter trace6aa375" style="stroke-miterlimit: 2;"><g class="fills"><g><path class="js-fill" d="M0,251.74L7.63,246.97L15.26,253.71L22.89,248.84L30.53,245.86L38.16,236.68L45.79,239.43L53.42,248.08L61.05,247.64L68.68,250.4L76.32,247.73L83.95,249.77L91.58,251.03L99.21,248.07L106.84,243.94L114.47,239.07L122.11,242.3L129.74,246.31L137.37,243.66L145,243.48L152.63,249.36L160.26,248.49L167.89,251.06L175.53,251.39L183.16,252.69L190.79,249.82L198.42,251.91L206.05,245.21L213.68,244.2L221.32,247.32L228.95,257.48L236.58,251.15L244.21,247.86L251.84,249.47L259.47,247.61L267.11,245.08L274.74,239.91L282.37,238.49L290,242.35L297.63,248.92L305.26,252.73L312.89,268.51L320.53,277.51L328.16,267.92L335.79,256.12L343.42,266.05L351.05,281.29L358.68,286.62L366.32,281.85L373.95,283.62L381.58,291.69L389.21,295.7L396.84,301.79L404.47,292.62L412.11,288.66L419.74,291.55L427.37,289.55L435,296.12L442.63,296.37L450.26,294.89L457.89,295.77L465.53,289.2L473.16,286.43L480.79,289.53L488.42,290.84L496.05,296.86L503.68,297.23L511.32,298.34L518.95,294.64L526.58,300.5L534.21,304L541.84,293.87L549.47,295.25L557.11,293.55L564.74,295.78L572.37,293.37L580,280.05L580,268.47L572.37,282.05L564.74,284.14L557.11,282.59L549.47,284.2L541.84,284.07L534.21,295.35L518.95,284.56L511.32,287.83L496.05,285.37L488.42,278.91L480.79,278.14L473.16,275.96L465.53,278.33L457.89,285.42L450.26,284.97L442.63,285.97L435,285.67L427.37,277.9L419.74,280.07L412.11,278.37L404.47,282.46L396.84,292.99L389.21,286.4L381.58,280.81L373.95,272.64L366.32,270.08L358.68,274.14L351.05,269.89L343.42,257.19L335.79,247.3L320.53,266.97L312.89,258.04L305.26,242.82L297.63,238.88L290,231.79L282.37,228L274.74,229.62L267.11,234.75L251.84,239.18L244.21,237.74L236.58,240.77L228.95,247.98L221.32,236.99L213.68,234.26L206.05,233.65L198.42,242.37L190.79,239.24L183.16,242.87L167.89,241.15L160.26,238.17L152.63,239.39L145,233.18L137.37,232.75L129.74,235.73L114.47,228.03L106.84,233.35L99.21,237.06L91.58,239.95L76.32,237.29L68.68,240.99L61.05,237.07L53.42,237.52L45.79,228.02L38.16,225.18L30.53,235.57L22.89,238.77L15.26,243.32L7.63,235.56L0,240.05Z" style="fill: rgb(143, 0, 255); fill-opacity: 0.2; stroke-width: 0;"/></g></g><g class="errorbars"/><g class="lines"><path class="js-line" d="M0,240.05L7.63,235.56L15.26,243.32L22.89,238.77L30.53,235.57L38.16,225.18L45.79,228.02L53.42,237.52L61.05,237.07L68.68,240.99L76.32,237.29L91.58,239.95L99.21,237.06L106.84,233.35L114.47,228.03L129.74,235.73L137.37,232.75L145,233.18L152.63,239.39L160.26,238.17L167.89,241.15L183.16,242.87L190.79,239.24L198.42,242.37L206.05,233.65L213.68,234.26L221.32,236.99L228.95,247.98L236.58,240.77L244.21,237.74L251.84,239.18L267.11,234.75L274.74,229.62L282.37,228L290,231.79L297.63,238.88L305.26,242.82L312.89,258.04L320.53,266.97L335.79,247.3L343.42,257.19L351.05,269.89L358.68,274.14L366.32,270.08L373.95,272.64L381.58,280.81L389.21,286.4L396.84,292.99L404.47,282.46L412.11,278.37L419.74,280.07L427.37,277.9L435,285.67L442.63,285.97L450.26,284.97L457.89,285.42L465.53,278.33L473.16,275.96L480.79,278.14L488.42,278.91L496.05,285.37L511.32,287.83L518.95,284.56L534.21,295.35L541.84,284.07L549.47,284.2L557.11,282.59L564.74,284.14L572.37,282.05L580,268.47" style="vector-effect: none; fill: none; stroke: rgb(99, 110, 250); stroke-opacity: 1; stroke-width: 0px; opacity: 1;"/></g><g class="points"/><g class="text"/></g><g class="trace scatter trace72360b" style="stroke-miterlimit: 2;"><g class="fills"/><g class="errorbars"/><g class="lines"><path class="js-line" d="M0,251.74L7.63,246.97L15.26,253.71L22.89,248.84L30.53,245.86L38.16,236.68L45.79,239.43L53.42,248.08L61.05,247.64L68.68,250.4L76.32,247.73L83.95,249.77L91.58,251.03L99.21,248.07L106.84,243.94L114.47,239.07L122.11,242.3L129.74,246.31L137.37,243.66L145,243.48L152.63,249.36L160.26,248.49L167.89,251.06L175.53,251.39L183.16,252.69L190.79,249.82L198.42,251.91L206.05,245.21L213.68,244.2L221.32,247.32L228.95,257.48L236.58,251.15L244.21,247.86L251.84,249.47L259.47,247.61L267.11,245.08L274.74,239.91L282.37,238.49L290,242.35L297.63,248.92L305.26,252.73L312.89,268.51L320.53,277.51L328.16,267.92L335.79,256.12L343.42,266.05L351.05,281.29L358.68,286.62L366.32,281.85L373.95,283.62L381.58,291.69L389.21,295.7L396.84,301.79L404.47,292.62L412.11,288.66L419.74,291.55L427.37,289.55L435,296.12L442.63,296.37L450.26,294.89L457.89,295.77L465.53,289.2L473.16,286.43L480.79,289.53L488.42,290.84L496.05,296.86L503.68,297.23L511.32,298.34L518.95,294.64L526.58,300.5L534.21,304L541.84,293.87L549.47,295.25L557.11,293.55L564.74,295.78L572.37,293.37L580,280.05" style="vector-effect: none; fill: none; stroke: rgb(239, 85, 59); stroke-opacity: 1; stroke-width: 0px; opacity: 1;"/></g><g class="points"/><g class="text"/></g><g class="trace scatter tracefaeee4" style="stroke-miterlimit: 2; opacity: 1;"><g class="fills"/><g class="errorbars"/><g class="lines"><path class="js-line" d="M0,245.89L7.63,241.27L15.26,248.52L22.89,243.81L30.53,240.71L38.16,230.93L45.79,233.73L53.42,242.8L61.05,242.35L68.68,245.69L76.32,242.51L91.58,245.49L99.21,242.56L106.84,238.65L114.47,233.55L129.74,241.02L137.37,238.2L145,238.33L152.63,244.38L160.26,243.33L167.89,246.1L183.16,247.78L190.79,244.53L198.42,247.14L206.05,239.43L213.68,239.23L221.32,242.15L228.95,252.73L236.58,245.96L244.21,242.8L251.84,244.33L267.11,239.91L274.74,234.77L282.37,233.24L290,237.07L297.63,243.9L305.26,247.78L312.89,263.27L320.53,272.24L328.16,262.72L335.79,251.71L343.42,261.62L351.05,275.59L358.68,280.38L366.32,275.97L373.95,278.13L381.58,286.25L389.21,291.05L396.84,297.39L404.47,287.54L412.11,283.51L419.74,285.81L427.37,283.73L435,290.89L442.63,291.17L450.26,289.93L457.89,290.59L465.53,283.76L473.16,281.19L480.79,283.84L488.42,284.88L496.05,291.11L503.68,292.06L511.32,293.08L518.95,289.6L526.58,295.29L534.21,299.67L541.84,288.97L549.47,289.72L557.11,288.07L564.74,289.96L572.37,287.71L580,274.26" style="vector-effect: none; fill: none; stroke: rgb(143, 0, 255); stroke-opacity: 1; stroke-width: 3px; opacity: 1;"/></g><g class="points"/><g class="text"/></g><g class="trace scatter trace7f849c" style="stroke-miterlimit: 2;"><g class="fills"><g><path class="js-fill" d="M0,67.49L7.63,44.65L15.26,54.89L22.89,68.98L30.53,56.81L45.79,43.67L53.42,54.79L61.05,59.17L68.68,61.76L76.32,48.79L83.95,60.2L91.58,56.84L99.21,55.65L106.84,54.49L114.47,57.88L122.11,55.15L129.74,66.38L137.37,68.37L145,60.52L152.63,67.8L160.26,61.6L167.89,59.36L175.53,53.16L183.16,59.09L190.79,67.6L198.42,68.35L206.05,71.53L213.68,83.25L221.32,102.08L228.95,92.19L236.58,66.69L251.84,37.45L259.47,47.29L267.11,48.69L274.74,53.36L282.37,56.13L290,66.08L297.63,64.51L305.26,68.57L312.89,66.9L320.53,74.08L328.16,61.1L335.79,55.82L343.42,67.92L351.05,82.39L358.68,88.25L366.32,69.53L373.95,73.86L381.58,74.5L389.21,86.41L396.84,94.42L404.47,81.79L412.11,80.19L419.74,74.97L427.37,82.45L435,86.35L442.63,89.18L450.26,76.13L457.89,78.7L465.53,72.9L473.16,82.38L480.79,64.64L488.42,73.81L496.05,76.24L503.68,94.57L511.32,91.82L518.95,90.63L526.58,89.51L534.21,92.84L541.84,96.02L549.47,102.93L557.11,105.67L564.74,110.37L572.37,103.78L580,111.39L580,87.67L572.37,79.78L564.74,86.97L557.11,82.73L549.47,79.95L541.84,71.97L534.21,67.89L526.58,64.79L518.95,66.53L511.32,66.66L503.68,68.97L496.05,49.74L488.42,48.28L480.79,38.06L473.16,55.85L465.53,46.66L457.89,51.63L450.26,50.71L442.63,64.31L435,60.98L427.37,56.75L419.74,48.65L412.11,53.24L404.47,56.93L396.84,71.85L389.21,62.36L381.58,50.14L373.95,49.56L366.32,44.26L358.68,63.6L351.05,58.69L343.42,45.89L335.79,36.18L328.16,41.03L320.53,54.21L312.89,46.63L305.26,48.66L297.63,46.61L290,48.92L282.37,37.6L274.74,34.65L267.11,28.81L259.47,26.38L251.84,16L244.21,32.22L236.58,47.49L228.95,75.24L221.32,87.27L213.68,66.41L206.05,54.49L198.42,50.49L190.79,50L183.16,40.38L175.53,35.64L167.89,40.47L160.26,42.26L152.63,50.48L145,42.88L137.37,51.32L129.74,48.82L122.11,37.02L114.47,39.29L106.84,36.81L99.21,38.63L91.58,38.61L83.95,42.04L76.32,30.02L68.68,43.75L61.05,41.96L53.42,37.82L45.79,25.37L38.16,30.96L30.53,37.6L22.89,50.16L15.26,36.53L7.63,26.25L0,49.13Z" style="fill: rgb(255, 20, 147); fill-opacity: 0.2; stroke-width: 0;"/></g></g><g class="errorbars"/><g class="lines"><path class="js-line" d="M0,49.13L7.63,26.25L15.26,36.53L22.89,50.16L30.53,37.6L38.16,30.96L45.79,25.37L53.42,37.82L61.05,41.96L68.68,43.75L76.32,30.02L83.95,42.04L91.58,38.61L99.21,38.63L106.84,36.81L114.47,39.29L122.11,37.02L129.74,48.82L137.37,51.32L145,42.88L152.63,50.48L160.26,42.26L167.89,40.47L175.53,35.64L183.16,40.38L190.79,50L198.42,50.49L206.05,54.49L213.68,66.41L221.32,87.27L228.95,75.24L236.58,47.49L244.21,32.22L251.84,16L259.47,26.38L267.11,28.81L274.74,34.65L282.37,37.6L290,48.92L297.63,46.61L305.26,48.66L312.89,46.63L320.53,54.21L328.16,41.03L335.79,36.18L343.42,45.89L351.05,58.69L358.68,63.6L366.32,44.26L373.95,49.56L381.58,50.14L389.21,62.36L396.84,71.85L404.47,56.93L412.11,53.24L419.74,48.65L427.37,56.75L435,60.98L442.63,64.31L450.26,50.71L457.89,51.63L465.53,46.66L473.16,55.85L480.79,38.06L488.42,48.28L496.05,49.74L503.68,68.97L511.32,66.66L518.95,66.53L526.58,64.79L534.21,67.89L541.84,71.97L549.47,79.95L557.11,82.73L564.74,86.97L572.37,79.78L580,87.67" style="vector-effect: none; fill: none; stroke: rgb(171, 99, 250); stroke-opacity: 1; stroke-width: 0px; opacity: 1;"/></g><g class="points"/><g class="text"/></g><g class="trace scatter traceeee67d" style="stroke-miterlimit: 2;"><g class="fills"/><g class="errorbars"/><g class="lines"><path class="js-line" d="M0,67.49L7.63,44.65L15.26,54.89L22.89,68.98L30.53,56.81L45.79,43.67L53.42,54.79L61.05,59.17L68.68,61.76L76.32,48.79L83.95,60.2L91.58,56.84L99.21,55.65L106.84,54.49L114.47,57.88L122.11,55.15L129.74,66.38L137.37,68.37L145,60.52L152.63,67.8L160.26,61.6L167.89,59.36L175.53,53.16L183.16,59.09L190.79,67.6L198.42,68.35L206.05,71.53L213.68,83.25L221.32,102.08L228.95,92.19L236.58,66.69L251.84,37.45L259.47,47.29L267.11,48.69L274.74,53.36L282.37,56.13L290,66.08L297.63,64.51L305.26,68.57L312.89,66.9L320.53,74.08L328.16,61.1L335.79,55.82L343.42,67.92L351.05,82.39L358.68,88.25L366.32,69.53L373.95,73.86L381.58,74.5L389.21,86.41L396.84,94.42L404.47,81.79L412.11,80.19L419.74,74.97L427.37,82.45L435,86.35L442.63,89.18L450.26,76.13L457.89,78.7L465.53,72.9L473.16,82.38L480.79,64.64L488.42,73.81L496.05,76.24L503.68,94.57L511.32,91.82L518.95,90.63L526.58,89.51L534.21,92.84L541.84,96.02L549.47,102.93L557.11,105.67L564.74,110.37L572.37,103.78L580,111.39" style="vector-effect: none; fill: none; stroke: rgb(255, 161, 90); stroke-opacity: 1; stroke-width: 0px; opacity: 1;"/></g><g class="points"/><g class="text"/></g><g class="trace scatter trace32223d" style="stroke-miterlimit: 2; opacity: 1;"><g class="fills"/><g class="errorbars"/><g class="lines"><path class="js-line" d="M0,58.31L7.63,35.45L15.26,45.71L22.89,59.57L30.53,47.2L45.79,34.52L53.42,46.31L61.05,50.56L68.68,52.75L76.32,39.41L83.95,51.12L91.58,47.73L99.21,47.14L106.84,45.65L114.47,48.59L122.11,46.09L129.74,57.6L137.37,59.84L145,51.7L152.63,59.14L160.26,51.93L167.89,49.92L175.53,44.4L183.16,49.73L190.79,58.8L198.42,59.42L206.05,63.01L213.68,74.83L221.32,94.67L228.95,83.72L236.58,57.09L251.84,26.73L259.47,36.83L267.11,38.75L274.74,44.01L282.37,46.86L290,57.5L297.63,55.56L305.26,58.62L312.89,56.77L320.53,64.15L328.16,51.06L335.79,46L343.42,56.9L351.05,70.54L358.68,75.93L366.32,56.89L373.95,61.71L381.58,62.32L389.21,74.38L396.84,83.14L404.47,69.36L412.11,66.71L419.74,61.81L427.37,69.6L435,73.67L442.63,76.74L450.26,63.42L457.89,65.17L465.53,59.78L473.16,69.12L480.79,51.35L488.42,61.05L496.05,62.99L503.68,81.77L511.32,79.24L518.95,78.58L526.58,77.15L534.21,80.36L541.84,83.99L549.47,91.44L557.11,94.2L564.74,98.67L572.37,91.78L580,99.53" style="vector-effect: none; fill: none; stroke: rgb(255, 20, 147); stroke-opacity: 1; stroke-width: 3px; opacity: 1;"/></g><g class="points"/><g class="text"/></g></g></g></g><g class="zerolinelayer-above"/><path class="xlines-above crisp" d="M79,420.5H661M79,99.5H661" style="fill: none; stroke-width: 1px; stroke: rgb(0, 0, 0); stroke-opacity: 1;"/><path class="ylines-above crisp" d="M79.5,100V420M660.5,100V420" style="fill: none; stroke-width: 1px; stroke: rgb(0, 0, 0); stroke-opacity: 1;"/><g class="overlines-above"/><g class="xaxislayer-above"><path class="xtick ticks crisp" d="M0,421v5" transform="translate(141.05,0)" style="stroke: rgb(68, 68, 68); stroke-opacity: 1; stroke-width: 1px;"/><path class="xtick ticks crisp" d="M0,421v5" transform="translate(217.37,0)" style="stroke: rgb(68, 68, 68); stroke-opacity: 1; stroke-width: 1px;"/><path class="xtick ticks crisp" d="M0,421v5" transform="translate(293.68,0)" style="stroke: rgb(68, 68, 68); stroke-opacity: 1; stroke-width: 1px;"/><path class="xtick ticks crisp" d="M0,421v5" transform="translate(370,0)" style="stroke: rgb(68, 68, 68); stroke-opacity: 1; stroke-width: 1px;"/><path class="xtick ticks crisp" d="M0,421v5" transform="translate(446.32,0)" style="stroke: rgb(68, 68, 68); stroke-opacity: 1; stroke-width: 1px;"/><path class="xtick ticks crisp" d="M0,421v5" transform="translate(522.63,0)" style="stroke: rgb(68, 68, 68); stroke-opacity: 1; stroke-width: 1px;"/><path class="xtick ticks crisp" d="M0,421v5" transform="translate(598.95,0)" style="stroke: rgb(68, 68, 68); stroke-opacity: 1; stroke-width: 1px;"/><g class="xtick"><text text-anchor="middle" x="0" y="440.4" transform="translate(141.05,0)" style="font-family: 'Open Sans', verdana, arial, sans-serif; font-size: 12px; fill: rgb(42, 63, 95); fill-opacity: 1; white-space: pre;">−1500</text></g><g class="xtick"><text text-anchor="middle" x="0" y="440.4" style="font-family: 'Open Sans', verdana, arial, sans-serif; font-size: 12px; fill: rgb(42, 63, 95); fill-opacity: 1; white-space: pre;" transform="translate(217.37,0)">−1000</text></g><g class="xtick"><text text-anchor="middle" x="0" y="440.4" style="font-family: 'Open Sans', verdana, arial, sans-serif; font-size: 12px; fill: rgb(42, 63, 95); fill-opacity: 1; white-space: pre;" transform="translate(293.68,0)">−500</text></g><g class="xtick"><text text-anchor="middle" x="0" y="440.4" style="font-family: 'Open Sans', verdana, arial, sans-serif; font-size: 12px; fill: rgb(42, 63, 95); fill-opacity: 1; white-space: pre;" transform="translate(370,0)">0</text></g><g class="xtick"><text text-anchor="middle" x="0" y="440.4" style="font-family: 'Open Sans', verdana, arial, sans-serif; font-size: 12px; fill: rgb(42, 63, 95); fill-opacity: 1; white-space: pre;" transform="translate(446.32,0)">500</text></g><g class="xtick"><text text-anchor="middle" x="0" y="440.4" style="font-family: 'Open Sans', verdana, arial, sans-serif; font-size: 12px; fill: rgb(42, 63, 95); fill-opacity: 1; white-space: pre;" transform="translate(522.63,0)">1000</text></g><g class="xtick"><text text-anchor="middle" x="0" y="440.4" style="font-family: 'Open Sans', verdana, arial, sans-serif; font-size: 12px; fill: rgb(42, 63, 95); fill-opacity: 1; white-space: pre;" transform="translate(598.95,0)">1500</text></g></g><g class="yaxislayer-above"><path class="ytick ticks crisp" d="M79,0h-5" transform="translate(0,359.78)" style="stroke: rgb(68, 68, 68); stroke-opacity: 1; stroke-width: 1px;"/><path class="ytick ticks crisp" d="M79,0h-5" transform="translate(0,288.7)" style="stroke: rgb(68, 68, 68); stroke-opacity: 1; stroke-width: 1px;"/><path class="ytick ticks crisp" d="M79,0h-5" transform="translate(0,217.61)" style="stroke: rgb(68, 68, 68); stroke-opacity: 1; stroke-width: 1px;"/><path class="ytick ticks crisp" d="M79,0h-5" transform="translate(0,146.52)" style="stroke: rgb(68, 68, 68); stroke-opacity: 1; stroke-width: 1px;"/><g class="ytick"><text text-anchor="end" x="71.6" y="4.199999999999999" transform="translate(0,359.78)" style="font-family: 'Open Sans', verdana, arial, sans-serif; font-size: 12px; fill: rgb(42, 63, 95); fill-opacity: 1; white-space: pre;">0.1</text></g><g class="ytick"><text text-anchor="end" x="71.6" y="4.199999999999999" style="font-family: 'Open Sans', verdana, arial, sans-serif; font-size: 12px; fill: rgb(42, 63, 95); fill-opacity: 1; white-space: pre;" transform="translate(0,288.7)">0.15</text></g><g class="ytick"><text text-anchor="end" x="71.6" y="4.199999999999999" style="font-family: 'Open Sans', verdana, arial, sans-serif; font-size: 12px; fill: rgb(42, 63, 95); fill-opacity: 1; white-space: pre;" transform="translate(0,217.61)">0.2</text></g><g class="ytick"><text text-anchor="end" x="71.6" y="4.199999999999999" style="font-family: 'Open Sans', verdana, arial, sans-serif; font-size: 12px; fill: rgb(42, 63, 95); fill-opacity: 1; white-space: pre;" transform="translate(0,146.52)">0.25</text></g></g><g class="overaxes-above"/></g></g><g class="polarlayer"/><g class="smithlayer"/><g class="ternarylayer"/><g class="geolayer"/><g class="funnelarealayer"/><g class="pielayer"/><g class="iciclelayer"/><g class="treemaplayer"/><g class="sunburstlayer"/><g class="glimages"/><defs id="topdefs-72d5e3"><g class="clips"/><clipPath id="legend72d5e3"><rect width="296" height="29" x="1" y="1"/></clipPath></defs><g class="layer-above"><g class="imagelayer"/><g class="shapelayer"><g class="shape-group" data-index="0" clip-path="url(#clip72d5e3x)"><path data-index="0" fill-rule="evenodd" d="M370,420L370,100" style="opacity: 1; stroke: rgb(0, 0, 0); stroke-opacity: 1; fill: rgb(0, 0, 0); fill-opacity: 0; stroke-dasharray: 9px, 9px; stroke-width: 2px;"/></g><g class="shape-group" data-index="1" clip-path="url(#clip72d5e3x)"><path data-index="1" fill-rule="evenodd" d="M212.64,420L212.64,100" style="opacity: 1; stroke: rgb(128, 128, 128); stroke-opacity: 1; fill: rgb(0, 0, 0); fill-opacity: 0; stroke-dasharray: 3px, 3px; stroke-width: 2px;"/></g></g></g><g class="infolayer"><g class="legend" pointer-events="all" transform="translate(362,62.599999999999994)"><rect class="bg" shape-rendering="crispEdges" style="stroke: rgb(0, 0, 0); stroke-opacity: 1; fill: rgb(255, 255, 255); fill-opacity: 0.8; stroke-width: 1px;" width="297" height="30" x="0.5" y="0.5"/><g class="scrollbox" transform="" clip-path="url(#legend72d5e3)"><g class="groups" transform=""><g class="traces" transform="translate(0,15.5)" style="opacity: 1;"><text class="legendtext" text-anchor="start" x="40" y="4.680000000000001" style="font-family: 'Open Sans', verdana, arial, sans-serif; font-size: 12px; fill: rgb(42, 63, 95); fill-opacity: 1; white-space: pre;">Standard (AAAB)</text><g class="layers" style="opacity: 1;"><g class="legendfill"/><g class="legendlines"><path class="js-line" d="M5,0h30" style="fill: none; stroke: rgb(143, 0, 255); stroke-opacity: 1; stroke-width: 3px;"/></g><g class="legendsymbols"><g class="legendpoints"/></g></g><rect class="legendtoggle" x="0" y="-9.5" width="145.46875" height="19" style="fill: rgb(0, 0, 0); fill-opacity: 0;"/></g></g><g class="groups" transform="translate(147.96875,0)"><g class="traces" transform="translate(0,15.5)" style="opacity: 1;"><text class="legendtext" text-anchor="start" x="40" y="4.680000000000001" style="font-family: 'Open Sans', verdana, arial, sans-serif; font-size: 12px; fill: rgb(42, 63, 95); fill-opacity: 1; white-space: pre;">Omission (AXAB)</text><g class="layers" style="opacity: 1;"><g class="legendfill"/><g class="legendlines"><path class="js-line" d="M5,0h30" style="fill: none; stroke: rgb(255, 20, 147); stroke-opacity: 1; stroke-width: 3px;"/></g><g class="legendsymbols"><g class="legendpoints"/></g></g><rect class="legendtoggle" x="0" y="-9.5" width="145.5546875" height="19" style="fill: rgb(0, 0, 0); fill-opacity: 0;"/></g></g></g><rect class="scrollbar" rx="20" ry="3" width="0" height="0" style="fill: rgb(128, 139, 164); fill-opacity: 1;" x="0" y="0"/></g><g class="g-gtitle"><text class="gtitle" x="350" y="50" text-anchor="middle" dy="0em" style="opacity: 1; font-family: Arial; font-size: 18px; fill: rgb(0, 0, 0); fill-opacity: 1; white-space: pre;"><tspan class="line" dy="0em" x="350" y="50"><tspan style="font-weight:bold">Figure f010: V4 Delta SFC</tspan></tspan><tspan class="line" dy="1.3em" x="350" y="50">​<tspan style="font-size:70%" dy="-0.6em">Continuous 2-4 Hz Phase-Locking Value | N=477 units</tspan><tspan dy="0.42em">​</tspan></tspan></text></g><g class="g-xtitle"><text class="xtitle" x="370" y="467.200390625" text-anchor="middle" style="opacity: 1; font-family: 'Open Sans', verdana, arial, sans-serif; font-size: 14px; fill: rgb(42, 63, 95); fill-opacity: 1; white-space: pre;">Time from Omission (ms)</text></g><g class="g-ytitle"><text class="ytitle" transform="rotate(-90,24.941796875,260)" x="24.941796875" y="260" text-anchor="middle" style="opacity: 1; font-family: 'Open Sans', verdana, arial, sans-serif; font-size: 14px; fill: rgb(42, 63, 95); fill-opacity: 1; white-space: pre;">Delta SFC (PLV)</text></g><g class="annotation" data-index="0" style="opacity: 1;"><g class="annotation-text-g" transform="rotate(0,419.5,109.5)"><g class="cursor-pointer" transform="translate(370,100)"><rect class="bg" x="0.5" y="0.5" width="98" height="18" style="stroke-width: 1px; stroke: rgb(0, 0, 0); stroke-opacity: 0; fill: rgb(0, 0, 0); fill-opacity: 0;"/><text class="annotation-text" text-anchor="middle" x="49.23828125" y="14" style="font-family: 'Open Sans', verdana, arial, sans-serif; font-size: 12px; fill: rgb(42, 63, 95); fill-opacity: 1; white-space: pre;">Omission Onset</text></g></g></g><g class="annotation" data-index="1" style="opacity: 1;"><g class="annotation-text-g" transform="rotate(0,242.14,109.5)"><g class="cursor-pointer" transform="translate(213,100)"><rect class="bg" x="0.5" y="0.5" width="58" height="18" style="stroke-width: 1px; stroke: rgb(0, 0, 0); stroke-opacity: 0; fill: rgb(0, 0, 0); fill-opacity: 0;"/><text class="annotation-text" text-anchor="middle" x="29.12890625" y="14" style="font-family: 'Open Sans', verdana, arial, sans-serif; font-size: 12px; fill: rgb(42, 63, 95); fill-opacity: 1; white-space: pre;">P1 Onset</text></g></g></g></g></svg>