<svg class="main-svg" xmlns="http://www.w3.org/2000/svg" xmlns:xlink="http://www.w3.org/1999/xlink" width="700" height="500" style="" viewBox="0 0 700 500"><rect x="0" y="0" width="700" height="500" style="fill: rgb(255, 255, 255); fill-opacity: 1;"/><defs id="defs-5665d6"><g class="clips"><clipPath id="clip5665d6xyplot" class="plotclip"><rect width="580" height="320"/></clipPath><clipPath class="axesclip" id="clip5665d6x"><rect x="80" y="0" width="580" height="500"/></clipPath><clipPath class="axesclip" id="clip5665d6y"><rect x="0" y="100" width="700" height="320"/></clipPath><clipPath class="axesclip" id="clip5665d6xy"><rect x="80" y="100" width="580" height="320"/></clipPath></g><g class="gradients"/><g class="patterns"/></defs><g class="bglayer"/><g class="layer-below"><g class="imagelayer"/><g class="shapelayer"/></g><g class="cartesianlayer"><g class="subplot xy"><g class="layer-subplot"><g class="shapelayer"/><g class="imagelayer"/></g><g class="minor-gridlayer"><g class="x"/><g class="y"/></g><g class="gridlayer"><g class="x"><path class="xgrid crisp" transform="translate(141.05,0)" d="M0,100v320" style="stroke: rgb(211, 211, 211); stroke-opacity: 1; stroke-width: 1px;"/><path class="xgrid crisp" transform="translate(217.37,0)" d="M0,100v320" style="stroke: rgb(211, 211, 211); stroke-opacity: 1; stroke-width: 1px;"/><path class="xgrid crisp" transform="translate(293.68,0)" d="M0,100v320" style="stroke: rgb(211, 211, 211); stroke-opacity: 1; stroke-width: 1px;"/><path class="xgrid crisp" transform="translate(446.32,0)" d="M0,100v320" style="stroke: rgb(211, 211, 211); stroke-opacity: 1; stroke-width: 1px;"/><path class="xgrid crisp" transform="translate(522.63,0)" d="M0,100v320" style="stroke: rgb(211, 211, 211); stroke-opacity: 1; stroke-width: 1px;"/><path class="xgrid crisp" transform="translate(598.95,0)" d="M0,100v320" style="stroke: rgb(211, 211, 211); stroke-opacity: 1; stroke-width: 1px;"/></g><g class="y"><path class="ygrid crisp" transform="translate(0,382.8)" d="M80,0h580" style="stroke: rgb(211, 211, 211); stroke-opacity: 1; stroke-width: 1px;"/><path class="ygrid crisp" transform="translate(0,346.39)" d="M80,0h580" style="stroke: rgb(211, 211, 211); stroke-opacity: 1; stroke-width: 1px;"/><path class="ygrid crisp" transform="translate(0,309.99)" d="M80,0h580" style="stroke: rgb(211, 211, 211); stroke-opacity: 1; stroke-width: 1px;"/><path class="ygrid crisp" transform="translate(0,273.58000000000004)" d="M80,0h580" style="stroke: rgb(211, 211, 211); stroke-opacity: 1; stroke-width: 1px;"/><path class="ygrid crisp" transform="translate(0,237.18)" d="M80,0h580" style="stroke: rgb(211, 211, 211); stroke-opacity: 1; stroke-width: 1px;"/><path class="ygrid crisp" transform="translate(0,200.78)" d="M80,0h580" style="stroke: rgb(211, 211, 211); stroke-opacity: 1; stroke-width: 1px;"/><path class="ygrid crisp" transform="translate(0,164.37)" d="M80,0h580" style="stroke: rgb(211, 211, 211); stroke-opacity: 1; stroke-width: 1px;"/><path class="ygrid crisp" transform="translate(0,127.97)" d="M80,0h580" style="stroke: rgb(211, 211, 211); stroke-opacity: 1; stroke-width: 1px;"/></g></g><g class="zerolinelayer"><path class="xzl zl crisp" transform="translate(370,0)" d="M0,100v320" style="stroke: rgb(235, 240, 248); stroke-opacity: 1; stroke-width: 2px;"/></g><g class="layer-between"><g class="shapelayer"/><g class="imagelayer"/></g><path class="xlines-below"/><path class="ylines-below"/><g class="overlines-below"/><g class="xaxislayer-below"/><g class="yaxislayer-below"/><g class="overaxes-below"/><g class="overplot"><g class="xy" transform="translate(80,100)" clip-path="url(#clip5665d6xyplot)"><g class="scatterlayer mlayer"><g class="trace scatter trace553ade" style="stroke-miterlimit: 2;"><g class="fills"><g><path class="js-fill" d="M0,296.89L7.63,282.11L15.26,279.16L22.89,285.43L30.53,289.19L38.16,290.11L45.79,283.26L61.05,293.77L68.68,292.69L76.32,285.9L83.95,284.59L91.58,285.07L99.21,279.36L106.84,269.15L114.47,270.23L122.11,279.43L129.74,291.04L137.37,299.16L145,304L152.63,300.65L160.26,284.57L167.89,278.83L175.53,260.89L183.16,253.28L190.79,252.32L198.42,255.74L206.05,275.39L213.68,297.6L221.32,303.54L228.95,301.25L236.58,282.71L244.21,273.38L251.84,267.72L259.47,270.57L267.11,259.21L274.74,268.62L282.37,280.25L290,283.77L297.63,280.85L305.26,273.96L312.89,277.39L320.53,287.46L328.16,282.2L335.79,271.02L343.42,268.7L351.05,272.67L358.68,272.88L366.32,272.26L373.95,264.81L381.58,260.86L389.21,260.69L396.84,255.92L404.47,259.75L412.11,258.56L419.74,256.53L427.37,263.1L435,262.98L442.63,268.64L450.26,272.02L457.89,272.14L465.53,270.83L473.16,263.85L480.79,264.99L488.42,268.29L496.05,276.7L503.68,281.55L511.32,274.65L518.95,273.83L526.58,275.8L534.21,286.06L541.84,293.34L549.47,298.96L557.11,291.96L564.74,285.88L572.37,291.92L580,283.46L580,268.16L572.37,276.89L564.74,270.91L557.11,277.53L549.47,284.98L541.84,278.75L534.21,271.43L526.58,261.07L518.95,259.11L511.32,261.19L503.68,268.48L496.05,262.97L488.42,253.29L473.16,248.11L465.53,255.59L457.89,257.61L450.26,257.98L442.63,253.01L435,247.45L427.37,246.92L419.74,240.18L412.11,242.41L404.47,242.36L396.84,239.08L389.21,245.02L381.58,245.48L373.95,250.06L366.32,256.79L358.68,255.96L351.05,256.01L343.42,254.94L335.79,258.17L328.16,268.54L320.53,273.17L312.89,263.93L305.26,261.77L297.63,269.78L290,273.24L282.37,268.5L274.74,254.98L267.11,245.26L259.47,258.7L251.84,255.63L244.21,261.78L236.58,271.32L228.95,290.45L221.32,293.45L213.68,286.74L206.05,262.14L198.42,239.87L190.79,237.97L183.16,238.68L175.53,248.4L167.89,267.25L160.26,274.1L152.63,291.11L145,293.86L137.37,288.64L129.74,280.06L122.11,268.26L114.47,258.51L106.84,257.71L99.21,267.65L91.58,273.11L83.95,272.7L76.32,274.32L68.68,281.6L61.05,282.29L53.42,276.27L45.79,272.98L38.16,279.68L30.53,279.7L22.89,275.7L15.26,268.77L7.63,271.37L0,286.66Z" style="fill: rgb(143, 0, 255); fill-opacity: 0.2; stroke-width: 0;"/></g></g><g class="errorbars"/><g class="lines"><path class="js-line" d="M0,286.66L7.63,271.37L15.26,268.77L22.89,275.7L30.53,279.7L38.16,279.68L45.79,272.98L53.42,276.27L61.05,282.29L68.68,281.6L76.32,274.32L83.95,272.7L91.58,273.11L99.21,267.65L106.84,257.71L114.47,258.51L122.11,268.26L129.74,280.06L137.37,288.64L145,293.86L152.63,291.11L160.26,274.1L167.89,267.25L175.53,248.4L183.16,238.68L190.79,237.97L198.42,239.87L206.05,262.14L213.68,286.74L221.32,293.45L228.95,290.45L236.58,271.32L244.21,261.78L251.84,255.63L259.47,258.7L267.11,245.26L274.74,254.98L282.37,268.5L290,273.24L297.63,269.78L305.26,261.77L312.89,263.93L320.53,273.17L328.16,268.54L335.79,258.17L343.42,254.94L351.05,256.01L358.68,255.96L366.32,256.79L373.95,250.06L381.58,245.48L389.21,245.02L396.84,239.08L404.47,242.36L412.11,242.41L419.74,240.18L427.37,246.92L435,247.45L442.63,253.01L450.26,257.98L457.89,257.61L465.53,255.59L473.16,248.11L488.42,253.29L496.05,262.97L503.68,268.48L511.32,261.19L518.95,259.11L526.58,261.07L534.21,271.43L541.84,278.75L549.47,284.98L557.11,277.53L564.74,270.91L572.37,276.89L580,268.16" style="vector-effect: none; fill: none; stroke: rgb(99, 110, 250); stroke-opacity: 1; stroke-width: 0px; opacity: 1;"/></g><g class="points"/><g class="text"/></g><g class="trace scatter traceceee23" style="stroke-miterlimit: 2;"><g class="fills"/><g class="errorbars"/><g class="lines"><path class="js-line" d="M0,296.89L7.63,282.11L15.26,279.16L22.89,285.43L30.53,289.19L38.16,290.11L45.79,283.26L61.05,293.77L68.68,292.69L76.32,285.9L83.95,284.59L91.58,285.07L99.21,279.36L106.84,269.15L114.47,270.23L122.11,279.43L129.74,291.04L137.37,299.16L145,304L152.63,300.65L160.26,284.57L167.89,278.83L175.53,260.89L183.16,253.28L190.79,252.32L198.42,255.74L206.05,275.39L213.68,297.6L221.32,303.54L228.95,301.25L236.58,282.71L244.21,273.38L251.84,267.72L259.47,270.57L267.11,259.21L274.74,268.62L282.37,280.25L290,283.77L297.63,280.85L305.26,273.96L312.89,277.39L320.53,287.46L328.16,282.2L335.79,271.02L343.42,268.7L351.05,272.67L358.68,272.88L366.32,272.26L373.95,264.81L381.58,260.86L389.21,260.69L396.84,255.92L404.47,259.75L412.11,258.56L419.74,256.53L427.37,263.1L435,262.98L442.63,268.64L450.26,272.02L457.89,272.14L465.53,270.83L473.16,263.85L480.79,264.99L488.42,268.29L496.05,276.7L503.68,281.55L511.32,274.65L518.95,273.83L526.58,275.8L534.21,286.06L541.84,293.34L549.47,298.96L557.11,291.96L564.74,285.88L572.37,291.92L580,283.46" style="vector-effect: none; fill: none; stroke: rgb(239, 85, 59); stroke-opacity: 1; stroke-width: 0px; opacity: 1;"/></g><g class="points"/><g class="text"/></g><g class="trace scatter tracec7e873" style="stroke-miterlimit: 2; opacity: 1;"><g class="fills"/><g class="errorbars"/><g class="lines"><path class="js-line" d="M0,291.77L7.63,276.74L15.26,273.97L22.89,280.57L30.53,284.45L38.16,284.89L45.79,278.12L53.42,282.21L61.05,288.03L68.68,287.14L76.32,280.11L83.95,278.64L91.58,279.09L99.21,273.51L106.84,263.43L114.47,264.37L122.11,273.84L129.74,285.55L137.37,293.9L145,298.93L152.63,295.88L160.26,279.33L167.89,273.04L175.53,254.64L183.16,245.98L190.79,245.14L198.42,247.8L206.05,268.77L213.68,292.17L221.32,298.5L228.95,295.85L236.58,277.01L244.21,267.58L251.84,261.68L259.47,264.64L267.11,252.23L274.74,261.8L282.37,274.37L290,278.51L297.63,275.31L305.26,267.86L312.89,270.66L320.53,280.32L328.16,275.37L335.79,264.59L343.42,261.82L351.05,264.34L366.32,264.53L373.95,257.44L381.58,253.17L389.21,252.86L396.84,247.5L404.47,251.06L412.11,250.48L419.74,248.36L427.37,255.01L435,255.22L442.63,260.82L450.26,265L457.89,264.88L465.53,263.21L473.16,255.98L480.79,257.68L488.42,260.79L496.05,269.84L503.68,275.01L511.32,267.92L518.95,266.47L526.58,268.43L534.21,278.75L541.84,286.04L549.47,291.97L557.11,284.74L564.74,278.4L572.37,284.4L580,275.81" style="vector-effect: none; fill: none; stroke: rgb(143, 0, 255); stroke-opacity: 1; stroke-width: 3px; opacity: 1;"/></g><g class="points"/><g class="text"/></g><g class="trace scatter tracea8149d" style="stroke-miterlimit: 2;"><g class="fills"><g><path class="js-fill" d="M0,141.48L7.63,130.03L15.26,129.02L22.89,135.29L30.53,133.29L38.16,125.52L45.79,146.22L53.42,153.67L61.05,142.45L68.68,132.54L76.32,120.09L83.95,133.15L91.58,120.68L99.21,128.98L106.84,125.3L114.47,130.8L122.11,125.69L129.74,122.15L137.37,138.95L145,156.35L152.63,148.24L160.26,140.77L167.89,126.67L175.53,132.19L183.16,128.11L190.79,125.68L198.42,128.91L206.05,134.25L213.68,161.47L221.32,166.35L228.95,173.28L236.58,148.56L244.21,139.1L251.84,133.17L259.47,136.17L267.11,128.27L274.74,132.79L282.37,145.01L290,142.88L297.63,123.2L305.26,123.26L312.89,136.6L320.53,145.41L328.16,134.93L335.79,126.72L343.42,114.53L351.05,98.17L358.68,102.29L366.32,102.2L373.95,99.15L381.58,107.08L389.21,89.17L396.84,83.37L404.47,82.42L412.11,65L419.74,62.85L427.37,68.07L435,91.48L442.63,81.62L450.26,85.37L457.89,98.68L465.53,95.99L473.16,108.31L480.79,105.21L488.42,105.33L496.05,91.91L503.68,92.31L511.32,72.01L518.95,59.39L526.58,50.26L534.21,78.55L541.84,64.8L549.47,79.39L557.11,91.72L564.74,87.38L572.37,100.26L580,94.91L580,61.82L572.37,68.83L564.74,54.89L557.11,58.67L549.47,46.84L541.84,30.98L534.21,45.48L526.58,16L518.95,23.98L511.32,36.12L503.68,57.46L496.05,59.61L488.42,72.7L480.79,74.12L473.16,76.1L465.53,62.69L457.89,64.76L450.26,50.68L442.63,46.74L435,56.66L427.37,35.66L419.74,28.85L412.11,29L404.47,48.03L396.84,50.65L389.21,55.6L381.58,75.63L373.95,68.56L366.32,70.75L358.68,70.9L351.05,66L343.42,84.85L335.79,99.67L328.16,107.89L320.53,118.01L312.89,109.51L305.26,98.05L297.63,99.37L290,118.71L282.37,122.26L274.74,105.92L267.11,101.02L259.47,108.21L251.84,107.68L244.21,112.56L236.58,123.29L228.95,151.62L213.68,137.81L206.05,107.86L198.42,102.09L190.79,100.54L183.16,101.05L175.53,107.21L167.89,102.19L160.26,116.39L145,133.23L137.37,115.25L129.74,94.76L122.11,97.74L114.47,102.56L106.84,96.27L99.21,103.15L91.58,94.71L83.95,109.1L76.32,95.3L61.05,119.47L53.42,128.94L45.79,122.21L38.16,99.54L30.53,108.35L22.89,110.48L15.26,103.08L7.63,104.98L0,116.76Z" style="fill: rgb(255, 20, 147); fill-opacity: 0.2; stroke-width: 0;"/></g></g><g class="errorbars"/><g class="lines"><path class="js-line" d="M0,116.76L7.63,104.98L15.26,103.08L22.89,110.48L30.53,108.35L38.16,99.54L45.79,122.21L53.42,128.94L61.05,119.47L76.32,95.3L83.95,109.1L91.58,94.71L99.21,103.15L106.84,96.27L114.47,102.56L122.11,97.74L129.74,94.76L137.37,115.25L145,133.23L160.26,116.39L167.89,102.19L175.53,107.21L183.16,101.05L190.79,100.54L198.42,102.09L206.05,107.86L213.68,137.81L228.95,151.62L236.58,123.29L244.21,112.56L251.84,107.68L259.47,108.21L267.11,101.02L274.74,105.92L282.37,122.26L290,118.71L297.63,99.37L305.26,98.05L312.89,109.51L320.53,118.01L328.16,107.89L335.79,99.67L343.42,84.85L351.05,66L358.68,70.9L366.32,70.75L373.95,68.56L381.58,75.63L389.21,55.6L396.84,50.65L404.47,48.03L412.11,29L419.74,28.85L427.37,35.66L435,56.66L442.63,46.74L450.26,50.68L457.89,64.76L465.53,62.69L473.16,76.1L480.79,74.12L488.42,72.7L496.05,59.61L503.68,57.46L511.32,36.12L518.95,23.98L526.58,16L534.21,45.48L541.84,30.98L549.47,46.84L557.11,58.67L564.74,54.89L572.37,68.83L580,61.82" style="vector-effect: none; fill: none; stroke: rgb(171, 99, 250); stroke-opacity: 1; stroke-width: 0px; opacity: 1;"/></g><g class="points"/><g class="text"/></g><g class="trace scatter trace03a20f" style="stroke-miterlimit: 2;"><g class="fills"/><g class="errorbars"/><g class="lines"><path class="js-line" d="M0,141.48L7.63,130.03L15.26,129.02L22.89,135.29L30.53,133.29L38.16,125.52L45.79,146.22L53.42,153.67L61.05,142.45L68.68,132.54L76.32,120.09L83.95,133.15L91.58,120.68L99.21,128.98L106.84,125.3L114.47,130.8L122.11,125.69L129.74,122.15L137.37,138.95L145,156.35L152.63,148.24L160.26,140.77L167.89,126.67L175.53,132.19L183.16,128.11L190.79,125.68L198.42,128.91L206.05,134.25L213.68,161.47L221.32,166.35L228.95,173.28L236.58,148.56L244.21,139.1L251.84,133.17L259.47,136.17L267.11,128.27L274.74,132.79L282.37,145.01L290,142.88L297.63,123.2L305.26,123.26L312.89,136.6L320.53,145.41L328.16,134.93L335.79,126.72L343.42,114.53L351.05,98.17L358.68,102.29L366.32,102.2L373.95,99.15L381.58,107.08L389.21,89.17L396.84,83.37L404.47,82.42L412.11,65L419.74,62.85L427.37,68.07L435,91.48L442.63,81.62L450.26,85.37L457.89,98.68L465.53,95.99L473.16,108.31L480.79,105.21L488.42,105.33L496.05,91.91L503.68,92.31L511.32,72.01L518.95,59.39L526.58,50.26L534.21,78.55L541.84,64.8L549.47,79.39L557.11,91.72L564.74,87.38L572.37,100.26L580,94.91" style="vector-effect: none; fill: none; stroke: rgb(255, 161, 90); stroke-opacity: 1; stroke-width: 0px; opacity: 1;"/></g><g class="points"/><g class="text"/></g><g class="trace scatter trace1caa72" style="stroke-miterlimit: 2; opacity: 1;"><g class="fills"/><g class="errorbars"/><g class="lines"><path class="js-line" d="M0,129.12L7.63,117.51L15.26,116.05L22.89,122.89L30.53,120.82L38.16,112.53L45.79,134.22L53.42,141.31L61.05,130.96L68.68,120.2L76.32,107.7L83.95,121.12L91.58,107.69L99.21,116.06L106.84,110.79L114.47,116.68L122.11,111.71L129.74,108.45L137.37,127.1L145,144.79L152.63,136.77L160.26,128.58L167.89,114.43L175.53,119.7L183.16,114.58L190.79,113.11L198.42,115.5L206.05,121.06L213.68,149.64L221.32,155.4L228.95,162.45L236.58,135.92L244.21,125.83L251.84,120.42L259.47,122.19L267.11,114.65L274.74,119.35L282.37,133.63L290,130.79L297.63,111.28L305.26,110.66L312.89,123.06L320.53,131.71L328.16,121.41L335.79,113.19L343.42,99.69L351.05,82.08L358.68,86.59L366.32,86.48L373.95,83.85L381.58,91.35L389.21,72.38L396.84,67.01L404.47,65.22L412.11,47L419.74,45.85L427.37,51.86L435,74.07L442.63,64.18L450.26,68.03L457.89,81.72L465.53,79.34L473.16,92.21L480.79,89.66L488.42,89.01L496.05,75.76L503.68,74.88L511.32,54.06L518.95,41.68L526.58,33.13L534.21,62.02L541.84,47.89L549.47,63.12L557.11,75.2L564.74,71.13L572.37,84.54L580,78.36" style="vector-effect: none; fill: none; stroke: rgb(255, 20, 147); stroke-opacity: 1; stroke-width: 3px; opacity: 1;"/></g><g class="points"/><g class="text"/></g></g></g></g><g class="zerolinelayer-above"/><path class="xlines-above crisp" d="M79,420.5H661M79,99.5H661" style="fill: none; stroke-width: 1px; stroke: rgb(0, 0, 0); stroke-opacity: 1;"/><path class="ylines-above crisp" d="M79.5,100V420M660.5,100V420" style="fill: none; stroke-width: 1px; stroke: rgb(0, 0, 0); stroke-opacity: 1;"/><g class="overlines-above"/><g class="xaxislayer-above"><path class="xtick ticks crisp" d="M0,421v5" transform="translate(141.05,0)" style="stroke: rgb(68, 68, 68); stroke-opacity: 1; stroke-width: 1px;"/><path class="xtick ticks crisp" d="M0,421v5" transform="translate(217.37,0)" style="stroke: rgb(68, 68, 68); stroke-opacity: 1; stroke-width: 1px;"/><path class="xtick ticks crisp" d="M0,421v5" transform="translate(293.68,0)" style="stroke: rgb(68, 68, 68); stroke-opacity: 1; stroke-width: 1px;"/><path class="xtick ticks crisp" d="M0,421v5" transform="translate(370,0)" style="stroke: rgb(68, 68, 68); stroke-opacity: 1; stroke-width: 1px;"/><path class="xtick ticks crisp" d="M0,421v5" transform="translate(446.32,0)" style="stroke: rgb(68, 68, 68); stroke-opacity: 1; stroke-width: 1px;"/><path class="xtick ticks crisp" d="M0,421v5" transform="translate(522.63,0)" style="stroke: rgb(68, 68, 68); stroke-opacity: 1; stroke-width: 1px;"/><path class="xtick ticks crisp" d="M0,421v5" transform="translate(598.95,0)" style="stroke: rgb(68, 68, 68); stroke-opacity: 1; stroke-width: 1px;"/><g class="xtick"><text text-anchor="middle" x="0" y="440.4" transform="translate(141.05,0)" style="font-family: 'Open Sans', verdana, arial, sans-serif; font-size: 12px; fill: rgb(42, 63, 95); fill-opacity: 1; white-space: pre;">−1500</text></g><g class="xtick"><text text-anchor="middle" x="0" y="440.4" style="font-family: 'Open Sans', verdana, arial, sans-serif; font-size: 12px; fill: rgb(42, 63, 95); fill-opacity: 1; white-space: pre;" transform="translate(217.37,0)">−1000</text></g><g class="xtick"><text text-anchor="middle" x="0" y="440.4" style="font-family: 'Open Sans', verdana, arial, sans-serif; font-size: 12px; fill: rgb(42, 63, 95); fill-opacity: 1; white-space: pre;" transform="translate(293.68,0)">−500</text></g><g class="xtick"><text text-anchor="middle" x="0" y="440.4" style="font-family: 'Open Sans', verdana, arial, sans-serif; font-size: 12px; fill: rgb(42, 63, 95); fill-opacity: 1; white-space: pre;" transform="translate(370,0)">0</text></g><g class="xtick"><text text-anchor="middle" x="0" y="440.4" style="font-family: 'Open Sans', verdana, arial, sans-serif; font-size: 12px; fill: rgb(42, 63, 95); fill-opacity: 1; white-space: pre;" transform="translate(446.32,0)">500</text></g><g class="xtick"><text text-anchor="middle" x="0" y="440.4" style="font-family: 'Open Sans', verdana, arial, sans-serif; font-size: 12px; fill: rgb(42, 63, 95); fill-opacity: 1; white-space: pre;" transform="translate(522.63,0)">1000</text></g><g class="xtick"><text text-anchor="middle" x="0" y="440.4" style="font-family: 'Open Sans', verdana, arial, sans-serif; font-size: 12px; fill: rgb(42, 63, 95); fill-opacity: 1; white-space: pre;" transform="translate(598.95,0)">1500</text></g></g><g class="yaxislayer-above"><path class="ytick ticks crisp" d="M79,0h-5" transform="translate(0,419.2)" style="stroke: rgb(68, 68, 68); stroke-opacity: 1; stroke-width: 1px;"/><path class="ytick ticks crisp" d="M79,0h-5" transform="translate(0,382.8)" style="stroke: rgb(68, 68, 68); stroke-opacity: 1; stroke-width: 1px;"/><path class="ytick ticks crisp" d="M79,0h-5" transform="translate(0,346.39)" style="stroke: rgb(68, 68, 68); stroke-opacity: 1; stroke-width: 1px;"/><path class="ytick ticks crisp" d="M79,0h-5" transform="translate(0,309.99)" style="stroke: rgb(68, 68, 68); stroke-opacity: 1; stroke-width: 1px;"/><path class="ytick ticks crisp" d="M79,0h-5" transform="translate(0,273.58000000000004)" style="stroke: rgb(68, 68, 68); stroke-opacity: 1; stroke-width: 1px;"/><path class="ytick ticks crisp" d="M79,0h-5" transform="translate(0,237.18)" style="stroke: rgb(68, 68, 68); stroke-opacity: 1; stroke-width: 1px;"/><path class="ytick ticks crisp" d="M79,0h-5" transform="translate(0,200.78)" style="stroke: rgb(68, 68, 68); stroke-opacity: 1; stroke-width: 1px;"/><path class="ytick ticks crisp" d="M79,0h-5" transform="translate(0,164.37)" style="stroke: rgb(68, 68, 68); stroke-opacity: 1; stroke-width: 1px;"/><path class="ytick ticks crisp" d="M79,0h-5" transform="translate(0,127.97)" style="stroke: rgb(68, 68, 68); stroke-opacity: 1; stroke-width: 1px;"/><g class="ytick"><text text-anchor="end" x="71.6" y="4.199999999999999" transform="translate(0,419.2)" style="font-family: 'Open Sans', verdana, arial, sans-serif; font-size: 12px; fill: rgb(42, 63, 95); fill-opacity: 1; white-space: pre;">0.08</text></g><g class="ytick"><text text-anchor="end" x="71.6" y="4.199999999999999" style="font-family: 'Open Sans', verdana, arial, sans-serif; font-size: 12px; fill: rgb(42, 63, 95); fill-opacity: 1; white-space: pre;" transform="translate(0,382.8)">0.1</text></g><g class="ytick"><text text-anchor="end" x="71.6" y="4.199999999999999" style="font-family: 'Open Sans', verdana, arial, sans-serif; font-size: 12px; fill: rgb(42, 63, 95); fill-opacity: 1; white-space: pre;" transform="translate(0,346.39)">0.12</text></g><g class="ytick"><text text-anchor="end" x="71.6" y="4.199999999999999" style="font-family: 'Open Sans', verdana, arial, sans-serif; font-size: 12px; fill: rgb(42, 63, 95); fill-opacity: 1; white-space: pre;" transform="translate(0,309.99)">0.14</text></g><g class="ytick"><text text-anchor="end" x="71.6" y="4.199999999999999" style="font-family: 'Open Sans', verdana, arial, sans-serif; font-size: 12px; fill: rgb(42, 63, 95); fill-opacity: 1; white-space: pre;" transform="translate(0,273.58000000000004)">0.16</text></g><g class="ytick"><text text-anchor="end" x="71.6" y="4.199999999999999" style="font-family: 'Open Sans', verdana, arial, sans-serif; font-size: 12px; fill: rgb(42, 63, 95); fill-opacity: 1; white-space: pre;" transform="translate(0,237.18)">0.18</text></g><g class="ytick"><text text-anchor="end" x="71.6" y="4.199999999999999" style="font-family: 'Open Sans', verdana, arial, sans-serif; font-size: 12px; fill: rgb(42, 63, 95); fill-opacity: 1; white-space: pre;" transform="translate(0,200.78)">0.2</text></g><g class="ytick"><text text-anchor="end" x="71.6" y="4.199999999999999" style="font-family: 'Open Sans', verdana, arial, sans-serif; font-size: 12px; fill: rgb(42, 63, 95); fill-opacity: 1; white-space: pre;" transform="translate(0,164.37)">0.22</text></g><g class="ytick"><text text-anchor="end" x="71.6" y="4.199999999999999" style="font-family: 'Open Sans', verdana, arial, sans-serif; font-size: 12px; fill: rgb(42, 63, 95); fill-opacity: 1; white-space: pre;" transform="translate(0,127.97)">0.24</text></g></g><g class="overaxes-above"/></g></g><g class="polarlayer"/><g class="smithlayer"/><g class="ternarylayer"/><g class="geolayer"/><g class="funnelarealayer"/><g class="pielayer"/><g class="iciclelayer"/><g class="treemaplayer"/><g class="sunburstlayer"/><g class="glimages"/><defs id="topdefs-5665d6"><g class="clips"/><clipPath id="legend5665d6"><rect width="296" height="29" x="1" y="1"/></clipPath></defs><g class="layer-above"><g class="imagelayer"/><g class="shapelayer"><g class="shape-group" data-index="0" clip-path="url(#clip5665d6x)"><path data-index="0" fill-rule="evenodd" d="M370,420L370,100" style="opacity: 1; stroke: rgb(0, 0, 0); stroke-opacity: 1; fill: rgb(0, 0, 0); fill-opacity: 0; stroke-dasharray: 9px, 9px; stroke-width: 2px;"/></g><g class="shape-group" data-index="1" clip-path="url(#clip5665d6x)"><path data-index="1" fill-rule="evenodd" d="M212.64,420L212.64,100" style="opacity: 1; stroke: rgb(128, 128, 128); stroke-opacity: 1; fill: rgb(0, 0, 0); fill-opacity: 0; stroke-dasharray: 3px, 3px; stroke-width: 2px;"/></g></g></g><g class="infolayer"><g class="legend" pointer-events="all" transform="translate(362,62.599999999999994)"><rect class="bg" shape-rendering="crispEdges" style="stroke: rgb(0, 0, 0); stroke-opacity: 1; fill: rgb(255, 255, 255); fill-opacity: 0.8; stroke-width: 1px;" width="297" height="30" x="0.5" y="0.5"/><g class="scrollbox" transform="" clip-path="url(#legend5665d6)"><g class="groups" transform=""><g class="traces" transform="translate(0,15.5)" style="opacity: 1;"><text class="legendtext" text-anchor="start" x="40" y="4.680000000000001" style="font-family: 'Open Sans', verdana, arial, sans-serif; font-size: 12px; fill: rgb(42, 63, 95); fill-opacity: 1; white-space: pre;">Standard (AAAB)</text><g class="layers" style="opacity: 1;"><g class="legendfill"/><g class="legendlines"><path class="js-line" d="M5,0h30" style="fill: none; stroke: rgb(143, 0, 255); stroke-opacity: 1; stroke-width: 3px;"/></g><g class="legendsymbols"><g class="legendpoints"/></g></g><rect class="legendtoggle" x="0" y="-9.5" width="145.46875" height="19" style="fill: rgb(0, 0, 0); fill-opacity: 0;"/></g></g><g class="groups" transform="translate(147.96875,0)"><g class="traces" transform="translate(0,15.5)" style="opacity: 1;"><text class="legendtext" text-anchor="start" x="40" y="4.680000000000001" style="font-family: 'Open Sans', verdana, arial, sans-serif; font-size: 12px; fill: rgb(42, 63, 95); fill-opacity: 1; white-space: pre;">Omission (AXAB)</text><g class="layers" style="opacity: 1;"><g class="legendfill"/><g class="legendlines"><path class="js-line" d="M5,0h30" style="fill: none; stroke: rgb(255, 20, 147); stroke-opacity: 1; stroke-width: 3px;"/></g><g class="legendsymbols"><g class="legendpoints"/></g></g><rect class="legendtoggle" x="0" y="-9.5" width="145.5546875" height="19" style="fill: rgb(0, 0, 0); fill-opacity: 0;"/></g></g></g><rect class="scrollbar" rx="20" ry="3" width="0" height="0" style="fill: rgb(128, 139, 164); fill-opacity: 1;" x="0" y="0"/></g><g class="g-gtitle"><text class="gtitle" x="350" y="50" text-anchor="middle" dy="0em" style="opacity: 1; font-family: Arial; font-size: 18px; fill: rgb(0, 0, 0); fill-opacity: 1; white-space: pre;"><tspan class="line" dy="0em" x="350" y="50"><tspan style="font-weight:bold">Figure f010: FEF Delta SFC</tspan></tspan><tspan class="line" dy="1.3em" x="350" y="50">​<tspan style="font-size:70%" dy="-0.6em">Continuous 2-4 Hz Phase-Locking Value | N=279 units</tspan><tspan dy="0.42em">​</tspan></tspan></text></g><g class="g-xtitle"><text class="xtitle" x="370" y="467.200390625" text-anchor="middle" style="opacity: 1; font-family: 'Open Sans', verdana, arial, sans-serif; font-size: 14px; fill: rgb(42, 63, 95); fill-opacity: 1; white-space: pre;">Time from Omission (ms)</text></g><g class="g-ytitle"><text class="ytitle" transform="rotate(-90,24.941796875,260)" x="24.941796875" y="260" text-anchor="middle" style="opacity: 1; font-family: 'Open Sans', verdana, arial, sans-serif; font-size: 14px; fill: rgb(42, 63, 95); fill-opacity: 1; white-space: pre;">Delta SFC (PLV)</text></g><g class="annotation" data-index="0" style="opacity: 1;"><g class="annotation-text-g" transform="rotate(0,419.5,109.5)"><g class="cursor-pointer" transform="translate(370,100)"><rect class="bg" x="0.5" y="0.5" width="98" height="18" style="stroke-width: 1px; stroke: rgb(0, 0, 0); stroke-opacity: 0; fill: rgb(0, 0, 0); fill-opacity: 0;"/><text class="annotation-text" text-anchor="middle" x="49.23828125" y="14" style="font-family: 'Open Sans', verdana, arial, sans-serif; font-size: 12px; fill: rgb(42, 63, 95); fill-opacity: 1; white-space: pre;">Omission Onset</text></g></g></g><g class="annotation" data-index="1" style="opacity: 1;"><g class="annotation-text-g" transform="rotate(0,242.14,109.5)"><g class="cursor-pointer" transform="translate(213,100)"><rect class="bg" x="0.5" y="0.5" width="58" height="18" style="stroke-width: 1px; stroke: rgb(0, 0, 0); stroke-opacity: 0; fill: rgb(0, 0, 0); fill-opacity: 0;"/><text class="annotation-text" text-anchor="middle" x="29.12890625" y="14" style="font-family: 'Open Sans', verdana, arial, sans-serif; font-size: 12px; fill: rgb(42, 63, 95); fill-opacity: 1; white-space: pre;">P1 Onset</text></g></g></g></g></svg>