<svg class="main-svg" xmlns="http://www.w3.org/2000/svg" xmlns:xlink="http://www.w3.org/1999/xlink" width="700" height="500" style="" viewBox="0 0 700 500"><rect x="0" y="0" width="700" height="500" style="fill: rgb(255, 255, 255); fill-opacity: 1;"/><defs id="defs-9f8d22"><g class="clips"><clipPath id="clip9f8d22xyplot" class="plotclip"><rect width="580" height="320"/></clipPath><clipPath class="axesclip" id="clip9f8d22x"><rect x="80" y="0" width="580" height="500"/></clipPath><clipPath class="axesclip" id="clip9f8d22y"><rect x="0" y="100" width="700" height="320"/></clipPath><clipPath class="axesclip" id="clip9f8d22xy"><rect x="80" y="100" width="580" height="320"/></clipPath></g><g class="gradients"/><g class="patterns"/></defs><g class="bglayer"/><g class="layer-below"><g class="imagelayer"/><g class="shapelayer"/></g><g class="cartesianlayer"><g class="subplot xy"><g class="layer-subplot"><g class="shapelayer"/><g class="imagelayer"/></g><g class="minor-gridlayer"><g class="x"/><g class="y"/></g><g class="gridlayer"><g class="x"><path class="xgrid crisp" transform="translate(141.05,0)" d="M0,100v320" style="stroke: rgb(211, 211, 211); stroke-opacity: 1; stroke-width: 1px;"/><path class="xgrid crisp" transform="translate(217.37,0)" d="M0,100v320" style="stroke: rgb(211, 211, 211); stroke-opacity: 1; stroke-width: 1px;"/><path class="xgrid crisp" transform="translate(293.68,0)" d="M0,100v320" style="stroke: rgb(211, 211, 211); stroke-opacity: 1; stroke-width: 1px;"/><path class="xgrid crisp" transform="translate(446.32,0)" d="M0,100v320" style="stroke: rgb(211, 211, 211); stroke-opacity: 1; stroke-width: 1px;"/><path class="xgrid crisp" transform="translate(522.63,0)" d="M0,100v320" style="stroke: rgb(211, 211, 211); stroke-opacity: 1; stroke-width: 1px;"/><path class="xgrid crisp" transform="translate(598.95,0)" d="M0,100v320" style="stroke: rgb(211, 211, 211); stroke-opacity: 1; stroke-width: 1px;"/></g><g class="y"><path class="ygrid crisp" transform="translate(0,391.16)" d="M80,0h580" style="stroke: rgb(211, 211, 211); stroke-opacity: 1; stroke-width: 1px;"/><path class="ygrid crisp" transform="translate(0,312.68)" d="M80,0h580" style="stroke: rgb(211, 211, 211); stroke-opacity: 1; stroke-width: 1px;"/><path class="ygrid crisp" transform="translate(0,234.2)" d="M80,0h580" style="stroke: rgb(211, 211, 211); stroke-opacity: 1; stroke-width: 1px;"/><path class="ygrid crisp" transform="translate(0,155.73)" d="M80,0h580" style="stroke: rgb(211, 211, 211); stroke-opacity: 1; stroke-width: 1px;"/></g></g><g class="zerolinelayer"><path class="xzl zl crisp" transform="translate(370,0)" d="M0,100v320" style="stroke: rgb(235, 240, 248); stroke-opacity: 1; stroke-width: 2px;"/></g><g class="layer-between"><g class="shapelayer"/><g class="imagelayer"/></g><path class="xlines-below"/><path class="ylines-below"/><g class="overlines-below"/><g class="xaxislayer-below"/><g class="yaxislayer-below"/><g class="overaxes-below"/><g class="overplot"><g class="xy" transform="translate(80,100)" clip-path="url(#clip9f8d22xyplot)"><g class="scatterlayer mlayer"><g class="trace scatter trace2ca91f" style="stroke-miterlimit: 2;"><g class="fills"><g><path class="js-fill" d="M0,237.54L7.63,248.78L15.26,268.3L22.89,263.82L30.53,264.08L38.16,251.61L45.79,259.89L53.42,275.75L61.05,283.88L68.68,291.69L76.32,287.84L83.95,278.21L91.58,276.34L99.21,278.91L106.84,280.56L114.47,280.14L122.11,280.52L129.74,276.1L137.37,274.54L145,273.52L152.63,265.27L160.26,259.94L167.89,261.96L175.53,274.05L183.16,279.23L190.79,279.74L198.42,292.58L206.05,286.05L213.68,270.77L228.95,271.46L236.58,269.3L244.21,273.45L251.84,273.95L259.47,273.28L267.11,263.58L274.74,257.06L282.37,258.94L297.63,264.31L305.26,269.33L312.89,286.76L320.53,300.85L328.16,288.34L335.79,261.54L343.42,257.95L351.05,272.9L358.68,286.55L366.32,290.62L373.95,291.05L381.58,298.5L389.21,300.24L396.84,293.69L404.47,287.51L412.11,275.1L419.74,286.66L427.37,290.72L435,296.02L442.63,298.94L450.26,288.28L457.89,297.05L465.53,289.95L473.16,291.13L480.79,299.52L488.42,293.25L496.05,304L503.68,289.02L511.32,287.42L518.95,298.33L526.58,285.08L534.21,295.22L541.84,293.85L549.47,290.11L564.74,293.16L572.37,286.83L580,288.47L580,269.79L572.37,267.06L564.74,274.56L557.11,272.21L549.47,271.48L541.84,277.36L534.21,278.24L526.58,266.25L518.95,280.04L511.32,271.11L503.68,272.06L496.05,287.09L488.42,274.54L480.79,279.99L473.16,273.87L465.53,270.14L457.89,281.04L450.26,271.02L442.63,281.75L435,276.92L427.37,272.58L419.74,266.27L412.11,251.94L396.84,275.31L389.21,283.79L381.58,283.18L373.95,274.81L366.32,274.53L358.68,270.03L351.05,256.89L343.42,241.53L335.79,246.63L328.16,273.28L320.53,282.91L312.89,269.22L305.26,252.73L297.63,248.82L290,245.85L282.37,243.75L274.74,240.81L267.11,247.81L259.47,258.27L251.84,257.41L244.21,258.5L236.58,254.81L228.95,257.98L221.32,255.98L213.68,254.78L206.05,269.68L198.42,280.08L190.79,265.97L183.16,265.54L175.53,261.36L167.89,245.29L160.26,242.21L152.63,249.65L145,257.5L137.37,259.84L129.74,260.74L122.11,265.63L114.47,263.54L106.84,265.23L99.21,265.3L91.58,262.39L83.95,262.53L76.32,275.44L68.68,279.98L61.05,272.82L53.42,263.95L45.79,246.37L38.16,236.06L30.53,249.31L22.89,246.2L15.26,252.83L7.63,232.85L0,220.54Z" style="fill: rgb(143, 0, 255); fill-opacity: 0.2; stroke-width: 0;"/></g></g><g class="errorbars"/><g class="lines"><path class="js-line" d="M0,220.54L7.63,232.85L15.26,252.83L22.89,246.2L30.53,249.31L38.16,236.06L45.79,246.37L53.42,263.95L61.05,272.82L68.68,279.98L76.32,275.44L83.95,262.53L91.58,262.39L99.21,265.3L106.84,265.23L114.47,263.54L122.11,265.63L129.74,260.74L137.37,259.84L145,257.5L152.63,249.65L160.26,242.21L167.89,245.29L175.53,261.36L183.16,265.54L190.79,265.97L198.42,280.08L206.05,269.68L213.68,254.78L221.32,255.98L228.95,257.98L236.58,254.81L244.21,258.5L251.84,257.41L259.47,258.27L267.11,247.81L274.74,240.81L282.37,243.75L290,245.85L297.63,248.82L305.26,252.73L312.89,269.22L320.53,282.91L328.16,273.28L335.79,246.63L343.42,241.53L351.05,256.89L358.68,270.03L366.32,274.53L373.95,274.81L381.58,283.18L389.21,283.79L396.84,275.31L412.11,251.94L419.74,266.27L427.37,272.58L435,276.92L442.63,281.75L450.26,271.02L457.89,281.04L465.53,270.14L473.16,273.87L480.79,279.99L488.42,274.54L496.05,287.09L503.68,272.06L511.32,271.11L518.95,280.04L526.58,266.25L534.21,278.24L541.84,277.36L549.47,271.48L557.11,272.21L564.74,274.56L572.37,267.06L580,269.79" style="vector-effect: none; fill: none; stroke: rgb(99, 110, 250); stroke-opacity: 1; stroke-width: 0px; opacity: 1;"/></g><g class="points"/><g class="text"/></g><g class="trace scatter trace19b538" style="stroke-miterlimit: 2;"><g class="fills"/><g class="errorbars"/><g class="lines"><path class="js-line" d="M0,237.54L7.63,248.78L15.26,268.3L22.89,263.82L30.53,264.08L38.16,251.61L45.79,259.89L53.42,275.75L61.05,283.88L68.68,291.69L76.32,287.84L83.95,278.21L91.58,276.34L99.21,278.91L106.84,280.56L114.47,280.14L122.11,280.52L129.74,276.1L137.37,274.54L145,273.52L152.63,265.27L160.26,259.94L167.89,261.96L175.53,274.05L183.16,279.23L190.79,279.74L198.42,292.58L206.05,286.05L213.68,270.77L228.95,271.46L236.58,269.3L244.21,273.45L251.84,273.95L259.47,273.28L267.11,263.58L274.74,257.06L282.37,258.94L297.63,264.31L305.26,269.33L312.89,286.76L320.53,300.85L328.16,288.34L335.79,261.54L343.42,257.95L351.05,272.9L358.68,286.55L366.32,290.62L373.95,291.05L381.58,298.5L389.21,300.24L396.84,293.69L404.47,287.51L412.11,275.1L419.74,286.66L427.37,290.72L435,296.02L442.63,298.94L450.26,288.28L457.89,297.05L465.53,289.95L473.16,291.13L480.79,299.52L488.42,293.25L496.05,304L503.68,289.02L511.32,287.42L518.95,298.33L526.58,285.08L534.21,295.22L541.84,293.85L549.47,290.11L564.74,293.16L572.37,286.83L580,288.47" style="vector-effect: none; fill: none; stroke: rgb(239, 85, 59); stroke-opacity: 1; stroke-width: 0px; opacity: 1;"/></g><g class="points"/><g class="text"/></g><g class="trace scatter traced8be96" style="stroke-miterlimit: 2; opacity: 1;"><g class="fills"/><g class="errorbars"/><g class="lines"><path class="js-line" d="M0,229.04L7.63,240.82L15.26,260.57L22.89,255.01L30.53,256.69L38.16,243.83L45.79,253.13L53.42,269.85L61.05,278.35L68.68,285.84L76.32,281.64L83.95,270.37L91.58,269.36L99.21,272.1L106.84,272.9L114.47,271.84L122.11,273.08L129.74,268.42L137.37,267.19L145,265.51L152.63,257.46L160.26,251.07L167.89,253.62L175.53,267.71L183.16,272.38L190.79,272.86L198.42,286.33L206.05,277.87L213.68,262.77L228.95,264.72L236.58,262.06L244.21,265.98L251.84,265.68L259.47,265.77L267.11,255.69L274.74,248.94L282.37,251.34L297.63,256.57L305.26,261.03L312.89,277.99L320.53,291.88L328.16,280.81L335.79,254.09L343.42,249.74L351.05,264.9L358.68,278.29L366.32,282.57L373.95,282.93L381.58,290.84L389.21,292.02L396.84,284.5L404.47,275.29L412.11,263.52L419.74,276.46L427.37,281.65L435,286.47L442.63,290.34L450.26,279.65L457.89,289.05L465.53,280.05L473.16,282.5L480.79,289.76L488.42,283.9L496.05,295.55L503.68,280.54L511.32,279.27L518.95,289.18L526.58,275.67L534.21,286.73L541.84,285.6L549.47,280.79L557.11,281.89L564.74,283.86L572.37,276.95L580,279.13" style="vector-effect: none; fill: none; stroke: rgb(143, 0, 255); stroke-opacity: 1; stroke-width: 3px; opacity: 1;"/></g><g class="points"/><g class="text"/></g><g class="trace scatter traced2d98c" style="stroke-miterlimit: 2;"><g class="fills"><g><path class="js-fill" d="M0,85.81L7.63,89.12L15.26,99.8L22.89,113.01L30.53,51.76L38.16,58.45L45.79,111.86L53.42,141.96L61.05,135.64L68.68,139.26L76.32,134.1L83.95,147.44L91.58,138.77L99.21,140.44L106.84,129.7L114.47,125.95L122.11,106.01L129.74,95.61L137.37,91.77L145,94.91L152.63,126.3L160.26,122.04L167.89,146.24L175.53,143.36L183.16,154.27L190.79,139.8L198.42,134.45L206.05,130.68L213.68,111.71L221.32,151.8L228.95,156.09L236.58,135.26L244.21,140.61L251.84,135.08L259.47,145.91L267.11,139.36L274.74,143.67L282.37,149.25L290,137.66L297.63,133.79L305.26,114.28L312.89,135.75L320.53,145.1L328.16,132.13L335.79,121.52L343.42,107.09L351.05,130.39L358.68,129.81L366.32,118.17L381.58,164.24L389.21,180.17L396.84,189.96L404.47,177.7L412.11,169.57L419.74,178.65L427.37,168.59L435,175.3L442.63,167.66L450.26,179.78L457.89,162.59L465.53,164.46L473.16,172.98L480.79,231.11L488.42,202.94L496.05,208.97L503.68,217.67L511.32,213.11L518.95,181.25L526.58,178.83L534.21,182.65L541.84,168.02L549.47,174.75L557.11,156.07L564.74,161.79L572.37,144.32L580,143.64L580,103.72L572.37,106.91L564.74,124.59L557.11,118.88L549.47,138.64L541.84,132.01L534.21,149.88L526.58,145.94L518.95,145.38L511.32,182.06L503.68,184.7L496.05,174.63L488.42,168.05L480.79,198.26L473.16,137.48L465.53,125.83L457.89,127.26L450.26,139.63L442.63,128.04L435,136.47L427.37,131.21L419.74,143.3L412.11,135.01L404.47,142.96L396.84,155.63L389.21,145.85L381.58,132.4L373.95,108.35L366.32,83.11L358.68,95.38L351.05,95.77L343.42,72.46L335.79,85.98L320.53,107.4L312.89,103.11L305.26,82.9L297.63,102.61L290,105.92L282.37,118.61L274.74,113.71L267.11,108.24L259.47,113.85L251.84,105.25L244.21,109.14L236.58,104.52L228.95,127.98L221.32,126.16L213.68,82.99L206.05,101.95L198.42,103.28L190.79,111.11L183.16,128.64L175.53,115.58L167.89,116.16L160.26,91.91L152.63,94.25L145,59.9L137.37,58.33L129.74,62.3L122.11,75.36L114.47,95.92L106.84,100.7L99.21,111.61L91.58,105.38L83.95,116.45L76.32,104.7L68.68,110.9L61.05,109.11L53.42,116.22L45.79,81.22L38.16,20.09L30.53,16L22.89,81.29L15.26,67.4L7.63,54.23L0,50.13Z" style="fill: rgb(255, 20, 147); fill-opacity: 0.2; stroke-width: 0;"/></g></g><g class="errorbars"/><g class="lines"><path class="js-line" d="M0,50.13L7.63,54.23L15.26,67.4L22.89,81.29L30.53,16L38.16,20.09L45.79,81.22L53.42,116.22L61.05,109.11L68.68,110.9L76.32,104.7L83.95,116.45L91.58,105.38L99.21,111.61L106.84,100.7L114.47,95.92L122.11,75.36L129.74,62.3L137.37,58.33L145,59.9L152.63,94.25L160.26,91.91L167.89,116.16L175.53,115.58L183.16,128.64L190.79,111.11L198.42,103.28L206.05,101.95L213.68,82.99L221.32,126.16L228.95,127.98L236.58,104.52L244.21,109.14L251.84,105.25L259.47,113.85L267.11,108.24L274.74,113.71L282.37,118.61L290,105.92L297.63,102.61L305.26,82.9L312.89,103.11L320.53,107.4L335.79,85.98L343.42,72.46L351.05,95.77L358.68,95.38L366.32,83.11L373.95,108.35L381.58,132.4L389.21,145.85L396.84,155.63L404.47,142.96L412.11,135.01L419.74,143.3L427.37,131.21L435,136.47L442.63,128.04L450.26,139.63L457.89,127.26L465.53,125.83L473.16,137.48L480.79,198.26L488.42,168.05L496.05,174.63L503.68,184.7L511.32,182.06L518.95,145.38L526.58,145.94L534.21,149.88L541.84,132.01L549.47,138.64L557.11,118.88L564.74,124.59L572.37,106.91L580,103.72" style="vector-effect: none; fill: none; stroke: rgb(171, 99, 250); stroke-opacity: 1; stroke-width: 0px; opacity: 1;"/></g><g class="points"/><g class="text"/></g><g class="trace scatter trace2b655d" style="stroke-miterlimit: 2;"><g class="fills"/><g class="errorbars"/><g class="lines"><path class="js-line" d="M0,85.81L7.63,89.12L15.26,99.8L22.89,113.01L30.53,51.76L38.16,58.45L45.79,111.86L53.42,141.96L61.05,135.64L68.68,139.26L76.32,134.1L83.95,147.44L91.58,138.77L99.21,140.44L106.84,129.7L114.47,125.95L122.11,106.01L129.74,95.61L137.37,91.77L145,94.91L152.63,126.3L160.26,122.04L167.89,146.24L175.53,143.36L183.16,154.27L190.79,139.8L198.42,134.45L206.05,130.68L213.68,111.71L221.32,151.8L228.95,156.09L236.58,135.26L244.21,140.61L251.84,135.08L259.47,145.91L267.11,139.36L274.74,143.67L282.37,149.25L290,137.66L297.63,133.79L305.26,114.28L312.89,135.75L320.53,145.1L328.16,132.13L335.79,121.52L343.42,107.09L351.05,130.39L358.68,129.81L366.32,118.17L381.58,164.24L389.21,180.17L396.84,189.96L404.47,177.7L412.11,169.57L419.74,178.65L427.37,168.59L435,175.3L442.63,167.66L450.26,179.78L457.89,162.59L465.53,164.46L473.16,172.98L480.79,231.11L488.42,202.94L496.05,208.97L503.68,217.67L511.32,213.11L518.95,181.25L526.58,178.83L534.21,182.65L541.84,168.02L549.47,174.75L557.11,156.07L564.74,161.79L572.37,144.32L580,143.64" style="vector-effect: none; fill: none; stroke: rgb(255, 161, 90); stroke-opacity: 1; stroke-width: 0px; opacity: 1;"/></g><g class="points"/><g class="text"/></g><g class="trace scatter trace349b10" style="stroke-miterlimit: 2; opacity: 1;"><g class="fills"/><g class="errorbars"/><g class="lines"><path class="js-line" d="M0,67.97L7.63,71.68L15.26,83.6L22.89,97.15L30.53,33.88L38.16,39.27L45.79,96.54L53.42,129.09L61.05,122.38L68.68,125.08L76.32,119.4L83.95,131.94L91.58,122.07L99.21,126.03L106.84,115.2L114.47,110.93L122.11,90.69L129.74,78.96L137.37,75.05L145,77.41L152.63,110.28L160.26,106.98L167.89,131.2L175.53,129.47L183.16,141.45L190.79,125.45L198.42,118.87L206.05,116.31L213.68,97.35L221.32,138.98L228.95,142.04L236.58,119.89L244.21,124.88L251.84,120.17L259.47,129.88L267.11,123.8L274.74,128.69L282.37,133.93L290,121.79L297.63,118.2L305.26,98.59L312.89,119.43L320.53,126.25L335.79,103.75L343.42,89.77L351.05,113.08L358.68,112.6L366.32,100.64L373.95,125.04L381.58,148.32L389.21,163.01L396.84,172.79L404.47,160.33L412.11,152.29L419.74,160.98L427.37,149.9L435,155.88L442.63,147.85L450.26,159.71L457.89,144.92L465.53,145.15L473.16,155.23L480.79,214.68L488.42,185.49L496.05,191.8L503.68,201.18L511.32,197.58L518.95,163.31L526.58,162.39L534.21,166.27L541.84,150.01L549.47,156.69L557.11,137.47L564.74,143.19L572.37,125.62L580,123.68" style="vector-effect: none; fill: none; stroke: rgb(255, 20, 147); stroke-opacity: 1; stroke-width: 3px; opacity: 1;"/></g><g class="points"/><g class="text"/></g></g></g></g><g class="zerolinelayer-above"/><path class="xlines-above crisp" d="M79,420.5H661M79,99.5H661" style="fill: none; stroke-width: 1px; stroke: rgb(0, 0, 0); stroke-opacity: 1;"/><path class="ylines-above crisp" d="M79.5,100V420M660.5,100V420" style="fill: none; stroke-width: 1px; stroke: rgb(0, 0, 0); stroke-opacity: 1;"/><g class="overlines-above"/><g class="xaxislayer-above"><path class="xtick ticks crisp" d="M0,421v5" transform="translate(141.05,0)" style="stroke: rgb(68, 68, 68); stroke-opacity: 1; stroke-width: 1px;"/><path class="xtick ticks crisp" d="M0,421v5" transform="translate(217.37,0)" style="stroke: rgb(68, 68, 68); stroke-opacity: 1; stroke-width: 1px;"/><path class="xtick ticks crisp" d="M0,421v5" transform="translate(293.68,0)" style="stroke: rgb(68, 68, 68); stroke-opacity: 1; stroke-width: 1px;"/><path class="xtick ticks crisp" d="M0,421v5" transform="translate(370,0)" style="stroke: rgb(68, 68, 68); stroke-opacity: 1; stroke-width: 1px;"/><path class="xtick ticks crisp" d="M0,421v5" transform="translate(446.32,0)" style="stroke: rgb(68, 68, 68); stroke-opacity: 1; stroke-width: 1px;"/><path class="xtick ticks crisp" d="M0,421v5" transform="translate(522.63,0)" style="stroke: rgb(68, 68, 68); stroke-opacity: 1; stroke-width: 1px;"/><path class="xtick ticks crisp" d="M0,421v5" transform="translate(598.95,0)" style="stroke: rgb(68, 68, 68); stroke-opacity: 1; stroke-width: 1px;"/><g class="xtick"><text text-anchor="middle" x="0" y="440.4" transform="translate(141.05,0)" style="font-family: 'Open Sans', verdana, arial, sans-serif; font-size: 12px; fill: rgb(42, 63, 95); fill-opacity: 1; white-space: pre;">−1500</text></g><g class="xtick"><text text-anchor="middle" x="0" y="440.4" style="font-family: 'Open Sans', verdana, arial, sans-serif; font-size: 12px; fill: rgb(42, 63, 95); fill-opacity: 1; white-space: pre;" transform="translate(217.37,0)">−1000</text></g><g class="xtick"><text text-anchor="middle" x="0" y="440.4" style="font-family: 'Open Sans', verdana, arial, sans-serif; font-size: 12px; fill: rgb(42, 63, 95); fill-opacity: 1; white-space: pre;" transform="translate(293.68,0)">−500</text></g><g class="xtick"><text text-anchor="middle" x="0" y="440.4" style="font-family: 'Open Sans', verdana, arial, sans-serif; font-size: 12px; fill: rgb(42, 63, 95); fill-opacity: 1; white-space: pre;" transform="translate(370,0)">0</text></g><g class="xtick"><text text-anchor="middle" x="0" y="440.4" style="font-family: 'Open Sans', verdana, arial, sans-serif; font-size: 12px; fill: rgb(42, 63, 95); fill-opacity: 1; white-space: pre;" transform="translate(446.32,0)">500</text></g><g class="xtick"><text text-anchor="middle" x="0" y="440.4" style="font-family: 'Open Sans', verdana, arial, sans-serif; font-size: 12px; fill: rgb(42, 63, 95); fill-opacity: 1; white-space: pre;" transform="translate(522.63,0)">1000</text></g><g class="xtick"><text text-anchor="middle" x="0" y="440.4" style="font-family: 'Open Sans', verdana, arial, sans-serif; font-size: 12px; fill: rgb(42, 63, 95); fill-opacity: 1; white-space: pre;" transform="translate(598.95,0)">1500</text></g></g><g class="yaxislayer-above"><path class="ytick ticks crisp" d="M79,0h-5" transform="translate(0,391.16)" style="stroke: rgb(68, 68, 68); stroke-opacity: 1; stroke-width: 1px;"/><path class="ytick ticks crisp" d="M79,0h-5" transform="translate(0,312.68)" style="stroke: rgb(68, 68, 68); stroke-opacity: 1; stroke-width: 1px;"/><path class="ytick ticks crisp" d="M79,0h-5" transform="translate(0,234.2)" style="stroke: rgb(68, 68, 68); stroke-opacity: 1; stroke-width: 1px;"/><path class="ytick ticks crisp" d="M79,0h-5" transform="translate(0,155.73)" style="stroke: rgb(68, 68, 68); stroke-opacity: 1; stroke-width: 1px;"/><g class="ytick"><text text-anchor="end" x="71.6" y="4.199999999999999" transform="translate(0,391.16)" style="font-family: 'Open Sans', verdana, arial, sans-serif; font-size: 12px; fill: rgb(42, 63, 95); fill-opacity: 1; white-space: pre;">0.1</text></g><g class="ytick"><text text-anchor="end" x="71.6" y="4.199999999999999" style="font-family: 'Open Sans', verdana, arial, sans-serif; font-size: 12px; fill: rgb(42, 63, 95); fill-opacity: 1; white-space: pre;" transform="translate(0,312.68)">0.15</text></g><g class="ytick"><text text-anchor="end" x="71.6" y="4.199999999999999" style="font-family: 'Open Sans', verdana, arial, sans-serif; font-size: 12px; fill: rgb(42, 63, 95); fill-opacity: 1; white-space: pre;" transform="translate(0,234.2)">0.2</text></g><g class="ytick"><text text-anchor="end" x="71.6" y="4.199999999999999" style="font-family: 'Open Sans', verdana, arial, sans-serif; font-size: 12px; fill: rgb(42, 63, 95); fill-opacity: 1; white-space: pre;" transform="translate(0,155.73)">0.25</text></g></g><g class="overaxes-above"/></g></g><g class="polarlayer"/><g class="smithlayer"/><g class="ternarylayer"/><g class="geolayer"/><g class="funnelarealayer"/><g class="pielayer"/><g class="iciclelayer"/><g class="treemaplayer"/><g class="sunburstlayer"/><g class="glimages"/><defs id="topdefs-9f8d22"><g class="clips"/><clipPath id="legend9f8d22"><rect width="296" height="29" x="1" y="1"/></clipPath></defs><g class="layer-above"><g class="imagelayer"/><g class="shapelayer"><g class="shape-group" data-index="0" clip-path="url(#clip9f8d22x)"><path data-index="0" fill-rule="evenodd" d="M370,420L370,100" style="opacity: 1; stroke: rgb(0, 0, 0); stroke-opacity: 1; fill: rgb(0, 0, 0); fill-opacity: 0; stroke-dasharray: 9px, 9px; stroke-width: 2px;"/></g><g class="shape-group" data-index="1" clip-path="url(#clip9f8d22x)"><path data-index="1" fill-rule="evenodd" d="M212.64,420L212.64,100" style="opacity: 1; stroke: rgb(128, 128, 128); stroke-opacity: 1; fill: rgb(0, 0, 0); fill-opacity: 0; stroke-dasharray: 3px, 3px; stroke-width: 2px;"/></g></g></g><g class="infolayer"><g class="legend" pointer-events="all" transform="translate(362,62.599999999999994)"><rect class="bg" shape-rendering="crispEdges" style="stroke: rgb(0, 0, 0); stroke-opacity: 1; fill: rgb(255, 255, 255); fill-opacity: 0.8; stroke-width: 1px;" width="297" height="30" x="0.5" y="0.5"/><g class="scrollbox" transform="" clip-path="url(#legend9f8d22)"><g class="groups" transform=""><g class="traces" transform="translate(0,15.5)" style="opacity: 1;"><text class="legendtext" text-anchor="start" x="40" y="4.680000000000001" style="font-family: 'Open Sans', verdana, arial, sans-serif; font-size: 12px; fill: rgb(42, 63, 95); fill-opacity: 1; white-space: pre;">Standard (AAAB)</text><g class="layers" style="opacity: 1;"><g class="legendfill"/><g class="legendlines"><path class="js-line" d="M5,0h30" style="fill: none; stroke: rgb(143, 0, 255); stroke-opacity: 1; stroke-width: 3px;"/></g><g class="legendsymbols"><g class="legendpoints"/></g></g><rect class="legendtoggle" x="0" y="-9.5" width="145.46875" height="19" style="fill: rgb(0, 0, 0); fill-opacity: 0;"/></g></g><g class="groups" transform="translate(147.96875,0)"><g class="traces" transform="translate(0,15.5)" style="opacity: 1;"><text class="legendtext" text-anchor="start" x="40" y="4.680000000000001" style="font-family: 'Open Sans', verdana, arial, sans-serif; font-size: 12px; fill: rgb(42, 63, 95); fill-opacity: 1; white-space: pre;">Omission (AXAB)</text><g class="layers" style="opacity: 1;"><g class="legendfill"/><g class="legendlines"><path class="js-line" d="M5,0h30" style="fill: none; stroke: rgb(255, 20, 147); stroke-opacity: 1; stroke-width: 3px;"/></g><g class="legendsymbols"><g class="legendpoints"/></g></g><rect class="legendtoggle" x="0" y="-9.5" width="145.5546875" height="19" style="fill: rgb(0, 0, 0); fill-opacity: 0;"/></g></g></g><rect class="scrollbar" rx="20" ry="3" width="0" height="0" style="fill: rgb(128, 139, 164); fill-opacity: 1;" x="0" y="0"/></g><g class="g-gtitle"><text class="gtitle" x="350" y="50" text-anchor="middle" dy="0em" style="opacity: 1; font-family: Arial; font-size: 18px; fill: rgb(0, 0, 0); fill-opacity: 1; white-space: pre;"><tspan class="line" dy="0em" x="350" y="50"><tspan style="font-weight:bold">Figure f010: TEO Delta SFC</tspan></tspan><tspan class="line" dy="1.3em" x="350" y="50">​<tspan style="font-size:70%" dy="-0.6em">Continuous 2-4 Hz Phase-Locking Value | N=223 units</tspan><tspan dy="0.42em">​</tspan></tspan></text></g><g class="g-xtitle"><text class="xtitle" x="370" y="467.200390625" text-anchor="middle" style="opacity: 1; font-family: 'Open Sans', verdana, arial, sans-serif; font-size: 14px; fill: rgb(42, 63, 95); fill-opacity: 1; white-space: pre;">Time from Omission (ms)</text></g><g class="g-ytitle"><text class="ytitle" transform="rotate(-90,24.941796875,260)" x="24.941796875" y="260" text-anchor="middle" style="opacity: 1; font-family: 'Open Sans', verdana, arial, sans-serif; font-size: 14px; fill: rgb(42, 63, 95); fill-opacity: 1; white-space: pre;">Delta SFC (PLV)</text></g><g class="annotation" data-index="0" style="opacity: 1;"><g class="annotation-text-g" transform="rotate(0,419.5,109.5)"><g class="cursor-pointer" transform="translate(370,100)"><rect class="bg" x="0.5" y="0.5" width="98" height="18" style="stroke-width: 1px; stroke: rgb(0, 0, 0); stroke-opacity: 0; fill: rgb(0, 0, 0); fill-opacity: 0;"/><text class="annotation-text" text-anchor="middle" x="49.23828125" y="14" style="font-family: 'Open Sans', verdana, arial, sans-serif; font-size: 12px; fill: rgb(42, 63, 95); fill-opacity: 1; white-space: pre;">Omission Onset</text></g></g></g><g class="annotation" data-index="1" style="opacity: 1;"><g class="annotation-text-g" transform="rotate(0,242.14,109.5)"><g class="cursor-pointer" transform="translate(213,100)"><rect class="bg" x="0.5" y="0.5" width="58" height="18" style="stroke-width: 1px; stroke: rgb(0, 0, 0); stroke-opacity: 0; fill: rgb(0, 0, 0); fill-opacity: 0;"/><text class="annotation-text" text-anchor="middle" x="29.12890625" y="14" style="font-family: 'Open Sans', verdana, arial, sans-serif; font-size: 12px; fill: rgb(42, 63, 95); fill-opacity: 1; white-space: pre;">P1 Onset</text></g></g></g></g></svg>