<svg class="main-svg" xmlns="http://www.w3.org/2000/svg" xmlns:xlink="http://www.w3.org/1999/xlink" width="700" height="500" style="" viewBox="0 0 700 500"><rect x="0" y="0" width="700" height="500" style="fill: rgb(255, 255, 255); fill-opacity: 1;"/><defs id="defs-851ed0"><g class="clips"><clipPath id="clip851ed0xyplot" class="plotclip"><rect width="580" height="320"/></clipPath><clipPath class="axesclip" id="clip851ed0x"><rect x="80" y="0" width="580" height="500"/></clipPath><clipPath class="axesclip" id="clip851ed0y"><rect x="0" y="100" width="700" height="320"/></clipPath><clipPath class="axesclip" id="clip851ed0xy"><rect x="80" y="100" width="580" height="320"/></clipPath></g><g class="gradients"/><g class="patterns"/></defs><g class="bglayer"/><g class="layer-below"><g class="imagelayer"/><g class="shapelayer"/></g><g class="cartesianlayer"><g class="subplot xy"><g class="layer-subplot"><g class="shapelayer"/><g class="imagelayer"/></g><g class="minor-gridlayer"><g class="x"/><g class="y"/></g><g class="gridlayer"><g class="x"><path class="xgrid crisp" transform="translate(141.05,0)" d="M0,100v320" style="stroke: rgb(211, 211, 211); stroke-opacity: 1; stroke-width: 1px;"/><path class="xgrid crisp" transform="translate(217.37,0)" d="M0,100v320" style="stroke: rgb(211, 211, 211); stroke-opacity: 1; stroke-width: 1px;"/><path class="xgrid crisp" transform="translate(293.68,0)" d="M0,100v320" style="stroke: rgb(211, 211, 211); stroke-opacity: 1; stroke-width: 1px;"/><path class="xgrid crisp" transform="translate(446.32,0)" d="M0,100v320" style="stroke: rgb(211, 211, 211); stroke-opacity: 1; stroke-width: 1px;"/><path class="xgrid crisp" transform="translate(522.63,0)" d="M0,100v320" style="stroke: rgb(211, 211, 211); stroke-opacity: 1; stroke-width: 1px;"/><path class="xgrid crisp" transform="translate(598.95,0)" d="M0,100v320" style="stroke: rgb(211, 211, 211); stroke-opacity: 1; stroke-width: 1px;"/></g><g class="y"><path class="ygrid crisp" transform="translate(0,409.75)" d="M80,0h580" style="stroke: rgb(211, 211, 211); stroke-opacity: 1; stroke-width: 1px;"/><path class="ygrid crisp" transform="translate(0,365.35)" d="M80,0h580" style="stroke: rgb(211, 211, 211); stroke-opacity: 1; stroke-width: 1px;"/><path class="ygrid crisp" transform="translate(0,320.95)" d="M80,0h580" style="stroke: rgb(211, 211, 211); stroke-opacity: 1; stroke-width: 1px;"/><path class="ygrid crisp" transform="translate(0,276.56)" d="M80,0h580" style="stroke: rgb(211, 211, 211); stroke-opacity: 1; stroke-width: 1px;"/><path class="ygrid crisp" transform="translate(0,232.16)" d="M80,0h580" style="stroke: rgb(211, 211, 211); stroke-opacity: 1; stroke-width: 1px;"/><path class="ygrid crisp" transform="translate(0,187.76)" d="M80,0h580" style="stroke: rgb(211, 211, 211); stroke-opacity: 1; stroke-width: 1px;"/><path class="ygrid crisp" transform="translate(0,143.36)" d="M80,0h580" style="stroke: rgb(211, 211, 211); stroke-opacity: 1; stroke-width: 1px;"/></g></g><g class="zerolinelayer"><path class="xzl zl crisp" transform="translate(370,0)" d="M0,100v320" style="stroke: rgb(235, 240, 248); stroke-opacity: 1; stroke-width: 2px;"/></g><g class="layer-between"><g class="shapelayer"/><g class="imagelayer"/></g><path class="xlines-below"/><path class="ylines-below"/><g class="overlines-below"/><g class="xaxislayer-below"/><g class="yaxislayer-below"/><g class="overaxes-below"/><g class="overplot"><g class="xy" transform="translate(80,100)" clip-path="url(#clip851ed0xyplot)"><g class="scatterlayer mlayer"><g class="trace scatter trace7cbc79" style="stroke-miterlimit: 2;"><g class="fills"><g><path class="js-fill" d="M0,120.34L7.63,140.09L15.26,178.73L22.89,224.2L30.53,205.49L38.16,168.71L45.79,136.36L53.42,138.71L61.05,153.85L68.68,168.22L76.32,166.2L83.95,175.16L91.58,177.99L99.21,196.13L106.84,197.92L114.47,187.97L122.11,176.66L137.37,173.93L145,173.94L152.63,172.6L160.26,180.44L167.89,188.33L175.53,192.76L183.16,193.38L190.79,194.76L206.05,194.82L213.68,179.95L221.32,173.56L228.95,160.84L236.58,159.84L244.21,172.49L251.84,185.03L259.47,184.38L267.11,182.26L274.74,184.19L282.37,176.67L290,164.3L297.63,152.1L305.26,185.87L312.89,253L320.53,267.49L328.16,216.93L335.79,180.33L343.42,181.67L351.05,216.63L358.68,245.33L366.32,248.72L373.95,263.91L381.58,285.39L389.21,296.75L396.84,298.99L404.47,303.11L412.11,298.67L419.74,300.88L427.37,290.44L435,289.6L442.63,292.76L450.26,290.31L457.89,292.96L465.53,274.82L473.16,283.68L480.79,287.03L488.42,286.91L496.05,291.16L503.68,292.48L511.32,296.32L518.95,297.81L526.58,298.97L534.21,296.89L541.84,299.6L549.47,301.22L557.11,304L564.74,302.72L572.37,291.26L580,257.07L580,242.04L572.37,279.32L564.74,294.06L557.11,295.09L549.47,291.14L541.84,288.79L534.21,284.91L526.58,288.98L511.32,282.69L503.68,281.86L488.42,277.2L480.79,276.41L473.16,270.18L465.53,260.11L457.89,283.05L450.26,279.24L442.63,279.12L435,274.73L427.37,276.52L419.74,290.33L412.11,287.78L404.47,293.97L396.84,290.3L389.21,288.05L381.58,276.6L373.95,253.14L366.32,235.1L358.68,228.86L351.05,204.03L343.42,172.07L335.79,171.1L328.16,204.86L320.53,252.7L312.89,239.67L305.26,165.88L297.63,135.7L290,152.14L282.37,164.54L274.74,172.62L267.11,172.06L259.47,175.23L251.84,176.9L244.21,164.59L236.58,151.64L228.95,150.18L221.32,162.75L213.68,167.14L206.05,185.69L190.79,186.21L183.16,187.38L175.53,187.02L167.89,181.21L160.26,171.93L152.63,159.18L145,161.13L137.37,162.69L122.11,167.15L114.47,175.59L106.84,181.46L99.21,179.69L91.58,164.05L83.95,167.08L76.32,155.49L68.68,157.35L53.42,125.19L45.79,122.42L30.53,194.15L22.89,209.59L15.26,159.9L7.63,119.44L0,97.99Z" style="fill: rgb(143, 0, 255); fill-opacity: 0.2; stroke-width: 0;"/></g></g><g class="errorbars"/><g class="lines"><path class="js-line" d="M0,97.99L7.63,119.44L15.26,159.9L22.89,209.59L30.53,194.15L45.79,122.42L53.42,125.19L68.68,157.35L76.32,155.49L83.95,167.08L91.58,164.05L99.21,179.69L106.84,181.46L114.47,175.59L122.11,167.15L137.37,162.69L145,161.13L152.63,159.18L160.26,171.93L167.89,181.21L175.53,187.02L183.16,187.38L190.79,186.21L206.05,185.69L213.68,167.14L221.32,162.75L228.95,150.18L236.58,151.64L244.21,164.59L251.84,176.9L259.47,175.23L267.11,172.06L274.74,172.62L282.37,164.54L290,152.14L297.63,135.7L305.26,165.88L312.89,239.67L320.53,252.7L328.16,204.86L335.79,171.1L343.42,172.07L351.05,204.03L358.68,228.86L366.32,235.1L373.95,253.14L381.58,276.6L389.21,288.05L396.84,290.3L404.47,293.97L412.11,287.78L419.74,290.33L427.37,276.52L435,274.73L442.63,279.12L450.26,279.24L457.89,283.05L465.53,260.11L473.16,270.18L480.79,276.41L488.42,277.2L503.68,281.86L511.32,282.69L526.58,288.98L534.21,284.91L541.84,288.79L549.47,291.14L557.11,295.09L564.74,294.06L572.37,279.32L580,242.04" style="vector-effect: none; fill: none; stroke: rgb(99, 110, 250); stroke-opacity: 1; stroke-width: 0px; opacity: 1;"/></g><g class="points"/><g class="text"/></g><g class="trace scatter trace091bc0" style="stroke-miterlimit: 2;"><g class="fills"/><g class="errorbars"/><g class="lines"><path class="js-line" d="M0,120.34L7.63,140.09L15.26,178.73L22.89,224.2L30.53,205.49L38.16,168.71L45.79,136.36L53.42,138.71L61.05,153.85L68.68,168.22L76.32,166.2L83.95,175.16L91.58,177.99L99.21,196.13L106.84,197.92L114.47,187.97L122.11,176.66L137.37,173.93L145,173.94L152.63,172.6L160.26,180.44L167.89,188.33L175.53,192.76L183.16,193.38L190.79,194.76L206.05,194.82L213.68,179.95L221.32,173.56L228.95,160.84L236.58,159.84L244.21,172.49L251.84,185.03L259.47,184.38L267.11,182.26L274.74,184.19L282.37,176.67L290,164.3L297.63,152.1L305.26,185.87L312.89,253L320.53,267.49L328.16,216.93L335.79,180.33L343.42,181.67L351.05,216.63L358.68,245.33L366.32,248.72L373.95,263.91L381.58,285.39L389.21,296.75L396.84,298.99L404.47,303.11L412.11,298.67L419.74,300.88L427.37,290.44L435,289.6L442.63,292.76L450.26,290.31L457.89,292.96L465.53,274.82L473.16,283.68L480.79,287.03L488.42,286.91L496.05,291.16L503.68,292.48L511.32,296.32L518.95,297.81L526.58,298.97L534.21,296.89L541.84,299.6L549.47,301.22L557.11,304L564.74,302.72L572.37,291.26L580,257.07" style="vector-effect: none; fill: none; stroke: rgb(239, 85, 59); stroke-opacity: 1; stroke-width: 0px; opacity: 1;"/></g><g class="points"/><g class="text"/></g><g class="trace scatter tracea00bc4" style="stroke-miterlimit: 2; opacity: 1;"><g class="fills"/><g class="errorbars"/><g class="lines"><path class="js-line" d="M0,109.17L7.63,129.77L15.26,169.31L22.89,216.9L30.53,199.82L38.16,162.64L45.79,129.39L53.42,131.95L61.05,148.02L68.68,162.78L76.32,160.85L83.95,171.12L91.58,171.02L99.21,187.91L106.84,189.69L114.47,181.78L122.11,171.9L137.37,168.31L145,167.53L152.63,165.89L160.26,176.18L167.89,184.77L175.53,189.89L190.79,190.48L198.42,190.28L206.05,190.26L213.68,173.54L221.32,168.15L228.95,155.51L236.58,155.74L244.21,168.54L251.84,180.96L259.47,179.8L267.11,177.16L274.74,178.41L282.37,170.6L290,158.22L297.63,143.9L305.26,175.88L312.89,246.33L320.53,260.1L328.16,210.9L335.79,175.71L343.42,176.87L351.05,210.33L358.68,237.1L366.32,241.91L373.95,258.53L381.58,280.99L389.21,292.4L396.84,294.65L404.47,298.54L412.11,293.22L419.74,295.6L427.37,283.48L435,282.17L442.63,285.94L450.26,284.77L457.89,288L465.53,267.46L473.16,276.93L480.79,281.72L488.42,282.06L496.05,285.45L503.68,287.17L526.58,293.98L534.21,290.9L541.84,294.19L549.47,296.18L557.11,299.54L564.74,298.39L572.37,285.29L580,249.56" style="vector-effect: none; fill: none; stroke: rgb(143, 0, 255); stroke-opacity: 1; stroke-width: 3px; opacity: 1;"/></g><g class="points"/><g class="text"/></g><g class="trace scatter tracefb3692" style="stroke-miterlimit: 2;"><g class="fills"><g><path class="js-fill" d="M0,57.22L7.63,53.92L15.26,116.88L22.89,124.21L30.53,61.08L38.16,50.79L45.79,66.11L53.42,81.98L61.05,116.44L68.68,134.92L76.32,117.39L83.95,104.67L91.58,110.39L99.21,129.48L106.84,135.32L114.47,143.62L122.11,142.44L129.74,124.68L137.37,95.47L145,92.92L152.63,114.99L160.26,135.69L167.89,138.89L175.53,123.85L183.16,115.42L190.79,118.6L198.42,111.13L206.05,82.36L213.68,79.08L221.32,115.95L228.95,106.02L236.58,109.68L244.21,100.7L259.47,123.29L267.11,116.21L274.74,97.39L282.37,90.02L290,106.34L297.63,136.45L305.26,175.61L312.89,194.29L320.53,169.08L328.16,114.62L335.79,119.41L343.42,169.57L351.05,205.99L358.68,202.64L366.32,184.01L373.95,181.39L381.58,194.71L389.21,161.95L396.84,157.61L404.47,138.79L412.11,143.8L419.74,141.5L427.37,136.41L435,161.5L442.63,192.34L450.26,196.04L457.89,167.83L465.53,155.13L473.16,156.12L480.79,154.1L488.42,158.45L496.05,156.57L503.68,172.91L511.32,174.44L518.95,184.34L526.58,172.24L534.21,153.46L541.84,138.73L549.47,141.45L557.11,169.42L564.74,180.41L572.37,200.92L580,255.8L580,232.55L572.37,168.02L564.74,152.4L557.11,143.6L549.47,114.62L541.84,108.27L534.21,119.53L526.58,141.32L518.95,155.03L511.32,147.96L503.68,146.69L496.05,129.3L488.42,134.87L465.53,126.2L457.89,140.24L450.26,164.05L442.63,164.48L435,134.66L427.37,109.03L419.74,116.27L412.11,112.15L404.47,105.01L396.84,127.55L389.21,133.67L381.58,170.7L373.95,158.55L366.32,160.36L358.68,176.12L351.05,185.19L343.42,148.1L335.79,89.79L328.16,82.77L320.53,138.89L312.89,166.74L305.26,151.03L297.63,117.84L290,86.99L282.37,67.73L274.74,73.33L267.11,89.73L259.47,101.56L244.21,79.52L236.58,87.52L228.95,83.56L221.32,95.88L213.68,53.83L206.05,59.37L198.42,91.97L190.79,100.94L183.16,97.45L175.53,105.44L167.89,121.69L160.26,115.98L152.63,87.25L145,63.94L137.37,71.43L129.74,103.53L122.11,122.22L114.47,121.15L106.84,111.23L99.21,107.23L91.58,91.2L83.95,82.99L76.32,94.67L68.68,116.44L61.05,96.72L53.42,63.57L45.79,43.76L38.16,16L30.53,30.8L22.89,101.68L15.26,90.68L7.63,22.95L0,29.77Z" style="fill: rgb(255, 20, 147); fill-opacity: 0.2; stroke-width: 0;"/></g></g><g class="errorbars"/><g class="lines"><path class="js-line" d="M0,29.77L7.63,22.95L15.26,90.68L22.89,101.68L30.53,30.8L38.16,16L45.79,43.76L53.42,63.57L61.05,96.72L68.68,116.44L76.32,94.67L83.95,82.99L91.58,91.2L99.21,107.23L106.84,111.23L114.47,121.15L122.11,122.22L129.74,103.53L137.37,71.43L145,63.94L152.63,87.25L160.26,115.98L167.89,121.69L175.53,105.44L183.16,97.45L190.79,100.94L198.42,91.97L206.05,59.37L213.68,53.83L221.32,95.88L228.95,83.56L236.58,87.52L244.21,79.52L259.47,101.56L267.11,89.73L274.74,73.33L282.37,67.73L290,86.99L297.63,117.84L305.26,151.03L312.89,166.74L320.53,138.89L328.16,82.77L335.79,89.79L343.42,148.1L351.05,185.19L358.68,176.12L366.32,160.36L373.95,158.55L381.58,170.7L389.21,133.67L396.84,127.55L404.47,105.01L412.11,112.15L419.74,116.27L427.37,109.03L435,134.66L442.63,164.48L450.26,164.05L457.89,140.24L465.53,126.2L488.42,134.87L496.05,129.3L503.68,146.69L511.32,147.96L518.95,155.03L526.58,141.32L534.21,119.53L541.84,108.27L549.47,114.62L557.11,143.6L564.74,152.4L572.37,168.02L580,232.55" style="vector-effect: none; fill: none; stroke: rgb(171, 99, 250); stroke-opacity: 1; stroke-width: 0px; opacity: 1;"/></g><g class="points"/><g class="text"/></g><g class="trace scatter trace593571" style="stroke-miterlimit: 2;"><g class="fills"/><g class="errorbars"/><g class="lines"><path class="js-line" d="M0,57.22L7.63,53.92L15.26,116.88L22.89,124.21L30.53,61.08L38.16,50.79L45.79,66.11L53.42,81.98L61.05,116.44L68.68,134.92L76.32,117.39L83.95,104.67L91.58,110.39L99.21,129.48L106.84,135.32L114.47,143.62L122.11,142.44L129.74,124.68L137.37,95.47L145,92.92L152.63,114.99L160.26,135.69L167.89,138.89L175.53,123.85L183.16,115.42L190.79,118.6L198.42,111.13L206.05,82.36L213.68,79.08L221.32,115.95L228.95,106.02L236.58,109.68L244.21,100.7L259.47,123.29L267.11,116.21L274.74,97.39L282.37,90.02L290,106.34L297.63,136.45L305.26,175.61L312.89,194.29L320.53,169.08L328.16,114.62L335.79,119.41L343.42,169.57L351.05,205.99L358.68,202.64L366.32,184.01L373.95,181.39L381.58,194.71L389.21,161.95L396.84,157.61L404.47,138.79L412.11,143.8L419.74,141.5L427.37,136.41L435,161.5L442.63,192.34L450.26,196.04L457.89,167.83L465.53,155.13L473.16,156.12L480.79,154.1L488.42,158.45L496.05,156.57L503.68,172.91L511.32,174.44L518.95,184.34L526.58,172.24L534.21,153.46L541.84,138.73L549.47,141.45L557.11,169.42L564.74,180.41L572.37,200.92L580,255.8" style="vector-effect: none; fill: none; stroke: rgb(255, 161, 90); stroke-opacity: 1; stroke-width: 0px; opacity: 1;"/></g><g class="points"/><g class="text"/></g><g class="trace scatter tracebb33b2" style="stroke-miterlimit: 2; opacity: 1;"><g class="fills"/><g class="errorbars"/><g class="lines"><path class="js-line" d="M0,43.49L7.63,38.44L15.26,103.78L22.89,112.94L30.53,45.94L38.16,33.39L45.79,54.93L53.42,72.77L61.05,106.58L68.68,125.68L76.32,106.03L83.95,93.83L91.58,100.79L99.21,118.35L106.84,123.27L114.47,132.38L122.11,132.33L129.74,114.1L137.37,83.45L145,78.43L152.63,101.12L160.26,125.83L167.89,130.29L175.53,114.64L183.16,106.44L190.79,109.77L198.42,101.55L206.05,70.86L213.68,66.46L221.32,105.91L228.95,94.79L236.58,98.6L244.21,90.11L259.47,112.43L267.11,102.97L274.74,85.36L282.37,78.87L290,96.67L297.63,127.15L305.26,163.32L312.89,180.52L320.53,153.99L328.16,98.7L335.79,104.6L343.42,158.84L351.05,195.59L358.68,189.38L366.32,172.19L373.95,169.97L381.58,182.7L389.21,147.81L396.84,142.58L404.47,121.9L412.11,127.98L419.74,128.88L427.37,122.72L435,148.08L442.63,178.41L450.26,180.05L457.89,154.03L465.53,140.66L473.16,142.71L480.79,142.98L488.42,146.66L496.05,142.94L503.68,159.8L511.32,161.2L518.95,169.68L526.58,156.78L534.21,136.5L541.84,123.5L549.47,128.04L557.11,156.51L564.74,166.41L572.37,184.47L580,244.18" style="vector-effect: none; fill: none; stroke: rgb(255, 20, 147); stroke-opacity: 1; stroke-width: 3px; opacity: 1;"/></g><g class="points"/><g class="text"/></g></g></g></g><g class="zerolinelayer-above"/><path class="xlines-above crisp" d="M79,420.5H661M79,99.5H661" style="fill: none; stroke-width: 1px; stroke: rgb(0, 0, 0); stroke-opacity: 1;"/><path class="ylines-above crisp" d="M79.5,100V420M660.5,100V420" style="fill: none; stroke-width: 1px; stroke: rgb(0, 0, 0); stroke-opacity: 1;"/><g class="overlines-above"/><g class="xaxislayer-above"><path class="xtick ticks crisp" d="M0,421v5" transform="translate(141.05,0)" style="stroke: rgb(68, 68, 68); stroke-opacity: 1; stroke-width: 1px;"/><path class="xtick ticks crisp" d="M0,421v5" transform="translate(217.37,0)" style="stroke: rgb(68, 68, 68); stroke-opacity: 1; stroke-width: 1px;"/><path class="xtick ticks crisp" d="M0,421v5" transform="translate(293.68,0)" style="stroke: rgb(68, 68, 68); stroke-opacity: 1; stroke-width: 1px;"/><path class="xtick ticks crisp" d="M0,421v5" transform="translate(370,0)" style="stroke: rgb(68, 68, 68); stroke-opacity: 1; stroke-width: 1px;"/><path class="xtick ticks crisp" d="M0,421v5" transform="translate(446.32,0)" style="stroke: rgb(68, 68, 68); stroke-opacity: 1; stroke-width: 1px;"/><path class="xtick ticks crisp" d="M0,421v5" transform="translate(522.63,0)" style="stroke: rgb(68, 68, 68); stroke-opacity: 1; stroke-width: 1px;"/><path class="xtick ticks crisp" d="M0,421v5" transform="translate(598.95,0)" style="stroke: rgb(68, 68, 68); stroke-opacity: 1; stroke-width: 1px;"/><g class="xtick"><text text-anchor="middle" x="0" y="440.4" transform="translate(141.05,0)" style="font-family: 'Open Sans', verdana, arial, sans-serif; font-size: 12px; fill: rgb(42, 63, 95); fill-opacity: 1; white-space: pre;">−1500</text></g><g class="xtick"><text text-anchor="middle" x="0" y="440.4" style="font-family: 'Open Sans', verdana, arial, sans-serif; font-size: 12px; fill: rgb(42, 63, 95); fill-opacity: 1; white-space: pre;" transform="translate(217.37,0)">−1000</text></g><g class="xtick"><text text-anchor="middle" x="0" y="440.4" style="font-family: 'Open Sans', verdana, arial, sans-serif; font-size: 12px; fill: rgb(42, 63, 95); fill-opacity: 1; white-space: pre;" transform="translate(293.68,0)">−500</text></g><g class="xtick"><text text-anchor="middle" x="0" y="440.4" style="font-family: 'Open Sans', verdana, arial, sans-serif; font-size: 12px; fill: rgb(42, 63, 95); fill-opacity: 1; white-space: pre;" transform="translate(370,0)">0</text></g><g class="xtick"><text text-anchor="middle" x="0" y="440.4" style="font-family: 'Open Sans', verdana, arial, sans-serif; font-size: 12px; fill: rgb(42, 63, 95); fill-opacity: 1; white-space: pre;" transform="translate(446.32,0)">500</text></g><g class="xtick"><text text-anchor="middle" x="0" y="440.4" style="font-family: 'Open Sans', verdana, arial, sans-serif; font-size: 12px; fill: rgb(42, 63, 95); fill-opacity: 1; white-space: pre;" transform="translate(522.63,0)">1000</text></g><g class="xtick"><text text-anchor="middle" x="0" y="440.4" style="font-family: 'Open Sans', verdana, arial, sans-serif; font-size: 12px; fill: rgb(42, 63, 95); fill-opacity: 1; white-space: pre;" transform="translate(598.95,0)">1500</text></g></g><g class="yaxislayer-above"><path class="ytick ticks crisp" d="M79,0h-5" transform="translate(0,409.75)" style="stroke: rgb(68, 68, 68); stroke-opacity: 1; stroke-width: 1px;"/><path class="ytick ticks crisp" d="M79,0h-5" transform="translate(0,365.35)" style="stroke: rgb(68, 68, 68); stroke-opacity: 1; stroke-width: 1px;"/><path class="ytick ticks crisp" d="M79,0h-5" transform="translate(0,320.95)" style="stroke: rgb(68, 68, 68); stroke-opacity: 1; stroke-width: 1px;"/><path class="ytick ticks crisp" d="M79,0h-5" transform="translate(0,276.56)" style="stroke: rgb(68, 68, 68); stroke-opacity: 1; stroke-width: 1px;"/><path class="ytick ticks crisp" d="M79,0h-5" transform="translate(0,232.16)" style="stroke: rgb(68, 68, 68); stroke-opacity: 1; stroke-width: 1px;"/><path class="ytick ticks crisp" d="M79,0h-5" transform="translate(0,187.76)" style="stroke: rgb(68, 68, 68); stroke-opacity: 1; stroke-width: 1px;"/><path class="ytick ticks crisp" d="M79,0h-5" transform="translate(0,143.36)" style="stroke: rgb(68, 68, 68); stroke-opacity: 1; stroke-width: 1px;"/><g class="ytick"><text text-anchor="end" x="71.6" y="4.199999999999999" transform="translate(0,409.75)" style="font-family: 'Open Sans', verdana, arial, sans-serif; font-size: 12px; fill: rgb(42, 63, 95); fill-opacity: 1; white-space: pre;">0.05</text></g><g class="ytick"><text text-anchor="end" x="71.6" y="4.199999999999999" style="font-family: 'Open Sans', verdana, arial, sans-serif; font-size: 12px; fill: rgb(42, 63, 95); fill-opacity: 1; white-space: pre;" transform="translate(0,365.35)">0.1</text></g><g class="ytick"><text text-anchor="end" x="71.6" y="4.199999999999999" style="font-family: 'Open Sans', verdana, arial, sans-serif; font-size: 12px; fill: rgb(42, 63, 95); fill-opacity: 1; white-space: pre;" transform="translate(0,320.95)">0.15</text></g><g class="ytick"><text text-anchor="end" x="71.6" y="4.199999999999999" style="font-family: 'Open Sans', verdana, arial, sans-serif; font-size: 12px; fill: rgb(42, 63, 95); fill-opacity: 1; white-space: pre;" transform="translate(0,276.56)">0.2</text></g><g class="ytick"><text text-anchor="end" x="71.6" y="4.199999999999999" style="font-family: 'Open Sans', verdana, arial, sans-serif; font-size: 12px; fill: rgb(42, 63, 95); fill-opacity: 1; white-space: pre;" transform="translate(0,232.16)">0.25</text></g><g class="ytick"><text text-anchor="end" x="71.6" y="4.199999999999999" style="font-family: 'Open Sans', verdana, arial, sans-serif; font-size: 12px; fill: rgb(42, 63, 95); fill-opacity: 1; white-space: pre;" transform="translate(0,187.76)">0.3</text></g><g class="ytick"><text text-anchor="end" x="71.6" y="4.199999999999999" style="font-family: 'Open Sans', verdana, arial, sans-serif; font-size: 12px; fill: rgb(42, 63, 95); fill-opacity: 1; white-space: pre;" transform="translate(0,143.36)">0.35</text></g></g><g class="overaxes-above"/></g></g><g class="polarlayer"/><g class="smithlayer"/><g class="ternarylayer"/><g class="geolayer"/><g class="funnelarealayer"/><g class="pielayer"/><g class="iciclelayer"/><g class="treemaplayer"/><g class="sunburstlayer"/><g class="glimages"/><defs id="topdefs-851ed0"><g class="clips"/><clipPath id="legend851ed0"><rect width="296" height="29" x="1" y="1"/></clipPath></defs><g class="layer-above"><g class="imagelayer"/><g class="shapelayer"><g class="shape-group" data-index="0" clip-path="url(#clip851ed0x)"><path data-index="0" fill-rule="evenodd" d="M370,420L370,100" style="opacity: 1; stroke: rgb(0, 0, 0); stroke-opacity: 1; fill: rgb(0, 0, 0); fill-opacity: 0; stroke-dasharray: 9px, 9px; stroke-width: 2px;"/></g><g class="shape-group" data-index="1" clip-path="url(#clip851ed0x)"><path data-index="1" fill-rule="evenodd" d="M212.64,420L212.64,100" style="opacity: 1; stroke: rgb(128, 128, 128); stroke-opacity: 1; fill: rgb(0, 0, 0); fill-opacity: 0; stroke-dasharray: 3px, 3px; stroke-width: 2px;"/></g></g></g><g class="infolayer"><g class="legend" pointer-events="all" transform="translate(362,62.599999999999994)"><rect class="bg" shape-rendering="crispEdges" style="stroke: rgb(0, 0, 0); stroke-opacity: 1; fill: rgb(255, 255, 255); fill-opacity: 0.8; stroke-width: 1px;" width="297" height="30" x="0.5" y="0.5"/><g class="scrollbox" transform="" clip-path="url(#legend851ed0)"><g class="groups" transform=""><g class="traces" transform="translate(0,15.5)" style="opacity: 1;"><text class="legendtext" text-anchor="start" x="40" y="4.680000000000001" style="font-family: 'Open Sans', verdana, arial, sans-serif; font-size: 12px; fill: rgb(42, 63, 95); fill-opacity: 1; white-space: pre;">Standard (AAAB)</text><g class="layers" style="opacity: 1;"><g class="legendfill"/><g class="legendlines"><path class="js-line" d="M5,0h30" style="fill: none; stroke: rgb(143, 0, 255); stroke-opacity: 1; stroke-width: 3px;"/></g><g class="legendsymbols"><g class="legendpoints"/></g></g><rect class="legendtoggle" x="0" y="-9.5" width="145.46875" height="19" style="fill: rgb(0, 0, 0); fill-opacity: 0;"/></g></g><g class="groups" transform="translate(147.96875,0)"><g class="traces" transform="translate(0,15.5)" style="opacity: 1;"><text class="legendtext" text-anchor="start" x="40" y="4.680000000000001" style="font-family: 'Open Sans', verdana, arial, sans-serif; font-size: 12px; fill: rgb(42, 63, 95); fill-opacity: 1; white-space: pre;">Omission (AXAB)</text><g class="layers" style="opacity: 1;"><g class="legendfill"/><g class="legendlines"><path class="js-line" d="M5,0h30" style="fill: none; stroke: rgb(255, 20, 147); stroke-opacity: 1; stroke-width: 3px;"/></g><g class="legendsymbols"><g class="legendpoints"/></g></g><rect class="legendtoggle" x="0" y="-9.5" width="145.5546875" height="19" style="fill: rgb(0, 0, 0); fill-opacity: 0;"/></g></g></g><rect class="scrollbar" rx="20" ry="3" width="0" height="0" style="fill: rgb(128, 139, 164); fill-opacity: 1;" x="0" y="0"/></g><g class="g-gtitle"><text class="gtitle" x="350" y="50" text-anchor="middle" dy="0em" style="opacity: 1; font-family: Arial; font-size: 18px; fill: rgb(0, 0, 0); fill-opacity: 1; white-space: pre;"><tspan class="line" dy="0em" x="350" y="50"><tspan style="font-weight:bold">Figure f010: FST Delta SFC</tspan></tspan><tspan class="line" dy="1.3em" x="350" y="50">​<tspan style="font-size:70%" dy="-0.6em">Continuous 2-4 Hz Phase-Locking Value | N=80 units</tspan><tspan dy="0.42em">​</tspan></tspan></text></g><g class="g-xtitle"><text class="xtitle" x="370" y="467.200390625" text-anchor="middle" style="opacity: 1; font-family: 'Open Sans', verdana, arial, sans-serif; font-size: 14px; fill: rgb(42, 63, 95); fill-opacity: 1; white-space: pre;">Time from Omission (ms)</text></g><g class="g-ytitle"><text class="ytitle" transform="rotate(-90,24.941796875,260)" x="24.941796875" y="260" text-anchor="middle" style="opacity: 1; font-family: 'Open Sans', verdana, arial, sans-serif; font-size: 14px; fill: rgb(42, 63, 95); fill-opacity: 1; white-space: pre;">Delta SFC (PLV)</text></g><g class="annotation" data-index="0" style="opacity: 1;"><g class="annotation-text-g" transform="rotate(0,419.5,109.5)"><g class="cursor-pointer" transform="translate(370,100)"><rect class="bg" x="0.5" y="0.5" width="98" height="18" style="stroke-width: 1px; stroke: rgb(0, 0, 0); stroke-opacity: 0; fill: rgb(0, 0, 0); fill-opacity: 0;"/><text class="annotation-text" text-anchor="middle" x="49.23828125" y="14" style="font-family: 'Open Sans', verdana, arial, sans-serif; font-size: 12px; fill: rgb(42, 63, 95); fill-opacity: 1; white-space: pre;">Omission Onset</text></g></g></g><g class="annotation" data-index="1" style="opacity: 1;"><g class="annotation-text-g" transform="rotate(0,242.14,109.5)"><g class="cursor-pointer" transform="translate(213,100)"><rect class="bg" x="0.5" y="0.5" width="58" height="18" style="stroke-width: 1px; stroke: rgb(0, 0, 0); stroke-opacity: 0; fill: rgb(0, 0, 0); fill-opacity: 0;"/><text class="annotation-text" text-anchor="middle" x="29.12890625" y="14" style="font-family: 'Open Sans', verdana, arial, sans-serif; font-size: 12px; fill: rgb(42, 63, 95); fill-opacity: 1; white-space: pre;">P1 Onset</text></g></g></g></g></svg>